<svg width="258" height="201" viewBox="0 0 258 201" fill="none" xmlns="http://www.w3.org/2000/svg">
<path d="M25.5208 131.267C-42.8578 52.441 42.2167 12.995 93.3013 3.1252C168.059 -10.0622 229.112 20.5425 248.549 56.3724C267.986 92.2022 256.274 131.267 224.128 168.59C191.982 205.912 110.994 229.799 25.5208 131.267Z" fill="white"/>
<path d="M144.317 133.044C145.21 133.091 146.097 132.863 146.857 132.391C147.617 131.919 148.214 131.226 148.568 130.406H148.607V131.945C148.606 132.094 148.636 132.242 148.694 132.379C148.753 132.517 148.838 132.64 148.946 132.743C149.054 132.846 149.182 132.926 149.322 132.978C149.462 133.03 149.611 133.053 149.76 133.045C149.907 133.052 150.053 133.028 150.19 132.975C150.327 132.922 150.451 132.842 150.554 132.738C150.658 132.635 150.739 132.511 150.792 132.374C150.845 132.238 150.869 132.092 150.862 131.945V115.11C150.874 114.956 150.854 114.8 150.803 114.654C150.752 114.508 150.671 114.374 150.565 114.261C150.459 114.148 150.331 114.058 150.188 113.997C150.045 113.936 149.892 113.905 149.737 113.907C149.582 113.905 149.428 113.936 149.285 113.997C149.143 114.058 149.014 114.148 148.908 114.261C148.803 114.374 148.721 114.508 148.67 114.654C148.619 114.8 148.599 114.956 148.611 115.11V121.541H148.559C148.135 120.783 147.511 120.157 146.754 119.73C145.998 119.303 145.138 119.092 144.269 119.12C140.874 119.12 138.555 121.863 138.555 126.082C138.555 130.301 140.883 133.044 144.317 133.044ZM144.744 131.065C142.36 131.065 140.856 129.137 140.856 126.083C140.856 123.042 142.36 121.101 144.744 121.101C147.064 121.101 148.619 123.081 148.619 126.083C148.62 129.098 147.065 131.065 144.745 131.065H144.744ZM159.026 133.044C161.489 133.044 163.381 132.009 164.249 130.185C164.346 129.977 164.403 129.753 164.417 129.525C164.424 129.392 164.404 129.26 164.356 129.137C164.308 129.013 164.235 128.901 164.14 128.808C164.046 128.715 163.933 128.644 163.809 128.597C163.684 128.551 163.552 128.532 163.419 128.541C163.251 128.536 163.085 128.576 162.937 128.655C162.79 128.735 162.665 128.852 162.577 128.994C161.527 130.521 160.542 131.091 158.935 131.091C156.525 131.091 155.034 129.408 155.034 126.691H163.458C163.63 126.702 163.802 126.676 163.963 126.613C164.123 126.55 164.268 126.453 164.387 126.328C164.505 126.204 164.595 126.054 164.65 125.891C164.704 125.728 164.722 125.555 164.702 125.384C164.702 121.696 162.278 119.121 158.832 119.121C155.112 119.121 152.715 121.89 152.715 126.135C152.715 130.483 155.049 133.044 159.027 133.044H159.026ZM155.048 124.931C155.19 122.615 156.693 121.075 158.793 121.075C160.88 121.075 162.318 122.602 162.37 124.931H155.048ZM167.684 133.044C167.839 133.046 167.993 133.015 168.135 132.954C168.278 132.893 168.406 132.803 168.512 132.69C168.618 132.577 168.699 132.443 168.75 132.297C168.801 132.151 168.822 131.995 168.809 131.841V115.11C168.822 114.956 168.801 114.8 168.75 114.654C168.699 114.508 168.618 114.374 168.512 114.261C168.406 114.148 168.278 114.058 168.135 113.997C167.993 113.936 167.839 113.905 167.684 113.907C167.529 113.905 167.375 113.936 167.232 113.997C167.09 114.058 166.962 114.148 166.856 114.261C166.75 114.374 166.669 114.508 166.618 114.654C166.566 114.8 166.546 114.956 166.558 115.11V131.842C166.546 131.996 166.566 132.151 166.618 132.297C166.669 132.444 166.75 132.578 166.856 132.691C166.962 132.804 167.091 132.894 167.233 132.955C167.376 133.016 167.53 133.046 167.685 133.044H167.684ZM172.57 117.09C172.942 117.089 173.3 116.943 173.564 116.681C173.829 116.419 173.979 116.064 173.983 115.692C173.982 115.508 173.945 115.325 173.873 115.155C173.802 114.985 173.698 114.831 173.567 114.701C173.435 114.571 173.28 114.468 173.109 114.399C172.938 114.329 172.755 114.294 172.57 114.295C172.199 114.295 171.843 114.443 171.581 114.705C171.319 114.967 171.171 115.322 171.17 115.692C171.173 116.062 171.322 116.416 171.584 116.678C171.846 116.939 172.2 117.087 172.571 117.09H172.57ZM172.57 133.044C172.725 133.046 172.879 133.015 173.021 132.954C173.164 132.893 173.292 132.803 173.398 132.69C173.504 132.577 173.585 132.443 173.636 132.297C173.688 132.151 173.708 131.995 173.696 131.841V120.325C173.708 120.17 173.688 120.015 173.636 119.869C173.585 119.723 173.504 119.589 173.398 119.475C173.292 119.362 173.164 119.272 173.021 119.211C172.879 119.15 172.725 119.12 172.57 119.121C172.415 119.12 172.261 119.15 172.119 119.211C171.976 119.272 171.848 119.362 171.742 119.475C171.636 119.589 171.555 119.723 171.504 119.869C171.453 120.015 171.432 120.17 171.444 120.325V131.841C171.432 131.996 171.453 132.151 171.504 132.297C171.555 132.443 171.636 132.577 171.742 132.691C171.848 132.804 171.977 132.894 172.119 132.955C172.262 133.016 172.416 133.046 172.571 133.044H172.57ZM181.15 133.044C181.492 133.052 181.828 132.944 182.101 132.737C182.374 132.531 182.568 132.238 182.653 131.906L186.93 120.739C187.006 120.554 187.045 120.356 187.046 120.156C187.05 120.013 187.023 119.87 186.967 119.737C186.911 119.605 186.828 119.486 186.723 119.388C186.617 119.29 186.492 119.216 186.356 119.17C186.219 119.124 186.075 119.107 185.932 119.121C185.687 119.123 185.45 119.209 185.262 119.365C185.073 119.52 184.943 119.736 184.895 119.975L181.188 130.418H181.136L177.444 119.975C177.395 119.734 177.263 119.517 177.072 119.362C176.881 119.206 176.641 119.121 176.395 119.121C176.251 119.107 176.106 119.124 175.969 119.17C175.832 119.215 175.706 119.29 175.6 119.387C175.494 119.485 175.409 119.604 175.352 119.737C175.295 119.869 175.267 120.012 175.269 120.156C175.27 120.356 175.31 120.554 175.386 120.739L179.675 131.906C179.997 132.721 180.412 133.044 181.151 133.044H181.15ZM193.76 133.044C196.222 133.044 198.114 132.009 198.982 130.185C199.079 129.977 199.136 129.753 199.151 129.525C199.158 129.392 199.137 129.26 199.089 129.137C199.042 129.013 198.968 128.901 198.874 128.808C198.779 128.715 198.666 128.644 198.542 128.597C198.418 128.551 198.285 128.532 198.153 128.541C197.985 128.536 197.819 128.576 197.671 128.655C197.523 128.735 197.399 128.852 197.31 128.994C196.261 130.521 195.276 131.091 193.669 131.091C191.258 131.091 189.768 129.408 189.768 126.691H198.193C198.365 126.702 198.537 126.676 198.697 126.613C198.858 126.55 199.002 126.453 199.121 126.328C199.24 126.204 199.329 126.054 199.384 125.891C199.439 125.728 199.457 125.555 199.437 125.384C199.437 121.696 197.013 119.121 193.566 119.121C189.847 119.121 187.449 121.89 187.449 126.135C187.449 130.483 189.782 133.044 193.761 133.044H193.76ZM189.781 124.931C189.924 122.615 191.426 121.075 193.527 121.075C195.613 121.075 197.052 122.602 197.103 124.931H189.781ZM202.301 133.044C202.456 133.046 202.61 133.015 202.752 132.954C202.895 132.893 203.023 132.803 203.129 132.69C203.235 132.577 203.316 132.443 203.367 132.297C203.418 132.151 203.439 131.995 203.426 131.841V124.453C203.426 122.731 204.295 121.27 206.329 121.27C206.71 121.302 207.091 121.202 207.405 120.985C207.523 120.891 207.616 120.77 207.677 120.633C207.738 120.495 207.765 120.345 207.755 120.195C207.763 120.057 207.742 119.919 207.692 119.79C207.643 119.661 207.567 119.543 207.47 119.445C207.17 119.206 206.79 119.091 206.407 119.122C205.705 119.153 205.032 119.405 204.482 119.842C203.933 120.279 203.536 120.878 203.349 121.554H203.297V120.26C203.308 120.114 203.289 119.968 203.241 119.829C203.193 119.691 203.116 119.564 203.016 119.457C202.916 119.35 202.795 119.265 202.66 119.207C202.526 119.149 202.38 119.12 202.234 119.122C202.087 119.12 201.942 119.149 201.807 119.207C201.672 119.265 201.551 119.35 201.451 119.457C201.351 119.564 201.275 119.691 201.226 119.829C201.178 119.968 201.159 120.114 201.171 120.26V131.842C201.159 131.996 201.179 132.152 201.231 132.298C201.282 132.445 201.364 132.579 201.47 132.692C201.577 132.805 201.705 132.895 201.849 132.956C201.992 133.017 202.145 133.047 202.301 133.044ZM210.142 137.846C212.371 137.846 213.473 136.849 214.639 133.756L219.618 120.752C219.689 120.561 219.729 120.36 219.734 120.156C219.736 120.014 219.709 119.873 219.653 119.743C219.598 119.612 219.515 119.494 219.412 119.397C219.308 119.299 219.185 119.224 219.051 119.177C218.917 119.13 218.774 119.111 218.633 119.121C218.384 119.105 218.139 119.18 217.943 119.333C217.747 119.485 217.614 119.705 217.57 119.949L213.836 130.56H213.797L210.078 119.949C210.028 119.705 209.891 119.488 209.694 119.335C209.496 119.183 209.251 119.107 209.002 119.121C208.858 119.109 208.714 119.127 208.578 119.174C208.442 119.22 208.317 119.295 208.211 119.392C208.105 119.489 208.021 119.608 207.963 119.739C207.906 119.871 207.876 120.013 207.876 120.156C207.882 120.36 207.921 120.561 207.993 120.752L212.629 132.826L212.318 133.771C211.788 135.4 210.972 135.917 210.118 135.917C209.768 135.917 209.677 135.904 209.353 135.904C209.237 135.89 209.12 135.901 209.008 135.937C208.897 135.973 208.795 136.032 208.709 136.11C208.622 136.189 208.554 136.285 208.508 136.393C208.463 136.5 208.441 136.616 208.444 136.732C208.445 137.444 209.054 137.846 210.142 137.846Z" fill="#00A6ED"/>
<path d="M143.2 72.6861C143.802 72.7019 144.402 72.5975 144.963 72.3791C145.525 72.1608 146.037 71.8328 146.47 71.4144C146.903 70.996 147.248 70.4955 147.485 69.9424C147.721 69.3892 147.845 68.7944 147.849 68.1928C147.848 67.5906 147.725 66.9947 147.489 66.4404C147.253 65.8862 146.908 65.3848 146.475 64.966C146.042 64.5471 145.529 64.2193 144.966 64.0018C144.404 63.7844 143.803 63.6818 143.2 63.7C142.597 63.6818 141.997 63.7844 141.434 64.0018C140.872 64.2193 140.359 64.5471 139.925 64.966C139.492 65.3848 139.147 65.8862 138.911 66.4404C138.675 66.9947 138.553 67.5906 138.551 68.1928C138.555 68.7944 138.679 69.3892 138.916 69.9424C139.153 70.4955 139.498 70.996 139.931 71.4144C140.364 71.8328 140.876 72.1608 141.437 72.3791C141.999 72.5975 142.598 72.7019 143.2 72.6861ZM143.2 109.168C145.884 109.168 147.551 107.472 147.551 104.645V80.5418C147.551 77.7149 145.882 75.9894 143.2 75.9894C140.489 75.9894 138.85 77.7153 138.85 80.5418V104.643C138.85 107.471 140.489 109.166 143.2 109.166V109.168ZM170.098 109.168C172.661 109.168 174.449 107.621 174.449 104.645V98.1868L177.219 95.6278L185.416 106.459C186.787 108.512 187.829 109.166 189.677 109.166C192.121 109.166 193.819 107.56 193.819 105.239C193.819 104.108 193.551 103.334 192.598 102.055L183.687 90.7179L191.822 83.0411C193.074 81.8805 193.461 81.0774 193.461 79.7681C193.468 79.2624 193.372 78.7606 193.178 78.2933C192.985 77.8259 192.698 77.4027 192.336 77.0493C191.974 76.6959 191.543 76.4197 191.071 76.2375C190.598 76.0553 190.094 75.9709 189.587 75.9894C188.276 75.9894 187.293 76.4951 186.131 77.7153L174.568 89.2897H174.449V69.5021C174.449 66.5265 172.661 64.9497 170.099 64.9497C167.566 64.9497 165.748 66.5265 165.748 69.5021V104.644C165.747 107.619 167.565 109.166 170.098 109.166V109.168ZM215.085 72.6861C215.687 72.7019 216.287 72.5975 216.848 72.3791C217.409 72.1608 217.922 71.8328 218.354 71.4144C218.787 70.996 219.132 70.4955 219.369 69.9424C219.606 69.3892 219.73 68.7944 219.734 68.1928C219.732 67.5905 219.61 66.9946 219.374 66.4403C219.138 65.886 218.793 65.3846 218.36 64.9657C217.926 64.5468 217.413 64.2189 216.851 64.0014C216.288 63.784 215.688 63.6813 215.085 63.6996C214.482 63.6813 213.881 63.784 213.319 64.0014C212.756 64.2189 212.243 64.5468 211.81 64.9657C211.376 65.3846 211.032 65.886 210.796 66.4403C210.56 66.9946 210.437 67.5905 210.436 68.1928C210.44 68.7944 210.564 69.3892 210.801 69.9424C211.037 70.4955 211.382 70.996 211.815 71.4144C212.248 71.8328 212.76 72.1608 213.322 72.3791C213.883 72.5975 214.483 72.7019 215.085 72.6861ZM215.085 109.168C217.769 109.168 219.436 107.472 219.436 104.645V80.5418C219.436 77.7149 217.767 75.9894 215.085 75.9894C212.373 75.9894 210.734 77.7153 210.734 80.5418V104.643C210.734 107.471 212.373 109.166 215.085 109.166V109.168Z" fill="#00A6ED"/>
<path opacity="0.35" d="M104.277 120.271C98.2283 123.232 92.6956 125.529 81.3057 125.529C69.9157 125.529 64.2237 123.253 58.025 120.134C58.6062 119.715 59.3161 119.513 60.0305 119.565C60.7904 119.371 61.7739 119.174 62.8074 118.962C74.5989 123.14 88.6491 123.111 100.386 118.721C101.977 118.986 103.44 119.394 104.277 120.271Z" fill="#C5EFFF"/>
<path d="M65.9208 74.221C65.6878 74.739 65.4234 75.2422 65.129 75.7279C61.1414 78.0027 50.3803 82.158 45.7151 79.75C38.5256 76.0389 37.9478 62.5445 42.3136 56.7363C46.6794 50.9282 56.1877 49.6238 61.8887 52.5623C69.318 56.394 69.1629 66.9783 65.9226 74.2162L65.9208 74.221Z" fill="black"/>
<path d="M97.9304 75.9508C98.1614 76.4965 98.4271 77.0268 98.7257 77.5385C102.832 79.982 113.958 84.5111 118.862 82.0941C126.418 78.3697 127.278 64.3297 122.841 58.1979C118.404 52.0661 108.533 50.5291 102.54 53.4784C94.7315 57.327 94.6936 68.3495 97.9304 75.949V75.9508Z" fill="black"/>
<path d="M79.7436 50.7449C79.4244 50.7937 79.0961 50.854 78.9536 50.8823C78.9067 50.8576 78.858 50.8353 78.8112 50.813C79.1208 50.7865 79.4322 50.7642 79.7436 50.7449Z" fill="white"/>
<path opacity="0.4" d="M42.8791 96.4359C42.8846 96.4733 42.8888 96.513 42.8942 96.5504C42.831 96.5982 42.7652 96.6422 42.697 96.6824C42.6633 96.7029 42.6236 96.7258 42.5828 96.7481C42.592 96.0071 42.6232 95.2541 42.6765 94.489C42.6952 94.756 42.718 95.0194 42.7439 95.2828C42.7812 95.6704 42.8262 96.0562 42.8791 96.4341V96.4359Z" fill="white"/>
<path opacity="0.4" d="M119.72 96.6627C119.65 96.6193 119.596 96.5819 119.556 96.5518C119.562 96.5144 119.568 96.4764 119.571 96.4373C119.623 96.0575 119.667 95.6736 119.706 95.286C119.733 95.0226 119.755 94.7592 119.774 94.4922C119.826 95.2577 119.858 96.0107 119.868 96.7513C119.811 96.7194 119.762 96.691 119.717 96.6627H119.72Z" fill="white"/>
<path d="M122.828 97.4125C122.828 97.4125 122.812 97.433 122.795 97.4523C121.927 98.4052 120.803 99.086 119.559 99.4125C120.143 99.9221 120.859 100.256 121.624 100.377C120.265 103.067 118.653 105.621 116.81 108.004C116.143 108.858 115.431 109.676 114.677 110.453C114.467 110.669 114.253 110.88 114.036 111.085C113.542 111.554 113.043 112.005 112.539 112.438C110.86 113.884 109.071 115.196 107.188 116.364C107.1 116.42 107.008 116.475 106.922 116.527C103.849 118.394 100.569 119.893 97.1473 120.993C91.9998 122.644 86.6312 123.498 81.2268 123.524C75.8218 123.498 70.4525 122.644 65.3045 120.993C61.8836 119.892 58.6031 118.393 55.5299 116.527C55.4644 116.485 55.3947 116.444 55.3291 116.403C53.423 115.226 51.6126 113.901 49.9149 112.438C49.4103 112.004 48.9113 111.552 48.418 111.084C48.1907 110.867 47.9641 110.645 47.7446 110.421C47.3545 110.02 46.9733 109.603 46.6078 109.177C46.3265 108.852 46.0523 108.521 45.7878 108.187C43.9035 105.775 42.2563 103.185 40.8689 100.455C40.8443 100.404 40.8317 100.377 40.8317 100.377C40.8317 100.377 40.8786 100.372 40.9627 100.357C41.6519 100.222 42.2964 99.9163 42.8372 99.4673C42.8576 99.4504 42.8787 99.4336 42.8973 99.4149C41.6527 99.0879 40.5289 98.4072 39.6612 97.4547C39.6443 97.4358 39.6331 97.4226 39.6275 97.4149H39.6762C40.661 97.4416 41.6374 97.2266 42.5204 96.7887C44.7532 96.5253 46.9198 96.33 47.601 94.7459C54.5747 78.5108 73.5641 78.9116 78.2714 91.6345C79.7391 95.5607 79.8126 99.874 78.4794 103.848C79.3295 103.808 80.1799 103.785 81.0308 103.779H81.4306C82.3348 103.784 83.2391 103.81 84.1437 103.856C82.8072 99.88 82.88 95.5635 84.3499 91.6351C89.0572 78.9122 108.047 78.5114 115.02 94.7466C115.682 96.2818 117.735 96.5126 119.89 96.7652C120.784 97.2202 121.778 97.444 122.781 97.4162H122.83L122.828 97.4125Z" fill="white"/>
<path opacity="0.35" d="M121.622 100.375C121.622 100.375 118.468 106.881 114.033 111.083C111.859 113.143 109.474 114.967 106.918 116.525C103.846 118.392 100.565 119.891 97.1439 120.991C86.7962 124.369 75.6464 124.369 65.2987 120.991C61.8778 119.89 58.5973 118.391 55.5241 116.525C52.9687 114.967 50.5841 113.143 48.4098 111.083C43.9767 106.882 40.8229 100.375 40.8229 100.375C41.2908 100.304 41.7425 100.151 42.1569 99.9216C43.8614 102.941 45.9645 105.716 48.4092 108.172C50.5835 110.231 52.9681 112.055 55.5235 113.614C58.5962 115.481 61.8769 116.98 65.2981 118.08C75.6458 121.458 86.7956 121.458 97.1433 118.08C100.564 116.979 103.845 115.48 106.918 113.614C109.473 112.055 111.858 110.231 114.032 108.172C116.477 105.717 118.58 102.942 120.285 99.9222C120.698 100.152 121.15 100.306 121.619 100.375L121.622 100.375Z" fill="#B3B3B3"/>
<path d="M123.193 97.1202C123.146 97.0643 123.088 97.0196 123.021 96.9894C122.955 96.9592 122.883 96.9441 122.81 96.9454C121.919 96.971 121.034 96.7888 120.225 96.4131C120.177 96.3881 120.137 96.3487 120.111 96.3004C120.085 96.252 120.075 96.197 120.081 96.1425C120.115 95.8791 120.145 95.6085 120.171 95.3336C120.228 94.7694 120.268 94.192 120.297 93.6128C120.38 91.761 120.334 89.9057 120.161 88.0602C119.876 85.1307 119.345 82.2306 118.572 79.3908C118.225 78.0958 117.812 76.8195 117.334 75.5669C117.306 75.4934 117.28 75.4223 117.252 75.3505C117.201 75.221 117.148 75.089 117.096 74.9576C117.07 74.8919 117.041 74.8237 117.015 74.7562C117.004 74.7279 116.991 74.6996 116.98 74.6718C116.89 74.45 116.8 74.23 116.702 74.0088C116.239 72.9367 115.729 71.8883 115.173 70.8637C115.093 70.7148 115.012 70.5665 114.929 70.42C113.571 67.9982 111.961 65.7276 110.125 63.6463C106.377 59.4002 101.773 56.0009 96.6162 53.6737C94.5791 52.76 92.4684 52.0212 90.3068 51.4653C89.8715 51.3525 89.4158 51.2434 88.9559 51.1416C88.5351 51.0475 88.1059 50.9607 87.6802 50.8818C87.3388 50.8179 86.9967 50.7576 86.654 50.701C86.127 50.6162 85.5967 50.5434 85.0633 50.4828C82.1857 49.0596 79.1043 48.0953 75.9302 47.6245C76.1309 47.724 79.0725 48.689 79.5475 50.2881C79.3112 50.3031 79.0767 50.32 78.8405 50.3405C74.9941 48.0157 65.8357 48.695 65.8357 48.695C65.8357 48.695 71.042 48.7872 74.5444 50.9252C74.1897 50.9909 73.8392 51.0626 73.4864 51.1416C73.0265 51.2434 72.5726 51.3525 72.1355 51.4653C69.9742 52.0211 67.8639 52.7599 65.8273 53.6737C60.6708 56.0003 56.0665 59.3992 52.3194 63.6451C50.4847 65.7267 48.8748 67.997 47.5166 70.4182C47.4342 70.5647 47.3512 70.7136 47.2707 70.8618C46.7152 71.8849 46.2062 72.9333 45.7437 74.007C45.6367 74.2535 45.5315 74.5037 45.4287 74.7538C45.3198 75.0226 45.2146 75.2921 45.1094 75.5627V75.5663L45.104 75.5832C44.6272 76.829 44.2165 78.0991 43.8734 79.3884C43.1018 82.2284 42.5709 85.1287 42.2863 88.0584C42.1127 89.904 42.0669 91.7595 42.1492 93.6115C42.1775 94.189 42.2184 94.7682 42.2749 95.3306C42.3013 95.6073 42.3314 95.8779 42.365 96.1413C42.3712 96.1958 42.3607 96.2508 42.335 96.2992C42.3092 96.3475 42.2694 96.3868 42.2208 96.4119C41.4066 96.7899 40.5156 96.9721 39.6189 96.9442C39.5298 96.9443 39.4426 96.97 39.3676 97.0182C39.2925 97.0664 39.2328 97.1351 39.1955 97.2162C39.1581 97.2973 39.1447 97.3874 39.1568 97.4759C39.1688 97.5644 39.2059 97.6476 39.2636 97.7157C39.882 98.4037 40.6234 98.9696 41.4494 99.3841C41.4832 99.4004 41.5114 99.4262 41.5306 99.4583C41.5499 99.4905 41.5593 99.5276 41.5577 99.5651C41.5561 99.6026 41.5435 99.6387 41.5216 99.6691C41.4997 99.6995 41.4694 99.7228 41.4344 99.7361C41.2207 99.8171 40.999 99.8751 40.7731 99.9091C40.6987 99.9175 40.6274 99.9437 40.5652 99.9855C40.503 100.027 40.4517 100.083 40.4157 100.149C40.3797 100.215 40.36 100.289 40.3583 100.364C40.3566 100.439 40.3729 100.513 40.4058 100.581C40.5351 100.849 43.648 107.211 48.0943 111.427C53.2286 116.247 59.4239 119.787 66.1778 121.759C71.0624 123.217 76.1294 123.97 81.226 123.995C86.3219 123.97 91.3883 123.217 96.2723 121.759C103.026 119.787 109.221 116.247 114.356 111.427C118.805 107.213 121.914 100.849 122.044 100.581C122.077 100.513 122.093 100.439 122.091 100.364C122.089 100.289 122.069 100.215 122.033 100.149C121.997 100.084 121.945 100.028 121.883 99.9863C121.82 99.9448 121.749 99.9189 121.675 99.9109C121.449 99.8747 121.227 99.8162 121.013 99.7361C120.978 99.7228 120.948 99.6996 120.926 99.6693C120.904 99.639 120.892 99.603 120.89 99.5656C120.888 99.5283 120.897 99.4912 120.916 99.459C120.935 99.4267 120.963 99.4007 120.996 99.3841C121.823 98.9693 122.565 98.4035 123.184 97.7157C123.254 97.6326 123.293 97.5279 123.295 97.4193C123.296 97.3108 123.261 97.2049 123.194 97.1196L123.193 97.1202ZM121.353 98.0906C120.779 98.4969 120.134 98.7904 119.451 98.9556C119.367 98.9757 119.29 99.0184 119.229 99.079C119.167 99.1397 119.123 99.216 119.102 99.2997C119.081 99.3834 119.083 99.4714 119.109 99.5538C119.135 99.6363 119.183 99.7098 119.248 99.7663C119.656 100.121 120.123 100.401 120.627 100.594C120.665 100.608 120.699 100.63 120.728 100.659C120.756 100.687 120.778 100.721 120.793 100.759C120.807 100.797 120.813 100.837 120.81 100.878C120.808 100.918 120.797 100.957 120.778 100.993C119.781 102.861 117.11 107.524 113.714 110.744C102.467 121.401 88.5303 123.032 81.226 123.057C73.9186 123.032 59.9808 121.401 48.7358 110.744C45.3355 107.523 42.6668 102.862 41.6683 100.992C41.6491 100.957 41.6378 100.918 41.635 100.877C41.6322 100.837 41.638 100.797 41.6521 100.759C41.6662 100.721 41.6881 100.687 41.7165 100.658C41.7449 100.63 41.7791 100.607 41.8168 100.593C42.3226 100.401 42.7907 100.121 43.1995 99.7657C43.2647 99.7092 43.313 99.6357 43.3388 99.5532C43.3646 99.4708 43.3669 99.3828 43.3456 99.2991C43.3242 99.2154 43.2804 99.1391 43.219 99.0784C43.1575 99.0178 43.0807 98.9751 42.9969 98.955C42.314 98.7898 41.6686 98.4963 41.0948 98.09C41.0636 98.0683 41.0395 98.038 41.0254 98.0027C41.0113 97.9674 41.0079 97.9288 41.0155 97.8915C41.0231 97.8543 41.0415 97.8201 41.0683 97.7933C41.0951 97.7664 41.1292 97.748 41.1663 97.7404C41.8864 97.6213 42.5711 97.3436 43.1712 96.9273C43.2386 96.877 43.2913 96.8094 43.3237 96.7317C43.3561 96.6539 43.3669 96.5689 43.3552 96.4855C43.2987 96.0925 43.25 95.673 43.2067 95.2384C43.1544 94.6911 43.1129 94.1287 43.0865 93.5663C43.0057 91.7584 43.0503 89.947 43.2199 88.1452C43.4998 85.2685 44.0213 82.4207 44.7788 79.6319C45.1255 78.3452 45.5394 77.0776 46.019 75.8346L46.0244 75.8231C46.028 75.8117 46.0316 75.8026 46.0359 75.7912C46.0401 75.7797 46.0359 75.7857 46.0395 75.7815C46.0467 75.7592 46.0581 75.7345 46.0677 75.7098C49.7781 66.2932 57.0023 58.6969 66.2073 54.5333C67.1511 54.1101 68.113 53.7246 69.0929 53.3766C70.1698 52.9948 71.2618 52.6613 72.3688 52.376C72.7944 52.2651 73.2393 52.1578 73.6878 52.0602C74.2713 51.9304 74.8585 51.8151 75.4492 51.7142L75.6897 51.6744C75.7648 51.6611 75.8418 51.6479 75.9169 51.637C75.9201 51.6361 75.9234 51.6361 75.9265 51.637C76.0786 51.6123 76.2307 51.59 76.3822 51.5677C77.9856 51.3306 79.6021 51.1937 81.2223 51.1578C82.839 51.1939 84.4518 51.3302 86.0516 51.5659C86.0817 51.5695 86.1117 51.5731 86.1418 51.5792C86.4009 51.6165 86.6576 51.6599 86.9167 51.7033L86.9841 51.7148C87.1324 51.7393 87.2806 51.7656 87.4289 51.7938H87.4325C87.875 51.8763 88.3163 51.9649 88.7551 52.0626C89.2036 52.1602 89.6461 52.2675 90.0723 52.3784C91.1773 52.6623 92.2732 52.9975 93.3482 53.379C94.3275 53.725 95.2918 54.1125 96.2338 54.5357C105.44 58.6987 112.666 66.295 116.378 75.7122L116.456 75.9153C116.456 75.9153 116.456 75.9153 116.456 75.9189C116.925 77.1355 117.328 78.3761 117.665 79.6355C118.424 82.424 118.947 85.2719 119.228 88.1488C119.397 89.9506 119.442 91.762 119.361 93.57C119.333 94.1323 119.292 94.6965 119.237 95.242C119.196 95.6766 119.147 96.0961 119.091 96.4891C119.08 96.5725 119.09 96.6576 119.123 96.7353C119.155 96.8131 119.208 96.8806 119.275 96.9309C119.876 97.3471 120.561 97.6246 121.281 97.7434C121.317 97.7515 121.35 97.77 121.377 97.7967C121.403 97.8233 121.421 97.8569 121.428 97.8935C121.436 97.9301 121.433 97.9682 121.419 98.003C121.406 98.0379 121.383 98.0681 121.352 98.09L121.353 98.0906Z" fill="black"/>
<path d="M123.418 96.9442C123.346 96.8545 123.254 96.7826 123.15 96.7337C123.046 96.6848 122.932 96.6603 122.817 96.6621C121.978 96.6841 121.144 96.5194 120.376 96.1799C120.373 96.1789 120.37 96.1769 120.369 96.1741C120.367 96.1713 120.366 96.1681 120.367 96.1648C120.4 95.9068 120.43 95.6344 120.457 95.3595C120.511 94.8086 120.554 94.2251 120.582 93.6236C120.666 91.7586 120.621 89.89 120.447 88.0313C120.16 85.0858 119.625 82.17 118.849 79.3148C118.504 78.0271 118.094 76.7576 117.622 75.5115L117.518 75.2445C117.468 75.1149 117.415 74.9811 117.362 74.8497L117.332 74.7743C117.316 74.7327 117.299 74.6917 117.282 74.6465L117.246 74.5621C117.154 74.3385 117.062 74.1161 116.965 73.8943C116.502 72.8202 115.984 71.7539 115.425 70.7268C115.344 70.5761 115.264 70.4254 115.179 70.279C113.811 67.8399 112.189 65.5529 110.341 63.4564C106.566 59.181 101.929 55.7585 96.7359 53.4158C94.6847 52.4948 92.5588 51.7509 90.3814 51.1922C89.9444 51.0777 89.4863 50.9686 89.021 50.8649C88.6079 50.7727 88.1751 50.6841 87.7356 50.6033C87.3659 50.534 87.0286 50.4755 86.7016 50.4225L86.6812 50.4189C86.1635 50.3363 85.6495 50.2646 85.1506 50.2079H85.1451C82.3284 48.8065 79.3109 47.8542 76.2014 47.3852C76.098 47.3683 76.0307 47.3569 76.0024 47.3515L73.6602 46.7782C73.6564 46.7774 73.6524 46.7779 73.6489 46.7798C73.6455 46.7816 73.6428 46.7847 73.6414 46.7883C73.64 46.792 73.64 46.7961 73.6413 46.7997C73.6427 46.8034 73.6453 46.8065 73.6488 46.8084L75.8082 47.8789C75.8347 47.8921 75.8966 47.9162 75.9922 47.9542C77.8456 48.6703 78.6939 49.3701 79.063 49.921C78.9897 49.9981 79.0029 49.9849 78.9277 50.062C75.0537 47.7806 66.7839 48.6251 66.2621 48.6624C66.2549 48.6624 65.7162 48.6793 65.7162 48.6872L73.7402 50.7968L73.4269 50.8643C72.9749 50.9638 72.5168 51.0753 72.0671 51.1898C69.8906 51.7501 67.7654 52.4946 65.7144 53.4152C60.5217 55.7586 55.8848 59.1814 52.1109 63.457C50.2642 65.5546 48.6431 67.8414 47.2744 70.2796C47.192 70.4285 47.1073 70.5767 47.0267 70.7274C46.4658 71.7599 45.95 72.825 45.4883 73.8949C45.3813 74.1432 45.2743 74.3952 45.1715 74.6471C45.0608 74.9178 44.9556 75.1896 44.8504 75.4596L44.7831 75.6326L44.7867 75.6362C44.3315 76.841 43.9376 78.0682 43.6066 79.313C42.8302 82.1691 42.2955 85.0857 42.0081 88.0319C41.8345 89.8906 41.7897 91.7592 41.874 93.6242C41.904 94.227 41.9455 94.8128 41.9996 95.3565C42.0261 95.629 42.0561 95.899 42.088 96.1521C42.0888 96.1554 42.0886 96.1588 42.0873 96.1618C42.086 96.1649 42.0837 96.1674 42.0808 96.169C41.3187 96.5176 40.487 96.6862 39.6496 96.6621C39.4861 96.657 39.3251 96.7038 39.1897 96.7959C39.1054 96.856 39.0344 96.933 38.9811 97.0219C38.9279 97.1109 38.8935 97.2099 38.8803 97.3128C38.867 97.4157 38.8751 97.5203 38.904 97.6199C38.933 97.7195 38.9821 97.812 39.0484 97.8917C39.6423 98.5588 40.3491 99.1153 41.1363 99.5354C41.0089 99.5737 40.8792 99.6039 40.748 99.6258C40.6285 99.6385 40.5138 99.6798 40.4137 99.7464C40.3135 99.813 40.2309 99.9027 40.1727 100.008C40.1145 100.114 40.0826 100.231 40.0795 100.352C40.0765 100.472 40.1024 100.592 40.1552 100.7C40.1853 100.766 43.3727 107.334 47.9032 111.628C53.0692 116.479 59.3026 120.041 66.0979 122.025C71.0091 123.492 76.1039 124.249 81.2285 124.274C86.3518 124.249 91.4454 123.492 96.3554 122.025C103.151 120.04 109.385 116.479 114.552 111.628C119.083 107.334 122.268 100.766 122.3 100.7C122.352 100.592 122.377 100.474 122.374 100.354C122.371 100.235 122.339 100.118 122.282 100.013C122.225 99.908 122.143 99.8184 122.045 99.7514C121.946 99.6844 121.833 99.642 121.714 99.6276H121.711C121.577 99.606 121.445 99.5752 121.315 99.5354C122.1 99.1131 122.806 98.5576 123.401 97.8935C123.512 97.7606 123.574 97.5938 123.577 97.4206C123.58 97.2475 123.524 97.0785 123.418 96.9418V96.9442ZM45.7775 75.6833C45.7755 75.6862 45.7743 75.6895 45.7738 75.6929V75.6893C45.7748 75.6871 45.776 75.6851 45.7775 75.6833Z" fill="black"/>
<path d="M62.3003 145.511C62.2931 144.904 59.9984 145.951 60.002 145.34C59.9987 142.105 60.2124 138.874 60.6416 135.668C60.6735 135.431 60.709 135.194 60.745 134.958C60.8653 134.174 60.9953 133.415 61.1352 132.681C61.9083 128.633 55.8502 122.095 58.0265 120.136C58.4112 119.79 59.8691 119.666 60.852 119.643C61.4926 119.381 62.1464 119.153 62.8107 118.96C65.0825 118.492 67.5835 117.946 68.4221 117.185C71.713 114.192 75.9284 112.905 81.0523 112.881H81.1725C86.2964 112.906 90.5101 114.194 93.8003 117.185C94.9504 118.228 97.8337 118.292 100.389 118.72C101.98 118.987 97.4699 119.092 104.28 120.272C104.601 120.328 104.685 120.778 104.811 121.088C105.931 123.87 100.873 131.018 101.475 134.957C101.977 138.403 102.226 141.882 102.218 145.364C102.222 145.976 101.087 145.699 101.079 146.305" fill="#FCFEFF"/>
<path d="M75.9728 144.64C77.0233 144.64 77.8749 143.787 77.8749 142.733C77.8749 141.68 77.0233 140.826 75.9728 140.826C74.9223 140.826 74.0707 141.68 74.0707 142.733C74.0707 143.787 74.9223 144.64 75.9728 144.64Z" fill="#0D1338"/>
<path d="M75.9942 137.049C77.0447 137.049 77.8963 136.195 77.8963 135.142C77.8963 134.088 77.0447 133.235 75.9942 133.235C74.9437 133.235 74.092 134.088 74.092 135.142C74.092 136.195 74.9437 137.049 75.9942 137.049Z" fill="#0D1338"/>
<path d="M86.2228 144.64C87.2733 144.64 88.1249 143.787 88.1249 142.733C88.1249 141.68 87.2733 140.826 86.2228 140.826C85.1723 140.826 84.3207 141.68 84.3207 142.733C84.3207 143.787 85.1723 144.64 86.2228 144.64Z" fill="#0D1338"/>
<path d="M86.2423 137.049C87.2928 137.049 88.1444 136.195 88.1444 135.142C88.1444 134.088 87.2928 133.235 86.2423 133.235C85.1918 133.235 84.3401 134.088 84.3401 135.142C84.3401 136.195 85.1918 137.049 86.2423 137.049Z" fill="#0D1338"/>
<path d="M72.0322 128.099C69.8271 130.448 68.5219 133.504 68.3476 136.725C68.1071 141.556 68.1264 147.505 68.2238 152.605C67.9009 152.563 67.5895 152.519 67.2859 152.475C67.1903 147.391 67.1717 141.486 67.4134 136.676C67.5983 133.233 68.9926 129.966 71.3493 127.454C72.6064 126.11 73.2911 126.746 72.0322 128.099Z" fill="#0D1338"/>
<path d="M61.1298 135.55C60.8388 135.435 60.5406 135.317 60.2346 135.188L61.1298 135.55ZM101.982 135.194C101.676 135.314 101.376 135.435 101.087 135.544L101.982 135.194Z" fill="black"/>
<path d="M60.1544 135.77C60.2313 134.745 61.5708 128.586 62.2086 129.049C62.2706 129.073 62.3212 129.12 62.3498 129.18C62.3784 129.241 62.3829 129.309 62.3625 129.373C62.0464 130.436 61.7883 131.516 61.5894 132.608C61.3754 133.697 61.2443 134.808 61.0772 135.903C61.0511 136.019 60.9826 136.12 60.8852 136.187C60.7879 136.254 60.6688 136.282 60.552 136.265C60.4351 136.248 60.329 136.187 60.2548 136.095C60.1807 136.002 60.1439 135.886 60.152 135.767L60.1544 135.77Z" fill="#0D1338"/>
<path d="M102.057 135.796C101.905 134.004 100.648 128.587 100.013 129.049C99.951 129.073 99.9005 129.12 99.8719 129.18C99.8433 129.24 99.8387 129.309 99.8592 129.373C100.175 130.436 100.433 131.517 100.632 132.608C100.846 133.698 100.976 134.809 101.141 135.905C101.167 136.017 101.233 136.115 101.326 136.181C101.42 136.247 101.534 136.276 101.648 136.262C101.761 136.249 101.866 136.194 101.941 136.108C102.017 136.022 102.058 135.911 102.057 135.796Z" fill="#0D1338"/>
<path d="M122.828 97.4132C122.828 97.4132 122.811 97.4337 122.794 97.453C121.926 98.4064 120.801 99.0878 119.556 99.4149C120.142 99.9231 120.858 100.256 121.623 100.376C120.264 103.066 118.652 105.62 116.809 108.004C116.143 108.858 115.431 109.676 114.676 110.453C114.466 110.669 114.252 110.88 114.035 111.087C113.541 111.553 113.043 112.003 112.54 112.437C110.86 113.883 109.071 115.195 107.189 116.363C107.099 116.42 107.009 116.474 106.923 116.527C103.849 118.394 100.568 119.894 97.1463 120.995C91.9989 122.646 86.6303 123.5 81.2259 123.526C75.8209 123.5 70.4516 122.646 65.3036 120.995C61.8825 119.894 58.6019 118.394 55.529 116.527C55.4617 116.487 55.3938 116.446 55.3282 116.407C53.4225 115.229 51.6122 113.904 49.914 112.442C49.4094 112.007 48.9098 111.556 48.4153 111.089C48.188 110.871 47.9632 110.649 47.7437 110.426C47.3518 110.024 46.9728 109.61 46.6069 109.183C46.3264 108.857 46.053 108.527 45.7869 108.191C43.9005 105.777 42.2521 103.186 40.865 100.453C40.8404 100.402 40.8278 100.376 40.8278 100.376C40.8718 100.371 40.9155 100.364 40.9588 100.355C41.6483 100.221 42.293 99.9153 42.8333 99.4655C42.8537 99.4487 42.8748 99.4318 42.8934 99.4149C41.6484 99.0879 40.5244 98.4065 39.6573 97.453C39.6404 97.4341 39.6292 97.4208 39.6236 97.4132H39.6723C40.657 97.4386 41.6331 97.2237 42.5165 96.7869C42.5838 96.7514 42.6439 96.7152 42.6968 96.6832C42.765 96.6432 42.8308 96.5994 42.894 96.5518C42.8886 96.5145 42.8844 96.4765 42.879 96.4373C42.8267 96.0576 42.7834 95.6736 42.7437 95.2861C42.6892 94.7275 42.6491 94.1619 42.6235 93.5893C42.5403 91.7601 42.5849 89.9272 42.7569 88.1043C43.0377 85.2012 43.5642 82.3274 44.3308 79.5138C46.1409 72.8519 49.6781 66.7893 54.5829 61.9424C59.4876 57.0956 65.585 53.6373 72.2551 51.9192C72.6957 51.8047 73.1424 51.6992 73.5891 51.5991C74.2456 51.4545 74.9091 51.3265 75.5796 51.2152C74.043 49.3792 69.3508 49.0917 69.2498 48.9579C70.1972 48.9428 75.154 49.199 78.8121 50.8125C78.859 50.833 78.9077 50.8577 78.9546 50.8819C79.0971 50.8535 79.4254 50.7933 79.7446 50.7444H79.7578C79.9787 50.7038 80.2029 50.6837 80.4275 50.6842C80.3547 50.2254 80.1557 49.7962 79.8528 49.4448C79.5498 49.0934 79.1551 48.8337 78.713 48.6951C78.8103 48.7174 83.9096 49.8801 84.6322 50.9072C86.0524 51.0612 87.4633 51.2926 88.8585 51.6003C89.307 51.6998 89.7512 51.8053 90.1943 51.9204C96.8647 53.6377 102.963 57.0954 107.868 61.9419C112.773 66.7883 116.311 72.8507 118.122 79.5126C118.888 82.3264 119.414 85.2001 119.696 88.1031C119.868 89.926 119.913 91.7589 119.829 93.5881C119.801 94.1599 119.76 94.7255 119.706 95.2849C119.668 95.6722 119.623 96.056 119.572 96.4361C119.567 96.4759 119.561 96.5133 119.555 96.5506C119.595 96.5808 119.649 96.6181 119.719 96.6615C119.768 96.6917 119.824 96.7254 119.888 96.761C120.23 96.946 120.593 97.0887 120.97 97.1859C121.561 97.3381 122.17 97.4139 122.78 97.4114L122.828 97.4132Z" fill="#FCFEFF"/>
<path opacity="0.49" d="M122.376 97.5427C122.376 97.5427 122.359 97.5614 122.344 97.58C121.239 98.3928 119.987 98.9816 118.658 99.3136C119.443 99.8871 120.332 100.304 121.275 100.542C119.792 103.085 118.145 105.529 116.345 107.857C115.717 108.658 112.678 111.555 112.197 111.967C110.428 113.307 108.568 114.522 106.63 115.603C103.776 117.324 100.823 118.873 97.7864 120.244C96.471 120.855 87.1509 123.861 83.723 122.808C98.8817 118.166 102.775 101.08 102.775 84.3635C102.775 81.2653 107.893 82.601 107.18 79.7223C108.683 76.0696 104.482 65.2026 100.567 61.1623C96.4355 56.9021 86.5714 51.8492 85.892 51.4092C87.1094 51.5556 94.1883 53.8431 96.0923 54.6972C105.507 58.9165 114.23 68.9047 117.294 80.3618C118.024 83.0399 118.526 85.7754 118.793 88.5388C118.957 90.2748 119 92.0202 118.92 93.7622C118.892 94.3047 118.855 94.8472 118.8 95.3782C118.765 95.7471 118.721 96.1136 118.673 96.4746C118.667 96.512 118.663 96.5481 118.658 96.5837C118.695 96.612 118.746 96.6476 118.813 96.6892C118.858 96.7175 118.912 96.7495 118.973 96.785C119.299 96.9602 119.644 97.096 120.002 97.1895C120.765 97.3818 121.544 97.4997 122.329 97.5415H122.376V97.5427Z" fill="#C5EFFF"/>
<path d="M85.6095 96.5911C85.4634 97.6429 84.1215 99.3523 82.3505 99.104C80.5794 98.8557 79.0915 97.1855 79.24 96.1337C79.3885 95.0819 80.7183 95.244 82.5946 95.2476C84.3602 95.2476 85.7556 95.5411 85.6077 96.5923L85.6095 96.5911Z" fill="black"/>
<path d="M88.6724 101.842C88.4886 101.92 88.3121 102.013 88.1451 102.123C88.1777 102.663 88.1558 103.206 88.0796 103.742C87.5578 107.458 84.6463 110.12 81.573 109.688C78.4998 109.256 76.6199 106.186 76.9013 102.672C76.6591 102.414 76.3818 102.19 76.0776 102.009C75.5431 101.755 75.1265 101.305 74.9139 100.751C74.7013 100.198 74.709 99.5833 74.9354 99.0353C75.018 98.7677 75.1468 98.5168 75.3159 98.2939C75.4921 98.0474 75.7698 98.2264 75.6947 98.5085C75.6946 98.5157 75.6928 98.5227 75.6893 98.529C75.1903 100.458 75.9442 101.264 77.0888 102.085C77.9617 102.583 78.9704 102.787 79.9674 102.669C80.9645 102.551 81.8978 102.116 82.6311 101.429C83.2871 101.918 84.059 102.228 84.8706 102.328C85.6823 102.427 86.5058 102.313 87.2602 101.997C88.7066 101.252 89.7761 100.624 89.5002 98.4403V98.4198C89.4629 98.1323 89.7629 97.9889 89.9054 98.2565C90.0437 98.4996 90.1395 98.7646 90.1886 99.0401C90.3422 99.6125 90.2709 100.222 89.9892 100.743C89.7075 101.265 89.237 101.658 88.6748 101.841L88.6724 101.842Z" fill="black"/>
<path d="M71.5518 95.4041C70.9386 99.7867 68.6439 105.874 59.5522 103.998C54.0214 102.858 52.5335 97.5427 53.7719 93.2933C55.5935 87.0427 60.2743 85.1694 64.646 85.786C69.0178 86.4026 72.1674 91.0215 71.5518 95.4041Z" fill="black"/>
<path d="M62.7495 95.3928C63.5825 95.3928 64.2578 94.7157 64.2578 93.8805C64.2578 93.0452 63.5825 92.3682 62.7495 92.3682C61.9164 92.3682 61.2411 93.0452 61.2411 93.8805C61.2411 94.7157 61.9164 95.3928 62.7495 95.3928Z" fill="white"/>
<path d="M65.6535 99.964C66.4411 99.964 67.0795 99.3238 67.0795 98.5342C67.0795 97.7446 66.4411 97.1045 65.6535 97.1045C64.866 97.1045 64.2275 97.7446 64.2275 98.5342C64.2275 99.3238 64.866 99.964 65.6535 99.964Z" fill="white"/>
<path d="M67.7027 81.3696C67.4664 82.0393 66.3705 80.8766 61.2412 81.8361C57.8247 82.4757 55.6785 85.0771 54.9017 84.1176C54.5639 83.6998 57.2542 81.5727 60.6406 80.8295C63.8431 80.1261 67.9516 80.662 67.7003 81.372L67.7027 81.3696Z" fill="black"/>
<path d="M86.4569 105.673C86.4214 106.081 86.2759 106.472 86.0361 106.804C85.4902 107.752 82.6695 109.279 81.7473 108.793C80.8149 108.306 80.6237 107.21 80.9519 106.197C81.1722 105.399 81.5743 104.663 82.1266 104.048C82.3774 103.73 82.7036 103.48 83.0756 103.321C83.4475 103.161 83.8533 103.098 84.256 103.136C84.5668 103.157 84.8703 103.24 85.1491 103.379C85.428 103.518 85.6768 103.711 85.8812 103.947C86.0856 104.182 86.2417 104.456 86.3405 104.752C86.4393 105.048 86.4789 105.361 86.4569 105.673Z" fill="#CE111F"/>
<path d="M93.1111 91.6948C92.4805 96.1865 93.0246 102.832 102.509 103.56C108.276 104.002 111.242 99.1882 111.219 94.6537C111.186 87.98 107.105 84.8084 102.622 84.1767C98.14 83.545 93.7388 87.2031 93.1088 91.6954L93.1111 91.6948Z" fill="black"/>
<path d="M99.8309 93.9004C100.684 93.9004 101.376 93.2066 101.376 92.3507C101.376 91.4948 100.684 90.801 99.8309 90.801C98.9772 90.801 98.2852 91.4948 98.2852 92.3507C98.2852 93.2066 98.9772 93.9004 99.8309 93.9004Z" fill="white"/>
<path d="M98.0414 97.9116C98.8475 97.9116 99.5011 97.2564 99.5011 96.4481C99.5011 95.6398 98.8475 94.9846 98.0414 94.9846C97.2352 94.9846 96.5817 95.6398 96.5817 96.4481C96.5817 97.2564 97.2352 97.9116 98.0414 97.9116Z" fill="white"/>
<path d="M108.556 82.3197C108.111 82.8748 107.463 81.4113 102.304 80.6229C98.8688 80.0961 95.9867 81.8381 95.5707 80.6754C95.3904 80.1672 98.6307 79.0479 102.071 79.4735C105.325 79.8707 109.029 81.7362 108.556 82.3197Z" fill="black"/>
<path d="M80.0061 115.738C80.7942 116.115 81.6562 116.312 82.5295 116.314C83.4029 116.316 84.2659 116.124 85.056 115.751C85.0783 115.742 85.1031 115.741 85.126 115.748C85.1489 115.756 85.1683 115.771 85.1808 115.792C85.1933 115.813 85.198 115.837 85.1941 115.861C85.1901 115.885 85.1778 115.906 85.1594 115.922C84.3855 116.456 83.4677 116.741 82.5284 116.739C81.589 116.737 80.6725 116.448 79.9009 115.911C79.8907 115.902 79.8822 115.892 79.8761 115.88C79.8699 115.869 79.866 115.856 79.8648 115.843C79.8636 115.83 79.865 115.816 79.8689 115.804C79.8728 115.791 79.8792 115.78 79.8876 115.769C79.9015 115.753 79.9202 115.741 79.941 115.736C79.9619 115.731 79.9838 115.733 80.0037 115.741L80.0061 115.738Z" fill="#0D1338"/>
<path d="M94.2467 126.241H67.3697V149.522H94.2467V126.241Z" fill="#00A6ED"/>
<path d="M94.2471 149.99H67.3696C67.2457 149.99 67.1269 149.941 67.0393 149.853C66.9517 149.765 66.9025 149.646 66.9025 149.522V126.241C66.9025 126.117 66.9517 125.998 67.0393 125.91C67.1269 125.822 67.2457 125.773 67.3696 125.773H94.2465C94.3704 125.773 94.4893 125.822 94.5769 125.91C94.6645 125.998 94.7137 126.117 94.7137 126.241V149.524C94.713 149.648 94.6636 149.766 94.5762 149.854C94.4888 149.941 94.3705 149.99 94.2471 149.99ZM67.8373 149.052H93.7782V126.709H67.8373V149.052Z" fill="black"/>
<path d="M64.6208 153.907L67.3712 149.522V126.241L64.6208 133.406V153.907Z" fill="#00A6ED"/>
<path d="M64.6207 154.375C64.5769 154.375 64.5333 154.369 64.4914 154.356C64.3939 154.328 64.3082 154.269 64.2473 154.187C64.1863 154.106 64.1535 154.007 64.1536 153.905V133.404C64.1538 133.346 64.1646 133.288 64.1854 133.234L66.9358 126.069C66.976 125.969 67.0498 125.885 67.1444 125.833C67.2391 125.781 67.3489 125.763 67.4552 125.783C67.5614 125.802 67.6576 125.859 67.7273 125.941C67.797 126.024 67.836 126.129 67.8376 126.237V149.518C67.8377 149.607 67.8129 149.693 67.7661 149.768L65.0157 154.153C64.9737 154.22 64.9154 154.275 64.8462 154.314C64.777 154.352 64.6992 154.373 64.6201 154.373L64.6207 154.375ZM65.0878 133.492V152.278L66.9022 149.385V128.765L65.0878 133.492Z" fill="black"/>
<path d="M96.9979 153.907L94.2475 149.522V126.241L96.9979 133.406V153.907Z" fill="#00A6ED"/>
<path d="M96.9984 154.375C96.9191 154.375 96.8412 154.355 96.7719 154.317C96.7026 154.278 96.6442 154.223 96.6022 154.155L93.8518 149.771C93.805 149.696 93.7802 149.609 93.7803 149.521V126.239C93.7819 126.131 93.8209 126.026 93.8906 125.944C93.9603 125.861 94.0564 125.805 94.1627 125.785C94.2689 125.765 94.3787 125.783 94.4734 125.835C94.5681 125.888 94.6418 125.971 94.682 126.072L97.4324 133.237C97.4532 133.291 97.464 133.348 97.4643 133.406V153.907C97.464 154.009 97.431 154.107 97.3701 154.189C97.3092 154.27 97.2237 154.33 97.1264 154.358C97.0845 154.371 97.0409 154.377 96.9972 154.377L96.9984 154.375ZM94.7139 149.385L96.5283 152.278V133.492L94.7139 128.765V149.385Z" fill="black"/>
<path d="M96.9986 133.406H64.6208V153.906H96.9986V133.406Z" fill="#00A6ED"/>
<g opacity="0.4">
<path d="M96.9986 133.406H64.6208V134.69H96.9986V133.406Z" fill="white"/>
</g>
<g opacity="0.35">
<path d="M96.9986 132.245H64.6208V133.53H96.9986V132.245Z" fill="#0D1338"/>
</g>
<g opacity="0.35">
<path d="M96.9986 151.964H64.6208V153.907H96.9986V151.964Z" fill="#0D1338"/>
</g>
<path d="M96.9985 154.375H64.6207C64.5593 154.375 64.4986 154.363 64.4419 154.339C64.3852 154.316 64.3338 154.281 64.2904 154.238C64.247 154.194 64.2126 154.143 64.1891 154.086C64.1656 154.029 64.1536 153.968 64.1536 153.907V133.405C64.1536 133.281 64.2028 133.162 64.2904 133.074C64.378 132.986 64.4968 132.937 64.6207 132.937H96.9985C97.1223 132.937 97.2411 132.986 97.3288 133.074C97.4164 133.162 97.4656 133.281 97.4656 133.405V153.904C97.4659 153.966 97.454 154.027 97.4307 154.084C97.4074 154.141 97.373 154.193 97.3296 154.237C97.2862 154.281 97.2346 154.316 97.1778 154.339C97.1209 154.363 97.06 154.375 96.9985 154.375ZM65.0878 153.437H96.5295V133.874H65.0878V153.437Z" fill="black"/>
<path d="M111.374 135.014V135.025C110.529 138.651 108.352 141.825 105.278 143.915C105.2 143.967 105.121 144.02 105.038 144.073L104.991 144.103C104.919 144.15 104.847 144.195 104.773 144.239L104.7 144.284C104.64 144.321 104.576 144.359 104.514 144.395C104.484 144.413 104.454 144.43 104.424 144.447C104.364 144.483 104.304 144.516 104.244 144.553C104.215 144.568 104.187 144.585 104.159 144.6C104.09 144.639 104.02 144.677 103.951 144.714C103.938 144.72 103.926 144.727 103.915 144.733C103.848 144.768 103.782 144.805 103.713 144.838C103.679 144.857 103.643 144.874 103.609 144.891C103.529 144.932 103.446 144.973 103.365 145.011C103.27 145.058 103.174 145.104 103.076 145.149C102.978 145.194 102.889 145.236 102.793 145.276C102.786 145.28 102.778 145.282 102.771 145.286C102.679 145.328 102.585 145.367 102.491 145.407C102.485 145.41 102.478 145.412 102.471 145.414C102.379 145.454 102.287 145.491 102.193 145.527C102.189 145.527 102.186 145.53 102.182 145.53L101.876 145.651C101.773 145.691 101.671 145.728 101.566 145.764C101.461 145.799 101.358 145.837 101.253 145.871C101.042 145.943 100.832 146.008 100.613 146.072C98.379 146.704 96.0659 147.012 93.7446 146.986H92.9944C91.3548 147.059 89.716 146.826 88.1615 146.298C87.5935 146.074 87.077 145.736 86.6435 145.305C86.3954 145.051 86.1837 144.765 86.0146 144.453C85.5968 143.626 85.401 142.704 85.4465 141.778C85.5349 138.942 87.4406 137.307 90.6768 137.29C91.583 137.22 92.4284 137.122 93.2132 136.995C93.23 136.995 93.2468 136.989 93.2619 136.987C98.108 136.197 100.614 134.329 100.717 131.419C100.72 130.929 100.614 130.445 100.407 130.001C100.36 129.926 100.319 129.843 100.273 129.754C100.22 129.624 100.144 129.503 100.05 129.397L99.9398 129.313L99.9284 129.175C99.9284 129.15 99.9079 129.123 99.9211 129.102C100.904 127.61 101.495 123.912 101.833 121.577C102.484 121.294 103.125 120.975 103.75 120.654C103.75 120.641 104.336 120.368 104.448 120.304C106.352 121.174 107.969 122.571 109.11 124.33C111.178 127.441 112.085 131.737 111.369 135.016L111.374 135.014Z" fill="#FCFEFF"/>
<path d="M85.9044 144.457C86.0728 144.769 86.2845 145.056 86.5333 145.309C86.9671 145.74 87.4835 146.078 88.0513 146.302C89.6058 146.83 91.2446 147.064 92.8842 146.991H93.5767C95.569 142.318 94.3817 138.927 93.1529 136.989C93.136 136.989 93.121 136.995 93.1042 136.997C92.3198 137.123 91.4744 137.221 90.5678 137.292C87.3316 137.311 85.4271 138.943 85.3375 141.78C85.2919 142.706 85.488 143.628 85.9063 144.455L85.9044 144.457Z" fill="black"/>
<path opacity="0.4" d="M94.1151 138.424C93.2257 138.528 92.2709 138.608 91.2505 138.665C88.2151 138.679 86.1813 139.58 85.4479 141.186V141.066C85.5362 138.655 87.442 137.26 90.6782 137.245C91.5843 137.185 92.4298 137.102 93.2145 136.995C93.2314 136.995 93.2482 136.99 93.2632 136.988C93.5981 137.435 93.8837 137.916 94.1151 138.424Z" fill="white"/>
<path d="M93.2064 147.408H92.8818C91.1892 147.477 89.4985 147.232 87.895 146.684C87.276 146.438 86.713 146.069 86.2399 145.6C85.9648 145.319 85.7304 145.001 85.5438 144.655C85.0917 143.764 84.8783 142.771 84.9245 141.773V141.768C84.917 141.089 85.0541 140.416 85.3265 139.794C85.5989 139.172 86.0005 138.615 86.5045 138.162C87.6572 137.261 89.0933 136.805 90.5528 136.875C91.4383 136.805 92.2752 136.709 93.0405 136.585L93.3615 136.535L93.5076 136.764C94.8416 138.864 96.0031 142.37 93.9633 147.153L93.8563 147.405H93.5557C93.4415 147.405 93.3248 147.405 93.2088 147.405L93.2064 147.408ZM86.2742 144.257C86.4247 144.535 86.6129 144.79 86.8333 145.015C87.2279 145.407 87.6985 145.714 88.216 145.917C89.7213 146.42 91.306 146.643 92.8914 146.573H93.3044C94.9877 142.425 94.0859 139.357 92.9479 137.442C92.2217 137.553 91.4317 137.642 90.6033 137.706H90.5732C87.5511 137.724 85.8401 139.173 85.7572 141.789C85.7148 142.642 85.8931 143.492 86.2748 144.255L86.2742 144.257Z" fill="black"/>
<path opacity="0.49" d="M111.371 135.014V135.026C110.526 138.652 108.35 141.825 105.276 143.915C105.197 143.967 105.118 144.02 105.035 144.073L104.988 144.103C104.917 144.15 104.844 144.195 104.771 144.239L104.698 144.284C104.637 144.321 104.574 144.359 104.512 144.395C104.482 144.413 104.452 144.43 104.422 144.447C104.361 144.483 104.301 144.516 104.241 144.553C104.213 144.568 104.185 144.585 104.156 144.6C104.087 144.639 104.018 144.677 103.948 144.714C103.935 144.72 103.924 144.727 103.913 144.733C103.846 144.768 103.78 144.805 103.71 144.838C103.677 144.857 103.641 144.874 103.607 144.891C103.526 144.932 103.444 144.973 103.363 145.011C103.267 145.058 103.172 145.104 103.074 145.149C102.977 145.194 102.887 145.236 102.791 145.277C102.784 145.28 102.776 145.282 102.769 145.286C102.677 145.328 102.583 145.367 102.489 145.407C102.483 145.41 102.476 145.412 102.469 145.414C102.377 145.454 102.285 145.491 102.191 145.527C102.188 145.527 102.183 145.53 102.18 145.53L101.874 145.651C101.77 145.691 101.669 145.728 101.564 145.764C101.459 145.799 101.356 145.837 101.251 145.871C101.041 145.943 100.83 146.008 100.611 146.072C98.3771 146.704 96.0641 147.012 93.7428 146.987H92.9913C91.3518 147.059 89.713 146.826 88.1584 146.298C87.5905 146.074 87.074 145.736 86.6404 145.305C86.3926 145.051 86.1812 144.765 86.0122 144.453C85.7278 143.912 85.5494 143.321 85.4868 142.712C85.5055 142.75 85.5241 142.786 85.5433 142.821C85.7116 143.134 85.9231 143.421 86.1715 143.674C86.6054 144.104 87.1218 144.442 87.6895 144.667C89.244 145.195 90.8828 145.428 92.5224 145.355H93.2727C95.594 145.382 97.907 145.074 100.141 144.442C100.357 144.378 100.569 144.312 100.781 144.24L101.094 144.133C101.199 144.096 101.3 144.058 101.404 144.02C101.507 143.983 101.608 143.943 101.71 143.9C101.713 143.9 101.717 143.896 101.721 143.896L101.999 143.783C102.004 143.783 102.012 143.778 102.019 143.776C102.113 143.737 102.205 143.697 102.299 143.656C102.306 143.652 102.314 143.65 102.321 143.646C102.417 143.604 102.51 143.561 102.604 143.518C102.698 143.475 102.797 143.428 102.893 143.381C102.976 143.342 103.056 143.3 103.137 143.26L103.241 143.208C103.308 143.174 103.376 143.138 103.443 143.102L103.479 143.084C103.548 143.046 103.618 143.008 103.687 142.969C103.715 142.954 103.743 142.939 103.771 142.922C103.831 142.887 103.891 142.853 103.951 142.817C103.982 142.8 104.012 142.783 104.042 142.764C104.102 142.728 104.165 142.69 104.227 142.653L104.301 142.608L104.518 142.472C104.535 142.462 104.55 142.451 104.565 142.442C104.646 142.389 104.725 142.336 104.806 142.284C107.879 140.194 110.055 137.02 110.897 133.394V133.382C111.264 131.495 111.214 129.55 110.751 127.685C111.605 130.028 111.818 132.559 111.369 135.013L111.371 135.014Z" fill="#C5EFFF"/>
<path d="M111.973 135.183C109.913 143.652 102.234 147.745 93.6434 147.607C91.0655 147.483 87.5198 147.811 85.8593 145.322C85.1675 144.338 84.8061 143.159 84.8278 141.955C84.8494 140.751 85.2528 139.586 85.9796 138.628C87.0677 137.224 88.6626 136.94 90.6886 136.754C94.4448 136.406 98.8983 136.107 100.017 132.014C100.23 131.159 100.164 130.258 99.8289 129.443C99.8088 129.403 99.7991 129.359 99.8007 129.315C99.8015 129.273 99.8129 129.231 99.8339 129.194C99.8549 129.157 99.8849 129.126 99.9209 129.104C99.9318 129.097 99.9437 129.091 99.9564 129.087C100.005 129.074 100.057 129.073 100.106 129.085C100.155 129.096 100.201 129.12 100.24 129.153C100.757 129.799 101.035 130.605 101.026 131.434C100.853 136.244 94.6245 137.303 90.6856 137.606C87.6088 137.676 85.8437 138.983 85.7559 141.787C85.6754 146.549 89.9696 146.697 93.739 146.678C102.889 146.678 109.105 142.536 111.063 134.948C112.181 129.832 109.316 121.177 102.059 119.857C101.96 119.838 101.864 119.776 101.77 119.763C101.729 119.757 101.601 119.623 101.504 119.661C101.684 119.586 101.958 119.594 102.134 119.515C102.459 119.372 102.814 119.25 103.131 119.097C103.159 119.104 103.187 119.11 103.213 119.118C109.507 120.805 113.373 129.042 111.969 135.182L111.973 135.183Z" fill="black"/>
<path d="M50.7386 134.901V134.913C51.5836 138.539 53.7598 141.713 56.834 143.802C56.9127 143.855 56.9915 143.908 57.0745 143.96L57.1214 143.99C57.1929 144.037 57.2656 144.083 57.339 144.126L57.4123 144.171C57.4724 144.209 57.5362 144.247 57.5981 144.282C57.6281 144.301 57.6582 144.318 57.6883 144.335C57.7484 144.37 57.8085 144.404 57.8686 144.44C57.8969 144.455 57.9251 144.472 57.9528 144.487C58.0219 144.526 58.0917 144.564 58.1608 144.602C58.174 144.608 58.1854 144.615 58.1963 144.62C58.2636 144.656 58.3297 144.692 58.3989 144.726C58.4325 144.744 58.468 144.761 58.5023 144.779C58.5828 144.82 58.6652 144.861 58.7463 144.899C58.8419 144.946 58.9375 144.992 59.0355 145.037C59.1335 145.082 59.2231 145.124 59.3187 145.165L59.3409 145.174C59.4329 145.216 59.5267 145.255 59.6205 145.295C59.6269 145.298 59.6338 145.301 59.6409 145.303C59.7329 145.342 59.8249 145.38 59.9186 145.415C59.9223 145.415 59.9259 145.419 59.9301 145.419L60.2361 145.539C60.3395 145.579 60.4405 145.617 60.5457 145.652C60.6509 145.688 60.7537 145.726 60.8589 145.759C61.0687 145.831 61.2797 145.897 61.4986 145.961C63.7327 146.593 66.0457 146.901 68.367 146.875H69.1173C70.7569 146.948 72.3957 146.714 73.9502 146.187C74.5182 145.962 75.0346 145.624 75.4682 145.193C75.7161 144.94 75.9275 144.653 76.0964 144.341C76.5145 143.514 76.7105 142.592 76.6651 141.666C76.5768 138.83 74.671 137.195 71.4349 137.178C70.5287 137.109 69.6832 137.01 68.8985 136.883C68.8817 136.883 68.8648 136.877 68.8498 136.875C64.0037 136.085 61.4974 134.217 61.3952 131.307C61.3914 130.817 61.4972 130.333 61.7048 129.889C61.7516 129.814 61.7931 129.731 61.8382 129.642C61.892 129.512 61.9674 129.391 62.0613 129.285L62.1719 129.201L62.1833 129.063C62.1833 129.039 62.2037 129.011 62.1905 128.99C61.2076 127.498 60.6166 123.8 60.2788 121.465C59.6277 121.182 58.9862 120.863 58.3616 120.542C58.3616 120.529 57.776 120.256 57.6636 120.192C55.7594 121.062 54.1421 122.458 53.0015 124.217C50.934 127.328 50.0262 131.624 50.7428 134.903L50.7386 134.901Z" fill="#FCFEFF"/>
<path d="M76.2081 144.342C76.0399 144.654 75.8284 144.941 75.5799 145.194C75.146 145.625 74.6296 145.962 74.0619 146.187C72.5074 146.715 70.8686 146.949 69.229 146.876H68.5353C66.543 142.203 67.7303 138.812 68.9591 136.874C68.9759 136.874 68.9909 136.88 69.0078 136.882C69.7921 137.008 70.6376 137.106 71.5442 137.177C74.7803 137.196 76.6849 138.829 76.7744 141.666C76.82 142.592 76.624 143.514 76.2057 144.341L76.2081 144.342Z" fill="black"/>
<path opacity="0.4" d="M68.0004 138.31C68.8898 138.413 69.8447 138.494 70.8651 138.551C73.9004 138.565 75.9342 139.465 76.6677 141.071V140.951C76.5793 138.54 74.6735 137.146 71.4374 137.131C70.5312 137.07 69.6857 136.987 68.901 136.88C68.8842 136.88 68.8673 136.874 68.8523 136.873C68.5176 137.319 68.2319 137.8 68.0004 138.308V138.31Z" fill="white"/>
<path d="M68.9108 147.294H69.2355C70.928 147.363 72.6187 147.118 74.2223 146.57C74.8413 146.324 75.4043 145.955 75.8773 145.485C76.1525 145.205 76.3869 144.887 76.5735 144.541C77.0256 143.651 77.239 142.658 77.1927 141.66V141.654C77.2002 140.975 77.0631 140.302 76.7907 139.68C76.5182 139.059 76.1167 138.502 75.6128 138.049C74.4601 137.148 73.0239 136.692 71.5645 136.762C70.6789 136.692 69.8421 136.596 69.0768 136.472L68.7557 136.422L68.6096 136.651C67.2756 138.751 66.1141 142.257 68.154 147.04L68.261 147.292H68.5616C68.6758 147.292 68.7924 147.292 68.9084 147.292L68.9108 147.294ZM75.8431 144.143C75.6926 144.42 75.5044 144.676 75.2839 144.901C74.8894 145.293 74.4188 145.6 73.9012 145.802C72.3959 146.306 70.8112 146.528 69.2259 146.459H68.8129C67.1295 142.311 68.0313 139.243 69.1693 137.328C69.8956 137.439 70.6855 137.528 71.5139 137.592H71.544C74.5661 137.61 76.2777 139.059 76.3601 141.675C76.4025 142.528 76.2242 143.378 75.8425 144.141L75.8431 144.143Z" fill="black"/>
<path opacity="0.49" d="M50.7425 134.901V134.913C51.5881 138.538 53.7643 141.711 56.8378 143.799C56.9166 143.852 56.9954 143.905 57.0783 143.957L57.1252 143.987C57.1968 144.034 57.2695 144.08 57.3428 144.123L57.4162 144.168C57.4763 144.206 57.54 144.244 57.6019 144.279C57.632 144.298 57.6621 144.315 57.6921 144.332C57.7522 144.367 57.8124 144.401 57.8725 144.437C57.9007 144.452 57.929 144.469 57.9566 144.484C58.0258 144.523 58.0955 144.561 58.1647 144.599C58.1779 144.604 58.1893 144.612 58.2001 144.617C58.2675 144.653 58.3336 144.688 58.4027 144.723C58.4364 144.741 58.4719 144.758 58.5061 144.775C58.5867 144.817 58.669 144.858 58.7502 144.896C58.8458 144.943 58.9414 144.988 59.0394 145.033C59.1374 145.078 59.2269 145.119 59.3225 145.161C59.3297 145.165 59.3376 145.166 59.3448 145.171C59.4367 145.212 59.5305 145.251 59.6243 145.291C59.6308 145.294 59.6377 145.297 59.6448 145.298C59.7367 145.338 59.8287 145.375 59.9225 145.411C59.9261 145.411 59.9297 145.415 59.9339 145.415L60.2399 145.535C60.3433 145.575 60.4443 145.612 60.5495 145.648C60.6547 145.684 60.7575 145.721 60.8628 145.755C61.0732 145.827 61.2836 145.893 61.5024 145.957C63.7366 146.589 66.0496 146.897 68.3709 146.871H69.1212C70.7607 146.944 72.3995 146.71 73.9541 146.183C74.522 145.958 75.0385 145.62 75.472 145.189C75.7199 144.936 75.9314 144.649 76.1003 144.337C76.3847 143.796 76.563 143.205 76.6257 142.597C76.6071 142.634 76.5884 142.67 76.5692 142.706C76.4009 143.018 76.1894 143.305 75.941 143.558C75.5071 143.989 74.9907 144.327 74.423 144.552C72.8685 145.079 71.2297 145.313 69.5901 145.24H68.8398C66.5185 145.266 64.2055 144.958 61.9713 144.325C61.7555 144.262 61.5433 144.196 61.3317 144.124L61.0185 144.017C60.9133 143.98 60.8123 143.942 60.7089 143.904C60.6055 143.867 60.5045 143.827 60.4029 143.784C60.3992 143.784 60.395 143.78 60.3914 143.78L60.1137 143.667C60.1083 143.667 60.1005 143.661 60.0932 143.659C59.9995 143.62 59.9075 143.58 59.8137 143.539L59.7915 143.529C59.6959 143.488 59.6021 143.444 59.5083 143.401C59.4145 143.359 59.3153 143.311 59.2191 143.264C59.1368 143.224 59.0562 143.183 58.975 143.143L58.8716 143.091C58.8043 143.057 58.7364 143.022 58.669 142.986L58.6336 142.967C58.5638 142.93 58.4947 142.892 58.4256 142.852C58.3973 142.837 58.3691 142.822 58.3414 142.805C58.2813 142.77 58.2212 142.736 58.161 142.7C58.131 142.683 58.1009 142.666 58.0709 142.647C58.0108 142.612 57.947 142.574 57.8851 142.537L57.8118 142.491L57.5941 142.356C57.5773 142.346 57.5623 142.335 57.5472 142.326C57.4667 142.273 57.3879 142.22 57.3068 142.168C54.2333 140.078 52.0582 136.904 51.215 133.278V133.267C50.8486 131.38 50.8985 129.435 51.3611 127.57C50.5073 129.913 50.2941 132.444 50.7437 134.898L50.7425 134.901Z" fill="#C5EFFF"/>
<path d="M50.1386 135.069C52.1988 143.537 59.8777 147.63 68.468 147.493C71.0459 147.369 74.5916 147.696 76.2521 145.207C76.9441 144.223 77.3055 143.044 77.2839 141.84C77.2622 140.636 76.8587 139.471 76.1318 138.512C75.0437 137.109 73.4488 136.825 71.4228 136.639C67.6666 136.291 63.2131 135.992 62.0949 131.899C61.8816 131.044 61.9473 130.143 62.2824 129.328C62.3026 129.288 62.3124 129.244 62.3107 129.2C62.3099 129.157 62.2985 129.116 62.2775 129.079C62.2565 129.042 62.2265 129.011 62.1905 128.989C62.1796 128.982 62.1676 128.976 62.155 128.972C62.106 128.959 62.0546 128.958 62.0053 128.97C61.9559 128.981 61.9101 129.005 61.8718 129.038C61.354 129.684 61.076 130.49 61.0855 131.319C61.258 136.129 67.4869 137.188 71.4258 137.491C74.5026 137.56 76.2683 138.868 76.3555 141.672C76.436 146.434 72.1418 146.582 68.3724 146.563C59.2224 146.563 53.0068 142.421 51.0482 134.833C49.93 129.716 52.806 121.039 60.0659 119.719C60.1651 119.7 60.2613 119.685 60.3569 119.672C60.3983 119.666 60.4861 119.645 60.5258 119.641C60.3454 119.566 60.1561 119.478 59.9799 119.4C59.6553 119.258 59.3006 119.135 58.9838 118.983C58.9555 118.99 58.9273 118.996 58.9014 119.003C52.6071 120.691 48.7415 128.927 50.1458 135.067L50.1386 135.069Z" fill="black"/>
<path d="M57.3908 120.544C57.6091 120.691 57.8516 120.859 58.1108 121.05C59.4945 122.06 60.7377 123.251 61.8078 124.591C62.9225 126.051 63.8832 127.624 64.6744 129.283C64.7848 129.509 64.8876 129.724 64.9811 129.926L66.0951 127.312C65.7958 126.841 65.1954 125.93 64.3929 124.875C63.107 123.114 61.5822 121.541 59.8625 120.202C59.5577 119.931 59.1756 119.763 58.7702 119.721C58.5619 119.756 58.368 119.85 58.2118 119.992L58.0814 120.087C58.0245 120.129 57.9569 120.178 57.8841 120.225L57.8807 120.228C57.7075 120.34 57.5428 120.446 57.3885 120.542M55.8484 120.537C56.4423 120.294 57.0117 119.994 57.5489 119.643C57.645 119.58 58.4912 119.329 58.5919 119.256C59.1327 118.861 58.8576 118.63 60.2436 119.642C63.9146 122.324 66.9925 127.244 66.9925 127.244L64.983 131.957C64.0214 129.509 62.7429 127.199 61.1804 125.086C59.7064 123.245 57.897 121.701 55.8484 120.537Z" fill="black"/>
<path d="M105.576 120.537C105.576 120.537 104.889 120.152 103.975 119.56C103.364 119.159 102.734 118.358 101.09 119.56C97.4194 122.241 94.4325 127.243 94.4325 127.243L96.4405 131.955C97.4025 129.508 98.6813 127.199 100.244 125.086C101.718 123.245 103.527 121.701 105.576 120.537Z" fill="white"/>
<path d="M104.034 120.545C103.815 120.691 103.573 120.859 103.313 121.05C101.93 122.06 100.687 123.251 99.6165 124.591C98.5018 126.052 97.5411 127.624 96.7499 129.284C96.6395 129.509 96.5367 129.724 96.4432 129.926L95.3297 127.313C95.629 126.841 96.2294 125.93 97.0319 124.875C98.3178 123.114 99.8426 121.541 101.562 120.203C101.867 119.932 102.249 119.763 102.655 119.722C102.863 119.756 103.057 119.85 103.213 119.993L103.343 120.088C103.4 120.129 103.467 120.178 103.54 120.225L103.543 120.228C103.716 120.34 103.881 120.445 104.035 120.542M105.576 120.537C105.576 120.537 104.889 120.152 103.975 119.56C103.879 119.497 103.782 119.424 103.681 119.35C103.14 118.956 102.476 118.547 101.09 119.56C97.4194 122.241 94.4325 127.243 94.4325 127.243L96.4405 131.955C97.4025 129.508 98.6813 127.199 100.244 125.086C101.718 123.245 103.527 121.701 105.576 120.537Z" fill="black"/>
</svg>
