<svg width="112" height="220" viewBox="0 0 112 220" fill="none" xmlns="http://www.w3.org/2000/svg">
<path opacity="0.35" d="M84.5275 94.8287C76.7103 98.6489 69.5598 101.613 54.8392 101.613C40.1186 101.613 32.7622 98.6762 24.7509 94.6522C25.502 94.1106 26.4195 93.8504 27.3428 93.9172C28.3249 93.6668 29.5961 93.4125 30.9317 93.1395C46.1713 98.5299 64.33 98.4934 79.4989 92.8284C81.5548 93.1706 83.4459 93.6971 84.5275 94.8287Z" fill="#C5EFFF"/>
<path d="M34.9555 35.4099C34.6544 36.0783 34.3127 36.7277 33.9322 37.3543C28.7786 40.2894 14.8707 45.6511 8.84136 42.5441C-0.450493 37.7556 -1.19717 20.3437 4.44523 12.8495C10.0876 5.35524 22.3763 3.67223 29.7443 7.46367C39.3462 12.4077 39.1457 26.0647 34.9578 35.4037L34.9555 35.4099Z" fill="black"/>
<path d="M76.3251 37.6419C76.6238 38.346 76.9671 39.0303 77.3531 39.6905C82.6606 42.8434 97.0393 48.6873 103.377 45.5686C113.144 40.763 114.255 22.6472 108.52 14.7354C102.785 6.82351 90.0279 4.84029 82.2822 8.64573C72.1908 13.6116 72.1419 27.8339 76.3251 37.6396V37.6419Z" fill="black"/>
<path d="M52.8202 5.1189C52.4076 5.18211 51.9834 5.26016 51.7993 5.29684C51.7387 5.26484 51.6757 5.23596 51.6151 5.20709C52.0153 5.17275 52.4177 5.14387 52.8202 5.1189Z" fill="white"/>
<path opacity="0.4" d="M5.17385 64.0741C5.18084 64.1223 5.18628 64.1736 5.19328 64.2218C5.11166 64.2835 5.02657 64.3403 4.93843 64.3922C4.89492 64.4186 4.84364 64.4482 4.7908 64.4769C4.80272 63.5208 4.84312 62.5492 4.91201 61.562C4.9361 61.9065 4.96562 62.2464 4.99903 62.5863C5.04721 63.0864 5.10548 63.5841 5.17385 64.0717V64.0741Z" fill="white"/>
<path opacity="0.4" d="M104.484 64.3665C104.394 64.3105 104.324 64.2623 104.273 64.2234C104.28 64.1752 104.288 64.1262 104.292 64.0757C104.36 63.5857 104.416 63.0902 104.467 62.5902C104.501 62.2503 104.53 61.9105 104.554 61.5659C104.622 62.5536 104.662 63.5253 104.675 64.4808C104.602 64.4396 104.539 64.4031 104.481 64.3665H104.484Z" fill="white"/>
<path d="M108.503 65.334C108.503 65.334 108.481 65.3605 108.459 65.3853C107.338 66.6149 105.885 67.4933 104.277 67.9145C105.032 68.5721 105.957 69.0034 106.946 69.1589C105.189 72.6297 103.106 75.925 100.724 79.0003C99.8627 80.1024 98.9425 81.1572 97.9676 82.1603C97.6962 82.4392 97.4198 82.7111 97.1385 82.9761C96.5009 83.5806 95.856 84.1624 95.2039 84.7213C93.0338 86.587 90.7218 88.2806 88.2888 89.7867C88.1746 89.8598 88.0557 89.9298 87.9446 89.9975C83.9734 92.4064 79.7334 94.3403 75.3117 95.7597C68.6591 97.8901 61.7206 98.9916 54.7359 99.0261C47.7504 98.9918 40.8111 97.8903 34.1577 95.7597C29.7364 94.3392 25.4966 92.4053 21.5248 89.9975C21.4401 89.9438 21.35 89.8909 21.2653 89.8372C18.8018 88.3191 16.462 86.6085 14.2679 84.7213C13.6157 84.1608 12.9708 83.5783 12.3332 82.9738C12.0395 82.6945 11.7466 82.4083 11.463 82.1182C10.9587 81.601 10.4661 81.0629 9.99372 80.5138C9.6301 80.0938 9.2758 79.6668 8.93393 79.2368C6.49867 76.1237 4.3697 72.7823 2.57671 69.2592C2.54486 69.1939 2.52854 69.1597 2.52854 69.1597C2.52854 69.1597 2.58915 69.1527 2.69792 69.1332C3.58862 68.9593 4.42154 68.5646 5.12053 67.9853C5.14695 67.9635 5.17414 67.9417 5.19823 67.9176C3.58964 67.4958 2.13718 66.6175 1.01577 65.3885C0.994015 65.3641 0.979511 65.347 0.97226 65.3371H1.03519C2.30796 65.3715 3.56984 65.0941 4.71107 64.5291C7.59675 64.1892 10.397 63.9372 11.2773 61.8933C20.2902 40.9451 44.8325 41.4623 50.9163 57.8787C52.8132 62.9446 52.9081 68.5101 51.1851 73.6379C52.2837 73.586 53.3829 73.5562 54.4826 73.5484H54.9993C56.1678 73.5557 57.3367 73.5889 58.5058 73.648C56.7784 68.5178 56.8726 62.9482 58.7723 57.8795C64.856 41.4631 89.3991 40.9459 98.4112 61.8941C99.2659 63.875 101.92 64.1728 104.705 64.4987C105.861 65.0858 107.145 65.3746 108.441 65.3387H108.504L108.503 65.334Z" fill="white"/>
<path opacity="0.35" d="M106.942 69.1566C106.942 69.1566 102.866 77.5515 97.1345 82.9738C94.3244 85.6309 91.2424 87.9844 87.9397 89.9952C83.9685 92.4041 79.7286 94.3381 75.3069 95.7574C61.9334 100.116 47.5232 100.116 34.1497 95.7574C29.7285 94.3369 25.4887 92.403 21.5169 89.9952C18.2142 87.9844 15.1323 85.6309 12.3222 82.9738C6.59274 77.5523 2.51672 69.1566 2.51672 69.1566C3.12148 69.0654 3.70524 68.8673 4.24083 68.5718C6.44381 72.4679 9.16184 76.0487 12.3214 79.2174C15.1315 81.8745 18.2134 84.2279 21.5161 86.2387C25.4873 88.6476 29.7273 90.5816 34.149 92.001C47.5224 96.3599 61.9326 96.3599 75.3061 92.001C79.7274 90.5805 83.9672 88.6466 87.939 86.2387C91.2417 84.2279 94.3236 81.8745 97.1337 79.2174C100.293 76.0492 103.011 72.4686 105.214 68.5725C105.749 68.8694 106.333 69.0675 106.938 69.1574L106.942 69.1566Z" fill="#B3B3B3"/>
<path d="M108.976 64.9568C108.916 64.8847 108.84 64.8271 108.754 64.788C108.669 64.749 108.575 64.7296 108.481 64.7312C107.33 64.7643 106.186 64.5292 105.14 64.0445C105.078 64.0121 105.026 63.9614 104.993 63.899C104.959 63.8366 104.946 63.7656 104.954 63.6953C104.997 63.3554 105.036 63.0062 105.07 62.6516C105.143 61.9236 105.196 61.1786 105.233 60.4312C105.34 58.0418 105.282 55.6479 105.058 53.2667C104.689 49.4868 104.002 45.7447 103.004 42.0806C102.556 40.4096 102.021 38.7628 101.404 37.1466C101.367 37.0518 101.334 36.96 101.297 36.8674C101.232 36.7002 101.164 36.5299 101.096 36.3604C101.062 36.2756 101.026 36.1877 100.992 36.1006C100.977 36.064 100.96 36.0275 100.946 35.9917C100.83 35.7055 100.713 35.4216 100.587 35.1362C99.9885 33.7529 99.3299 32.4001 98.6115 31.078C98.5073 30.8859 98.4032 30.6946 98.296 30.5056C96.5406 27.3807 94.4591 24.4509 92.0864 21.7654C87.2433 16.2866 81.2923 11.9006 74.6278 8.89785C71.9951 7.71881 69.2672 6.76552 66.4734 6.04824C65.9109 5.9028 65.3219 5.76203 64.7275 5.6306C64.1837 5.50927 63.6289 5.39728 63.0788 5.29539C62.6375 5.21295 62.1954 5.13518 61.7525 5.06207C61.0714 4.95267 60.3861 4.85883 59.6966 4.78053C55.9776 2.94423 51.9951 1.69993 47.8928 1.09253C48.1523 1.22086 51.9541 2.466 52.5679 4.52933C52.2625 4.54877 51.9595 4.57055 51.6542 4.59699C46.6831 1.59728 34.8466 2.47378 34.8466 2.47378C34.8466 2.47378 41.5752 2.59277 46.1019 5.35139C45.6435 5.43616 45.1905 5.52871 44.7344 5.6306C44.14 5.76203 43.5534 5.9028 42.9885 6.04824C40.1953 6.76548 37.4679 7.71877 34.8357 8.89785C28.1714 11.8998 22.2206 16.2854 17.3779 21.7639C15.0067 24.4498 12.9261 27.3792 11.1706 30.5032C11.0642 30.6922 10.9569 30.8843 10.8528 31.0757C10.1349 32.3957 9.47707 33.7485 8.87931 35.1339C8.74101 35.452 8.60504 35.7747 8.47218 36.0975C8.33154 36.4443 8.19557 36.792 8.0596 37.1412V37.1459L8.05261 37.1676C7.4364 38.7751 6.90551 40.4139 6.46214 42.0775C5.46492 45.742 4.77874 49.4842 4.41092 53.2644C4.18653 55.6458 4.12734 58.04 4.23377 60.4296C4.27029 61.1747 4.32313 61.9221 4.39616 62.6477C4.43035 63.0047 4.4692 63.3539 4.51271 63.6937C4.52071 63.764 4.50715 63.8351 4.47384 63.8974C4.44054 63.9598 4.38905 64.0106 4.32623 64.043C3.27395 64.5306 2.12251 64.7657 0.963484 64.7297C0.848338 64.7299 0.735645 64.763 0.638697 64.8252C0.541749 64.8874 0.46459 64.976 0.416322 65.0807C0.368053 65.1853 0.350688 65.3016 0.366275 65.4158C0.381862 65.53 0.42975 65.6373 0.504291 65.7252C1.30352 66.613 2.26172 67.3431 3.32937 67.878C3.37295 67.8989 3.40943 67.9322 3.4343 67.9737C3.45916 68.0152 3.47131 68.0631 3.46924 68.1115C3.46717 68.1598 3.45098 68.2065 3.42266 68.2457C3.39435 68.2849 3.35516 68.315 3.30995 68.3321C3.03375 68.4366 2.74725 68.5114 2.45528 68.5554C2.3591 68.5662 2.26694 68.6 2.18655 68.6539C2.10616 68.7078 2.0399 68.7803 1.99336 68.8653C1.94682 68.9502 1.92136 69.0451 1.91913 69.1419C1.9169 69.2388 1.93797 69.3348 1.98055 69.4217C2.14759 69.7686 6.17077 77.9768 11.9173 83.4163C18.553 89.6367 26.5599 94.2042 35.2887 96.7481C41.6017 98.63 48.1503 99.6015 54.7372 99.6335C61.3233 99.6014 67.8712 98.6298 74.1833 96.7481C82.9122 94.2042 90.9191 89.6367 97.5548 83.4163C103.304 77.9799 107.324 69.7686 107.492 69.4217C107.534 69.3346 107.555 69.2386 107.552 69.1418C107.549 69.045 107.524 68.9502 107.477 68.8655C107.43 68.7807 107.363 68.7085 107.283 68.655C107.202 68.6014 107.11 68.568 107.014 68.5577C106.722 68.511 106.436 68.4354 106.159 68.3321C106.114 68.315 106.075 68.285 106.047 68.2459C106.018 68.2069 106.002 68.1604 106 68.1122C105.997 68.064 106.009 68.0161 106.034 67.9745C106.058 67.9329 106.094 67.8994 106.137 67.878C107.205 67.3428 108.164 66.6127 108.965 65.7252C109.055 65.6179 109.105 65.4829 109.107 65.3428C109.11 65.2027 109.064 65.0661 108.977 64.956L108.976 64.9568ZM106.598 66.2089C105.856 66.7332 105.022 67.1119 104.14 67.325C104.031 67.3509 103.932 67.406 103.853 67.4843C103.773 67.5625 103.717 67.661 103.689 67.7691C103.661 67.8771 103.664 67.9906 103.698 68.097C103.731 68.2033 103.793 68.2982 103.878 68.371C104.405 68.8286 105.008 69.19 105.66 69.4389C105.709 69.4572 105.753 69.4857 105.79 69.5225C105.827 69.5593 105.855 69.6036 105.874 69.6523C105.892 69.701 105.9 69.7531 105.897 69.8051C105.893 69.8571 105.879 69.9077 105.854 69.9537C104.567 72.3647 101.115 78.3804 96.7257 82.5359C82.1901 96.2869 64.1774 98.3907 54.7372 98.4226C45.2931 98.3907 27.2796 96.2869 12.7463 82.5351C8.35175 78.3797 4.90275 72.3655 3.61219 69.9529C3.58745 69.9072 3.57278 69.8566 3.56917 69.8047C3.56557 69.7527 3.57311 69.7006 3.59128 69.6519C3.60946 69.6031 3.63786 69.5588 3.67457 69.5219C3.71128 69.485 3.75545 69.4564 3.80411 69.4381C4.45791 69.1902 5.06287 68.8287 5.59115 68.3702C5.67547 68.2974 5.73782 68.2025 5.77117 68.0962C5.80453 67.9898 5.80757 67.8763 5.77996 67.7683C5.75233 67.6602 5.69576 67.5618 5.61635 67.4835C5.53693 67.4052 5.43769 67.3502 5.32931 67.3242C4.44674 67.1111 3.61256 66.7324 2.87096 66.2082C2.83071 66.1802 2.79955 66.141 2.78134 66.0955C2.76313 66.05 2.75867 66.0001 2.76851 65.9521C2.77836 65.904 2.80208 65.86 2.83673 65.8253C2.87137 65.7906 2.91543 65.7669 2.96342 65.7571C3.89404 65.6035 4.77903 65.2451 5.55463 64.7079C5.64177 64.643 5.70983 64.5558 5.75167 64.4555C5.79351 64.3552 5.80757 64.2455 5.79239 64.1378C5.71935 63.6307 5.65642 63.0894 5.60047 62.5287C5.53288 61.8225 5.47927 61.0969 5.44508 60.3713C5.34073 58.0385 5.39837 55.7012 5.61757 53.3764C5.9793 49.6646 6.65326 45.99 7.63227 42.3917C8.08032 40.7314 8.61536 39.0959 9.23517 37.492L9.24216 37.4772C9.24682 37.4624 9.25148 37.4507 9.25692 37.436C9.26236 37.4212 9.25692 37.429 9.26158 37.4235C9.27091 37.3947 9.28567 37.3628 9.2981 37.331C14.0934 25.1807 23.4302 15.3793 35.3268 10.0069C36.5466 9.46093 37.7898 8.96344 39.0563 8.51443C40.4481 8.02186 41.8593 7.59152 43.29 7.22339C43.8401 7.08029 44.4151 6.94185 44.9947 6.81586C45.7489 6.64839 46.5077 6.49958 47.2712 6.36944L47.582 6.31811C47.6791 6.301 47.7786 6.28389 47.8757 6.26989C47.8798 6.26868 47.8841 6.26868 47.8881 6.26989C48.0847 6.23801 48.2813 6.20923 48.4771 6.18045C50.5493 5.87451 52.6384 5.69788 54.7325 5.6516C56.8219 5.69808 58.9063 5.87393 60.974 6.17812C61.0128 6.18279 61.0517 6.18745 61.0905 6.19523C61.4254 6.24345 61.7572 6.29945 62.092 6.35544L62.1791 6.37022C62.3707 6.40185 62.5624 6.43581 62.754 6.4721H62.7587C63.3305 6.57865 63.9008 6.69298 64.468 6.81897C65.0477 6.94496 65.6195 7.0834 66.1704 7.2265C67.5985 7.59281 69.0149 8.02523 70.4041 8.51754C71.6698 8.96396 72.9161 9.46404 74.1336 10.01C86.032 15.3816 95.3708 25.1831 100.168 37.3341L100.27 37.5962C100.27 37.5962 100.27 37.5962 100.27 37.6008C100.875 39.1705 101.396 40.7713 101.831 42.3963C102.813 45.9942 103.489 49.6689 103.851 53.381C104.071 55.7059 104.128 58.0431 104.024 60.3759C103.987 61.1016 103.935 61.8295 103.864 62.5334C103.81 63.0941 103.747 63.6354 103.675 64.1425C103.66 64.2501 103.674 64.3599 103.716 64.4602C103.758 64.5605 103.826 64.6477 103.913 64.7126C104.689 65.2496 105.574 65.6077 106.505 65.761C106.552 65.7714 106.595 65.7953 106.629 65.8297C106.662 65.864 106.686 65.9074 106.695 65.9547C106.705 66.0019 106.701 66.0509 106.684 66.0959C106.666 66.1409 106.636 66.1798 106.597 66.2082L106.598 66.2089Z" fill="black"/>
<path d="M109.266 64.7296C109.173 64.614 109.054 64.5211 108.919 64.4581C108.785 64.395 108.638 64.3634 108.489 64.3657C107.405 64.394 106.327 64.1815 105.335 63.7435C105.331 63.7422 105.327 63.7396 105.325 63.736C105.323 63.7325 105.322 63.7282 105.322 63.724C105.366 63.3912 105.405 63.0396 105.439 62.685C105.509 61.9741 105.565 61.2213 105.601 60.4451C105.71 58.0387 105.651 55.6276 105.426 53.2293C105.055 49.4288 104.364 45.6665 103.36 41.9825C102.915 40.3209 102.386 38.683 101.774 37.075L101.641 36.7305C101.576 36.5633 101.507 36.3906 101.44 36.2211L101.401 36.1239C101.379 36.0702 101.357 36.0173 101.336 35.959L101.29 35.8501C101.171 35.5616 101.052 35.2746 100.926 34.9884C100.327 33.6025 99.658 32.2266 98.9354 30.9014C98.8313 30.707 98.7272 30.5125 98.6176 30.3235C96.8497 27.1763 94.7536 24.2255 92.3645 21.5204C87.4867 16.0038 81.4933 11.5878 74.7816 8.56492C72.1305 7.37655 69.383 6.41672 66.569 5.69586C66.0041 5.54809 65.412 5.40733 64.8107 5.27356C64.2769 5.15456 63.7175 5.04024 63.1495 4.93602C62.6716 4.84658 62.2358 4.77114 61.8131 4.7027L61.7867 4.69803C61.1177 4.59148 60.4534 4.49893 59.8085 4.42583H59.8015C56.1611 2.61759 52.2612 1.38879 48.2424 0.783707C48.1088 0.761931 48.0218 0.747154 47.9853 0.740154L44.9582 0.000531085C44.9532 -0.000601833 44.948 9.11683e-05 44.9436 0.00248215C44.9391 0.00487314 44.9357 0.00880066 44.9339 0.0135397C44.9321 0.0182787 44.932 0.0235092 44.9338 0.0282656C44.9355 0.033022 44.939 0.0369831 44.9434 0.0394177L47.7343 1.42067C47.7685 1.43778 47.8485 1.46889 47.972 1.51789C50.3675 2.44183 51.4638 3.34478 51.9408 4.05563C51.846 4.15518 51.8631 4.13807 51.766 4.23762C46.7592 1.2939 36.0711 2.3835 35.3967 2.43172C35.3874 2.43172 34.6912 2.4535 34.6912 2.46361L45.0615 5.18567L44.6567 5.27278C44.0724 5.4011 43.4804 5.54498 42.8992 5.69275C40.0862 6.41577 37.3396 7.37635 34.6889 8.56414C27.9777 11.5879 21.9849 16.0044 17.1075 21.5212C14.7208 24.2276 12.6256 27.1783 10.8567 30.3243C10.7503 30.5164 10.6407 30.7077 10.5366 30.9022C9.81167 32.2344 9.14502 33.6087 8.5483 34.9891C8.41 35.3096 8.2717 35.6347 8.13884 35.9598C7.99587 36.309 7.8599 36.6597 7.72393 37.0081L7.63691 37.2313L7.64157 37.236C7.05328 38.7905 6.54422 40.374 6.11637 41.9802C5.11295 45.6653 4.42184 49.4286 4.05039 53.2301C3.82603 55.6284 3.76813 58.0395 3.87713 60.4459C3.91598 61.2236 3.96959 61.9796 4.03951 62.6811C4.0737 63.0326 4.11255 63.381 4.15373 63.7077C4.15479 63.7118 4.15445 63.7162 4.15276 63.7202C4.15108 63.7241 4.14814 63.7274 4.14441 63.7295C3.15941 64.1792 2.0845 64.3968 1.00232 64.3657C0.79096 64.3591 0.582925 64.4195 0.407931 64.5383C0.29895 64.6159 0.207169 64.7152 0.138349 64.83C0.0695277 64.9448 0.0251523 65.0726 0.00800737 65.2053C-0.00913759 65.3381 0.00131801 65.473 0.038718 65.6015C0.0761179 65.73 0.139655 65.8494 0.225341 65.9522C0.992806 66.813 1.90637 67.531 2.92378 68.0731C2.75909 68.1225 2.59145 68.1615 2.42185 68.1898C2.26743 68.2061 2.11923 68.2595 1.9898 68.3454C1.86037 68.4312 1.75354 68.5471 1.67836 68.6831C1.60319 68.8191 1.56188 68.9712 1.55794 69.1266C1.55401 69.282 1.58756 69.436 1.65575 69.5757C1.6946 69.6605 5.81413 78.1362 11.6694 83.6767C18.3459 89.9355 26.4021 94.5312 35.1846 97.0911C41.5319 98.9843 48.1165 99.9616 54.7395 99.9936C61.361 99.9616 67.9441 98.9842 74.2898 97.0911C83.0727 94.5306 91.1295 89.9351 97.8073 83.6767C103.663 78.1354 107.78 69.6605 107.821 69.5757C107.888 69.4367 107.921 69.2838 107.917 69.1296C107.913 68.9755 107.872 68.8245 107.798 68.6892C107.724 68.5539 107.619 68.4382 107.491 68.3518C107.363 68.2653 107.217 68.2106 107.064 68.1921H107.059C106.887 68.1642 106.716 68.1244 106.548 68.0731C107.562 67.5282 108.475 66.8114 109.244 65.9546C109.388 65.7831 109.468 65.5678 109.472 65.3444C109.476 65.121 109.403 64.9029 109.266 64.7265V64.7296ZM8.92203 37.2967C8.91955 37.3004 8.91796 37.3047 8.91737 37.3091V37.3045C8.91858 37.3017 8.92015 37.2991 8.92203 37.2967Z" fill="black"/>
<path d="M30.2746 127.396C30.2653 126.612 27.2995 127.964 27.3042 127.175C27.3 123.001 27.5762 118.832 28.1309 114.695C28.1721 114.389 28.2179 114.083 28.2645 113.78C28.4199 112.768 28.588 111.788 28.7688 110.841C29.768 105.617 21.9384 97.1814 24.7511 94.6545C25.2483 94.2081 27.1325 94.0479 28.4028 94.0183C29.2307 93.6806 30.0757 93.3865 30.9342 93.1372C33.8704 92.5329 37.1026 91.829 38.1865 90.846C42.4397 86.9845 47.8878 85.3241 54.51 85.293H54.6654C61.2875 85.3249 66.7334 86.9869 70.9858 90.846C72.4721 92.193 76.1985 92.2755 79.5014 92.8269C81.5573 93.1714 75.7284 93.3075 84.53 94.8295C84.9449 94.9026 85.0537 95.4821 85.2161 95.8826C86.6636 99.4726 80.1269 108.695 80.9046 113.777C81.5539 118.224 81.8748 122.713 81.865 127.207C81.8696 127.995 80.4027 127.638 80.3934 128.42" fill="#FCFEFF"/>
<path d="M47.9447 126.273C49.3024 126.273 50.4031 125.171 50.4031 123.812C50.4031 122.453 49.3024 121.351 47.9447 121.351C46.587 121.351 45.4864 122.453 45.4864 123.812C45.4864 125.171 46.587 126.273 47.9447 126.273Z" fill="#0D1338"/>
<path d="M47.9726 116.477C49.3303 116.477 50.431 115.375 50.431 114.016C50.431 112.657 49.3303 111.555 47.9726 111.555C46.6149 111.555 45.5143 112.657 45.5143 114.016C45.5143 115.375 46.6149 116.477 47.9726 116.477Z" fill="#0D1338"/>
<path d="M61.1924 126.273C62.5501 126.273 63.6508 125.171 63.6508 123.812C63.6508 122.453 62.5501 121.351 61.1924 121.351C59.8347 121.351 58.7341 122.453 58.7341 123.812C58.7341 125.171 59.8347 126.273 61.1924 126.273Z" fill="#0D1338"/>
<path d="M61.217 116.477C62.5747 116.477 63.6754 115.375 63.6754 114.016C63.6754 112.657 62.5747 111.555 61.217 111.555C59.8593 111.555 58.7587 112.657 58.7587 114.016C58.7587 115.375 59.8593 116.477 61.217 116.477Z" fill="#0D1338"/>
<path d="M42.8525 104.929C40.0025 107.96 38.3157 111.903 38.0904 116.059C37.7796 122.292 37.8045 129.969 37.9303 136.549C37.5131 136.495 37.1106 136.437 36.7183 136.381C36.5947 129.821 36.5706 122.203 36.883 115.996C37.122 111.553 38.924 107.338 41.9698 104.097C43.5945 102.362 44.4795 103.183 42.8525 104.929Z" fill="#0D1338"/>
<path d="M28.7606 114.543C28.3846 114.395 27.9992 114.242 27.6037 114.076L28.7606 114.543ZM81.5584 114.083C81.1629 114.239 80.7752 114.394 80.4023 114.535L81.5584 114.083Z" fill="black"/>
<path d="M27.5017 114.826C27.6011 113.504 29.3322 105.558 30.1566 106.155C30.2368 106.186 30.302 106.246 30.339 106.324C30.376 106.402 30.3819 106.491 30.3555 106.572C29.9469 107.945 29.6134 109.338 29.3563 110.747C29.0797 112.152 28.9103 113.586 28.6943 114.998C28.6606 115.147 28.5721 115.278 28.4462 115.365C28.3204 115.451 28.1665 115.487 28.0155 115.465C27.8645 115.443 27.7273 115.364 27.6315 115.245C27.5356 115.127 27.4882 114.976 27.4985 114.823L27.5017 114.826Z" fill="#0D1338"/>
<path d="M81.656 114.861C81.4594 112.548 79.8347 105.558 79.0143 106.155C78.9341 106.186 78.8688 106.246 78.8318 106.324C78.7948 106.402 78.7889 106.491 78.8154 106.573C79.224 107.945 79.5576 109.339 79.8146 110.747C80.0912 112.153 80.2582 113.587 80.4719 115.002C80.5053 115.146 80.5905 115.272 80.7114 115.357C80.8323 115.442 80.9803 115.48 81.1269 115.462C81.2736 115.445 81.4087 115.374 81.5063 115.263C81.6039 115.152 81.6572 115.009 81.656 114.861Z" fill="#0D1338"/>
<path d="M108.503 65.3346C108.503 65.3346 108.481 65.3611 108.46 65.3859C107.338 66.6162 105.885 67.4954 104.275 67.9175C105.032 68.5732 105.958 69.003 106.947 69.158C105.19 72.6291 103.107 75.9245 100.725 78.9994C99.8641 80.1021 98.9438 81.1569 97.9682 82.1593C97.6968 82.4382 97.4204 82.711 97.1391 82.9775C96.5015 83.5794 95.8574 84.1604 95.2068 84.7204C93.0363 86.5855 90.7243 88.2791 88.2917 89.7857C88.1752 89.8588 88.0586 89.9288 87.9475 89.9973C83.9753 92.4064 79.7346 94.3411 75.3123 95.7618C68.6598 97.8924 61.7212 98.9939 54.7365 99.0283C47.751 98.9939 40.8117 97.8924 34.1583 95.7618C29.7367 94.3411 25.4969 92.4064 21.5254 89.9973C21.4384 89.946 21.3506 89.8931 21.2659 89.8417C18.803 88.3228 16.4633 86.6122 14.2685 84.7258C13.6163 84.1653 12.9707 83.5836 12.3315 82.9806C12.0378 82.6991 11.7472 82.4128 11.4636 82.1251C10.957 81.6066 10.4673 81.0718 9.99434 80.5206C9.63175 80.1006 9.27849 79.6742 8.93455 79.2412C6.49652 76.1269 4.36617 72.783 2.57345 69.2567C2.54159 69.1914 2.52528 69.1572 2.52528 69.1572C2.58216 69.1513 2.6387 69.1425 2.69466 69.1307C3.58573 68.9579 4.41893 68.5631 5.11727 67.9828C5.14368 67.961 5.17088 67.9392 5.19496 67.9175C3.58589 67.4955 2.13327 66.6163 1.0125 65.3859C0.990749 65.3616 0.976246 65.3445 0.968994 65.3346H1.03193C2.30454 65.3675 3.56605 65.0901 4.7078 64.5266C4.79482 64.4807 4.87252 64.434 4.94089 64.3928C5.029 64.3412 5.11409 64.2846 5.19574 64.2232C5.18875 64.175 5.18331 64.126 5.17632 64.0755C5.10872 63.5855 5.05278 63.0901 5.0015 62.59C4.93105 61.8693 4.87925 61.1395 4.8461 60.4007C4.73861 58.0404 4.79624 55.6755 5.01859 53.3233C5.38144 49.5775 6.06194 45.8694 7.05271 42.2391C9.39206 33.6432 13.9636 25.8206 20.3026 19.5667C26.6416 13.3128 34.5219 8.85059 43.1425 6.63372C43.712 6.48595 44.2893 6.34985 44.8666 6.22075C45.715 6.03409 46.5725 5.86895 47.4391 5.72533C45.4532 3.35636 39.3889 2.98538 39.2584 2.81272C40.4829 2.79328 46.889 3.12382 51.6169 5.20581C51.6775 5.23225 51.7405 5.26414 51.8011 5.29525C51.9852 5.25869 52.4094 5.18092 52.822 5.11792H52.8391C53.1246 5.06556 53.4144 5.03953 53.7047 5.04015C53.6106 4.44828 53.3533 3.89445 52.9618 3.44101C52.5703 2.98758 52.0602 2.65254 51.4887 2.47363C51.6146 2.50241 58.2049 4.00265 59.1388 5.32791C60.9744 5.52667 62.7978 5.82524 64.601 6.2223C65.1806 6.35063 65.7548 6.48673 66.3274 6.63528C74.9484 8.85115 82.8295 13.3126 89.1693 19.566C95.5091 25.8193 100.082 33.6416 102.422 42.2375C103.411 45.8681 104.092 49.5761 104.456 53.3218C104.678 55.674 104.736 58.0389 104.628 60.3991C104.592 61.1369 104.539 61.8667 104.468 62.5884C104.42 63.0883 104.362 63.5834 104.296 64.0739C104.289 64.1252 104.281 64.1735 104.274 64.2217C104.325 64.2606 104.395 64.3088 104.485 64.3648C104.548 64.4037 104.621 64.4472 104.704 64.4931C105.146 64.7318 105.616 64.9159 106.102 65.0414C106.867 65.2378 107.653 65.3356 108.442 65.3323L108.503 65.3346Z" fill="#FCFEFF"/>
<path opacity="0.49" d="M107.919 65.5019C107.919 65.5019 107.897 65.526 107.878 65.5501C106.45 66.5988 104.832 67.3586 103.114 67.7869C104.129 68.5269 105.277 69.065 106.496 69.3719C104.579 72.6534 102.451 75.8063 100.125 78.8104C99.3126 79.8441 95.385 83.5818 94.7634 84.1138C92.4772 85.8429 90.0733 87.4105 87.5694 88.8051C83.8806 91.0251 80.0639 93.0248 76.1393 94.7936C74.4393 95.5823 62.3938 99.46 57.9635 98.1013C77.5549 92.1128 82.5867 70.0664 82.5867 48.4968C82.5867 44.4992 89.201 46.2227 88.2795 42.5083C90.222 37.7952 84.7933 23.7735 79.7328 18.5603C74.3934 13.0633 61.6448 6.54357 60.7669 5.97583C62.3402 6.16482 71.4891 9.11631 73.9498 10.2184C86.1172 15.6625 97.3919 28.5503 101.351 43.3334C102.295 46.7889 102.943 50.3186 103.288 53.8841C103.501 56.1241 103.556 58.3763 103.453 60.624C103.417 61.3239 103.368 62.0239 103.298 62.7091C103.252 63.185 103.196 63.6579 103.133 64.1238C103.126 64.172 103.121 64.2186 103.114 64.2645C103.162 64.3011 103.228 64.347 103.315 64.4006C103.373 64.4372 103.443 64.4784 103.521 64.5243C103.942 64.7504 104.389 64.9256 104.852 65.0461C105.837 65.2943 106.844 65.4464 107.859 65.5003H107.919V65.5019Z" fill="#C5EFFF"/>
<path d="M60.3998 64.2737C60.211 65.6308 58.4768 67.8365 56.1878 67.516C53.8989 67.1956 51.9759 65.0405 52.1678 63.6834C52.3597 62.3263 54.0783 62.5354 56.5033 62.5401C58.7853 62.5401 60.5886 62.9189 60.3975 64.2752L60.3998 64.2737Z" fill="black"/>
<path d="M64.3592 71.0494C64.1216 71.1491 63.8935 71.2701 63.6778 71.411C63.7199 72.1087 63.6915 72.8088 63.5931 73.5008C62.9187 78.2947 59.1557 81.7308 55.1838 81.1731C51.2119 80.6155 48.7824 76.6537 49.146 72.1203C48.833 71.7866 48.4747 71.4986 48.0815 71.2648C47.3907 70.9368 46.8522 70.3556 46.5775 69.6414C46.3027 68.9272 46.3126 68.1346 46.6053 67.4275C46.712 67.0822 46.8785 66.7585 47.0971 66.4709C47.3247 66.1528 47.6837 66.3838 47.5866 66.7478C47.5865 66.757 47.5841 66.7661 47.5796 66.7742C46.9347 69.263 47.909 70.3028 49.3884 71.3628C50.5166 72.0045 51.8201 72.2685 53.1087 72.1161C54.3974 71.9637 55.6036 71.403 56.5513 70.5159C57.3992 71.1474 58.3967 71.547 59.4457 71.6755C60.4948 71.8039 61.5591 71.6568 62.5341 71.2485C64.4035 70.2872 65.7857 69.4768 65.4291 66.6599V66.6334C65.3809 66.2624 65.7686 66.0773 65.9527 66.4227C66.1315 66.7363 66.2553 67.0782 66.3187 67.4337C66.5173 68.1723 66.4251 68.9591 66.061 69.6316C65.697 70.3041 65.0889 70.8111 64.3623 71.0478L64.3592 71.0494Z" fill="black"/>
<path d="M42.2313 62.7424C41.4388 68.3973 38.4731 76.2516 26.7229 73.8313C19.5747 72.3607 17.6517 65.5018 19.2523 60.0188C21.6065 51.9538 27.6561 49.5365 33.3062 50.3322C38.9564 51.1278 43.027 57.0875 42.2313 62.7424Z" fill="black"/>
<path d="M30.8549 62.7276C31.9316 62.7276 32.8044 61.854 32.8044 60.7763C32.8044 59.6986 31.9316 58.825 30.8549 58.825C29.7783 58.825 28.9055 59.6986 28.9055 60.7763C28.9055 61.854 29.7783 62.7276 30.8549 62.7276Z" fill="white"/>
<path d="M34.608 68.6261C35.6259 68.6261 36.451 67.8001 36.451 66.7813C36.451 65.7625 35.6259 64.9365 34.608 64.9365C33.5902 64.9365 32.765 65.7625 32.765 66.7813C32.765 67.8001 33.5902 68.6261 34.608 68.6261Z" fill="white"/>
<path d="M37.2561 44.6336C36.9508 45.4977 35.5343 43.9974 28.9052 45.2356C24.4896 46.0607 21.7158 49.4174 20.712 48.1793C20.2753 47.6403 23.7523 44.8957 28.129 43.9368C32.2679 43.0291 37.5778 43.7205 37.253 44.6367L37.2561 44.6336Z" fill="black"/>
<path d="M61.4951 75.992C61.4492 76.5187 61.2612 77.0229 60.9513 77.451C60.2458 78.6744 56.6002 80.6451 55.4083 80.0175C54.2032 79.3891 53.9562 77.976 54.3804 76.6678C54.665 75.6386 55.1848 74.6897 55.8986 73.896C56.2227 73.4854 56.6443 73.1626 57.125 72.9569C57.6057 72.7513 58.1302 72.6693 58.6507 72.7185C59.0523 72.7461 59.4445 72.8528 59.8049 73.0323C60.1653 73.2118 60.4869 73.4608 60.7511 73.7648C61.0153 74.0688 61.217 74.4221 61.3446 74.8042C61.4723 75.1864 61.5235 75.59 61.4951 75.992Z" fill="#CE111F"/>
<path d="M70.0949 57.9563C69.2799 63.752 69.9831 72.3273 82.2406 73.266C89.6941 73.8361 93.5278 67.6251 93.4982 61.7742C93.4547 53.1632 88.1806 49.0708 82.3874 48.2557C76.5943 47.4406 70.9061 52.1607 70.0918 57.9571L70.0949 57.9563Z" fill="black"/>
<path d="M78.7784 60.8021C79.8816 60.8021 80.776 59.9068 80.776 58.8025C80.776 57.6982 79.8816 56.803 78.7784 56.803C77.6751 56.803 76.7808 57.6982 76.7808 58.8025C76.7808 59.9068 77.6751 60.8021 78.7784 60.8021Z" fill="white"/>
<path d="M76.4669 65.9778C77.5088 65.9778 78.3534 65.1324 78.3534 64.0895C78.3534 63.0466 77.5088 62.2012 76.4669 62.2012C75.4251 62.2012 74.5804 63.0466 74.5804 64.0895C74.5804 65.1324 75.4251 65.9778 76.4669 65.9778Z" fill="white"/>
<path d="M90.0575 45.8594C89.4825 46.5757 88.6442 44.6874 81.9769 43.6701C77.5373 42.9904 73.8125 45.238 73.2748 43.7377C73.0417 43.0821 77.2296 41.6379 81.6762 42.187C85.882 42.6995 90.6682 45.1066 90.0575 45.8594Z" fill="black"/>
<path d="M53.1574 88.9785C54.176 89.4654 55.29 89.7195 56.4188 89.7225C57.5476 89.7254 58.6629 89.4771 59.684 88.9956C59.7128 88.9837 59.7449 88.9825 59.7745 88.9923C59.8041 89.002 59.8292 89.0221 59.8454 89.0487C59.8615 89.0754 59.8676 89.107 59.8625 89.1377C59.8574 89.1685 59.8415 89.1964 59.8176 89.2164C58.8174 89.9052 57.6313 90.2728 56.4173 90.2702C55.2032 90.2675 54.0187 89.8948 53.0215 89.2017C53.0083 89.1909 52.9974 89.1777 52.9894 89.1627C52.9814 89.1476 52.9765 89.1312 52.9749 89.1143C52.9733 89.0973 52.9751 89.0802 52.9801 89.064C52.9852 89.0478 52.9934 89.0327 53.0044 89.0197C53.0222 88.9984 53.0464 88.9834 53.0734 88.9769C53.1003 88.9703 53.1287 88.9725 53.1543 88.9831L53.1574 88.9785Z" fill="#0D1338"/>
<path d="M71.5657 102.531H36.8295V132.571H71.5657V102.531Z" fill="#00A6ED"/>
<path d="M71.5669 133.175H36.8299C36.6697 133.175 36.5162 133.111 36.403 132.998C36.2897 132.884 36.2261 132.731 36.2261 132.57V102.531C36.2261 102.371 36.2897 102.217 36.403 102.104C36.5162 101.991 36.6697 101.927 36.8299 101.927H71.5661C71.7262 101.927 71.8798 101.991 71.993 102.104C72.1062 102.217 72.1698 102.371 72.1698 102.531V132.574C72.169 132.733 72.1051 132.886 71.9921 132.999C71.8792 133.111 71.7263 133.175 71.5669 133.175ZM37.4343 131.964H70.9608V103.136H37.4343V131.964Z" fill="black"/>
<path d="M33.2749 138.228L36.8296 132.571V102.531L33.2749 111.776V138.228Z" fill="#00A6ED"/>
<path d="M33.2753 138.833C33.2187 138.833 33.1624 138.825 33.1082 138.809C32.9822 138.772 32.8714 138.696 32.7927 138.59C32.7139 138.485 32.6714 138.358 32.6716 138.226V111.773C32.6718 111.698 32.6858 111.624 32.7128 111.555L36.2674 102.31C36.3194 102.18 36.4147 102.072 36.537 102.005C36.6594 101.938 36.8013 101.915 36.9386 101.94C37.0759 101.966 37.2002 102.038 37.2903 102.145C37.3804 102.251 37.4308 102.386 37.4329 102.526V132.566C37.433 132.68 37.4009 132.792 37.3404 132.889L33.7857 138.546C33.7315 138.633 33.6562 138.704 33.5667 138.754C33.4773 138.804 33.3768 138.83 33.2745 138.83L33.2753 138.833ZM33.879 111.888V136.127L36.2239 132.394V105.789L33.879 111.888Z" fill="black"/>
<path d="M75.1199 138.228L71.5652 132.571V102.531L75.1199 111.776V138.228Z" fill="#00A6ED"/>
<path d="M75.121 138.833C75.0186 138.833 74.9179 138.807 74.8283 138.757C74.7388 138.708 74.6633 138.636 74.609 138.549L71.0543 132.892C70.9939 132.795 70.9619 132.683 70.9619 132.569V102.529C70.964 102.389 71.0144 102.255 71.1045 102.148C71.1946 102.041 71.3188 101.969 71.4562 101.943C71.5935 101.918 71.7354 101.941 71.8577 102.008C71.9801 102.075 72.0754 102.183 72.1274 102.313L75.682 111.558C75.7089 111.628 75.7229 111.702 75.7232 111.776V138.229C75.7229 138.36 75.6801 138.487 75.6014 138.592C75.5227 138.697 75.4123 138.774 75.2865 138.811C75.2324 138.827 75.176 138.835 75.1195 138.835L75.121 138.833ZM72.1685 132.394L74.5135 136.127V111.888L72.1685 105.789V132.394Z" fill="black"/>
<path d="M75.1205 111.775H33.2749V138.228H75.1205V111.775Z" fill="#00A6ED"/>
<g opacity="0.4">
<path d="M75.1205 111.775H33.2749V113.433H75.1205V111.775Z" fill="white"/>
</g>
<g opacity="0.35">
<path d="M75.1205 110.278H33.2749V111.936H75.1205V110.278Z" fill="#0D1338"/>
</g>
<g opacity="0.35">
<path d="M75.1205 135.721H33.2749V138.228H75.1205V135.721Z" fill="#0D1338"/>
</g>
<path d="M75.1209 138.833H33.2753C33.196 138.833 33.1175 138.817 33.0442 138.787C32.971 138.756 32.9044 138.712 32.8484 138.656C32.7923 138.6 32.7479 138.533 32.7175 138.46C32.6872 138.386 32.6716 138.308 32.6716 138.228V111.775C32.6716 111.615 32.7352 111.461 32.8484 111.348C32.9616 111.235 33.1152 111.171 33.2753 111.171H75.1209C75.281 111.171 75.4345 111.235 75.5477 111.348C75.661 111.461 75.7246 111.615 75.7246 111.775V138.225C75.725 138.305 75.7097 138.384 75.6795 138.458C75.6493 138.531 75.605 138.598 75.5489 138.655C75.4928 138.711 75.4261 138.756 75.3526 138.786C75.2792 138.817 75.2004 138.833 75.1209 138.833ZM33.879 137.622H74.5148V112.381H33.879V137.622Z" fill="black"/>
<path d="M93.6971 113.851V113.866C92.6051 118.545 89.7924 122.64 85.8194 125.336C85.7176 125.404 85.6158 125.472 85.5086 125.54L85.448 125.579C85.3555 125.639 85.2615 125.698 85.1667 125.754L85.0719 125.812C84.9942 125.86 84.9119 125.909 84.8319 125.955C84.793 125.979 84.7542 126.001 84.7153 126.023C84.6376 126.069 84.5599 126.112 84.4822 126.159C84.4457 126.178 84.4092 126.2 84.3727 126.22C84.2833 126.271 84.1932 126.319 84.1038 126.367C84.0867 126.375 84.072 126.385 84.058 126.392C83.971 126.437 83.8855 126.484 83.7962 126.528C83.7526 126.552 83.706 126.573 83.6625 126.595C83.5584 126.649 83.4512 126.702 83.3471 126.751C83.2235 126.811 83.1 126.87 82.9733 126.928C82.8467 126.986 82.7309 127.04 82.6074 127.093C82.598 127.098 82.5879 127.1 82.5786 127.105C82.4597 127.159 82.3386 127.21 82.2174 127.261C82.209 127.265 82.2001 127.268 82.1909 127.27C82.0721 127.322 81.9532 127.37 81.8319 127.416C81.8273 127.416 81.8226 127.42 81.8172 127.42L81.4217 127.576C81.2888 127.627 81.1576 127.676 81.0216 127.721C80.8856 127.767 80.7528 127.816 80.6168 127.86C80.3448 127.952 80.0729 128.037 79.7901 128.12C76.9026 128.936 73.9132 129.333 70.9131 129.299H69.9435C67.8244 129.393 65.7065 129.092 63.6974 128.411C62.9633 128.122 62.2958 127.686 61.7355 127.13C61.4148 126.803 61.1413 126.432 60.9227 126.03C60.3828 124.963 60.1297 123.774 60.1885 122.579C60.3027 118.919 62.7657 116.81 66.9482 116.788C68.1194 116.698 69.212 116.571 70.2263 116.407C70.248 116.407 70.2698 116.399 70.2892 116.397C76.5524 115.377 79.7916 112.967 79.9237 109.213C79.9285 108.581 79.7918 107.955 79.5235 107.383C79.4629 107.286 79.4093 107.179 79.3511 107.065C79.2816 106.896 79.1842 106.74 79.0628 106.604L78.9199 106.495L78.9051 106.317C78.9051 106.286 78.8787 106.25 78.8958 106.223C80.1661 104.298 80.9299 99.5263 81.3665 96.5142C82.208 96.1478 83.0371 95.7364 83.8443 95.3227C83.8443 95.3056 84.6011 94.954 84.7464 94.8716C87.2073 95.9942 89.2975 97.7958 90.7718 100.065C93.4438 104.08 94.6171 109.623 93.6909 113.854L93.6971 113.851Z" fill="#FCFEFF"/>
<path d="M60.7835 126.035C61.0011 126.438 61.2747 126.809 61.5962 127.135C62.1569 127.69 62.8243 128.127 63.5581 128.417C65.5671 129.098 67.6852 129.399 69.8042 129.305H70.6992C73.2741 123.276 71.7396 118.9 70.1515 116.4C70.1297 116.4 70.1103 116.407 70.0885 116.409C69.0748 116.572 67.9822 116.699 66.8105 116.79C62.628 116.814 60.1665 118.921 60.0508 122.581C59.9919 123.776 60.2452 124.966 60.7858 126.033L60.7835 126.035Z" fill="black"/>
<path opacity="0.4" d="M71.3933 118.252C70.2439 118.385 69.0098 118.489 67.691 118.563C63.7681 118.58 61.1396 119.743 60.1917 121.815V121.66C60.3059 118.549 62.7689 116.75 66.9513 116.731C68.1225 116.653 69.2152 116.545 70.2294 116.408C70.2512 116.408 70.2729 116.401 70.2923 116.398C70.7251 116.975 71.0942 117.596 71.3933 118.252Z" fill="white"/>
<path d="M70.2196 129.843H69.8C67.6126 129.933 65.4275 129.616 63.355 128.91C62.555 128.592 61.8274 128.116 61.216 127.51C60.8604 127.148 60.5575 126.738 60.3163 126.291C59.732 125.142 59.4561 123.861 59.5159 122.573V122.566C59.5062 121.689 59.6834 120.821 60.0355 120.019C60.3876 119.216 60.9066 118.498 61.5579 117.913C63.0477 116.751 64.9037 116.162 66.79 116.252C67.9345 116.163 69.016 116.039 70.0051 115.879L70.42 115.813L70.6089 116.11C72.333 118.819 73.8341 123.343 71.1978 129.515L71.0595 129.84H70.671C70.5234 129.84 70.3726 129.84 70.2227 129.84L70.2196 129.843ZM61.2603 125.778C61.4548 126.136 61.698 126.465 61.9829 126.756C62.4928 127.262 63.101 127.658 63.7699 127.919C65.7154 128.569 67.7635 128.856 69.8124 128.766H70.3462C72.5218 123.414 71.3563 119.456 69.8855 116.985C68.9469 117.128 67.926 117.242 66.8553 117.325H66.8164C62.9105 117.349 60.6993 119.218 60.5921 122.594C60.5373 123.694 60.7677 124.79 61.2611 125.776L61.2603 125.778Z" fill="black"/>
<path opacity="0.49" d="M93.6959 113.851V113.866C92.6039 118.545 89.7912 122.64 85.8181 125.336C85.7163 125.404 85.6145 125.472 85.5073 125.54L85.4467 125.579C85.3543 125.639 85.2602 125.698 85.1655 125.754L85.0707 125.812C84.993 125.86 84.9106 125.909 84.8306 125.955C84.7917 125.979 84.7529 126.001 84.714 126.023C84.6363 126.069 84.5586 126.112 84.4809 126.159C84.4444 126.178 84.4079 126.2 84.3714 126.22C84.2821 126.271 84.1919 126.319 84.1026 126.367C84.0855 126.374 84.0707 126.384 84.0567 126.391C83.9697 126.437 83.885 126.484 83.7949 126.528C83.7514 126.552 83.7055 126.573 83.6612 126.595C83.5571 126.649 83.4507 126.702 83.3458 126.751C83.2222 126.811 83.0987 126.87 82.9728 126.928C82.8469 126.986 82.7304 127.04 82.6069 127.093C82.5976 127.098 82.5874 127.1 82.5781 127.105C82.4592 127.159 82.338 127.21 82.2168 127.261C82.2085 127.265 82.1996 127.268 82.1904 127.27C82.0715 127.322 81.9526 127.37 81.8314 127.416C81.8268 127.416 81.8214 127.42 81.8167 127.42L81.4212 127.576C81.2876 127.627 81.157 127.675 81.0211 127.721C80.8851 127.767 80.7522 127.816 80.6163 127.86C80.3451 127.952 80.0724 128.037 79.7896 128.12C76.9021 128.935 73.9127 129.333 70.9126 129.299H69.9414C67.8224 129.393 65.7044 129.092 63.6953 128.411C62.9612 128.122 62.2937 127.686 61.7334 127.13C61.4131 126.802 61.1398 126.432 60.9215 126.03C60.5538 125.332 60.3233 124.569 60.2424 123.784C60.2665 123.833 60.2906 123.879 60.3155 123.925C60.5329 124.328 60.8062 124.699 61.1274 125.025C61.6881 125.58 62.3555 126.016 63.0893 126.307C65.0983 126.988 67.2163 127.289 69.3353 127.195H70.305C73.3051 127.228 76.2945 126.831 79.182 126.016C79.4609 125.933 79.7351 125.849 80.0086 125.756L80.4135 125.618C80.5495 125.569 80.68 125.52 80.8136 125.472C80.9472 125.424 81.0778 125.373 81.2091 125.317C81.2138 125.317 81.2192 125.312 81.2239 125.312L81.5828 125.166C81.5898 125.166 81.5999 125.16 81.6093 125.157C81.7305 125.107 81.8493 125.055 81.9705 125.002C81.9799 124.997 81.9899 124.994 81.9993 124.989C82.1228 124.936 82.244 124.879 82.3652 124.824C82.4864 124.769 82.6147 124.708 82.739 124.647C82.8454 124.596 82.9495 124.543 83.0544 124.491L83.1881 124.424C83.2751 124.38 83.3629 124.334 83.4499 124.288L83.4957 124.264C83.5851 124.215 83.6752 124.166 83.7646 124.116C83.8011 124.096 83.8376 124.077 83.8734 124.055C83.9511 124.009 84.0288 123.966 84.1065 123.919C84.1453 123.897 84.1841 123.875 84.223 123.851C84.3007 123.805 84.383 123.756 84.4631 123.707L84.5579 123.649L84.8391 123.474C84.8609 123.462 84.8803 123.448 84.8997 123.435C85.0039 123.368 85.1056 123.299 85.2105 123.232C89.1829 120.535 91.9941 116.439 93.0836 111.761V111.746C93.5573 109.311 93.4929 106.802 92.8948 104.394C93.9982 107.418 94.2737 110.683 93.6927 113.85L93.6959 113.851Z" fill="#C5EFFF"/>
<path d="M94.4721 114.07C91.8094 124.996 81.8851 130.278 70.7829 130.1C67.4512 129.94 62.8686 130.363 60.7226 127.151C59.8285 125.882 59.3615 124.36 59.3894 122.807C59.4174 121.254 59.9388 119.75 60.878 118.514C62.2844 116.703 64.3457 116.336 66.9641 116.097C71.8186 115.648 77.5745 115.261 79.0196 109.981C79.2954 108.877 79.2104 107.714 78.7772 106.663C78.7512 106.612 78.7386 106.555 78.7407 106.498C78.7417 106.443 78.7565 106.389 78.7837 106.342C78.8108 106.294 78.8495 106.254 78.8961 106.226C78.9101 106.216 78.9256 106.209 78.942 106.204C79.0052 106.187 79.0717 106.186 79.1354 106.201C79.1992 106.216 79.2584 106.246 79.3079 106.289C79.9772 107.122 80.3364 108.163 80.3242 109.232C80.1012 115.439 72.0509 116.805 66.9602 117.196C62.9836 117.286 60.7024 118.973 60.589 122.591C60.4849 128.735 66.0348 128.925 70.9064 128.901C82.732 128.901 90.7652 123.557 93.2958 113.766C94.741 107.164 91.0387 95.9977 81.6598 94.2937C81.5316 94.2696 81.4073 94.1895 81.2861 94.1723C81.2325 94.1653 81.0677 93.9927 80.9419 94.0417C81.175 93.9444 81.5285 93.9546 81.7569 93.8527C82.1765 93.6684 82.6349 93.5105 83.0444 93.3137C83.0809 93.3231 83.1174 93.3308 83.1508 93.3402C91.2858 95.5178 96.2817 106.146 94.4667 114.068L94.4721 114.07Z" fill="black"/>
<path d="M15.3344 113.706V113.72C16.4264 118.399 19.2391 122.494 23.2121 125.19C23.3139 125.258 23.4157 125.326 23.5229 125.394L23.5835 125.433C23.676 125.494 23.77 125.552 23.8648 125.608L23.9596 125.666C24.0373 125.715 24.1196 125.764 24.1997 125.809C24.2385 125.834 24.2774 125.855 24.3162 125.877C24.3939 125.923 24.4716 125.967 24.5493 126.013C24.5858 126.033 24.6224 126.054 24.6581 126.074C24.7474 126.124 24.8376 126.173 24.9269 126.222C24.944 126.229 24.9588 126.239 24.9728 126.246C25.0598 126.292 25.1452 126.338 25.2346 126.382C25.2781 126.406 25.324 126.428 25.3683 126.45C25.4724 126.503 25.5788 126.557 25.6837 126.606C25.8072 126.667 25.9308 126.725 26.0574 126.783C26.1841 126.841 26.2998 126.895 26.4234 126.948L26.4521 126.961C26.571 127.014 26.6922 127.065 26.8134 127.116C26.8218 127.12 26.8307 127.124 26.8398 127.126C26.9587 127.177 27.0776 127.226 27.1988 127.272C27.2035 127.272 27.2081 127.276 27.2136 127.276L27.609 127.432C27.7427 127.483 27.8732 127.531 28.0092 127.577C28.1452 127.623 28.278 127.672 28.414 127.716C28.6852 127.808 28.9579 127.893 29.2407 127.975C32.1281 128.791 35.1175 129.189 38.1176 129.155H39.0873C41.2063 129.249 43.3243 128.948 45.3334 128.267C46.0675 127.978 46.735 127.541 47.2953 126.985C47.6157 126.658 47.8889 126.288 48.1072 125.886C48.6476 124.819 48.9009 123.629 48.8422 122.434C48.728 118.774 46.265 116.665 42.0825 116.643C40.9114 116.553 39.8187 116.426 38.8045 116.262C38.7827 116.262 38.761 116.255 38.7415 116.252C32.4783 115.232 29.2391 112.823 29.1071 109.068C29.1022 108.436 29.239 107.81 29.5072 107.238C29.5678 107.141 29.6214 107.034 29.6797 106.92C29.7492 106.751 29.8467 106.595 29.9679 106.459L30.1109 106.35L30.1257 106.173C30.1257 106.141 30.1521 106.105 30.135 106.078C28.8646 104.153 28.1009 99.3813 27.6642 96.3692C26.8227 96.0028 25.9937 95.5914 25.1864 95.1777C25.1864 95.1606 24.4297 94.809 24.2844 94.7258C21.8233 95.8482 19.7331 97.6499 18.2589 99.9195C15.5869 103.934 14.4137 109.477 15.3398 113.708L15.3344 113.706Z" fill="#FCFEFF"/>
<path d="M48.2504 125.887C48.0331 126.29 47.7597 126.66 47.4385 126.986C46.8777 127.542 46.2104 127.978 45.4766 128.268C43.4676 128.949 41.3495 129.25 39.2305 129.156H38.3339C35.759 123.127 37.2935 118.751 38.8817 116.251C38.9034 116.251 38.9228 116.258 38.9446 116.261C39.9583 116.424 41.051 116.551 42.2226 116.642C46.4051 116.666 48.8666 118.773 48.9823 122.433C49.0412 123.628 48.7879 124.818 48.2473 125.885L48.2504 125.887Z" fill="black"/>
<path opacity="0.4" d="M37.6427 118.104C38.7921 118.237 40.0262 118.341 41.345 118.415C45.268 118.432 47.8965 119.594 48.8444 121.667V121.511C48.7302 118.4 46.2672 116.601 42.0847 116.582C40.9135 116.504 39.8209 116.396 38.8067 116.259C38.7849 116.259 38.7631 116.251 38.7437 116.249C38.3111 116.824 37.9419 117.445 37.6427 118.101V118.104Z" fill="white"/>
<path d="M38.82 129.695H39.2396C41.4271 129.785 43.6122 129.468 45.6846 128.762C46.4847 128.444 47.2123 127.968 47.8236 127.362C48.1792 127 48.4822 126.59 48.7234 126.144C49.3077 124.995 49.5834 123.713 49.5236 122.426V122.419C49.5333 121.542 49.3562 120.674 49.0041 119.872C48.652 119.07 48.133 118.352 47.4817 117.766C45.992 116.605 44.1358 116.016 42.2496 116.106C41.1051 116.016 40.0236 115.892 39.0345 115.732L38.6196 115.667L38.4308 115.963C36.7066 118.672 35.2055 123.196 37.8418 129.368L37.9801 129.693H38.3686C38.5162 129.693 38.667 129.693 38.8169 129.693L38.82 129.695ZM47.7793 125.63C47.5848 125.988 47.3416 126.317 47.0567 126.608C46.5468 127.114 45.9386 127.51 45.2697 127.771C43.3242 128.421 41.2761 128.708 39.2272 128.618H38.6934C36.5179 123.266 37.6833 119.308 39.1541 116.837C40.0927 116.98 41.1136 117.094 42.1843 117.177H42.2232C46.129 117.201 48.3411 119.07 48.4475 122.446C48.5023 123.546 48.2719 124.642 47.7786 125.627L47.7793 125.63Z" fill="black"/>
<path opacity="0.49" d="M15.3382 113.706V113.72C16.4311 118.398 19.2436 122.491 23.2159 125.187C23.3177 125.254 23.4195 125.323 23.5267 125.39L23.5873 125.429C23.6798 125.49 23.7738 125.548 23.8686 125.604L23.9634 125.663C24.0411 125.711 24.1234 125.76 24.2034 125.806C24.2423 125.83 24.2812 125.852 24.32 125.873C24.3977 125.919 24.4754 125.963 24.5531 126.009C24.5896 126.029 24.6261 126.051 24.6619 126.07C24.7512 126.121 24.8413 126.17 24.9307 126.218C24.9478 126.225 24.9626 126.235 24.9765 126.242C25.0636 126.288 25.149 126.334 25.2384 126.378C25.2819 126.402 25.3277 126.424 25.372 126.446C25.4761 126.499 25.5826 126.552 25.6875 126.601C25.811 126.662 25.9346 126.72 26.0612 126.779C26.1878 126.837 26.3036 126.89 26.4272 126.943C26.4365 126.948 26.4466 126.95 26.4559 126.956C26.5748 127.01 26.696 127.06 26.8172 127.111C26.8256 127.116 26.8345 127.119 26.8436 127.121C26.9625 127.172 27.0814 127.22 27.2026 127.266C27.2072 127.266 27.2119 127.271 27.2173 127.271L27.6128 127.426C27.7465 127.478 27.877 127.526 28.013 127.572C28.1489 127.618 28.2818 127.667 28.4178 127.71C28.6897 127.803 28.9617 127.888 29.2445 127.97C32.1319 128.786 35.1213 129.183 38.1214 129.15H39.0911C41.2101 129.244 43.3281 128.942 45.3372 128.262C46.0713 127.972 46.7388 127.536 47.299 126.98C47.6194 126.653 47.8927 126.283 48.111 125.88C48.4785 125.182 48.7091 124.42 48.7901 123.635C48.766 123.683 48.7419 123.73 48.717 123.776C48.4996 124.179 48.2262 124.549 47.9051 124.875C47.3444 125.431 46.677 125.867 45.9432 126.157C43.9342 126.838 41.8162 127.139 39.6971 127.045H38.7275C35.7274 127.079 32.738 126.681 29.8505 125.866C29.5716 125.783 29.2973 125.698 29.0238 125.606L28.619 125.467C28.483 125.419 28.3525 125.37 28.2189 125.322C28.0852 125.274 27.9547 125.222 27.8234 125.166C27.8187 125.166 27.8133 125.162 27.8086 125.162L27.4497 125.016C27.4427 125.016 27.4326 125.008 27.4232 125.006C27.302 124.955 27.1832 124.904 27.0619 124.851L27.0332 124.838C26.9097 124.784 26.7885 124.728 26.6672 124.673C26.546 124.618 26.4178 124.557 26.2935 124.496C26.1871 124.445 26.083 124.392 25.9781 124.34L25.8444 124.273C25.7574 124.229 25.6696 124.183 25.5826 124.137L25.5367 124.113C25.4466 124.064 25.3573 124.015 25.2679 123.965C25.2314 123.945 25.1949 123.926 25.1591 123.904C25.0814 123.858 25.0037 123.815 24.926 123.768C24.8872 123.746 24.8483 123.724 24.8095 123.7C24.7318 123.654 24.6494 123.605 24.5694 123.557L24.4746 123.499L24.1933 123.324C24.1716 123.311 24.1522 123.297 24.1328 123.285C24.0286 123.217 23.9268 123.149 23.822 123.081C19.8498 120.385 17.0386 116.29 15.9489 111.611V111.596C15.4753 109.162 15.5398 106.653 16.1377 104.245C15.0342 107.27 14.7587 110.534 15.3397 113.701L15.3382 113.706Z" fill="#C5EFFF"/>
<path d="M14.558 113.922C17.2207 124.848 27.145 130.13 38.2472 129.952C41.5788 129.792 46.1614 130.215 48.3074 127.003C49.2018 125.734 49.6689 124.212 49.6409 122.659C49.613 121.106 49.0915 119.602 48.152 118.365C46.7457 116.555 44.6844 116.187 42.066 115.948C37.2115 115.499 31.4556 115.113 30.0104 109.832C29.7348 108.728 29.8197 107.566 30.2529 106.514C30.279 106.463 30.2915 106.406 30.2894 106.349C30.2884 106.294 30.2736 106.241 30.2464 106.193C30.2193 106.146 30.1806 106.106 30.134 106.077C30.1199 106.067 30.1045 106.06 30.0881 106.055C30.0249 106.038 29.9584 106.037 29.8947 106.052C29.8309 106.067 29.7717 106.097 29.7222 106.14C29.0529 106.974 28.6937 108.014 28.7059 109.084C28.9289 115.29 36.9791 116.656 42.0699 117.047C46.0464 117.136 48.3284 118.824 48.4411 122.442C48.5452 128.586 42.9953 128.777 38.1236 128.752C26.2981 128.752 18.2649 123.408 15.7335 113.617C14.2883 107.016 18.0054 95.8194 27.3882 94.1154C27.5164 94.0913 27.6407 94.0718 27.7642 94.0547C27.8178 94.0477 27.9313 94.0205 27.9825 94.0158C27.7494 93.9186 27.5047 93.8051 27.277 93.7047C26.8575 93.5204 26.3991 93.3625 25.9896 93.1658C25.9531 93.1751 25.9166 93.1829 25.8832 93.1922C17.7482 95.3699 12.7523 105.998 14.5673 113.92L14.558 113.922Z" fill="black"/>
<path d="M23.9308 95.181C24.213 95.3699 24.5263 95.5872 24.8613 95.8329C26.6496 97.1368 28.2564 98.6735 29.6393 100.402C31.0801 102.287 32.3217 104.316 33.3442 106.457C33.4869 106.747 33.6198 107.026 33.7406 107.286L35.1803 103.913C34.7936 103.305 34.0176 102.13 32.9804 100.769C31.3185 98.496 29.3478 96.4668 27.1252 94.7397C26.7313 94.3897 26.2375 94.1725 25.7136 94.1186C25.4444 94.1633 25.1937 94.2848 24.9918 94.4687L24.8234 94.5912C24.7498 94.6447 24.6625 94.7083 24.5683 94.7691L24.5639 94.7723C24.3401 94.9179 24.1273 95.0534 23.9278 95.1783M21.9373 95.1716C22.7049 94.8577 23.4408 94.4714 24.1352 94.0179C24.2593 93.9362 25.353 93.6126 25.4831 93.518C26.1821 93.0095 25.8266 92.7104 27.6177 94.0169C32.3623 97.4778 36.3402 103.825 36.3402 103.825L33.7431 109.906C32.5003 106.748 30.848 103.768 28.8285 101.041C26.9235 98.6654 24.585 96.6736 21.9373 95.1716Z" fill="black"/>
<path d="M86.2071 95.1721C86.2071 95.1721 85.3196 94.6745 84.1381 93.9111C83.3481 93.393 82.5344 92.3597 80.4092 93.9107C75.6655 97.3704 71.8052 103.825 71.8052 103.825L74.4004 109.904C75.6437 106.747 77.2964 103.767 79.316 101.042C81.2209 98.6659 83.5595 96.6741 86.2071 95.1721Z" fill="white"/>
<path d="M84.2137 95.1815C83.9315 95.3704 83.6181 95.5876 83.2831 95.8334C81.4948 97.1373 79.888 98.6739 78.5051 100.403C77.0644 102.287 75.8228 104.316 74.8003 106.457C74.6576 106.748 74.5247 107.026 74.4039 107.286L72.9648 103.914C73.3515 103.306 74.1275 102.13 75.1647 100.77C76.8266 98.4969 78.7973 96.4677 81.0199 94.7406C81.4138 94.3907 81.9076 94.1735 82.4315 94.1195C82.7007 94.1642 82.9514 94.2858 83.1533 94.4696L83.3211 94.5917C83.3946 94.6452 83.482 94.7088 83.5762 94.7696L83.58 94.7724C83.8038 94.9179 84.0166 95.0535 84.216 95.1784M86.2071 95.1721C86.2071 95.1721 85.3196 94.6745 84.1381 93.9111C84.0139 93.8294 83.889 93.7356 83.7582 93.6405C83.0592 93.1319 82.2008 92.6036 80.4092 93.9107C75.6655 97.3704 71.8052 103.825 71.8052 103.825L74.4004 109.904C75.6437 106.747 77.2964 103.767 79.316 101.042C81.2209 98.6659 83.5595 96.6741 86.2071 95.1721Z" fill="black"/>
<path d="M19.8154 215.025C20.7399 215.073 21.6569 214.837 22.4431 214.348C23.2293 213.859 23.8469 213.141 24.213 212.291H24.2532V213.886C24.2524 214.041 24.283 214.194 24.3434 214.336C24.4037 214.478 24.4924 214.606 24.6041 214.713C24.7158 214.82 24.8481 214.903 24.9928 214.957C25.1376 215.01 25.2919 215.034 25.4461 215.026C25.5976 215.033 25.7489 215.008 25.8903 214.953C26.0317 214.899 26.1601 214.815 26.2674 214.708C26.3746 214.6 26.4583 214.472 26.5131 214.33C26.5679 214.189 26.5926 214.038 26.5857 213.886V196.441C26.5983 196.281 26.5774 196.121 26.5244 195.969C26.4715 195.818 26.3876 195.679 26.2781 195.561C26.1686 195.444 26.0359 195.351 25.8884 195.288C25.7409 195.225 25.5819 195.193 25.4215 195.194C25.2611 195.193 25.1021 195.225 24.9546 195.288C24.8071 195.351 24.6744 195.444 24.5649 195.561C24.4554 195.679 24.3715 195.818 24.3185 195.969C24.2656 196.121 24.2447 196.281 24.2573 196.441V203.105H24.2035C23.7654 202.32 23.1196 201.671 22.3369 201.228C21.5543 200.786 20.6651 200.567 19.7666 200.597C16.2547 200.597 13.856 203.439 13.856 207.811C13.856 212.182 16.2641 215.025 19.8154 215.025ZM20.2578 212.974C17.7915 212.974 16.2363 210.976 16.2363 207.812C16.2363 204.661 17.7915 202.65 20.2578 202.65C22.6574 202.65 24.2658 204.701 24.2658 207.812C24.2667 210.936 22.6583 212.974 20.2587 212.974H20.2578ZM35.0302 215.025C37.5772 215.025 39.5344 213.952 40.4321 212.062C40.5324 211.847 40.5915 211.615 40.6063 211.378C40.6139 211.241 40.5922 211.104 40.5429 210.976C40.4935 210.848 40.4175 210.732 40.3199 210.636C40.2223 210.539 40.1053 210.465 39.9768 210.417C39.8482 210.369 39.711 210.35 39.5742 210.359C39.4006 210.354 39.2287 210.395 39.0758 210.477C38.9229 210.559 38.7943 210.681 38.7029 210.828C37.617 212.41 36.5983 213.001 34.9362 213.001C32.443 213.001 30.9013 211.257 30.9013 208.442H39.6145C39.7923 208.453 39.9705 208.426 40.1364 208.361C40.3024 208.296 40.452 208.195 40.5748 208.066C40.6975 207.937 40.7904 207.782 40.8468 207.613C40.9033 207.444 40.9219 207.265 40.9014 207.087C40.9014 203.266 38.3939 200.598 34.8292 200.598C30.9819 200.598 28.5022 203.467 28.5022 207.865C28.5022 212.37 30.9161 215.025 35.0311 215.025H35.0302ZM30.9152 206.618C31.0625 204.218 32.6167 202.622 34.7893 202.622C36.9476 202.622 38.4355 204.204 38.4888 206.618H30.9152ZM43.9852 215.025C44.1456 215.027 44.3046 214.995 44.4521 214.932C44.5996 214.869 44.7323 214.775 44.8418 214.658C44.9513 214.541 45.0352 214.402 45.0882 214.25C45.1411 214.099 45.162 213.938 45.1494 213.778V196.441C45.162 196.281 45.1411 196.121 45.0882 195.969C45.0352 195.818 44.9513 195.679 44.8418 195.561C44.7323 195.444 44.5996 195.351 44.4521 195.288C44.3046 195.225 44.1456 195.193 43.9852 195.194C43.8248 195.193 43.6658 195.225 43.5183 195.288C43.3708 195.351 43.2381 195.444 43.1286 195.561C43.0191 195.679 42.9352 195.818 42.8823 195.969C42.8293 196.121 42.8084 196.281 42.821 196.441V213.779C42.8085 213.939 42.8294 214.1 42.8825 214.251C42.9355 214.402 43.0195 214.541 43.1291 214.659C43.2387 214.776 43.3715 214.869 43.519 214.932C43.6666 214.995 43.8257 215.027 43.9861 215.025H43.9852ZM49.0392 198.493C49.4243 198.493 49.7938 198.34 50.0674 198.069C50.341 197.798 50.4965 197.43 50.5003 197.045C50.4996 196.854 50.4612 196.664 50.3874 196.488C50.3135 196.312 50.2057 196.152 50.07 196.018C49.9343 195.883 49.7734 195.777 49.5965 195.704C49.4196 195.632 49.2303 195.596 49.0392 195.597C48.6555 195.597 48.2877 195.75 48.0164 196.022C47.745 196.293 47.5923 196.661 47.5916 197.045C47.5945 197.428 47.7481 197.795 48.0191 198.066C48.2902 198.337 48.6569 198.49 49.0401 198.493H49.0392ZM49.0392 215.025C49.1996 215.027 49.3586 214.995 49.5061 214.932C49.6536 214.869 49.7863 214.775 49.8958 214.658C50.0053 214.541 50.0892 214.402 50.1422 214.25C50.1951 214.099 50.216 213.938 50.2034 213.778V201.845C50.216 201.685 50.1951 201.524 50.1422 201.372C50.0892 201.221 50.0053 201.082 49.8958 200.965C49.7863 200.848 49.6536 200.754 49.5061 200.691C49.3586 200.628 49.1996 200.596 49.0392 200.598C48.8788 200.596 48.7198 200.628 48.5723 200.691C48.4248 200.754 48.2921 200.848 48.1826 200.965C48.0731 201.082 47.9892 201.221 47.9363 201.372C47.8833 201.524 47.8624 201.685 47.875 201.845V213.778C47.8624 213.938 47.8833 214.099 47.9363 214.251C47.9894 214.402 48.0733 214.541 48.1829 214.658C48.2925 214.776 48.4254 214.869 48.5729 214.932C48.7205 214.995 48.8796 215.027 49.0401 215.025H49.0392ZM57.9136 215.025C58.268 215.033 58.6147 214.921 58.8972 214.707C59.1796 214.493 59.3811 214.189 59.4687 213.845L63.8923 202.274C63.9707 202.082 64.0116 201.878 64.0127 201.671C64.0165 201.522 63.9887 201.374 63.931 201.236C63.8733 201.099 63.787 200.976 63.678 200.874C63.569 200.773 63.4396 200.696 63.2986 200.648C63.1575 200.6 63.0079 200.583 62.8597 200.598C62.6066 200.6 62.3619 200.689 62.1667 200.85C61.9714 201.011 61.8375 201.235 61.7873 201.483L57.9535 212.304H57.8997L54.0807 201.483C54.0295 201.233 53.8935 201.008 53.6957 200.847C53.4979 200.686 53.2505 200.598 52.9953 200.598C52.8466 200.583 52.6965 200.6 52.5548 200.648C52.4131 200.695 52.2831 200.772 52.1732 200.874C52.0633 200.975 51.976 201.098 51.917 201.236C51.8581 201.373 51.8288 201.521 51.8311 201.671C51.8321 201.878 51.873 202.082 51.9515 202.274L56.3885 213.845C56.7216 214.69 57.1506 215.025 57.9145 215.025H57.9136ZM70.9568 215.025C73.5037 215.025 75.4609 213.952 76.3587 212.062C76.459 211.847 76.5181 211.615 76.5329 211.378C76.5404 211.241 76.5188 211.104 76.4694 210.976C76.42 210.848 76.344 210.732 76.2464 210.636C76.1488 210.539 76.0319 210.465 75.9033 210.417C75.7748 210.369 75.6375 210.35 75.5007 210.359C75.3271 210.354 75.1552 210.395 75.0023 210.477C74.8494 210.559 74.7208 210.681 74.6294 210.828C73.5435 212.41 72.5249 213.001 70.8627 213.001C68.3695 213.001 66.8279 211.257 66.8279 208.442H75.5419C75.7198 208.453 75.8979 208.426 76.0639 208.361C76.2298 208.296 76.3794 208.195 76.5022 208.066C76.6249 207.937 76.7178 207.782 76.7743 207.613C76.8307 207.444 76.8493 207.265 76.8288 207.087C76.8288 203.266 74.3213 200.598 70.7566 200.598C66.9093 200.598 64.4296 203.467 64.4296 207.865C64.4296 212.37 66.8426 215.025 70.9576 215.025H70.9568ZM66.8417 206.618C66.989 204.218 68.5433 202.622 70.7159 202.622C72.8741 202.622 74.3621 204.204 74.4153 206.618H66.8417ZM79.7913 215.025C79.9517 215.027 80.1107 214.995 80.2582 214.932C80.4057 214.869 80.5384 214.775 80.6479 214.658C80.7574 214.541 80.8413 214.402 80.8942 214.25C80.9472 214.099 80.9681 213.938 80.9555 213.778V206.122C80.9555 204.339 81.8537 202.824 83.9583 202.824C84.3522 202.858 84.7456 202.753 85.071 202.529C85.1926 202.432 85.289 202.306 85.352 202.164C85.415 202.022 85.4427 201.866 85.4328 201.711C85.4409 201.568 85.4188 201.425 85.368 201.291C85.3171 201.157 85.2387 201.035 85.1377 200.933C84.8272 200.686 84.4341 200.566 84.0384 200.598C83.3126 200.631 82.6157 200.892 82.0475 201.345C81.4792 201.798 81.0688 202.419 80.8749 203.119H80.8212V201.778C80.8332 201.627 80.8137 201.475 80.7638 201.332C80.7139 201.188 80.6347 201.057 80.5313 200.946C80.4279 200.835 80.3025 200.747 80.1632 200.687C80.0238 200.627 79.8735 200.597 79.7219 200.598C79.5702 200.597 79.42 200.627 79.2806 200.687C79.1412 200.747 79.0159 200.835 78.9125 200.946C78.8091 201.057 78.7299 201.188 78.68 201.332C78.6301 201.475 78.6105 201.627 78.6226 201.778V213.779C78.6101 213.939 78.6311 214.1 78.6844 214.252C78.7377 214.404 78.8221 214.543 78.9321 214.66C79.0421 214.777 79.1754 214.87 79.3234 214.933C79.4714 214.996 79.6305 215.027 79.7913 215.025ZM87.9022 220C90.2078 220 91.3474 218.968 92.5537 215.763L97.7031 202.287C97.7768 202.09 97.8175 201.881 97.8235 201.671C97.8256 201.523 97.797 201.377 97.7396 201.242C97.6822 201.106 97.5972 200.984 97.49 200.883C97.3828 200.782 97.2557 200.705 97.117 200.656C96.9782 200.606 96.8307 200.587 96.6839 200.598C96.4273 200.581 96.1732 200.659 95.9704 200.817C95.7676 200.975 95.6302 201.203 95.5847 201.456L91.7226 212.451H91.6828L87.8351 201.456C87.7834 201.203 87.6426 200.977 87.4383 200.82C87.234 200.662 86.9799 200.583 86.7224 200.598C86.5741 200.585 86.4248 200.604 86.2841 200.652C86.1433 200.701 86.0141 200.778 85.9047 200.878C85.7953 200.979 85.7079 201.102 85.6483 201.238C85.5886 201.374 85.5579 201.522 85.5582 201.671C85.5641 201.881 85.6048 202.09 85.6786 202.287L90.4738 214.799L90.1523 215.778C89.6047 217.466 88.7602 218.002 87.8767 218.002C87.5149 218.002 87.4209 217.988 87.0859 217.988C86.966 217.974 86.8443 217.986 86.7292 218.022C86.6142 218.059 86.5084 218.12 86.4191 218.202C86.3299 218.283 86.2592 218.383 86.212 218.494C86.1648 218.606 86.1422 218.726 86.1456 218.847C86.1461 219.584 86.7761 220 87.9022 220Z" fill="#00A6ED"/>
<path d="M18.6597 152.482C19.2826 152.498 19.9026 152.39 20.4833 152.164C21.064 151.938 21.5938 151.598 22.0415 151.164C22.4893 150.731 22.8461 150.212 23.0911 149.639C23.3361 149.066 23.4643 148.449 23.4683 147.826C23.4668 147.202 23.3403 146.585 23.0962 146.01C22.8521 145.436 22.4953 144.916 22.047 144.482C21.5987 144.048 21.068 143.709 20.4862 143.483C19.9043 143.258 19.2833 143.152 18.6597 143.171C18.0361 143.152 17.415 143.258 16.8332 143.483C16.2514 143.709 15.7206 144.048 15.2723 144.482C14.824 144.916 14.4672 145.436 14.2231 146.01C13.979 146.585 13.8525 147.202 13.851 147.826C13.855 148.449 13.9832 149.066 14.2282 149.639C14.4732 150.212 14.83 150.731 15.2778 151.164C15.7256 151.598 16.2553 151.938 16.836 152.164C17.4167 152.39 18.0367 152.498 18.6597 152.482ZM18.6597 190.285C21.4359 190.285 23.1598 188.527 23.1598 185.598V160.622C23.1598 157.693 21.4336 155.905 18.6597 155.905C15.8548 155.905 14.1596 157.693 14.1596 160.622V185.596C14.1596 188.526 15.8548 190.283 18.6597 190.283V190.285ZM46.4815 190.285C49.1323 190.285 50.9816 188.681 50.9816 185.598V178.906L53.8474 176.254L62.325 187.477C63.7431 189.605 64.8218 190.283 66.7329 190.283C69.2606 190.283 71.0176 188.618 71.0176 186.213C71.0176 185.041 70.74 184.239 69.754 182.914L60.5371 171.166L68.9521 163.212C70.2466 162.009 70.6473 161.177 70.6473 159.82C70.6542 159.296 70.5546 158.776 70.3545 158.292C70.1543 157.808 69.8579 157.369 69.4831 157.003C69.1084 156.637 68.6631 156.351 68.1744 156.162C67.6857 155.973 67.1638 155.886 66.6402 155.905C65.2839 155.905 64.267 156.429 63.0648 157.693L51.1052 169.687H50.9821V149.183C50.9821 146.099 49.1328 144.465 46.482 144.465C43.8621 144.465 41.9819 146.099 41.9819 149.183V185.597C41.9814 188.679 43.8616 190.283 46.4815 190.283V190.285ZM93.0135 152.482C93.6365 152.498 94.2565 152.39 94.8372 152.164C95.4179 151.938 95.9476 151.598 96.3954 151.164C96.8432 150.731 97.2 150.212 97.445 149.639C97.69 149.066 97.8182 148.449 97.8222 147.826C97.8208 147.202 97.6943 146.584 97.4502 146.01C97.2061 145.436 96.8494 144.916 96.401 144.482C95.9527 144.048 95.422 143.708 94.8401 143.483C94.2583 143.258 93.6372 143.151 93.0135 143.17C92.3899 143.151 91.7688 143.258 91.1869 143.483C90.6051 143.708 90.0743 144.048 89.626 144.482C89.1777 144.916 88.821 145.436 88.5769 146.01C88.3328 146.584 88.2063 147.202 88.2049 147.826C88.2089 148.449 88.3371 149.066 88.5821 149.639C88.827 150.212 89.1839 150.731 89.6317 151.164C90.0794 151.598 90.6092 151.938 91.1899 152.164C91.7706 152.39 92.3905 152.498 93.0135 152.482ZM93.0135 190.285C95.7897 190.285 97.5136 188.527 97.5136 185.598V160.622C97.5136 157.693 95.7875 155.905 93.0135 155.905C90.2087 155.905 88.5134 157.693 88.5134 160.622V185.596C88.513 188.526 90.2082 190.283 93.0135 190.283V190.285Z" fill="#00A6ED"/>
</svg>
