<svg width="259" height="160" viewBox="0 0 259 160" fill="none" xmlns="http://www.w3.org/2000/svg">
<g clip-path="url(#clip0_343_3064)">
<path opacity="0.35" d="M91.3584 104.765C83.1747 108.714 75.6859 111.779 60.2722 111.779C44.8586 111.779 37.1557 108.745 28.7674 104.581C29.5539 104.021 30.5145 103.752 31.4814 103.82C32.5099 103.562 33.8421 103.298 35.2388 103.015C51.1954 108.588 70.2099 108.551 86.0933 102.693C88.2455 103.05 90.2261 103.596 91.3584 104.765Z" fill="#C5EFFF"/>
<path d="M39.4499 43.3257C39.1347 44.0185 38.7768 44.6915 38.3781 45.341C32.9832 48.3743 18.4202 53.916 12.1054 50.7076C2.37703 45.754 1.59486 27.7507 7.50285 20.0017C13.4108 12.2527 26.2781 10.5128 33.9936 14.4328C44.0485 19.5452 43.8352 33.6657 39.453 43.3257H39.4499Z" fill="black"/>
<path d="M82.7726 45.6359C83.0854 46.3638 83.445 47.0712 83.8491 47.7538C89.4069 51.0135 104.466 57.0568 111.099 53.8321C121.329 48.8637 122.489 30.1325 116.484 21.9518C110.479 13.7711 97.1224 11.7209 89.0103 15.6518C78.4432 20.7851 78.3928 35.4921 82.7726 45.6305V45.6359Z" fill="black"/>
<path d="M58.1598 12.0093C57.7278 12.0746 57.284 12.1547 57.0912 12.1928C57.0274 12.1602 56.9613 12.1298 56.8984 12.1003C57.3162 12.0645 57.738 12.0349 58.1598 12.0093Z" fill="white"/>
<path opacity="0.4" d="M8.2703 72.9677C8.27817 73.0183 8.28289 73.0704 8.29076 73.1233C8.20532 73.1869 8.11625 73.2456 8.02401 73.2991C7.97837 73.3271 7.92486 73.3566 7.86663 73.3869C7.87922 72.3981 7.92145 71.3935 7.99332 70.373C8.0185 70.7293 8.04919 71.0808 8.0846 71.4324C8.13575 71.9496 8.19634 72.4637 8.26716 72.9685L8.2703 72.9677Z" fill="white"/>
<path opacity="0.4" d="M112.257 73.2686C112.163 73.2111 112.089 73.1605 112.036 73.1209C112.043 73.0711 112.051 73.0206 112.056 72.9653C112.127 72.4582 112.185 71.9464 112.239 71.4292C112.274 71.0777 112.305 70.7292 112.33 70.3699C112.401 71.3914 112.443 72.396 112.457 73.3838C112.378 73.341 112.314 73.3013 112.254 73.2656L112.257 73.2686Z" fill="white"/>
<path d="M116.464 74.2697C116.464 74.2697 116.441 74.2977 116.418 74.3225C115.244 75.5939 113.723 76.5021 112.038 76.9374C112.829 77.6167 113.798 78.062 114.833 78.2223C112.993 81.811 110.812 85.2182 108.318 88.398C107.416 89.5373 106.452 90.6278 105.431 91.6647C105.147 91.9535 104.858 92.2345 104.566 92.5078C103.898 93.1326 103.223 93.7341 102.539 94.3122C100.268 96.2413 97.8472 97.9924 95.3001 99.5498C95.1805 99.6275 95.0585 99.6975 94.9397 99.7683C90.7815 102.259 86.3419 104.259 81.712 105.726C74.7462 107.93 67.4808 109.07 60.1669 109.106C52.8522 109.07 45.5861 107.93 38.6194 105.726C33.99 104.257 29.5506 102.258 25.3918 99.7683C25.3029 99.7131 25.2092 99.6579 25.1203 99.6026C22.5406 98.0333 20.0905 96.2648 17.7928 94.3138C17.1108 93.7341 16.4354 93.1318 15.7665 92.507C15.4596 92.2184 15.152 91.9221 14.8553 91.6188C14.3273 91.0844 13.8119 90.5299 13.3169 89.9598C12.9361 89.5258 12.5654 89.084 12.2074 88.6375C9.65729 85.4187 7.42788 81.9639 5.55029 78.3211C5.51724 78.2534 5.49914 78.2184 5.49914 78.2184C5.49914 78.2184 5.56288 78.2107 5.67698 78.1912C6.60944 78.0113 7.4814 77.6032 8.21313 77.0043C8.24068 76.9818 8.269 76.9592 8.29655 76.9343C6.61203 76.4984 5.091 75.5903 3.9167 74.3194C3.89362 74.2945 3.87841 74.2769 3.87106 74.2666H3.93716C5.26974 74.3021 6.59094 74.0153 7.78585 73.4312C10.8075 73.0797 13.7395 72.8191 14.6609 70.709C24.0981 49.0494 49.7965 49.5838 56.1671 66.558C58.1535 71.7959 58.2529 77.5505 56.4489 82.8524C57.5988 82.8006 58.7497 82.7697 59.9017 82.7599H60.4423C61.6662 82.7677 62.8898 82.8019 64.1132 82.8626C62.3045 77.558 62.4032 71.799 64.3925 66.558C70.7664 49.5838 96.4615 49.0494 105.899 70.709C106.79 72.7569 109.573 73.0657 112.492 73.4017C113.703 74.0086 115.048 74.3069 116.405 74.2697H116.471H116.464Z" fill="white"/>
<path opacity="0.35" d="M114.834 78.2223C114.834 78.2223 110.566 86.9023 104.564 92.5085C101.622 95.2559 98.3947 97.6892 94.9365 99.7683C90.7783 102.259 86.3387 104.259 81.7088 105.726C67.7057 110.233 52.617 110.233 38.6139 105.726C33.9844 104.257 29.545 102.258 25.3862 99.7683C21.928 97.6892 18.701 95.2559 15.7586 92.5085C9.75617 86.9015 5.48807 78.2223 5.48807 78.2223C6.12127 78.1278 6.73247 77.9229 7.2932 77.6172C9.60028 81.6455 12.4467 85.3476 15.7554 88.6235C18.6978 91.3709 21.9249 93.8042 25.3831 95.8833C29.5413 98.3739 33.9809 100.374 38.6107 101.841C52.6139 106.348 67.7026 106.348 81.7057 101.841C86.3351 100.372 90.7746 98.3728 94.9333 95.8833C98.3916 93.8042 101.619 91.3709 104.561 88.6235C107.87 85.3478 110.716 81.6456 113.023 77.6172C113.583 77.9242 114.195 78.1292 114.828 78.2223H114.834Z" fill="#B3B3B3"/>
<path d="M116.96 73.8783C116.897 73.8037 116.818 73.7441 116.728 73.7038C116.639 73.6634 116.541 73.6433 116.443 73.6449C115.236 73.6792 114.039 73.4361 112.944 72.9348C112.878 72.9013 112.824 72.8487 112.789 72.7841C112.754 72.7195 112.74 72.6459 112.749 72.5732C112.795 72.2216 112.835 71.8607 112.871 71.4944C112.95 70.7415 113.003 69.9715 113.041 69.1984C113.153 66.7277 113.092 64.2523 112.858 61.79C112.472 57.8816 111.752 54.0124 110.707 50.2237C110.237 48.4961 109.678 46.7933 109.032 45.1223C108.994 45.0243 108.958 44.9294 108.92 44.8337C108.851 44.6603 108.781 44.4853 108.709 44.3095C108.674 44.2216 108.635 44.1314 108.6 44.0411C108.585 44.0038 108.567 43.9634 108.552 43.9284C108.43 43.632 108.305 43.3388 108.175 43.0448C107.546 41.6142 106.856 40.2155 106.106 38.8487C105.997 38.6504 105.888 38.452 105.776 38.2568C103.938 35.0258 101.759 31.9965 99.2741 29.2198C94.2035 23.557 87.9736 19.0236 80.997 15.9198C78.2402 14.7008 75.3838 13.7152 72.4584 12.9736C71.869 12.8227 71.2521 12.6773 70.6305 12.5419C70.0592 12.4167 69.48 12.3008 68.904 12.1958C68.4419 12.1103 67.9789 12.0307 67.5152 11.957C66.8017 11.844 66.0841 11.747 65.3622 11.6661C61.4677 9.76475 57.2968 8.47576 53.0002 7.8457C53.2716 7.9787 57.2494 9.26593 57.8954 11.3994C57.5751 11.4196 57.258 11.4421 56.9386 11.4694C51.7333 8.36759 39.3358 9.2737 39.3358 9.2737C39.3358 9.2737 46.3816 9.39659 51.1211 12.2503C50.641 12.3381 50.1665 12.4338 49.6889 12.5388C49.0673 12.6741 48.4527 12.8196 47.861 12.9705C44.9374 13.712 42.0828 14.6973 39.3279 15.9159C32.3499 19.0189 26.1188 23.5524 21.0476 29.2159C18.5648 31.9943 16.3864 35.0246 14.5487 38.256C14.4369 38.452 14.3252 38.6504 14.2158 38.8479C13.4641 40.2132 12.7753 41.6119 12.1494 43.044C12.0046 43.373 11.8622 43.7067 11.7229 44.0404C11.5758 44.3989 11.4334 44.7583 11.2909 45.1191V45.1238L11.2831 45.1464C10.6377 46.8084 10.0816 48.5029 9.6172 50.2229C8.57207 54.0119 7.85265 57.8814 7.46663 61.79C7.23264 64.2523 7.17165 66.7277 7.28407 69.1984C7.32184 69.9691 7.37771 70.7415 7.45404 71.492C7.48945 71.8607 7.53273 72.2224 7.57601 72.5739C7.58454 72.6467 7.57044 72.7203 7.53557 72.7849C7.5007 72.8495 7.44673 72.9021 7.38086 72.9356C6.27895 73.4398 5.0732 73.683 3.85951 73.6457C3.7384 73.6446 3.61952 73.678 3.51714 73.7419C3.41476 73.8059 3.33322 73.8977 3.2823 74.0063C3.23138 74.1149 3.21325 74.2358 3.23007 74.3543C3.24689 74.4729 3.29796 74.5841 3.37715 74.6747C4.21394 75.5927 5.21719 76.3477 6.33508 76.9007C6.37975 76.9228 6.41699 76.9572 6.44232 76.9998C6.46764 77.0424 6.47997 77.0913 6.47781 77.1406C6.47564 77.1899 6.45909 77.2376 6.43013 77.2778C6.40117 77.3181 6.36106 77.3492 6.31462 77.3674C6.02685 77.476 5.72827 77.5542 5.42386 77.6007C5.32235 77.6105 5.22477 77.6445 5.1395 77.6998C5.05424 77.7551 4.98384 77.83 4.93437 77.9182C4.88491 78.0063 4.85784 78.105 4.85552 78.2058C4.8532 78.3066 4.87568 78.4064 4.92103 78.4967C5.09651 78.8553 9.30796 87.3455 15.3253 92.9634C22.2736 99.3951 30.6577 104.118 39.7977 106.748C46.408 108.694 53.2653 109.698 60.1624 109.731C67.0586 109.698 73.9147 108.694 80.5241 106.748C89.6641 104.118 98.0482 99.3951 104.996 92.9634C111.014 87.3424 115.226 78.8521 115.401 78.4967C115.446 78.4067 115.468 78.3073 115.465 78.207C115.463 78.1067 115.436 78.0084 115.387 77.9207C115.337 77.8329 115.268 77.7582 115.183 77.7029C115.098 77.6475 115.001 77.6133 114.9 77.603C114.595 77.5546 114.296 77.4765 114.006 77.3697C113.96 77.3515 113.92 77.3205 113.891 77.2804C113.862 77.2403 113.845 77.1928 113.843 77.1436C113.841 77.0944 113.853 77.0456 113.877 77.0029C113.902 76.9603 113.939 76.9256 113.984 76.903C115.102 76.3496 116.106 75.5947 116.944 74.677C117.038 74.566 117.091 74.4263 117.093 74.2814C117.095 74.1365 117.047 73.9952 116.956 73.8814L116.96 73.8783ZM114.47 75.1733C113.693 75.7155 112.819 76.1071 111.895 76.3275C111.782 76.3542 111.678 76.4111 111.594 76.4919C111.511 76.5728 111.452 76.6746 111.423 76.7864C111.395 76.8981 111.398 77.0154 111.433 77.1252C111.468 77.2351 111.533 77.3332 111.621 77.4086C112.173 77.8818 112.805 78.2556 113.487 78.513C113.538 78.5321 113.584 78.5616 113.623 78.5996C113.661 78.6376 113.691 78.6834 113.71 78.7337C113.729 78.784 113.737 78.8378 113.734 78.8915C113.731 78.9452 113.716 78.9975 113.69 79.045C112.342 81.5394 108.733 87.7561 104.131 92.0541C88.9123 106.273 70.0513 108.449 60.1648 108.482C50.2759 108.449 31.4141 106.273 16.1964 92.0541C11.5986 87.7577 7.98598 81.5394 6.63724 79.045C6.6114 78.9977 6.59608 78.9455 6.59233 78.8919C6.58857 78.8382 6.59646 78.7844 6.61546 78.734C6.63446 78.6837 6.66414 78.6379 6.7025 78.5998C6.74087 78.5616 6.78703 78.5321 6.8379 78.513C7.5217 78.2563 8.15435 77.8825 8.70677 77.4086C8.79485 77.3332 8.86002 77.2351 8.89503 77.1252C8.93004 77.0154 8.93352 76.8981 8.90507 76.7864C8.87613 76.6746 8.81685 76.5728 8.73364 76.4919C8.65044 76.4111 8.54646 76.3542 8.43293 76.3275C7.50858 76.1071 6.63491 75.7154 5.85822 75.1733C5.81602 75.1444 5.78334 75.1039 5.76423 75.0568C5.74512 75.0097 5.74043 74.958 5.75074 74.9083C5.76105 74.8586 5.7859 74.813 5.82222 74.7771C5.85853 74.7413 5.90471 74.7167 5.95501 74.7066C6.92966 74.548 7.85659 74.1777 8.669 73.6224C8.76048 73.5555 8.83192 73.4653 8.8757 73.3615C8.91949 73.2577 8.93399 73.1441 8.91766 73.0328C8.83897 72.5086 8.77523 71.9486 8.717 71.3691C8.64618 70.6388 8.59031 69.8914 8.55175 69.1385C8.44232 66.7262 8.50253 64.3092 8.73195 61.9051C9.11087 58.0681 9.81659 54.2694 10.8416 50.5496C11.3107 48.8318 11.8709 47.1396 12.5201 45.48L12.5279 45.4653C12.5326 45.4505 12.5381 45.438 12.5429 45.4225C12.5476 45.4069 12.5429 45.4147 12.5476 45.41C12.5578 45.3797 12.5728 45.347 12.5854 45.3144C17.6073 32.7509 27.3852 22.6165 39.8433 17.0624C41.1202 16.4977 42.4217 15.9833 43.7479 15.5193C45.2052 15.0101 46.6827 14.5652 48.1804 14.1846C48.7564 14.0368 49.3608 13.8937 49.9651 13.763C50.7546 13.5899 51.5494 13.4359 52.3494 13.301L52.672 13.2481C52.7735 13.2303 52.8774 13.2131 52.9789 13.1976C52.983 13.1964 52.9874 13.1964 52.9915 13.1976C53.1969 13.1649 53.403 13.1346 53.6084 13.105C55.7783 12.7895 57.9658 12.6077 60.1585 12.5606C62.3449 12.6088 64.5261 12.7907 66.6897 13.105C66.7306 13.1097 66.7684 13.1151 66.8117 13.1229C67.1619 13.1735 67.5097 13.231 67.8606 13.2886L67.9519 13.3034C68.1523 13.336 68.353 13.3713 68.5539 13.4091H68.5586C69.1574 13.5196 69.7547 13.6378 70.3488 13.7677C70.9555 13.8984 71.5551 14.0415 72.1311 14.1893C73.6262 14.568 75.1095 15.0153 76.5637 15.5239C77.8888 15.9859 79.1942 16.5024 80.4682 17.067C92.927 22.6211 102.706 32.7554 107.729 45.319L107.836 45.5897C107.836 45.5897 107.836 45.5897 107.836 45.5944C108.469 47.2176 109.015 48.873 109.471 50.5535C110.498 54.273 111.204 58.0717 111.583 61.909C111.812 64.3131 111.872 66.73 111.763 69.1424C111.725 69.8929 111.669 70.6458 111.595 71.373C111.539 71.9525 111.473 72.5125 111.397 73.0367C111.381 73.148 111.395 73.2616 111.439 73.3654C111.483 73.4692 111.554 73.5594 111.646 73.6263C112.458 74.1816 113.385 74.5519 114.36 74.7105C114.41 74.7196 114.456 74.743 114.493 74.7778C114.53 74.8125 114.556 74.8571 114.567 74.9061C114.579 74.9552 114.576 75.0065 114.558 75.0537C114.541 75.1011 114.51 75.1423 114.469 75.1725L114.47 75.1733Z" fill="black"/>
<path d="M117.264 73.644C117.166 73.524 117.042 73.4277 116.901 73.3624C116.759 73.2972 116.605 73.2648 116.449 73.2676C115.313 73.2974 114.184 73.078 113.144 72.6251C113.14 72.6237 113.136 72.6209 113.134 72.6173C113.132 72.6136 113.131 72.6092 113.131 72.6049C113.177 72.2611 113.218 71.8971 113.253 71.5308C113.327 70.7958 113.386 70.0173 113.423 69.2146C113.537 66.7266 113.476 64.2338 113.241 61.7541C112.853 57.8244 112.129 53.9341 111.078 50.1248C110.611 48.4067 110.057 46.7132 109.417 45.0506L109.278 44.6944C109.21 44.5209 109.139 44.3428 109.067 44.167L109.026 44.0667C109.003 44.0115 108.981 43.9562 108.958 43.8964L108.91 43.7836C108.785 43.4849 108.661 43.1886 108.529 42.893C107.899 41.4604 107.201 40.037 106.444 38.6674C106.335 38.4667 106.226 38.2684 106.112 38.07C104.26 34.8167 102.065 31.7663 99.5638 28.97C94.4574 23.2655 88.1829 18.6987 81.156 15.572C78.3802 14.3433 75.5034 13.3509 72.5569 12.6056C71.9651 12.45 71.3458 12.3069 70.7163 12.1693C70.1576 12.0464 69.5714 11.9305 68.9773 11.8208C68.4768 11.7283 68.0204 11.6505 67.5782 11.582L67.5506 11.5774C66.8495 11.4669 66.1539 11.3713 65.4788 11.2966H65.4709C61.6579 9.42511 57.5728 8.15318 53.363 7.5267C53.2237 7.50414 53.1316 7.48936 53.0939 7.48158L49.9274 6.71625C49.9222 6.71522 49.9169 6.71605 49.9123 6.7186C49.9077 6.72114 49.9042 6.72523 49.9023 6.73012C49.9005 6.73502 49.9006 6.74039 49.9024 6.74526C49.9043 6.75014 49.9078 6.75419 49.9125 6.7567L52.835 8.1847C52.8704 8.20258 52.9546 8.23525 53.0836 8.28503C55.5922 9.24403 56.7395 10.1774 57.24 10.9124C57.1408 11.015 57.1613 10.9979 57.0574 11.1006C51.8144 8.05636 40.6208 9.18336 39.9173 9.23392C39.9071 9.23392 39.1785 9.25647 39.1785 9.26658L50.0376 12.0821L49.6134 12.1724C49.0012 12.3054 48.382 12.4531 47.7729 12.6064C44.8274 13.3529 41.9512 14.345 39.1753 15.572C32.1468 18.6976 25.8704 23.2636 20.762 28.9677C18.263 31.7654 16.0691 34.8156 14.2167 38.0677C14.1049 38.266 13.9908 38.4644 13.8814 38.665C13.1221 40.0425 12.4241 41.465 11.7993 42.8907C11.6545 43.222 11.5097 43.558 11.3705 43.8948C11.221 44.2565 11.0785 44.6174 10.9361 44.979L10.8448 45.2124L10.8495 45.217C10.2336 46.8254 9.70069 48.4637 9.25294 50.1256C8.20381 53.9349 7.48151 57.8249 7.0937 61.7541C6.85841 64.2338 6.79741 66.7266 6.91114 69.2146C6.95206 70.0227 7.00793 70.8005 7.08111 71.5261C7.11652 71.8901 7.1598 72.2464 7.20072 72.5878C7.20178 72.5922 7.20135 72.5967 7.1995 72.6008C7.19765 72.6049 7.19448 72.6082 7.19049 72.6104C6.16051 73.0744 5.0367 73.2992 3.90521 73.2676C3.6842 73.2608 3.46666 73.3231 3.28357 73.4457C3.16878 73.5258 3.07205 73.6285 2.99948 73.7474C2.92692 73.8663 2.88009 73.9988 2.86198 74.1366C2.84386 74.2743 2.85484 74.4142 2.89422 74.5475C2.9336 74.6808 3.00053 74.8046 3.09078 74.911C3.8934 75.8012 4.84898 76.544 5.91336 77.1051C5.7409 77.1562 5.56533 77.1965 5.38772 77.2257C5.2257 77.2424 5.07016 77.2975 4.93433 77.3864C4.7985 77.4753 4.68641 77.5953 4.60759 77.7362C4.52878 77.8771 4.48557 78.0348 4.48166 78.1957C4.47774 78.3567 4.51322 78.5162 4.58509 78.6607C4.62601 78.7486 8.93897 87.5118 15.0704 93.2409C22.0612 99.7122 30.4964 104.464 39.6923 107.111C46.3387 109.069 53.2336 110.079 60.1688 110.112C67.1022 110.079 73.9953 109.069 80.6398 107.111C89.8364 104.464 98.2726 99.7118 105.265 93.2409C111.396 87.5118 115.708 78.7486 115.75 78.6607C115.82 78.517 115.854 78.3589 115.85 78.1995C115.846 78.0402 115.803 77.884 115.726 77.7442C115.648 77.6043 115.538 77.4848 115.405 77.3954C115.271 77.306 115.118 77.2495 114.958 77.2304H114.953C114.772 77.2016 114.593 77.1605 114.417 77.1075C115.479 76.5439 116.435 75.8026 117.241 74.9165C117.391 74.7392 117.475 74.5165 117.479 74.2854C117.483 74.0543 117.407 73.8288 117.263 73.6464L117.264 73.644ZM12.1943 45.2793C12.1919 45.283 12.1903 45.2873 12.1896 45.2917V45.287C12.1909 45.2842 12.1924 45.2816 12.1943 45.2793Z" fill="black"/>
<path d="M34.5523 138.438C34.5421 137.628 31.437 139.026 31.4425 138.21C31.4382 133.894 31.7273 129.583 32.3081 125.306C32.3514 124.989 32.3994 124.673 32.4474 124.36C32.61 123.313 32.786 122.301 32.9754 121.321C34.0212 115.921 25.8233 107.197 28.7687 104.586C29.2888 104.124 31.2616 103.958 32.5898 103.928C33.6183 103.67 33.8441 103.301 35.2401 103.018C38.3145 102.395 41.6989 101.665 42.8336 100.649C47.2866 96.6562 52.9916 94.9396 59.9257 94.907H60.0886C67.0227 94.9396 72.7245 96.6585 77.1775 100.649C78.734 102.042 82.6362 102.126 86.0938 102.696C88.2467 103.053 82.1436 103.193 91.3597 104.767C91.794 104.845 91.9105 105.442 92.0781 105.856C93.5937 109.567 86.7493 119.104 87.5637 124.358C88.2435 128.956 88.5797 133.597 88.5693 138.243C88.5741 139.059 87.0381 138.69 87.0286 139.498" fill="white"/>
<path d="M53.0548 137.278C54.4768 137.278 55.6295 136.139 55.6295 134.733C55.6295 133.328 54.4768 132.188 53.0548 132.188C51.6328 132.188 50.4801 133.328 50.4801 134.733C50.4801 136.139 51.6328 137.278 53.0548 137.278Z" fill="#0D1338"/>
<path d="M53.0835 127.15C54.5054 127.15 55.6582 126.01 55.6582 124.605C55.6582 123.199 54.5054 122.06 53.0835 122.06C51.6615 122.06 50.5088 123.199 50.5088 124.605C50.5088 126.01 51.6615 127.15 53.0835 127.15Z" fill="#0D1338"/>
<path d="M66.9271 137.278C68.3491 137.278 69.5018 136.139 69.5018 134.733C69.5018 133.328 68.3491 132.188 66.9271 132.188C65.5051 132.188 64.3524 133.328 64.3524 134.733C64.3524 136.139 65.5051 137.278 66.9271 137.278Z" fill="#0D1338"/>
<path d="M66.9532 127.15C68.3752 127.15 69.5279 126.01 69.5279 124.605C69.5279 123.199 68.3752 122.06 66.9532 122.06C65.5312 122.06 64.3785 123.199 64.3785 124.605C64.3785 126.01 65.5312 127.15 66.9532 127.15Z" fill="#0D1338"/>
<path d="M56.977 105.326C55.6566 106.732 54.3165 108.167 53.0213 109.555C51.1729 111.538 49.426 113.407 47.7224 115.209C44.7375 118.344 42.9711 122.421 42.7358 126.72C42.4085 133.164 42.436 141.102 42.5682 147.905C42.1315 147.85 41.7097 147.79 41.2989 147.731C41.1691 140.948 41.1416 133.071 41.4713 126.654C41.7221 122.06 43.6089 117.703 46.7977 114.352C48.499 112.556 50.2459 110.686 52.0912 108.706C53.3864 107.318 54.7265 105.882 56.0493 104.474C56.164 104.353 56.3231 104.281 56.4914 104.275C56.6597 104.269 56.8235 104.33 56.9467 104.443C57.0699 104.556 57.1425 104.714 57.1485 104.88C57.1545 105.046 57.0934 105.208 56.9786 105.33L56.977 105.326Z" fill="#0D1338"/>
<path d="M32.9704 125.149C32.5769 124.994 32.1732 124.838 31.7593 124.67L32.9704 125.149ZM88.2582 124.678C87.8443 124.841 87.4383 124.997 87.0472 125.145L88.2582 124.678Z" fill="black"/>
<path d="M31.648 125.443C31.7519 124.078 33.5648 115.859 34.4281 116.476C34.5121 116.508 34.5806 116.571 34.6194 116.651C34.6582 116.732 34.6643 116.823 34.6366 116.908C34.2089 118.327 33.8598 119.768 33.5908 121.225C33.3012 122.678 33.1234 124.161 32.8976 125.622C32.861 125.774 32.7679 125.908 32.6365 125.996C32.5052 126.084 32.3451 126.121 32.188 126.098C32.0308 126.076 31.888 125.995 31.7876 125.874C31.6872 125.752 31.6365 125.598 31.6456 125.441L31.648 125.443Z" fill="#0D1338"/>
<path d="M88.3533 125.478C88.1479 123.086 86.4467 115.859 85.5834 116.476C85.4994 116.508 85.4309 116.571 85.3921 116.651C85.3534 116.732 85.3472 116.823 85.3749 116.908C85.8026 118.327 86.1517 119.768 86.4207 121.225C86.7103 122.678 86.885 124.161 87.1084 125.624C87.1413 125.776 87.2302 125.91 87.3578 126C87.4854 126.09 87.6425 126.13 87.7983 126.111C87.9541 126.093 88.0973 126.018 88.2 125.901C88.3026 125.784 88.3573 125.633 88.3533 125.478Z" fill="#0D1338"/>
<path d="M116.466 74.2692C116.466 74.2692 116.443 74.2964 116.42 74.3221C115.246 75.594 113.724 76.5029 112.038 76.9393C112.831 77.6173 113.8 78.0617 114.836 78.2219C112.997 81.8109 110.816 85.2182 108.322 88.3975C107.42 89.5375 106.456 90.628 105.434 91.6642C105.15 91.953 104.862 92.2348 104.569 92.5096C103.901 93.1319 103.226 93.7326 102.545 94.3117C100.273 96.2402 97.8523 97.9914 95.3056 99.5493C95.1836 99.6271 95.064 99.6971 94.9452 99.7679C90.7859 102.259 86.3456 104.259 81.7152 105.728C74.7494 107.932 67.484 109.072 60.1701 109.108C52.8549 109.072 45.5882 107.932 38.621 105.728C33.9913 104.259 29.5518 102.259 25.3934 99.7679C25.3021 99.715 25.2108 99.6598 25.1219 99.6045C22.5428 98.0343 20.0927 96.2659 17.7943 94.3156C17.1124 93.7359 16.4362 93.1345 15.7657 92.5112C15.4588 92.2203 15.1535 91.924 14.8569 91.623C14.326 91.0858 13.8132 90.5328 13.3185 89.964C12.9376 89.53 12.5678 89.0892 12.209 88.6418C9.65693 85.4238 7.42666 81.9688 5.5495 78.3253C5.51646 78.2576 5.49836 78.2226 5.49836 78.2226C5.55808 78.2167 5.61744 78.2076 5.67619 78.1954C6.60904 78.0167 7.48128 77.6085 8.21235 77.0085C8.23989 76.986 8.26822 76.9634 8.29104 76.9409C6.60606 76.5047 5.08487 75.5957 3.9112 74.3236C3.88811 74.2988 3.8729 74.2811 3.86555 74.2708H3.93165C5.26408 74.3047 6.58489 74.018 7.78034 73.4354C7.87162 73.388 7.95267 73.3398 8.02428 73.2978C8.11652 73.2442 8.20559 73.1856 8.29104 73.122C8.28317 73.0714 8.27845 73.0216 8.27058 72.9664C8.19976 72.4593 8.14074 71.9475 8.08802 71.4303C8.01458 70.6852 7.95949 69.9308 7.92277 69.167C7.80995 66.7257 7.87016 64.2795 8.10297 61.8465C8.48329 57.9738 9.19616 54.1401 10.2339 50.3868C12.6841 41.4989 17.4718 33.4108 24.1101 26.9449C30.7483 20.479 39.0005 15.8658 48.0275 13.5745C48.624 13.419 49.2283 13.2813 49.8327 13.1475C50.7213 12.9541 51.6192 12.7835 52.5262 12.6358C50.4464 10.1865 44.097 9.80233 43.9601 9.62422C45.2419 9.60399 51.9502 9.94544 56.9005 12.0983C56.9643 12.1255 57.0304 12.1582 57.0933 12.1909C57.2861 12.1535 57.7307 12.0727 58.1619 12.0073H58.18C58.4791 11.9541 58.7826 11.928 59.0865 11.9295C58.9885 11.3172 58.7194 10.7441 58.3095 10.2748C57.8997 9.80548 57.3653 9.45867 56.7668 9.27344C56.8989 9.30377 63.7992 10.8547 64.7773 12.2243C66.6995 12.4293 68.6089 12.7375 70.4972 13.1475C71.1039 13.2805 71.7059 13.4213 72.3071 13.5745C81.3337 15.8662 89.5854 20.4795 96.2232 26.9454C102.861 33.4113 107.648 41.4992 110.098 50.3868C111.135 54.1406 111.847 57.9745 112.229 61.8473C112.461 64.2803 112.522 66.7264 112.409 69.1678C112.37 69.9305 112.315 70.6849 112.241 71.4311C112.189 71.9496 112.129 72.4616 112.061 72.9672C112.053 73.0201 112.046 73.0699 112.038 73.1228C112.092 73.1632 112.165 73.213 112.259 73.2705C112.325 73.311 112.402 73.3561 112.487 73.4035C112.95 73.6502 113.441 73.8406 113.949 73.9705C114.75 74.1738 115.573 74.2749 116.4 74.2715L116.466 74.2692Z" fill="white"/>
<path opacity="0.49" d="M115.854 74.4428C115.854 74.4428 115.831 74.4677 115.81 74.4933C114.315 75.5761 112.621 76.3602 110.822 76.8018C111.885 77.5669 113.087 78.1232 114.363 78.4405C112.356 81.8337 110.127 85.0938 107.69 88.2001C106.84 89.2695 102.724 93.1335 102.077 93.6834C99.8373 95.5828 94.658 98.4691 94.5439 98.5344C90.6813 100.83 86.6848 102.897 82.5753 104.726C80.7953 105.541 68.1822 109.548 63.5434 108.148C84.0577 101.954 89.326 79.1608 89.326 56.8588C89.326 52.7257 96.2506 54.5075 95.2875 50.67C97.324 45.7964 91.6363 31.2994 86.335 25.9087C80.7481 20.2247 67.3945 13.4844 66.4754 12.8972C68.1232 13.0932 77.6996 16.1444 80.2791 17.2839C93.0197 22.915 104.825 36.2383 108.972 51.5232C109.96 55.0961 110.638 58.7456 111 62.4323C111.223 64.7484 111.28 67.0771 111.172 69.4012C111.135 70.1292 111.084 70.8463 111.015 71.5572C110.967 72.0488 110.908 72.5388 110.843 73.0202C110.835 73.0708 110.83 73.1182 110.822 73.1657C110.873 73.203 110.942 73.2512 111.033 73.3064C111.094 73.3438 111.168 73.3842 111.249 73.4348C111.69 73.6686 112.158 73.8498 112.642 73.9745C113.674 74.2301 114.728 74.3864 115.79 74.4412H115.854V74.4428Z" fill="#C5EFFF"/>
<path d="M66.0967 73.1719C65.8984 74.5719 64.083 76.8562 61.6901 76.5248C59.2972 76.1935 57.2835 73.9651 57.4803 72.562C57.677 71.1589 59.4805 71.3752 62.0198 71.3798C64.4088 71.3798 66.2982 71.7687 66.0975 73.1742L66.0967 73.1719Z" fill="black"/>
<path d="M70.2401 80.1788C69.9913 80.2819 69.7524 80.4072 69.5264 80.553C69.5705 81.2743 69.5407 81.9982 69.4375 82.7136C68.7293 87.6696 64.7949 91.2233 60.633 90.647C56.4711 90.0706 53.9302 85.9741 54.3111 81.2864C53.9832 80.9426 53.6082 80.6459 53.1968 80.4052C52.4738 80.066 51.9101 79.4653 51.6224 78.7271C51.3346 77.9888 51.3447 77.1696 51.6506 76.4385C51.7625 76.0817 51.937 75.7471 52.166 75.45C52.4021 75.121 52.7806 75.3597 52.6791 75.7362C52.6789 75.746 52.6762 75.7557 52.6712 75.7642C51.996 78.3386 53.0167 79.4127 54.5653 80.5086C55.7466 81.1717 57.1114 81.4444 58.4605 81.2868C59.8097 81.1293 61.0726 80.5498 62.0651 79.6329C62.9528 80.2856 63.9972 80.6987 65.0954 80.8316C66.1937 80.9644 67.308 80.8124 68.3288 80.3904C70.2866 79.3964 71.7337 78.5587 71.3599 75.6459V75.618C71.3087 75.2338 71.7156 75.0432 71.9107 75.3994C72.0984 75.7249 72.228 76.0798 72.2939 76.4486C72.501 77.2115 72.4043 78.0238 72.0237 78.7183C71.6431 79.4128 71.0076 79.9366 70.248 80.182L70.2401 80.1788Z" fill="black"/>
<path d="M47.0718 71.589C46.2416 77.4363 43.1373 85.5571 30.8327 83.055C23.3509 81.5345 21.3349 74.4427 23.0102 68.7735C25.4755 60.4341 31.81 57.9351 37.7251 58.758C43.6401 59.5809 47.9043 65.7417 47.0718 71.589Z" fill="black"/>
<path d="M35.1595 71.5734C36.2868 71.5734 37.2007 70.6702 37.2007 69.5559C37.2007 68.4416 36.2868 67.5383 35.1595 67.5383C34.0322 67.5383 33.1183 68.4416 33.1183 69.5559C33.1183 70.6702 34.0322 71.5734 35.1595 71.5734Z" fill="white"/>
<path d="M39.0903 77.6719C40.1559 77.6719 41.0198 76.818 41.0198 75.7648C41.0198 74.7115 40.1559 73.8577 39.0903 73.8577C38.0247 73.8577 37.1608 74.7115 37.1608 75.7648C37.1608 76.818 38.0247 77.6719 39.0903 77.6719Z" fill="white"/>
<path d="M41.8608 52.8657C41.5406 53.7594 40.0581 52.2085 33.1169 53.488C28.4939 54.3435 25.5887 57.8116 24.5398 56.5322C24.0826 55.9753 27.7235 53.1372 32.3064 52.1455C36.6406 51.2067 42.2008 51.9223 41.86 52.8657H41.8608Z" fill="black"/>
<path d="M67.2436 85.2882C67.1955 85.8325 66.9989 86.3537 66.6747 86.7963C65.9358 88.0609 62.117 90.0987 60.8705 89.4539C59.6115 88.8037 59.3495 87.343 59.7941 85.9905C60.092 84.9263 60.6362 83.9451 61.3836 83.1244C61.723 82.7 62.1645 82.3663 62.6678 82.1537C63.1711 81.9411 63.7203 81.8563 64.2652 81.9072C64.6854 81.9358 65.0957 82.046 65.4728 82.2314C65.85 82.4168 66.1864 82.6738 66.463 82.9878C66.7396 83.3018 66.9509 83.6665 67.0848 84.0612C67.2187 84.4559 67.2727 84.8729 67.2436 85.2882Z" fill="#CE111F"/>
<path d="M76.2475 66.6411C75.3945 72.63 76.131 81.4966 88.9644 82.4712C96.7688 83.0607 100.783 76.6378 100.753 70.5891C100.707 61.6851 95.1848 57.4547 89.1195 56.6108C83.0541 55.767 77.0981 60.6483 76.2443 66.6442L76.2475 66.6411Z" fill="black"/>
<path d="M85.3394 69.585C86.495 69.585 87.4318 68.659 87.4318 67.5168C87.4318 66.3747 86.495 65.4487 85.3394 65.4487C84.1839 65.4487 83.2471 66.3747 83.2471 67.5168C83.2471 68.659 84.1839 69.585 85.3394 69.585Z" fill="white"/>
<path d="M82.9166 74.9345C84.0075 74.9345 84.8917 74.0604 84.8917 72.9823C84.8917 71.9041 84.0075 71.03 82.9166 71.03C81.8258 71.03 80.9415 71.9041 80.9415 72.9823C80.9415 74.0604 81.8258 74.9345 82.9166 74.9345Z" fill="white"/>
<path d="M97.1493 54.1327C96.5473 54.8731 95.6691 52.9209 88.6894 51.8693C84.0404 51.1693 80.1407 53.4902 79.5749 51.9393C79.3309 51.2619 83.7155 49.7709 88.3723 50.3355C92.7773 50.8652 97.7859 53.3549 97.1493 54.1327Z" fill="black"/>
<path d="M58.5119 98.7165C59.5787 99.2199 60.7453 99.4827 61.9274 99.4858C63.1095 99.4889 64.2775 99.2322 65.3469 98.7344C65.377 98.7226 65.4104 98.7219 65.441 98.7321C65.4717 98.7424 65.4977 98.7631 65.5144 98.7905C65.5311 98.8179 65.5374 98.8503 65.5322 98.8819C65.5271 98.9134 65.5107 98.9422 65.4862 98.963C64.4389 99.6755 63.1969 100.056 61.9255 100.053C60.6542 100.05 59.4138 99.665 58.3695 98.9482C58.3556 98.9372 58.3442 98.9235 58.3357 98.908C58.3273 98.8924 58.3221 98.8754 58.3204 98.8579C58.3187 98.8403 58.3206 98.8227 58.3259 98.8059C58.3312 98.789 58.3399 98.7734 58.3514 98.76C58.3702 98.738 58.3956 98.7226 58.4239 98.7159C58.4522 98.7092 58.4819 98.7116 58.5088 98.7227L58.5119 98.7165Z" fill="#0D1338"/>
<path d="M77.7903 112.73H41.4177V143.79H77.7903V112.73Z" fill="#B18964"/>
<path d="M77.7904 144.415H41.4187C41.2517 144.415 41.0916 144.349 40.9736 144.233C40.8555 144.116 40.7892 143.958 40.7892 143.793V112.732C40.7892 112.567 40.8555 112.409 40.9736 112.292C41.0916 112.175 41.2517 112.11 41.4187 112.11H77.7912C77.9582 112.11 78.1183 112.175 78.2364 112.292C78.3544 112.409 78.4207 112.567 78.4207 112.732V143.792C78.4208 143.874 78.4046 143.955 78.373 144.03C78.3413 144.106 78.2949 144.175 78.2364 144.233C78.1778 144.29 78.1083 144.336 78.0318 144.368C77.9552 144.399 77.8732 144.415 77.7904 144.415ZM42.0506 143.163H77.1562V113.354H42.0506V143.163Z" fill="black"/>
<path d="M37.6946 149.64L41.4166 143.79V112.73L37.6946 122.289V149.64Z" fill="#B18964"/>
<path d="M37.6909 150.264C37.6314 150.265 37.5723 150.256 37.5154 150.239C37.3835 150.202 37.2675 150.123 37.1851 150.014C37.1026 149.905 37.0581 149.773 37.0582 149.637V122.286C37.0586 122.209 37.0733 122.133 37.1015 122.061L40.8235 112.502C40.873 112.361 40.9717 112.243 41.1016 112.169C41.2316 112.094 41.3843 112.068 41.5321 112.095C41.6799 112.122 41.8131 112.2 41.9075 112.316C42.002 112.431 42.0515 112.576 42.0471 112.725V143.785C42.0471 143.903 42.0136 144.018 41.9503 144.118L38.2283 149.968C38.1717 150.058 38.0928 150.132 37.999 150.184C37.9052 150.235 37.7997 150.262 37.6924 150.262L37.6909 150.264ZM38.3204 122.404V147.467L40.7755 143.607V116.097L38.3204 122.404Z" fill="#0D1338"/>
<path d="M81.5121 149.64L77.7901 143.79V112.73L81.5121 122.289V149.64Z" fill="#B18964"/>
<path d="M81.5113 150.264C81.4041 150.265 81.2985 150.238 81.2048 150.186C81.111 150.135 81.0321 150.061 80.9755 149.97L77.2534 144.121C77.1902 144.021 77.1566 143.905 77.1567 143.787V112.727C77.1523 112.579 77.2017 112.434 77.2962 112.318C77.3906 112.203 77.5239 112.124 77.6717 112.097C77.8195 112.07 77.9722 112.096 78.1021 112.171C78.2321 112.246 78.3308 112.364 78.3803 112.504L82.1023 122.063C82.1305 122.135 82.1452 122.211 82.1456 122.289V149.64C82.1452 149.776 82.1005 149.907 82.0181 150.016C81.9357 150.124 81.82 150.204 81.6884 150.242C81.6314 150.259 81.5723 150.267 81.5129 150.267L81.5113 150.264ZM78.4212 143.607L80.8763 147.466V122.404L78.4251 116.094L78.4212 143.607Z" fill="black"/>
<path d="M56.7754 132.276L56.1254 132.62C54.7659 133.336 53.1742 133.489 51.7006 133.045C50.227 132.601 48.9921 131.597 48.2675 130.253L34.3112 104.372C33.5874 103.028 33.4331 101.455 33.8821 99.999C34.3311 98.5426 35.3467 97.322 36.7057 96.6054L37.3557 96.2616C38.7153 95.5456 40.3069 95.3927 41.7805 95.8365C43.2542 96.2804 44.4891 97.2846 45.2136 98.6284L58.8497 123.916L59.1699 124.508C59.5287 125.174 59.7514 125.902 59.8253 126.653C59.8992 127.403 59.8227 128.161 59.6004 128.882C59.378 129.604 59.0141 130.274 58.5294 130.857C58.0447 131.439 57.4487 131.921 56.7754 132.276Z" fill="#CC8B1F"/>
<g opacity="0.4">
<path d="M58.6299 129.107C58.5589 128.347 58.3344 127.608 57.9697 126.936L44.0134 101.055C43.2888 99.7114 42.0539 98.7072 40.5803 98.2633C39.1067 97.8195 37.515 97.9724 36.1555 98.6884L35.5055 99.0322C34.8399 99.3826 34.2499 99.8581 33.7688 100.432C33.9495 99.623 34.3058 98.8622 34.8129 98.2023C35.3201 97.5425 35.9661 96.9992 36.7063 96.6102L37.3563 96.2664C38.7157 95.5503 40.3073 95.3973 41.7809 95.841C43.2546 96.2847 44.4895 97.2888 45.2142 98.6324L58.8502 123.92C59.2278 124.742 59.4044 125.64 59.3655 126.541C59.3267 127.443 59.0736 128.323 58.6267 129.11L58.6299 129.107Z" fill="white"/>
</g>
<path d="M53.4065 133.919C52.2368 133.92 51.0888 133.607 50.0853 133.013C49.0818 132.419 48.2606 131.567 47.7094 130.547L33.7531 104.665C33.3551 103.927 33.1081 103.119 33.0262 102.286C32.9443 101.454 33.0291 100.613 33.2757 99.8134C33.5223 99.0134 33.9259 98.2693 34.4635 97.6234C35.0011 96.9776 35.6621 96.4427 36.4088 96.0494L37.0588 95.7056C37.8055 95.3123 38.6233 95.0681 39.4654 94.9872C40.3076 94.9062 41.1576 94.99 41.967 95.2338C42.7764 95.4776 43.5293 95.8765 44.1827 96.4078C44.8361 96.9392 45.3773 97.5926 45.7752 98.3306L59.7307 124.213C60.1287 124.951 60.3757 125.759 60.4576 126.592C60.5395 127.424 60.4547 128.264 60.2081 129.064C59.9615 129.864 59.5579 130.608 59.0203 131.254C58.4827 131.9 57.8217 132.435 57.075 132.828L56.425 133.172C55.4963 133.663 54.4595 133.919 53.4065 133.919ZM40.082 96.2096C39.2347 96.2102 38.4007 96.4181 37.6545 96.8147L37.0045 97.1585C35.7931 97.797 34.8879 98.885 34.488 100.183C34.0881 101.481 34.2262 102.883 34.872 104.081L48.8284 129.961C49.4753 131.158 50.576 132.052 51.889 132.447C53.202 132.842 54.6199 132.706 55.8317 132.069L56.4817 131.725C57.6931 131.087 58.5983 129.999 58.9982 128.701C59.3981 127.403 59.26 126.001 58.6141 124.803L44.6578 98.9225C44.2152 98.1034 43.5558 97.4186 42.75 96.9412C41.9442 96.4638 41.0223 96.2117 40.0828 96.212L40.082 96.2096Z" fill="black"/>
<path d="M40.297 99.9802L38.136 103.406C37.7992 103.94 37.9641 104.643 38.5044 104.976C39.0447 105.309 39.7557 105.146 40.0925 104.612L42.2535 101.186C42.5903 100.652 42.4254 99.949 41.8851 99.616C41.3448 99.2831 40.6338 99.4461 40.297 99.9802Z" fill="#EAD67D"/>
<path d="M42.7303 104.489L40.5693 107.915C40.2325 108.449 40.3975 109.152 40.9377 109.485C41.478 109.818 42.1891 109.655 42.5259 109.121L44.6868 105.694C45.0237 105.16 44.8587 104.457 44.3184 104.125C43.7782 103.792 43.0671 103.955 42.7303 104.489Z" fill="#EAD67D"/>
<path d="M45.161 108.998L43.0001 112.424C42.6632 112.958 42.8282 113.661 43.3685 113.993C43.9088 114.326 44.6198 114.163 44.9566 113.629L47.1176 110.203C47.4544 109.669 47.2894 108.966 46.7492 108.633C46.2089 108.3 45.4978 108.463 45.161 108.998Z" fill="#EAD67D"/>
<path d="M47.5918 113.507L45.4308 116.933C45.094 117.467 45.2589 118.17 45.7992 118.503C46.3395 118.836 47.0505 118.673 47.3873 118.139L49.5483 114.713C49.8851 114.179 49.7202 113.476 49.1799 113.143C48.6396 112.81 47.9286 112.973 47.5918 113.507Z" fill="#EAD67D"/>
<path d="M67.6151 126.878C63.2557 126.944 63.1723 121.799 63.5885 118.253C62.6317 115.31 63.1164 111.47 63.4312 110.108C61.8141 104.778 64.8051 103.357 66.7873 103.29C68.7702 103.222 71.2631 104.296 70.5982 109.739C71.0617 112.465 71.1385 115.241 70.8264 117.987C71.4055 120.547 72.2231 126.741 67.6151 126.876V126.878Z" fill="#9C3202"/>
<g opacity="0.35">
<path d="M63.8956 111.487C65.2029 111.774 66.4722 112.21 67.6782 112.785C68.0692 112.996 68.5045 113.115 68.9499 113.132C69.3953 113.149 69.8386 113.064 70.245 112.883C70.5621 112.793 70.8454 112.613 71.0591 112.365C71.2728 112.116 71.4073 111.811 71.4458 111.487C71.3034 115.68 70.075 117.224 67.7773 116.582C66.0191 116 64.5499 114.78 63.6666 113.169C63.5556 112.893 63.5183 112.592 63.5583 112.298C63.5982 112.003 63.7141 111.723 63.8948 111.485L63.8956 111.487Z" fill="#0D1338"/>
</g>
<g opacity="0.4">
<path d="M70.6705 108.934C70.4092 105.739 68.5529 104.956 66.9508 104.956C66.8926 104.956 66.8367 104.956 66.7809 104.956C65.854 104.941 64.9548 105.268 64.2587 105.873C63.5625 106.478 63.1194 107.318 63.0156 108.228C62.5639 104.431 65.0544 103.347 66.7809 103.287C66.8391 103.287 66.895 103.287 66.9532 103.287C68.8016 103.287 70.9899 104.333 70.6705 108.93V108.934Z" fill="white"/>
</g>
<path d="M67.531 127.505C66.9329 127.53 66.3365 127.426 65.7831 127.2C65.2298 126.975 64.7328 126.632 64.3268 126.198C62.9835 124.727 62.5169 122.075 62.9402 118.316C62.2665 115.634 62.2092 112.838 62.7726 110.132C62.0644 107.703 62.2014 105.788 63.1811 104.438C63.6034 103.895 64.1445 103.453 64.764 103.146C65.3835 102.838 66.0652 102.674 66.7582 102.664C67.3632 102.617 67.9711 102.704 68.538 102.918C69.1048 103.132 69.6164 103.468 70.0357 103.901C71.1373 105.09 71.541 107.046 71.2317 109.716C71.6832 112.441 71.76 115.215 71.4599 117.96C71.8487 119.73 72.4931 123.822 70.7517 126.041C70.3801 126.506 69.905 126.88 69.3633 127.134C68.8217 127.388 68.228 127.515 67.6286 127.506H67.5294L67.531 127.505ZM66.9495 103.913H66.8023C66.3029 103.916 65.8107 104.03 65.362 104.247C64.9133 104.464 64.5197 104.778 64.2103 105.165C63.4612 106.196 63.4006 107.843 64.0324 109.926C64.0636 110.028 64.0671 110.137 64.0427 110.242C63.7681 111.446 63.2558 115.201 64.1851 118.058C64.2126 118.143 64.2211 118.233 64.2103 118.322C63.809 121.73 64.1725 124.162 65.2616 125.351C65.5578 125.663 65.9209 125.905 66.3242 126.06C66.7275 126.215 67.1608 126.279 67.5923 126.247C68.0042 126.259 68.4135 126.177 68.7876 126.006C69.1617 125.836 69.4904 125.581 69.7476 125.263C71.238 123.368 70.4685 119.315 70.1994 118.12C70.1833 118.051 70.1798 117.98 70.1891 117.91C70.4945 115.228 70.4201 112.518 69.968 109.857C69.9552 109.792 69.9526 109.726 69.9601 109.661C70.2418 107.352 69.9452 105.653 69.1016 104.744C68.8213 104.464 68.4847 104.245 68.1135 104.101C67.7423 103.957 67.3447 103.892 66.9463 103.909L66.9495 103.913Z" fill="black"/>
<path d="M66.7104 100.811L66.7097 100.811C65.8842 100.832 65.2319 101.51 65.2526 102.325L65.2526 102.326C65.2734 103.142 65.9594 103.787 66.7848 103.766L66.7856 103.766C67.6111 103.746 68.2634 103.068 68.2427 102.252L68.2426 102.251C68.2219 101.435 67.5359 100.79 66.7104 100.811Z" fill="#9C3202"/>
<g opacity="0.4">
<path d="M66.7118 100.811L66.711 100.811C65.8855 100.832 65.2332 101.51 65.2539 102.325L65.254 102.326C65.2747 103.142 65.9607 103.787 66.7861 103.766L66.7869 103.766C67.6124 103.746 68.2647 103.068 68.244 102.252L68.244 102.251C68.2232 101.435 67.5372 100.79 66.7118 100.811Z" fill="white"/>
</g>
<path d="M66.7542 104.391C66.1899 104.398 65.6459 104.183 65.2418 103.794C64.8378 103.404 64.6068 102.872 64.5997 102.314C64.5926 101.756 64.81 101.219 65.204 100.819C65.598 100.42 66.1364 100.192 66.7007 100.185H66.7542C67.3186 100.178 67.8625 100.393 68.2666 100.782C68.6706 101.171 68.9016 101.704 68.9087 102.261C68.9158 102.819 68.6985 103.357 68.3044 103.756C67.9104 104.156 67.3721 104.384 66.8077 104.391H66.7542ZM66.7542 101.43H66.7314C66.5163 101.452 66.3174 101.553 66.1737 101.712C66.0299 101.872 65.9518 102.079 65.9547 102.292C65.9575 102.506 66.0412 102.711 66.1891 102.867C66.3371 103.022 66.5387 103.118 66.7542 103.134H66.777C66.8906 103.132 67.0025 103.107 67.1063 103.061C67.21 103.015 67.3036 102.95 67.3814 102.868C67.4601 102.787 67.5216 102.692 67.5622 102.587C67.6027 102.482 67.6215 102.37 67.6174 102.258C67.6109 102.036 67.5168 101.824 67.3552 101.669C67.1935 101.514 66.9771 101.428 66.7518 101.428L66.7542 101.43Z" fill="black"/>
<path d="M67.6116 127.13C67.5459 127.13 67.4827 127.105 67.4353 127.06C67.388 127.015 67.36 126.954 67.3574 126.889L66.5351 103.777C66.5339 103.744 66.5393 103.711 66.551 103.68C66.5626 103.65 66.5803 103.621 66.6029 103.598C66.6256 103.574 66.6528 103.554 66.683 103.541C66.7132 103.527 66.7459 103.519 66.779 103.518C66.8458 103.517 66.9105 103.541 66.9593 103.586C67.0082 103.631 67.0372 103.694 67.0403 103.759L67.8657 126.87C67.8669 126.903 67.8615 126.936 67.8498 126.967C67.8382 126.997 67.8206 127.025 67.7979 127.049C67.7753 127.073 67.748 127.093 67.7178 127.106C67.6876 127.12 67.655 127.127 67.6218 127.129H67.6116V127.13Z" fill="black"/>
<path d="M66.2743 110.466C64.7792 110.466 63.5147 110.368 63.4076 110.358C63.3407 110.352 63.2787 110.321 63.2354 110.27C63.1921 110.219 63.1709 110.153 63.1767 110.087C63.1824 110.021 63.2145 109.959 63.266 109.917C63.3174 109.874 63.3839 109.853 63.4509 109.859C63.5044 109.864 68.694 110.27 70.4991 109.445C70.5293 109.431 70.5619 109.424 70.5951 109.422C70.6282 109.421 70.6613 109.426 70.6925 109.438C70.7236 109.449 70.7522 109.466 70.7765 109.489C70.8008 109.511 70.8205 109.538 70.8343 109.568C70.8482 109.598 70.8559 109.63 70.8572 109.663C70.8584 109.695 70.8531 109.728 70.8416 109.759C70.83 109.79 70.8125 109.818 70.7899 109.842C70.7673 109.866 70.7402 109.885 70.71 109.899C69.2776 110.349 67.7752 110.54 66.2743 110.464V110.466Z" fill="black"/>
<path d="M66.3239 118.762C64.8288 118.762 63.5642 118.664 63.4572 118.654C63.3902 118.648 63.3282 118.616 63.2849 118.566C63.2416 118.515 63.2205 118.449 63.2262 118.383C63.232 118.317 63.2641 118.255 63.3155 118.213C63.3669 118.17 63.4335 118.149 63.5005 118.155C63.554 118.16 68.7436 118.566 70.5487 117.741C70.6096 117.713 70.6791 117.711 70.742 117.734C70.8049 117.757 70.8559 117.803 70.8839 117.864C70.9118 117.924 70.9145 117.993 70.8911 118.055C70.8678 118.117 70.8205 118.167 70.7595 118.195C69.3272 118.645 67.8247 118.836 66.3239 118.76V118.762Z" fill="#0D1338"/>
<path d="M62.2659 119.277L57.8813 121.766V107.713L62.2659 105.224V119.277Z" fill="#3996D1"/>
<path d="M57.8823 122.389C57.7716 122.389 57.6629 122.359 57.5676 122.304C57.4713 122.248 57.3916 122.169 57.3364 122.073C57.2811 121.977 57.2523 121.869 57.2528 121.759V107.711C57.2518 107.601 57.2804 107.492 57.3357 107.397C57.391 107.301 57.471 107.222 57.5676 107.166L61.9521 104.678C62.0481 104.624 62.1566 104.595 62.2669 104.595C62.3772 104.595 62.4857 104.624 62.5816 104.678C62.6782 104.733 62.7582 104.812 62.8135 104.908C62.8688 105.003 62.8974 105.112 62.8964 105.222V119.273C62.8974 119.383 62.8688 119.491 62.8135 119.587C62.7582 119.682 62.6782 119.762 62.5816 119.817L58.1971 122.306C58.1013 122.36 57.9927 122.389 57.8823 122.389ZM58.5118 108.078V120.683L61.6295 118.914V106.309L58.5118 108.078Z" fill="black"/>
<path d="M57.8781 107.713H49.637V121.764H57.8781V107.713Z" fill="#3996D1"/>
<path d="M57.8817 122.389H49.6406C49.4736 122.389 49.3135 122.324 49.1954 122.207C49.0774 122.09 49.0111 121.932 49.0111 121.767V107.714C49.0111 107.549 49.0774 107.391 49.1954 107.274C49.3135 107.157 49.4736 107.092 49.6406 107.092H57.8817C58.0487 107.092 58.2088 107.157 58.3268 107.274C58.4449 107.391 58.5112 107.549 58.5112 107.714V121.765C58.5115 121.846 58.4955 121.928 58.464 122.003C58.4325 122.079 58.3862 122.148 58.3277 122.206C58.2692 122.264 58.1997 122.31 58.1231 122.342C58.0466 122.373 57.9646 122.389 57.8817 122.389ZM50.2724 121.137H57.2459V108.339H50.2693L50.2724 121.137Z" fill="black"/>
<path d="M56.5369 109.089H50.9846V120.387H56.5369V109.089Z" fill="white"/>
<path d="M61.24 118.479L59.1374 119.593V108.909L61.0795 107.957L61.24 118.479Z" fill="white"/>
<path d="M59.9065 103.014H52.1225L49.6422 107.714H57.8873L59.9065 103.014Z" fill="#3996D1"/>
<path d="M57.8828 108.342H49.6416C49.5327 108.342 49.4256 108.314 49.3308 108.261C49.2359 108.208 49.1564 108.132 49.1 108.04C49.0436 107.948 49.0122 107.843 49.0088 107.735C49.0054 107.628 49.0301 107.521 49.0806 107.426L51.5609 102.725C51.6145 102.624 51.6951 102.539 51.794 102.48C51.8929 102.421 52.0063 102.39 52.1219 102.389H59.9059C60.0108 102.389 60.1142 102.414 60.2068 102.463C60.2993 102.511 60.3781 102.582 60.4359 102.669C60.4936 102.756 60.5286 102.855 60.5376 102.958C60.5466 103.062 60.5293 103.165 60.4874 103.261L58.4635 107.961C58.4152 108.074 58.334 108.171 58.2301 108.239C58.1261 108.307 58.0042 108.342 57.8796 108.342H57.8828ZM50.6851 107.09H57.4641L58.949 103.642H52.5051L50.6851 107.09Z" fill="black"/>
<path d="M57.7686 104.212H53.2243L51.7748 106.514H56.5883L57.7686 104.212Z" fill="white"/>
<path d="M59.9053 103.014L62.2659 105.228L57.8814 107.717L59.9053 103.014Z" fill="#3996D1"/>
<path d="M57.882 108.342C57.7773 108.342 57.6741 108.316 57.5818 108.268C57.4894 108.219 57.4108 108.148 57.353 108.062C57.2951 107.975 57.2598 107.876 57.2503 107.773C57.2407 107.67 57.2571 107.566 57.2981 107.471L59.322 102.771C59.3624 102.678 59.4248 102.596 59.5039 102.531C59.5831 102.467 59.6767 102.423 59.7768 102.402C59.8765 102.381 59.9798 102.384 60.0779 102.411C60.1761 102.438 60.2661 102.488 60.3402 102.558L62.7009 104.771C62.7725 104.838 62.8271 104.921 62.8606 105.013C62.894 105.105 62.9054 105.204 62.8937 105.301C62.8819 105.397 62.8472 105.49 62.7925 105.571C62.7379 105.652 62.6647 105.719 62.579 105.767L58.1944 108.256C58.0984 108.31 57.99 108.338 57.8796 108.339L57.882 108.342ZM60.1317 104.088L59.2048 106.244L61.2153 105.105L60.1317 104.088Z" fill="black"/>
<path d="M59.9051 100.875H52.1054V103.013H59.9051V100.875Z" fill="white"/>
<path d="M59.9009 103.638H52.1012C51.9342 103.638 51.7741 103.572 51.656 103.455C51.538 103.339 51.4717 103.18 51.4717 103.015V100.877C51.4717 100.712 51.538 100.554 51.656 100.437C51.7741 100.321 51.9342 100.255 52.1012 100.255H59.9009C60.0678 100.255 60.228 100.321 60.346 100.437C60.4641 100.554 60.5304 100.712 60.5304 100.877V103.015C60.5304 103.18 60.4641 103.339 60.346 103.455C60.228 103.572 60.0678 103.638 59.9009 103.638ZM52.7362 102.385H59.2674V101.5H52.7362V102.385Z" fill="black"/>
<path d="M49.047 111.671L47.2237 114.204L42.5811 110.941C42.3317 111.137 42.0243 111.247 41.7058 111.254C41.3874 111.261 41.0752 111.166 40.8169 110.981C41.7292 109.813 42.1455 108.34 41.9775 106.873C42.1997 106.58 42.5259 106.381 42.8906 106.315C43.2552 106.25 43.6314 106.324 43.9434 106.522C44.2553 106.719 44.48 107.026 44.5723 107.381C44.6645 107.736 44.6174 108.112 44.4405 108.434L49.047 111.671Z" fill="white"/>
<path d="M47.2236 114.828C47.0925 114.828 46.9646 114.788 46.8577 114.713L42.5566 111.689C42.2191 111.842 41.8467 111.904 41.4772 111.869C41.1076 111.834 40.7539 111.704 40.4517 111.491C39.9997 111.177 39.6922 110.698 39.5963 110.161C40.5772 109.158 41.2286 107.885 41.4652 106.51C41.7518 106.126 42.1633 105.851 42.6305 105.732C43.0977 105.613 43.5922 105.656 44.031 105.854C44.4698 106.053 44.8262 106.394 45.0405 106.822C45.2547 107.249 45.3138 107.736 45.2076 108.201L49.4144 111.157C49.4821 111.205 49.5395 111.265 49.5836 111.335C49.6276 111.405 49.6573 111.482 49.671 111.564C49.6846 111.645 49.682 111.728 49.6632 111.808C49.6444 111.888 49.6099 111.963 49.5615 112.03L47.7383 114.562C47.6801 114.644 47.6031 114.71 47.5136 114.757C47.4241 114.803 47.3247 114.827 47.2236 114.828ZM42.5849 110.317C42.7168 110.316 42.8455 110.357 42.9532 110.432L47.0765 113.333L48.1656 111.823L44.0777 108.945C43.949 108.855 43.8589 108.722 43.8251 108.57C43.7913 108.418 43.8163 108.259 43.8951 108.124C43.9931 107.942 44.0183 107.73 43.9655 107.53C43.9127 107.33 43.7858 107.157 43.6101 107.045C43.4343 106.933 43.2225 106.891 43.0165 106.926C42.8106 106.962 42.6257 107.072 42.4984 107.236C42.4087 107.364 42.3592 107.515 42.3559 107.67C42.3527 107.826 42.396 107.978 42.4803 108.11C42.5457 108.214 42.5785 108.336 42.5744 108.459C42.5703 108.582 42.5296 108.702 42.4573 108.802C42.385 108.903 42.2843 108.98 42.1679 109.024C42.0515 109.068 41.9245 109.077 41.8028 109.051C41.6499 109.015 41.4896 109.024 41.3423 109.078C41.1949 109.132 41.0671 109.228 40.9749 109.354C40.9146 109.438 40.8721 109.534 40.8498 109.635C40.8275 109.735 40.8259 109.84 40.8451 109.941C40.8848 110.157 41.009 110.348 41.1905 110.473C41.336 110.578 41.512 110.633 41.6919 110.631C41.8719 110.628 42.0461 110.568 42.1883 110.458C42.301 110.368 42.4419 110.318 42.5873 110.318L42.5849 110.317Z" fill="black"/>
<path d="M54.6074 127.23C54.6074 127.23 44.6296 119.209 44.7358 114.158C44.7952 113.383 45.0481 112.635 45.4717 111.981C45.8954 111.327 46.4766 110.786 47.1634 110.409C52.0225 107.935 64.8339 113.018 64.8339 113.018L54.6043 127.23H54.6074Z" fill="#9C3202"/>
<g opacity="0.4">
<path d="M64.8143 112.755L63.3672 114.767C60.6965 113.779 50.5511 110.266 46.3491 112.406C45.6887 112.761 45.1271 113.271 44.7139 113.892C44.7742 113.118 45.0274 112.37 45.451 111.717C45.8746 111.063 46.4554 110.523 47.1415 110.145C52.0029 107.67 64.8143 112.755 64.8143 112.755Z" fill="white"/>
</g>
<path d="M54.6026 127.857C54.4571 127.857 54.3162 127.807 54.2036 127.716C52.4275 126.254 50.7455 124.685 49.1675 123.016C45.7579 119.394 44.0527 116.405 44.1023 114.144C44.1648 113.257 44.451 112.399 44.9348 111.649C45.4186 110.899 46.0846 110.281 46.8721 109.85C51.9319 107.273 64.5355 112.224 65.0706 112.435C65.1593 112.47 65.2388 112.525 65.303 112.594C65.3672 112.664 65.4145 112.748 65.4412 112.839C65.4676 112.93 65.4732 113.025 65.4574 113.119C65.4416 113.212 65.4049 113.301 65.3499 113.378L55.1203 127.59C55.0699 127.66 55.0056 127.718 54.9315 127.763C54.8574 127.807 54.7749 127.836 54.6891 127.848C54.6605 127.852 54.6315 127.854 54.6026 127.853V127.857ZM50.7712 110.357C49.6312 110.303 48.4943 110.513 47.4505 110.969C46.8631 111.293 46.3655 111.755 46.0019 112.315C45.6383 112.874 45.4199 113.514 45.366 114.176C45.2873 117.84 51.4951 123.821 54.483 126.322L63.8415 113.321C61.812 112.575 59.7453 111.931 57.6494 111.393C55.4073 110.776 53.0977 110.429 50.7712 110.36V110.357Z" fill="black"/>
<path d="M63.1213 122.524C65.9475 118.598 66.8295 114.425 65.0915 113.203C63.3535 111.98 59.6536 114.171 56.8275 118.096C54.0013 122.022 53.1193 126.195 54.8573 127.417C56.5953 128.64 60.2952 126.449 63.1213 122.524Z" fill="#9B0404"/>
<path d="M56.0211 128.379C55.4749 128.391 54.9389 128.232 54.4898 127.925C53.4314 127.182 53.0836 125.658 53.5101 123.641C54.6482 119.367 57.3235 115.649 61.0352 113.184C62.8253 112.124 64.3913 111.949 65.4504 112.694C66.5096 113.44 66.8566 114.961 66.4301 116.978C65.292 121.253 62.6167 124.971 58.905 127.436C58.0456 127.998 57.0501 128.324 56.0211 128.379ZM63.9144 113.49C63.1185 113.552 62.3523 113.816 61.6906 114.258C59.9731 115.358 58.4953 116.786 57.3438 118.458C54.5457 122.347 53.9822 126.029 55.2263 126.902C55.465 127.057 55.7461 127.135 56.0313 127.125C57.5901 127.125 60.2805 125.382 62.6042 122.157C63.8256 120.533 64.7069 118.684 65.1962 116.719C65.511 115.241 65.3355 114.144 64.7241 113.713C64.4862 113.556 64.2045 113.478 63.9191 113.489L63.9144 113.49Z" fill="black"/>
<path d="M60.8019 121.705C61.4459 120.811 61.5881 119.818 61.1195 119.489C60.6509 119.159 59.749 119.617 59.105 120.512C58.4609 121.406 58.3187 122.398 58.7873 122.728C59.2559 123.058 60.1579 122.6 60.8019 121.705Z" fill="white"/>
<path d="M54.5897 120.033C54.74 122.038 54.0842 124.02 52.7648 125.549C51.4453 127.078 49.5687 128.031 47.5426 128.2C45.5165 128.37 43.5045 127.742 41.9437 126.454C40.3829 125.166 39.3994 123.321 39.2067 121.32C38.8738 117.568 41.5501 114.618 45.1084 115.262C46.0479 115.428 47.0117 115.403 47.9412 115.189C48.7083 114.971 49.5159 114.93 50.3017 115.069C51.0875 115.208 51.8304 115.524 52.473 115.992C53.1156 116.46 53.6407 117.068 54.0077 117.769C54.3747 118.47 54.5738 119.244 54.5897 120.033Z" fill="#D81B05"/>
<g opacity="0.4">
<path d="M54.4582 122.192C54.4582 121.969 54.4503 121.746 54.433 121.519C54.1284 117.845 51.1603 115.931 47.7885 116.676C46.8586 116.887 45.8954 116.912 44.9556 116.749C42.0819 116.23 39.7865 118.049 39.1799 120.739C39.1547 117.269 41.7341 114.651 45.113 115.261C46.0526 115.426 47.0163 115.402 47.9458 115.188C48.7126 114.97 49.5198 114.93 50.305 115.069C51.0902 115.209 51.8325 115.525 52.4746 115.993C53.1167 116.461 53.6414 117.068 54.0082 117.769C54.3751 118.469 54.5742 119.243 54.5904 120.031C54.6504 120.755 54.6059 121.483 54.4582 122.194V122.192Z" fill="white"/>
</g>
<path d="M46.8939 128.911C44.8069 128.905 42.7973 128.129 41.2588 126.735C39.7203 125.341 38.7637 123.429 38.5765 121.375C38.4548 120.376 38.5692 119.364 38.9106 118.417C39.2519 117.47 39.811 116.614 40.5437 115.916C41.1684 115.355 41.9181 114.948 42.732 114.727C43.5459 114.506 44.401 114.477 45.2281 114.644C46.0837 114.794 46.9612 114.771 47.8075 114.576C48.6627 114.339 49.5616 114.297 50.4356 114.455C51.3095 114.612 52.1355 114.965 52.8505 115.486C53.5656 116.008 54.1508 116.683 54.5615 117.462C54.9723 118.241 55.1978 119.102 55.2208 119.979C55.3991 122.161 54.6946 124.323 53.2618 125.992C51.8291 127.661 49.7852 128.699 47.5785 128.88C47.3472 128.898 47.119 128.908 46.8931 128.908L46.8939 128.911ZM44.1516 115.799C43.1332 115.791 42.1493 116.164 41.3975 116.843C40.8104 117.411 40.3643 118.106 40.0943 118.873C39.8243 119.64 39.7376 120.459 39.841 121.264C39.9195 122.181 40.1799 123.073 40.6072 123.89C41.0346 124.706 41.6205 125.432 42.3316 126.025C43.0427 126.618 43.865 127.067 44.7515 127.346C45.6381 127.625 46.5716 127.729 47.4986 127.651C48.4257 127.573 49.3283 127.316 50.1547 126.894C50.9812 126.471 51.7154 125.892 52.3154 125.189C52.9154 124.486 53.3695 123.674 53.6517 122.797C53.9339 121.921 54.0387 120.998 53.9602 120.082C53.935 119.387 53.756 118.706 53.4359 118.087C53.1157 117.468 52.6621 116.926 52.1071 116.499C51.5282 116.102 50.8692 115.834 50.1754 115.713C49.4817 115.592 48.7697 115.621 48.0884 115.799C47.076 116.03 46.0268 116.056 45.0038 115.877C44.7228 115.825 44.4375 115.799 44.1516 115.799Z" fill="black"/>
<path d="M47.12 115.61L45.1095 116.388C44.4295 116.651 43.7037 116.78 42.9736 116.765C42.2435 116.751 41.5233 116.595 40.8543 116.306C40.1854 116.016 39.5807 115.599 39.0748 115.079C38.569 114.558 38.1719 113.944 37.9063 113.272L39.9168 112.494C40.5968 112.231 41.3225 112.102 42.0527 112.117C42.7828 112.131 43.5029 112.287 44.1719 112.576C44.8409 112.866 45.4456 113.283 45.9515 113.803C46.4573 114.324 46.8544 114.938 47.12 115.61Z" fill="#306112"/>
<g opacity="0.4">
<path d="M47.1224 115.611L46.891 115.701C46.1505 114.783 45.1323 114.124 43.9854 113.82C42.8385 113.515 41.6231 113.582 40.5172 114.009L38.7373 114.697C38.3894 114.266 38.1095 113.785 37.9071 113.271L39.9176 112.493C40.5976 112.23 41.3233 112.102 42.0535 112.116C42.7836 112.13 43.5037 112.286 44.1727 112.576C44.8417 112.865 45.4464 113.282 45.9523 113.803C46.4581 114.323 46.8552 114.938 47.1208 115.61L47.1224 115.611Z" fill="white"/>
</g>
<path d="M43.0798 117.395C41.8344 117.392 40.6186 117.019 39.5904 116.324C38.5622 115.63 37.7691 114.646 37.3142 113.5C37.2835 113.423 37.2685 113.341 37.27 113.259C37.2716 113.177 37.2896 113.095 37.3231 113.02C37.3566 112.945 37.405 112.877 37.4653 112.82C37.5256 112.763 37.5968 112.719 37.6746 112.689L39.6851 111.911C41.2151 111.32 42.9202 111.353 44.4253 112.004C45.9305 112.655 47.1126 113.87 47.7114 115.382C47.7422 115.458 47.7573 115.54 47.7559 115.622C47.7546 115.704 47.7367 115.786 47.7034 115.861C47.6701 115.936 47.622 116.004 47.5619 116.061C47.5019 116.118 47.431 116.163 47.3534 116.192L45.3429 116.97C44.624 117.25 43.8585 117.394 43.0861 117.394L43.0798 117.395ZM38.7613 113.613C39.3383 114.65 40.2771 115.443 41.4026 115.846C42.5281 116.249 43.7633 116.233 44.8778 115.801L46.2612 115.267C45.6847 114.23 44.7461 113.435 43.6206 113.032C42.495 112.629 41.2595 112.645 40.1447 113.076L38.7613 113.613Z" fill="black"/>
<path d="M63.8868 123.968L65.7628 114.908C68.3106 114.724 70.8713 114.827 73.3956 115.214C78.268 116.125 79.941 118.714 79.941 118.714L63.8837 123.968H63.8868Z" fill="#FFBA40"/>
<path opacity="0.4" d="M79.9422 118.712L78.4975 119.186C76.8345 118.038 74.9334 117.271 72.9326 116.94C70.4506 116.544 67.933 116.411 65.4225 116.544L65.7624 114.91C68.3101 114.726 70.8708 114.828 73.3953 115.214C78.2677 116.125 79.9406 118.714 79.9406 118.714L79.9422 118.712Z" fill="white"/>
<path d="M63.8852 124.591C63.7302 124.591 63.5804 124.536 63.4634 124.436C63.3802 124.363 63.3178 124.27 63.2825 124.167C63.2473 124.063 63.2405 123.951 63.2628 123.844L65.1387 114.784C65.166 114.651 65.2363 114.531 65.3389 114.441C65.4415 114.351 65.5709 114.296 65.7076 114.285C68.3125 114.091 70.9314 114.196 73.512 114.596C78.5922 115.547 80.3997 118.26 80.4737 118.373C80.5268 118.453 80.5604 118.544 80.5719 118.64C80.5834 118.735 80.5725 118.831 80.5401 118.922C80.5076 119.012 80.4545 119.094 80.3848 119.161C80.3151 119.227 80.2308 119.277 80.1384 119.306L64.0843 124.556C64.0202 124.577 63.9533 124.588 63.886 124.589L63.8852 124.591ZM66.2844 115.502L64.7232 123.033L78.8369 118.416C77.2777 117.037 75.3453 116.138 73.2768 115.829C70.9641 115.469 68.6187 115.36 66.282 115.503L66.2844 115.502Z" fill="black"/>
<path d="M79.9417 134.389L63.8891 139.641V123.967L79.9417 118.712V134.389Z" fill="#EBA718"/>
<path d="M63.8849 140.269C63.7179 140.269 63.5578 140.203 63.4397 140.086C63.3217 139.97 63.2554 139.811 63.2554 139.646V123.969C63.2552 123.838 63.2972 123.709 63.3751 123.602C63.4531 123.496 63.5632 123.416 63.6897 123.374L79.7486 118.122C79.8437 118.09 79.9451 118.082 80.0443 118.097C80.1435 118.112 80.2376 118.15 80.3188 118.208C80.4001 118.266 80.4661 118.343 80.5113 118.431C80.5565 118.52 80.5797 118.618 80.5788 118.717V134.392C80.5789 134.523 80.537 134.652 80.459 134.759C80.381 134.865 80.271 134.945 80.1444 134.987L64.0855 140.239C64.0214 140.26 63.9546 140.271 63.8872 140.272L63.8849 140.269ZM64.5144 124.418V138.777L79.3079 133.939V119.58L64.5144 124.418Z" fill="black"/>
<path d="M75.3406 127.701C76.4006 127.701 77.2599 126.762 77.2599 125.603C77.2599 124.445 76.4006 123.506 75.3406 123.506C74.2807 123.506 73.4214 124.445 73.4214 125.603C73.4214 126.762 74.2807 127.701 75.3406 127.701Z" fill="#9C5817"/>
<path d="M69.1724 134.911C69.9673 134.911 70.6117 134.206 70.6117 133.337C70.6117 132.468 69.9673 131.764 69.1724 131.764C68.3776 131.764 67.7332 132.468 67.7332 133.337C67.7332 134.206 68.3776 134.911 69.1724 134.911Z" fill="#9C5817"/>
<path d="M73.2202 119.106C74.015 119.106 74.6594 118.718 74.6594 118.24C74.6594 117.762 74.015 117.374 73.2202 117.374C72.4253 117.374 71.7809 117.762 71.7809 118.24C71.7809 118.718 72.4253 119.106 73.2202 119.106Z" fill="#9C5817"/>
<path d="M68.0775 120.145C68.7602 120.145 69.3137 119.812 69.3137 119.402C69.3137 118.992 68.7602 118.659 68.0775 118.659C67.3947 118.659 66.8412 118.992 66.8412 119.402C66.8412 119.812 67.3947 120.145 68.0775 120.145Z" fill="#9C5817"/>
<path d="M81.5084 122.289H37.6919V149.639H81.5084V122.289Z" fill="#B18964"/>
<g opacity="0.4">
<path d="M81.5062 122.289H37.6897V124.003H81.5062V122.289Z" fill="white"/>
</g>
<g opacity="0.35">
<path d="M81.5062 120.74H37.6897V122.454H81.5062V120.74Z" fill="#0D1338"/>
</g>
<g opacity="0.35">
<path d="M81.5062 147.047H37.6897V149.639H81.5062V147.047Z" fill="#0D1338"/>
</g>
<path d="M81.5076 150.264H37.6903C37.5233 150.264 37.3632 150.198 37.2451 150.082C37.1271 149.965 37.0608 149.807 37.0608 149.642V122.29C37.0608 122.125 37.1271 121.967 37.2451 121.85C37.3632 121.734 37.5233 121.668 37.6903 121.668H81.5068C81.6738 121.668 81.8339 121.734 81.952 121.85C82.07 121.967 82.1363 122.125 82.1363 122.29V149.642C82.1363 149.806 82.0701 149.965 81.9522 150.081C81.8343 150.198 81.6744 150.264 81.5076 150.264ZM38.3237 149.012H80.8734V122.913H38.3237V149.012Z" fill="black"/>
<path d="M100.958 124.434V124.449C99.8142 129.287 96.8683 133.522 92.7072 136.309C92.6002 136.379 92.494 136.45 92.3846 136.52L92.3209 136.56C92.2241 136.623 92.1257 136.683 92.0266 136.74L91.9274 136.801C91.844 136.852 91.7598 136.901 91.6764 136.949C91.6355 136.974 91.5977 136.996 91.5545 137.019C91.4758 137.066 91.3916 137.111 91.3082 137.16C91.2704 137.18 91.2295 137.202 91.194 137.223C91.1004 137.276 91.006 137.325 90.9123 137.378C90.8942 137.386 90.8793 137.396 90.8643 137.403C90.7731 137.451 90.6841 137.499 90.5897 137.544C90.5441 137.569 90.4961 137.591 90.4504 137.614C90.3411 137.669 90.2293 137.724 90.1207 137.777C89.9909 137.84 89.8618 137.9 89.7273 137.961C89.5927 138.021 89.4731 138.076 89.3441 138.131C89.3338 138.136 89.3236 138.139 89.3134 138.144C89.189 138.199 89.0624 138.252 88.9349 138.304C88.9259 138.308 88.9164 138.312 88.9066 138.314C88.7822 138.367 88.6579 138.417 88.5304 138.465C88.5257 138.465 88.5202 138.469 88.5155 138.469L88.1016 138.625C87.9623 138.678 87.8246 138.728 87.683 138.776C87.5413 138.824 87.4012 138.874 87.2588 138.919C86.9748 139.015 86.6875 139.103 86.3932 139.187C83.3698 140.031 80.2397 140.441 77.0984 140.407H76.0826C73.8639 140.504 71.6463 140.192 69.5427 139.488C68.7745 139.19 68.0757 138.74 67.4889 138.166C67.1533 137.828 66.867 137.445 66.6383 137.029C66.0726 135.926 65.8073 134.696 65.8687 133.461C65.9883 129.676 68.5677 127.496 72.9507 127.472C74.1772 127.379 75.3214 127.247 76.3831 127.077C76.406 127.077 76.4288 127.07 76.4493 127.067C83.0072 126.013 86.3995 123.521 86.5388 119.639C86.5439 118.986 86.4009 118.339 86.1202 117.747C86.0564 117.647 86.0006 117.536 85.94 117.418C85.8671 117.244 85.7649 117.082 85.6378 116.941L85.4883 116.829L85.4733 116.645C85.4733 116.612 85.445 116.575 85.4631 116.547C86.7937 114.557 87.5932 109.625 88.0504 106.509C88.9317 106.13 89.7997 105.701 90.6472 105.277C90.6472 105.259 91.4396 104.896 91.5914 104.81C94.1679 105.97 96.3565 107.832 97.9007 110.177C100.699 114.328 101.927 120.06 100.958 124.434Z" fill="white"/>
<path d="M66.4948 137.032C66.7226 137.449 67.009 137.832 67.3455 138.169C67.9328 138.743 68.6314 139.192 69.3993 139.492C71.5028 140.196 73.7204 140.507 75.9391 140.41H76.8763C79.573 134.176 77.9654 129.652 76.3027 127.067C76.2798 127.067 76.2594 127.075 76.2366 127.077C75.1753 127.245 74.0312 127.377 72.8042 127.472C68.4243 127.497 65.8472 129.675 65.7221 133.461C65.6605 134.696 65.9257 135.926 66.4917 137.029L66.4948 137.032Z" fill="black"/>
<path opacity="0.4" d="M77.6019 128.984C76.3985 129.122 75.1061 129.229 73.7249 129.305C69.6173 129.323 66.8647 130.524 65.8725 132.667V132.512C65.9921 129.292 68.5715 127.435 72.9545 127.415C74.181 127.334 75.3252 127.223 76.3869 127.081C76.4098 127.081 76.4326 127.073 76.453 127.071C76.9046 127.666 77.2898 128.307 77.6019 128.984Z" fill="white"/>
<path d="M76.3709 140.969H75.9286C73.6384 141.063 71.3505 140.737 69.1802 140.008C68.3423 139.679 67.5805 139.185 66.9407 138.557C66.5677 138.183 66.2498 137.759 65.9965 137.297C65.3847 136.109 65.0959 134.784 65.1584 133.453V133.445C65.1484 132.539 65.3339 131.641 65.7025 130.812C66.0712 129.982 66.6146 129.24 67.2964 128.634C68.8566 127.433 70.8003 126.824 72.7755 126.918C73.974 126.825 75.1063 126.697 76.1419 126.529L76.5762 126.461L76.7745 126.768C78.5797 129.568 80.1511 134.246 77.3915 140.628L77.2467 140.964H76.8406C76.6832 140.964 76.5259 140.964 76.3685 140.964L76.3709 140.969ZM66.9895 136.769C67.1931 137.139 67.4476 137.479 67.7457 137.78C68.279 138.303 68.915 138.712 69.6146 138.983C71.6516 139.654 73.7959 139.951 75.9412 139.858H76.4999C78.7772 134.325 77.5614 130.232 76.0175 127.678C75.0347 127.825 73.9661 127.944 72.844 128.029H72.8031C68.7113 128.054 66.3978 129.987 66.286 133.474C66.229 134.612 66.4705 135.745 66.9872 136.764L66.9895 136.769Z" fill="black"/>
<path opacity="0.49" d="M100.959 124.434V124.448C99.8157 129.286 96.8704 133.521 92.7099 136.308C92.6036 136.378 92.4966 136.449 92.3873 136.519L92.3235 136.559C92.2267 136.622 92.1284 136.682 92.0292 136.74L91.9301 136.8C91.8459 136.85 91.7625 136.901 91.679 136.948C91.6381 136.973 91.6004 136.996 91.5571 137.018C91.4784 137.066 91.3942 137.111 91.3108 137.159C91.273 137.179 91.2321 137.202 91.1967 137.222C91.1031 137.275 91.0086 137.325 90.915 137.377C90.8969 137.385 90.8819 137.395 90.867 137.402C90.7757 137.45 90.6868 137.498 90.5931 137.543C90.5475 137.568 90.4995 137.591 90.4538 137.613C90.3445 137.668 90.2327 137.724 90.1241 137.776C89.9951 137.839 89.8652 137.899 89.7307 137.96C89.5961 138.021 89.4765 138.075 89.3475 138.13C89.3372 138.135 89.327 138.138 89.3168 138.143C89.1925 138.198 89.0658 138.251 88.9383 138.303C88.9296 138.307 88.9203 138.311 88.9108 138.313C88.7864 138.366 88.6621 138.416 88.5354 138.464C88.5307 138.464 88.5252 138.469 88.5205 138.469L88.1066 138.624C87.9673 138.677 87.8296 138.727 87.688 138.775C87.5463 138.823 87.4062 138.873 87.2638 138.918C86.9798 139.014 86.6925 139.101 86.3982 139.187C83.3748 140.03 80.2447 140.441 77.1034 140.406H76.0876C73.8689 140.503 71.6513 140.191 69.5477 139.488C68.7795 139.189 68.0807 138.739 67.4939 138.165C67.1583 137.827 66.872 137.444 66.6433 137.028C66.2595 136.306 66.019 135.519 65.9351 134.707C65.9603 134.758 65.9862 134.805 66.0138 134.853C66.2416 135.27 66.528 135.652 66.8644 135.99C67.4517 136.563 68.1503 137.013 68.9182 137.312C71.0217 138.016 73.2393 138.328 75.458 138.231H76.4739C79.6152 138.265 82.7453 137.855 85.7687 137.011C86.0606 136.926 86.3478 136.838 86.6343 136.743L87.0584 136.6C87.2008 136.549 87.3378 136.499 87.4771 136.449C87.6163 136.398 87.7541 136.346 87.891 136.293C87.8957 136.293 87.9012 136.289 87.9059 136.289L88.2812 136.138C88.2891 136.138 88.2994 136.13 88.3096 136.128C88.4363 136.075 88.5606 136.022 88.6881 135.967C88.6983 135.962 88.7086 135.959 88.7188 135.954C88.8486 135.899 88.9753 135.841 89.102 135.784C89.2287 135.726 89.3632 135.663 89.4954 135.601C89.6072 135.548 89.7165 135.493 89.8251 135.438L89.9644 135.368C90.0557 135.323 90.147 135.275 90.2382 135.227L90.2862 135.202C90.3799 135.152 90.4743 135.102 90.568 135.046C90.6057 135.026 90.6467 135.006 90.6821 134.983C90.7663 134.936 90.8473 134.891 90.9284 134.843C90.9693 134.82 91.007 134.798 91.0503 134.773C91.1345 134.725 91.2179 134.675 91.3013 134.625L91.4005 134.565L91.6948 134.385C91.7176 134.372 91.7381 134.357 91.7585 134.344C91.8679 134.274 91.9741 134.203 92.0811 134.133C96.2384 131.345 99.1798 127.11 100.319 122.273V122.258C100.815 119.741 100.747 117.146 100.121 114.657C101.276 117.784 101.565 121.159 100.957 124.434H100.959Z" fill="#C5EFFF"/>
<path d="M101.771 124.66C98.9828 135.958 88.5943 141.419 76.9656 141.235C73.4773 141.07 68.6788 141.506 66.4314 138.186C65.4947 136.874 65.0053 135.301 65.0345 133.695C65.0636 132.089 65.6097 130.534 66.5935 129.255C68.0658 127.383 70.2243 127.007 72.9674 126.755C78.0499 126.289 84.0775 125.892 85.5907 120.431C85.8793 119.29 85.7902 118.088 85.3365 117.001C85.3095 116.948 85.2964 116.889 85.2988 116.83C85.3002 116.773 85.3161 116.718 85.345 116.669C85.3738 116.62 85.4148 116.579 85.464 116.549C85.4787 116.539 85.4949 116.532 85.512 116.527C85.5783 116.509 85.6479 116.508 85.7147 116.524C85.7815 116.539 85.8434 116.57 85.8952 116.615C86.5961 117.477 86.9721 118.553 86.9591 119.659C86.723 126.076 78.2962 127.489 72.9674 127.893C68.8039 127.985 66.4141 129.73 66.2953 133.472C66.186 139.828 71.9979 140.021 77.0986 139.996C89.4803 139.996 97.8922 134.474 100.542 124.347C102.056 117.522 98.1818 105.976 88.3582 104.214C88.2236 104.189 88.0938 104.106 87.9647 104.089C87.9089 104.081 87.7365 103.903 87.6043 103.953C87.8459 103.853 88.2189 103.863 88.4574 103.757C88.8965 103.567 89.3764 103.403 89.8053 103.2C89.843 103.211 89.884 103.218 89.917 103.228C98.4351 105.476 103.665 116.468 101.766 124.659L101.771 124.66Z" fill="black"/>
<path d="M18.917 124.283V124.298C20.0602 129.136 23.0058 133.37 27.1668 136.158C27.2738 136.228 27.38 136.299 27.4894 136.369L27.5531 136.409C27.6499 136.472 27.7483 136.532 27.8474 136.59L27.9466 136.649C28.03 136.7 28.1142 136.75 28.1976 136.797C28.2385 136.822 28.2763 136.845 28.3195 136.867C28.3982 136.915 28.4824 136.96 28.5658 137.008C28.6036 137.028 28.6445 137.051 28.6799 137.071C28.7736 137.124 28.868 137.174 28.9616 137.227C28.9797 137.234 28.9947 137.244 29.0097 137.251C29.1009 137.299 29.1898 137.347 29.2835 137.392C29.3291 137.417 29.3771 137.44 29.4228 137.462C29.5321 137.517 29.6439 137.573 29.7525 137.626C29.8823 137.689 30.0114 137.748 30.1459 137.809C30.2805 137.87 30.4001 137.924 30.5291 137.979C30.5394 137.984 30.5496 137.987 30.5598 137.992C30.6842 138.047 30.8109 138.1 30.9383 138.152C30.9471 138.157 30.9563 138.16 30.9659 138.162C31.0902 138.215 31.2145 138.265 31.342 138.313C31.3467 138.313 31.3522 138.318 31.357 138.318L31.7709 138.473C31.9101 138.526 32.0478 138.576 32.1895 138.624C32.3311 138.672 32.4712 138.722 32.6136 138.767C32.8977 138.863 33.1849 138.951 33.4792 139.036C36.5026 139.879 39.6327 140.29 42.774 140.255H43.7899C46.0086 140.352 48.2261 140.041 50.3297 139.337C51.0979 139.038 51.7967 138.588 52.3835 138.014C52.7192 137.676 53.0055 137.294 53.2341 136.877C53.7999 135.774 54.0651 134.544 54.0037 133.309C53.8841 129.524 51.3047 127.344 46.9217 127.32C45.6952 127.227 44.551 127.096 43.4893 126.926C43.4664 126.926 43.4436 126.918 43.4232 126.916C36.8652 125.862 33.4729 123.37 33.3336 119.488C33.3284 118.834 33.4715 118.187 33.7522 117.595C33.816 117.495 33.8719 117.385 33.9324 117.266C34.0053 117.092 34.1075 116.931 34.2346 116.79L34.3841 116.677L34.3991 116.493C34.3991 116.461 34.4266 116.423 34.4093 116.395C33.0787 114.405 32.2792 109.473 31.822 106.357C30.9407 105.979 30.0727 105.549 29.2253 105.125C29.2253 105.107 28.4329 104.744 28.281 104.659C25.7045 105.818 23.5159 107.68 21.9717 110.025C19.1735 114.176 17.9452 119.908 18.9146 124.282L18.917 124.283Z" fill="white"/>
<path d="M53.3783 136.878C53.1505 137.295 52.8641 137.678 52.5277 138.015C51.9404 138.589 51.2418 139.038 50.4739 139.338C48.3704 140.042 46.1528 140.353 43.9341 140.256H42.9969C40.3002 134.022 41.9078 129.498 43.5705 126.913C43.5933 126.913 43.6138 126.921 43.6366 126.923C44.6979 127.091 45.842 127.223 47.069 127.317C51.4489 127.342 54.026 129.52 54.1511 133.306C54.2127 134.541 53.9475 135.771 53.3815 136.874L53.3783 136.878Z" fill="black"/>
<path opacity="0.4" d="M42.2714 128.831C43.4749 128.969 44.7672 129.076 46.1485 129.152C50.256 129.17 53.0086 130.371 54.0016 132.514V132.359C53.882 129.139 51.3026 127.282 46.9196 127.262C45.6931 127.181 44.549 127.07 43.4872 126.928C43.4644 126.928 43.4416 126.92 43.4211 126.918C42.9681 127.513 42.5815 128.155 42.2683 128.833L42.2714 128.831Z" fill="white"/>
<path d="M43.5018 140.816H43.9409C46.2311 140.91 48.5191 140.584 50.6893 139.855C51.5272 139.526 52.289 139.032 52.9288 138.404C53.3019 138.03 53.6198 137.606 53.8731 137.144C54.4849 135.956 54.7737 134.631 54.7111 133.3V133.292C54.7212 132.386 54.5358 131.488 54.1671 130.659C53.7984 129.829 53.255 129.087 52.5731 128.481C51.013 127.28 49.0692 126.671 47.094 126.765C45.8956 126.672 44.7632 126.544 43.7277 126.376L43.2933 126.308L43.095 126.615C41.2899 129.415 39.7184 134.093 42.4781 140.475L42.6229 140.811H43.0289C43.1863 140.811 43.3437 140.811 43.5011 140.811L43.5018 140.816ZM52.8832 136.616C52.6796 136.986 52.4251 137.326 52.1269 137.627C51.5937 138.15 50.9576 138.559 50.2581 138.83C48.2211 139.502 46.0768 139.798 43.9315 139.706H43.3728C41.0955 134.172 42.3113 130.079 43.8551 127.525C44.838 127.673 45.9066 127.791 47.0287 127.876H47.0696C51.1615 127.901 53.4749 129.834 53.5866 133.321C53.6439 134.459 53.4024 135.592 52.8855 136.611L52.8832 136.616Z" fill="black"/>
<path opacity="0.49" d="M18.9131 124.283V124.298C20.0563 129.135 23.0016 133.37 27.1621 136.157C27.2691 136.227 27.3754 136.298 27.4847 136.368L27.5485 136.408C27.6453 136.471 27.7436 136.531 27.8428 136.589L27.9419 136.649C28.0253 136.699 28.1095 136.749 28.1929 136.797C28.2339 136.821 28.2716 136.844 28.3149 136.867C28.3936 136.914 28.4778 136.959 28.5612 137.007C28.599 137.028 28.6399 137.05 28.6753 137.07C28.7689 137.123 28.8634 137.173 28.957 137.226C28.9751 137.234 28.9901 137.244 29.005 137.251C29.0963 137.298 29.1852 137.346 29.2788 137.392C29.3245 137.416 29.3725 137.439 29.4181 137.462C29.5275 137.517 29.6392 137.572 29.7478 137.625C29.8777 137.688 30.0067 137.748 30.1413 137.808C30.2758 137.869 30.3954 137.924 30.5245 137.979C30.5347 137.983 30.545 137.987 30.5552 137.991C30.6795 138.046 30.8062 138.099 30.9337 138.152C30.9424 138.157 30.9517 138.16 30.9612 138.162C31.0855 138.215 31.2099 138.265 31.3374 138.313C31.3421 138.313 31.3476 138.319 31.3523 138.319L31.7662 138.474C31.9055 138.527 32.0432 138.577 32.1848 138.625C32.3265 138.673 32.4665 138.723 32.609 138.768C32.893 138.864 33.1803 138.951 33.4746 139.037C36.4979 139.88 39.628 140.291 42.7693 140.256H43.7852C46.0039 140.353 48.2215 140.041 50.3251 139.338C51.0933 139.039 51.792 138.589 52.3789 138.015C52.7145 137.677 53.0008 137.295 53.2295 136.878C53.6133 136.156 53.8537 135.369 53.9377 134.557C53.9125 134.608 53.8865 134.655 53.859 134.703C53.6312 135.12 53.3448 135.502 53.0084 135.84C52.4211 136.413 51.7225 136.863 50.9546 137.162C48.851 137.866 46.6334 138.178 44.4147 138.081H43.3988C40.2575 138.115 37.1274 137.705 34.1041 136.861C33.8121 136.776 33.5249 136.688 33.2385 136.593L32.8144 136.45C32.6719 136.399 32.535 136.349 32.3957 136.299C32.2564 136.248 32.1187 136.196 31.9818 136.143C31.9771 136.143 31.9716 136.139 31.9669 136.139L31.5907 135.988C31.5829 135.988 31.5726 135.98 31.5632 135.978C31.4365 135.925 31.3122 135.873 31.1847 135.817C31.1745 135.812 31.1642 135.809 31.154 135.804C31.0242 135.749 30.8975 135.691 30.7708 135.634C30.6441 135.576 30.5096 135.513 30.3774 135.451C30.2656 135.398 30.1562 135.343 30.0476 135.288L29.9084 135.218C29.8171 135.173 29.7258 135.125 29.6345 135.077L29.5865 135.052C29.4929 135.001 29.3985 134.952 29.3048 134.896C29.267 134.876 29.2261 134.856 29.1907 134.833C29.1073 134.786 29.0255 134.741 28.9444 134.693C28.9035 134.67 28.8657 134.648 28.8224 134.623C28.739 134.575 28.6548 134.525 28.5714 134.475L28.4723 134.415L28.178 134.235C28.1552 134.222 28.1347 134.207 28.1142 134.194C28.0049 134.124 27.8986 134.053 27.7916 133.983C23.6325 131.196 20.689 126.961 19.5481 122.124V122.109C19.0524 119.591 19.12 116.997 19.7464 114.508C18.5909 117.635 18.3023 121.01 18.9108 124.284L18.9131 124.283Z" fill="#C5EFFF"/>
<path d="M18.1007 124.506C20.8887 135.804 31.2772 141.264 42.9059 141.081C46.3942 140.916 51.1927 141.352 53.44 138.033C54.3767 136.72 54.866 135.147 54.8368 133.541C54.8077 131.935 54.2616 130.38 53.278 129.101C51.8057 127.229 49.6472 126.853 46.9041 126.602C41.8216 126.135 35.794 125.738 34.2808 120.277C33.9921 119.136 34.0812 117.934 34.535 116.847C34.5621 116.794 34.5751 116.735 34.5727 116.676C34.5713 116.62 34.5554 116.564 34.5265 116.515C34.4976 116.466 34.4567 116.425 34.4075 116.396C34.3928 116.386 34.3766 116.378 34.3595 116.373C34.2932 116.356 34.2236 116.355 34.1568 116.37C34.09 116.385 34.028 116.416 33.9763 116.461C33.2755 117.323 32.8994 118.399 32.9124 119.505C33.1485 125.922 41.5753 127.335 46.9041 127.739C51.0676 127.831 53.4574 129.576 53.5762 133.318C53.6856 139.674 47.8736 139.867 42.7729 139.842C30.3904 139.842 21.9793 134.32 19.329 124.194C17.8159 117.368 21.7078 105.791 31.5306 104.03C31.6652 104.005 31.795 103.985 31.9241 103.967C31.9799 103.959 32.0995 103.932 32.1523 103.926C31.9107 103.826 31.6518 103.708 31.4134 103.605C30.9743 103.414 30.4943 103.251 30.0654 103.048C30.0276 103.058 29.9867 103.066 29.9537 103.075C21.4356 105.324 16.2059 116.315 18.1046 124.506H18.1007Z" fill="black"/>
<path d="M142.594 141.032C142.963 141.048 143.331 140.986 143.673 140.849C144.016 140.712 144.324 140.503 144.578 140.238C144.831 139.973 145.024 139.657 145.144 139.312C145.263 138.967 145.306 138.6 145.27 138.237V113.235H149.973C150.272 113.267 150.574 113.234 150.858 113.138C151.142 113.042 151.402 112.886 151.618 112.68C151.835 112.475 152.004 112.225 152.112 111.948C152.221 111.672 152.268 111.375 152.248 111.079C152.263 110.782 152.214 110.486 152.104 110.21C151.994 109.934 151.826 109.684 151.61 109.477C151.395 109.27 151.138 109.111 150.856 109.01C150.573 108.909 150.272 108.869 149.973 108.892H145.239V105.547C145.239 102.296 146.469 100.898 149.296 100.898C149.855 100.91 150.413 100.849 150.956 100.716C151.386 100.638 151.771 100.406 152.038 100.063C152.305 99.7213 152.434 99.2936 152.401 98.8629C152.401 97.3135 150.895 96.402 148.066 96.402C142.841 96.402 139.921 99.3186 139.921 105.364V108.888H137.277C136.978 108.866 136.677 108.906 136.395 109.007C136.112 109.108 135.855 109.267 135.64 109.474C135.424 109.681 135.256 109.931 135.146 110.207C135.037 110.484 134.988 110.78 135.002 111.076C134.983 111.372 135.029 111.669 135.138 111.946C135.247 112.223 135.415 112.472 135.632 112.678C135.849 112.883 136.108 113.04 136.393 113.135C136.677 113.231 136.979 113.265 137.277 113.233H139.921V138.239C139.885 138.602 139.928 138.968 140.047 139.313C140.167 139.658 140.36 139.974 140.613 140.238C140.867 140.503 141.175 140.711 141.517 140.848C141.858 140.985 142.226 141.048 142.594 141.032ZM167.77 141.032C176.591 141.032 182.554 134.746 182.554 124.69C182.554 114.603 176.591 108.344 167.769 108.344C158.916 108.344 152.953 114.603 152.953 124.69C152.954 134.746 158.917 141.032 167.769 141.032H167.77ZM167.77 136.384C162.115 136.384 158.395 132.13 158.395 124.687C158.395 117.243 162.115 112.99 167.77 112.99C173.426 112.99 177.115 117.243 177.115 124.687C177.115 132.13 173.426 136.387 167.769 136.387L167.77 136.384ZM199.923 141.032C208.745 141.032 214.708 134.746 214.708 124.69C214.708 114.603 208.745 108.344 199.923 108.344C191.07 108.344 185.107 114.603 185.107 124.69C185.107 134.746 191.07 141.032 199.923 141.032ZM199.923 136.384C194.267 136.384 190.548 132.13 190.548 124.687C190.548 117.243 194.267 112.992 199.923 112.992C205.578 112.992 209.267 117.246 209.267 124.689C209.267 132.132 205.579 136.387 199.923 136.387V136.384ZM230.939 141.032C235.949 141.032 239.269 138.604 241.02 134.837H241.112V138.452C241.11 138.802 241.181 139.149 241.319 139.472C241.458 139.794 241.662 140.085 241.919 140.327C242.175 140.568 242.479 140.755 242.812 140.877C243.144 140.998 243.499 141.051 243.853 141.032C244.2 141.048 244.547 140.992 244.871 140.868C245.195 140.743 245.489 140.554 245.735 140.311C245.981 140.068 246.173 139.777 246.298 139.457C246.424 139.136 246.481 138.793 246.465 138.45V98.9235C246.494 98.5605 246.446 98.1955 246.324 97.8519C246.202 97.5082 246.009 97.1934 245.758 96.9275C245.506 96.6616 245.201 96.4505 244.862 96.3077C244.523 96.1649 244.158 96.0934 243.79 96.0979C243.421 96.0934 243.056 96.1649 242.717 96.3077C242.378 96.4505 242.073 96.6616 241.821 96.9275C241.57 97.1934 241.377 97.5082 241.255 97.8519C241.133 98.1955 241.085 98.5605 241.114 98.9235V114.023H240.991C239.986 112.245 238.505 110.775 236.71 109.774C234.915 108.772 232.877 108.278 230.817 108.346C222.764 108.346 217.261 114.786 217.261 124.691C217.261 134.596 222.793 141.032 230.939 141.032ZM231.953 136.384C226.298 136.384 222.732 131.857 222.732 124.687C222.732 117.547 226.297 112.99 231.953 112.99C237.455 112.99 241.144 117.638 241.144 124.687C241.144 131.768 237.455 136.387 231.953 136.387V136.384Z" fill="#00A6ED"/>
<path d="M143.83 31.7725C144.646 31.7938 145.457 31.6541 146.218 31.3616C146.978 31.069 147.671 30.6295 148.258 30.0688C148.844 29.508 149.311 28.8373 149.632 28.0959C149.952 27.3545 150.12 26.5573 150.125 25.751C150.124 24.9436 149.958 24.1449 149.639 23.4019C149.319 22.6589 148.852 21.9868 148.265 21.4254C147.678 20.864 146.983 20.4246 146.222 20.1333C145.46 19.842 144.647 19.7046 143.83 19.7294C143.014 19.7046 142.201 19.842 141.439 20.1333C140.677 20.4246 139.982 20.864 139.395 21.4254C138.808 21.9868 138.341 22.6589 138.022 23.4019C137.702 24.1449 137.537 24.9436 137.535 25.751C137.54 26.5573 137.708 27.3545 138.029 28.0959C138.35 28.8373 138.817 29.508 139.403 30.0688C139.989 30.6295 140.683 31.069 141.443 31.3616C142.203 31.6541 143.015 31.7938 143.83 31.7725ZM143.83 80.6605C147.461 80.6605 149.72 78.3879 149.72 74.5993V42.2997C149.72 38.5112 147.461 36.1988 143.83 36.1988C140.159 36.1988 137.94 38.512 137.94 42.2997V74.6001C137.937 78.3879 140.159 80.6605 143.83 80.6605ZM180.244 80.6605C183.714 80.6605 186.134 78.587 186.134 74.5993V65.9465L189.886 62.5173L200.981 77.0322C202.837 79.784 204.249 80.6613 206.751 80.6613C210.056 80.6613 212.358 78.5076 212.358 75.3973C212.358 73.8822 211.996 72.8454 210.706 71.1304L198.641 55.9381L209.658 45.6496C211.352 44.0941 211.877 43.0176 211.877 41.263C211.886 40.5853 211.756 39.9129 211.494 39.2866C211.232 38.6603 210.844 38.0931 210.353 37.6195C209.863 37.1459 209.28 36.7757 208.641 36.5315C208.001 36.2873 207.318 36.1741 206.633 36.1988C204.858 36.1988 203.526 36.8771 201.953 38.512L186.296 54.024H186.135V27.5056C186.135 23.518 183.715 21.4047 180.245 21.4047C176.816 21.4047 174.355 23.518 174.355 27.5056V74.6001C174.355 78.5877 176.815 80.6605 180.244 80.6605ZM241.15 31.7725C241.965 31.7938 242.777 31.6541 243.537 31.3616C244.297 31.069 244.991 30.6295 245.577 30.0688C246.163 29.508 246.631 28.8373 246.951 28.0959C247.272 27.3545 247.44 26.5573 247.445 25.751C247.443 24.9436 247.278 24.1449 246.958 23.4019C246.639 22.6589 246.172 21.9868 245.585 21.4254C244.998 20.864 244.303 20.4246 243.541 20.1333C242.779 19.842 241.966 19.7046 241.15 19.7294C240.334 19.7046 239.52 19.842 238.759 20.1333C237.997 20.4246 237.302 20.864 236.715 21.4254C236.128 21.9868 235.661 22.6589 235.342 23.4019C235.022 24.1449 234.857 24.9436 234.855 25.751C234.86 26.5571 235.028 27.3541 235.348 28.0954C235.669 28.8366 236.136 29.5072 236.722 30.0679C237.308 30.6286 238.001 31.0682 238.761 31.3609C239.521 31.6536 240.332 31.7935 241.148 31.7725H241.15ZM241.15 80.6605C244.781 80.6605 247.04 78.3879 247.04 74.5993V42.2997C247.04 38.5112 244.781 36.1988 241.15 36.1988C237.478 36.1988 235.26 38.512 235.26 42.2997V74.6001C235.257 78.3879 237.479 80.6613 241.148 80.6613L241.15 80.6605Z" fill="#00A6ED"/>
</g>
<defs>
<clipPath id="clip0_343_3064">
<rect width="259" height="160" fill="white"/>
</clipPath>
</defs>
</svg>
