<svg width="259" height="202" viewBox="0 0 259 202" fill="none" xmlns="http://www.w3.org/2000/svg">
<path d="M25.6045 131.895C-42.9983 52.6922 42.3552 13.0572 93.6073 3.14017C168.61 -10.1104 229.863 20.6409 249.364 56.6424C268.865 92.6439 257.114 131.895 224.863 169.397C192.611 206.899 111.358 230.9 25.6045 131.895Z" fill="white"/>
<g clip-path="url(#clip0_343_739)">
<mask id="mask0_343_739" style="mask-type:luminance" maskUnits="userSpaceOnUse" x="33" y="40" width="197" height="124">
<path d="M229.01 40.2463H33.0015V163.262H229.01V40.2463Z" fill="white"/>
</mask>
<g mask="url(#mask0_343_739)">
<path opacity="0.35" d="M104.73 121.406C98.6627 124.381 93.1109 126.689 81.6841 126.689C70.2573 126.689 64.5468 124.404 58.3282 121.268C58.9112 120.846 59.6234 120.643 60.3402 120.695C61.1026 120.5 62.0903 120.302 63.1257 120.088C74.955 124.286 89.0513 124.258 100.826 119.846C102.422 120.115 103.89 120.525 104.73 121.406Z" fill="#C5EFFF"/>
<path d="M66.2475 75.1328C66.0139 75.6546 65.7485 76.1615 65.453 76.6506C61.4535 78.9352 50.6573 83.1089 45.9759 80.6925C38.7638 76.9616 38.184 63.4024 42.5638 57.5662C46.9437 51.73 56.4827 50.4196 62.2025 53.372C69.6567 57.2223 69.4986 67.8573 66.2499 75.1328H66.2475Z" fill="black"/>
<path d="M98.3646 76.8728C98.5965 77.421 98.863 77.9538 99.1626 78.4679C103.283 80.9229 114.447 85.4745 119.364 83.0458C126.948 79.3038 127.808 65.1963 123.356 59.0349C118.905 52.8736 109.003 51.3295 102.989 54.2901C95.1549 58.1563 95.1176 69.2329 98.3646 76.8687V76.8728Z" fill="black"/>
<path d="M80.118 51.5466C79.7978 51.5958 79.4688 51.6562 79.3259 51.6849C79.2786 51.6603 79.2296 51.6374 79.1829 51.6152C79.4927 51.5882 79.8054 51.566 80.118 51.5466Z" fill="white"/>
<path opacity="0.4" d="M43.1328 97.4579C43.1387 97.4959 43.1422 97.5352 43.148 97.575C43.0846 97.6229 43.0186 97.6671 42.9502 97.7074C42.9164 97.7285 42.8767 97.7507 42.8336 97.7736C42.8429 97.0289 42.8742 96.2722 42.9275 95.5037C42.9461 95.772 42.9689 96.0367 42.9951 96.3015C43.0331 96.6911 43.078 97.0783 43.1305 97.4585L43.1328 97.4579Z" fill="white"/>
<path opacity="0.4" d="M120.222 97.6844C120.153 97.6411 120.098 97.603 120.059 97.5731C120.064 97.5357 120.07 97.4976 120.074 97.456C120.126 97.0741 120.169 96.6886 120.209 96.2991C120.235 96.0343 120.258 95.7719 120.277 95.5012C120.329 96.2706 120.361 97.0272 120.371 97.7711C120.312 97.7389 120.265 97.7091 120.22 97.6821L120.222 97.6844Z" fill="white"/>
<path d="M123.341 98.4384C123.341 98.4384 123.324 98.4595 123.307 98.4782C122.437 99.4357 121.309 100.12 120.06 100.448C120.647 100.959 121.365 101.295 122.132 101.415C120.769 104.118 119.151 106.684 117.303 109.079C116.634 109.937 115.919 110.759 115.162 111.54C114.952 111.757 114.738 111.969 114.521 112.175C114.026 112.645 113.525 113.098 113.019 113.534C111.334 114.986 109.54 116.305 107.652 117.478C107.563 117.537 107.473 117.59 107.385 117.643C104.302 119.519 101.011 121.025 97.5783 122.13C92.4142 123.79 87.0281 124.648 81.606 124.676C76.1833 124.648 70.7966 123.79 65.6319 122.13C62.1999 121.024 58.9088 119.518 55.8257 117.643C55.7598 117.601 55.6904 117.56 55.6244 117.518C53.712 116.336 51.8956 115.004 50.1922 113.535C49.6866 113.098 49.1859 112.645 48.6901 112.174C48.4626 111.957 48.2345 111.733 48.0145 111.505C47.6231 111.103 47.241 110.685 46.8741 110.256C46.5917 109.929 46.317 109.596 46.0515 109.26C44.161 106.835 42.5083 104.233 41.1163 101.49C41.0918 101.439 41.0784 101.412 41.0784 101.412C41.0784 101.412 41.1257 101.407 41.2103 101.392C41.9015 101.256 42.548 100.949 43.0904 100.498C43.1108 100.481 43.1318 100.464 43.1523 100.445C41.9035 100.117 40.7758 99.433 39.9053 98.4759C39.8882 98.4571 39.8769 98.4439 39.8715 98.4361H39.9205C40.9084 98.4628 41.8878 98.2469 42.7737 97.8069C45.0138 97.5421 47.1873 97.3459 47.8705 95.7567C54.8667 79.4436 73.9179 79.8461 78.6408 92.6303C80.1133 96.5753 80.1871 100.909 78.8496 104.903C79.7021 104.864 80.5554 104.84 81.4094 104.833H81.8102C82.7175 104.839 83.6246 104.865 84.5315 104.91C83.1907 100.915 83.2638 96.5776 84.7386 92.6303C89.4638 79.8461 108.513 79.4436 115.509 95.7567C116.17 97.299 118.233 97.5316 120.397 97.7847C121.294 98.2418 122.291 98.4665 123.297 98.4384H123.346H123.341Z" fill="white"/>
<path opacity="0.35" d="M122.133 101.415C122.133 101.415 118.969 107.953 114.52 112.175C112.338 114.244 109.946 116.077 107.382 117.643C104.3 119.519 101.008 121.025 97.5759 122.13C87.1948 125.525 76.0089 125.525 65.6278 122.13C62.1958 121.024 58.9046 119.518 55.8215 117.643C53.2578 116.077 50.8655 114.244 48.6842 112.175C44.2343 107.952 41.0702 101.415 41.0702 101.415C41.5396 101.344 41.9927 101.19 42.4084 100.96C44.1188 103.994 46.2289 106.782 48.6818 109.249C50.8632 111.318 53.2555 113.151 55.8192 114.717C58.9019 116.593 62.1931 118.099 65.6255 119.204C76.0066 122.599 87.1925 122.599 97.5736 119.204C101.006 118.098 104.297 116.592 107.38 114.717C109.944 113.151 112.336 111.318 114.517 109.249C116.97 106.782 119.08 103.994 120.791 100.96C121.206 101.191 121.659 101.345 122.129 101.415H122.133Z" fill="#B3B3B3"/>
<path d="M123.709 98.1437C123.662 98.0876 123.604 98.0427 123.537 98.0123C123.471 97.9819 123.399 97.9667 123.326 97.968C122.431 97.9938 121.544 97.8107 120.732 97.4331C120.683 97.4079 120.643 97.3683 120.617 97.3196C120.591 97.271 120.581 97.2155 120.587 97.1608C120.621 96.896 120.651 96.6242 120.678 96.3483C120.736 95.7812 120.776 95.2013 120.804 94.619C120.887 92.7582 120.842 90.8939 120.668 89.0394C120.382 86.0957 119.848 83.1816 119.073 80.3281C118.725 79.0269 118.311 77.7445 117.832 76.486C117.804 76.4121 117.777 76.3407 117.749 76.2686C117.698 76.138 117.645 76.0062 117.592 75.8738C117.566 75.8076 117.537 75.7397 117.511 75.6717C117.5 75.6436 117.487 75.6131 117.476 75.5868C117.385 75.3636 117.293 75.1427 117.197 74.9213C116.73 73.8439 116.219 72.7904 115.663 71.761C115.581 71.6116 115.501 71.4622 115.418 71.3152C114.056 68.8817 112.44 66.6002 110.598 64.5089C106.839 60.244 102.22 56.8296 97.0482 54.492C95.0045 53.5738 92.8869 52.8315 90.7182 52.273C90.2813 52.1593 89.8239 52.0498 89.3631 51.9479C88.9396 51.8536 88.5102 51.7663 88.0832 51.6872C87.7406 51.6228 87.3974 51.5628 87.0536 51.5074C86.5247 51.4222 85.9926 51.3492 85.4575 51.2883C82.5703 49.8562 79.4783 48.8854 76.293 48.4109C76.4942 48.5111 79.4431 49.4805 79.922 51.0874C79.6846 51.1026 79.4495 51.1196 79.2127 51.1401C75.3538 48.804 66.163 49.4864 66.163 49.4864C66.163 49.4864 71.3863 49.579 74.8999 51.7282C74.5441 51.7944 74.1923 51.8665 73.8382 51.9455C73.3773 52.0475 72.9217 52.157 72.4831 52.2706C70.3157 52.8291 68.1995 53.5712 66.1571 54.489C60.984 56.8261 56.3647 60.2405 52.6052 64.506C50.7645 66.5986 49.1496 68.8808 47.7872 71.3146C47.7044 71.4622 47.6215 71.6116 47.5404 71.7604C46.9831 72.7887 46.4725 73.8421 46.0086 74.9207C45.9012 75.1685 45.7956 75.4198 45.6924 75.6711C45.5833 75.9412 45.4777 76.2118 45.3721 76.4836V76.4871L45.3663 76.5041C44.8878 77.7558 44.4756 79.0321 44.1313 80.3275C43.3565 83.1812 42.8232 86.0955 42.537 89.0394C42.3635 90.8939 42.3183 92.7582 42.4017 94.619C42.4297 95.1995 42.4711 95.7812 42.5277 96.3465C42.5539 96.6242 42.586 96.8966 42.6181 97.1613C42.6244 97.2161 42.6139 97.2716 42.5881 97.3202C42.5623 97.3689 42.5222 97.4085 42.4734 97.4337C41.6565 97.8135 40.7626 97.9966 39.8629 97.9686C39.7731 97.9677 39.685 97.9929 39.6091 98.041C39.5332 98.0892 39.4727 98.1583 39.435 98.2401C39.3972 98.322 39.3838 98.413 39.3962 98.5023C39.4087 98.5915 39.4466 98.6753 39.5053 98.7435C40.1256 99.4349 40.8694 100.004 41.6981 100.42C41.7312 100.437 41.7589 100.463 41.7776 100.495C41.7964 100.527 41.8055 100.564 41.8039 100.601C41.8023 100.638 41.7901 100.674 41.7686 100.704C41.7471 100.734 41.7174 100.758 41.683 100.772C41.4696 100.853 41.2483 100.912 41.0226 100.947C40.9473 100.955 40.875 100.98 40.8118 101.022C40.7486 101.064 40.6964 101.12 40.6597 101.186C40.623 101.253 40.603 101.327 40.6013 101.403C40.5995 101.479 40.6162 101.554 40.6498 101.622C40.7799 101.892 43.902 108.287 48.363 112.518C53.514 117.362 59.7295 120.919 66.5054 122.9C71.4059 124.365 76.4895 125.122 81.6027 125.147C86.7151 125.122 91.7978 124.365 96.6976 122.9C103.474 120.919 109.689 117.362 114.84 112.518C119.301 108.284 122.424 101.89 122.553 101.622C122.586 101.554 122.603 101.479 122.601 101.404C122.599 101.328 122.579 101.254 122.543 101.188C122.506 101.122 122.455 101.066 122.392 101.024C122.329 100.983 122.257 100.957 122.182 100.949C121.956 100.913 121.734 100.854 121.52 100.773C121.485 100.76 121.455 100.736 121.434 100.706C121.413 100.676 121.4 100.64 121.398 100.603C121.397 100.566 121.406 100.529 121.424 100.497C121.442 100.465 121.47 100.439 121.503 100.422C122.332 100.005 123.076 99.4364 123.697 98.7453C123.767 98.6617 123.806 98.5565 123.808 98.4473C123.81 98.3382 123.774 98.2318 123.707 98.146L123.709 98.1437ZM121.863 99.119C121.287 99.5274 120.64 99.8224 119.954 99.9883C119.87 100.008 119.793 100.051 119.731 100.112C119.67 100.173 119.626 100.25 119.604 100.334C119.583 100.418 119.586 100.506 119.612 100.589C119.638 100.672 119.686 100.746 119.751 100.803C120.16 101.159 120.629 101.441 121.134 101.634C121.172 101.649 121.207 101.671 121.235 101.7C121.264 101.728 121.286 101.763 121.3 101.801C121.314 101.839 121.32 101.879 121.318 101.919C121.315 101.96 121.304 101.999 121.285 102.035C120.286 103.914 117.61 108.596 114.198 111.833C102.916 122.542 88.9337 124.181 81.6044 124.205C74.2734 124.181 60.2903 122.542 49.0088 111.833C45.6002 108.597 42.922 103.914 41.9221 102.035C41.903 101.999 41.8916 101.96 41.8888 101.92C41.886 101.879 41.8919 101.839 41.906 101.801C41.9201 101.763 41.9421 101.728 41.9705 101.7C41.999 101.671 42.0332 101.649 42.0709 101.634C42.5778 101.441 43.0468 101.16 43.4564 100.803C43.5217 100.746 43.57 100.672 43.5959 100.589C43.6219 100.506 43.6245 100.418 43.6034 100.334C43.5819 100.25 43.538 100.173 43.4763 100.112C43.4146 100.051 43.3375 100.008 43.2534 99.9883C42.5681 99.8224 41.9204 99.5274 41.3446 99.119C41.3133 99.0973 41.2891 99.0668 41.2749 99.0313C41.2608 98.9958 41.2573 98.957 41.2649 98.9195C41.2726 98.8821 41.291 98.8477 41.3179 98.8207C41.3448 98.7937 41.3791 98.7752 41.4164 98.7676C42.1389 98.6481 42.8261 98.3692 43.4284 97.951C43.4962 97.9006 43.5491 97.8327 43.5816 97.7545C43.6141 97.6763 43.6248 97.5908 43.6127 97.507C43.5544 97.1121 43.5071 96.6904 43.4639 96.254C43.4114 95.7039 43.37 95.141 43.3414 94.5739C43.2603 92.7571 43.3049 90.9367 43.475 89.1261C43.7559 86.2362 44.2791 83.3752 45.039 80.5736C45.3867 79.2798 45.8021 78.0053 46.2833 76.7554L46.2891 76.7443C46.2926 76.7332 46.2967 76.7238 46.3002 76.7121C46.3037 76.7003 46.3002 76.7062 46.3037 76.7027C46.3113 76.6798 46.3224 76.6552 46.3317 76.6306C50.0547 67.1684 57.3035 59.5356 66.5392 55.3525C67.4858 54.9272 68.4507 54.5398 69.4338 54.1903C70.5142 53.8068 71.6096 53.4717 72.7199 53.1851C73.1469 53.0738 73.5949 52.966 74.043 52.8676C74.6283 52.7371 75.2174 52.6211 75.8105 52.5196L76.0497 52.4798C76.125 52.4663 76.202 52.4534 76.2772 52.4417C76.2803 52.4408 76.2835 52.4408 76.2865 52.4417C76.4388 52.4171 76.5916 52.3942 76.7439 52.372C78.3525 52.1343 79.9742 51.9974 81.5998 51.9619C83.2206 51.9983 84.8376 52.1352 86.4416 52.372C86.472 52.3755 86.5 52.3796 86.5321 52.3855C86.7916 52.4235 87.0495 52.4669 87.3097 52.5102L87.3773 52.5214C87.5259 52.546 87.6747 52.5725 87.8236 52.601H87.8271C88.271 52.6842 88.7138 52.7733 89.1542 52.8711C89.604 52.9695 90.0485 53.0773 90.4756 53.1886C91.5839 53.4739 92.6836 53.8107 93.7616 54.1938C94.744 54.5417 95.7118 54.9307 96.6562 55.356C105.892 59.5391 113.142 67.1718 116.865 76.6342L116.945 76.838C116.945 76.838 116.945 76.838 116.945 76.8415C117.415 78.0641 117.819 79.3108 118.157 80.5765C118.918 83.3779 119.442 86.2389 119.723 89.129C119.893 90.9397 119.937 92.76 119.856 94.5768C119.828 95.1421 119.787 95.7092 119.732 96.2569C119.691 96.6933 119.642 97.1151 119.585 97.5099C119.573 97.5937 119.584 97.6793 119.616 97.7575C119.649 97.8356 119.702 97.9035 119.769 97.9539C120.372 98.3722 121.059 98.6511 121.781 98.7705C121.819 98.7774 121.853 98.795 121.88 98.8212C121.908 98.8474 121.927 98.8809 121.935 98.9179C121.944 98.9548 121.942 98.9934 121.929 99.029C121.916 99.0647 121.893 99.0957 121.863 99.1185L121.863 99.119Z" fill="black"/>
<path d="M123.935 97.9672C123.862 97.8768 123.77 97.8043 123.665 97.7551C123.56 97.706 123.446 97.6816 123.33 97.6837C122.488 97.7062 121.651 97.5409 120.88 97.1998C120.877 97.1988 120.874 97.1967 120.873 97.1939C120.871 97.1911 120.87 97.1878 120.871 97.1846C120.905 96.9257 120.935 96.6515 120.961 96.3756C121.016 95.822 121.059 95.2357 121.087 94.6311C121.172 92.7573 121.126 90.8798 120.952 89.0123C120.664 86.0525 120.128 83.1225 119.348 80.2536C119.003 78.9596 118.592 77.684 118.117 76.4319L118.014 76.1636C117.963 76.0329 117.911 75.8988 117.858 75.7664L117.827 75.6908C117.811 75.6493 117.794 75.6077 117.777 75.5626L117.741 75.4776C117.649 75.2527 117.557 75.0295 117.459 74.8069C116.992 73.7279 116.475 72.6559 115.913 71.6243C115.832 71.4732 115.752 71.3238 115.667 71.1744C114.294 68.7241 112.667 66.4268 110.813 64.3207C107.027 60.0243 102.375 56.5848 97.1661 54.2299C95.1083 53.3045 92.9756 52.5571 90.7912 51.9957C90.3525 51.8786 89.8934 51.7708 89.4267 51.6671C89.0125 51.5745 88.5779 51.4873 88.1375 51.4047C87.7665 51.335 87.4281 51.2764 87.1003 51.2248L87.0799 51.2213C86.5601 51.1381 86.0444 51.0661 85.5439 51.0098H85.538C82.7113 49.6003 79.6828 48.6424 76.5619 48.1705C76.4587 48.1535 76.3904 48.1424 76.3624 48.1366L74.015 47.5601C74.0112 47.5594 74.0072 47.56 74.0038 47.5619C74.0004 47.5638 73.9978 47.5669 73.9964 47.5706C73.9951 47.5743 73.9951 47.5783 73.9965 47.582C73.9978 47.5857 74.0005 47.5887 74.0039 47.5906L76.1705 48.6661C76.1967 48.6796 76.2592 48.7042 76.3548 48.7417C78.2146 49.464 79.0651 50.1669 79.4361 50.7205C79.3626 50.7978 79.3778 50.7849 79.3008 50.8622C75.4139 48.5695 67.1156 49.4183 66.5941 49.4563C66.5865 49.4563 66.0463 49.4733 66.0463 49.4809L74.0967 51.6015L73.7822 51.6694C73.3284 51.7696 72.8693 51.8809 72.4178 51.9963C70.2341 52.5585 68.1019 53.3058 66.044 54.2299C60.8335 56.584 56.1805 60.0229 52.3934 64.3189C50.5408 66.4261 48.9143 68.7233 47.5411 71.1727C47.4582 71.322 47.3736 71.4714 47.2926 71.6226C46.7296 72.66 46.2122 73.7314 45.749 74.8051C45.6417 75.0547 45.5343 75.3077 45.4311 75.5614C45.3202 75.8338 45.2146 76.1056 45.1091 76.378L45.0414 76.5537L45.0449 76.5572C44.5882 77.7686 44.1932 79.0025 43.8612 80.2541C43.0835 83.1231 42.548 86.0529 42.2605 89.0123C42.0861 90.8798 42.0409 92.7573 42.1252 94.6311C42.1555 95.2398 42.1969 95.8256 42.2512 96.3721C42.2774 96.6462 42.3095 96.9145 42.3399 97.1717C42.3406 97.175 42.3403 97.1784 42.3389 97.1815C42.3376 97.1846 42.3352 97.1871 42.3323 97.1887C41.5687 97.5382 40.7356 97.7075 39.8968 97.6837C39.7329 97.6786 39.5716 97.7255 39.4359 97.8178C39.3508 97.8781 39.2791 97.9555 39.2253 98.0451C39.1715 98.1346 39.1368 98.2344 39.1234 98.3382C39.1099 98.4419 39.1181 98.5473 39.1473 98.6477C39.1765 98.7481 39.2261 98.8413 39.293 98.9214C39.888 99.5919 40.5964 100.151 41.3855 100.574C41.2576 100.612 41.1275 100.643 40.9958 100.665C40.8757 100.677 40.7604 100.719 40.6597 100.786C40.559 100.853 40.4759 100.943 40.4175 101.049C40.359 101.155 40.327 101.274 40.3241 101.395C40.3212 101.517 40.3475 101.637 40.4008 101.746C40.4311 101.812 43.6285 108.412 48.174 112.727C53.3565 117.601 59.61 121.179 66.4273 123.173C71.3545 124.648 76.466 125.409 81.6074 125.434C86.7474 125.409 91.8575 124.647 96.7834 123.173C103.601 121.179 109.855 117.6 115.039 112.727C119.585 108.412 122.781 101.812 122.812 101.746C122.864 101.637 122.89 101.518 122.886 101.398C122.883 101.278 122.852 101.161 122.794 101.055C122.737 100.95 122.655 100.86 122.556 100.793C122.457 100.725 122.344 100.683 122.225 100.668H122.221C122.087 100.647 121.954 100.616 121.824 100.576C122.611 100.151 123.32 99.5929 123.917 98.9255C124.028 98.7921 124.091 98.6243 124.094 98.4503C124.097 98.2762 124.041 98.1063 123.934 97.969L123.935 97.9672ZM46.0418 76.6041C46.04 76.6069 46.0388 76.6101 46.0383 76.6135V76.61C46.0393 76.6079 46.0404 76.6059 46.0418 76.6041Z" fill="black"/>
<path d="M62.6168 146.767C62.6092 146.157 60.3073 147.21 60.3114 146.595C60.3081 143.345 60.5225 140.098 60.9531 136.876C60.9852 136.638 61.0207 136.4 61.0563 136.164C61.1769 135.376 61.3074 134.613 61.4478 133.875C62.223 129.808 56.1456 123.238 58.3291 121.271C58.7147 120.923 60.1772 120.798 61.1619 120.776C61.9244 120.582 62.0918 120.303 63.1267 120.09C65.4058 119.621 67.9149 119.071 68.7561 118.306C72.0573 115.299 76.2866 114.006 81.4272 113.981H81.5479C86.6885 114.006 90.9155 115.301 94.2167 118.306C95.3706 119.355 98.2634 119.419 100.827 119.848C102.423 120.116 97.8983 120.222 104.731 121.407C105.053 121.466 105.139 121.916 105.263 122.228C106.387 125.023 101.313 132.205 101.916 136.163C102.42 139.626 102.67 143.121 102.662 146.62C102.665 147.235 101.527 146.957 101.52 147.565" fill="white"/>
<path d="M76.3335 145.893C77.3877 145.893 78.2422 145.035 78.2422 143.977C78.2422 142.918 77.3877 142.06 76.3335 142.06C75.2793 142.06 74.4247 142.918 74.4247 143.977C74.4247 145.035 75.2793 145.893 76.3335 145.893Z" fill="#0D1338"/>
<path d="M76.3547 138.265C77.4089 138.265 78.2635 137.407 78.2635 136.349C78.2635 135.29 77.4089 134.432 76.3547 134.432C75.3006 134.432 74.446 135.29 74.446 136.349C74.446 137.407 75.3006 138.265 76.3547 138.265Z" fill="#0D1338"/>
<path d="M86.6176 145.893C87.6718 145.893 88.5264 145.035 88.5264 143.977C88.5264 142.918 87.6718 142.06 86.6176 142.06C85.5634 142.06 84.7089 142.918 84.7089 143.977C84.7089 145.035 85.5634 145.893 86.6176 145.893Z" fill="#0D1338"/>
<path d="M86.637 138.265C87.6911 138.265 88.5457 137.407 88.5457 136.349C88.5457 135.29 87.6911 134.432 86.637 134.432C85.5828 134.432 84.7282 135.29 84.7282 136.349C84.7282 137.407 85.5828 138.265 86.637 138.265Z" fill="#0D1338"/>
<path d="M79.2412 121.829C78.2623 122.887 77.2688 123.968 76.3086 125.014C74.9383 126.507 73.6433 127.915 72.3803 129.272C70.1675 131.633 68.858 134.704 68.6836 137.941C68.4409 142.795 68.4613 148.773 68.5593 153.897C68.2355 153.855 67.9229 153.81 67.6184 153.766C67.5221 148.658 67.5017 142.725 67.7461 137.891C67.9321 134.432 69.3308 131.15 71.6949 128.627C72.9561 127.273 74.2511 125.865 75.6191 124.374C76.5793 123.329 77.5728 122.247 78.5534 121.187C78.6385 121.095 78.7564 121.041 78.8812 121.037C79.0059 121.032 79.1273 121.078 79.2187 121.163C79.3101 121.249 79.3639 121.367 79.3683 121.493C79.3727 121.618 79.3274 121.74 79.2423 121.832L79.2412 121.829Z" fill="#0D1338"/>
<path d="M61.4441 136.759C61.1524 136.641 60.8531 136.524 60.5463 136.398L61.4441 136.759ZM102.431 136.404C102.124 136.527 101.823 136.644 101.534 136.755L102.431 136.404Z" fill="black"/>
<path d="M60.4637 136.98C60.5407 135.951 61.8848 129.761 62.5247 130.227C62.587 130.251 62.6378 130.298 62.6665 130.358C62.6953 130.419 62.6999 130.488 62.6793 130.552C62.3622 131.62 62.1034 132.706 61.904 133.803C61.6893 134.897 61.5575 136.014 61.3901 137.114C61.363 137.229 61.2939 137.33 61.1965 137.396C61.0992 137.463 60.9805 137.49 60.864 137.473C60.7475 137.456 60.6416 137.396 60.5672 137.304C60.4928 137.213 60.4552 137.096 60.462 136.978L60.4637 136.98Z" fill="#0D1338"/>
<path d="M102.502 137.006C102.35 135.205 101.088 129.761 100.448 130.227C100.386 130.251 100.335 130.298 100.307 130.358C100.278 130.419 100.273 130.488 100.294 130.552C100.611 131.62 100.87 132.706 101.069 133.803C101.284 134.897 101.413 136.014 101.579 137.116C101.603 137.23 101.669 137.331 101.764 137.399C101.858 137.467 101.975 137.497 102.09 137.483C102.206 137.469 102.312 137.413 102.388 137.325C102.464 137.236 102.505 137.123 102.502 137.006Z" fill="#0D1338"/>
<path d="M123.343 98.438C123.343 98.438 123.326 98.4585 123.309 98.4779C122.438 99.4358 121.31 100.12 120.06 100.449C120.648 100.96 121.367 101.294 122.135 101.415C120.771 104.118 119.154 106.684 117.305 109.079C116.637 109.937 115.922 110.759 115.165 111.539C114.954 111.757 114.74 111.969 114.523 112.176C114.028 112.645 113.528 113.097 113.023 113.533C111.338 114.986 109.544 116.305 107.656 117.478C107.565 117.536 107.477 117.589 107.389 117.643C104.305 119.518 101.013 121.025 97.5807 122.131C92.4166 123.791 87.0304 124.65 81.6083 124.677C76.1853 124.65 70.7981 123.791 65.6331 122.131C62.2009 121.025 58.9097 119.518 55.8269 117.643C55.7592 117.603 55.6915 117.561 55.6256 117.52C53.7136 116.337 51.8973 115.005 50.1934 113.536C49.6878 113.1 49.1865 112.647 48.6895 112.177C48.462 111.958 48.2356 111.735 48.0157 111.508C47.6221 111.104 47.242 110.687 46.8752 110.259C46.5929 109.932 46.3187 109.6 46.0527 109.263C44.1608 106.839 42.5074 104.237 41.1158 101.493C41.0913 101.442 41.0778 101.416 41.0778 101.416C41.1221 101.411 41.1661 101.404 41.2097 101.395C41.9012 101.26 42.5479 100.953 43.0898 100.501C43.1103 100.484 43.1313 100.467 43.1482 100.45C41.899 100.122 40.7713 99.4371 39.9012 98.479C39.8841 98.4603 39.8728 98.447 39.8674 98.4392H39.9164C40.9042 98.4648 41.8833 98.2489 42.7696 97.8101C42.8372 97.7743 42.8973 97.738 42.9504 97.7064C43.0188 97.6661 43.0848 97.6219 43.1482 97.574C43.1423 97.5359 43.1388 97.4984 43.133 97.4568C43.0805 97.0749 43.0368 96.6895 42.9977 96.2999C42.9432 95.7387 42.9024 95.1705 42.8752 94.5953C42.7915 92.7566 42.8362 90.9143 43.0088 89.0818C43.2907 86.1651 43.8192 83.2777 44.5885 80.4508C46.4049 73.7569 49.9542 67.6653 54.8755 62.7954C59.7967 57.9256 65.9144 54.4512 72.6066 52.7255C73.0487 52.6083 73.4968 52.5047 73.9448 52.4039C74.6036 52.2582 75.2692 52.1297 75.9416 52.0184C74.3998 50.1738 69.6927 49.8844 69.5912 49.7503C70.5415 49.735 75.5146 49.9922 79.1845 51.6137C79.2317 51.6342 79.2807 51.6588 79.3274 51.6834C79.4703 51.6553 79.7999 51.5943 80.1196 51.5451H80.133C80.3548 51.505 80.5797 51.4854 80.8051 51.4866C80.7324 51.0254 80.5329 50.5937 80.2291 50.2402C79.9252 49.8868 79.5291 49.6256 79.0853 49.4861C79.1833 49.5089 84.2988 50.677 85.0239 51.7086C86.4489 51.8629 87.8645 52.0951 89.2643 52.4039C89.7141 52.5041 90.1604 52.6101 90.606 52.7255C97.2978 54.4515 103.415 57.926 108.336 62.7958C113.257 67.6656 116.806 73.7571 118.622 80.4508C119.391 83.2781 119.919 86.1656 120.202 89.0824C120.374 90.9149 120.419 92.7572 120.335 94.5959C120.307 95.1703 120.265 95.7385 120.211 96.3005C120.172 96.691 120.127 97.0767 120.077 97.4574C120.071 97.4973 120.066 97.5348 120.06 97.5746C120.1 97.6051 120.154 97.6425 120.224 97.6859C120.273 97.7164 120.33 97.7503 120.393 97.7861C120.736 97.9718 121.1 98.1152 121.477 98.2131C122.071 98.3662 122.681 98.4423 123.294 98.4398L123.343 98.438Z" fill="white"/>
<path opacity="0.49" d="M122.889 98.5687C122.889 98.5687 122.872 98.5875 122.857 98.6068C121.748 99.4223 120.492 100.013 119.158 100.345C119.947 100.922 120.838 101.341 121.784 101.58C120.296 104.135 118.643 106.591 116.837 108.93C116.207 109.736 113.156 112.646 112.676 113.06C111.015 114.49 107.176 116.664 107.091 116.714C104.228 118.442 101.265 119.999 98.2182 121.376C96.8987 121.991 87.548 125.008 84.1091 123.954C99.3173 119.289 103.223 102.122 103.223 85.3252C103.223 82.2124 108.356 83.5544 107.642 80.6641C109.152 76.9936 104.936 66.0751 101.005 62.015C96.8636 57.734 86.9641 52.6576 86.2827 52.2153C87.5043 52.363 94.6037 54.661 96.516 55.5192C105.961 59.7603 114.713 69.7948 117.787 81.3067C118.519 83.9977 119.023 86.7464 119.291 89.523C119.456 91.2674 119.499 93.0213 119.419 94.7717C119.391 95.32 119.353 95.8601 119.302 96.3955C119.266 96.7657 119.223 97.1347 119.174 97.4973C119.168 97.5354 119.165 97.5711 119.159 97.6069C119.197 97.635 119.248 97.6713 119.315 97.7129C119.36 97.741 119.415 97.7715 119.475 97.8096C119.802 97.9857 120.149 98.1222 120.508 98.2161C121.273 98.4086 122.054 98.5263 122.842 98.5676H122.889V98.5687Z" fill="#C5EFFF"/>
<path d="M86.002 97.6116C85.855 98.6661 84.5092 100.387 82.7352 100.137C80.9612 99.8874 79.4684 98.2091 79.6142 97.1524C79.7601 96.0956 81.0971 96.2585 82.9796 96.262C84.7507 96.262 86.1513 96.5549 86.0026 97.6134L86.002 97.6116Z" fill="black"/>
<path d="M89.0737 102.889C88.8892 102.967 88.7121 103.061 88.5446 103.171C88.5772 103.714 88.5551 104.259 88.4786 104.798C87.9536 108.531 85.0368 111.207 81.9515 110.773C78.8661 110.339 76.9824 107.254 77.2648 103.723C77.0217 103.464 76.7437 103.241 76.4387 103.059C75.9027 102.804 75.4848 102.352 75.2715 101.796C75.0582 101.24 75.0657 100.623 75.2924 100.072C75.3754 99.8032 75.5047 99.5512 75.6745 99.3274C75.8495 99.0796 76.1301 99.2595 76.0549 99.543C76.0548 99.5504 76.0528 99.5577 76.0491 99.5641C75.5485 101.503 76.3052 102.312 77.4532 103.137C78.329 103.637 79.3407 103.842 80.3409 103.723C81.3411 103.605 82.2774 103.168 83.0132 102.478C83.6713 102.969 84.4455 103.281 85.2597 103.381C86.0739 103.481 86.9 103.366 87.6567 103.048C89.1081 102.3 90.1809 101.669 89.9038 99.475V99.454C89.8659 99.1646 90.1675 99.0211 90.3121 99.2894C90.4513 99.5345 90.5474 99.8018 90.5962 100.08C90.7498 100.654 90.678 101.266 90.3959 101.789C90.1137 102.312 89.6426 102.707 89.0795 102.891L89.0737 102.889Z" fill="black"/>
<path d="M71.898 96.4196C71.2825 100.824 68.9812 106.94 59.8592 105.055C54.3127 103.91 52.8181 98.5688 54.0601 94.299C55.8877 88.0182 60.5837 86.1361 64.9688 86.7558C69.3539 87.3756 72.5152 92.0156 71.898 96.4196Z" fill="black"/>
<path d="M63.0669 96.408C63.9026 96.408 64.5801 95.7276 64.5801 94.8884C64.5801 94.0492 63.9026 93.3689 63.0669 93.3689C62.2311 93.3689 61.5536 94.0492 61.5536 94.8884C61.5536 95.7276 62.2311 96.408 63.0669 96.408Z" fill="white"/>
<path d="M65.9809 101.001C66.7709 101.001 67.4113 100.358 67.4113 99.5645C67.4113 98.7713 66.7709 98.1282 65.9809 98.1282C65.1909 98.1282 64.5505 98.7713 64.5505 99.5645C64.5505 100.358 65.1909 101.001 65.9809 101.001Z" fill="white"/>
<path d="M68.0349 82.3181C67.7974 82.9911 66.6984 81.8231 61.5526 82.7867C58.1254 83.4311 55.9716 86.0431 55.194 85.0795C54.8551 84.66 57.5543 82.5225 60.9517 81.7756C64.1649 81.0686 68.2869 81.6075 68.0343 82.3181H68.0349Z" fill="black"/>
<path d="M86.8522 106.737C86.8165 107.147 86.6708 107.54 86.4304 107.873C85.8826 108.825 83.0516 110.36 82.1275 109.875C81.1942 109.385 80.9999 108.285 81.3295 107.266C81.5504 106.465 81.9538 105.726 82.5079 105.107C82.7596 104.788 83.0868 104.537 83.46 104.376C83.8331 104.216 84.2402 104.152 84.6441 104.191C84.9557 104.212 85.2599 104.295 85.5394 104.435C85.819 104.575 86.0684 104.768 86.2735 105.005C86.4785 105.241 86.6352 105.516 86.7344 105.813C86.8337 106.11 86.8737 106.424 86.8522 106.737Z" fill="#CE111F"/>
<path d="M93.5272 92.6929C92.8948 97.2035 93.4408 103.881 102.955 104.615C108.741 105.06 111.716 100.222 111.694 95.6664C111.66 88.9603 107.566 85.7742 103.07 85.1386C98.5732 84.503 94.1578 88.1794 93.5249 92.6953L93.5272 92.6929Z" fill="black"/>
<path d="M100.267 94.9101C101.124 94.9101 101.819 94.2128 101.819 93.3525C101.819 92.4923 101.124 91.7949 100.267 91.7949C99.4108 91.7949 98.7163 92.4923 98.7163 93.3525C98.7163 94.2128 99.4108 94.9101 100.267 94.9101Z" fill="white"/>
<path d="M98.4713 98.9392C99.28 98.9392 99.9355 98.2809 99.9355 97.4689C99.9355 96.6568 99.28 95.9985 98.4713 95.9985C97.6626 95.9985 97.0071 96.6568 97.0071 97.4689C97.0071 98.2809 97.6626 98.9392 98.4713 98.9392Z" fill="white"/>
<path d="M109.023 83.2721C108.576 83.8298 107.925 82.3595 102.751 81.5675C99.3044 81.0403 96.4133 82.7883 95.9939 81.6202C95.8131 81.11 99.0635 79.9871 102.516 80.4123C105.781 80.8113 109.495 82.6864 109.023 83.2721Z" fill="black"/>
<path d="M80.3791 116.851C81.1699 117.23 82.0348 117.428 82.9111 117.43C83.7874 117.432 84.6533 117.239 85.4461 116.864C85.4684 116.855 85.4932 116.855 85.5159 116.862C85.5386 116.87 85.5579 116.886 85.5703 116.906C85.5826 116.927 85.5873 116.951 85.5835 116.975C85.5797 116.999 85.5676 117.021 85.5494 117.036C84.773 117.573 83.8522 117.859 82.9097 117.857C81.9672 117.855 81.0476 117.565 80.2735 117.025C80.2632 117.017 80.2547 117.007 80.2485 116.995C80.2422 116.983 80.2383 116.97 80.2371 116.957C80.2358 116.944 80.2372 116.931 80.2412 116.918C80.2451 116.905 80.2515 116.894 80.2601 116.883C80.274 116.867 80.2928 116.855 80.3138 116.85C80.3348 116.845 80.3568 116.847 80.3767 116.855L80.3791 116.851Z" fill="#0D1338"/>
<path d="M94.6709 127.405H67.7064V150.797H94.6709V127.405Z" fill="#B18964"/>
<path d="M94.671 151.268H67.7071C67.5833 151.268 67.4646 151.219 67.3771 151.131C67.2896 151.043 67.2404 150.924 67.2404 150.8V127.406C67.2404 127.282 67.2896 127.163 67.3771 127.075C67.4646 126.987 67.5833 126.938 67.7071 126.938H94.6716C94.7954 126.938 94.9141 126.987 95.0016 127.075C95.0891 127.163 95.1383 127.282 95.1383 127.406V150.799C95.1384 150.861 95.1264 150.922 95.1029 150.979C95.0794 151.036 95.045 151.088 95.0016 151.131C94.9582 151.175 94.9067 151.209 94.8499 151.233C94.7932 151.256 94.7324 151.269 94.671 151.268ZM68.1755 150.325H94.2009V127.875H68.1755V150.325Z" fill="black"/>
<path d="M64.9462 155.204L67.7055 150.798V127.405L64.9462 134.604V155.204Z" fill="#B18964"/>
<path d="M64.9435 155.674C64.8995 155.674 64.8556 155.668 64.8134 155.655C64.7156 155.627 64.6297 155.567 64.5685 155.486C64.5074 155.404 64.4744 155.304 64.4745 155.202V134.602C64.4748 134.544 64.4857 134.486 64.5066 134.432L67.2659 127.233C67.3026 127.127 67.3757 127.038 67.4721 126.982C67.5684 126.926 67.6816 126.906 67.7912 126.926C67.9008 126.947 67.9995 127.006 68.0695 127.093C68.1395 127.18 68.1762 127.289 68.173 127.401V150.794C68.173 150.883 68.1482 150.97 68.1012 151.045L65.3419 155.451C65.3 155.519 65.2415 155.575 65.172 155.613C65.1024 155.652 65.0242 155.672 64.9447 155.672L64.9435 155.674ZM65.4102 134.691V153.567L67.2303 150.66V129.941L65.4102 134.691Z" fill="#0D1338"/>
<path d="M97.4301 155.204L94.6708 150.798V127.405L97.4301 134.605V155.204Z" fill="#B18964"/>
<path d="M97.4295 155.674C97.35 155.674 97.2717 155.654 97.2022 155.615C97.1327 155.577 97.0742 155.521 97.0322 155.453L94.2729 151.047C94.226 150.972 94.2012 150.885 94.2012 150.796V127.403C94.1979 127.291 94.2346 127.182 94.3046 127.095C94.3746 127.008 94.4734 126.949 94.583 126.928C94.6926 126.908 94.8058 126.928 94.9021 126.984C94.9985 127.04 95.0716 127.129 95.1083 127.235L97.8676 134.434C97.8885 134.488 97.8994 134.546 97.8997 134.604V155.204C97.8994 155.306 97.8662 155.405 97.8052 155.487C97.7441 155.569 97.6583 155.629 97.5607 155.657C97.5185 155.67 97.4747 155.676 97.4307 155.676L97.4295 155.674ZM95.1386 150.66L96.9587 153.567V134.691L95.1416 129.939L95.1386 150.66Z" fill="black"/>
<path d="M79.0917 142.126L78.6099 142.385C77.602 142.924 76.422 143.039 75.3295 142.705C74.2371 142.371 73.3216 141.614 72.7845 140.602L62.438 121.11C61.9015 120.098 61.787 118.913 62.1199 117.816C62.4528 116.72 63.2057 115.8 64.2132 115.261L64.695 115.002C65.703 114.462 66.8829 114.347 67.9754 114.681C69.0678 115.016 69.9833 115.772 70.5205 116.784L80.6295 135.83L80.8669 136.276C81.1329 136.777 81.298 137.326 81.3527 137.891C81.4075 138.456 81.3508 139.027 81.186 139.57C81.0212 140.113 80.7514 140.619 80.392 141.057C80.0327 141.496 79.5908 141.859 79.0917 142.126Z" fill="#CC8B1F"/>
<g opacity="0.4">
<path d="M80.4665 139.739C80.4139 139.167 80.2475 138.611 79.9771 138.104L69.6307 118.612C69.0936 117.6 68.1781 116.844 67.0856 116.509C65.9931 116.175 64.8132 116.29 63.8053 116.83L63.3234 117.088C62.83 117.352 62.3926 117.711 62.0359 118.143C62.1699 117.533 62.434 116.96 62.81 116.463C63.1859 115.966 63.6649 115.557 64.2136 115.264L64.6955 115.005C65.7033 114.466 66.8832 114.351 67.9757 114.685C69.0681 115.019 69.9837 115.775 70.5209 116.787L80.6299 135.833C80.9098 136.452 81.0407 137.128 81.0119 137.807C80.9831 138.486 80.7955 139.149 80.4642 139.741L80.4665 139.739Z" fill="white"/>
</g>
<path d="M76.5942 143.364C75.727 143.365 74.876 143.129 74.132 142.681C73.3881 142.234 72.7793 141.592 72.3707 140.824L62.0242 121.331C61.7292 120.775 61.5461 120.166 61.4854 119.539C61.4247 118.912 61.4875 118.279 61.6703 117.677C61.8532 117.074 62.1524 116.514 62.5509 116.027C62.9495 115.541 63.4395 115.138 63.9931 114.842L64.4749 114.583C65.0285 114.287 65.6347 114.103 66.2591 114.042C66.8834 113.981 67.5136 114.044 68.1136 114.228C68.7137 114.411 69.2718 114.712 69.7562 115.112C70.2406 115.512 70.6418 116.004 70.9368 116.56L81.2826 136.053C81.5776 136.609 81.7607 137.218 81.8215 137.845C81.8822 138.472 81.8193 139.105 81.6365 139.707C81.4537 140.31 81.1545 140.87 80.7559 141.357C80.3574 141.843 79.8674 142.246 79.3138 142.542L78.8319 142.801C78.1435 143.17 77.3748 143.364 76.5942 143.364ZM66.7162 114.963C66.088 114.963 65.4698 115.12 64.9165 115.418L64.4347 115.677C63.5366 116.158 62.8655 116.977 62.5691 117.955C62.2726 118.933 62.375 119.989 62.8538 120.891L73.2002 140.383C73.6798 141.284 74.4958 141.957 75.4692 142.255C76.4426 142.552 77.4938 142.45 78.3921 141.97L78.8739 141.711C79.772 141.23 80.4431 140.411 80.7395 139.433C81.036 138.456 80.9336 137.4 80.4548 136.498L70.1084 117.006C69.7803 116.389 69.2914 115.873 68.6941 115.513C68.0967 115.154 67.4132 114.964 66.7168 114.964L66.7162 114.963Z" fill="black"/>
<path d="M66.8755 117.802L65.2735 120.383C65.0238 120.785 65.1461 121.314 65.5466 121.565C65.9472 121.816 66.4743 121.693 66.724 121.291L68.326 118.71C68.5757 118.308 68.4534 117.779 68.0529 117.528C67.6524 117.277 67.1252 117.4 66.8755 117.802Z" fill="#EAD67D"/>
<path d="M68.6794 121.198L67.0774 123.778C66.8277 124.181 66.95 124.71 67.3505 124.961C67.7511 125.211 68.2782 125.089 68.5279 124.686L70.1299 122.106C70.3796 121.704 70.2573 121.174 69.8568 120.924C69.4563 120.673 68.9291 120.796 68.6794 121.198Z" fill="#EAD67D"/>
<path d="M70.4814 124.594L68.8794 127.174C68.6297 127.577 68.752 128.106 69.1525 128.357C69.5531 128.607 70.0802 128.485 70.3299 128.082L71.9319 125.502C72.1816 125.1 72.0593 124.57 71.6588 124.32C71.2583 124.069 70.7311 124.192 70.4814 124.594Z" fill="#EAD67D"/>
<path d="M72.2834 127.99L70.6814 130.571C70.4317 130.973 70.554 131.502 70.9545 131.753C71.3551 132.004 71.8822 131.881 72.1319 131.479L73.7339 128.898C73.9836 128.496 73.8613 127.967 73.4608 127.716C73.0603 127.465 72.5331 127.588 72.2834 127.99Z" fill="#EAD67D"/>
<path d="M87.1277 138.061C83.8959 138.11 83.834 134.236 84.1426 131.565C83.4333 129.348 83.7926 126.456 84.0259 125.43C82.8271 121.416 85.0445 120.346 86.514 120.295C87.984 120.244 89.8321 121.053 89.3392 125.153C89.6828 127.205 89.7397 129.296 89.5083 131.365C89.9377 133.293 90.5438 137.957 87.1277 138.059V138.061Z" fill="#9C3202"/>
<g opacity="0.35">
<path d="M84.3702 126.469C85.3394 126.685 86.2804 127.013 87.1744 127.446C87.4643 127.606 87.787 127.695 88.1172 127.708C88.4474 127.721 88.7761 127.657 89.0773 127.52C89.3124 127.453 89.5225 127.317 89.6809 127.13C89.8393 126.943 89.939 126.713 89.9675 126.469C89.8619 129.627 88.9513 130.79 87.2479 130.306C85.9445 129.868 84.8553 128.949 84.2005 127.736C84.1182 127.528 84.0906 127.302 84.1202 127.079C84.1498 126.857 84.2357 126.647 84.3697 126.468L84.3702 126.469Z" fill="#0D1338"/>
</g>
<g opacity="0.4">
<path d="M89.3928 124.546C89.1991 122.14 87.8229 121.55 86.6352 121.55C86.5921 121.55 86.5506 121.55 86.5092 121.55C85.8221 121.539 85.1555 121.785 84.6394 122.241C84.1233 122.696 83.7948 123.329 83.7179 124.014C83.383 121.154 85.2293 120.338 86.5092 120.293C86.5524 120.293 86.5938 120.293 86.637 120.293C88.0073 120.293 89.6296 121.081 89.3928 124.543V124.546Z" fill="white"/>
</g>
<path d="M87.0653 138.533C86.6219 138.552 86.1798 138.474 85.7695 138.303C85.3593 138.133 84.9909 137.876 84.6899 137.548C83.6941 136.441 83.3481 134.444 83.662 131.612C83.1625 129.592 83.1201 127.486 83.5377 125.448C83.0127 123.619 83.1142 122.177 83.8405 121.16C84.1536 120.751 84.5548 120.418 85.014 120.187C85.4733 119.955 85.9787 119.831 86.4924 119.824C86.9409 119.788 87.3916 119.854 87.8118 120.015C88.2321 120.176 88.6113 120.429 88.9221 120.756C89.7388 121.651 90.0381 123.124 89.8088 125.135C90.1435 127.188 90.2004 129.276 89.978 131.344C90.2662 132.677 90.744 135.759 89.453 137.43C89.1775 137.78 88.8253 138.062 88.4237 138.253C88.0222 138.445 87.5821 138.541 87.1376 138.534H87.0642L87.0653 138.533ZM86.6342 120.764H86.5251C86.1549 120.767 85.79 120.853 85.4573 121.016C85.1247 121.179 84.8329 121.416 84.6035 121.707C84.0482 122.484 84.0033 123.724 84.4717 125.293C84.4948 125.37 84.4974 125.452 84.4793 125.531C84.2757 126.438 83.8959 129.266 84.5849 131.418C84.6052 131.482 84.6116 131.55 84.6035 131.617C84.306 134.183 84.5755 136.015 85.3829 136.91C85.6025 137.145 85.8717 137.328 86.1707 137.444C86.4697 137.561 86.7909 137.609 87.1108 137.585C87.4161 137.595 87.7195 137.533 87.9969 137.404C88.2742 137.276 88.5179 137.084 88.7086 136.844C89.8135 135.417 89.243 132.365 89.0435 131.465C89.0316 131.413 89.029 131.359 89.0359 131.306C89.2623 129.287 89.2071 127.245 88.872 125.241C88.8625 125.192 88.8605 125.142 88.8661 125.093C89.075 123.355 88.8551 122.075 88.2297 121.39C88.0219 121.179 87.7723 121.014 87.4972 120.906C87.222 120.798 86.9272 120.748 86.6319 120.761L86.6342 120.764Z" fill="black"/>
<path d="M86.457 118.428L86.4564 118.428C85.8445 118.444 85.3609 118.954 85.3762 119.569L85.3763 119.569C85.3916 120.184 85.9002 120.669 86.5121 120.654L86.5127 120.654C87.1247 120.638 87.6083 120.128 87.5929 119.513L87.5929 119.513C87.5775 118.898 87.0689 118.413 86.457 118.428Z" fill="#9C3202"/>
<g opacity="0.4">
<path d="M86.458 118.428L86.4574 118.428C85.8454 118.444 85.3618 118.954 85.3772 119.569L85.3772 119.569C85.3926 120.184 85.9012 120.669 86.5131 120.654L86.5137 120.654C87.1256 120.638 87.6093 120.128 87.5939 119.513L87.5939 119.513C87.5785 118.898 87.0699 118.413 86.458 118.428Z" fill="white"/>
</g>
<path d="M86.4895 121.124C86.0711 121.13 85.6678 120.968 85.3683 120.674C85.0687 120.381 84.8975 119.98 84.8922 119.56C84.887 119.14 85.0481 118.735 85.3402 118.434C85.6323 118.134 86.0314 117.962 86.4498 117.956H86.4895C86.9078 117.951 87.3111 118.113 87.6106 118.406C87.9102 118.7 88.0814 119.1 88.0867 119.52C88.0919 119.941 87.9308 120.346 87.6387 120.646C87.3466 120.947 86.9475 121.119 86.5291 121.124H86.4895ZM86.4895 118.894H86.4725C86.3131 118.911 86.1656 118.987 86.0591 119.107C85.9525 119.227 85.8946 119.383 85.8967 119.544C85.8988 119.705 85.9608 119.859 86.0705 119.976C86.1802 120.094 86.3297 120.165 86.4895 120.178H86.5064C86.5906 120.176 86.6735 120.157 86.7505 120.123C86.8274 120.088 86.8967 120.039 86.9544 119.977C87.0128 119.917 87.0584 119.845 87.0884 119.766C87.1185 119.687 87.1324 119.603 87.1294 119.518C87.1245 119.35 87.0548 119.191 86.935 119.075C86.8151 118.958 86.6547 118.892 86.4877 118.892L86.4895 118.894Z" fill="black"/>
<path d="M87.125 138.251C87.0764 138.251 87.0295 138.232 86.9944 138.198C86.9593 138.164 86.9386 138.118 86.9366 138.069L86.327 120.662C86.3262 120.637 86.3301 120.612 86.3388 120.589C86.3474 120.566 86.3605 120.545 86.3773 120.527C86.3941 120.509 86.4142 120.494 86.4366 120.484C86.4591 120.474 86.4833 120.468 86.5079 120.467C86.5574 120.466 86.6053 120.485 86.6415 120.518C86.6777 120.552 86.6992 120.599 86.7015 120.649L87.3135 138.055C87.3143 138.08 87.3103 138.104 87.3017 138.127C87.2931 138.151 87.28 138.172 87.2632 138.19C87.2464 138.208 87.2262 138.223 87.2038 138.233C87.1814 138.243 87.1572 138.249 87.1326 138.249H87.125V138.251Z" fill="black"/>
<path d="M86.1337 125.7C85.0253 125.7 84.0879 125.626 84.0085 125.618C83.9589 125.614 83.9129 125.59 83.8808 125.552C83.8487 125.514 83.833 125.464 83.8373 125.414C83.8415 125.364 83.8654 125.318 83.9035 125.286C83.9416 125.254 83.9909 125.238 84.0406 125.242C84.0803 125.246 87.9275 125.552 89.2657 124.931C89.2881 124.92 89.3123 124.915 89.3369 124.914C89.3615 124.913 89.386 124.917 89.4091 124.925C89.4321 124.934 89.4533 124.947 89.4714 124.964C89.4894 124.981 89.504 125.001 89.5142 125.023C89.5245 125.046 89.5303 125.07 89.5312 125.095C89.5321 125.119 89.5282 125.144 89.5196 125.167C89.5111 125.19 89.498 125.212 89.4813 125.23C89.4646 125.248 89.4444 125.263 89.4221 125.273C88.3602 125.611 87.2464 125.755 86.1337 125.698V125.7Z" fill="black"/>
<path d="M86.1704 131.948C85.0621 131.948 84.1246 131.874 84.0453 131.866C83.9956 131.862 83.9497 131.838 83.9175 131.8C83.8854 131.762 83.8698 131.712 83.874 131.662C83.8783 131.612 83.9021 131.566 83.9402 131.534C83.9784 131.502 84.0277 131.486 84.0773 131.49C84.117 131.494 87.9643 131.8 89.3025 131.179C89.3477 131.158 89.3992 131.156 89.4458 131.173C89.4924 131.191 89.5303 131.226 89.551 131.271C89.5717 131.317 89.5736 131.368 89.5564 131.415C89.5391 131.462 89.504 131.5 89.4588 131.521C88.3969 131.859 87.2831 132.004 86.1704 131.946V131.948Z" fill="#0D1338"/>
<path d="M83.162 132.336L79.9116 134.21V123.626L83.162 121.752V132.336Z" fill="#3996D1"/>
<path d="M79.9123 134.68C79.8302 134.679 79.7497 134.657 79.679 134.615C79.6077 134.573 79.5486 134.514 79.5076 134.442C79.4666 134.37 79.4453 134.288 79.4456 134.205V123.625C79.4449 123.542 79.4661 123.46 79.5071 123.388C79.5481 123.316 79.6074 123.256 79.679 123.215L82.9295 121.34C83.0006 121.3 83.081 121.278 83.1628 121.278C83.2446 121.278 83.325 121.3 83.3961 121.34C83.4677 121.382 83.527 121.441 83.568 121.513C83.609 121.586 83.6302 121.667 83.6295 121.75V132.332C83.6302 132.415 83.609 132.497 83.568 132.569C83.527 132.641 83.4677 132.701 83.3961 132.742L80.1457 134.617C80.0747 134.658 79.9942 134.68 79.9123 134.68ZM80.379 123.901V133.395L82.6903 132.062V122.569L80.379 123.901Z" fill="black"/>
<path d="M79.9092 123.626H73.7997V134.208H79.9092V123.626Z" fill="#3996D1"/>
<path d="M79.9118 134.679H73.8023C73.6785 134.679 73.5598 134.63 73.4723 134.542C73.3848 134.454 73.3356 134.335 73.3356 134.211V123.627C73.3356 123.503 73.3848 123.383 73.4723 123.295C73.5598 123.208 73.6785 123.158 73.8023 123.158H79.9118C80.0356 123.158 80.1543 123.208 80.2418 123.295C80.3293 123.383 80.3785 123.503 80.3785 123.627V134.209C80.3787 134.271 80.3668 134.332 80.3435 134.389C80.3201 134.446 80.2858 134.498 80.2424 134.542C80.1991 134.585 80.1475 134.62 80.0908 134.644C80.0341 134.667 79.9733 134.679 79.9118 134.679ZM74.2708 133.736H79.4405V124.097H74.2684L74.2708 133.736Z" fill="black"/>
<path d="M78.9149 124.663H74.7987V133.172H78.9149V124.663Z" fill="white"/>
<path d="M82.4015 131.735L80.8428 132.574V124.527L82.2825 123.81L82.4015 131.735Z" fill="white"/>
<path d="M81.4129 120.087H75.6423L73.8036 123.627H79.916L81.4129 120.087Z" fill="#3996D1"/>
<path d="M79.9126 124.1H73.8031C73.7224 124.1 73.643 124.079 73.5727 124.039C73.5023 123.999 73.4434 123.942 73.4016 123.872C73.3598 123.803 73.3365 123.724 73.334 123.643C73.3314 123.562 73.3498 123.482 73.3872 123.41L75.2259 119.87C75.2657 119.794 75.3255 119.73 75.3988 119.685C75.4721 119.64 75.5562 119.617 75.6419 119.617H81.4124C81.4902 119.616 81.5669 119.635 81.6355 119.672C81.7041 119.709 81.7625 119.762 81.8054 119.827C81.8482 119.892 81.8741 119.967 81.8808 120.045C81.8875 120.123 81.8747 120.201 81.8435 120.273L80.3432 123.813C80.3074 123.898 80.2471 123.971 80.1701 124.022C80.093 124.073 80.0026 124.1 79.9103 124.1H79.9126ZM74.5767 123.157H79.6023L80.7031 120.56H75.926L74.5767 123.157Z" fill="black"/>
<path d="M79.828 120.99H76.4591L75.3846 122.723H78.953L79.828 120.99Z" fill="white"/>
<path d="M81.412 120.087L83.1621 121.754L79.9116 123.629L81.412 120.087Z" fill="#3996D1"/>
<path d="M79.9121 124.1C79.8344 124.1 79.7579 124.081 79.6895 124.044C79.621 124.007 79.5628 123.954 79.5199 123.889C79.477 123.824 79.4508 123.749 79.4437 123.671C79.4366 123.594 79.4488 123.515 79.4792 123.444L80.9796 119.904C81.0096 119.834 81.0558 119.772 81.1145 119.724C81.1732 119.675 81.2425 119.642 81.3168 119.626C81.3907 119.61 81.4672 119.613 81.54 119.633C81.6128 119.653 81.6795 119.691 81.7345 119.743L83.4845 121.41C83.5376 121.461 83.5781 121.524 83.6029 121.593C83.6277 121.662 83.6361 121.736 83.6275 121.809C83.6187 121.882 83.593 121.952 83.5525 122.013C83.5119 122.074 83.4577 122.125 83.3941 122.161L80.1436 124.035C80.0725 124.076 79.9921 124.097 79.9103 124.097L79.9121 124.1ZM81.5799 120.896L80.8927 122.52L82.3832 121.662L81.5799 120.896Z" fill="black"/>
<path d="M81.4119 118.476H75.6296V120.086H81.4119V118.476Z" fill="white"/>
<path d="M81.4087 120.557H75.6265C75.5027 120.557 75.384 120.507 75.2965 120.42C75.209 120.332 75.1598 120.213 75.1598 120.088V118.478C75.1598 118.354 75.209 118.234 75.2965 118.147C75.384 118.059 75.5027 118.009 75.6265 118.009H81.4087C81.5325 118.009 81.6512 118.059 81.7387 118.147C81.8262 118.234 81.8754 118.354 81.8754 118.478V120.088C81.8754 120.213 81.8262 120.332 81.7387 120.42C81.6512 120.507 81.5325 120.557 81.4087 120.557ZM76.0973 119.614H80.9391V118.947H76.0973V119.614Z" fill="black"/>
<path d="M73.3623 126.608L72.0106 128.515L68.5688 126.057C68.3839 126.205 68.1561 126.288 67.92 126.293C67.6839 126.299 67.4524 126.227 67.2609 126.088C67.9373 125.208 68.2459 124.098 68.1214 122.994C68.2861 122.773 68.5279 122.623 68.7982 122.574C69.0686 122.525 69.3474 122.58 69.5787 122.729C69.81 122.878 69.9766 123.109 70.045 123.377C70.1133 123.644 70.0784 123.927 69.9473 124.17L73.3623 126.608Z" fill="white"/>
<path d="M72.0106 128.985C71.9134 128.985 71.8185 128.955 71.7393 128.898L68.5507 126.621C68.3005 126.736 68.0244 126.783 67.7505 126.757C67.4765 126.73 67.2142 126.632 66.9902 126.471C66.6552 126.235 66.4271 125.875 66.3561 125.47C67.0833 124.714 67.5662 123.756 67.7416 122.72C67.9541 122.431 68.2591 122.224 68.6054 122.135C68.9518 122.045 69.3184 122.077 69.6437 122.227C69.969 122.376 70.2333 122.633 70.3921 122.955C70.5509 123.277 70.5947 123.644 70.516 123.994L73.6346 126.22C73.6848 126.256 73.7274 126.302 73.7601 126.354C73.7927 126.407 73.8147 126.465 73.8249 126.526C73.835 126.588 73.833 126.65 73.8191 126.71C73.8052 126.771 73.7796 126.828 73.7437 126.878L72.3921 128.785C72.349 128.846 72.2919 128.897 72.2255 128.931C72.1591 128.966 72.0854 128.985 72.0106 128.985ZM68.5717 125.588C68.6694 125.587 68.7649 125.618 68.8447 125.674L71.9015 127.859L72.7088 126.722L69.6783 124.554C69.5829 124.487 69.5161 124.386 69.4911 124.272C69.466 124.157 69.4845 124.038 69.543 123.936C69.6157 123.799 69.6343 123.639 69.5951 123.488C69.556 123.338 69.4619 123.208 69.3317 123.123C69.2014 123.039 69.0443 123.007 68.8917 123.034C68.739 123.061 68.6019 123.144 68.5075 123.267C68.441 123.363 68.4043 123.477 68.4019 123.594C68.3995 123.711 68.4316 123.826 68.4941 123.925C68.5426 124.004 68.5669 124.096 68.5639 124.188C68.5608 124.281 68.5306 124.371 68.477 124.447C68.4234 124.522 68.3488 124.58 68.2625 124.614C68.1762 124.647 68.0821 124.654 67.9918 124.634C67.8785 124.607 67.7597 124.614 67.6504 124.655C67.5412 124.695 67.4464 124.768 67.3781 124.862C67.3334 124.926 67.3019 124.998 67.2853 125.074C67.2688 125.15 67.2676 125.228 67.2819 125.305C67.3113 125.467 67.4033 125.611 67.538 125.705C67.6458 125.784 67.7762 125.826 67.9097 125.824C68.0431 125.822 68.1722 125.776 68.2777 125.694C68.3612 125.626 68.4656 125.588 68.5734 125.588L68.5717 125.588Z" fill="black"/>
<path d="M77.4845 138.325C77.4845 138.325 70.0875 132.285 70.1663 128.48C70.2103 127.897 70.3978 127.333 70.7118 126.841C71.0259 126.348 71.4568 125.941 71.9659 125.657C75.5682 123.793 85.0658 127.622 85.0658 127.622L77.4822 138.325H77.4845Z" fill="#9C3202"/>
<g opacity="0.4">
<path d="M85.0513 127.423L83.9785 128.939C81.9986 128.195 74.4774 125.549 71.3622 127.161C70.8727 127.428 70.4563 127.812 70.15 128.28C70.1947 127.697 70.3824 127.134 70.6964 126.642C71.0105 126.149 71.441 125.743 71.9497 125.458C75.5537 123.594 85.0513 127.423 85.0513 127.423Z" fill="white"/>
</g>
<path d="M77.4809 138.798C77.3731 138.798 77.2686 138.76 77.1851 138.692C75.8685 137.591 74.6215 136.409 73.4516 135.152C70.924 132.424 69.6598 130.173 69.6966 128.47C69.7429 127.802 69.9551 127.156 70.3138 126.591C70.6724 126.026 71.1662 125.56 71.75 125.236C75.501 123.295 84.8446 127.024 85.2413 127.183C85.3071 127.209 85.366 127.25 85.4136 127.303C85.4612 127.356 85.4962 127.418 85.5161 127.487C85.5357 127.555 85.5397 127.627 85.528 127.698C85.5163 127.768 85.4891 127.835 85.4484 127.893L77.8647 138.597C77.8273 138.649 77.7797 138.693 77.7248 138.727C77.6698 138.76 77.6087 138.782 77.5451 138.791C77.5238 138.794 77.5023 138.796 77.4809 138.795V138.798ZM74.6405 125.617C73.7954 125.577 72.9526 125.735 72.1788 126.078C71.7433 126.323 71.3744 126.671 71.1049 127.092C70.8353 127.513 70.6734 127.995 70.6334 128.494C70.5751 131.254 75.1772 135.758 77.3922 137.642L84.3301 127.85C82.8255 127.288 81.2934 126.803 79.7397 126.398C78.0774 125.933 76.3653 125.672 74.6405 125.62V125.617Z" fill="black"/>
<path d="M83.7962 134.781C85.8913 131.825 86.5453 128.682 85.2568 127.761C83.9683 126.84 81.2254 128.49 79.1303 131.447C77.0352 134.403 76.3812 137.546 77.6697 138.467C78.9582 139.388 81.7011 137.737 83.7962 134.781Z" fill="#9B0404"/>
<path d="M78.5325 139.191C78.1276 139.2 77.7302 139.081 77.3973 138.849C76.6127 138.29 76.3548 137.142 76.671 135.623C77.5147 132.403 79.4981 129.603 82.2496 127.747C83.5768 126.949 84.7377 126.817 85.5229 127.378C86.3081 127.939 86.5653 129.085 86.2491 130.605C85.4054 133.824 83.4221 136.624 80.6705 138.481C80.0334 138.904 79.2954 139.149 78.5325 139.191ZM84.3841 127.978C83.7941 128.024 83.2261 128.223 82.7356 128.556C81.4623 129.384 80.3667 130.46 79.5131 131.719C77.4387 134.648 77.021 137.421 77.9433 138.079C78.1203 138.195 78.3287 138.254 78.5401 138.247C79.6957 138.247 81.6902 136.934 83.4128 134.505C84.3184 133.282 84.9716 131.889 85.3344 130.409C85.5678 129.296 85.4377 128.47 84.9844 128.145C84.8081 128.027 84.5992 127.969 84.3877 127.977L84.3841 127.978Z" fill="black"/>
<path d="M82.0767 134.165C82.5541 133.491 82.6596 132.744 82.3122 132.495C81.9648 132.247 81.2961 132.592 80.8187 133.266C80.3413 133.939 80.2358 134.687 80.5832 134.935C80.9306 135.183 81.5993 134.838 82.0767 134.165Z" fill="white"/>
<path d="M77.4714 132.906C77.5828 134.415 77.0967 135.908 76.1185 137.06C75.1403 138.211 73.7491 138.929 72.2471 139.057C70.745 139.184 69.2535 138.712 68.0964 137.742C66.9393 136.771 66.2102 135.382 66.0673 133.875C65.8206 131.049 67.8046 128.827 70.4425 129.312C71.139 129.437 71.8535 129.418 72.5426 129.257C73.1113 129.093 73.71 129.062 74.2925 129.167C74.8751 129.271 75.4258 129.509 75.9022 129.862C76.3786 130.215 76.7678 130.672 77.0399 131.2C77.312 131.728 77.4596 132.311 77.4714 132.906Z" fill="#D81B05"/>
<g opacity="0.4">
<path d="M77.3739 134.531C77.3739 134.363 77.368 134.195 77.3552 134.025C77.1294 131.257 74.929 129.816 72.4293 130.377C71.7399 130.536 71.0259 130.555 70.3292 130.432C68.1988 130.041 66.4971 131.411 66.0474 133.437C66.0287 130.823 67.941 128.852 70.4459 129.311C71.1424 129.436 71.8569 129.417 72.546 129.256C73.1144 129.092 73.7128 129.062 74.2949 129.167C74.877 129.272 75.4273 129.51 75.9033 129.862C76.3793 130.215 76.7683 130.672 77.0403 131.2C77.3122 131.727 77.4599 132.31 77.4719 132.904C77.5164 133.449 77.4834 133.998 77.3739 134.533V134.531Z" fill="white"/>
</g>
<path d="M71.7662 139.592C70.219 139.587 68.7291 139.003 67.5886 137.953C66.448 136.903 65.7389 135.463 65.6001 133.916C65.5099 133.164 65.5947 132.401 65.8478 131.688C66.1008 130.975 66.5153 130.33 67.0585 129.805C67.5216 129.382 68.0774 129.075 68.6808 128.909C69.2841 128.742 69.9181 128.721 70.5312 128.846C71.1655 128.96 71.816 128.942 72.4434 128.796C73.0775 128.616 73.7438 128.585 74.3917 128.704C75.0397 128.823 75.652 129.089 76.1821 129.481C76.7122 129.874 77.146 130.382 77.4505 130.969C77.755 131.555 77.9222 132.204 77.9393 132.865C78.0714 134.508 77.5491 136.137 76.487 137.393C75.4248 138.65 73.9096 139.432 72.2737 139.569C72.1022 139.582 71.933 139.589 71.7656 139.589L71.7662 139.592ZM69.7332 129.716C68.9782 129.71 68.2488 129.991 67.6914 130.502C67.2562 130.93 66.9255 131.454 66.7253 132.032C66.5251 132.609 66.4609 133.226 66.5375 133.833C66.5958 134.523 66.7888 135.195 67.1056 135.81C67.4224 136.425 67.8568 136.972 68.3839 137.418C68.9111 137.865 69.5207 138.203 70.1779 138.413C70.8352 138.623 71.5272 138.701 72.2145 138.643C72.9018 138.584 73.5709 138.391 74.1835 138.072C74.7962 137.754 75.3405 137.318 75.7853 136.789C76.2302 136.259 76.5668 135.647 76.776 134.987C76.9852 134.327 77.0629 133.632 77.0047 132.942C76.986 132.419 76.8534 131.906 76.616 131.44C76.3787 130.974 76.0424 130.565 75.6309 130.244C75.2018 129.945 74.7132 129.743 74.1989 129.652C73.6846 129.561 73.1567 129.583 72.6517 129.716C71.9012 129.89 71.1234 129.91 70.3649 129.775C70.1566 129.736 69.9451 129.716 69.7332 129.716Z" fill="black"/>
<path d="M71.9337 129.574L70.4433 130.16C69.9392 130.358 69.4011 130.455 68.8598 130.444C68.3186 130.434 67.7847 130.316 67.2887 130.098C66.7928 129.88 66.3445 129.566 65.9695 129.174C65.5945 128.782 65.3001 128.319 65.1032 127.813L66.5937 127.227C67.0978 127.029 67.6358 126.932 68.1771 126.943C68.7184 126.954 69.2522 127.071 69.7482 127.289C70.2441 127.507 70.6924 127.821 71.0674 128.213C71.4424 128.605 71.7368 129.068 71.9337 129.574Z" fill="#306112"/>
<g opacity="0.4">
<path d="M71.9355 129.574L71.764 129.642C71.215 128.951 70.4602 128.455 69.61 128.226C68.7597 127.996 67.8587 128.046 67.0388 128.368L65.7193 128.886C65.4614 128.561 65.2539 128.199 65.1038 127.812L66.5943 127.227C67.0984 127.028 67.6365 126.932 68.1777 126.942C68.719 126.953 69.2529 127.071 69.7488 127.289C70.2448 127.507 70.6931 127.821 71.0681 128.213C71.4431 128.605 71.7375 129.067 71.9344 129.574L71.9355 129.574Z" fill="white"/>
</g>
<path d="M68.9386 130.918C68.0153 130.916 67.114 130.635 66.3517 130.112C65.5895 129.589 65.0015 128.848 64.6643 127.985C64.6415 127.927 64.6304 127.865 64.6315 127.803C64.6327 127.741 64.6461 127.68 64.6709 127.623C64.6958 127.567 64.7316 127.515 64.7763 127.473C64.821 127.43 64.8738 127.396 64.9315 127.374L66.4219 126.788C67.5562 126.343 68.8202 126.368 69.9361 126.858C71.052 127.348 71.9282 128.263 72.3722 129.402C72.395 129.46 72.4062 129.521 72.4052 129.583C72.4042 129.645 72.3909 129.706 72.3663 129.763C72.3416 129.82 72.3059 129.871 72.2614 129.914C72.2169 129.957 72.1643 129.99 72.1068 130.013L70.6163 130.598C70.0834 130.809 69.5159 130.917 68.9432 130.918L68.9386 130.918ZM65.7371 128.07C66.1648 128.851 66.8608 129.449 67.6952 129.752C68.5296 130.055 69.4453 130.043 70.2715 129.718L71.2971 129.316C70.8697 128.534 70.1739 127.936 69.3395 127.633C68.5051 127.329 67.5891 127.341 66.7626 127.665L65.7371 128.07Z" fill="black"/>
<path d="M84.3637 135.869L85.7544 129.045C87.6433 128.907 89.5416 128.984 91.413 129.276C95.0251 129.962 96.2653 131.912 96.2653 131.912L84.3614 135.869H84.3637Z" fill="#FFBA40"/>
<path opacity="0.4" d="M96.2663 131.91L95.1952 132.268C93.9624 131.403 92.553 130.825 91.0697 130.576C89.2297 130.277 87.3633 130.177 85.5021 130.277L85.7542 129.047C87.6429 128.908 89.5412 128.985 91.4127 129.276C95.0249 129.962 96.2651 131.912 96.2651 131.912L96.2663 131.91Z" fill="white"/>
<path d="M84.3625 136.338C84.2476 136.338 84.1365 136.297 84.0498 136.221C83.9881 136.167 83.9418 136.097 83.9157 136.018C83.8896 135.94 83.8845 135.856 83.901 135.775L85.2918 128.952C85.312 128.852 85.3641 128.761 85.4402 128.693C85.5162 128.626 85.6122 128.584 85.7135 128.576C87.6447 128.43 89.5861 128.509 91.4993 128.81C95.2654 129.527 96.6054 131.57 96.6602 131.655C96.6996 131.715 96.7245 131.784 96.7331 131.856C96.7416 131.928 96.7335 132 96.7095 132.068C96.6854 132.136 96.646 132.198 96.5944 132.248C96.5427 132.298 96.4802 132.336 96.4117 132.358L84.5101 136.312C84.4626 136.328 84.413 136.336 84.3631 136.337L84.3625 136.338ZM86.1411 129.493L84.9838 135.165L95.4468 131.687C94.2909 130.649 92.8584 129.972 91.3249 129.739C89.6104 129.468 87.8716 129.386 86.1394 129.493L86.1411 129.493Z" fill="black"/>
<path d="M96.2659 143.717L84.3654 147.673V135.868L96.2659 131.911V143.717Z" fill="#EBA718"/>
<path d="M84.3622 148.146C84.2385 148.146 84.1198 148.096 84.0323 148.009C83.9447 147.921 83.8956 147.801 83.8956 147.677V135.87C83.8955 135.771 83.9266 135.674 83.9844 135.594C84.0422 135.513 84.1238 135.453 84.2176 135.422L96.1228 131.466C96.1933 131.442 96.2684 131.436 96.3419 131.447C96.4155 131.458 96.4852 131.487 96.5455 131.531C96.6057 131.575 96.6546 131.632 96.6881 131.699C96.7217 131.766 96.7388 131.84 96.7382 131.914V143.72C96.7383 143.819 96.7072 143.916 96.6494 143.996C96.5916 144.076 96.51 144.137 96.4162 144.168L84.511 148.124C84.4635 148.139 84.4139 148.147 84.364 148.148L84.3622 148.146ZM84.8289 136.208V147.023L95.796 143.379V132.564L84.8289 136.208Z" fill="black"/>
<path d="M92.8549 138.68C93.6407 138.68 94.2777 137.973 94.2777 137.1C94.2777 136.228 93.6407 135.521 92.8549 135.521C92.0691 135.521 91.4321 136.228 91.4321 137.1C91.4321 137.973 92.0691 138.68 92.8549 138.68Z" fill="#9C5817"/>
<path d="M88.2822 144.111C88.8714 144.111 89.3491 143.58 89.3491 142.926C89.3491 142.271 88.8714 141.74 88.2822 141.74C87.6929 141.74 87.2152 142.271 87.2152 142.926C87.2152 143.58 87.6929 144.111 88.2822 144.111Z" fill="#9C5817"/>
<path d="M91.2829 132.207C91.8722 132.207 92.3499 131.915 92.3499 131.555C92.3499 131.195 91.8722 130.903 91.2829 130.903C90.6936 130.903 90.2159 131.195 90.2159 131.555C90.2159 131.915 90.6936 132.207 91.2829 132.207Z" fill="#9C5817"/>
<path d="M87.4704 132.989C87.9766 132.989 88.3869 132.739 88.3869 132.43C88.3869 132.121 87.9766 131.871 87.4704 131.871C86.9643 131.871 86.554 132.121 86.554 132.43C86.554 132.739 86.9643 132.989 87.4704 132.989Z" fill="#9C5817"/>
<path d="M97.4274 134.604H64.9443V155.203H97.4274V134.604Z" fill="#B18964"/>
<g opacity="0.4">
<path d="M97.4257 134.604H64.9426V135.895H97.4257V134.604Z" fill="white"/>
</g>
<g opacity="0.35">
<path d="M97.4257 133.438H64.9426V134.729H97.4257V133.438Z" fill="#0D1338"/>
</g>
<g opacity="0.35">
<path d="M97.4257 153.251H64.9426V155.203H97.4257V153.251Z" fill="#0D1338"/>
</g>
<path d="M97.4267 155.674H64.9431C64.8193 155.674 64.7006 155.624 64.6131 155.537C64.5255 155.449 64.4764 155.329 64.4764 155.205V134.605C64.4764 134.481 64.5255 134.362 64.6131 134.274C64.7006 134.186 64.8193 134.137 64.9431 134.137H97.4262C97.5499 134.137 97.6686 134.186 97.7562 134.274C97.8437 134.362 97.8929 134.481 97.8929 134.605V155.205C97.8929 155.329 97.8438 155.448 97.7564 155.536C97.669 155.624 97.5504 155.674 97.4267 155.674ZM65.4127 154.731H96.9566V135.075H65.4127V154.731Z" fill="black"/>
<path d="M111.846 136.22V136.232C110.998 139.875 108.814 143.065 105.73 145.164C105.65 145.216 105.571 145.27 105.49 145.322L105.443 145.353C105.371 145.4 105.298 145.445 105.225 145.489L105.151 145.535C105.09 145.573 105.027 145.61 104.965 145.646C104.935 145.665 104.907 145.682 104.875 145.699C104.817 145.734 104.754 145.768 104.692 145.805C104.664 145.82 104.634 145.837 104.608 145.852C104.538 145.892 104.468 145.929 104.399 145.969C104.385 145.975 104.374 145.983 104.363 145.988C104.296 146.024 104.23 146.06 104.16 146.094C104.126 146.113 104.09 146.13 104.056 146.147C103.975 146.188 103.893 146.23 103.812 146.27C103.716 146.317 103.62 146.362 103.52 146.408C103.421 146.454 103.332 146.495 103.236 146.536C103.229 146.54 103.221 146.542 103.214 146.546C103.121 146.587 103.027 146.627 102.933 146.666C102.926 146.67 102.919 146.672 102.912 146.674C102.82 146.714 102.728 146.751 102.633 146.787C102.63 146.787 102.626 146.791 102.622 146.791L102.315 146.908C102.212 146.948 102.11 146.985 102.005 147.022C101.9 147.058 101.796 147.096 101.69 147.13C101.48 147.202 101.267 147.268 101.049 147.332C98.8073 147.967 96.4868 148.276 94.1581 148.25H93.405C91.7601 148.323 90.1161 148.089 88.5567 147.558C87.9871 147.334 87.4691 146.995 87.0341 146.563C86.7853 146.308 86.573 146.02 86.4035 145.706C85.9841 144.875 85.7875 143.949 85.833 143.019C85.9216 140.168 87.8339 138.526 91.0832 138.508C91.9924 138.438 92.8406 138.339 93.6278 138.211C93.6447 138.211 93.6616 138.205 93.6768 138.203C98.5385 137.41 101.053 135.533 101.157 132.609C101.16 132.117 101.054 131.63 100.846 131.184C100.799 131.108 100.758 131.025 100.713 130.936C100.659 130.805 100.583 130.683 100.489 130.577L100.378 130.492L100.367 130.354C100.367 130.329 100.346 130.301 100.359 130.28C101.346 128.781 101.938 125.066 102.277 122.72C102.931 122.435 103.574 122.111 104.202 121.792C104.202 121.778 104.79 121.505 104.902 121.44C106.812 122.314 108.435 123.716 109.58 125.482C111.654 128.609 112.565 132.926 111.846 136.22Z" fill="white"/>
<path d="M86.2971 145.708C86.466 146.022 86.6783 146.311 86.9277 146.565C87.3631 146.997 87.881 147.335 88.4503 147.561C90.0097 148.091 91.6537 148.326 93.2985 148.253H93.9933C95.9925 143.557 94.8007 140.15 93.5681 138.203C93.5511 138.203 93.536 138.209 93.5191 138.211C92.7323 138.337 91.8841 138.436 90.9745 138.508C87.7275 138.527 85.817 140.167 85.7243 143.019C85.6786 143.949 85.8752 144.875 86.2948 145.706L86.2971 145.708Z" fill="black"/>
<path opacity="0.4" d="M94.5313 139.646C93.6391 139.75 92.6811 139.831 91.6571 139.888C88.612 139.902 86.5714 140.807 85.8358 142.421V142.304C85.9244 139.878 87.8367 138.48 91.086 138.465C91.9952 138.404 92.8434 138.321 93.6306 138.214C93.6475 138.214 93.6644 138.208 93.6796 138.206C94.0143 138.654 94.2999 139.137 94.5313 139.646Z" fill="white"/>
<path d="M93.6187 148.674H93.2908C91.593 148.744 89.8968 148.499 88.2879 147.949C87.6668 147.702 87.102 147.33 86.6277 146.857C86.3511 146.575 86.1154 146.256 85.9277 145.908C85.4741 145.013 85.26 144.015 85.3064 143.012V143.007C85.2989 142.324 85.4364 141.648 85.7098 141.023C85.9831 140.399 86.3859 139.84 86.8914 139.383C88.048 138.479 89.4889 138.02 90.9533 138.091C91.8417 138.021 92.6812 137.924 93.4489 137.798L93.7709 137.747L93.9179 137.978C95.2561 140.086 96.4211 143.61 94.3753 148.416L94.2679 148.669H93.9669C93.8502 148.669 93.7336 148.669 93.6169 148.669L93.6187 148.674ZM86.6639 145.51C86.8148 145.789 87.0034 146.045 87.2245 146.272C87.6198 146.666 88.0913 146.974 88.6099 147.177C90.12 147.683 91.7097 147.907 93.3001 147.837H93.7143C95.4026 143.67 94.5012 140.587 93.3567 138.663C92.6281 138.774 91.8359 138.863 91.004 138.928H90.9737C87.9403 138.947 86.2252 140.402 86.1423 143.028C86.1 143.885 86.2791 144.739 86.6621 145.506L86.6639 145.51Z" fill="black"/>
<path opacity="0.49" d="M111.847 136.22V136.231C110.999 139.875 108.816 143.064 105.731 145.163C105.653 145.216 105.573 145.269 105.492 145.322L105.445 145.352C105.373 145.4 105.3 145.445 105.227 145.488L105.153 145.534C105.091 145.571 105.029 145.609 104.967 145.645C104.937 145.664 104.909 145.681 104.877 145.698C104.819 145.734 104.756 145.768 104.694 145.804C104.666 145.819 104.636 145.836 104.61 145.851C104.54 145.891 104.47 145.929 104.401 145.968C104.387 145.974 104.376 145.981 104.365 145.987C104.298 146.023 104.232 146.059 104.162 146.093C104.128 146.112 104.093 146.129 104.059 146.146C103.978 146.188 103.895 146.229 103.815 146.269C103.719 146.316 103.623 146.362 103.523 146.407C103.423 146.453 103.334 146.494 103.239 146.536C103.231 146.539 103.224 146.541 103.216 146.545C103.124 146.586 103.03 146.626 102.935 146.666C102.929 146.669 102.922 146.671 102.915 146.673C102.823 146.713 102.731 146.751 102.637 146.787C102.633 146.787 102.629 146.79 102.626 146.79L102.319 146.908C102.216 146.947 102.114 146.985 102.008 147.021C101.903 147.057 101.8 147.095 101.694 147.129C101.483 147.201 101.271 147.267 101.052 147.331C98.811 147.966 96.4905 148.276 94.1617 148.25H93.4086C91.7638 148.322 90.1198 148.088 88.5603 147.558C87.9908 147.333 87.4728 146.994 87.0378 146.562C86.789 146.307 86.5767 146.019 86.4072 145.705C86.1226 145.162 85.9444 144.568 85.8821 143.957C85.9008 143.996 85.9201 144.031 85.9405 144.067C86.1094 144.381 86.3217 144.669 86.5711 144.923C87.0065 145.355 87.5244 145.694 88.0937 145.919C89.6531 146.45 91.2971 146.684 92.9419 146.611H93.695C96.0238 146.637 98.3443 146.328 100.586 145.693C100.802 145.628 101.015 145.562 101.227 145.49L101.542 145.383C101.647 145.345 101.749 145.307 101.852 145.269C101.955 145.231 102.057 145.192 102.159 145.152C102.163 145.152 102.167 145.148 102.17 145.148L102.448 145.035C102.454 145.035 102.462 145.029 102.469 145.027C102.563 144.987 102.655 144.947 102.75 144.906C102.758 144.902 102.765 144.9 102.773 144.897C102.869 144.855 102.963 144.812 103.057 144.768C103.151 144.725 103.25 144.677 103.348 144.631C103.431 144.591 103.512 144.549 103.593 144.508L103.696 144.455C103.764 144.421 103.831 144.385 103.899 144.349L103.935 144.33C104.004 144.293 104.074 144.254 104.144 144.213C104.172 144.198 104.202 144.182 104.228 144.165C104.291 144.13 104.351 144.096 104.411 144.059C104.441 144.042 104.469 144.025 104.501 144.007C104.564 143.971 104.625 143.933 104.687 143.895L104.761 143.85L104.979 143.714C104.996 143.705 105.011 143.694 105.026 143.684C105.107 143.631 105.186 143.578 105.265 143.525C108.347 141.425 110.528 138.235 111.373 134.592V134.581C111.74 132.685 111.69 130.731 111.226 128.856C112.082 131.212 112.296 133.754 111.845 136.22H111.847Z" fill="#C5EFFF"/>
<path d="M112.449 136.39C110.382 144.899 102.68 149.012 94.0596 148.874C91.4735 148.749 87.9162 149.078 86.2502 146.578C85.5557 145.589 85.1929 144.404 85.2145 143.195C85.2361 141.985 85.641 140.814 86.3703 139.851C87.4618 138.441 89.062 138.158 91.0955 137.968C94.8634 137.617 99.332 137.318 100.454 133.205C100.668 132.346 100.602 131.44 100.265 130.621C100.245 130.582 100.236 130.538 100.237 130.493C100.238 130.45 100.25 130.409 100.272 130.372C100.293 130.335 100.323 130.304 100.36 130.282C100.371 130.274 100.383 130.268 100.395 130.265C100.445 130.252 100.496 130.251 100.546 130.262C100.595 130.274 100.641 130.297 100.679 130.331C101.199 130.98 101.478 131.791 101.468 132.624C101.293 137.456 95.046 138.521 91.0955 138.825C88.009 138.895 86.2373 140.208 86.1492 143.027C86.0682 147.814 90.3768 147.96 94.1582 147.941C103.337 147.941 109.573 143.782 111.538 136.155C112.66 131.014 109.788 122.318 102.505 120.991C102.406 120.972 102.309 120.91 102.214 120.897C102.172 120.891 102.045 120.757 101.947 120.795C102.126 120.719 102.402 120.727 102.579 120.647C102.904 120.504 103.26 120.381 103.578 120.228C103.606 120.235 103.637 120.241 103.661 120.248C109.976 121.942 113.853 130.22 112.445 136.389L112.449 136.39Z" fill="black"/>
<path d="M51.0256 136.106V136.117C51.8731 139.761 54.0568 142.951 57.1415 145.05C57.2208 145.103 57.2996 145.156 57.3807 145.209L57.4279 145.239C57.4997 145.287 57.5726 145.332 57.6461 145.375L57.7196 145.42C57.7814 145.458 57.8439 145.496 57.9057 145.532C57.936 145.55 57.964 145.567 57.9961 145.584C58.0545 145.62 58.1169 145.654 58.1787 145.69C58.2067 145.705 58.237 145.722 58.2633 145.738C58.3327 145.778 58.4027 145.815 58.4721 145.855C58.4856 145.861 58.4966 145.868 58.5077 145.874C58.5754 145.909 58.6413 145.946 58.7107 145.98C58.7446 145.998 58.7801 146.015 58.814 146.032C58.8951 146.074 58.9779 146.116 59.0584 146.155C59.1547 146.203 59.2503 146.248 59.3501 146.294C59.4498 146.339 59.5385 146.38 59.6342 146.422C59.6418 146.425 59.6494 146.428 59.6569 146.431C59.7491 146.473 59.843 146.513 59.9375 146.552C59.944 146.555 59.9509 146.558 59.9579 146.56C60.0501 146.599 60.1423 146.637 60.2368 146.673C60.2403 146.673 60.2444 146.677 60.2479 146.677L60.5547 146.794C60.658 146.834 60.7601 146.871 60.8651 146.908C60.9701 146.944 61.0739 146.981 61.1795 147.015C61.3901 147.087 61.603 147.154 61.8212 147.217C64.0625 147.853 66.383 148.162 68.7118 148.136H69.4649C71.1097 148.209 72.7537 147.974 74.3132 147.444C74.8827 147.219 75.4007 146.88 75.8358 146.448C76.0846 146.194 76.2969 145.905 76.4664 145.592C76.8858 144.761 77.0824 143.835 77.0369 142.904C76.9482 140.054 75.036 138.412 71.7867 138.394C70.8774 138.324 70.0292 138.225 69.2421 138.097C69.2252 138.097 69.2082 138.091 69.1931 138.089C64.3314 137.295 61.8165 135.418 61.7133 132.495C61.7094 132.002 61.8155 131.515 62.0236 131.07C62.0709 130.994 62.1123 130.911 62.1572 130.822C62.2112 130.69 62.287 130.569 62.3812 130.463L62.4921 130.378L62.5031 130.24C62.5031 130.215 62.5236 130.187 62.5107 130.166C61.5243 128.667 60.9316 124.952 60.5926 122.606C59.9393 122.32 59.2958 121.997 58.6676 121.678C58.6676 121.664 58.0801 121.391 57.9675 121.326C56.0575 122.2 54.435 123.602 53.2902 125.368C51.2158 128.494 50.3051 132.811 51.0238 136.106L51.0256 136.106Z" fill="white"/>
<path d="M76.5733 145.592C76.4044 145.906 76.1921 146.195 75.9427 146.449C75.5073 146.88 74.9894 147.219 74.4202 147.445C72.8607 147.975 71.2167 148.209 69.5719 148.136H68.8771C66.8779 143.441 68.0697 140.034 69.3024 138.087C69.3193 138.087 69.3344 138.093 69.3514 138.095C70.1381 138.221 70.9863 138.32 71.896 138.391C75.1429 138.41 77.0534 140.051 77.1462 142.902C77.1919 143.832 76.9953 144.759 76.5757 145.589L76.5733 145.592Z" fill="black"/>
<path opacity="0.4" d="M68.3392 139.531C69.2314 139.635 70.1895 139.716 71.2134 139.773C74.2586 139.786 76.2992 140.692 77.0354 142.305V142.188C76.9467 139.763 75.0344 138.365 71.7851 138.35C70.8759 138.289 70.0277 138.205 69.2405 138.098C69.2236 138.098 69.2067 138.092 69.1915 138.091C68.8557 138.539 68.5691 139.023 68.3369 139.533L68.3392 139.531Z" fill="white"/>
<path d="M69.2514 148.558H69.5769C71.2747 148.629 72.9709 148.383 74.5798 147.834C75.201 147.586 75.7657 147.215 76.24 146.742C76.5166 146.46 76.7523 146.141 76.9401 145.793C77.3936 144.898 77.6077 143.9 77.5613 142.897V142.891C77.5688 142.209 77.4313 141.533 77.158 140.908C76.8847 140.283 76.4819 139.724 75.9764 139.268C74.8198 138.364 73.3788 137.905 71.9144 137.975C71.026 137.906 70.1865 137.809 69.4188 137.683L69.0968 137.632L68.9498 137.862C67.6116 139.971 66.4466 143.495 68.4925 148.301L68.5998 148.554H68.9008C69.0175 148.554 69.1342 148.554 69.2508 148.554L69.2514 148.558ZM76.2062 145.395C76.0553 145.674 75.8666 145.93 75.6456 146.157C75.2502 146.55 74.7787 146.859 74.2601 147.062C72.75 147.568 71.1603 147.792 69.5699 147.722H69.1557C67.4675 143.554 68.3688 140.471 69.5133 138.548C70.2419 138.659 71.0342 138.748 71.866 138.813H71.8964C74.9298 138.831 76.6449 140.287 76.7277 142.913C76.7702 143.77 76.5911 144.624 76.2079 145.391L76.2062 145.395Z" fill="black"/>
<path opacity="0.49" d="M51.0227 136.106V136.117C51.8703 139.761 54.0537 142.95 57.1381 145.049C57.2174 145.102 57.2962 145.155 57.3773 145.208L57.4245 145.238C57.4963 145.286 57.5692 145.331 57.6427 145.374L57.7162 145.42C57.778 145.458 57.8404 145.495 57.9023 145.531C57.9326 145.55 57.9606 145.567 57.9927 145.584C58.051 145.619 58.1134 145.653 58.1753 145.69C58.2033 145.705 58.2336 145.722 58.2599 145.737C58.3293 145.777 58.3993 145.814 58.4687 145.854C58.4821 145.86 58.4932 145.868 58.5043 145.873C58.572 145.909 58.6379 145.945 58.7073 145.979C58.7411 145.998 58.7767 146.015 58.8106 146.032C58.8916 146.073 58.9745 146.115 59.055 146.155C59.1512 146.202 59.2469 146.247 59.3467 146.293C59.4464 146.339 59.5351 146.38 59.6308 146.421C59.6383 146.425 59.6459 146.427 59.6535 146.431C59.7457 146.472 59.8396 146.512 59.9341 146.552C59.9406 146.555 59.9474 146.558 59.9545 146.559C60.0467 146.599 60.1389 146.637 60.2334 146.673C60.2369 146.673 60.241 146.677 60.2445 146.677L60.5513 146.794C60.6546 146.834 60.7566 146.872 60.8616 146.908C60.9667 146.944 61.0705 146.982 61.1761 147.016C61.3867 147.088 61.5996 147.153 61.8178 147.218C64.0591 147.853 66.3796 148.162 68.7084 148.136H69.4615C71.1063 148.209 72.7503 147.975 74.3098 147.445C74.8793 147.22 75.3973 146.881 75.8323 146.449C76.0812 146.194 76.2934 145.906 76.463 145.592C76.7475 145.049 76.9257 144.455 76.988 143.844C76.9693 143.882 76.9501 143.918 76.9296 143.954C76.7607 144.268 76.5484 144.556 76.299 144.81C75.8637 145.242 75.3457 145.581 74.7765 145.806C73.217 146.336 71.573 146.571 69.9282 146.498H69.1751C66.8463 146.524 64.5258 146.215 62.2845 145.579C62.068 145.515 61.8551 145.449 61.6428 145.377L61.3283 145.27C61.2227 145.231 61.1212 145.194 61.018 145.156C60.9147 145.118 60.8126 145.079 60.7111 145.039C60.7076 145.039 60.7036 145.035 60.7001 145.035L60.4212 144.922C60.4154 144.922 60.4078 144.916 60.4008 144.914C60.3069 144.874 60.2147 144.835 60.1202 144.793C60.1126 144.789 60.105 144.787 60.0975 144.783C60.0012 144.742 59.9073 144.698 59.8134 144.655C59.7194 144.612 59.6197 144.564 59.5217 144.517C59.4388 144.478 59.3578 144.436 59.2772 144.394L59.174 144.342C59.1063 144.308 59.0387 144.272 58.971 144.236L58.9354 144.217C58.866 144.179 58.796 144.141 58.7266 144.1C58.6986 144.085 58.6682 144.069 58.642 144.052C58.5801 144.017 58.5195 143.983 58.4594 143.946C58.4291 143.929 58.401 143.912 58.369 143.894C58.3071 143.858 58.2447 143.82 58.1829 143.782L58.1094 143.737L57.8912 143.601C57.8743 143.592 57.8591 143.581 57.8439 143.571C57.7629 143.518 57.6841 143.465 57.6048 143.412C54.5214 141.312 52.3393 138.123 51.4935 134.48V134.469C51.126 132.573 51.1761 130.619 51.6405 128.744C50.7838 131.099 50.5699 133.641 51.021 136.107L51.0227 136.106Z" fill="#C5EFFF"/>
<path d="M50.4205 136.274C52.4873 144.783 60.1888 148.896 68.8097 148.758C71.3957 148.633 74.953 148.962 76.6191 146.462C77.3134 145.473 77.6761 144.288 77.6545 143.079C77.6329 141.869 77.2281 140.698 76.4989 139.735C75.4074 138.325 73.8073 138.042 71.7737 137.852C68.0058 137.501 63.5373 137.202 62.4155 133.089C62.2015 132.23 62.2675 131.324 62.6039 130.506C62.624 130.466 62.6337 130.422 62.6319 130.377C62.6308 130.334 62.6191 130.293 62.5976 130.256C62.5762 130.219 62.5459 130.188 62.5094 130.166C62.4985 130.158 62.4865 130.153 62.4738 130.149C62.4247 130.136 62.3731 130.135 62.3236 130.146C62.274 130.158 62.2281 130.181 62.1897 130.215C61.6702 130.864 61.3914 131.675 61.401 132.508C61.576 137.34 67.8232 138.405 71.7737 138.709C74.8602 138.779 76.6319 140.092 76.72 142.911C76.8011 147.698 72.4924 147.844 68.7111 147.825C59.5314 147.825 53.2958 143.666 51.3311 136.039C50.2093 130.898 53.0946 122.179 60.3766 120.852C60.4764 120.834 60.5727 120.818 60.6683 120.805C60.7097 120.799 60.7984 120.779 60.8375 120.774C60.6584 120.699 60.4665 120.61 60.2897 120.532C59.9642 120.389 59.6084 120.266 59.2904 120.113C59.2624 120.121 59.2321 120.126 59.2076 120.134C52.8927 121.827 49.0158 130.105 50.4234 136.274H50.4205Z" fill="black"/>
<path d="M142.713 148.721C142.987 148.733 143.259 148.686 143.513 148.583C143.767 148.48 143.995 148.323 144.183 148.123C144.371 147.924 144.515 147.686 144.603 147.426C144.692 147.166 144.724 146.889 144.697 146.616V127.786H148.183C148.405 127.81 148.628 127.785 148.839 127.712C149.05 127.64 149.242 127.522 149.403 127.368C149.564 127.213 149.689 127.025 149.769 126.816C149.85 126.608 149.884 126.385 149.87 126.161C149.881 125.938 149.844 125.715 149.763 125.507C149.681 125.299 149.557 125.111 149.397 124.955C149.238 124.799 149.047 124.679 148.837 124.603C148.628 124.527 148.405 124.497 148.183 124.514H144.674V121.995C144.674 119.547 145.586 118.494 147.682 118.494C148.096 118.503 148.51 118.457 148.912 118.357C149.231 118.298 149.516 118.123 149.714 117.865C149.912 117.608 150.008 117.285 149.983 116.961C149.983 115.794 148.866 115.108 146.77 115.108C142.896 115.108 140.731 117.304 140.731 121.858V124.512H138.771C138.549 124.495 138.326 124.525 138.117 124.601C137.908 124.677 137.717 124.797 137.557 124.953C137.398 125.109 137.273 125.297 137.192 125.505C137.11 125.713 137.074 125.936 137.085 126.16C137.07 126.383 137.105 126.606 137.185 126.815C137.266 127.023 137.391 127.211 137.552 127.366C137.712 127.521 137.905 127.638 138.115 127.711C138.326 127.783 138.55 127.808 138.771 127.784H140.731V146.618C140.704 146.891 140.736 147.167 140.825 147.427C140.913 147.686 141.056 147.924 141.244 148.123C141.432 148.323 141.661 148.479 141.914 148.583C142.167 148.686 142.44 148.733 142.713 148.721ZM161.377 148.721C167.916 148.721 172.337 143.986 172.337 136.413C172.337 128.816 167.916 124.102 161.376 124.102C154.813 124.102 150.392 128.816 150.392 136.413C150.393 143.986 154.814 148.721 161.376 148.721H161.377ZM161.377 145.22C157.184 145.22 154.427 142.016 154.427 136.41C154.427 130.804 157.184 127.601 161.377 127.601C165.57 127.601 168.304 130.804 168.304 136.41C168.304 142.016 165.57 145.222 161.376 145.222L161.377 145.22ZM185.213 148.721C191.753 148.721 196.174 143.986 196.174 136.413C196.174 128.816 191.753 124.102 185.213 124.102C178.65 124.102 174.23 128.816 174.23 136.413C174.23 143.986 178.65 148.721 185.213 148.721ZM185.213 145.22C181.02 145.22 178.263 142.016 178.263 136.41C178.263 130.804 181.02 127.602 185.213 127.602C189.406 127.602 192.14 130.806 192.14 136.412C192.14 142.018 189.406 145.222 185.213 145.222V145.22ZM208.207 148.721C211.921 148.721 214.382 146.892 215.68 144.055H215.748V146.778C215.747 147.042 215.799 147.303 215.902 147.546C216.005 147.789 216.156 148.008 216.347 148.19C216.537 148.372 216.762 148.513 217.009 148.604C217.255 148.696 217.518 148.735 217.78 148.721C218.038 148.733 218.295 148.691 218.535 148.597C218.775 148.504 218.993 148.361 219.176 148.178C219.358 147.995 219.5 147.776 219.593 147.534C219.686 147.293 219.729 147.035 219.717 146.776V117.007C219.738 116.733 219.703 116.458 219.612 116.2C219.522 115.941 219.379 115.704 219.193 115.503C219.006 115.303 218.78 115.144 218.529 115.037C218.277 114.929 218.007 114.875 217.733 114.879C217.46 114.875 217.19 114.929 216.938 115.037C216.687 115.144 216.461 115.303 216.274 115.503C216.088 115.704 215.945 115.941 215.854 116.2C215.764 116.458 215.729 116.733 215.75 117.007V128.379H215.659C214.914 127.04 213.815 125.933 212.485 125.179C211.155 124.424 209.643 124.052 208.116 124.103C202.146 124.103 198.067 128.954 198.067 136.414C198.067 143.874 202.168 148.721 208.207 148.721ZM208.959 145.22C204.766 145.22 202.122 141.811 202.122 136.41C202.122 131.033 204.765 127.601 208.959 127.601C213.037 127.601 215.772 131.102 215.772 136.41C215.772 141.744 213.037 145.222 208.959 145.222V145.22Z" fill="#00A6ED"/>
<path d="M143.629 66.4316C144.234 66.4477 144.836 66.3425 145.399 66.1221C145.963 65.9018 146.477 65.5708 146.911 65.1484C147.346 64.7261 147.692 64.2209 147.93 63.6625C148.168 63.1042 148.292 62.5037 148.296 61.8964C148.295 61.2884 148.172 60.6868 147.935 60.1272C147.698 59.5677 147.352 59.0615 146.917 58.6386C146.482 58.2158 145.967 57.8849 145.402 57.6655C144.837 57.4461 144.234 57.3426 143.629 57.3613C143.024 57.3426 142.421 57.4461 141.857 57.6655C141.292 57.8849 140.777 58.2158 140.342 58.6386C139.906 59.0615 139.56 59.5677 139.323 60.1272C139.086 60.6868 138.964 61.2884 138.962 61.8964C138.966 62.5037 139.091 63.1042 139.328 63.6625C139.566 64.2209 139.913 64.7261 140.347 65.1484C140.782 65.5708 141.296 65.9018 141.859 66.1221C142.423 66.3425 143.025 66.4477 143.629 66.4316ZM143.629 103.252C146.321 103.252 147.996 101.54 147.996 98.6869V74.3603C147.996 71.5069 146.321 69.7653 143.629 69.7653C140.907 69.7653 139.263 71.5075 139.263 74.3603V98.6874C139.26 101.54 140.908 103.252 143.629 103.252ZM170.625 103.252C173.197 103.252 174.991 101.69 174.991 98.6869V92.17L177.773 89.5872L185.998 100.519C187.373 102.592 188.421 103.252 190.275 103.252C192.725 103.252 194.432 101.63 194.432 99.2879C194.432 98.1468 194.163 97.3659 193.207 96.0742L184.263 84.632L192.43 76.8832C193.686 75.7117 194.075 74.9009 194.075 73.5794C194.082 73.069 193.985 72.5626 193.791 72.0909C193.597 71.6192 193.309 71.192 192.946 70.8353C192.582 70.4786 192.15 70.1998 191.676 70.0159C191.202 69.832 190.696 69.7467 190.188 69.7653C188.872 69.7653 187.884 70.2761 186.718 71.5075L175.111 83.1904H174.992V63.218C174.992 60.2146 173.197 58.6231 170.625 58.6231C168.083 58.6231 166.259 60.2146 166.259 63.218V98.6874C166.258 101.691 168.082 103.252 170.625 103.252ZM215.777 66.4316C216.381 66.4477 216.983 66.3425 217.546 66.1221C218.11 65.9018 218.624 65.5708 219.059 65.1484C219.493 64.7261 219.84 64.2209 220.077 63.6625C220.315 63.1042 220.44 62.5037 220.443 61.8964C220.442 61.2884 220.319 60.6868 220.083 60.1272C219.846 59.5677 219.499 59.0615 219.064 58.6386C218.629 58.2158 218.114 57.8849 217.549 57.6655C216.985 57.4461 216.382 57.3426 215.777 57.3613C215.171 57.3426 214.569 57.4461 214.004 57.6655C213.439 57.8849 212.924 58.2158 212.489 58.6386C212.054 59.0615 211.707 59.5677 211.471 60.1272C211.234 60.6868 211.111 61.2884 211.11 61.8964C211.114 62.5036 211.238 63.1039 211.476 63.6621C211.713 64.2204 212.059 64.7255 212.494 65.1478C212.928 65.5701 213.442 65.9012 214.006 66.1216C214.569 66.342 215.17 66.4474 215.775 66.4316H215.777ZM215.777 103.252C218.468 103.252 220.143 101.54 220.143 98.6869V74.3603C220.143 71.5069 218.468 69.7653 215.777 69.7653C213.055 69.7653 211.41 71.5075 211.41 74.3603V98.6874C211.408 101.54 213.055 103.252 215.775 103.252L215.777 103.252Z" fill="#00A6ED"/>
</g>
</g>
<defs>
<clipPath id="clip0_343_739">
<rect width="192.008" height="120.505" fill="white" transform="translate(37.0016 42.5017)"/>
</clipPath>
</defs>
</svg>
