<svg width="259" height="183" viewBox="0 0 259 183" fill="none" xmlns="http://www.w3.org/2000/svg">
<g clip-path="url(#clip0_343_2662)">
<mask id="mask0_343_2662" style="mask-type:luminance" maskUnits="userSpaceOnUse" x="0" y="0" width="259" height="183">
<path d="M259 0H0V183H259V0Z" fill="white"/>
</mask>
<g mask="url(#mask0_343_2662)">
<path opacity="0.35" d="M85.8609 118.293C79.0784 121.598 72.8747 124.163 60.1029 124.163C47.3312 124.163 40.9484 121.622 33.9977 118.139C34.4289 117.753 35.1486 117.526 36.2467 117.503C37.0994 117.287 38.203 117.066 39.3603 116.829C52.5823 121.493 68.3371 121.462 81.4979 116.56C83.2816 116.858 84.9224 117.314 85.8609 118.293Z" fill="#C5EFFF"/>
<path d="M42.8498 66.8805C42.5887 67.4602 42.2922 68.0234 41.962 68.5669C37.4916 71.1036 25.4246 75.7427 20.1921 73.0546C12.1312 68.9113 11.4834 53.8458 16.3788 47.361C21.2742 40.8762 31.9359 39.4209 38.3291 42.7011C46.6597 46.9787 46.4828 58.7955 42.852 66.8765L42.8498 66.8805Z" fill="black"/>
<path d="M78.744 68.8124C79.0032 69.4215 79.3012 70.0135 79.6361 70.5847C84.2411 73.3127 96.7162 78.3694 102.215 75.6709C110.689 71.513 111.653 55.8385 106.677 48.9923C101.702 42.146 90.6343 40.4306 83.9128 43.7233C75.1572 48.0198 75.1151 60.326 78.7435 68.81H78.7456L78.744 68.8124Z" fill="black"/>
<path d="M58.3525 40.6724C57.9949 40.7269 57.6267 40.7942 57.4668 40.8256C57.4135 40.799 57.3602 40.7724 57.3069 40.7479C57.6541 40.7186 58.0032 40.6934 58.3525 40.6724Z" fill="white"/>
<path opacity="0.4" d="M17.0119 91.6829C17.0183 91.725 17.0223 91.7691 17.0287 91.8109C16.958 91.8641 16.8842 91.9132 16.8078 91.958C16.77 91.9811 16.7257 92.0064 16.6794 92.0314C16.6899 91.204 16.7249 90.3633 16.7846 89.5093C16.8057 89.8075 16.831 90.1014 16.8603 90.3953C16.9024 90.828 16.9528 91.2584 17.0117 91.6805L17.0119 91.6829Z" fill="white"/>
<path opacity="0.4" d="M103.178 91.9356C103.1 91.8872 103.039 91.8452 102.995 91.8117C103.001 91.7697 103.007 91.7276 103.011 91.6835C103.07 91.2579 103.118 90.831 103.163 90.3982C103.192 90.1043 103.217 89.8101 103.238 89.512C103.297 90.3667 103.333 91.2074 103.345 92.0341C103.282 91.9984 103.227 91.9646 103.177 91.9354L103.178 91.9356Z" fill="white"/>
<path d="M106.662 92.7735C106.662 92.7735 106.644 92.7967 106.625 92.8177C105.652 93.8816 104.392 94.6416 102.996 95.006C103.651 95.5745 104.454 95.9471 105.312 96.0811C103.788 99.0843 101.98 101.936 99.9138 104.597C99.1662 105.55 98.3677 106.463 97.5218 107.331C97.2862 107.572 97.0464 107.808 96.8023 108.036C96.249 108.559 95.6894 109.063 95.1236 109.547C93.2407 111.161 91.2347 112.626 89.1237 113.929C89.0249 113.992 88.9239 114.053 88.825 114.112C85.3796 116.196 81.7009 117.869 77.8647 119.097C72.0926 120.942 66.0723 121.896 60.0118 121.926C53.9508 121.896 47.9299 120.942 42.1573 119.097C38.322 117.868 34.644 116.195 31.1986 114.112C31.125 114.065 31.0472 114.019 30.9734 113.973C28.836 112.659 26.8059 111.179 24.9021 109.546C24.3361 109.061 23.7766 108.557 23.2234 108.034C22.9689 107.793 22.7142 107.545 22.4682 107.291C22.0307 106.844 21.6036 106.377 21.1935 105.902C20.878 105.539 20.5708 105.17 20.2742 104.798C18.1613 102.104 16.3141 99.213 14.7585 96.1646C14.7318 96.108 14.7164 96.0785 14.7164 96.0785C14.7164 96.0785 14.7697 96.0721 14.8637 96.0553C15.6364 95.9048 16.3589 95.5633 16.9653 95.0621C16.9885 95.0432 17.0117 95.0243 17.0348 95.0033C15.6391 94.6385 14.3789 93.8785 13.4059 92.815C13.3869 92.7941 13.3743 92.7794 13.3681 92.7709H13.4227C14.527 92.8006 15.6218 92.5606 16.612 92.0716C19.1167 91.7777 21.5452 91.5591 22.3089 89.791C30.1285 71.6658 51.4224 72.1132 56.7007 86.3175C58.3563 90.7757 58.4237 95.7569 56.9342 99.9528C57.8872 99.9087 58.8409 99.8828 59.7952 99.8752H60.2428C61.2568 99.8816 62.2708 99.9103 63.2847 99.9614C61.7912 95.7635 61.8584 90.7781 63.516 86.3175C68.7943 72.1137 90.0883 71.6658 97.9079 89.791C98.6462 91.5045 100.952 91.7628 103.37 92.0445C104.373 92.5524 105.488 92.8022 106.612 92.7712H106.667L106.662 92.7735Z" fill="white"/>
<path opacity="0.35" d="M105.312 96.0811C105.312 96.0811 101.776 103.345 96.8023 108.036C94.3643 110.336 91.6904 112.372 88.825 114.112C85.3796 116.196 81.701 117.87 77.8647 119.098C72.0921 120.943 66.0712 121.896 60.0102 121.927C53.9493 121.896 47.9285 120.943 42.156 119.098C38.3201 117.869 34.6416 116.196 31.1956 114.113C28.3302 112.373 25.6564 110.337 23.2183 108.038C18.2448 103.345 14.7084 96.0811 14.7084 96.0811C15.233 96.0023 15.7394 95.8312 16.204 95.5757C17.6914 98.1188 20.1884 101.93 23.2157 104.786C25.6537 107.085 28.3276 109.122 31.193 110.862C34.6386 112.946 38.3174 114.619 42.1538 115.846C47.9265 117.691 53.9473 118.645 60.0083 118.675C66.0693 118.645 72.0902 117.691 77.8628 115.846C81.6987 114.617 85.3772 112.944 88.8231 110.861C91.6885 109.121 94.3624 107.085 96.8004 104.786C99.8298 101.928 102.325 98.1183 103.812 95.5752C104.276 95.8318 104.783 96.003 105.308 96.0806L105.312 96.0811Z" fill="#B3B3B3"/>
<path d="M107.075 92.4459C107.022 92.3836 106.956 92.3337 106.882 92.2999C106.808 92.2661 106.727 92.2493 106.645 92.2507C105.646 92.2793 104.654 92.0759 103.747 91.6565C103.692 91.6285 103.647 91.5846 103.618 91.5305C103.589 91.4765 103.577 91.4149 103.585 91.3541C103.622 91.0601 103.656 90.7577 103.686 90.451C103.749 89.8209 103.795 89.1764 103.826 88.5295C103.92 86.4621 103.869 84.3908 103.675 82.3304C103.355 79.0597 102.759 75.8219 101.893 72.6514C101.504 71.2055 101.04 69.7805 100.505 68.382C100.473 68.3 100.444 68.2203 100.412 68.1405C100.356 67.9955 100.297 67.8479 100.238 67.7016C100.208 67.6282 100.177 67.5524 100.147 67.4768C100.135 67.4454 100.121 67.4138 100.107 67.3824C100.006 67.1345 99.9031 66.889 99.7957 66.6432C99.2761 65.4463 98.7046 64.2759 98.0811 63.1322C97.9907 62.9662 97.9001 62.8005 97.8077 62.6366C96.2846 59.9329 94.4787 57.3981 92.4201 55.0746C88.2187 50.3349 83.0565 46.5404 77.2753 43.9424C74.9911 42.9223 72.6243 42.0976 70.2005 41.477C69.7123 41.3509 69.2012 41.2291 68.6856 41.1158C68.2124 41.0107 67.7328 40.9142 67.255 40.8258C66.8722 40.7549 66.4886 40.6884 66.1041 40.6264H66.102C65.5108 40.5318 64.9157 40.4506 64.3167 40.3827C59.3339 37.8353 54.3681 37.26 54.0758 37.1887C54.301 37.2999 57.5995 38.3774 58.1319 40.1622C57.8668 40.179 57.6038 40.1978 57.3389 40.221C53.0262 37.6255 42.7558 38.3835 42.7558 38.3835C42.7558 38.3835 48.5937 38.4865 52.5213 40.8743C52.1237 40.9477 51.7302 41.0275 51.3348 41.1158C50.8194 41.2291 50.3102 41.3509 49.8202 41.477C47.397 42.0976 45.0309 42.9223 42.7475 43.9424C36.966 46.5399 31.8034 50.3344 27.6021 55.0743C25.5449 57.3984 23.7397 59.9332 22.2167 62.6364C22.1242 62.8002 22.0315 62.9659 21.9412 63.1319C21.3186 64.2742 20.7477 65.4446 20.2286 66.6429C20.1087 66.918 19.991 67.1973 19.8753 67.4765C19.7533 67.7768 19.6355 68.0772 19.5177 68.3796L19.5199 68.3838L19.5135 68.4027C18.9788 69.7936 18.5182 71.2117 18.1335 72.6511C17.2672 75.8218 16.6709 79.06 16.3508 82.3309C16.1572 84.3908 16.1068 86.4616 16.2 88.5285C16.2315 89.1732 16.2778 89.8198 16.341 90.4478C16.3706 90.7566 16.4041 91.0596 16.442 91.3522C16.449 91.4131 16.4372 91.4746 16.4083 91.5287C16.3793 91.5827 16.3346 91.6266 16.28 91.6546C15.3669 92.0766 14.3679 92.28 13.3622 92.2488C13.2622 92.2487 13.1643 92.2772 13.08 92.3309C12.9957 92.3845 12.9286 92.4612 12.8865 92.5518C12.8445 92.6423 12.8293 92.743 12.8428 92.8419C12.8562 92.9408 12.8978 93.0338 12.9625 93.1098C13.6561 93.8778 14.4876 94.5093 15.414 94.9718C15.4521 94.9895 15.4841 95.0182 15.506 95.0541C15.5279 95.0901 15.5386 95.1317 15.5368 95.1737C15.535 95.2156 15.5207 95.2562 15.4959 95.2901C15.4711 95.3241 15.4367 95.3499 15.3972 95.3644C15.1586 95.4545 14.9111 95.5192 14.6588 95.5575C14.575 95.5662 14.4945 95.595 14.4242 95.6415C14.3539 95.6879 14.2958 95.7505 14.255 95.8241C14.2141 95.8977 14.1916 95.9801 14.1894 96.0642C14.1872 96.1483 14.2054 96.2317 14.2423 96.3073C14.3876 96.6076 17.8777 103.712 22.8634 108.416C28.4857 113.723 35.309 117.601 43.1411 119.951C48.6183 121.58 54.3001 122.42 60.015 122.448C65.7293 122.42 71.4104 121.579 76.887 119.951C84.7191 117.601 91.5424 113.723 97.1647 108.416C102.15 103.712 105.641 96.6076 105.786 96.3073C105.822 96.2319 105.84 96.1489 105.838 96.0651C105.836 95.9814 105.814 95.8994 105.773 95.8261C105.732 95.7528 105.675 95.6903 105.605 95.6439C105.535 95.5975 105.455 95.5686 105.371 95.5596C105.119 95.5191 104.871 95.4537 104.631 95.3644C104.592 95.3495 104.558 95.3235 104.534 95.2898C104.509 95.256 104.495 95.2159 104.493 95.1742C104.491 95.1326 104.501 95.0913 104.522 95.0553C104.543 95.0194 104.575 94.9903 104.612 94.9718C105.539 94.5089 106.371 93.8775 107.065 93.1098C107.143 93.017 107.186 92.9003 107.188 92.7792C107.19 92.6581 107.15 92.5401 107.075 92.4449L107.075 92.4459ZM105.011 93.5296C104.367 93.9834 103.644 94.3112 102.878 94.4956C102.783 94.518 102.697 94.5657 102.628 94.6334C102.559 94.7011 102.51 94.7864 102.486 94.88C102.462 94.9735 102.465 95.0717 102.494 95.1637C102.523 95.2557 102.577 95.3378 102.65 95.4008C103.107 95.7967 103.63 96.1094 104.196 96.3248C104.238 96.3407 104.276 96.3654 104.308 96.3972C104.34 96.429 104.365 96.4673 104.381 96.5094C104.397 96.5516 104.404 96.5966 104.401 96.6416C104.398 96.6865 104.385 96.7303 104.364 96.7701C103.247 98.8576 100.254 104.061 96.4436 107.656C83.8339 119.555 68.2052 121.376 60.0134 121.403C51.8194 121.376 36.1918 119.555 23.581 107.656C19.7719 104.062 16.7772 98.8573 15.6612 96.7698C15.6399 96.7302 15.6272 96.6865 15.6241 96.6417C15.621 96.5968 15.6276 96.5518 15.6433 96.5096C15.659 96.4675 15.6836 96.4291 15.7154 96.3972C15.7472 96.3653 15.7854 96.3406 15.8275 96.3246C16.394 96.1098 16.9182 95.797 17.3759 95.4005C17.4491 95.3376 17.5032 95.2555 17.5322 95.1634C17.5612 95.0714 17.5639 94.9732 17.54 94.8797C17.5161 94.7862 17.467 94.7009 17.3981 94.6332C17.3291 94.5655 17.243 94.5178 17.1489 94.4954C16.383 94.3109 15.6591 93.9831 15.0156 93.5293C14.9805 93.5052 14.9532 93.4713 14.9373 93.4319C14.9213 93.3925 14.9173 93.3492 14.9259 93.3075C14.9344 93.2658 14.955 93.2276 14.9852 93.1975C15.0154 93.1675 15.0538 93.147 15.0955 93.1386C15.9032 93.0059 16.6713 92.696 17.3445 92.2313C17.4199 92.1751 17.4788 92.0996 17.5149 92.0128C17.5511 91.9261 17.5632 91.8312 17.5499 91.7381C17.4868 91.2993 17.4321 90.8309 17.3836 90.3457C17.3247 89.7339 17.2784 89.1067 17.2469 88.4787C17.1564 86.4603 17.2063 84.438 17.3964 82.4264C17.7104 79.2148 18.2952 76.0353 19.1447 72.9219C19.5333 71.4845 19.9975 70.0685 20.5353 68.6799L20.5417 68.6674C20.546 68.6549 20.5503 68.6442 20.5543 68.6317C20.5564 68.6275 20.5564 68.6254 20.5585 68.6214C20.567 68.5961 20.5796 68.5682 20.59 68.5416C24.7511 58.0282 32.853 49.5476 43.1757 44.8997C44.2339 44.4271 45.3125 43.9967 46.4114 43.6083C47.6193 43.1828 48.8437 42.8104 50.0845 42.4912C50.562 42.3672 51.0606 42.2476 51.5634 42.1385C52.2176 41.9936 52.8761 41.8648 53.5389 41.752H53.541L53.8075 41.7079C53.8917 41.6932 53.978 41.6783 54.062 41.6658C54.0652 41.6642 54.0688 41.6634 54.0724 41.6637C54.2429 41.6371 54.4132 41.6105 54.5837 41.586C56.382 41.3216 58.195 41.169 60.0123 41.1293C61.825 41.1696 63.6335 41.3218 65.4273 41.585H65.4295C65.463 41.5892 65.4969 41.5935 65.5305 41.5996C65.8209 41.6416 66.1089 41.6898 66.3994 41.7382C66.4247 41.7424 66.4479 41.7467 66.4751 41.7507C66.6413 41.778 66.8075 41.8074 66.9736 41.839C66.9739 41.8387 66.9742 41.8385 66.9746 41.8383C66.9749 41.8382 66.9753 41.8381 66.9757 41.8381C66.9761 41.8381 66.9765 41.8382 66.9769 41.8383C66.9773 41.8385 66.9776 41.8387 66.9779 41.839C67.4743 41.9313 67.9688 42.03 68.461 42.1393C68.9638 42.2486 69.4602 42.3683 69.9377 42.492C71.1768 42.8091 72.4054 43.1836 73.6109 43.6091C74.709 43.9956 75.7903 44.4281 76.8465 44.9005C87.1693 49.5483 95.2714 58.0286 99.4333 68.5416L99.5218 68.7685C99.5218 68.7706 99.5239 68.7706 99.5239 68.7727C100.049 70.1309 100.501 71.516 100.879 72.9221C101.73 76.0353 102.317 79.2148 102.631 82.4267C102.821 84.4382 102.871 86.4605 102.78 88.479C102.749 89.107 102.702 89.7368 102.641 90.346C102.595 90.8311 102.54 91.2993 102.477 91.7381C102.464 91.8313 102.476 91.9263 102.512 92.0131C102.549 92.0999 102.608 92.1754 102.683 92.2316C103.357 92.6963 104.125 93.0062 104.932 93.1388C104.974 93.1475 105.012 93.1682 105.042 93.1983C105.072 93.2284 105.092 93.2665 105.1 93.3081C105.109 93.3496 105.105 93.3927 105.089 93.432C105.073 93.4712 105.046 93.505 105.011 93.529V93.5296Z" fill="black"/>
<path d="M107.325 92.2507H107.323C107.242 92.1505 107.139 92.0701 107.022 92.0155C106.905 91.9609 106.777 91.9337 106.648 91.9358C105.707 91.9606 104.773 91.777 103.911 91.3982C103.908 91.3971 103.905 91.3948 103.903 91.3918C103.901 91.3887 103.9 91.3851 103.901 91.3815C103.938 91.0937 103.972 90.7894 104.002 90.4827C104.063 89.8675 104.111 89.2163 104.143 88.5444C104.237 86.4624 104.186 84.3763 103.991 82.3012C103.669 79.0127 103.07 75.7573 102.199 72.5697C101.812 71.132 101.353 69.7148 100.823 68.3235L100.707 68.0253C100.651 67.8803 100.592 67.7314 100.533 67.5843L100.499 67.5002C100.48 67.454 100.461 67.4079 100.442 67.3574L100.402 67.263C100.299 67.013 100.196 66.7653 100.087 66.5182C99.5674 65.3191 98.9868 64.1283 98.3598 62.9806C98.2694 62.8125 98.1788 62.6468 98.0842 62.4808C96.5503 59.7577 94.7317 57.2045 92.6588 54.8639C88.4277 50.0911 83.2289 46.2701 77.4069 43.6541C75.1068 42.626 72.723 41.7956 70.2815 41.1719C69.7912 41.0437 69.278 40.9219 68.7562 40.8064C68.2934 40.7035 67.8074 40.607 67.3152 40.5139C66.9009 40.4362 66.5222 40.371 66.1561 40.3144L66.1329 40.3117C65.5523 40.2194 64.976 40.1396 64.4164 40.0766H64.41C61.2502 38.5103 57.865 37.4459 54.3764 36.9217C54.2608 36.9028 54.1851 36.8903 54.1534 36.8839L51.5309 36.2421C51.5266 36.2412 51.5222 36.2419 51.5184 36.2439C51.5146 36.246 51.5117 36.2494 51.5102 36.2535C51.5086 36.2575 51.5086 36.262 51.5101 36.266C51.5116 36.2701 51.5146 36.2735 51.5183 36.2756L53.9397 37.4704C53.9693 37.4851 54.0385 37.5124 54.1459 37.5545C56.2243 38.3567 57.1753 39.1379 57.5897 39.7531C57.5076 39.8393 57.5222 39.8244 57.4383 39.9106C53.095 37.3632 43.8187 38.3062 43.2359 38.3482C43.2274 38.3503 42.6231 38.3671 42.6231 38.3748L51.6207 40.7309L51.2695 40.8064C50.7632 40.9176 50.2492 41.0416 49.7443 41.1698C47.3037 41.7953 44.9207 42.6264 42.6209 43.6541C36.7981 46.2701 31.5986 50.0911 27.3666 54.8642C25.2958 57.2059 23.478 59.759 21.9433 62.481C21.8509 62.647 21.7568 62.8127 21.6657 62.9808C21.0366 64.1336 20.4581 65.3215 19.9406 66.5185C19.8207 66.7956 19.7008 67.0771 19.5851 67.3585C19.461 67.6609 19.3432 67.9633 19.2254 68.2658L19.1497 68.4589L19.154 68.4631C18.6435 69.8091 18.2019 71.1801 17.8308 72.5708C16.9604 75.7581 16.3608 79.013 16.0383 82.3009C15.8433 84.376 15.7927 86.4621 15.8869 88.5442C15.9205 89.2203 15.9669 89.8715 16.0279 90.4782C16.0575 90.7827 16.091 91.0809 16.1267 91.3666C16.1276 91.3702 16.1272 91.3741 16.1257 91.3775C16.1241 91.3809 16.1215 91.3837 16.1182 91.3855C15.2648 91.7738 14.3336 91.962 13.3961 91.9355C13.2128 91.9299 13.0325 91.9821 12.8807 92.0848C12.7856 92.1518 12.7054 92.2377 12.6452 92.3373C12.585 92.4368 12.5462 92.5477 12.5312 92.663C12.5162 92.7782 12.5252 92.8954 12.5579 93.007C12.5905 93.1185 12.646 93.2221 12.7208 93.3112C13.3867 94.0561 14.1794 94.6774 15.0622 95.1465C14.9194 95.1893 14.774 95.2229 14.6268 95.2474H14.6244C14.4905 95.2615 14.3619 95.3077 14.2497 95.3821C14.1374 95.4564 14.0448 95.5566 13.9796 95.6743C13.9144 95.7919 13.8785 95.9235 13.8751 96.0579C13.8717 96.1924 13.9008 96.3256 13.9599 96.4464C13.9935 96.5198 17.5678 103.853 22.6484 108.648C28.3032 113.984 35.1678 117.89 43.0505 120.254C48.5576 121.893 54.2707 122.738 60.0171 122.766C65.7621 122.738 71.4738 121.892 76.9795 120.254C84.8622 117.89 91.7268 113.984 97.3835 108.648C102.464 103.853 106.036 96.5201 106.072 96.4464C106.13 96.3262 106.158 96.194 106.155 96.0606C106.151 95.9272 106.116 95.7966 106.052 95.6796C105.988 95.5625 105.897 95.4625 105.786 95.3877C105.675 95.3129 105.548 95.2655 105.416 95.2495H105.411C105.261 95.2253 105.113 95.1909 104.967 95.1465C105.847 94.675 106.639 94.0548 107.307 93.3134C107.431 93.165 107.501 92.9787 107.504 92.7854C107.507 92.5921 107.445 92.4034 107.326 92.2507H107.325ZM20.2643 68.5142C20.2622 68.5173 20.2608 68.5208 20.2601 68.5246V68.5203C20.2613 68.5181 20.2627 68.516 20.2643 68.5142Z" fill="black"/>
<path d="M38.7898 146.473C38.7812 145.795 36.2086 146.964 36.2126 146.282C36.2089 142.67 36.4486 139.062 36.9299 135.483C36.9656 135.218 37.0056 134.953 37.0455 134.691C37.1802 133.815 37.326 132.967 37.483 132.148C38.3498 127.629 31.557 120.329 33.9972 118.143C34.4283 117.756 36.0631 117.618 37.1633 117.593C38.016 117.377 38.2025 117.068 39.3595 116.83C41.9071 116.308 44.7113 115.699 45.6517 114.848C49.3416 111.507 54.0686 110.071 59.8141 110.043H59.9486C65.6941 110.07 70.419 111.509 74.1089 114.848C75.3986 116.014 78.6318 116.085 81.4973 116.562C83.2813 116.86 78.2239 116.977 85.8604 118.294C86.2201 118.357 86.3147 118.859 86.4556 119.205C87.7115 122.311 82.0398 130.292 82.7153 134.689C83.2785 138.536 83.5569 142.42 83.5483 146.308C83.5525 146.991 82.2797 146.681 82.2714 147.358" fill="#FCFEFF"/>
<path d="M54.1198 145.501C55.298 145.501 56.2531 144.547 56.2531 143.371C56.2531 142.195 55.298 141.242 54.1198 141.242C52.9416 141.242 51.9865 142.195 51.9865 143.371C51.9865 144.547 52.9416 145.501 54.1198 145.501Z" fill="#0D1338"/>
<path d="M54.1451 137.025C55.3233 137.025 56.2784 136.072 56.2784 134.896C56.2784 133.72 55.3233 132.766 54.1451 132.766C52.9669 132.766 52.0118 133.72 52.0118 134.896C52.0118 136.072 52.9669 137.025 54.1451 137.025Z" fill="#0D1338"/>
<path d="M65.6147 145.501C66.7928 145.501 67.748 144.547 67.748 143.371C67.748 142.195 66.7928 141.242 65.6147 141.242C64.4365 141.242 63.4814 142.195 63.4814 143.371C63.4814 144.547 64.4365 145.501 65.6147 145.501Z" fill="#0D1338"/>
<path d="M65.6378 137.025C66.816 137.025 67.7711 136.072 67.7711 134.896C67.7711 133.72 66.816 132.766 65.6378 132.766C64.4597 132.766 63.5046 133.72 63.5046 134.896C63.5046 136.072 64.4597 137.025 65.6378 137.025Z" fill="#0D1338"/>
<path d="M49.704 127.033C47.2313 129.656 45.7677 133.067 45.5723 136.664C45.301 142.056 45.3239 148.699 45.4334 154.392C45.0716 154.346 44.7225 154.296 44.3817 154.247C44.2751 148.571 44.2533 141.979 44.5248 136.609C44.7327 132.765 46.2961 129.119 48.9385 126.315C50.3478 124.811 51.1155 125.525 49.704 127.033Z" fill="#0D1338"/>
<path d="M37.4777 135.351C37.1516 135.223 36.8172 135.091 36.4742 134.95L37.4777 135.351ZM83.2863 134.956C82.9434 135.093 82.6069 135.222 82.2829 135.347L83.2863 134.956Z" fill="black"/>
<path d="M36.3834 135.597C36.4697 134.453 37.9717 127.577 38.6869 128.094C38.7562 128.121 38.8126 128.173 38.8446 128.24C38.8767 128.307 38.8819 128.384 38.8593 128.455C38.5049 129.642 38.2155 130.848 37.9925 132.067C37.7527 133.283 37.6054 134.524 37.4183 135.746C37.2963 136.374 36.3117 136.229 36.3812 135.595L36.3834 135.597Z" fill="#0D1338"/>
<path d="M83.3698 135.626C83.1995 133.625 81.7899 127.577 81.0745 128.093C81.0051 128.12 80.9487 128.173 80.9167 128.24C80.8847 128.307 80.8795 128.384 80.9021 128.455C81.2566 129.642 81.5459 130.848 81.7689 132.067C82.0087 133.283 82.1539 134.524 82.3391 135.748C82.4617 136.376 83.4393 136.26 83.3698 135.626Z" fill="#0D1338"/>
<path d="M106.663 92.7737C106.663 92.7737 106.644 92.7968 106.625 92.8178C105.651 93.8823 104.39 94.643 102.994 95.0082C103.651 95.5754 104.454 95.9472 105.312 96.0812C103.788 99.0847 101.98 101.936 99.9138 104.597C99.1668 105.551 98.3683 106.464 97.5218 107.331C97.2862 107.572 97.0464 107.808 96.8023 108.039C96.249 108.56 95.6901 109.062 95.1257 109.547C93.2425 111.161 91.2365 112.626 89.1258 113.93C89.0248 113.993 88.926 114.054 88.8271 114.112C85.3804 116.197 81.7008 117.87 77.8636 119.099C72.0915 120.944 66.0712 121.898 60.0107 121.928C53.9502 121.897 47.93 120.944 42.1578 119.099C38.3217 117.87 34.6431 116.196 31.1975 114.112C31.1218 114.068 31.0462 114.021 30.9723 113.975C28.8354 112.661 26.8053 111.181 24.901 109.548C24.3351 109.063 23.7748 108.56 23.2202 108.039C22.9657 107.795 22.7139 107.547 22.4672 107.295C22.0275 106.846 21.6026 106.383 21.1924 105.907C20.8769 105.544 20.5705 105.175 20.2731 104.8C18.1585 102.107 16.3105 99.2162 14.755 96.1671C14.7284 96.1105 14.7129 96.081 14.7129 96.081C14.7624 96.0758 14.8116 96.0681 14.8603 96.0578C15.6333 95.9083 16.356 95.5667 16.9618 95.0646C16.985 95.0457 17.0082 95.0269 17.0292 95.008C15.6331 94.6429 14.3727 93.8821 13.4003 92.8176C13.3813 92.7965 13.3687 92.7817 13.3625 92.7734H13.4171C14.5213 92.8018 15.6158 92.5618 16.6064 92.0741C16.682 92.0342 16.7495 91.9943 16.8084 91.9587C16.8847 91.9139 16.9585 91.8648 17.0292 91.8116C17.0229 91.7696 17.0189 91.7275 17.0125 91.6834C16.9536 91.2591 16.9059 90.8309 16.8611 90.3981C16.8002 89.7745 16.7546 89.1431 16.7244 88.504C16.631 86.4611 16.6809 84.4142 16.8739 82.3783C17.1888 79.1372 17.7792 75.9287 18.6389 72.7876C22.249 59.3517 31.8757 49.3705 42.9644 44.4207C45.2215 43.4124 47.56 42.5968 49.955 41.9827C50.4493 41.8544 50.95 41.7369 51.4507 41.6257C52.187 41.464 52.931 41.3211 53.6828 41.1972C51.9599 39.1475 46.6983 38.8262 46.5848 38.6772C47.6472 38.6605 53.2053 38.9461 57.3075 40.7479C57.3608 40.7711 57.4141 40.7982 57.4674 40.8256C57.6272 40.7942 57.9955 40.7269 58.3531 40.6724H58.3677C58.6156 40.6278 58.867 40.606 59.1189 40.6072C59.0378 40.0945 58.8148 39.6146 58.4751 39.2216C58.1354 38.8287 57.6924 38.5383 57.1961 38.3833C57.3056 38.4086 63.0233 39.7063 63.8334 40.853C65.4262 41.0246 67.0084 41.2825 68.5732 41.6257C69.076 41.7369 69.5745 41.8547 70.071 41.9827C72.4657 42.5975 74.8043 43.4131 77.0616 44.4207C88.1503 49.3705 97.777 59.3517 101.387 72.7876C102.246 75.929 102.836 79.1374 103.152 82.3783C103.345 84.4142 103.395 86.4611 103.302 88.504C103.27 89.1424 103.224 89.7738 103.163 90.3981C103.121 90.8308 103.071 91.2592 103.013 91.6834C103.007 91.7275 103.001 91.7696 102.994 91.8116C103.039 91.8451 103.1 91.8871 103.177 91.9355C103.232 91.9691 103.295 92.0068 103.367 92.0467C103.75 92.2532 104.157 92.4125 104.578 92.5212C105.242 92.6913 105.924 92.7759 106.609 92.7731L106.663 92.7737Z" fill="#FCFEFF"/>
<path opacity="0.49" d="M106.157 92.9185C106.157 92.9185 106.139 92.9395 106.122 92.9605C105.876 93.2356 103.896 94.4517 101.988 94.8927C103.019 95.7893 104.923 96.2641 104.923 96.2641C103.26 99.1032 101.413 101.831 99.3942 104.43C98.6894 105.324 95.2792 108.559 94.7428 109.019C92.8875 110.608 88.5956 113.023 88.501 113.078C85.3006 114.998 81.9892 116.728 78.5841 118.258C77.1093 118.941 66.6581 122.295 62.8147 121.121C79.8128 115.938 84.1782 96.8626 84.1782 78.2008C84.1782 74.743 89.9172 76.2325 89.1176 73.0223C90.8048 68.9442 86.0924 56.8125 81.6998 52.3018C77.0674 47.5454 66.0053 41.9046 65.2445 41.4133C66.6099 41.5772 74.544 44.1307 76.6827 45.084C87.2393 49.7965 97.0216 60.9454 100.457 73.7365C101.276 76.7263 101.838 79.7802 102.138 82.8652C102.322 84.8034 102.37 86.7521 102.281 88.697C102.249 89.3061 102.207 89.9067 102.148 90.5009C102.108 90.9124 102.059 91.3221 102.004 91.7245C101.998 91.7665 101.994 91.8064 101.988 91.8463C102.03 91.8777 102.087 91.9176 102.162 91.9639C102.213 91.9953 102.274 92.0312 102.341 92.0703C102.707 92.2661 103.094 92.4179 103.496 92.5225C104.351 92.737 105.224 92.8685 106.104 92.9151H106.158L106.157 92.9185Z" fill="#C5EFFF"/>
<path d="M64.9288 91.8552C64.7647 93.0293 63.2605 94.938 61.2745 94.6609C59.2886 94.3837 57.6203 92.5189 57.7866 91.3451C57.9528 90.1712 59.4442 90.3516 61.5479 90.3558C63.5275 90.358 65.0919 90.6835 64.9264 91.8574L64.9288 91.8552Z" fill="black"/>
<path d="M68.3621 97.7194C68.1561 97.8057 67.9583 97.9104 67.7711 98.0322C67.8077 98.6361 67.7831 99.242 67.6976 99.8409C67.1127 103.988 63.8478 106.962 60.4019 106.479C56.956 105.996 54.8481 102.569 55.1635 98.6461C54.8918 98.3585 54.5809 98.1104 54.24 97.9091C52.9714 97.1866 52.4917 96.0841 52.9588 94.589C53.0513 94.2904 53.1957 94.0103 53.3852 93.7615C53.5829 93.4865 53.8944 93.686 53.8102 94.0009C53.8101 94.009 53.8079 94.017 53.8038 94.024C53.2442 96.1785 54.09 97.0773 55.3732 97.995C56.352 98.5501 57.4829 98.7785 58.6009 98.6467C59.7189 98.5148 60.7654 98.0297 61.5876 97.2622C62.3231 97.8085 63.1885 98.1542 64.0984 98.2654C65.0084 98.3766 65.9317 98.2494 66.7775 97.8963C68.3995 97.0648 69.5985 96.3634 69.2894 93.9254V93.9022C69.2473 93.5809 69.5839 93.4213 69.744 93.7195C69.8995 93.9918 70.0069 94.2887 70.0616 94.5972C70.3308 96.14 69.7152 97.1696 68.364 97.7242L68.3621 97.7194Z" fill="black"/>
<path d="M49.1655 90.5314C48.4775 95.4256 45.9048 102.22 35.7092 100.126C29.5095 98.8539 27.8393 92.9181 29.2276 88.1753C31.2702 81.1971 36.519 79.1051 41.4208 79.7943C46.3226 80.4834 49.8554 85.6383 49.1655 90.5314Z" fill="black"/>
<path d="M39.295 90.5188C40.2292 90.5188 40.9865 89.7629 40.9865 88.8303C40.9865 87.8978 40.2292 87.1418 39.295 87.1418C38.3608 87.1418 37.6035 87.8978 37.6035 88.8303C37.6035 89.7629 38.3608 90.5188 39.295 90.5188Z" fill="white"/>
<path d="M42.5514 95.6215C43.4344 95.6215 44.1502 94.907 44.1502 94.0256C44.1502 93.1442 43.4344 92.4297 42.5514 92.4297C41.6684 92.4297 40.9526 93.1442 40.9526 94.0256C40.9526 94.907 41.6684 95.6215 42.5514 95.6215Z" fill="white"/>
<path d="M44.8486 74.8627C44.5834 75.6104 43.3548 74.3124 37.6032 75.3835C33.7723 76.0974 31.3656 79.001 30.4948 77.9309C30.1162 77.4646 33.1328 75.0896 36.9301 74.2603C40.5212 73.4748 45.1283 74.0741 44.8464 74.863L44.8486 74.8627Z" fill="black"/>
<path d="M65.8795 101.995C65.8397 102.451 65.6768 102.887 65.4081 103.257C64.7953 104.316 61.6319 106.021 60.5991 105.481C59.5535 104.937 59.339 103.715 59.707 102.582C59.9539 101.692 60.4048 100.871 61.0241 100.184C61.3053 99.8287 61.6712 99.5494 62.0882 99.3715C62.5053 99.1937 62.9603 99.1228 63.4118 99.1653C63.76 99.1893 64.1001 99.2816 64.4126 99.4368C64.7251 99.592 65.0039 99.8071 65.233 100.07C65.4622 100.333 65.6372 100.638 65.7482 100.968C65.8591 101.299 65.9037 101.648 65.8795 101.995Z" fill="#CE111F"/>
<path d="M73.3394 86.3899C72.6325 91.4046 73.2426 98.8241 83.8771 99.6362C90.3438 100.13 93.6698 94.7558 93.6448 89.6927C93.6069 82.2419 89.0313 78.7013 84.0055 77.9956C78.9798 77.2899 74.0442 81.3737 73.3375 86.3894L73.3394 86.3899Z" fill="black"/>
<path d="M80.873 88.8536C81.8305 88.8536 82.6066 88.0788 82.6066 87.1231C82.6066 86.1674 81.8305 85.3926 80.873 85.3926C79.9156 85.3926 79.1394 86.1674 79.1394 87.1231C79.1394 88.0788 79.9156 88.8536 80.873 88.8536Z" fill="white"/>
<path d="M78.8679 93.3301C79.7718 93.3301 80.5045 92.5987 80.5045 91.6964C80.5045 90.7942 79.7718 90.0627 78.8679 90.0627C77.964 90.0627 77.2313 90.7942 77.2313 91.6964C77.2313 92.5987 77.964 93.3301 78.8679 93.3301Z" fill="white"/>
<path d="M90.6596 75.9235C90.161 76.543 89.4339 74.9093 83.6501 74.0294C79.7981 73.4413 76.5667 75.3859 76.0975 74.0882C75.8955 73.5211 79.5287 72.2739 83.3871 72.7463C87.0368 73.1891 91.1874 75.2729 90.6596 75.9235Z" fill="black"/>
<path d="M58.6449 113.232C59.5287 113.653 60.4953 113.873 61.4747 113.876C62.4542 113.878 63.4219 113.663 64.3079 113.247C64.3329 113.237 64.3608 113.236 64.3864 113.244C64.412 113.253 64.4338 113.27 64.4478 113.293C64.4617 113.316 64.467 113.343 64.4625 113.37C64.4581 113.397 64.4443 113.421 64.4236 113.438C63.5558 114.034 62.5267 114.352 61.4732 114.35C60.4198 114.348 59.3921 114.025 58.5268 113.426C58.5153 113.416 58.5059 113.405 58.4989 113.392C58.492 113.379 58.4877 113.365 58.4863 113.35C58.4849 113.335 58.4865 113.32 58.491 113.306C58.4954 113.292 58.5026 113.279 58.5121 113.268C58.5277 113.25 58.5487 113.237 58.5721 113.231C58.5955 113.225 58.6202 113.227 58.6425 113.236L58.6449 113.232Z" fill="#0D1338"/>
<path d="M44.4785 124.958H74.6152V150.95H44.4785V124.958Z" fill="#00A6ED"/>
<path d="M74.6165 151.473H44.4798C44.3408 151.473 44.2076 151.418 44.1094 151.32C44.0111 151.222 43.9559 151.089 43.9559 150.95V124.958C43.9559 124.82 44.0111 124.687 44.1094 124.588C44.2076 124.49 44.3408 124.435 44.4798 124.435H74.6165C74.7554 124.435 74.8887 124.49 74.9869 124.588C75.0852 124.687 75.1404 124.82 75.1404 124.958V150.95C75.1404 151.019 75.1269 151.087 75.1006 151.15C75.0743 151.213 75.0357 151.271 74.987 151.32C74.9384 151.368 74.8806 151.407 74.817 151.433C74.7535 151.459 74.6853 151.473 74.6165 151.473ZM45.0023 150.424H74.0905V125.481H45.0023V150.424Z" fill="black"/>
<path d="M41.3942 155.845L44.4782 150.951V124.958L41.3942 132.957V155.845Z" fill="#00A6ED"/>
<path d="M41.3944 156.368C41.3452 156.368 41.2963 156.361 41.2492 156.347C41.1399 156.315 41.0438 156.249 40.9755 156.158C40.9072 156.067 40.8704 155.957 40.8706 155.843V132.955C40.8708 132.89 40.8829 132.826 40.9063 132.766L43.9903 124.767C44.0341 124.653 44.1165 124.558 44.2233 124.498C44.3301 124.438 44.4545 124.417 44.5749 124.439C44.6954 124.461 44.8043 124.525 44.8827 124.619C44.9612 124.713 45.0042 124.831 45.0044 124.953V150.945C45.0046 151.044 44.9769 151.141 44.9245 151.224L41.8405 156.119C41.7934 156.194 41.728 156.256 41.6504 156.299C41.5727 156.342 41.4854 156.364 41.3966 156.364L41.3944 156.368ZM41.9183 133.054V154.027L43.9527 150.797V127.776L41.9183 133.054Z" fill="black"/>
<path d="M77.7005 155.845L74.6165 150.951V124.958L77.7005 132.958V155.845Z" fill="#00A6ED"/>
<path d="M77.7008 156.368C77.612 156.368 77.5247 156.346 77.447 156.303C77.3694 156.26 77.3039 156.198 77.2569 156.123L74.1729 151.228C74.1205 151.145 74.0928 151.048 74.0929 150.949V124.956C74.0931 124.834 74.1362 124.716 74.2147 124.622C74.2931 124.528 74.402 124.465 74.5225 124.442C74.6429 124.42 74.7673 124.441 74.8741 124.501C74.9809 124.561 75.0633 124.656 75.1071 124.77L78.1908 132.767C78.2141 132.827 78.2262 132.891 78.2265 132.956V155.844C78.2265 155.958 78.1896 156.068 78.1214 156.16C78.0531 156.251 77.9572 156.317 77.8479 156.349C77.8008 156.364 77.7518 156.371 77.7027 156.37L77.7008 156.368ZM75.1404 150.797L77.1748 154.027V133.054L75.1404 127.777V150.797Z" fill="black"/>
<path d="M77.7005 132.957H41.3944V155.845H77.7005V132.957Z" fill="#00A6ED"/>
<g opacity="0.4">
<path d="M77.7005 132.957H41.3944V134.391H77.7005V132.957Z" fill="white"/>
</g>
<g opacity="0.35">
<path d="M77.7005 131.662H41.3944V133.096H77.7005V131.662Z" fill="#0D1338"/>
</g>
<g opacity="0.35">
<path d="M77.7005 153.676H41.3944V155.845H77.7005V153.676Z" fill="#0D1338"/>
</g>
<path d="M77.7005 156.37H41.3944C41.2555 156.37 41.1223 156.315 41.0241 156.217C40.9259 156.119 40.8706 155.986 40.8706 155.847V132.959C40.8706 132.82 40.9258 132.687 41.024 132.589C41.1222 132.491 41.2555 132.436 41.3944 132.436H77.7005C77.7693 132.436 77.8374 132.45 77.901 132.476C77.9646 132.502 78.0223 132.541 78.0709 132.589C78.1196 132.638 78.1582 132.695 78.1845 132.759C78.2108 132.822 78.2244 132.89 78.2244 132.959V155.847C78.2243 155.986 78.1691 156.119 78.0709 156.217C77.9726 156.315 77.8394 156.37 77.7005 156.37ZM41.9183 155.322H77.1748V133.482H41.9183V155.322Z" fill="black"/>
<path d="M93.8139 134.753V134.766C92.6988 139.056 90.3995 142.395 86.979 144.69C86.8908 144.749 86.8023 144.808 86.7125 144.867C86.6957 144.877 86.6768 144.89 86.6592 144.9C86.5793 144.953 86.4972 145.003 86.4151 145.051L86.3331 145.102C86.2638 145.144 86.1942 145.186 86.1247 145.226C86.0911 145.247 86.0573 145.266 86.0237 145.285C85.9563 145.325 85.8889 145.362 85.8196 145.402C85.7879 145.419 85.7564 145.438 85.7247 145.455C85.6469 145.5 85.5691 145.541 85.4913 145.583C85.4767 145.59 85.4647 145.598 85.4513 145.604C85.3754 145.644 85.3019 145.684 85.2241 145.722C85.1862 145.743 85.1463 145.762 85.1084 145.781C85.0178 145.827 84.9254 145.873 84.835 145.917C84.7284 145.971 84.6205 146.02 84.511 146.071C84.406 146.119 84.3005 146.167 84.1934 146.213C84.1851 146.217 84.1766 146.22 84.1683 146.224C84.0652 146.27 83.96 146.314 83.855 146.358C83.8476 146.362 83.8398 146.365 83.8318 146.366C83.7287 146.411 83.6256 146.453 83.5203 146.492C83.516 146.492 83.512 146.496 83.5078 146.496C83.394 146.541 83.2805 146.584 83.1649 146.629C83.0492 146.674 82.9357 146.715 82.8185 146.755C82.7012 146.795 82.5848 146.837 82.4673 146.875C82.2317 146.955 81.9937 147.028 81.7497 147.1C79.2448 147.806 76.6515 148.149 74.049 148.12H73.2075C71.3436 148.11 69.3659 148.005 67.7885 147.352C67.1517 147.101 66.5726 146.724 66.0866 146.243C65.8085 145.96 65.5712 145.64 65.3818 145.292C64.9131 144.369 64.6935 143.34 64.7444 142.306C64.8433 139.139 66.9805 137.314 70.6095 137.295C71.6256 137.217 72.5736 137.107 73.4537 136.966C73.4726 136.963 73.4915 136.959 73.5083 136.957C78.9422 136.075 81.7526 133.99 81.8685 130.741C81.8729 130.194 81.7546 129.653 81.5221 129.158C81.4688 129.074 81.4233 128.981 81.3726 128.883C81.3123 128.737 81.2277 128.602 81.1224 128.484L80.9983 128.389L80.9857 128.236C80.9857 128.209 80.9626 128.177 80.9775 128.154C82.0798 126.489 82.7425 122.36 83.1211 119.754C83.851 119.437 84.5707 119.078 85.2712 118.723C85.2712 118.708 85.9275 118.404 86.0538 118.332C88.1891 119.304 90.0025 120.863 91.2815 122.827C93.5997 126.301 94.6179 131.097 93.8145 134.758L93.8139 134.753Z" fill="#FCFEFF"/>
<path d="M65.2589 145.295C65.4477 145.644 65.685 145.964 65.9637 146.246C66.4501 146.727 67.0291 147.104 67.6656 147.355C69.2415 148.008 71.221 148.113 73.0849 148.124H73.8611C76.0951 142.907 74.7636 139.121 73.3857 136.958C73.3668 136.96 73.35 136.964 73.3311 136.966C72.4516 137.107 71.5035 137.217 70.4869 137.296C66.858 137.317 64.7228 139.14 64.6216 142.307C64.5704 143.34 64.7901 144.37 65.2589 145.293V145.295Z" fill="black"/>
<path opacity="0.4" d="M74.4628 138.56C73.4657 138.676 72.3948 138.765 71.2503 138.829C67.8465 138.844 65.5659 139.85 64.7433 141.643V141.51C64.8422 138.815 66.9795 137.262 70.6087 137.245C71.6248 137.178 72.5728 137.085 73.4529 136.966C73.4718 136.963 73.4907 136.959 73.5075 136.957C73.8829 137.456 74.2032 137.993 74.4628 138.56Z" fill="white"/>
<path d="M73.4425 148.591H73.0785C71.2524 148.58 69.157 148.477 67.4868 147.786C66.7926 147.511 66.1613 147.098 65.6312 146.572C65.3228 146.259 65.06 145.905 64.8507 145.518C64.3436 144.524 64.1044 143.415 64.1566 142.3V142.294C64.2099 140.605 64.8214 139.213 65.928 138.268C67.0282 137.327 68.5556 136.844 70.468 136.832C71.4608 136.754 72.3993 136.647 73.2576 136.509L73.6173 136.452L73.7814 136.708C75.2771 139.051 76.5793 142.966 74.2925 148.305L74.1726 148.586H73.8361C73.7076 148.588 73.5773 148.588 73.447 148.588L73.4425 148.591ZM65.669 145.072C65.8378 145.382 66.0488 145.667 66.296 145.918C66.7379 146.356 67.2648 146.698 67.8444 146.924C69.3654 147.555 71.347 147.649 73.0868 147.657H73.5496C75.4367 143.027 74.4289 139.602 73.1499 137.464C72.3359 137.588 71.4502 137.686 70.5202 137.756H70.4866C67.0975 137.778 65.179 139.394 65.0863 142.316C65.0387 143.268 65.2387 144.216 65.6669 145.069L65.669 145.072Z" fill="black"/>
<path opacity="0.49" d="M93.815 134.753V134.766C92.7001 139.056 90.4006 142.395 86.98 144.69C86.8916 144.749 86.8034 144.808 86.7136 144.867C86.6968 144.877 86.6779 144.89 86.6603 144.9C86.5803 144.953 86.4983 145.003 86.4162 145.051L86.3341 145.102C86.2646 145.144 86.1953 145.186 86.1257 145.226C86.0922 145.247 86.0583 145.266 86.0248 145.285C85.9574 145.324 85.8902 145.362 85.8207 145.402C85.789 145.419 85.7575 145.438 85.7261 145.455C85.6483 145.499 85.5705 145.542 85.4926 145.584C85.478 145.59 85.466 145.598 85.4527 145.605C85.377 145.644 85.3035 145.684 85.2254 145.722C85.1875 145.743 85.1476 145.762 85.1097 145.781C85.0194 145.827 84.9267 145.873 84.8361 145.917C84.7295 145.971 84.6216 146.02 84.5123 146.071C84.4071 146.119 84.3018 146.167 84.1947 146.213C84.1864 146.218 84.1779 146.22 84.1694 146.224C84.0663 146.27 83.9613 146.314 83.856 146.358C83.8487 146.362 83.8409 146.365 83.8329 146.366C83.7297 146.411 83.6266 146.453 83.5216 146.492C83.5174 146.492 83.5131 146.496 83.5091 146.496C83.3953 146.541 83.2818 146.584 83.1662 146.629C83.0505 146.674 82.937 146.716 82.8198 146.756C82.7025 146.795 82.5861 146.837 82.4683 146.875C82.2328 146.955 81.9951 147.028 81.751 147.1C79.2461 147.805 76.6529 148.149 74.0503 148.12H73.2067C71.3414 148.11 69.3651 148.005 67.7874 147.352C67.1506 147.101 66.5716 146.724 66.0855 146.243C65.8075 145.96 65.5703 145.64 65.3807 145.292C65.0619 144.688 64.8621 144.029 64.7918 143.35C64.8129 143.392 64.8339 143.432 64.855 143.472C65.0438 143.82 65.281 144.141 65.5598 144.423C66.0462 144.903 66.6252 145.281 67.2617 145.532C68.8372 146.185 70.817 146.29 72.6809 146.3H73.5224C76.125 146.329 78.7183 145.986 81.2231 145.28C81.4651 145.208 81.7028 145.135 81.9405 145.055C82.0582 145.015 82.1763 144.975 82.2917 144.935C82.407 144.895 82.5232 144.851 82.638 144.809C82.7529 144.767 82.8675 144.723 82.981 144.676C82.9852 144.676 82.9895 144.672 82.9935 144.672C83.0988 144.63 83.2019 144.588 83.3047 144.546C83.3111 144.546 83.3194 144.54 83.3279 144.538C83.4329 144.494 83.536 144.449 83.6415 144.403C83.6498 144.399 83.6583 144.397 83.6666 144.393C83.7732 144.346 83.8798 144.298 83.9842 144.25C84.0937 144.2 84.2008 144.149 84.3082 144.096C84.4007 144.052 84.4913 144.006 84.5816 143.96C84.6195 143.941 84.6594 143.92 84.6973 143.901C84.7729 143.863 84.8486 143.824 84.9245 143.784C84.9371 143.777 84.9512 143.769 84.9645 143.763C85.0423 143.721 85.1201 143.679 85.1979 143.635C85.2294 143.618 85.2611 143.601 85.2925 143.581C85.3621 143.542 85.4292 143.504 85.4966 143.464C85.5302 143.445 85.5641 143.426 85.5976 143.405C85.6672 143.365 85.7364 143.323 85.806 143.281L85.8881 143.231C85.9701 143.181 86.0501 143.13 86.1321 143.08C86.1511 143.069 86.1679 143.057 86.1854 143.046C86.2758 142.988 86.3642 142.929 86.4519 142.87C89.8727 140.573 92.172 137.234 93.2826 132.945V132.933C93.709 131.007 93.6277 128.766 93.1185 126.572C94.0695 129.314 94.3533 132.291 93.8113 134.753L93.815 134.753Z" fill="#C5EFFF"/>
<path d="M94.4883 134.942C92.1784 144.396 83.5701 148.966 73.9349 148.812C71.0443 148.674 67.0685 149.039 65.2067 146.261C63.6372 144.159 63.6455 140.798 65.3413 138.786C66.5614 137.22 68.3496 136.905 70.6217 136.695C74.8334 136.306 79.8277 135.972 81.0816 131.401C81.3208 130.447 81.247 129.441 80.8711 128.531C80.8486 128.487 80.8378 128.437 80.8397 128.388C80.8408 128.34 80.8539 128.294 80.8778 128.253C80.9017 128.212 80.9356 128.177 80.9764 128.153C80.9886 128.144 81.0021 128.138 81.0164 128.134C81.0713 128.119 81.1289 128.118 81.1843 128.131C81.2397 128.144 81.2911 128.17 81.334 128.207C81.9756 128.791 82.2261 130.147 82.2154 130.754C82.022 136.124 75.0375 137.307 70.6217 137.644C67.1716 137.721 65.1921 139.181 65.0932 142.312C65.0026 147.632 69.8181 147.793 74.0447 147.772C84.3034 147.772 91.2743 143.148 93.4697 134.676C94.7236 128.964 91.5112 119.302 83.374 117.828C83.2626 117.807 83.1552 117.738 83.05 117.723C83.0036 117.717 82.8608 117.568 82.7513 117.61C82.9511 117.526 83.2605 117.534 83.4582 117.446C83.8222 117.286 84.2197 117.15 84.5752 116.98C84.6069 116.988 84.6384 116.994 84.6677 117.003C91.7257 118.884 96.0594 128.082 94.4857 134.937L94.4883 134.942Z" fill="black"/>
<path d="M25.8307 134.627V134.639C26.9456 138.93 29.2451 142.268 32.6657 144.564C32.7542 144.623 32.8424 144.682 32.9322 144.74C32.949 144.751 32.9679 144.763 32.9855 144.774C33.0654 144.827 33.1475 144.877 33.2295 144.925L33.3116 144.975C33.3812 145.017 33.4504 145.059 33.52 145.099C33.5536 145.12 33.5874 145.139 33.621 145.158C33.6884 145.198 33.7555 145.236 33.8251 145.276C33.8565 145.292 33.8882 145.311 33.9197 145.329C33.9975 145.373 34.0753 145.415 34.1531 145.457C34.1677 145.463 34.1797 145.472 34.1931 145.478C34.2687 145.518 34.3425 145.558 34.4204 145.595C34.4582 145.616 34.4982 145.635 34.536 145.654C34.6263 145.7 34.7191 145.747 34.8094 145.791C34.916 145.844 35.0239 145.894 35.1334 145.944C35.2387 145.992 35.3439 146.04 35.451 146.087C35.4595 146.091 35.4678 146.093 35.4763 146.097C35.5795 146.143 35.6847 146.188 35.7897 146.231C35.7971 146.235 35.8048 146.238 35.8129 146.24C35.916 146.284 36.0191 146.326 36.1241 146.366C36.1284 146.366 36.1326 146.37 36.1366 146.37C36.2501 146.414 36.3639 146.459 36.4796 146.503C36.5952 146.548 36.709 146.589 36.826 146.629C36.9429 146.669 37.0594 146.711 37.1774 146.749C37.413 146.829 37.6507 146.902 37.8947 146.974C40.3996 147.68 42.9929 148.023 45.5955 147.994H46.4369C48.3008 147.984 50.2782 147.879 51.8562 147.226C52.493 146.975 53.072 146.598 53.5581 146.117C53.8362 145.834 54.0734 145.514 54.2629 145.166C54.7316 144.242 54.9513 143.213 54.9003 142.179C54.8014 139.013 52.6641 137.188 49.0352 137.169C48.0191 137.091 47.071 136.981 46.191 136.839C46.1721 136.837 46.1532 136.833 46.1364 136.83C40.7024 135.948 37.8918 133.863 37.7762 130.614C37.7717 130.067 37.8901 129.526 38.1226 129.031C38.1758 128.947 38.2214 128.855 38.272 128.756C38.3324 128.61 38.417 128.475 38.5222 128.357L38.6464 128.263L38.6589 128.109C38.6589 128.083 38.6821 128.051 38.6675 128.027C37.5651 126.362 36.9024 122.234 36.5238 119.627C35.7937 119.31 35.0742 118.951 34.3737 118.596C34.3737 118.581 33.7174 118.277 33.5911 118.206C31.4558 119.177 29.6423 120.737 28.3634 122.701C26.0452 126.174 25.0268 130.971 25.8304 134.631L25.8307 134.627Z" fill="#FCFEFF"/>
<path d="M54.3871 145.166C54.1984 145.515 53.9611 145.836 53.6823 146.118C53.1958 146.598 52.6169 146.976 51.9804 147.227C50.4048 147.88 48.425 147.985 46.5611 147.996H45.7849C43.5509 142.779 44.8824 138.993 46.2603 136.83C46.2792 136.832 46.296 136.836 46.3149 136.838C47.1942 136.979 48.1423 137.089 49.1591 137.168C52.788 137.189 54.9232 139.012 55.0242 142.178C55.0754 143.212 54.8557 144.242 54.3868 145.165L54.3871 145.166Z" fill="black"/>
<path opacity="0.4" d="M45.183 138.432C46.1802 138.547 47.2511 138.637 48.3954 138.701C51.7992 138.716 54.0796 139.721 54.9021 141.515V141.382C54.8033 138.688 52.666 137.133 49.0371 137.117C48.021 137.049 47.0729 136.956 46.1929 136.837C46.1739 136.835 46.155 136.831 46.1382 136.829C45.7629 137.327 45.4427 137.864 45.1832 138.431L45.183 138.432Z" fill="white"/>
<path d="M46.2033 148.461H46.5672C48.3933 148.451 50.4885 148.348 52.1589 147.657C52.8532 147.382 53.4845 146.969 54.0146 146.443C54.3231 146.13 54.5858 145.775 54.795 145.389C55.3019 144.395 55.5411 143.286 55.4892 142.172V142.166C55.4359 140.477 54.8243 139.085 53.7177 138.14C52.6175 137.199 51.0901 136.716 49.178 136.704C48.1849 136.626 47.2467 136.519 46.3884 136.38L46.0287 136.323L45.8646 136.58C44.3687 138.923 43.0667 142.838 45.3532 148.177L45.4732 148.458H45.811C45.9395 148.46 46.0698 148.46 46.2003 148.46L46.2033 148.461ZM53.9765 144.944C53.8077 145.254 53.5967 145.538 53.3495 145.79C52.9076 146.227 52.3806 146.57 51.8011 146.796C50.2801 147.426 48.2984 147.521 46.5584 147.529H46.0961C44.2091 142.898 45.2168 139.473 46.4958 137.335C47.3099 137.459 48.1956 137.558 49.1255 137.629H49.1591C52.5482 137.65 54.4667 139.267 54.5595 142.188C54.607 143.141 54.407 144.089 53.9789 144.942L53.9765 144.944Z" fill="black"/>
<path opacity="0.49" d="M25.8297 134.627V134.639C26.9445 138.929 29.2441 142.268 32.6646 144.564C32.7531 144.622 32.8413 144.681 32.9311 144.74L32.9844 144.774C33.0643 144.827 33.1464 144.877 33.2285 144.925L33.3105 144.975C33.3801 145.017 33.4494 145.059 33.5189 145.099C33.5525 145.12 33.5863 145.139 33.6199 145.158C33.6873 145.198 33.7545 145.236 33.824 145.275C33.8555 145.292 33.8872 145.311 33.9186 145.329C33.9964 145.373 34.0742 145.415 34.152 145.457C34.1667 145.463 34.1787 145.471 34.192 145.478C34.2677 145.518 34.3415 145.558 34.4193 145.595C34.4571 145.616 34.4971 145.635 34.5349 145.654C34.6253 145.7 34.718 145.746 34.8083 145.791C34.9149 145.844 35.0228 145.894 35.1323 145.944C35.2376 145.992 35.3428 146.041 35.45 146.087C35.4585 146.091 35.4667 146.093 35.4753 146.097C35.5784 146.144 35.6836 146.187 35.7886 146.232C35.796 146.235 35.8038 146.238 35.8118 146.24C35.9149 146.284 36.0181 146.326 36.123 146.366C36.1273 146.366 36.1316 146.37 36.1356 146.37C36.2491 146.414 36.3629 146.458 36.4785 146.503C36.5941 146.548 36.7079 146.589 36.8249 146.629C36.9419 146.669 37.0583 146.711 37.1761 146.749C37.4116 146.829 37.6493 146.902 37.8934 146.974C40.3983 147.68 42.9915 148.023 45.5941 147.994H46.4356C48.2995 147.984 50.2769 147.879 51.8549 147.226C52.4917 146.975 53.0707 146.598 53.5568 146.117C53.8348 145.834 54.0721 145.514 54.2616 145.166C54.5803 144.562 54.7803 143.903 54.8507 143.224C54.8297 143.266 54.8086 143.305 54.7876 143.346C54.5988 143.694 54.3615 144.015 54.0828 144.297C53.5963 144.778 53.0174 145.155 52.3809 145.406C50.8053 146.059 48.8255 146.164 46.9616 146.174H46.1233C43.5207 146.203 40.9275 145.86 38.4226 145.154C38.1807 145.083 37.943 145.009 37.7053 144.929C37.5875 144.889 37.4697 144.85 37.3541 144.81C37.2384 144.77 37.1228 144.726 37.0077 144.684C36.8926 144.641 36.7783 144.597 36.6648 144.551C36.6605 144.551 36.6562 144.546 36.652 144.546C36.5467 144.504 36.4439 144.462 36.3407 144.42C36.3343 144.42 36.3261 144.414 36.3176 144.412C36.2123 144.368 36.1092 144.324 36.0042 144.277C35.9957 144.273 35.9874 144.271 35.9789 144.267C35.8723 144.221 35.7657 144.173 35.6613 144.124C35.5517 144.074 35.4446 144.023 35.3372 143.971C35.2448 143.927 35.1542 143.881 35.0639 143.835C35.026 143.816 34.9861 143.795 34.9482 143.776C34.8725 143.738 34.7969 143.698 34.7209 143.658C34.7084 143.652 34.6943 143.644 34.681 143.637C34.6031 143.595 34.5253 143.553 34.4475 143.509C34.4161 143.492 34.3844 143.476 34.3529 143.456C34.2834 143.416 34.2162 143.378 34.1488 143.338C34.1153 143.32 34.0814 143.301 34.0478 143.28C33.9786 143.24 33.909 143.198 33.8395 143.156L33.7574 143.105C33.6753 143.055 33.5954 143.005 33.5133 142.954C33.4944 142.944 33.4776 142.931 33.46 142.92C33.3694 142.862 33.2812 142.803 33.1936 142.744C29.773 140.447 27.4735 137.107 26.3628 132.819V132.806C25.9365 130.881 26.0178 128.64 26.527 126.446C25.576 129.188 25.2919 132.164 25.8342 134.627L25.8297 134.627Z" fill="#C5EFFF"/>
<path d="M25.1555 134.814C27.4655 144.268 36.0737 148.838 45.709 148.684C48.5995 148.546 52.5757 148.911 54.4374 146.132C56.0069 144.031 55.9984 140.67 54.3029 138.658C53.0827 137.092 51.2945 136.777 49.0224 136.566C44.8107 136.178 39.8164 135.844 38.5627 131.273C38.3236 130.319 38.3973 129.312 38.7733 128.402C38.7958 128.358 38.8066 128.309 38.8047 128.26C38.8036 128.212 38.7905 128.166 38.7666 128.125C38.7427 128.084 38.7088 128.049 38.668 128.025C38.6558 128.016 38.6423 128.01 38.628 128.006C38.5731 127.991 38.5155 127.99 38.4601 128.003C38.4047 128.016 38.3533 128.042 38.3104 128.079C37.6688 128.663 37.4183 130.021 37.429 130.626C37.6224 135.996 44.6069 137.179 49.0227 137.516C52.4728 137.593 54.4523 139.053 54.5512 142.184C54.6418 147.504 49.8263 147.665 45.5997 147.644C35.341 147.644 28.3701 143.02 26.1747 134.548C24.9208 128.836 28.1465 119.147 36.2853 117.675C36.397 117.654 36.5041 117.637 36.6115 117.621C36.6578 117.615 36.7567 117.592 36.8009 117.588C36.6011 117.504 36.3866 117.405 36.1881 117.319C35.8241 117.16 35.4265 117.023 35.071 116.853C35.0396 116.862 35.0079 116.868 34.9786 116.876C27.9206 118.758 23.5868 127.956 25.1606 134.81L25.1555 134.814Z" fill="black"/>
<path d="M33.2861 118.599C33.5313 118.762 33.8026 118.95 34.0932 119.164C35.6447 120.293 37.0388 121.622 38.2386 123.118C39.4883 124.748 40.5654 126.503 41.4526 128.355C41.5764 128.607 41.6912 128.847 41.7966 129.073L43.0459 126.154C42.7099 125.628 42.037 124.611 41.1371 123.434C39.4244 121.194 37.6686 119.391 36.0593 118.22C35.5522 117.851 35.1285 117.666 34.8328 117.684C34.5992 117.722 34.3818 117.828 34.2067 117.987L34.0627 118.091C33.9981 118.138 33.9235 118.192 33.8412 118.245L33.838 118.248C33.6439 118.373 33.4584 118.49 33.2861 118.599ZM31.5567 118.59C32.2225 118.319 32.8609 117.985 33.4632 117.592C33.5711 117.522 34.5201 117.242 34.6333 117.16C35.2397 116.72 34.931 116.461 36.4854 117.592C40.6017 120.587 44.0531 126.078 44.0531 126.078L41.8004 131.337C41.8004 131.337 40.1526 126.993 37.5349 123.669C35.8823 121.613 33.8536 119.89 31.5567 118.59Z" fill="black"/>
<path d="M87.3198 118.59C87.3198 118.59 86.5458 118.16 85.5254 117.499C84.8399 117.051 84.1342 116.157 82.29 117.498C78.1737 120.493 74.8243 126.077 74.8243 126.077L77.076 131.337C77.076 131.337 78.7238 126.993 81.3415 123.669C82.9941 121.614 85.0229 119.89 87.3198 118.59Z" fill="white"/>
<path d="M85.5904 118.599C85.3452 118.762 85.0739 118.95 84.7833 119.164C83.2318 120.293 81.8377 121.622 80.638 123.118C79.3881 124.749 78.311 126.504 77.4238 128.356C77.3 128.607 77.1852 128.847 77.0798 129.073L75.8305 126.155C76.1665 125.629 76.8395 124.611 77.7393 123.434C79.452 121.194 81.2078 119.391 82.8173 118.22C83.3243 117.851 83.748 117.666 84.0437 117.684C84.2773 117.723 84.4947 117.828 84.6698 117.987L84.8138 118.091C84.8785 118.138 84.9531 118.192 85.0353 118.245L85.0385 118.248C85.2327 118.374 85.4181 118.49 85.5904 118.599ZM87.3198 118.59C87.3198 118.59 86.5458 118.16 85.5254 117.499C85.4175 117.428 85.309 117.347 85.1958 117.264C84.5894 116.825 83.8439 116.368 82.2909 117.499C78.1745 120.493 74.8252 126.078 74.8252 126.078L77.076 131.337C77.076 131.337 78.7238 126.993 81.3415 123.669C82.9941 121.614 85.0229 119.89 87.3198 118.59Z" fill="black"/>
<path d="M44.8358 125.486L74.1345 125.41L76.9622 132.466L42.1261 132.444L44.8358 125.486Z" fill="#00A6ED"/>
</g>
<path d="M127.437 55.5331C128.378 55.5577 129.315 55.3947 130.192 55.0537C131.069 54.7126 131.869 54.2003 132.545 53.5468C133.222 52.8933 133.761 52.1117 134.131 51.2478C134.501 50.3838 134.694 49.4548 134.7 48.5152C134.698 47.5746 134.507 46.6439 134.138 45.7782C133.77 44.9126 133.231 44.1295 132.554 43.4753C131.876 42.8211 131.075 42.309 130.196 41.9694C129.317 41.6298 128.379 41.4695 127.437 41.4981C126.495 41.4695 125.557 41.6298 124.678 41.9694C123.799 42.309 122.998 42.8211 122.321 43.4753C121.643 44.1295 121.105 44.9126 120.736 45.7782C120.367 46.6439 120.176 47.5746 120.174 48.5152C120.18 49.4548 120.374 50.3838 120.744 51.2478C121.114 52.1117 121.653 52.8933 122.329 53.5468C123.005 54.2003 123.805 54.7126 124.683 55.0537C125.56 55.3947 126.496 55.5577 127.437 55.5331ZM127.437 112.513C131.63 112.513 134.234 109.864 134.234 105.449V67.8027C134.234 63.3874 131.627 60.6923 127.437 60.6923C123.201 60.6923 120.64 63.3881 120.64 67.8027V105.446C120.64 109.863 123.201 112.51 127.437 112.51V112.513ZM169.461 112.513C173.465 112.513 176.258 110.096 176.258 105.449V95.3617L180.587 91.365L193.392 108.281C195.534 111.488 197.163 112.51 200.05 112.51C203.868 112.51 206.522 110.001 206.522 106.376C206.522 104.609 206.103 103.401 204.613 101.403L190.691 83.6963L203.402 71.7062C205.357 69.8935 205.963 68.6391 205.963 66.5942C205.973 65.8044 205.823 65.0207 205.52 64.2907C205.218 63.5608 204.77 62.8997 204.204 62.3478C203.638 61.7958 202.966 61.3644 202.227 61.0799C201.489 60.7953 200.701 60.6634 199.91 60.6923C197.861 60.6923 196.325 61.4822 194.509 63.3881L176.445 81.4657H176.259V50.5602C176.259 45.9126 173.466 43.4498 169.462 43.4498C165.504 43.4498 162.664 45.9126 162.664 50.5602V105.447C162.664 110.093 165.504 112.51 169.461 112.51V112.513ZM239.746 55.5331C240.687 55.5577 241.623 55.3947 242.501 55.0537C243.378 54.7126 244.178 54.2003 244.854 53.5468C245.531 52.8933 246.07 52.1117 246.44 51.2478C246.81 50.3838 247.003 49.4548 247.009 48.5152C247.007 47.5745 246.816 46.6438 246.447 45.778C246.079 44.9123 245.54 44.1291 244.863 43.4748C244.186 42.8206 243.384 42.3085 242.505 41.9688C241.626 41.6292 240.688 41.4689 239.746 41.4974C238.804 41.4689 237.866 41.6292 236.987 41.9688C236.108 42.3085 235.306 42.8206 234.629 43.4748C233.952 44.1291 233.413 44.9123 233.045 45.778C232.676 46.6438 232.485 47.5745 232.483 48.5152C232.489 49.4548 232.682 50.3838 233.052 51.2478C233.422 52.1117 233.961 52.8933 234.638 53.5468C235.314 54.2003 236.114 54.7126 236.991 55.0537C237.869 55.3947 238.805 55.5577 239.746 55.5331ZM239.746 112.513C243.939 112.513 246.543 109.864 246.543 105.449V67.8027C246.543 63.3874 243.936 60.6923 239.746 60.6923C235.509 60.6923 232.949 63.3881 232.949 67.8027V105.446C232.948 109.863 235.509 112.51 239.746 112.51V112.513Z" fill="#00A6ED"/>
<path d="M121.868 156.667C122.101 156.67 122.332 156.624 122.546 156.534C122.76 156.443 122.953 156.308 123.112 156.139C123.271 155.97 123.393 155.77 123.47 155.551C123.547 155.332 123.577 155.1 123.559 154.869V146.302H123.637C124.273 147.434 125.209 148.37 126.343 149.008C127.477 149.646 128.765 149.961 130.067 149.918C135.157 149.918 138.635 145.818 138.635 139.514C138.635 133.21 135.138 129.11 129.99 129.11C128.661 129.08 127.349 129.414 126.198 130.075C125.046 130.737 124.1 131.701 123.462 132.862H123.384V130.812C123.402 130.594 123.373 130.374 123.301 130.168C123.229 129.961 123.114 129.772 122.964 129.612C122.814 129.452 122.633 129.324 122.431 129.238C122.229 129.152 122.011 129.108 121.791 129.11C121.57 129.106 121.35 129.148 121.147 129.233C120.943 129.319 120.759 129.446 120.607 129.606C120.455 129.766 120.339 129.956 120.265 130.164C120.191 130.371 120.162 130.592 120.179 130.812V154.869C120.161 155.1 120.191 155.332 120.268 155.55C120.345 155.769 120.467 155.969 120.626 156.139C120.785 156.308 120.977 156.442 121.191 156.533C121.405 156.624 121.636 156.67 121.868 156.667ZM129.328 146.959C125.87 146.959 123.539 144 123.539 139.513C123.539 135.046 125.87 132.068 129.328 132.068C132.922 132.068 135.176 134.969 135.176 139.513C135.174 144.077 132.921 146.959 129.327 146.959H129.328ZM149.511 149.918C150.84 149.923 152.145 149.572 153.29 148.901C154.435 148.231 155.378 147.266 156.02 146.108H156.097V148.216C156.08 148.435 156.11 148.656 156.183 148.864C156.257 149.071 156.373 149.262 156.525 149.422C156.677 149.582 156.861 149.709 157.065 149.794C157.269 149.88 157.488 149.922 157.71 149.918C157.929 149.92 158.147 149.876 158.349 149.79C158.551 149.703 158.733 149.576 158.882 149.416C159.032 149.256 159.147 149.066 159.219 148.86C159.291 148.653 159.32 148.434 159.302 148.216V135.665C159.302 131.662 156.31 129.109 151.571 129.109C148.288 129.109 145.334 130.559 144.189 132.764C143.938 133.187 143.798 133.666 143.783 134.156C143.771 134.356 143.802 134.556 143.872 134.743C143.943 134.93 144.053 135.1 144.194 135.242C144.335 135.384 144.504 135.496 144.691 135.568C144.878 135.641 145.078 135.674 145.279 135.665C145.567 135.682 145.853 135.614 146.102 135.47C146.35 135.325 146.551 135.111 146.678 134.853C147.111 133.965 147.8 133.226 148.658 132.73C149.515 132.234 150.501 132.003 151.491 132.068C154.288 132.068 155.92 133.538 155.92 135.994V137.677L150.111 138.005C145.449 138.275 142.787 140.442 142.787 143.884C142.788 147.501 145.489 149.918 149.51 149.918H149.511ZM150.269 147.056C147.84 147.056 146.228 145.799 146.228 143.884C146.228 141.989 147.783 140.787 150.501 140.616L155.921 140.288V141.93C155.921 144.832 153.452 147.056 150.267 147.056H150.269ZM166.877 149.918C167.11 149.921 167.341 149.875 167.555 149.784C167.769 149.693 167.962 149.559 168.121 149.39C168.28 149.221 168.402 149.02 168.479 148.802C168.556 148.583 168.586 148.351 168.568 148.12V137.078C168.568 134.507 169.87 132.321 172.919 132.321C173.49 132.37 174.06 132.22 174.532 131.896C174.708 131.756 174.848 131.575 174.939 131.37C175.03 131.165 175.071 130.94 175.056 130.716C175.068 130.51 175.036 130.303 174.963 130.11C174.889 129.917 174.775 129.741 174.629 129.595C174.179 129.238 173.61 129.065 173.036 129.111C171.984 129.158 170.974 129.535 170.151 130.188C169.327 130.841 168.732 131.737 168.451 132.747H168.374V130.813C168.391 130.594 168.363 130.374 168.291 130.167C168.218 129.96 168.103 129.77 167.953 129.61C167.802 129.449 167.62 129.322 167.417 129.236C167.215 129.15 166.996 129.106 166.776 129.109C166.556 129.107 166.338 129.151 166.136 129.237C165.934 129.324 165.753 129.451 165.603 129.611C165.453 129.771 165.338 129.961 165.266 130.167C165.194 130.374 165.165 130.593 165.183 130.811V148.12C165.165 148.351 165.195 148.583 165.272 148.802C165.349 149.021 165.471 149.221 165.631 149.391C165.79 149.56 165.983 149.694 166.197 149.785C166.412 149.876 166.643 149.921 166.876 149.918H166.877ZM180.125 144.928C180.125 148.138 181.757 149.725 185.02 149.725H185.234C187.118 149.725 187.701 149.186 187.701 148.158C187.701 147.365 187.196 146.92 186.089 146.843L185.798 146.824C184.107 146.708 183.505 145.895 183.505 144.193V132.223H186.108C186.304 132.252 186.503 132.237 186.693 132.179C186.882 132.121 187.055 132.022 187.201 131.888C187.346 131.755 187.46 131.59 187.533 131.407C187.606 131.224 187.637 131.027 187.624 130.831C187.624 129.96 187.083 129.458 186.108 129.458H183.505V126.015C183.523 125.784 183.493 125.552 183.416 125.333C183.339 125.114 183.217 124.914 183.058 124.745C182.899 124.575 182.706 124.441 182.492 124.35C182.278 124.259 182.047 124.214 181.814 124.217C181.581 124.214 181.35 124.259 181.136 124.35C180.922 124.441 180.729 124.575 180.57 124.745C180.411 124.914 180.289 125.114 180.212 125.333C180.135 125.552 180.105 125.784 180.123 126.015V129.457H178.432C177.461 129.457 176.917 129.96 176.917 130.83C176.903 131.026 176.934 131.224 177.007 131.407C177.081 131.59 177.194 131.754 177.34 131.888C177.485 132.021 177.659 132.121 177.848 132.179C178.037 132.236 178.237 132.251 178.432 132.222H180.123L180.125 144.928ZM194.301 149.918C194.534 149.921 194.765 149.875 194.979 149.784C195.193 149.693 195.386 149.559 195.545 149.39C195.704 149.221 195.826 149.02 195.903 148.802C195.98 148.583 196.01 148.351 195.992 148.12V137.735C195.992 134.331 198.071 132.088 201.257 132.088C204.368 132.088 205.9 133.867 205.9 137.115V148.119C205.881 148.35 205.912 148.582 205.989 148.801C206.066 149.02 206.187 149.22 206.347 149.389C206.506 149.558 206.698 149.693 206.913 149.784C207.127 149.874 207.358 149.92 207.59 149.917C207.823 149.92 208.054 149.874 208.268 149.784C208.482 149.693 208.675 149.558 208.834 149.389C208.993 149.22 209.115 149.02 209.192 148.801C209.269 148.582 209.299 148.35 209.281 148.119V136.516C209.281 131.952 206.717 129.11 202.287 129.11C199.159 129.11 197.003 130.503 195.877 132.669H195.799V130.812C195.816 130.594 195.788 130.374 195.716 130.168C195.643 129.961 195.529 129.772 195.379 129.612C195.229 129.452 195.047 129.324 194.846 129.238C194.644 129.152 194.426 129.108 194.206 129.11C193.986 129.108 193.768 129.151 193.566 129.237C193.364 129.323 193.182 129.45 193.032 129.611C192.882 129.771 192.767 129.96 192.694 130.167C192.622 130.373 192.593 130.593 192.611 130.811V148.12C192.592 148.351 192.623 148.583 192.7 148.802C192.777 149.02 192.899 149.221 193.058 149.39C193.217 149.559 193.41 149.693 193.624 149.784C193.838 149.875 194.069 149.921 194.301 149.918ZM223.634 149.918C227.326 149.918 230.162 148.369 231.463 145.644C231.609 145.334 231.694 144.999 231.716 144.658C231.727 144.46 231.695 144.263 231.624 144.078C231.552 143.893 231.442 143.726 231.301 143.587C231.159 143.448 230.99 143.341 230.803 143.272C230.617 143.203 230.418 143.174 230.22 143.188C229.968 143.181 229.719 143.24 229.498 143.358C229.276 143.477 229.09 143.652 228.957 143.865C227.383 146.147 225.907 146.997 223.498 146.997C219.884 146.997 217.65 144.483 217.65 140.422H230.281C230.539 140.439 230.797 140.399 231.037 140.305C231.278 140.212 231.495 140.067 231.673 139.88C231.851 139.694 231.985 139.471 232.067 139.228C232.149 138.984 232.176 138.725 232.147 138.47C232.147 132.958 228.513 129.112 223.346 129.112C217.769 129.109 214.176 133.246 214.176 139.591C214.176 146.089 217.673 149.918 223.636 149.918H223.634ZM217.673 137.793C217.886 134.331 220.14 132.03 223.286 132.03C226.414 132.03 228.57 134.312 228.648 137.793H217.673ZM238.827 149.918C239.06 149.921 239.291 149.875 239.505 149.784C239.719 149.693 239.912 149.559 240.071 149.39C240.23 149.221 240.352 149.02 240.429 148.802C240.506 148.583 240.536 148.351 240.518 148.12V137.078C240.518 134.507 241.82 132.321 244.869 132.321C245.44 132.37 246.01 132.22 246.482 131.896C246.658 131.756 246.798 131.575 246.889 131.37C246.98 131.165 247.021 130.94 247.006 130.716C247.018 130.51 246.986 130.303 246.913 130.11C246.839 129.917 246.725 129.741 246.579 129.595C246.129 129.238 245.56 129.065 244.986 129.111C243.934 129.158 242.925 129.535 242.101 130.188C241.277 130.841 240.683 131.737 240.402 132.747H240.324V130.813C240.341 130.595 240.313 130.376 240.241 130.169C240.168 129.963 240.054 129.773 239.904 129.613C239.754 129.453 239.572 129.326 239.371 129.239C239.169 129.153 238.951 129.109 238.731 129.111C238.511 129.109 238.294 129.153 238.092 129.239C237.89 129.326 237.708 129.453 237.558 129.613C237.409 129.773 237.294 129.963 237.222 130.169C237.149 130.376 237.121 130.595 237.138 130.813V148.122C237.12 148.352 237.151 148.584 237.228 148.802C237.305 149.021 237.427 149.221 237.586 149.39C237.744 149.559 237.937 149.693 238.151 149.784C238.364 149.875 238.595 149.92 238.827 149.918Z" fill="#00A6ED"/>
</g>
<defs>
<clipPath id="clip0_343_2662">
<rect width="259" height="183" fill="white"/>
</clipPath>
</defs>
</svg>
