<svg width="17.000000" height="32.000000" viewBox="0 0 17 32" fill="none" xmlns="http://www.w3.org/2000/svg" xmlns:xlink="http://www.w3.org/1999/xlink"><desc>Created with Pixso.</desc><defs/><path id="Vector" d="M16.71 -0.77L16.71 4.39L13.49 4.39C12.32 4.39 11.52 4.62 11.11 5.09C10.7 5.56 10.5 6.26 10.5 7.2L10.5 10.89L16.51 10.89L15.71 16.67L10.5 16.67L10.5 31.5L4.23 31.5L4.23 16.67L-1 16.67L-1 10.89L4.23 10.89L4.23 6.63C4.23 4.21 4.94 2.33 6.36 1C7.78 -0.34 9.67 -1 12.04 -1C14.05 -1 15.6 -0.93 16.71 -0.77Z" fill="#FFFFFF" fill-opacity="1.000000" fill-rule="nonzero"/></svg>