<svg width="112.000000" height="59.000000" viewBox="0 0 112 59" fill="none" xmlns="http://www.w3.org/2000/svg" xmlns:xlink="http://www.w3.org/1999/xlink">
	<desc>
			Created with Pixso.
	</desc>
	<defs>
		<clipPath id="clip99_15097">
			<rect id="На сумки" width="112.000000" height="59.000000" fill="white" fill-opacity="0"/>
		</clipPath>
	</defs>
	<rect id="На сумки" width="112.000000" height="59.000000" fill="#FFFFFF" fill-opacity="0"/>
	<g clip-path="url(#clip99_15097)">
		<mask id="mask99_15099" mask-type="alpha" maskUnits="userSpaceOnUse" x="-4.287109" y="-15.946045" width="121.645996" height="85.576538"/>
		<path id="Контур 665" d="M55.56 10.02C56 10.03 56.44 9.95 56.86 9.79C57.27 9.63 57.64 9.39 57.96 9.09C58.28 8.78 58.53 8.42 58.71 8.01C58.88 7.61 58.97 7.18 58.97 6.74C58.97 6.3 58.88 5.86 58.71 5.46C58.54 5.05 58.28 4.69 57.97 4.38C57.65 4.07 57.27 3.83 56.86 3.68C56.45 3.52 56 3.44 55.56 3.45C55.12 3.44 54.68 3.52 54.27 3.68C53.85 3.83 53.48 4.07 53.16 4.38C52.84 4.69 52.59 5.05 52.41 5.46C52.24 5.86 52.15 6.3 52.15 6.74C52.15 7.18 52.24 7.61 52.42 8.01C52.59 8.42 52.85 8.78 53.16 9.09C53.48 9.39 53.86 9.63 54.27 9.79C54.68 9.95 55.12 10.03 55.56 10.02ZM55.56 36.66C57.53 36.66 58.75 35.42 58.75 33.36L58.75 15.76C58.75 13.69 57.53 12.43 55.56 12.43C53.57 12.43 52.37 13.69 52.37 15.76L52.37 33.36C52.37 35.42 53.57 36.66 55.56 36.66L55.56 36.66ZM75.3 36.66C77.18 36.66 78.49 35.53 78.49 33.36L78.49 28.64L80.53 26.77L86.54 34.68C87.55 36.18 88.31 36.66 89.67 36.66C91.46 36.66 92.71 35.49 92.71 33.79C92.71 32.97 92.51 32.4 91.81 31.47L85.27 23.19L91.24 17.58C92.16 16.73 92.44 16.15 92.44 15.19C92.45 14.82 92.38 14.45 92.24 14.11C92.09 13.77 91.88 13.46 91.62 13.2C91.35 12.95 91.04 12.75 90.69 12.61C90.34 12.48 89.97 12.42 89.6 12.43C88.64 12.43 87.92 12.8 87.06 13.69L78.58 22.15L78.49 22.15L78.49 7.69C78.49 5.52 77.18 4.37 75.3 4.37C73.44 4.37 72.11 5.52 72.11 7.69L72.11 33.36C72.11 35.53 73.44 36.66 75.3 36.66L75.3 36.66ZM108.31 10.02C108.75 10.03 109.19 9.95 109.6 9.79C110.02 9.63 110.39 9.39 110.71 9.09C111.03 8.78 111.28 8.42 111.45 8.01C111.63 7.61 111.72 7.18 111.72 6.74C111.72 6.3 111.63 5.86 111.46 5.46C111.29 5.05 111.03 4.69 110.71 4.38C110.4 4.07 110.02 3.83 109.61 3.67C109.19 3.52 108.75 3.44 108.31 3.45C107.87 3.44 107.43 3.52 107.02 3.67C106.6 3.83 106.23 4.07 105.91 4.38C105.59 4.69 105.34 5.05 105.16 5.46C104.99 5.86 104.9 6.3 104.9 6.74C104.9 7.18 104.99 7.61 105.17 8.01C105.34 8.42 105.59 8.78 105.91 9.09C106.23 9.39 106.61 9.63 107.02 9.79C107.43 9.95 107.87 10.03 108.31 10.02ZM108.31 36.66C110.28 36.66 111.5 35.42 111.5 33.36L111.5 15.76C111.5 13.69 110.28 12.43 108.31 12.43C106.32 12.43 105.12 13.69 105.12 15.76L105.12 33.36C105.12 35.42 106.32 36.66 108.31 36.66L108.31 36.66Z" fill="#FFFFFF" fill-opacity="1.000000" fill-rule="nonzero"/>
		<path id="design" d="M56.83 54.91Q55.67 54.91 54.75 54.43L54.75 54.43L54.75 54.43L54.75 54.43L54.75 54.43L54.75 54.43Q54.61 54.36 54.47 54.27Q54.24 54.12 54.04 53.95L54.04 53.95Q53.35 53.37 52.92 52.48Q52.38 51.3 52.38 49.72Q52.38 48.11 52.92 46.96Q53.37 46 54.13 45.41L54.13 45.41L54.13 45.41Q54.29 45.28 54.47 45.17Q54.61 45.08 54.75 45.01L54.75 45.01Q55.67 44.53 56.83 44.53Q58.02 44.53 58.91 45.05L58.91 45.05Q59.04 45.13 59.17 45.21C59.64 45.54 60 45.96 60.25 46.45L60.25 40.91C60.25 40.64 60.31 40.43 60.45 40.29C60.6 40.14 60.82 40.07 61.09 40.07C61.36 40.07 61.56 40.14 61.69 40.29Q61.72 40.32 61.74 40.34L61.74 40.34Q61.92 40.54 61.92 40.91L61.92 54C61.92 54.28 61.85 54.49 61.72 54.64C61.58 54.79 61.37 54.86 61.09 54.86Q60.77 54.86 60.56 54.71Q60.51 54.68 60.47 54.64C60.34 54.49 60.27 54.28 60.27 54L60.27 52.93Q60.15 53.18 59.99 53.4L59.99 53.4L59.99 53.4Q59.66 53.86 59.17 54.21Q59.01 54.32 58.84 54.42L58.84 54.42Q57.97 54.91 56.83 54.91ZM86.08 42.04C86.27 42.22 86.54 42.31 86.89 42.31C87.25 42.31 87.52 42.22 87.7 42.04C87.89 41.85 87.98 41.6 87.98 41.28C87.98 40.95 87.89 40.71 87.7 40.54C87.52 40.36 87.25 40.27 86.89 40.27C86.54 40.27 86.27 40.36 86.08 40.54C85.89 40.71 85.79 40.95 85.79 41.28C85.79 41.6 85.89 41.85 86.08 42.04ZM66.85 54.29C67.62 54.7 68.54 54.91 69.6 54.91C70.21 54.91 70.83 54.82 71.45 54.64C72.07 54.46 72.61 54.21 73.06 53.88C73.24 53.77 73.36 53.64 73.41 53.49C73.48 53.34 73.5 53.2 73.46 53.07C73.43 52.94 73.37 52.83 73.27 52.75C73.17 52.65 73.04 52.6 72.88 52.6C72.72 52.59 72.55 52.64 72.36 52.77C71.92 53.05 71.46 53.26 70.99 53.38Q70.6 53.49 70.19 53.54L70.19 53.54L70.19 53.54L70.19 53.54Q69.9 53.57 69.6 53.57C68.47 53.57 67.6 53.24 66.97 52.58C66.43 51.99 66.13 51.15 66.07 50.07L72.94 50.07C73.17 50.07 73.35 50.02 73.48 49.93C73.6 49.82 73.66 49.65 73.66 49.43Q73.66 48.3 73.35 47.39C73.16 46.79 72.87 46.28 72.48 45.85C72.11 45.43 71.65 45.1 71.12 44.88Q70.31 44.53 69.29 44.53Q68.05 44.53 67.06 45.03L67.06 45.03L67.06 45.03Q66.91 45.11 66.77 45.19Q66.42 45.4 66.12 45.67L66.12 45.67Q65.49 46.23 65.07 47.02Q64.45 48.18 64.45 49.74C64.45 50.81 64.66 51.73 65.07 52.5Q65.41 53.12 65.9 53.58L65.9 53.58L65.9 53.58Q66.32 53.99 66.85 54.29ZM79.49 54.91C78.86 54.91 78.24 54.83 77.6 54.68C76.98 54.53 76.4 54.27 75.86 53.9C75.72 53.8 75.63 53.69 75.57 53.57C75.52 53.43 75.5 53.3 75.51 53.18C75.54 53.04 75.59 52.92 75.68 52.83C75.77 52.73 75.88 52.68 76.01 52.66C76.15 52.64 76.3 52.66 76.46 52.75C77 53.07 77.52 53.31 78.02 53.45C78.53 53.57 79.03 53.63 79.53 53.63C80.31 53.63 80.91 53.49 81.31 53.2C81.71 52.91 81.91 52.52 81.91 52.02C81.91 51.64 81.78 51.34 81.52 51.12C81.25 50.89 80.84 50.71 80.27 50.58L78.39 50.17C77.52 49.99 76.87 49.69 76.44 49.25C76.03 48.81 75.82 48.24 75.82 47.54C75.82 46.92 75.98 46.39 76.3 45.95C76.63 45.5 77.09 45.15 77.68 44.9Q78.58 44.53 79.76 44.53C80.36 44.53 80.94 44.62 81.47 44.78C82.03 44.93 82.52 45.18 82.96 45.52C83.1 45.62 83.19 45.73 83.23 45.87C83.29 46 83.3 46.13 83.25 46.26C83.23 46.39 83.16 46.5 83.07 46.59C82.97 46.67 82.85 46.72 82.72 46.74C82.58 46.75 82.43 46.71 82.28 46.61C81.87 46.34 81.45 46.14 81.02 46.02C80.59 45.88 80.17 45.81 79.76 45.81Q78.6 45.81 78 46.26C77.6 46.56 77.39 46.96 77.39 47.46C77.39 47.84 77.52 48.16 77.77 48.4C78.02 48.65 78.4 48.83 78.93 48.94L80.81 49.33C81.71 49.52 82.38 49.83 82.82 50.26C83.28 50.67 83.5 51.23 83.5 51.94C83.5 52.85 83.14 53.57 82.41 54.1Q81.31 54.91 79.49 54.91ZM95.32 58.61C94.59 58.61 93.87 58.52 93.17 58.34C92.48 58.18 91.85 57.91 91.29 57.54C91.12 57.44 91.01 57.33 90.95 57.19C90.91 57.05 90.91 56.92 90.93 56.78C90.96 56.66 91.02 56.54 91.12 56.43C91.22 56.33 91.33 56.27 91.45 56.24C91.59 56.22 91.73 56.24 91.87 56.31C92.47 56.68 93.05 56.93 93.61 57.07C94.16 57.2 94.7 57.27 95.24 57.27C96.22 57.27 96.96 57.01 97.46 56.49Q97.48 56.46 97.51 56.43L97.51 56.43Q98.22 55.65 98.22 54.23L98.22 52.48C97.98 53.01 97.61 53.45 97.1 53.79Q96.88 53.95 96.63 54.08L96.63 54.08Q95.8 54.49 94.76 54.49Q93.39 54.49 92.37 53.88Q92.37 53.88 92.36 53.88C91.69 53.45 91.16 52.86 90.79 52.11Q90.25 50.98 90.25 49.49Q90.25 48.38 90.56 47.48C90.77 46.86 91.07 46.34 91.45 45.91Q91.72 45.62 92.04 45.38Q92.43 45.1 92.88 44.9C93.45 44.66 94.07 44.53 94.76 44.53C95.68 44.53 96.46 44.77 97.13 45.23C97.61 45.56 97.97 45.98 98.2 46.49L98.2 45.42C98.2 45.14 98.27 44.94 98.41 44.8C98.56 44.65 98.77 44.58 99.03 44.58C99.31 44.58 99.51 44.65 99.65 44.8C99.79 44.94 99.86 45.14 99.86 45.42L99.86 54Q99.86 56.25 98.73 57.4Q98.72 57.42 98.7 57.44C97.94 58.22 96.81 58.61 95.32 58.61ZM103.21 54.64C103.35 54.79 103.56 54.86 103.83 54.86C104.4 54.86 104.68 54.58 104.68 54L104.68 49.02Q104.68 47.84 105.24 47.06Q105.35 46.9 105.49 46.76C106.04 46.18 106.78 45.89 107.71 45.89Q108.8 45.89 109.34 46.44Q109.4 46.49 109.44 46.55C109.82 46.98 110 47.66 110 48.59L110 54C110 54.28 110.07 54.49 110.21 54.64C110.36 54.79 110.58 54.86 110.85 54.86C111.11 54.86 111.31 54.79 111.45 54.64C111.6 54.49 111.68 54.28 111.68 54L111.68 48.49Q111.68 47.15 111.29 46.28C111.03 45.69 110.62 45.25 110.09 44.97C109.56 44.68 108.9 44.53 108.1 44.53Q107.07 44.53 106.23 44.93Q106.02 45.03 105.82 45.15C105.32 45.46 104.93 45.88 104.64 46.43L104.64 45.42C104.64 45.14 104.56 44.94 104.41 44.8C104.27 44.65 104.07 44.58 103.81 44.58C103.55 44.58 103.35 44.65 103.21 44.8C103.07 44.94 103 45.14 103 45.42L103 54C103 54.28 103.07 54.49 103.21 54.64ZM86.27 54.6C86.4 54.75 86.61 54.82 86.89 54.82Q87.26 54.82 87.47 54.64L87.47 54.64L87.47 54.64Q87.49 54.62 87.51 54.6Q87.52 54.58 87.54 54.56Q87.74 54.32 87.74 53.92L87.74 45.5C87.74 45.21 87.66 44.99 87.51 44.84Q87.47 44.8 87.43 44.77Q87.21 44.62 86.89 44.62C86.61 44.62 86.4 44.69 86.27 44.84C86.13 44.99 86.06 45.21 86.06 45.5L86.06 53.92C86.06 54.21 86.13 54.43 86.27 54.6ZM66.09 48.98C66.14 48.47 66.26 48.01 66.44 47.6C66.68 47.02 67.05 46.58 67.53 46.26C68.03 45.93 68.63 45.77 69.34 45.77Q70.29 45.77 70.91 46.18C71.34 46.45 71.66 46.85 71.88 47.37C72.08 47.82 72.18 48.35 72.21 48.98L66.09 48.98ZM58.56 53.26Q58.69 53.19 58.82 53.12C59.29 52.81 59.64 52.37 59.89 51.8C60.16 51.22 60.29 50.53 60.29 49.72Q60.29 47.85 59.44 46.86Q59.14 46.51 58.77 46.28Q58.1 45.87 57.18 45.87Q56.34 45.87 55.69 46.23L55.69 46.23Q55.6 46.27 55.52 46.32Q55.5 46.34 55.47 46.36Q54.82 46.79 54.45 47.62Q54.07 48.46 54.07 49.72Q54.07 51.57 54.92 52.58Q55.25 52.96 55.67 53.2L55.67 53.2Q56.32 53.57 57.18 53.57Q57.95 53.57 58.56 53.26ZM95.08 53.14C95.72 53.14 96.28 52.99 96.75 52.7C97.22 52.4 97.58 51.98 97.83 51.43C98.09 50.88 98.22 50.23 98.22 49.49C98.22 48.38 97.94 47.5 97.37 46.86Q97.08 46.52 96.71 46.29Q96.02 45.87 95.08 45.87C94.44 45.87 93.89 46.02 93.42 46.32C92.95 46.61 92.58 47.03 92.32 47.58Q91.95 48.38 91.95 49.49Q91.95 51.09 92.73 52.06Q92.76 52.11 92.8 52.15C93.36 52.81 94.12 53.14 95.08 53.14Z" fill="#FFFFFF" fill-opacity="1.000000" fill-rule="evenodd"/>
		<g opacity="0.350000">
			<path id="Vector" d="M35.7 39.74C32.43 41.33 29.44 42.55 23.28 42.55C17.12 42.55 14.04 41.34 10.69 39.67C11.01 39.45 11.39 39.34 11.78 39.36C12.19 39.26 12.72 39.16 13.28 39.04C19.65 41.27 27.25 41.26 33.59 38.91C34.45 39.06 35.24 39.27 35.7 39.74Z" fill="#C5EFFF" fill-opacity="1.000000" fill-rule="nonzero"/>
		</g>
		<path id="Vector" d="M14.96 15.13C14.83 15.41 14.69 15.68 14.53 15.94C12.38 17.15 6.56 19.37 4.04 18.09C0.15 16.11 -0.16 8.89 2.2 5.79C4.56 2.69 9.7 1.99 12.78 3.56C16.8 5.61 16.71 11.26 14.96 15.13L14.96 15.13Z" fill="#000000" fill-opacity="1.000000" fill-rule="nonzero"/>
		<path id="Vector" d="M32.27 16.06C32.39 16.35 32.53 16.63 32.7 16.91C34.92 18.21 40.93 20.63 43.58 19.34C47.67 17.35 48.13 9.85 45.73 6.57C43.33 3.29 38 2.47 34.76 4.05C30.54 6.1 30.52 11.99 32.27 16.06L32.27 16.06Z" fill="#000000" fill-opacity="1.000000" fill-rule="nonzero"/>
		<path id="Vector" d="M22.43 2.59C22.26 2.61 22.08 2.65 22.01 2.66C21.98 2.65 21.96 2.64 21.93 2.62C22.1 2.61 22.27 2.6 22.43 2.59Z" fill="#FFFFFF" fill-opacity="1.000000" fill-rule="nonzero"/>
		<g opacity="0.400000">
			<path id="Vector" d="M2.5 27.01C2.51 27.03 2.51 27.05 2.51 27.07C2.48 27.09 2.44 27.12 2.4 27.14C2.39 27.15 2.36 27.16 2.34 27.17C2.35 26.78 2.36 26.38 2.39 25.97C2.4 26.11 2.41 26.25 2.43 26.39C2.45 26.6 2.47 26.8 2.5 27.01L2.5 27.01Z" fill="#FFFFFF" fill-opacity="1.000000" fill-rule="nonzero"/>
		</g>
		<g opacity="0.400000">
			<path id="Vector" d="M44.05 27.13C44.01 27.1 43.98 27.08 43.96 27.07C43.96 27.05 43.96 27.03 43.97 27.01C43.99 26.8 44.02 26.6 44.04 26.39C44.05 26.25 44.06 26.11 44.07 25.97C44.1 26.37 44.12 26.78 44.13 27.17C44.09 27.16 44.07 27.14 44.04 27.13L44.05 27.13Z" fill="#FFFFFF" fill-opacity="1.000000" fill-rule="nonzero"/>
		</g>
		<path id="Vector" d="M45.73 27.53C45.73 27.53 45.72 27.54 45.71 27.55C45.24 28.06 44.63 28.42 43.96 28.6C44.27 28.87 44.66 29.05 45.07 29.11C44.34 30.55 43.47 31.91 42.47 33.19C42.11 33.64 41.73 34.08 41.32 34.5C41.21 34.61 41.09 34.72 40.97 34.83C40.71 35.08 40.44 35.32 40.16 35.56C39.26 36.33 38.29 37.03 37.27 37.65C37.22 37.69 37.17 37.71 37.13 37.74C35.47 38.74 33.69 39.54 31.84 40.13C29.06 41.01 26.16 41.47 23.24 41.48C20.31 41.47 17.41 41.01 14.63 40.13C12.78 39.54 11 38.74 9.34 37.74C9.31 37.72 9.27 37.7 9.23 37.68C8.2 37.05 7.22 36.34 6.31 35.56C6.03 35.32 5.76 35.08 5.5 34.83C5.37 34.72 5.25 34.6 5.13 34.48C4.92 34.26 4.72 34.04 4.52 33.81C4.37 33.64 4.22 33.46 4.08 33.28C3.06 31.99 2.17 30.61 1.42 29.15C1.4 29.12 1.4 29.11 1.4 29.11C1.4 29.11 1.42 29.11 1.47 29.1C1.84 29.03 2.19 28.86 2.48 28.62C2.49 28.61 2.5 28.61 2.51 28.6C1.84 28.42 1.23 28.06 0.76 27.55C0.75 27.54 0.75 27.53 0.75 27.53L0.77 27.53C1.3 27.54 1.83 27.43 2.31 27.19C3.52 27.05 4.69 26.95 5.06 26.1C8.83 17.43 19.09 17.64 21.64 24.44C22.43 26.54 22.47 28.84 21.75 30.97C22.21 30.95 22.67 30.93 23.13 30.93L23.35 30.93C23.83 30.93 24.32 30.95 24.81 30.97C24.09 28.84 24.13 26.54 24.92 24.44C27.47 17.64 37.74 17.43 41.51 26.1C41.86 26.92 42.97 27.05 44.14 27.18C44.62 27.42 45.16 27.54 45.7 27.53L45.73 27.53L45.73 27.53Z" fill="#FFFFFF" fill-opacity="1.000000" fill-rule="nonzero"/>
		<g opacity="0.350000">
			<path id="Vector" d="M45.07 29.11C45.07 29.11 43.37 32.59 40.97 34.83C39.8 35.93 38.51 36.91 37.13 37.74C35.46 38.74 33.69 39.54 31.84 40.13C26.25 41.93 20.22 41.93 14.62 40.13C12.78 39.54 11 38.74 9.34 37.74C7.96 36.91 6.67 35.93 5.49 34.83C3.1 32.59 1.39 29.11 1.39 29.11C1.64 29.07 1.89 28.99 2.11 28.87C3.03 30.48 4.17 31.97 5.49 33.28C6.67 34.38 7.96 35.35 9.34 36.19C11 37.18 12.77 37.98 14.62 38.57C20.22 40.38 26.25 40.38 31.84 38.57C33.69 37.98 35.46 37.18 37.12 36.19C38.51 35.35 39.8 34.38 40.97 33.28C42.29 31.97 43.43 30.48 44.35 28.87C44.58 28.99 44.82 29.07 45.07 29.11L45.07 29.11Z" fill="#B3B3B3" fill-opacity="1.000000" fill-rule="nonzero"/>
		</g>
		<path id="Vector" d="M45.92 27.37C45.9 27.34 45.87 27.32 45.83 27.3C45.8 27.28 45.76 27.28 45.72 27.28C45.24 27.29 44.76 27.19 44.32 26.99C44.29 26.98 44.27 26.96 44.26 26.93C44.24 26.91 44.24 26.88 44.24 26.85C44.26 26.71 44.28 26.56 44.29 26.42C44.32 26.11 44.34 25.81 44.36 25.5C44.4 24.51 44.38 23.52 44.29 22.53C44.13 20.96 43.84 19.41 43.43 17.9C43.24 17.2 43.02 16.52 42.76 15.85C42.74 15.81 42.73 15.77 42.71 15.74C42.69 15.67 42.66 15.6 42.63 15.53C42.61 15.49 42.6 15.46 42.58 15.42C42.58 15.4 42.57 15.39 42.57 15.37C42.52 15.26 42.47 15.14 42.42 15.02C42.16 14.45 41.89 13.89 41.59 13.34C41.54 13.26 41.5 13.18 41.46 13.1C40.72 11.81 39.85 10.59 38.86 9.48C36.83 7.21 34.34 5.4 31.56 4.15C30.46 3.67 29.31 3.27 28.15 2.97C27.91 2.91 27.66 2.86 27.42 2.8C27.19 2.75 26.96 2.7 26.73 2.66C26.54 2.63 26.36 2.6 26.17 2.57C25.89 2.52 25.6 2.48 25.31 2.45C23.76 1.69 22.09 1.17 20.37 0.92C20.48 0.97 22.07 1.49 22.33 2.34C22.2 2.35 22.07 2.36 21.95 2.37C19.87 1.13 14.91 1.49 14.91 1.49C14.91 1.49 17.73 1.54 19.62 2.68C19.43 2.72 19.24 2.76 19.05 2.8C18.8 2.85 18.56 2.91 18.32 2.97C17.15 3.27 16.01 3.66 14.91 4.15C12.12 5.4 9.63 7.21 7.61 9.48C6.62 10.59 5.75 11.81 5.01 13.1C4.97 13.18 4.92 13.26 4.88 13.34C4.58 13.89 4.3 14.45 4.05 15.02C3.99 15.15 3.94 15.29 3.88 15.42C3.82 15.56 3.77 15.71 3.71 15.85L3.71 15.85L3.71 15.86C3.45 16.53 3.23 17.21 3.04 17.9C2.62 19.41 2.34 20.96 2.18 22.53C2.09 23.52 2.06 24.51 2.11 25.5C2.12 25.81 2.15 26.11 2.18 26.42C2.19 26.56 2.21 26.71 2.23 26.85C2.23 26.88 2.22 26.91 2.21 26.93C2.2 26.96 2.17 26.98 2.15 26.99C1.71 27.2 1.23 27.29 0.74 27.28C0.69 27.28 0.65 27.29 0.6 27.32C0.56 27.34 0.53 27.38 0.51 27.42C0.49 27.47 0.48 27.51 0.49 27.56C0.5 27.61 0.52 27.65 0.55 27.69C0.88 28.06 1.28 28.36 1.73 28.58C1.75 28.59 1.76 28.6 1.77 28.62C1.78 28.64 1.79 28.66 1.79 28.68C1.79 28.7 1.78 28.72 1.77 28.73C1.76 28.75 1.74 28.76 1.72 28.77C1.61 28.81 1.49 28.84 1.37 28.86C1.33 28.87 1.29 28.88 1.25 28.9C1.22 28.92 1.19 28.95 1.17 28.99C1.15 29.02 1.14 29.06 1.14 29.1C1.14 29.14 1.15 29.18 1.16 29.22C1.23 29.36 2.92 32.77 5.32 35.02C8.1 37.59 11.45 39.48 15.1 40.54C17.74 41.32 20.48 41.72 23.23 41.73C25.99 41.72 28.73 41.32 31.37 40.54C35.02 39.48 38.37 37.59 41.15 35.02C43.55 32.76 45.23 29.36 45.3 29.22C45.32 29.18 45.33 29.15 45.33 29.1C45.33 29.06 45.32 29.03 45.3 28.99C45.28 28.96 45.25 28.93 45.21 28.9C45.18 28.88 45.14 28.87 45.1 28.86C44.98 28.84 44.86 28.81 44.74 28.77C44.73 28.76 44.71 28.75 44.7 28.73C44.69 28.72 44.68 28.7 44.68 28.68C44.68 28.66 44.68 28.64 44.69 28.62C44.7 28.61 44.72 28.59 44.74 28.58C45.18 28.36 45.58 28.06 45.92 27.69C45.96 27.65 45.98 27.59 45.98 27.53C45.98 27.47 45.96 27.42 45.92 27.37L45.92 27.37ZM44.93 27.89C44.62 28.11 44.27 28.26 43.9 28.35C43.86 28.36 43.81 28.39 43.78 28.42C43.75 28.45 43.72 28.49 43.71 28.54C43.7 28.58 43.7 28.63 43.72 28.67C43.73 28.72 43.76 28.75 43.79 28.79C44.01 28.97 44.26 29.12 44.54 29.23C44.56 29.24 44.58 29.25 44.59 29.26C44.61 29.28 44.62 29.3 44.63 29.32C44.63 29.34 44.64 29.36 44.64 29.38C44.63 29.4 44.63 29.42 44.62 29.44C44.08 30.44 42.64 32.93 40.8 34.65C34.72 40.35 27.18 41.22 23.24 41.23C19.28 41.22 11.75 40.35 5.67 34.65C3.83 32.93 2.39 30.44 1.85 29.44C1.84 29.42 1.83 29.4 1.83 29.38C1.83 29.36 1.83 29.34 1.84 29.32C1.85 29.3 1.86 29.28 1.88 29.26C1.89 29.25 1.91 29.24 1.93 29.23C2.2 29.12 2.46 28.97 2.68 28.79C2.71 28.75 2.74 28.72 2.75 28.67C2.77 28.63 2.77 28.58 2.76 28.54C2.75 28.49 2.72 28.45 2.69 28.42C2.65 28.39 2.61 28.36 2.57 28.35C2.2 28.26 1.85 28.11 1.54 27.89C1.52 27.88 1.51 27.86 1.5 27.84C1.49 27.82 1.49 27.8 1.5 27.78C1.5 27.76 1.51 27.75 1.52 27.73C1.54 27.72 1.56 27.71 1.58 27.7C1.97 27.64 2.34 27.49 2.66 27.27C2.7 27.24 2.73 27.21 2.74 27.16C2.76 27.12 2.77 27.08 2.76 27.03C2.73 26.82 2.7 26.6 2.68 26.37C2.65 26.07 2.63 25.77 2.62 25.47C2.57 24.51 2.6 23.54 2.69 22.57C2.84 21.04 3.12 19.52 3.53 18.03C3.72 17.34 3.94 16.66 4.2 16L4.2 15.99C4.21 15.98 4.21 15.98 4.21 15.97C4.21 15.97 4.21 15.97 4.21 15.97C4.22 15.96 4.22 15.94 4.23 15.93C6.23 10.9 10.14 6.84 15.12 4.61C15.63 4.39 16.15 4.18 16.68 3.99C17.26 3.79 17.85 3.61 18.45 3.46C18.68 3.4 18.92 3.34 19.16 3.29C19.48 3.22 19.79 3.16 20.11 3.11L20.24 3.08C20.28 3.08 20.32 3.07 20.36 3.06C20.37 3.06 20.37 3.06 20.37 3.06C20.45 3.05 20.53 3.04 20.62 3.03C21.48 2.9 22.36 2.83 23.23 2.81C24.11 2.83 24.98 2.9 25.84 3.03C25.86 3.03 25.87 3.03 25.89 3.03C26.03 3.05 26.17 3.08 26.31 3.1L26.35 3.11C26.43 3.12 26.51 3.13 26.59 3.15L26.59 3.15C26.83 3.19 27.07 3.24 27.3 3.29C27.55 3.34 27.79 3.4 28.02 3.46C28.61 3.61 29.21 3.79 29.79 4C30.32 4.18 30.84 4.39 31.35 4.61C36.32 6.84 40.23 10.9 42.24 15.93L42.28 16.04C42.28 16.04 42.28 16.04 42.28 16.04C42.53 16.69 42.75 17.35 42.93 18.03C43.34 19.52 43.63 21.04 43.78 22.58C43.87 23.54 43.89 24.51 43.85 25.47C43.83 25.77 43.81 26.08 43.78 26.37C43.76 26.6 43.73 26.82 43.7 27.03C43.7 27.08 43.7 27.12 43.72 27.17C43.74 27.21 43.77 27.24 43.8 27.27C44.13 27.49 44.5 27.64 44.89 27.7C44.91 27.71 44.92 27.72 44.94 27.73C44.95 27.75 44.96 27.76 44.97 27.78C44.97 27.8 44.97 27.82 44.97 27.84C44.96 27.86 44.95 27.88 44.93 27.89L44.93 27.89Z" fill="#000000" fill-opacity="1.000000" fill-rule="nonzero"/>
		<path id="Vector" d="M46.05 27.28C46.01 27.23 45.96 27.19 45.9 27.16C45.84 27.14 45.78 27.13 45.72 27.13C45.27 27.14 44.82 27.05 44.4 26.87C44.4 26.87 44.4 26.87 44.4 26.87C44.39 26.86 44.39 26.86 44.39 26.86C44.41 26.72 44.43 26.58 44.44 26.43C44.47 26.14 44.5 25.82 44.51 25.5C44.56 24.51 44.53 23.51 44.44 22.51C44.28 20.94 43.99 19.38 43.57 17.86C43.39 17.17 43.17 16.49 42.91 15.82L42.86 15.68C42.83 15.61 42.8 15.54 42.77 15.47L42.75 15.43C42.75 15.41 42.74 15.39 42.73 15.36L42.71 15.32C42.66 15.2 42.61 15.08 42.56 14.96C42.3 14.39 42.03 13.82 41.72 13.27C41.68 13.19 41.64 13.11 41.59 13.03C40.85 11.72 39.97 10.5 38.97 9.38C36.93 7.1 34.43 5.27 31.62 4.02C30.51 3.52 29.36 3.13 28.19 2.83C27.95 2.76 27.7 2.71 27.45 2.65C27.23 2.6 26.99 2.56 26.76 2.51C26.56 2.48 26.37 2.44 26.2 2.42L26.19 2.42C25.91 2.37 25.63 2.33 25.36 2.3L25.35 2.3C23.83 1.55 22.2 1.04 20.52 0.79C20.46 0.78 20.42 0.78 20.41 0.77L19.14 0.47C19.14 0.47 19.14 0.47 19.14 0.47C19.14 0.47 19.14 0.47 19.13 0.47C19.13 0.48 19.13 0.48 19.13 0.48C19.14 0.48 19.14 0.48 19.14 0.48L20.31 1.06C20.32 1.06 20.35 1.08 20.41 1.1C21.41 1.48 21.87 1.85 22.07 2.15C22.03 2.19 22.03 2.18 21.99 2.22C19.9 1 15.43 1.46 15.15 1.48C15.14 1.48 14.85 1.49 14.85 1.49L19.19 2.62L19.02 2.65C18.77 2.71 18.53 2.77 18.28 2.83C17.11 3.13 15.96 3.52 14.85 4.02C12.04 5.27 9.53 7.1 7.49 9.38C6.49 10.5 5.62 11.72 4.88 13.03C4.83 13.11 4.79 13.19 4.74 13.27C4.44 13.82 4.16 14.39 3.91 14.96C3.85 15.09 3.8 15.23 3.74 15.36C3.68 15.51 3.62 15.65 3.57 15.79L3.53 15.89L3.53 15.89C3.29 16.53 3.07 17.19 2.9 17.86C2.48 19.38 2.19 20.94 2.03 22.51C1.94 23.51 1.91 24.51 1.96 25.5C1.98 25.83 2 26.14 2.03 26.43C2.04 26.57 2.06 26.72 2.08 26.85C2.08 26.86 2.08 26.86 2.07 26.86C2.07 26.86 2.07 26.86 2.07 26.86C1.66 27.05 1.21 27.14 0.76 27.13C0.67 27.12 0.58 27.15 0.51 27.2C0.46 27.23 0.43 27.27 0.4 27.32C0.37 27.37 0.35 27.42 0.34 27.47C0.33 27.53 0.34 27.59 0.35 27.64C0.37 27.69 0.4 27.74 0.43 27.78C0.75 28.14 1.14 28.44 1.56 28.66C1.49 28.68 1.42 28.7 1.35 28.71C1.29 28.72 1.22 28.74 1.17 28.78C1.12 28.81 1.07 28.86 1.04 28.92C1.01 28.97 0.99 29.04 0.99 29.1C0.99 29.16 1 29.23 1.03 29.29C1.05 29.32 2.77 32.83 5.22 35.13C8.01 37.72 11.38 39.62 15.06 40.68C17.71 41.47 20.47 41.87 23.24 41.89C26.01 41.87 28.76 41.47 31.41 40.68C35.09 39.62 38.46 37.72 41.25 35.13C43.7 32.83 45.42 29.32 45.44 29.29C45.47 29.23 45.48 29.17 45.48 29.1C45.48 29.04 45.46 28.98 45.43 28.92C45.4 28.86 45.36 28.82 45.3 28.78C45.25 28.74 45.19 28.72 45.12 28.71L45.12 28.71C45.05 28.7 44.98 28.69 44.91 28.66C45.33 28.44 45.71 28.14 46.04 27.79C46.1 27.72 46.13 27.63 46.13 27.53C46.13 27.44 46.1 27.35 46.05 27.28L46.05 27.28ZM4.07 15.92C4.07 15.92 4.07 15.92 4.07 15.92L4.07 15.92C4.07 15.92 4.07 15.92 4.07 15.92Z" fill="#000000" fill-opacity="1.000000" fill-rule="nonzero"/>
		<path id="Vector" d="M13 53.23C13 52.91 11.76 53.47 11.76 53.14C11.76 51.41 11.87 49.68 12.11 47.97C12.12 47.84 12.14 47.72 12.16 47.59C12.23 47.17 12.3 46.77 12.37 46.38C12.79 44.21 9.51 40.72 10.69 39.67C10.9 39.49 11.69 39.42 12.22 39.41C12.63 39.3 12.72 39.16 13.28 39.04C14.5 38.79 15.86 38.5 16.31 38.09C18.09 36.5 20.37 35.81 23.14 35.79L23.2 35.79C25.97 35.81 28.25 36.5 30.03 38.09C30.65 38.65 32.21 38.69 33.59 38.91C34.45 39.06 32.01 39.11 35.7 39.74C35.87 39.78 35.92 40.01 35.98 40.18C36.59 41.67 33.85 45.49 34.18 47.59C34.45 49.43 34.59 51.29 34.58 53.15C34.58 53.48 33.97 53.33 33.97 53.66L13 53.23Z" fill="#FFFFFF" fill-opacity="1.000000" fill-rule="nonzero"/>
		<path id="Vector" d="M21.42 51.75C21.42 52.31 20.96 52.77 20.39 52.77C19.83 52.77 19.36 52.31 19.36 51.75C19.36 51.18 19.83 50.73 20.39 50.73C20.96 50.73 21.42 51.18 21.42 51.75Z" fill="#0D1338" fill-opacity="1.000000" fill-rule="evenodd"/>
		<path id="Vector" d="M21.43 47.69C21.43 48.25 20.97 48.71 20.41 48.71C19.84 48.71 19.38 48.25 19.38 47.69C19.38 47.13 19.84 46.67 20.41 46.67C20.97 46.67 21.43 47.13 21.43 47.69Z" fill="#0D1338" fill-opacity="1.000000" fill-rule="evenodd"/>
		<path id="Vector" d="M26.96 51.75C26.96 52.31 26.5 52.77 25.94 52.77C25.37 52.77 24.91 52.31 24.91 51.75C24.91 51.18 25.37 50.73 25.94 50.73C26.5 50.73 26.96 51.18 26.96 51.75Z" fill="#0D1338" fill-opacity="1.000000" fill-rule="evenodd"/>
		<path id="Vector" d="M26.98 47.69C26.98 48.25 26.51 48.71 25.95 48.71C25.38 48.71 24.92 48.25 24.92 47.69C24.92 47.13 25.38 46.67 25.95 46.67C26.51 46.67 26.98 47.13 26.98 47.69Z" fill="#0D1338" fill-opacity="1.000000" fill-rule="evenodd"/>
		<path id="Vector" d="M21.96 39.97C21.43 40.53 20.9 41.11 20.38 41.66C19.64 42.46 18.94 43.21 18.26 43.93C17.07 45.18 16.37 46.82 16.27 48.54C16.14 51.12 16.15 54.3 16.2 57.02C16.03 57 15.86 56.98 15.7 56.95C15.65 54.24 15.63 51.08 15.77 48.51C15.87 46.67 16.62 44.93 17.89 43.58C18.57 42.86 19.27 42.12 20.01 41.32C20.53 40.77 21.06 40.19 21.59 39.63C21.64 39.58 21.7 39.55 21.77 39.55C21.83 39.54 21.9 39.57 21.95 39.61C22 39.66 22.03 39.72 22.03 39.79C22.03 39.86 22.01 39.92 21.96 39.97L21.96 39.97Z" fill="#0D1338" fill-opacity="1.000000" fill-rule="nonzero"/>
		<path id="Vector" d="M12.37 47.91C12.21 47.85 12.05 47.78 11.89 47.72L12.37 47.91ZM34.46 47.72C34.29 47.79 34.13 47.85 33.97 47.91L34.46 47.72Z" fill="#000000" fill-opacity="1.000000" fill-rule="nonzero"/>
		<path id="Vector" d="M11.84 48.03C11.88 47.48 12.61 44.19 12.95 44.43C12.99 44.45 13.01 44.47 13.03 44.5C13.04 44.54 13.05 44.57 13.04 44.61C12.86 45.18 12.73 45.75 12.62 46.34C12.5 46.92 12.43 47.51 12.34 48.1C12.33 48.16 12.29 48.21 12.24 48.25C12.18 48.28 12.12 48.3 12.06 48.29C11.99 48.28 11.94 48.25 11.9 48.2C11.86 48.15 11.84 48.09 11.84 48.03L11.84 48.03Z" fill="#0D1338" fill-opacity="1.000000" fill-rule="nonzero"/>
		<path id="Vector" d="M34.5 48.04C34.41 47.08 33.73 44.19 33.39 44.43C33.36 44.45 33.33 44.47 33.31 44.5C33.3 44.54 33.29 44.57 33.31 44.61C33.48 45.18 33.62 45.75 33.72 46.34C33.84 46.92 33.91 47.51 34 48.1C34.01 48.16 34.05 48.21 34.1 48.25C34.15 48.29 34.21 48.3 34.27 48.29C34.34 48.29 34.39 48.26 34.43 48.21C34.48 48.16 34.5 48.1 34.5 48.04Z" fill="#0D1338" fill-opacity="1.000000" fill-rule="nonzero"/>
		<path id="Vector" d="M45.73 27.53C45.73 27.53 45.72 27.54 45.71 27.55C45.24 28.06 44.63 28.42 43.96 28.6C44.27 28.87 44.66 29.05 45.07 29.11C44.34 30.55 43.47 31.91 42.47 33.19C42.11 33.64 41.73 34.08 41.32 34.5C41.21 34.61 41.09 34.72 40.97 34.83C40.71 35.08 40.44 35.32 40.16 35.56C39.26 36.33 38.29 37.03 37.27 37.65C37.22 37.69 37.18 37.71 37.13 37.74C35.47 38.74 33.69 39.54 31.84 40.13C29.06 41.01 26.16 41.47 23.24 41.48C20.31 41.47 17.41 41.01 14.63 40.13C12.78 39.54 11 38.74 9.34 37.74C9.31 37.72 9.27 37.7 9.23 37.68C8.2 37.05 7.22 36.34 6.31 35.56C6.03 35.33 5.76 35.08 5.5 34.83C5.37 34.72 5.25 34.6 5.13 34.48C4.92 34.26 4.72 34.04 4.52 33.81C4.37 33.64 4.22 33.46 4.08 33.28C3.06 32 2.16 30.61 1.41 29.15C1.4 29.13 1.39 29.11 1.39 29.11C1.42 29.11 1.44 29.11 1.47 29.1C1.84 29.03 2.19 28.87 2.48 28.62C2.49 28.62 2.5 28.61 2.51 28.6C1.84 28.42 1.23 28.06 0.76 27.55C0.75 27.54 0.74 27.53 0.74 27.53L0.77 27.53C1.3 27.54 1.83 27.43 2.31 27.19C2.34 27.17 2.37 27.16 2.4 27.14C2.44 27.12 2.48 27.09 2.51 27.07C2.51 27.05 2.5 27.03 2.5 27.01C2.47 26.8 2.45 26.6 2.43 26.39C2.4 26.09 2.38 25.79 2.36 25.48C2.32 24.51 2.34 23.53 2.43 22.55C2.59 21 2.87 19.46 3.29 17.96C4.26 14.4 6.18 11.16 8.83 8.57C11.48 5.98 14.78 4.13 18.38 3.22C18.62 3.15 18.86 3.1 19.11 3.04C19.46 2.97 19.82 2.9 20.18 2.84C19.35 1.86 16.81 1.7 16.76 1.63C17.27 1.62 19.95 1.76 21.93 2.62C21.95 2.63 21.98 2.65 22.01 2.66C22.08 2.65 22.26 2.61 22.43 2.59L22.44 2.59C22.56 2.57 22.68 2.56 22.8 2.56C22.76 2.31 22.66 2.08 22.49 1.89C22.33 1.71 22.12 1.57 21.88 1.49C21.93 1.5 24.69 2.13 25.08 2.67C25.84 2.76 26.61 2.88 27.36 3.04C27.6 3.1 27.84 3.15 28.08 3.22C31.69 4.13 34.99 5.98 37.64 8.57C40.29 11.16 42.2 14.4 43.18 17.96C43.6 19.46 43.88 21 44.03 22.55C44.13 23.53 44.15 24.51 44.11 25.48C44.09 25.79 44.07 26.09 44.04 26.39C44.02 26.6 43.99 26.8 43.97 27.01C43.96 27.03 43.96 27.05 43.96 27.07C43.98 27.08 44.01 27.1 44.05 27.13C44.07 27.14 44.1 27.16 44.14 27.18C44.32 27.28 44.52 27.36 44.72 27.41C45.04 27.49 45.37 27.53 45.7 27.53L45.73 27.53Z" fill="#FFFFFF" fill-opacity="1.000000" fill-rule="nonzero"/>
		<g opacity="0.490000">
			<path id="Vector" d="M45.48 27.6C45.48 27.6 45.47 27.61 45.47 27.62C44.87 28.05 44.19 28.37 43.47 28.54C43.9 28.85 44.38 29.07 44.89 29.2C44.09 30.56 43.19 31.86 42.22 33.11C41.88 33.54 40.24 35.08 39.98 35.3C39.08 36.07 37.01 37.22 36.97 37.25C35.43 38.17 33.83 39 32.19 39.73C31.48 40.05 26.44 41.66 24.58 41.1C32.78 38.62 34.88 29.49 34.88 20.55C34.88 18.9 37.65 19.61 37.27 18.07C38.08 16.12 35.81 10.32 33.69 8.16C31.46 5.88 26.12 3.18 25.76 2.94C26.41 3.02 30.24 4.24 31.27 4.7C36.36 6.96 41.08 12.29 42.73 18.42C43.13 19.85 43.4 21.31 43.54 22.79C43.63 23.71 43.66 24.65 43.61 25.58C43.6 25.87 43.58 26.16 43.55 26.44C43.53 26.64 43.51 26.83 43.48 27.03C43.48 27.05 43.48 27.07 43.47 27.09C43.49 27.1 43.52 27.12 43.56 27.14C43.58 27.16 43.61 27.17 43.64 27.19C43.82 27.29 44.01 27.36 44.2 27.41C44.61 27.51 45.03 27.57 45.46 27.6L45.48 27.6L45.48 27.6Z" fill="#C5EFFF" fill-opacity="1.000000" fill-rule="nonzero"/>
		</g>
		<path id="Vector" d="M25.6 27.09C25.53 27.65 24.8 28.56 23.84 28.43C22.89 28.3 22.08 27.41 22.16 26.84C22.24 26.28 22.96 26.37 23.98 26.37C24.93 26.37 25.69 26.53 25.61 27.09L25.6 27.09Z" fill="#000000" fill-opacity="1.000000" fill-rule="nonzero"/>
		<path id="Vector" d="M27.26 29.89C27.16 29.94 27.07 29.99 26.97 30.04C26.99 30.33 26.98 30.62 26.94 30.91C26.66 32.9 25.08 34.32 23.42 34.09C21.76 33.86 20.74 32.22 20.9 30.34C20.77 30.2 20.62 30.08 20.45 29.99C20.16 29.85 19.94 29.61 19.82 29.31C19.71 29.02 19.71 28.69 19.83 28.4C19.88 28.25 19.95 28.12 20.04 28C20.13 27.87 20.28 27.96 20.24 28.12C20.24 28.12 20.24 28.12 20.24 28.13C19.97 29.16 20.38 29.59 21 30.03C21.47 30.29 22.01 30.4 22.55 30.34C23.09 30.28 23.6 30.04 23.99 29.68C24.35 29.94 24.77 30.1 25.2 30.16C25.64 30.21 26.09 30.15 26.5 29.98C27.28 29.58 27.86 29.25 27.71 28.08L27.71 28.07C27.69 27.91 27.85 27.84 27.93 27.98C28 28.11 28.05 28.25 28.08 28.4C28.16 28.71 28.12 29.03 27.97 29.31C27.82 29.59 27.57 29.8 27.26 29.9L27.26 29.89Z" fill="#000000" fill-opacity="1.000000" fill-rule="nonzero"/>
		<path id="Vector" d="M18 26.45C17.67 28.8 16.43 32.05 11.52 31.05C8.53 30.44 7.72 27.6 8.39 25.33C9.38 21.99 11.91 20.98 14.27 21.31C16.63 21.64 18.34 24.11 18 26.45Z" fill="#000000" fill-opacity="1.000000" fill-rule="nonzero"/>
		<path id="Vector" d="M14.06 25.64C14.06 26.09 13.7 26.45 13.25 26.45C12.8 26.45 12.43 26.09 12.43 25.64C12.43 25.19 12.8 24.83 13.25 24.83C13.7 24.83 14.06 25.19 14.06 25.64Z" fill="#FFFFFF" fill-opacity="1.000000" fill-rule="evenodd"/>
		<path id="Vector" d="M15.59 28.13C15.59 28.55 15.24 28.89 14.82 28.89C14.39 28.89 14.04 28.55 14.04 28.13C14.04 27.7 14.39 27.36 14.82 27.36C15.24 27.36 15.59 27.7 15.59 28.13Z" fill="#FFFFFF" fill-opacity="1.000000" fill-rule="evenodd"/>
		<path id="Vector" d="M15.92 18.95C15.8 19.31 15.2 18.69 12.43 19.2C10.58 19.55 9.42 20.94 9 20.42C8.82 20.2 10.28 19.06 12.11 18.67C13.84 18.29 16.06 18.58 15.92 18.95L15.92 18.95Z" fill="#000000" fill-opacity="1.000000" fill-rule="nonzero"/>
		<path id="Vector" d="M26.06 31.94C26.04 32.16 25.97 32.37 25.84 32.55C25.54 33.05 24.01 33.87 23.52 33.61C23.01 33.35 22.91 32.76 23.09 32.22C23.21 31.8 23.42 31.4 23.72 31.07C23.86 30.9 24.03 30.77 24.23 30.69C24.44 30.6 24.66 30.57 24.87 30.59C25.04 30.6 25.2 30.64 25.36 30.72C25.51 30.79 25.64 30.89 25.75 31.02C25.86 31.15 25.95 31.29 26 31.45C26.05 31.61 26.07 31.78 26.06 31.94Z" fill="#CE111F" fill-opacity="1.000000" fill-rule="nonzero"/>
		<path id="Vector" d="M29.66 24.47C29.32 26.87 29.61 30.42 34.74 30.81C37.86 31.05 39.46 28.48 39.45 26.05C39.43 22.49 37.23 20.79 34.8 20.45C32.38 20.12 30 22.07 29.66 24.47L29.66 24.47Z" fill="#000000" fill-opacity="1.000000" fill-rule="nonzero"/>
		<path id="Vector" d="M34.13 24.82C34.13 25.28 33.75 25.65 33.29 25.65C32.83 25.65 32.46 25.28 32.46 24.82C32.46 24.37 32.83 23.99 33.29 23.99C33.75 23.99 34.13 24.37 34.13 24.82Z" fill="#FFFFFF" fill-opacity="1.000000" fill-rule="evenodd"/>
		<path id="Vector" d="M33.11 27.01C33.11 27.44 32.76 27.79 32.33 27.79C31.89 27.79 31.54 27.44 31.54 27.01C31.54 26.58 31.89 26.23 32.33 26.23C32.76 26.23 33.11 26.58 33.11 27.01Z" fill="#FFFFFF" fill-opacity="1.000000" fill-rule="evenodd"/>
		<path id="Vector" d="M38.01 19.46C37.77 19.76 37.42 18.98 34.63 18.55C32.77 18.27 31.22 19.2 30.99 18.58C30.89 18.31 32.64 17.71 34.5 17.94C36.26 18.15 38.27 19.15 38.01 19.46Z" fill="#000000" fill-opacity="1.000000" fill-rule="nonzero"/>
		<path id="Vector" d="M22.58 37.32C23 37.52 23.47 37.63 23.94 37.63C24.41 37.63 24.88 37.53 25.31 37.33C25.32 37.32 25.33 37.32 25.34 37.33C25.36 37.33 25.37 37.34 25.37 37.35C25.38 37.36 25.38 37.37 25.38 37.39C25.38 37.4 25.37 37.41 25.36 37.42C24.94 37.7 24.45 37.86 23.94 37.86C23.43 37.85 22.94 37.7 22.52 37.41C22.51 37.41 22.51 37.4 22.5 37.4C22.5 37.39 22.5 37.38 22.5 37.38C22.5 37.37 22.5 37.36 22.5 37.36C22.5 37.35 22.51 37.34 22.51 37.34C22.52 37.33 22.53 37.32 22.54 37.32C22.55 37.32 22.56 37.32 22.57 37.32L22.58 37.32Z" fill="#0D1338" fill-opacity="1.000000" fill-rule="nonzero"/>
		<path id="Vector" d="M15.74 42.93L30.28 42.93L30.28 55.38L15.74 55.38L15.74 42.93Z" fill="#B18964" fill-opacity="1.000000" fill-rule="evenodd"/>
		<path id="Vector" d="M30.28 55.63L15.74 55.63C15.68 55.63 15.61 55.6 15.57 55.55C15.52 55.51 15.49 55.44 15.49 55.38L15.49 42.93C15.49 42.87 15.52 42.81 15.57 42.76C15.61 42.71 15.68 42.69 15.74 42.69L30.28 42.69C30.34 42.69 30.41 42.71 30.45 42.76C30.5 42.81 30.53 42.87 30.53 42.93L30.53 55.38C30.53 55.41 30.52 55.44 30.51 55.47C30.5 55.5 30.48 55.53 30.45 55.55C30.43 55.58 30.4 55.59 30.37 55.61C30.34 55.62 30.31 55.63 30.28 55.63ZM16 55.12L30.02 55.12L30.02 43.18L16 43.18L16 55.12Z" fill="#000000" fill-opacity="1.000000" fill-rule="nonzero"/>
		<path id="Vector" d="M14.26 57.72L15.74 55.38L15.74 42.93L14.26 46.76L14.26 57.72Z" fill="#B18964" fill-opacity="1.000000" fill-rule="nonzero"/>
		<path id="Vector" d="M14.26 57.97C14.23 57.97 14.21 57.97 14.19 57.96C14.13 57.94 14.09 57.91 14.06 57.87C14.02 57.83 14 57.77 14 57.72L14 46.76C14 46.73 14.01 46.7 14.02 46.67L15.51 42.84C15.53 42.79 15.57 42.74 15.62 42.71C15.67 42.68 15.73 42.67 15.79 42.68C15.85 42.69 15.9 42.72 15.94 42.77C15.98 42.81 16 42.87 16 42.93L16 55.37C16 55.42 15.98 55.47 15.96 55.51L14.47 57.85C14.45 57.89 14.42 57.92 14.38 57.94C14.34 57.96 14.3 57.97 14.26 57.97L14.26 57.97ZM14.51 46.81L14.51 56.85L15.49 55.3L15.49 44.28L14.51 46.81Z" fill="#0D1338" fill-opacity="1.000000" fill-rule="nonzero"/>
		<path id="Vector" d="M31.76 57.72L30.28 55.38L30.28 42.93L31.76 46.76L31.76 57.72Z" fill="#B18964" fill-opacity="1.000000" fill-rule="nonzero"/>
		<path id="Vector" d="M31.76 57.97C31.72 57.97 31.68 57.96 31.64 57.94C31.6 57.92 31.57 57.89 31.55 57.85L30.06 55.51C30.04 55.47 30.02 55.42 30.02 55.37L30.02 42.93C30.02 42.87 30.04 42.82 30.08 42.77C30.12 42.72 30.17 42.69 30.23 42.68C30.29 42.67 30.35 42.68 30.4 42.71C30.45 42.74 30.49 42.79 30.51 42.84L32 46.67C32.01 46.7 32.02 46.73 32.02 46.76L32.02 57.72C32.02 57.77 32 57.83 31.97 57.87C31.93 57.91 31.89 57.94 31.83 57.96C31.81 57.97 31.79 57.97 31.76 57.97L31.76 57.97ZM30.53 55.3L31.51 56.85L31.51 46.81L30.53 44.28L30.53 55.3Z" fill="#000000" fill-opacity="1.000000" fill-rule="nonzero"/>
		<path id="Vector" d="M21.88 50.76L21.62 50.9C21.08 51.19 20.44 51.25 19.85 51.07C19.26 50.89 18.77 50.49 18.48 49.95L12.91 39.59C12.62 39.05 12.56 38.42 12.73 37.83C12.91 37.25 13.32 36.76 13.86 36.47L14.12 36.34C14.67 36.05 15.3 35.99 15.89 36.17C16.48 36.34 16.97 36.75 17.26 37.29L22.71 47.41L22.84 47.65C22.98 47.92 23.07 48.21 23.1 48.51C23.13 48.81 23.1 49.12 23.01 49.4C22.92 49.69 22.78 49.96 22.58 50.2C22.39 50.43 22.15 50.62 21.88 50.76Z" fill="#CC8B1F" fill-opacity="1.000000" fill-rule="nonzero"/>
		<g opacity="0.400000">
			<path id="Vector" d="M22.62 49.49C22.59 49.19 22.5 48.89 22.36 48.62L16.78 38.26C16.49 37.72 16 37.32 15.41 37.14C14.82 36.96 14.19 37.02 13.64 37.31L13.38 37.45C13.12 37.59 12.88 37.78 12.69 38.01C12.76 37.68 12.9 37.38 13.11 37.11C13.31 36.85 13.57 36.63 13.86 36.48L14.12 36.34C14.67 36.05 15.3 35.99 15.89 36.17C16.48 36.35 16.97 36.75 17.26 37.29L22.71 47.42C22.86 47.75 22.93 48.11 22.92 48.47C22.9 48.83 22.8 49.18 22.62 49.5L22.62 49.49Z" fill="#FFFFFF" fill-opacity="1.000000" fill-rule="nonzero"/>
		</g>
		<path id="Vector" d="M20.54 51.42C20.07 51.42 19.61 51.3 19.21 51.06C18.81 50.82 18.48 50.48 18.26 50.07L12.68 39.7C12.52 39.41 12.43 39.08 12.39 38.75C12.36 38.42 12.39 38.08 12.49 37.76C12.59 37.44 12.75 37.14 12.97 36.88C13.18 36.62 13.45 36.41 13.74 36.25L14 36.11C14.3 35.96 14.63 35.86 14.97 35.83C15.3 35.79 15.64 35.83 15.97 35.93C16.29 36.02 16.59 36.18 16.85 36.4C17.11 36.61 17.33 36.87 17.49 37.17L23.06 47.53C23.22 47.83 23.32 48.15 23.35 48.49C23.38 48.82 23.35 49.16 23.25 49.48C23.15 49.8 22.99 50.1 22.78 50.35C22.56 50.61 22.3 50.83 22 50.98L21.74 51.12C21.37 51.32 20.96 51.42 20.54 51.42ZM15.21 36.32C14.87 36.32 14.54 36.4 14.24 36.56L13.98 36.7C13.5 36.95 13.14 37.39 12.98 37.91C12.82 38.43 12.87 38.99 13.13 39.47L18.71 49.84C18.96 50.32 19.4 50.67 19.93 50.83C20.45 50.99 21.02 50.94 21.5 50.68L21.76 50.54C22.25 50.29 22.61 49.85 22.77 49.33C22.93 48.81 22.87 48.25 22.62 47.77L17.04 37.4C16.86 37.08 16.6 36.8 16.28 36.61C15.96 36.42 15.59 36.32 15.21 36.32L15.21 36.32Z" fill="#000000" fill-opacity="1.000000" fill-rule="nonzero"/>
		<path id="Vector" d="M14.44 39.2L15.3 37.83C15.43 37.61 15.72 37.55 15.93 37.68C16.15 37.81 16.21 38.1 16.08 38.31L15.22 39.68C15.08 39.9 14.8 39.96 14.58 39.83C14.37 39.69 14.3 39.41 14.44 39.2Z" fill="#EAD67D" fill-opacity="1.000000" fill-rule="evenodd"/>
		<path id="Vector" d="M15.41 41.01L16.27 39.63C16.4 39.42 16.69 39.35 16.9 39.49C17.12 39.62 17.19 39.9 17.05 40.12L16.19 41.49C16.05 41.7 15.77 41.77 15.55 41.63C15.34 41.5 15.27 41.22 15.41 41.01Z" fill="#EAD67D" fill-opacity="1.000000" fill-rule="evenodd"/>
		<path id="Vector" d="M16.38 42.81L17.24 41.44C17.38 41.22 17.66 41.16 17.88 41.29C18.09 41.43 18.16 41.71 18.02 41.92L17.16 43.29C17.03 43.51 16.74 43.57 16.53 43.44C16.31 43.31 16.24 43.02 16.38 42.81Z" fill="#EAD67D" fill-opacity="1.000000" fill-rule="evenodd"/>
		<path id="Vector" d="M17.35 44.62L18.21 43.25C18.35 43.03 18.63 42.97 18.85 43.1C19.06 43.23 19.13 43.51 18.99 43.73L18.13 45.1C18 45.31 17.71 45.38 17.5 45.25C17.28 45.11 17.21 44.83 17.35 44.62Z" fill="#EAD67D" fill-opacity="1.000000" fill-rule="evenodd"/>
		<path id="Vector" d="M26.21 48.6C24.47 48.63 24.44 46.57 24.6 45.15C24.22 43.97 24.41 42.43 24.54 41.88C23.89 39.75 25.09 39.18 25.88 39.15C26.67 39.13 27.67 39.56 27.4 41.74C27.59 42.83 27.62 43.94 27.49 45.04C27.73 46.07 28.05 48.55 26.21 48.6L26.21 48.6Z" fill="#9C3202" fill-opacity="1.000000" fill-rule="nonzero"/>
		<g opacity="0.350000">
			<path id="Vector" d="M24.73 42.44C25.25 42.55 25.76 42.73 26.24 42.96C26.39 43.04 26.57 43.09 26.75 43.1C26.92 43.1 27.1 43.07 27.26 43C27.39 42.96 27.5 42.89 27.59 42.79C27.67 42.69 27.73 42.57 27.74 42.44C27.69 44.12 27.2 44.73 26.28 44.48C25.58 44.24 24.99 43.76 24.64 43.11C24.59 43 24.58 42.88 24.59 42.76C24.61 42.64 24.65 42.53 24.73 42.44L24.73 42.44Z" fill="#0D1338" fill-opacity="1.000000" fill-rule="nonzero"/>
		</g>
		<g opacity="0.400000">
			<path id="Vector" d="M27.43 41.41C27.33 40.13 26.59 39.82 25.95 39.82C25.92 39.82 25.9 39.82 25.88 39.82C25.51 39.81 25.15 39.94 24.87 40.19C24.59 40.43 24.42 40.77 24.38 41.13C24.2 39.61 25.19 39.18 25.88 39.15C25.9 39.15 25.93 39.15 25.95 39.15C26.69 39.15 27.56 39.57 27.43 41.41L27.43 41.41Z" fill="#FFFFFF" fill-opacity="1.000000" fill-rule="nonzero"/>
		</g>
		<path id="Vector" d="M26.18 48.85C25.94 48.86 25.7 48.82 25.48 48.73C25.26 48.64 25.06 48.5 24.9 48.33C24.36 47.74 24.18 46.68 24.34 45.17C24.08 44.1 24.05 42.98 24.28 41.89C23.99 40.92 24.05 40.15 24.44 39.61C24.61 39.39 24.83 39.22 25.07 39.09C25.32 38.97 25.59 38.91 25.87 38.9C26.11 38.88 26.35 38.92 26.58 39C26.81 39.09 27.01 39.22 27.18 39.4C27.62 39.87 27.78 40.66 27.66 41.73C27.84 42.82 27.87 43.93 27.75 45.03C27.9 45.74 28.16 47.38 27.47 48.27C27.32 48.45 27.13 48.6 26.91 48.7C26.69 48.81 26.46 48.86 26.22 48.85L26.18 48.85L26.18 48.85ZM25.95 39.4L25.89 39.4C25.69 39.4 25.49 39.45 25.31 39.54C25.13 39.62 24.98 39.75 24.85 39.9C24.55 40.32 24.53 40.98 24.78 41.81C24.79 41.85 24.79 41.9 24.79 41.94C24.68 42.42 24.47 43.92 24.84 45.07C24.85 45.1 24.86 45.14 24.85 45.17C24.69 46.54 24.84 47.51 25.27 47.99C25.39 48.11 25.54 48.21 25.7 48.27C25.86 48.34 26.03 48.36 26.2 48.35C26.37 48.35 26.53 48.32 26.68 48.25C26.83 48.18 26.96 48.08 27.06 47.95C27.66 47.2 27.35 45.57 27.24 45.09C27.24 45.07 27.24 45.04 27.24 45.01C27.36 43.93 27.33 42.85 27.15 41.78C27.15 41.76 27.15 41.73 27.15 41.7C27.26 40.78 27.14 40.1 26.81 39.74C26.69 39.62 26.56 39.53 26.41 39.48C26.26 39.42 26.1 39.39 25.95 39.4L25.95 39.4Z" fill="#000000" fill-opacity="1.000000" fill-rule="nonzero"/>
		<path id="Vector" d="M25.85 38.16L25.85 38.16C26.18 38.15 26.45 38.41 26.46 38.74L26.46 38.74C26.47 39.06 26.21 39.34 25.88 39.34L25.88 39.34C25.55 39.35 25.28 39.09 25.27 38.77L25.27 38.77C25.26 38.44 25.52 38.17 25.85 38.16Z" fill="#9C3202" fill-opacity="1.000000" fill-rule="evenodd"/>
		<g opacity="0.400000">
			<path id="Vector" d="M25.85 38.16L25.85 38.16C26.18 38.15 26.45 38.41 26.46 38.74L26.46 38.74C26.47 39.06 26.21 39.34 25.88 39.34L25.88 39.34C25.55 39.35 25.28 39.09 25.27 38.77L25.27 38.77C25.26 38.44 25.52 38.17 25.85 38.16Z" fill="#FFFFFF" fill-opacity="1.000000" fill-rule="evenodd"/>
		</g>
		<path id="Vector" d="M25.87 39.59C25.64 39.6 25.42 39.51 25.26 39.35C25.1 39.2 25.01 38.99 25.01 38.76C25 38.54 25.09 38.32 25.25 38.16C25.41 38 25.62 37.91 25.85 37.91L25.87 37.91C26.09 37.91 26.31 37.99 26.47 38.15C26.63 38.3 26.73 38.52 26.73 38.74C26.73 38.96 26.64 39.18 26.49 39.34C26.33 39.5 26.11 39.59 25.89 39.59L25.87 39.59ZM25.87 38.41L25.86 38.41C25.77 38.42 25.69 38.46 25.64 38.52C25.58 38.58 25.55 38.67 25.55 38.75C25.55 38.84 25.58 38.92 25.64 38.98C25.7 39.05 25.78 39.08 25.87 39.09L25.88 39.09C25.92 39.09 25.97 39.08 26.01 39.06C26.05 39.04 26.09 39.02 26.12 38.98C26.15 38.95 26.17 38.91 26.19 38.87C26.21 38.83 26.21 38.78 26.21 38.74C26.21 38.65 26.17 38.57 26.11 38.5C26.04 38.44 25.96 38.41 25.87 38.41L25.87 38.41Z" fill="#000000" fill-opacity="1.000000" fill-rule="nonzero"/>
		<path id="Vector" d="M26.21 48.7C26.18 48.7 26.16 48.69 26.14 48.67C26.12 48.66 26.11 48.63 26.11 48.61L25.78 39.35C25.78 39.33 25.78 39.32 25.79 39.31C25.79 39.3 25.8 39.29 25.81 39.28C25.82 39.27 25.83 39.26 25.84 39.25C25.85 39.25 25.87 39.24 25.88 39.24C25.91 39.24 25.93 39.25 25.95 39.27C25.97 39.29 25.98 39.31 25.98 39.34L26.31 48.6C26.31 48.61 26.31 48.62 26.31 48.64C26.3 48.65 26.29 48.66 26.29 48.67C26.28 48.68 26.27 48.69 26.25 48.69C26.24 48.7 26.23 48.7 26.22 48.7L26.21 48.7L26.21 48.7Z" fill="#000000" fill-opacity="1.000000" fill-rule="nonzero"/>
		<path id="Vector" d="M25.68 42.03C25.08 42.03 24.57 41.99 24.53 41.98C24.5 41.98 24.48 41.97 24.46 41.95C24.45 41.93 24.44 41.9 24.44 41.88C24.44 41.85 24.45 41.82 24.47 41.81C24.5 41.79 24.52 41.78 24.55 41.78C24.57 41.79 26.64 41.95 27.36 41.62C27.38 41.61 27.39 41.61 27.4 41.61C27.42 41.61 27.43 41.61 27.44 41.62C27.45 41.62 27.47 41.63 27.48 41.64C27.49 41.64 27.49 41.66 27.5 41.67C27.5 41.68 27.51 41.69 27.51 41.71C27.51 41.72 27.51 41.73 27.5 41.74C27.5 41.76 27.49 41.77 27.48 41.78C27.47 41.79 27.46 41.79 27.45 41.8C26.88 41.98 26.28 42.06 25.68 42.03L25.68 42.03Z" fill="#000000" fill-opacity="1.000000" fill-rule="nonzero"/>
		<path id="Vector" d="M25.7 45.35C25.1 45.35 24.59 45.31 24.55 45.31C24.52 45.3 24.5 45.29 24.48 45.27C24.46 45.25 24.46 45.22 24.46 45.2C24.46 45.17 24.47 45.15 24.49 45.13C24.51 45.11 24.54 45.1 24.57 45.11C24.59 45.11 26.66 45.27 27.38 44.94C27.41 44.93 27.44 44.93 27.46 44.94C27.49 44.95 27.51 44.97 27.52 44.99C27.53 45.01 27.53 45.04 27.52 45.07C27.51 45.09 27.49 45.11 27.47 45.12C26.9 45.3 26.3 45.38 25.7 45.35L25.7 45.35Z" fill="#0D1338" fill-opacity="1.000000" fill-rule="nonzero"/>
		<path id="Vector" d="M24.07 45.56L22.32 46.55L22.32 40.92L24.07 39.93L24.07 45.56Z" fill="#3996D1" fill-opacity="1.000000" fill-rule="nonzero"/>
		<path id="Vector" d="M22.32 46.8C22.28 46.8 22.23 46.79 22.2 46.77C22.16 46.75 22.12 46.71 22.1 46.68C22.08 46.64 22.07 46.59 22.07 46.55L22.07 40.92C22.07 40.88 22.08 40.84 22.1 40.8C22.12 40.76 22.16 40.73 22.2 40.71L23.95 39.71C23.99 39.69 24.03 39.68 24.07 39.68C24.12 39.68 24.16 39.69 24.2 39.71C24.24 39.73 24.27 39.76 24.29 39.8C24.31 39.84 24.32 39.88 24.32 39.93L24.32 45.55C24.32 45.6 24.31 45.64 24.29 45.68C24.27 45.72 24.24 45.75 24.2 45.77L22.45 46.77C22.41 46.79 22.37 46.8 22.32 46.8ZM22.57 41.07L22.57 46.12L23.82 45.41L23.82 40.36L22.57 41.07Z" fill="#000000" fill-opacity="1.000000" fill-rule="nonzero"/>
		<path id="Vector" d="M19.03 40.92L22.32 40.92L22.32 46.55L19.03 46.55L19.03 40.92Z" fill="#3996D1" fill-opacity="1.000000" fill-rule="evenodd"/>
		<path id="Vector" d="M22.32 46.8L19.03 46.8C18.96 46.8 18.9 46.78 18.85 46.73C18.8 46.68 18.78 46.62 18.78 46.55L18.78 40.92C18.78 40.86 18.8 40.79 18.85 40.75C18.9 40.7 18.96 40.68 19.03 40.68L22.32 40.68C22.39 40.68 22.45 40.7 22.5 40.75C22.55 40.79 22.57 40.86 22.57 40.92L22.57 46.55C22.57 46.59 22.57 46.62 22.55 46.65C22.54 46.68 22.52 46.71 22.5 46.73C22.48 46.75 22.45 46.77 22.42 46.78C22.39 46.8 22.35 46.8 22.32 46.8ZM19.28 46.3L22.07 46.3L22.07 41.17L19.28 41.17L19.28 46.3Z" fill="#000000" fill-opacity="1.000000" fill-rule="nonzero"/>
		<path id="Vector" d="M19.57 41.48L21.78 41.48L21.78 46L19.57 46L19.57 41.48Z" fill="#FFFFFF" fill-opacity="1.000000" fill-rule="evenodd"/>
		<path id="Vector" d="M23.66 45.24L22.82 45.68L22.82 41.4L23.6 41.02L23.66 45.24Z" fill="#FFFFFF" fill-opacity="1.000000" fill-rule="nonzero"/>
		<path id="Vector" d="M23.13 39.04L20.02 39.04L19.03 40.92L22.32 40.92L23.13 39.04Z" fill="#3996D1" fill-opacity="1.000000" fill-rule="nonzero"/>
		<path id="Vector" d="M22.32 41.18L19.03 41.18C18.99 41.18 18.94 41.16 18.91 41.14C18.87 41.12 18.84 41.09 18.81 41.06C18.79 41.02 18.78 40.98 18.78 40.93C18.78 40.89 18.78 40.85 18.81 40.81L19.8 38.93C19.82 38.89 19.85 38.85 19.89 38.83C19.93 38.8 19.97 38.79 20.02 38.79L23.13 38.79C23.17 38.79 23.21 38.8 23.25 38.82C23.29 38.84 23.32 38.87 23.34 38.9C23.36 38.94 23.38 38.98 23.38 39.02C23.39 39.06 23.38 39.1 23.36 39.14L22.55 41.02C22.53 41.07 22.5 41.11 22.46 41.13C22.42 41.16 22.37 41.18 22.32 41.18L22.32 41.18ZM19.45 40.67L22.15 40.67L22.75 39.29L20.17 39.29L19.45 40.67Z" fill="#000000" fill-opacity="1.000000" fill-rule="nonzero"/>
		<path id="Vector" d="M22.28 39.52L20.46 39.52L19.88 40.44L21.8 40.44L22.28 39.52Z" fill="#FFFFFF" fill-opacity="1.000000" fill-rule="nonzero"/>
		<path id="Vector" d="M23.13 39.04L24.07 39.93L22.32 40.93L23.13 39.04Z" fill="#3996D1" fill-opacity="1.000000" fill-rule="nonzero"/>
		<path id="Vector" d="M22.32 41.18C22.28 41.18 22.24 41.17 22.2 41.15C22.16 41.13 22.13 41.1 22.11 41.06C22.09 41.03 22.07 40.99 22.07 40.95C22.06 40.91 22.07 40.87 22.09 40.83L22.9 38.94C22.91 38.91 22.94 38.87 22.97 38.85C23 38.82 23.04 38.81 23.08 38.8C23.12 38.79 23.16 38.79 23.2 38.8C23.24 38.81 23.27 38.83 23.3 38.86L24.25 39.75C24.27 39.77 24.3 39.81 24.31 39.84C24.32 39.88 24.33 39.92 24.32 39.96C24.32 40 24.3 40.03 24.28 40.07C24.26 40.1 24.23 40.13 24.2 40.14L22.45 41.14C22.41 41.16 22.36 41.17 22.32 41.17L22.32 41.18ZM23.22 39.47L22.85 40.34L23.65 39.88L23.22 39.47Z" fill="#000000" fill-opacity="1.000000" fill-rule="nonzero"/>
		<path id="Vector" d="M20.01 38.18L23.13 38.18L23.13 39.04L20.01 39.04L20.01 38.18Z" fill="#FFFFFF" fill-opacity="1.000000" fill-rule="evenodd"/>
		<path id="Vector" d="M23.13 39.29L20.01 39.29C19.95 39.29 19.88 39.27 19.84 39.22C19.79 39.17 19.76 39.11 19.76 39.04L19.76 38.19C19.76 38.12 19.79 38.06 19.84 38.01C19.88 37.96 19.95 37.94 20.01 37.94L23.13 37.94C23.2 37.94 23.26 37.96 23.31 38.01C23.35 38.06 23.38 38.12 23.38 38.19L23.38 39.04C23.38 39.11 23.35 39.17 23.31 39.22C23.26 39.27 23.2 39.29 23.13 39.29ZM20.27 38.79L22.88 38.79L22.88 38.44L20.27 38.44L20.27 38.79Z" fill="#000000" fill-opacity="1.000000" fill-rule="nonzero"/>
		<path id="Vector" d="M18.79 42.51L18.07 43.52L16.21 42.22C16.11 42.3 15.99 42.34 15.86 42.34C15.73 42.35 15.61 42.31 15.51 42.23C15.87 41.77 16.04 41.18 15.97 40.59C16.06 40.47 16.19 40.39 16.33 40.36C16.48 40.34 16.63 40.37 16.75 40.45C16.88 40.53 16.97 40.65 17.01 40.79C17.04 40.93 17.02 41.08 16.95 41.21L18.79 42.51Z" fill="#FFFFFF" fill-opacity="1.000000" fill-rule="nonzero"/>
		<path id="Vector" d="M18.07 43.77C18.01 43.77 17.96 43.76 17.92 43.73L16.2 42.52C16.07 42.58 15.92 42.6 15.77 42.59C15.62 42.58 15.48 42.52 15.36 42.44C15.18 42.31 15.06 42.12 15.02 41.9C15.41 41.5 15.67 40.99 15.77 40.44C15.88 40.29 16.04 40.18 16.23 40.13C16.42 40.08 16.61 40.1 16.79 40.18C16.97 40.26 17.11 40.4 17.19 40.57C17.28 40.74 17.3 40.93 17.26 41.12L18.94 42.3C18.97 42.32 18.99 42.35 19.01 42.37C19.03 42.4 19.04 42.43 19.04 42.47C19.05 42.5 19.05 42.53 19.04 42.56C19.03 42.6 19.02 42.63 19 42.65L18.27 43.67C18.25 43.7 18.22 43.73 18.18 43.75C18.15 43.76 18.11 43.77 18.07 43.77ZM16.21 41.97C16.27 41.97 16.32 41.98 16.36 42.01L18.01 43.18L18.44 42.57L16.81 41.42C16.76 41.38 16.72 41.33 16.71 41.27C16.69 41.21 16.7 41.14 16.74 41.09C16.78 41.02 16.79 40.93 16.76 40.85C16.74 40.77 16.69 40.7 16.62 40.66C16.55 40.61 16.47 40.59 16.38 40.61C16.3 40.62 16.23 40.67 16.18 40.73C16.14 40.78 16.12 40.84 16.12 40.91C16.12 40.97 16.14 41.03 16.17 41.08C16.2 41.13 16.21 41.17 16.21 41.22C16.21 41.27 16.19 41.32 16.16 41.36C16.13 41.4 16.09 41.43 16.05 41.45C16 41.47 15.95 41.47 15.9 41.46C15.84 41.45 15.77 41.45 15.72 41.47C15.66 41.49 15.61 41.53 15.57 41.58C15.55 41.62 15.53 41.65 15.52 41.69C15.51 41.73 15.51 41.78 15.52 41.82C15.53 41.9 15.58 41.98 15.66 42.03C15.71 42.07 15.78 42.09 15.86 42.09C15.93 42.09 16 42.07 16.05 42.02C16.1 41.99 16.16 41.97 16.21 41.97L16.21 41.97Z" fill="#000000" fill-opacity="1.000000" fill-rule="nonzero"/>
		<path id="Vector" d="M21.01 48.74C21.01 48.74 17.03 45.53 17.07 43.51C17.09 43.2 17.19 42.9 17.36 42.63C17.53 42.37 17.77 42.16 18.04 42C19.98 41.01 25.1 43.05 25.1 43.05L21.01 48.74L21.01 48.74Z" fill="#9C3202" fill-opacity="1.000000" fill-rule="nonzero"/>
		<g opacity="0.400000">
			<path id="Vector" d="M25.09 42.94L24.52 43.75C23.45 43.35 19.4 41.95 17.72 42.8C17.45 42.95 17.23 43.15 17.06 43.4C17.09 43.09 17.19 42.79 17.36 42.53C17.53 42.27 17.76 42.05 18.03 41.9C19.98 40.91 25.09 42.94 25.09 42.94Z" fill="#FFFFFF" fill-opacity="1.000000" fill-rule="nonzero"/>
		</g>
		<path id="Vector" d="M21.01 48.99C20.95 48.99 20.9 48.97 20.85 48.94C20.14 48.35 19.47 47.72 18.84 47.05C17.48 45.6 16.8 44.41 16.82 43.5C16.84 43.15 16.96 42.8 17.15 42.5C17.34 42.2 17.61 41.95 17.92 41.78C19.95 40.75 24.98 42.73 25.19 42.82C25.23 42.83 25.26 42.85 25.29 42.88C25.31 42.91 25.33 42.94 25.34 42.98C25.35 43.01 25.35 43.05 25.35 43.09C25.34 43.13 25.33 43.16 25.31 43.19L21.22 48.89C21.2 48.91 21.17 48.94 21.14 48.96C21.11 48.97 21.08 48.99 21.05 48.99C21.04 48.99 21.02 48.99 21.01 48.99L21.01 48.99ZM19.48 41.98C19.03 41.96 18.57 42.05 18.15 42.23C17.92 42.36 17.72 42.54 17.58 42.77C17.43 42.99 17.34 43.25 17.32 43.51C17.29 44.98 19.77 47.38 20.96 48.38L24.7 43.17C23.89 42.87 23.07 42.61 22.23 42.4C21.33 42.15 20.41 42.01 19.48 41.98L19.48 41.98Z" fill="#000000" fill-opacity="1.000000" fill-rule="nonzero"/>
		<path id="Vector" d="M25.2 43.12C25.9 43.61 25.55 45.28 24.42 46.86C23.29 48.43 21.81 49.31 21.12 48.82C20.42 48.33 20.77 46.66 21.9 45.08C23.03 43.51 24.51 42.63 25.2 43.12Z" fill="#9B0404" fill-opacity="1.000000" fill-rule="evenodd"/>
		<path id="Vector" d="M21.58 49.2C21.36 49.21 21.15 49.14 20.97 49.02C20.55 48.72 20.41 48.11 20.58 47.3C21.03 45.59 22.1 44.1 23.58 43.12C24.3 42.69 24.92 42.62 25.35 42.92C25.77 43.22 25.91 43.83 25.74 44.64C25.28 46.35 24.22 47.84 22.73 48.82C22.39 49.05 21.99 49.18 21.58 49.2ZM24.73 43.24C24.42 43.26 24.11 43.37 23.85 43.55C23.16 43.99 22.57 44.56 22.11 45.23C20.99 46.79 20.77 48.26 21.26 48.61C21.36 48.67 21.47 48.7 21.59 48.7C22.21 48.7 23.28 48 24.21 46.71C24.7 46.06 25.05 45.32 25.25 44.53C25.37 43.94 25.3 43.5 25.06 43.33C24.96 43.27 24.85 43.23 24.74 43.24L24.73 43.24Z" fill="#000000" fill-opacity="1.000000" fill-rule="nonzero"/>
		<path id="Vector" d="M23.62 45.64C23.8 45.77 23.75 46.17 23.49 46.53C23.23 46.89 22.87 47.07 22.69 46.94C22.5 46.81 22.55 46.41 22.81 46.05C23.07 45.69 23.43 45.51 23.62 45.64Z" fill="#FFFFFF" fill-opacity="1.000000" fill-rule="evenodd"/>
		<path id="Vector" d="M21.01 45.86C21.07 46.66 20.81 47.46 20.28 48.07C19.75 48.68 19 49.06 18.19 49.13C17.38 49.2 16.58 48.95 15.96 48.43C15.33 47.92 14.94 47.18 14.86 46.37C14.73 44.87 15.8 43.69 17.22 43.95C17.6 44.01 17.98 44 18.35 43.92C18.66 43.83 18.98 43.81 19.3 43.87C19.61 43.93 19.91 44.05 20.16 44.24C20.42 44.43 20.63 44.67 20.78 44.95C20.92 45.23 21 45.54 21.01 45.86Z" fill="#D81B05" fill-opacity="1.000000" fill-rule="nonzero"/>
		<g opacity="0.400000">
			<path id="Vector" d="M20.96 46.72C20.96 46.63 20.95 46.55 20.95 46.45C20.83 44.98 19.64 44.22 18.29 44.51C17.92 44.6 17.54 44.61 17.16 44.54C16.01 44.34 15.1 45.06 14.85 46.14C14.84 44.75 15.87 43.7 17.22 43.95C17.6 44.01 17.98 44 18.36 43.92C18.66 43.83 18.98 43.82 19.3 43.87C19.61 43.93 19.91 44.05 20.16 44.24C20.42 44.43 20.63 44.67 20.78 44.95C20.92 45.23 21 45.54 21.01 45.86C21.03 46.15 21.02 46.44 20.96 46.73L20.96 46.72Z" fill="#FFFFFF" fill-opacity="1.000000" fill-rule="nonzero"/>
		</g>
		<path id="Vector" d="M17.93 49.42C17.1 49.41 16.3 49.1 15.68 48.54C15.07 47.99 14.69 47.22 14.61 46.4C14.56 46 14.61 45.59 14.75 45.21C14.88 44.83 15.1 44.49 15.4 44.21C15.65 43.99 15.95 43.82 16.27 43.73C16.6 43.65 16.94 43.63 17.27 43.7C17.61 43.76 17.96 43.75 18.3 43.67C18.64 43.58 19 43.56 19.35 43.62C19.7 43.69 20.03 43.83 20.31 44.04C20.6 44.25 20.83 44.52 21 44.83C21.16 45.14 21.25 45.49 21.26 45.84C21.33 46.71 21.05 47.58 20.48 48.25C19.91 48.91 19.09 49.33 18.21 49.4C18.12 49.41 18.02 49.41 17.93 49.41L17.93 49.42ZM16.84 44.16C16.43 44.16 16.04 44.31 15.74 44.58C15.5 44.81 15.33 45.09 15.22 45.39C15.11 45.7 15.08 46.03 15.12 46.35C15.15 46.72 15.25 47.08 15.42 47.4C15.59 47.73 15.83 48.02 16.11 48.26C16.4 48.5 16.72 48.68 17.08 48.79C17.43 48.9 17.81 48.94 18.18 48.91C18.55 48.88 18.91 48.78 19.24 48.61C19.57 48.44 19.86 48.21 20.1 47.92C20.34 47.64 20.52 47.32 20.63 46.97C20.75 46.62 20.79 46.25 20.76 45.88C20.75 45.6 20.68 45.33 20.55 45.08C20.42 44.83 20.24 44.61 20.02 44.44C19.79 44.28 19.52 44.18 19.25 44.13C18.97 44.08 18.68 44.09 18.41 44.16C18.01 44.26 17.59 44.27 17.18 44.19C17.07 44.17 16.95 44.16 16.84 44.16Z" fill="#000000" fill-opacity="1.000000" fill-rule="nonzero"/>
		<path id="Vector" d="M18.02 44.09L17.22 44.4C16.95 44.5 16.66 44.56 16.37 44.55C16.08 44.54 15.79 44.48 15.52 44.37C15.25 44.25 15.01 44.08 14.81 43.87C14.61 43.67 14.45 43.42 14.34 43.15L15.15 42.84C15.42 42.73 15.71 42.68 16 42.69C16.29 42.69 16.58 42.76 16.85 42.87C17.11 42.99 17.35 43.16 17.56 43.36C17.76 43.57 17.92 43.82 18.02 44.09Z" fill="#306112" fill-opacity="1.000000" fill-rule="nonzero"/>
		<g opacity="0.400000">
			<path id="Vector" d="M18.02 44.09L17.93 44.12C17.64 43.76 17.23 43.49 16.77 43.37C16.31 43.25 15.83 43.27 15.38 43.45L14.67 43.72C14.53 43.55 14.42 43.36 14.34 43.15L15.15 42.84C15.42 42.73 15.71 42.68 16 42.69C16.29 42.69 16.58 42.76 16.85 42.87C17.11 42.99 17.35 43.15 17.56 43.36C17.76 43.57 17.92 43.82 18.02 44.09L18.02 44.09Z" fill="#FFFFFF" fill-opacity="1.000000" fill-rule="nonzero"/>
		</g>
		<path id="Vector" d="M16.41 44.8C15.91 44.8 15.43 44.65 15.02 44.37C14.61 44.1 14.29 43.7 14.11 43.24C14.09 43.21 14.09 43.18 14.09 43.15C14.09 43.11 14.1 43.08 14.11 43.05C14.12 43.02 14.14 42.99 14.17 42.97C14.19 42.95 14.22 42.93 14.25 42.92L15.05 42.61C15.67 42.37 16.35 42.38 16.95 42.64C17.55 42.9 18.02 43.39 18.26 44C18.27 44.03 18.28 44.06 18.28 44.09C18.28 44.13 18.27 44.16 18.26 44.19C18.24 44.22 18.22 44.25 18.2 44.27C18.18 44.29 18.15 44.31 18.12 44.32L17.31 44.63C17.03 44.74 16.72 44.8 16.41 44.8L16.41 44.8ZM14.68 43.29C14.92 43.7 15.29 44.02 15.74 44.18C16.19 44.34 16.68 44.34 17.13 44.16L17.68 43.95C17.45 43.53 17.08 43.22 16.63 43.05C16.18 42.89 15.68 42.9 15.24 43.07L14.68 43.29Z" fill="#000000" fill-opacity="1.000000" fill-rule="nonzero"/>
		<path id="Vector" d="M24.72 47.44L25.47 43.81C26.49 43.73 27.51 43.77 28.52 43.93C30.47 44.29 31.14 45.33 31.14 45.33L24.72 47.44L24.72 47.44Z" fill="#FFBA40" fill-opacity="1.000000" fill-rule="nonzero"/>
		<g opacity="0.400000">
			<path id="Vector" d="M31.14 45.33L30.56 45.52C29.89 45.06 29.13 44.75 28.34 44.62C27.34 44.46 26.34 44.41 25.34 44.46L25.47 43.81C26.49 43.73 27.51 43.77 28.52 43.93C30.47 44.29 31.14 45.33 31.14 45.33L31.14 45.33Z" fill="#FFFFFF" fill-opacity="1.000000" fill-rule="nonzero"/>
		</g>
		<path id="Vector" d="M24.72 47.69C24.66 47.69 24.6 47.66 24.55 47.62C24.52 47.59 24.49 47.56 24.48 47.52C24.47 47.47 24.46 47.43 24.47 47.39L25.22 43.76C25.23 43.7 25.26 43.66 25.3 43.62C25.34 43.58 25.39 43.56 25.45 43.56C26.49 43.48 27.54 43.52 28.57 43.68C30.6 44.06 31.32 45.15 31.35 45.19C31.37 45.23 31.38 45.26 31.39 45.3C31.39 45.34 31.39 45.38 31.37 45.41C31.36 45.45 31.34 45.48 31.31 45.51C31.29 45.54 31.25 45.56 31.21 45.57L24.8 47.67C24.78 47.68 24.75 47.68 24.72 47.68L24.72 47.69ZM25.68 44.04L25.06 47.06L30.69 45.21C30.07 44.66 29.3 44.3 28.47 44.18C27.55 44.03 26.61 43.99 25.68 44.04L25.68 44.04Z" fill="#000000" fill-opacity="1.000000" fill-rule="nonzero"/>
		<path id="Vector" d="M31.14 51.61L24.72 53.71L24.72 47.43L31.14 45.33L31.14 51.61Z" fill="#EBA718" fill-opacity="1.000000" fill-rule="nonzero"/>
		<path id="Vector" d="M24.72 53.96C24.65 53.96 24.59 53.94 24.54 53.89C24.5 53.85 24.47 53.78 24.47 53.72L24.47 47.44C24.47 47.38 24.49 47.33 24.52 47.29C24.55 47.25 24.59 47.21 24.64 47.2L31.06 45.09C31.1 45.08 31.14 45.08 31.18 45.08C31.22 45.09 31.25 45.1 31.29 45.13C31.32 45.15 31.35 45.18 31.36 45.22C31.38 45.25 31.39 45.29 31.39 45.33L31.39 51.61C31.39 51.66 31.37 51.71 31.34 51.76C31.31 51.8 31.27 51.83 31.22 51.85L24.8 53.95C24.78 53.96 24.75 53.97 24.72 53.97L24.72 53.96ZM24.97 47.62L24.97 53.37L30.88 51.43L30.88 45.68L24.97 47.62Z" fill="#000000" fill-opacity="1.000000" fill-rule="nonzero"/>
		<path id="Vector" d="M30.06 48.09C30.06 48.55 29.72 48.93 29.3 48.93C28.87 48.93 28.53 48.55 28.53 48.09C28.53 47.63 28.87 47.25 29.3 47.25C29.72 47.25 30.06 47.63 30.06 48.09Z" fill="#9C5817" fill-opacity="1.000000" fill-rule="evenodd"/>
		<path id="Vector" d="M27.41 51.19C27.41 51.54 27.15 51.82 26.83 51.82C26.52 51.82 26.26 51.54 26.26 51.19C26.26 50.84 26.52 50.56 26.83 50.56C27.15 50.56 27.41 50.84 27.41 51.19Z" fill="#9C5817" fill-opacity="1.000000" fill-rule="evenodd"/>
		<path id="Vector" d="M29.03 45.14C29.03 45.33 28.77 45.49 28.45 45.49C28.13 45.49 27.88 45.33 27.88 45.14C27.88 44.95 28.13 44.79 28.45 44.79C28.77 44.79 29.03 44.95 29.03 45.14Z" fill="#9C5817" fill-opacity="1.000000" fill-rule="evenodd"/>
		<path id="Vector" d="M26.89 45.61C26.89 45.77 26.67 45.9 26.4 45.9C26.12 45.9 25.9 45.77 25.9 45.61C25.9 45.44 26.12 45.31 26.4 45.31C26.67 45.31 26.89 45.44 26.89 45.61Z" fill="#9C5817" fill-opacity="1.000000" fill-rule="evenodd"/>
		<path id="Vector" d="M14.26 46.76L31.76 46.76L31.76 57.72L14.26 57.72L14.26 46.76Z" fill="#B18964" fill-opacity="1.000000" fill-rule="evenodd"/>
		<g opacity="0.400000">
			<path id="Vector" d="M14.26 46.76L31.76 46.76L31.76 47.45L14.26 47.45L14.26 46.76Z" fill="#FFFFFF" fill-opacity="1.000000" fill-rule="evenodd"/>
		</g>
		<g opacity="0.350000">
			<path id="Vector" d="M14.26 46.14L31.76 46.14L31.76 46.83L14.26 46.83L14.26 46.14Z" fill="#0D1338" fill-opacity="1.000000" fill-rule="evenodd"/>
		</g>
		<g opacity="0.350000">
			<path id="Vector" d="M14.26 56.68L31.76 56.68L31.76 57.72L14.26 57.72L14.26 56.68Z" fill="#0D1338" fill-opacity="1.000000" fill-rule="evenodd"/>
		</g>
		<path id="Vector" d="M31.76 57.97L14.26 57.97C14.19 57.97 14.13 57.94 14.08 57.9C14.03 57.85 14.01 57.79 14.01 57.72L14.01 46.76C14.01 46.7 14.03 46.63 14.08 46.59C14.13 46.54 14.19 46.51 14.26 46.51L31.76 46.51C31.83 46.51 31.89 46.54 31.94 46.59C31.99 46.63 32.01 46.7 32.01 46.76L32.01 57.72C32.01 57.79 31.99 57.85 31.94 57.9C31.89 57.94 31.83 57.97 31.76 57.97ZM14.51 57.47L31.51 57.47L31.51 47.01L14.51 47.01L14.51 57.47Z" fill="#000000" fill-opacity="1.000000" fill-rule="nonzero"/>
		<path id="Vector" d="M39.53 47.62L39.53 47.63C39.08 49.57 37.9 51.26 36.24 52.38C36.19 52.41 36.15 52.44 36.11 52.46L36.08 52.48C36.04 52.5 36 52.53 35.96 52.55L35.92 52.58C35.89 52.6 35.86 52.62 35.82 52.64C35.81 52.65 35.79 52.65 35.78 52.66C35.74 52.68 35.71 52.7 35.68 52.72C35.66 52.73 35.65 52.74 35.63 52.74C35.59 52.77 35.56 52.79 35.52 52.81C35.51 52.81 35.51 52.81 35.5 52.82C35.46 52.84 35.43 52.86 35.39 52.87C35.37 52.88 35.35 52.89 35.33 52.9C35.29 52.92 35.25 52.95 35.2 52.97C35.15 52.99 35.1 53.02 35.05 53.04C34.99 53.06 34.94 53.09 34.89 53.11C34.89 53.11 34.88 53.11 34.88 53.11C34.83 53.14 34.78 53.16 34.73 53.18C34.73 53.18 34.72 53.18 34.72 53.18C34.67 53.2 34.62 53.22 34.57 53.24C34.57 53.24 34.56 53.24 34.56 53.24L34.4 53.31C34.34 53.33 34.29 53.35 34.23 53.37C34.17 53.39 34.12 53.41 34.06 53.42C33.95 53.46 33.83 53.5 33.71 53.53C32.51 53.87 31.26 54.03 30 54.02L29.59 54.02C28.71 54.06 27.82 53.93 26.98 53.65C26.67 53.53 26.4 53.35 26.16 53.12C26.03 52.99 25.91 52.83 25.82 52.67C25.6 52.23 25.49 51.73 25.51 51.24C25.56 49.72 26.59 48.85 28.34 48.84C28.83 48.8 29.29 48.75 29.71 48.68C29.72 48.68 29.73 48.68 29.74 48.68C32.36 48.25 33.72 47.26 33.77 45.7C33.77 45.44 33.72 45.18 33.6 44.94C33.58 44.9 33.56 44.86 33.53 44.81C33.5 44.74 33.46 44.68 33.41 44.62L33.35 44.58L33.35 44.5C33.35 44.49 33.33 44.47 33.34 44.46C33.87 43.67 34.19 41.69 34.38 40.44C34.73 40.29 35.07 40.12 35.41 39.95C35.41 39.94 35.73 39.8 35.79 39.76C36.82 40.23 37.69 40.97 38.31 41.91C39.43 43.57 39.92 45.87 39.53 47.62Z" fill="#FFFFFF" fill-opacity="1.000000" fill-rule="nonzero"/>
		<path id="Vector" d="M25.76 52.67C25.85 52.84 25.97 52.99 26.1 53.12C26.34 53.35 26.62 53.53 26.92 53.65C27.76 53.94 28.65 54.06 29.54 54.02L29.91 54.02C30.99 51.52 30.35 49.71 29.68 48.68C29.67 48.68 29.66 48.68 29.66 48.68C29.23 48.75 28.77 48.8 28.28 48.84C26.53 48.85 25.51 49.72 25.46 51.24C25.43 51.73 25.54 52.23 25.76 52.67L25.76 52.67Z" fill="#000000" fill-opacity="1.000000" fill-rule="nonzero"/>
		<g opacity="0.400000">
			<path id="Vector" d="M30.2 49.44C29.72 49.5 29.2 49.54 28.65 49.57C27.01 49.58 25.91 50.06 25.52 50.92L25.52 50.86C25.56 49.57 26.59 48.82 28.34 48.82C28.83 48.78 29.29 48.74 29.72 48.68C29.73 48.68 29.73 48.68 29.74 48.68C29.92 48.92 30.08 49.17 30.2 49.44Z" fill="#FFFFFF" fill-opacity="1.000000" fill-rule="nonzero"/>
		</g>
		<path id="Vector" d="M29.71 54.25L29.53 54.25C28.62 54.28 27.7 54.15 26.84 53.86C26.5 53.73 26.2 53.53 25.94 53.28C25.79 53.13 25.67 52.96 25.56 52.77C25.32 52.3 25.21 51.77 25.23 51.23L25.23 51.23C25.23 50.87 25.3 50.51 25.45 50.18C25.59 49.84 25.81 49.55 26.08 49.3C26.71 48.82 27.48 48.58 28.27 48.62C28.75 48.58 29.2 48.53 29.62 48.46L29.79 48.43L29.87 48.56C30.59 49.68 31.22 51.55 30.12 54.11L30.06 54.24L29.9 54.24C29.83 54.24 29.77 54.24 29.71 54.24L29.71 54.25ZM25.96 52.56C26.04 52.71 26.14 52.85 26.26 52.97C26.48 53.18 26.73 53.34 27.01 53.45C27.82 53.72 28.68 53.84 29.54 53.8L29.76 53.8C30.67 51.58 30.19 49.94 29.57 48.92C29.18 48.98 28.75 49.03 28.3 49.06L28.28 49.06C26.65 49.07 25.73 49.85 25.68 51.24C25.66 51.7 25.75 52.15 25.96 52.56L25.96 52.56Z" fill="#000000" fill-opacity="1.000000" fill-rule="nonzero"/>
		<g opacity="0.490000">
			<path id="Vector" d="M39.53 47.62L39.53 47.63C39.08 49.57 37.9 51.26 36.24 52.38C36.19 52.41 36.15 52.43 36.11 52.46L36.08 52.48C36.04 52.5 36 52.53 35.96 52.55L35.92 52.58C35.89 52.6 35.86 52.62 35.82 52.63C35.81 52.64 35.79 52.65 35.78 52.66C35.74 52.68 35.71 52.7 35.68 52.72C35.66 52.73 35.65 52.74 35.63 52.74C35.59 52.77 35.56 52.79 35.52 52.81C35.51 52.81 35.51 52.81 35.5 52.82C35.46 52.84 35.43 52.85 35.39 52.87C35.37 52.88 35.35 52.89 35.34 52.9C35.29 52.92 35.25 52.95 35.2 52.97C35.15 52.99 35.1 53.02 35.05 53.04C34.99 53.06 34.94 53.09 34.89 53.11C34.89 53.11 34.89 53.11 34.88 53.11C34.83 53.14 34.78 53.16 34.73 53.18C34.73 53.18 34.72 53.18 34.72 53.18C34.67 53.2 34.62 53.22 34.57 53.24C34.57 53.24 34.56 53.24 34.56 53.24L34.4 53.31C34.34 53.33 34.29 53.35 34.23 53.37C34.17 53.39 34.12 53.41 34.06 53.42C33.95 53.46 33.83 53.5 33.72 53.53C32.51 53.87 31.26 54.03 30 54.02L29.6 54.02C28.71 54.06 27.82 53.93 26.98 53.65C26.68 53.53 26.4 53.35 26.16 53.12C26.03 52.99 25.91 52.83 25.82 52.67C25.67 52.38 25.57 52.06 25.54 51.74C25.55 51.76 25.56 51.78 25.57 51.8C25.66 51.96 25.78 52.12 25.91 52.25C26.15 52.48 26.42 52.66 26.73 52.78C27.57 53.06 28.46 53.19 29.34 53.15L29.75 53.15C31.01 53.16 32.26 53 33.46 52.66C33.58 52.63 33.69 52.59 33.81 52.55L33.98 52.5C34.04 52.47 34.09 52.45 34.15 52.43C34.2 52.41 34.26 52.39 34.31 52.37C34.31 52.37 34.32 52.37 34.32 52.37L34.47 52.31C34.47 52.31 34.47 52.31 34.48 52.31C34.53 52.28 34.58 52.26 34.63 52.24C34.63 52.24 34.64 52.24 34.64 52.24C34.69 52.21 34.74 52.19 34.8 52.17C34.85 52.15 34.9 52.12 34.95 52.1C35 52.07 35.04 52.05 35.08 52.03L35.14 52C35.18 51.98 35.21 51.96 35.25 51.95L35.27 51.94C35.31 51.92 35.34 51.89 35.38 51.87C35.4 51.86 35.41 51.86 35.43 51.85C35.46 51.83 35.49 51.81 35.52 51.79C35.54 51.78 35.56 51.77 35.57 51.76C35.61 51.74 35.64 51.72 35.67 51.7L35.71 51.68L35.83 51.61C35.84 51.6 35.85 51.6 35.86 51.59C35.9 51.56 35.94 51.54 35.99 51.51C37.65 50.39 38.82 48.69 39.28 46.76L39.28 46.75C39.47 45.74 39.45 44.7 39.2 43.71C39.66 44.96 39.77 46.31 39.53 47.62L39.53 47.62Z" fill="#C5EFFF" fill-opacity="1.000000" fill-rule="nonzero"/>
		</g>
		<path id="Vector" d="M39.86 47.71C38.74 52.24 34.59 54.43 29.95 54.35C28.55 54.29 26.64 54.46 25.74 53.13C25.36 52.61 25.17 51.97 25.18 51.33C25.19 50.69 25.41 50.07 25.8 49.55C26.39 48.8 27.25 48.65 28.35 48.55C30.38 48.37 32.79 48.21 33.39 46.02C33.51 45.56 33.47 45.08 33.29 44.64C33.28 44.62 33.27 44.6 33.28 44.58C33.28 44.55 33.28 44.53 33.29 44.51C33.31 44.49 33.32 44.48 33.34 44.46C33.35 44.46 33.35 44.46 33.36 44.45C33.39 44.45 33.42 44.45 33.44 44.45C33.47 44.46 33.49 44.47 33.51 44.49C33.79 44.84 33.94 45.27 33.94 45.71C33.84 48.28 30.48 48.85 28.35 49.01C26.69 49.04 25.73 49.74 25.68 51.24C25.64 53.79 27.96 53.87 30 53.86C34.95 53.86 38.31 51.64 39.37 47.59C39.97 44.85 38.42 40.23 34.5 39.52C34.44 39.51 34.39 39.48 34.34 39.47C34.32 39.47 34.25 39.4 34.2 39.42C34.29 39.38 34.44 39.38 34.54 39.34C34.71 39.26 34.9 39.2 35.08 39.12C35.09 39.12 35.11 39.12 35.12 39.13C38.52 40.03 40.61 44.43 39.85 47.71L39.86 47.71Z" fill="#000000" fill-opacity="1.000000" fill-rule="nonzero"/>
		<path id="Vector" d="M6.75 47.56L6.75 47.57C7.21 49.51 8.39 51.2 10.05 52.32C10.09 52.35 10.14 52.37 10.18 52.4L10.2 52.42C10.24 52.44 10.28 52.47 10.32 52.49L10.36 52.52C10.39 52.54 10.43 52.56 10.46 52.57C10.48 52.58 10.49 52.59 10.51 52.6C10.54 52.62 10.58 52.64 10.61 52.66C10.62 52.67 10.64 52.68 10.65 52.68C10.69 52.71 10.73 52.73 10.77 52.75C10.77 52.75 10.78 52.75 10.79 52.76C10.82 52.78 10.86 52.79 10.9 52.81C10.91 52.82 10.93 52.83 10.95 52.84C10.99 52.86 11.04 52.89 11.08 52.91C11.13 52.93 11.19 52.96 11.24 52.98C11.29 53 11.34 53.03 11.39 53.05C11.4 53.05 11.4 53.05 11.41 53.05C11.46 53.08 11.51 53.1 11.56 53.12C11.56 53.12 11.56 53.12 11.57 53.12C11.62 53.14 11.67 53.16 11.72 53.18C11.72 53.18 11.72 53.18 11.72 53.18L11.89 53.25C11.95 53.27 12 53.29 12.06 53.31C12.11 53.33 12.17 53.35 12.23 53.36C12.34 53.4 12.45 53.44 12.57 53.47C13.78 53.81 15.03 53.97 16.29 53.96L16.69 53.96C17.58 54 18.46 53.87 19.3 53.59C19.61 53.47 19.89 53.29 20.12 53.06C20.26 52.93 20.37 52.77 20.46 52.61C20.69 52.16 20.8 51.67 20.77 51.18C20.72 49.66 19.69 48.79 17.94 48.78C17.45 48.74 17 48.69 16.57 48.62C16.56 48.62 16.55 48.62 16.54 48.62C13.92 48.19 12.57 47.2 12.51 45.64C12.51 45.38 12.57 45.12 12.68 44.88C12.71 44.84 12.73 44.8 12.75 44.75C12.78 44.68 12.82 44.62 12.87 44.56L12.93 44.51L12.94 44.44C12.94 44.43 12.95 44.41 12.94 44.4C12.41 43.6 12.09 41.63 11.91 40.38C11.56 40.23 11.21 40.06 10.87 39.89C10.87 39.88 10.56 39.74 10.5 39.7C9.47 40.17 8.59 40.91 7.97 41.85C6.86 43.51 6.37 45.81 6.75 47.56L6.75 47.56Z" fill="#FFFFFF" fill-opacity="1.000000" fill-rule="nonzero"/>
		<path id="Vector" d="M20.52 52.61C20.43 52.77 20.32 52.93 20.18 53.06C19.95 53.29 19.67 53.47 19.36 53.59C18.52 53.87 17.64 54 16.75 53.96L16.37 53.96C15.3 51.46 15.94 49.65 16.6 48.62C16.61 48.62 16.62 48.62 16.63 48.62C17.05 48.69 17.51 48.74 18 48.78C19.75 48.79 20.78 49.66 20.83 51.18C20.86 51.67 20.75 52.16 20.52 52.61L20.52 52.61Z" fill="#000000" fill-opacity="1.000000" fill-rule="nonzero"/>
		<g opacity="0.400000">
			<path id="Vector" d="M16.08 49.38C16.57 49.44 17.08 49.48 17.63 49.51C19.27 49.52 20.37 50 20.77 50.86L20.77 50.8C20.72 49.51 19.69 48.76 17.94 48.75C17.45 48.72 16.99 48.68 16.57 48.62C16.56 48.62 16.55 48.62 16.54 48.62C16.36 48.86 16.21 49.11 16.08 49.38L16.08 49.38Z" fill="#FFFFFF" fill-opacity="1.000000" fill-rule="nonzero"/>
		</g>
		<path id="Vector" d="M16.58 54.18L16.75 54.18C17.67 54.22 18.58 54.09 19.45 53.8C19.78 53.67 20.09 53.47 20.34 53.22C20.49 53.07 20.62 52.9 20.72 52.71C20.96 52.24 21.08 51.71 21.05 51.17L21.05 51.17C21.06 50.81 20.98 50.45 20.84 50.12C20.69 49.78 20.47 49.49 20.2 49.24C19.58 48.76 18.8 48.52 18.01 48.56C17.53 48.52 17.08 48.47 16.67 48.4L16.49 48.37L16.41 48.5C15.69 49.62 15.06 51.49 16.17 54.05L16.23 54.18L16.39 54.18C16.45 54.18 16.51 54.18 16.58 54.18L16.58 54.18ZM20.32 52.5C20.24 52.65 20.14 52.79 20.02 52.91C19.81 53.12 19.56 53.28 19.28 53.39C18.46 53.66 17.61 53.78 16.75 53.74L16.52 53.74C15.62 51.52 16.1 49.88 16.72 48.86C17.11 48.92 17.54 48.97 17.99 49L18 49C19.64 49.01 20.56 49.79 20.61 51.18C20.63 51.64 20.53 52.09 20.33 52.5L20.32 52.5Z" fill="#000000" fill-opacity="1.000000" fill-rule="nonzero"/>
		<g opacity="0.490000">
			<path id="Vector" d="M6.75 47.56L6.75 47.57C7.21 49.51 8.39 51.2 10.05 52.32C10.09 52.35 10.13 52.37 10.18 52.4L10.2 52.42C10.24 52.44 10.28 52.47 10.32 52.49L10.36 52.51C10.39 52.54 10.43 52.56 10.46 52.57C10.48 52.58 10.49 52.59 10.51 52.6C10.54 52.62 10.57 52.64 10.61 52.66C10.62 52.67 10.64 52.68 10.65 52.68C10.69 52.71 10.73 52.72 10.77 52.75C10.77 52.75 10.78 52.75 10.78 52.76C10.82 52.78 10.86 52.79 10.89 52.81C10.91 52.82 10.93 52.83 10.95 52.84C10.99 52.86 11.04 52.88 11.08 52.91C11.13 52.93 11.19 52.96 11.24 52.98C11.29 53 11.34 53.03 11.39 53.05C11.4 53.05 11.4 53.05 11.4 53.05C11.45 53.07 11.5 53.1 11.56 53.12C11.56 53.12 11.56 53.12 11.57 53.12C11.62 53.14 11.67 53.16 11.72 53.18C11.72 53.18 11.72 53.18 11.72 53.18L11.89 53.25C11.94 53.27 12 53.29 12.06 53.31C12.11 53.33 12.17 53.35 12.22 53.36C12.34 53.4 12.45 53.44 12.57 53.47C13.78 53.81 15.03 53.97 16.28 53.96L16.69 53.96C17.58 54 18.46 53.87 19.3 53.59C19.61 53.47 19.89 53.29 20.12 53.06C20.26 52.93 20.37 52.77 20.46 52.61C20.62 52.32 20.71 52 20.75 51.68C20.74 51.7 20.73 51.72 20.71 51.74C20.62 51.9 20.51 52.06 20.37 52.19C20.14 52.42 19.86 52.6 19.55 52.72C18.71 53 17.83 53.13 16.94 53.09L16.54 53.09C15.28 53.1 14.03 52.94 12.82 52.6C12.71 52.57 12.59 52.53 12.48 52.49L12.31 52.44C12.25 52.41 12.2 52.39 12.14 52.37C12.08 52.35 12.03 52.33 11.97 52.31C11.97 52.31 11.97 52.31 11.97 52.31L11.82 52.25C11.81 52.25 11.81 52.25 11.81 52.25C11.76 52.22 11.71 52.2 11.66 52.18C11.65 52.18 11.65 52.18 11.64 52.18C11.59 52.15 11.54 52.13 11.49 52.11C11.44 52.09 11.39 52.06 11.33 52.04C11.29 52.01 11.24 51.99 11.2 51.97L11.15 51.94C11.11 51.92 11.07 51.9 11.04 51.89L11.02 51.88C10.98 51.86 10.94 51.84 10.9 51.81C10.89 51.8 10.87 51.8 10.86 51.79C10.83 51.77 10.79 51.75 10.76 51.73C10.74 51.72 10.73 51.71 10.71 51.7C10.68 51.68 10.65 51.66 10.61 51.64L10.57 51.62L10.45 51.55C10.45 51.54 10.44 51.54 10.43 51.53C10.39 51.5 10.34 51.48 10.3 51.45C8.64 50.33 7.46 48.63 7.01 46.7L7.01 46.69C6.81 45.68 6.84 44.64 7.09 43.65C6.62 44.9 6.51 46.25 6.75 47.56L6.75 47.56Z" fill="#C5EFFF" fill-opacity="1.000000" fill-rule="nonzero"/>
		</g>
		<path id="Vector" d="M6.43 47.65C7.54 52.18 11.69 54.36 16.34 54.29C17.73 54.22 19.65 54.4 20.55 53.07C20.92 52.54 21.12 51.91 21.1 51.27C21.09 50.63 20.87 50 20.48 49.49C19.89 48.74 19.03 48.59 17.94 48.49C15.9 48.3 13.5 48.14 12.89 45.96C12.78 45.5 12.81 45.02 12.99 44.58C13 44.56 13.01 44.54 13.01 44.51C13.01 44.49 13 44.47 12.99 44.45C12.98 44.43 12.96 44.41 12.94 44.4C12.94 44.4 12.93 44.4 12.92 44.39C12.9 44.39 12.87 44.39 12.84 44.39C12.82 44.4 12.79 44.41 12.77 44.43C12.49 44.77 12.34 45.2 12.35 45.65C12.44 48.22 15.81 48.78 17.94 48.95C19.6 48.98 20.55 49.68 20.6 51.18C20.64 53.73 18.32 53.8 16.28 53.79C11.34 53.79 7.98 51.58 6.92 47.53C6.31 44.79 7.87 40.15 11.79 39.45C11.85 39.44 11.9 39.43 11.95 39.42C11.97 39.42 12.02 39.41 12.04 39.41C11.95 39.37 11.84 39.32 11.75 39.28C11.57 39.2 11.38 39.14 11.21 39.06C11.19 39.06 11.18 39.06 11.16 39.07C7.76 39.97 5.67 44.37 6.43 47.65L6.43 47.65Z" fill="#000000" fill-opacity="1.000000" fill-rule="nonzero"/>
	</g>
</svg>
