<svg width="111" height="221" viewBox="0 0 111 221" fill="none" xmlns="http://www.w3.org/2000/svg">
<path opacity="0.35" d="M83.7727 94.8287C76.0254 98.6489 68.9387 101.613 54.3496 101.613C39.7604 101.613 32.4697 98.6761 24.5298 94.6521C25.2743 94.1105 26.1836 93.8504 27.0987 93.9172C28.072 93.6667 29.3318 93.4124 30.6555 93.1394C45.759 98.5299 63.7556 98.4933 78.7891 92.8283C80.8266 93.1705 82.7009 93.6971 83.7727 94.8287Z" fill="#C5EFFF"/>
<path d="M34.6434 35.4099C34.345 36.0783 34.0063 36.7276 33.6293 37.3542C28.5216 40.2894 14.7379 45.6511 8.76245 42.544C-0.446436 37.7555 -1.18644 20.3437 4.40558 12.8494C9.99759 5.35521 22.1765 3.6722 29.4788 7.46364C38.9949 12.4077 38.7963 26.0647 34.6457 35.4037L34.6434 35.4099Z" fill="black"/>
<path d="M75.6437 37.642C75.9397 38.3461 76.28 39.0303 76.6625 39.6905C81.9226 42.8435 96.173 48.6873 102.454 45.5686C112.134 40.763 113.235 22.6473 107.551 14.7354C101.867 6.82357 89.2241 4.84035 81.5476 8.6458C71.5463 13.6116 71.4978 27.834 75.6437 37.6397V37.642Z" fill="black"/>
<path d="M52.3486 5.11879C51.9397 5.18179 51.5192 5.25956 51.3367 5.29611C51.2767 5.26423 51.2143 5.23545 51.1542 5.20667C51.5508 5.17245 51.9497 5.14368 52.3486 5.11879Z" fill="white"/>
<path opacity="0.4" d="M5.12761 64.074C5.13455 64.1222 5.13994 64.1736 5.14687 64.2218C5.06598 64.2834 4.98164 64.3403 4.89429 64.3921C4.85117 64.4185 4.80035 64.4481 4.74799 64.4769C4.75979 63.5208 4.79983 62.5492 4.86811 61.562C4.89198 61.9065 4.92125 62.2464 4.95436 62.5862C5.0021 63.0863 5.05985 63.584 5.12761 64.0717V64.074Z" fill="white"/>
<path opacity="0.4" d="M103.551 64.3665C103.462 64.3105 103.393 64.2622 103.342 64.2233C103.349 64.1751 103.357 64.1261 103.361 64.0756C103.428 63.5856 103.484 63.0901 103.534 62.5901C103.568 62.2502 103.597 61.9104 103.621 61.5658C103.688 62.5535 103.728 63.5252 103.741 64.4808C103.668 64.4395 103.606 64.403 103.548 64.3665H103.551Z" fill="white"/>
<path d="M107.534 65.3339C107.534 65.3339 107.512 65.3604 107.491 65.3853C106.38 66.6148 104.94 67.4932 103.346 67.9144C104.094 68.5721 105.011 69.0033 105.991 69.1588C104.25 72.6296 102.185 75.9249 99.8249 79.0002C98.9711 80.1023 98.059 81.1572 97.0928 82.1602C96.8238 82.4391 96.55 82.7111 96.2712 82.976C95.6393 83.5806 95.0001 84.1623 94.3538 84.7212C92.2031 86.5869 89.9117 88.2805 87.5005 89.7866C87.3873 89.8597 87.2695 89.9297 87.1593 89.9974C83.2236 92.4063 79.0215 94.3403 74.6393 95.7596C68.0461 97.89 61.1695 98.9915 54.2471 99.0261C47.324 98.9917 40.4466 97.8902 33.8527 95.7596C29.4709 94.3391 25.2689 92.4052 21.3326 89.9974C21.2487 89.9437 21.1594 89.8908 21.0754 89.8372C18.6339 88.3191 16.315 86.6084 14.1405 84.7212C13.4941 84.1608 12.855 83.5782 12.2231 82.9737C11.932 82.6945 11.6417 82.4083 11.3606 82.1182C10.8609 81.601 10.3727 81.0628 9.90448 80.5137C9.5441 80.0937 9.19296 79.6668 8.85415 79.2367C6.44063 76.1236 4.33067 72.7822 2.55369 69.2591C2.52212 69.1938 2.50595 69.1596 2.50595 69.1596C2.50595 69.1596 2.56601 69.1526 2.67382 69.1332C3.55656 68.9592 4.38205 68.5645 5.0748 67.9852C5.10098 67.9634 5.12793 67.9417 5.1518 67.9176C3.55757 67.4957 2.11808 66.6174 1.00668 65.3884C0.985123 65.364 0.970749 65.3469 0.963562 65.337H1.02593C2.28733 65.3715 3.53795 65.0941 4.66899 64.529C7.52891 64.1891 10.3041 63.9371 11.1766 61.8932C20.109 40.945 44.4322 41.4622 50.4616 57.8786C52.3416 62.9445 52.4357 68.51 50.7281 73.6378C51.8169 73.5859 52.9062 73.5561 53.9961 73.5483H54.5082C55.6663 73.5556 56.8247 73.5888 57.9834 73.6479C56.2715 68.5177 56.3648 62.9481 58.2475 57.8794C64.2769 41.463 88.6009 40.9458 97.5325 61.894C98.3796 63.8749 101.01 64.1728 103.77 64.4986C104.916 65.0858 106.189 65.3745 107.473 65.3386H107.535L107.534 65.3339Z" fill="white"/>
<path opacity="0.35" d="M105.987 69.1565C105.987 69.1565 101.948 77.5513 96.2672 82.9737C93.4822 85.6308 90.4278 87.9842 87.1546 89.995C83.2188 92.4039 79.0167 94.3379 74.6345 95.7573C61.3805 100.116 47.0989 100.116 33.8448 95.7573C29.4631 94.3368 25.2611 92.4028 21.3248 89.995C18.0516 87.9842 14.9972 85.6308 12.2121 82.9737C6.53388 77.5521 2.49426 69.1565 2.49426 69.1565C3.09362 69.0652 3.67217 68.8672 4.20298 68.5716C6.38629 72.4678 9.08005 76.0486 12.2114 79.2172C14.9964 81.8743 18.0508 84.2278 21.324 86.2386C25.2598 88.6475 29.4619 90.5814 33.8441 92.0008C47.0981 96.3598 61.3797 96.3598 74.6338 92.0008C79.0155 90.5804 83.2175 88.6464 87.1538 86.2386C90.427 84.2278 93.4814 81.8743 96.2665 79.2172C99.398 76.049 102.092 72.4684 104.275 68.5724C104.805 68.8693 105.384 69.0674 105.984 69.1573L105.987 69.1565Z" fill="#B3B3B3"/>
<path d="M108.003 64.9567C107.943 64.8847 107.868 64.827 107.783 64.788C107.698 64.749 107.606 64.7296 107.513 64.7312C106.371 64.7643 105.238 64.5292 104.202 64.0444C104.139 64.0121 104.088 63.9613 104.055 63.8989C104.022 63.8366 104.009 63.7655 104.017 63.6952C104.06 63.3554 104.098 63.0062 104.132 62.6515C104.205 61.9236 104.257 61.1785 104.293 60.4311C104.399 58.0418 104.342 55.6479 104.12 53.2666C103.755 49.4867 103.074 45.7447 102.085 42.0805C101.64 40.4096 101.11 38.7628 100.498 37.1466C100.462 37.0517 100.429 36.9599 100.393 36.8674C100.328 36.7002 100.261 36.5298 100.194 36.3603C100.16 36.2755 100.123 36.1876 100.09 36.1005C100.076 36.064 100.059 36.0274 100.045 35.9916C99.9294 35.7054 99.8139 35.4216 99.6892 35.1361C99.0957 33.7528 98.443 32.4001 97.731 31.0779C97.6278 30.8858 97.5246 30.6945 97.4183 30.5055C95.6786 27.3806 93.6157 24.4508 91.2642 21.7654C86.4643 16.2866 80.5664 11.9005 73.9614 8.89779C71.3522 7.71875 68.6487 6.76546 65.8799 6.04818C65.3224 5.90274 64.7387 5.76197 64.1496 5.63054C63.6106 5.50921 63.0608 5.39722 62.5156 5.29533C62.0782 5.21289 61.64 5.13512 61.2011 5.06201C60.5261 4.95261 59.8469 4.85877 59.1636 4.78047C55.4778 2.94417 51.5308 1.69987 47.4652 1.09247C47.7224 1.22079 51.4902 2.46594 52.0985 4.52927C51.7959 4.54871 51.4956 4.57049 51.1929 4.59693C46.2662 1.59722 34.5355 2.47372 34.5355 2.47372C34.5355 2.47372 41.204 2.59271 45.6902 5.35133C45.2359 5.4361 44.787 5.52865 44.335 5.63054C43.7459 5.76197 43.1645 5.90274 42.6047 6.04818C39.8364 6.76542 37.1333 7.71871 34.5247 8.89779C27.9199 11.8998 22.0222 16.2853 17.2227 21.7638C14.8727 24.4497 12.8106 27.3791 11.0709 30.5032C10.9654 30.6922 10.8591 30.8843 10.7559 31.0756C10.0444 32.3957 9.39243 33.7484 8.80002 35.1338C8.66295 35.4519 8.52819 35.7747 8.39652 36.0974C8.25714 36.4443 8.12238 36.7919 7.98763 37.1411V37.1458L7.9807 37.1676C7.36999 38.775 6.84383 40.4139 6.40443 42.0774C5.41611 45.7419 4.73606 49.4842 4.37153 53.2643C4.14913 55.6458 4.09047 58.0399 4.19596 60.4296C4.23215 61.1746 4.28451 61.922 4.3569 62.6476C4.39078 63.0046 4.42928 63.3538 4.4724 63.6937C4.48033 63.764 4.4669 63.835 4.43388 63.8974C4.40087 63.9598 4.34985 64.0105 4.28759 64.0429C3.2447 64.5305 2.10354 64.7657 0.954867 64.7296C0.840749 64.7298 0.729062 64.763 0.63298 64.8251C0.536898 64.8873 0.460428 64.976 0.41259 65.0806C0.364753 65.1852 0.347543 65.3015 0.36299 65.4157C0.378438 65.5299 0.425899 65.6373 0.499775 65.7251C1.29186 66.6129 2.24151 67.3431 3.29963 67.8779C3.34282 67.8988 3.37898 67.9321 3.40362 67.9736C3.42826 68.0152 3.4403 68.063 3.43825 68.1114C3.4362 68.1598 3.42015 68.2064 3.39209 68.2457C3.36403 68.2849 3.32519 68.3149 3.28038 68.3321C3.00665 68.4365 2.72271 68.5114 2.43334 68.5553C2.33803 68.5661 2.24668 68.5999 2.16701 68.6539C2.08734 68.7078 2.02167 68.7803 1.97555 68.8652C1.92943 68.9501 1.9042 69.045 1.90198 69.1419C1.89977 69.2387 1.92065 69.3347 1.96285 69.4217C2.12841 69.7686 6.11566 77.9767 11.8109 83.4162C18.3873 89.6367 26.3227 94.2041 34.9736 96.7481C41.2302 98.6299 47.7204 99.6015 54.2485 99.6335C60.7757 99.6013 67.2651 98.6298 73.521 96.7481C82.1719 94.2041 90.1073 89.6367 96.6837 83.4162C102.382 77.9799 106.365 69.7686 106.532 69.4217C106.574 69.3346 106.594 69.2386 106.592 69.1418C106.589 69.0449 106.564 68.9501 106.517 68.8654C106.471 68.7807 106.405 68.7085 106.325 68.6549C106.245 68.6013 106.154 68.568 106.058 68.5576C105.769 68.5109 105.485 68.4354 105.211 68.3321C105.166 68.3149 105.128 68.285 105.1 68.2459C105.072 68.2068 105.055 68.1603 105.053 68.1121C105.051 68.0639 105.063 68.0161 105.087 67.9745C105.111 67.9329 105.147 67.8993 105.19 67.8779C106.248 67.3427 107.198 66.6126 107.992 65.7251C108.081 65.6179 108.131 65.4828 108.133 65.3428C108.135 65.2027 108.09 65.0661 108.004 64.956L108.003 64.9567ZM105.646 66.2089C104.911 66.7331 104.084 67.1118 103.21 67.3249C103.102 67.3509 103.004 67.406 102.925 67.4842C102.847 67.5625 102.791 67.6609 102.763 67.769C102.736 67.877 102.739 67.9905 102.772 68.0969C102.805 68.2032 102.867 68.2982 102.95 68.371C103.473 68.8286 104.071 69.19 104.717 69.4388C104.765 69.4571 104.809 69.4857 104.845 69.5225C104.882 69.5593 104.91 69.6035 104.928 69.6522C104.947 69.701 104.954 69.7531 104.951 69.805C104.948 69.857 104.933 69.9077 104.909 69.9537C103.633 72.3646 100.212 78.3804 95.8621 82.5358C81.4562 96.2869 63.6044 98.3907 54.2485 98.4226C44.8886 98.3907 27.0361 96.2869 12.6325 82.535C8.27716 78.3796 4.85896 72.3654 3.57993 69.9529C3.5554 69.9071 3.54086 69.8565 3.53729 69.8046C3.53372 69.7527 3.54119 69.7006 3.55921 69.6518C3.57722 69.603 3.60537 69.5587 3.64175 69.5218C3.67813 69.485 3.7219 69.4564 3.77013 69.438C4.4181 69.1901 5.01766 68.8286 5.54122 68.3702C5.62478 68.2974 5.68657 68.2025 5.71963 68.0961C5.75269 67.9898 5.7557 67.8762 5.72833 67.7682C5.70095 67.6602 5.64489 67.5617 5.56619 67.4834C5.48748 67.4052 5.38912 67.3501 5.28171 67.3241C4.40703 67.111 3.58029 66.7323 2.84531 66.2081C2.80542 66.1801 2.77454 66.141 2.75649 66.0955C2.73844 66.0499 2.73402 66.0001 2.74378 65.952C2.75354 65.904 2.77705 65.8599 2.81138 65.8252C2.84572 65.7906 2.88938 65.7668 2.93695 65.757C3.85925 65.6034 4.73635 65.2451 5.50502 64.7079C5.59138 64.643 5.65884 64.5558 5.7003 64.4555C5.74176 64.3552 5.7557 64.2454 5.74066 64.1378C5.66827 63.6307 5.6059 63.0894 5.55046 62.5286C5.48346 61.8225 5.43033 61.0968 5.39645 60.3712C5.29303 58.0384 5.35015 55.7011 5.5674 53.3763C5.9259 49.6645 6.59384 45.9899 7.56411 42.3916C8.00816 40.7313 8.53842 39.0959 9.15269 37.4919L9.15963 37.4771C9.16425 37.4623 9.16887 37.4507 9.17426 37.4359C9.17965 37.4211 9.17426 37.4289 9.17888 37.4235C9.18812 37.3947 9.20275 37.3628 9.21507 37.3309C13.9676 25.1807 23.221 15.3792 35.0114 10.0068C36.2203 9.46087 37.4524 8.96338 38.7075 8.51437C40.0869 8.0218 41.4856 7.59146 42.9035 7.22333C43.4487 7.08023 44.0185 6.94179 44.5929 6.8158C45.3404 6.64833 46.0925 6.49952 46.8492 6.36938L47.1572 6.31805C47.2534 6.30094 47.352 6.28383 47.4482 6.26983C47.4523 6.26862 47.4565 6.26862 47.4606 6.26983C47.6554 6.23795 47.8502 6.20917 48.0442 6.18039C50.0979 5.87445 52.1684 5.69782 54.2438 5.65153C56.3145 5.69802 58.3804 5.87387 60.4295 6.17806C60.468 6.18273 60.5065 6.18739 60.545 6.19517C60.8769 6.24339 61.2057 6.29939 61.5376 6.35538L61.6239 6.37016C61.8138 6.40179 62.0038 6.43575 62.1937 6.47204H62.1983C62.7651 6.57859 63.3303 6.69292 63.8924 6.81891C64.4669 6.9449 65.0336 7.08334 65.5796 7.22644C66.9949 7.59275 68.3987 8.02517 69.7755 8.51748C71.0299 8.9639 72.265 9.46398 73.4717 10.0099C85.2638 15.3815 94.5192 25.183 99.2734 37.334L99.3742 37.5961C99.3742 37.5961 99.3742 37.5961 99.3742 37.6008C99.9739 39.1704 100.491 40.7712 100.922 42.3963C101.895 45.9942 102.565 49.6689 102.924 53.381C103.141 55.7058 103.198 58.0431 103.095 60.3759C103.059 61.1015 103.007 61.8295 102.936 62.5333C102.883 63.0941 102.821 63.6354 102.749 64.1424C102.734 64.2501 102.748 64.3598 102.79 64.4601C102.831 64.5605 102.899 64.6476 102.985 64.7125C103.754 65.2496 104.631 65.6076 105.554 65.7609C105.6 65.7714 105.643 65.7952 105.677 65.8296C105.71 65.864 105.733 65.9074 105.743 65.9546C105.752 66.0018 105.748 66.0509 105.731 66.0958C105.714 66.1408 105.684 66.1798 105.645 66.2081L105.646 66.2089Z" fill="black"/>
<path d="M108.291 64.7296C108.198 64.614 108.08 64.5211 107.947 64.4581C107.814 64.395 107.668 64.3634 107.52 64.3657C106.446 64.394 105.378 64.1815 104.394 63.7435C104.39 63.7422 104.387 63.7396 104.384 63.736C104.382 63.7325 104.381 63.7282 104.382 63.724C104.425 63.3912 104.463 63.0396 104.497 62.685C104.567 61.9741 104.622 61.2213 104.658 60.4451C104.766 58.0387 104.708 55.6276 104.485 53.2293C104.117 49.4288 103.432 45.6665 102.437 41.9825C101.996 40.3209 101.471 38.683 100.866 37.075L100.733 36.7305C100.669 36.5633 100.601 36.3906 100.534 36.2211L100.495 36.1239C100.474 36.0702 100.452 36.0173 100.431 35.959L100.385 35.8501C100.267 35.5616 100.15 35.2746 100.025 34.9884C99.4312 33.6025 98.7682 32.2266 98.0521 30.9014C97.9489 30.707 97.8457 30.5125 97.7371 30.3235C95.985 27.1763 93.9076 24.2255 91.5399 21.5204C86.7056 16.0038 80.7657 11.5878 74.1139 8.56492C71.4865 7.37655 68.7635 6.41672 65.9746 5.69586C65.4148 5.5481 64.828 5.40733 64.232 5.27356C63.703 5.15456 63.1485 5.04024 62.5857 4.93602C62.1121 4.84658 61.6801 4.77114 61.2612 4.7027L61.235 4.69803C60.572 4.59148 59.9136 4.49893 59.2745 4.42583H59.2676C55.6596 2.61759 51.7946 1.38879 47.8117 0.783707C47.6792 0.761931 47.593 0.747154 47.5568 0.740154L44.5567 0.000531085C44.5519 -0.000601833 44.5467 9.11683e-05 44.5423 0.00248215C44.5379 0.00487314 44.5344 0.00880066 44.5327 0.0135397C44.5309 0.0182787 44.5309 0.0235092 44.5326 0.0282656C44.5343 0.033022 44.5377 0.0369831 44.5421 0.0394177L47.3081 1.42067C47.342 1.43778 47.4213 1.46889 47.5437 1.51789C49.9178 2.44183 51.0043 3.34478 51.4771 4.05563C51.3831 4.15518 51.4001 4.13807 51.3038 4.23762C46.3417 1.2939 35.7491 2.3835 35.0807 2.43172C35.0714 2.43172 34.3815 2.4535 34.3815 2.46361L44.6592 5.18567L44.258 5.27278C43.6789 5.4011 43.0921 5.54498 42.5161 5.69275C39.7283 6.41577 37.0062 7.37635 34.3791 8.56414C27.7279 11.5879 21.7886 16.0044 16.9547 21.5212C14.5893 24.2276 12.5129 27.1783 10.7598 30.3243C10.6543 30.5164 10.5457 30.7077 10.4425 30.9022C9.72406 32.2344 9.06337 33.6087 8.47198 34.9891C8.33491 35.3096 8.19785 35.6347 8.06617 35.9598C7.92448 36.309 7.78973 36.6597 7.65497 37.0081L7.56872 37.2313L7.57335 37.236C6.9903 38.7905 6.48579 40.374 6.06176 41.9802C5.06729 45.6653 4.38236 49.4286 4.01423 53.2301C3.79187 55.6284 3.73449 58.0395 3.84251 60.4459C3.88101 61.2236 3.93414 61.9796 4.00345 62.6811C4.03733 63.0326 4.07583 63.381 4.11664 63.7077C4.11769 63.7118 4.11736 63.7162 4.11569 63.7202C4.11402 63.7241 4.1111 63.7274 4.1074 63.7295C3.1312 64.1792 2.06588 64.3968 0.993368 64.3657C0.783898 64.3591 0.577721 64.4195 0.404288 64.5383C0.296281 64.6159 0.20532 64.7152 0.137113 64.83C0.0689069 64.9448 0.0249278 65.0726 0.00793588 65.2053C-0.009056 65.3381 0.00130624 65.473 0.0383723 65.6015C0.0754383 65.73 0.138408 65.8494 0.223329 65.9522C0.983942 66.813 1.88935 67.531 2.89767 68.0731C2.73446 68.1225 2.56831 68.1615 2.40023 68.1898C2.24719 68.2061 2.1003 68.2595 1.97203 68.3454C1.84376 68.4312 1.73789 68.5471 1.66338 68.6831C1.58887 68.8191 1.54793 68.9712 1.54403 69.1266C1.54013 69.282 1.57338 69.436 1.64097 69.5757C1.67947 69.6605 5.76222 78.1362 11.5652 83.6767C18.1821 89.9355 26.1664 94.5312 34.8704 97.0911C41.1611 98.9843 47.6869 99.9616 54.2508 99.9936C60.8131 99.9616 67.3374 98.9842 73.6265 97.0911C82.331 94.5306 90.3158 89.9351 96.934 83.6767C102.738 78.1354 106.817 69.6605 106.858 69.5757C106.924 69.4367 106.957 69.2838 106.953 69.1296C106.949 68.9755 106.909 68.8245 106.835 68.6892C106.762 68.5539 106.658 68.4382 106.531 68.3518C106.405 68.2653 106.26 68.2106 106.108 68.1921H106.104C105.932 68.1642 105.763 68.1244 105.597 68.0731C106.602 67.5282 107.506 66.8114 108.269 65.9546C108.411 65.7831 108.49 65.5678 108.494 65.3444C108.498 65.121 108.426 64.9029 108.291 64.7265V64.7296ZM8.84237 37.2967C8.83991 37.3004 8.83833 37.3047 8.83775 37.3091V37.3045C8.83895 37.3017 8.8405 37.2991 8.84237 37.2967Z" fill="black"/>
<path d="M30.0042 127.396C29.995 126.612 27.0558 127.964 27.0604 127.175C27.0562 123.001 27.33 118.832 27.8797 114.695C27.9205 114.389 27.9659 114.083 28.0121 113.78C28.1662 112.768 28.3327 111.788 28.5119 110.841C29.5022 105.617 21.7425 97.1813 24.53 94.6544C25.0229 94.208 26.8902 94.0478 28.1492 94.0183C28.9697 93.6806 29.8071 93.3864 30.658 93.1371C33.568 92.5328 36.7713 91.8289 37.8455 90.8459C42.0607 86.9845 47.4602 85.324 54.0233 85.2929H54.1773C60.7403 85.3248 66.1375 86.9868 70.3519 90.8459C71.825 92.1929 75.5181 92.2754 78.7916 92.8268C80.8291 93.1713 75.0522 93.3074 83.7752 94.8294C84.1864 94.9026 84.2942 95.482 84.4552 95.8825C85.8898 99.4725 79.4114 108.695 80.1823 113.777C80.8257 118.224 81.1438 122.713 81.134 127.206C81.1386 127.995 79.6848 127.638 79.6755 128.42" fill="#FCFEFF"/>
<path d="M47.5167 126.272C48.8622 126.272 49.9531 125.171 49.9531 123.812C49.9531 122.453 48.8622 121.351 47.5167 121.351C46.1711 121.351 45.0803 122.453 45.0803 123.812C45.0803 125.171 46.1711 126.272 47.5167 126.272Z" fill="#0D1338"/>
<path d="M47.5443 116.477C48.8899 116.477 49.9807 115.375 49.9807 114.016C49.9807 112.657 48.8899 111.555 47.5443 111.555C46.1987 111.555 45.1079 112.657 45.1079 114.016C45.1079 115.375 46.1987 116.477 47.5443 116.477Z" fill="#0D1338"/>
<path d="M60.6461 126.272C61.9916 126.272 63.0825 125.171 63.0825 123.812C63.0825 122.453 61.9916 121.351 60.6461 121.351C59.3005 121.351 58.2097 122.453 58.2097 123.812C58.2097 125.171 59.3005 126.272 60.6461 126.272Z" fill="#0D1338"/>
<path d="M60.6704 116.477C62.016 116.477 63.1068 115.375 63.1068 114.016C63.1068 112.657 62.016 111.555 60.6704 111.555C59.3248 111.555 58.234 112.657 58.234 114.016C58.234 115.375 59.3248 116.477 60.6704 116.477Z" fill="#0D1338"/>
<path d="M42.4698 104.929C39.6453 107.96 37.9735 111.903 37.7503 116.059C37.4422 122.292 37.4669 129.969 37.5916 136.549C37.1781 136.495 36.7793 136.437 36.3904 136.381C36.2679 129.821 36.2441 122.202 36.5536 115.996C36.7905 111.553 38.5764 107.338 41.5951 104.097C43.2052 102.362 44.0823 103.183 42.4698 104.929Z" fill="#0D1338"/>
<path d="M28.5038 114.543C28.1311 114.395 27.7491 114.242 27.3572 114.076L28.5038 114.543ZM80.8302 114.083C80.4382 114.239 80.054 114.394 79.6843 114.535L80.8302 114.083Z" fill="black"/>
<path d="M27.2561 114.826C27.3546 113.504 29.0703 105.557 29.8873 106.155C29.9667 106.186 30.0314 106.246 30.0681 106.324C30.1048 106.402 30.1106 106.491 30.0844 106.572C29.6795 107.945 29.3489 109.338 29.0941 110.747C28.82 112.152 28.6521 113.586 28.4381 114.998C28.4047 115.147 28.3169 115.278 28.1922 115.365C28.0675 115.451 27.915 115.487 27.7653 115.465C27.6156 115.443 27.4797 115.364 27.3847 115.245C27.2898 115.127 27.2427 114.976 27.253 114.823L27.2561 114.826Z" fill="#0D1338"/>
<path d="M80.9269 114.861C80.732 112.548 79.1219 105.558 78.3087 106.155C78.2293 106.186 78.1646 106.246 78.1279 106.324C78.0913 106.402 78.0854 106.491 78.1116 106.572C78.5166 107.945 78.8472 109.338 79.1019 110.747C79.376 112.153 79.5416 113.587 79.7533 115.001C79.7864 115.145 79.8709 115.272 79.9907 115.357C80.1105 115.442 80.2572 115.479 80.4025 115.462C80.5479 115.445 80.6818 115.374 80.7785 115.263C80.8753 115.152 80.9281 115.009 80.9269 114.861Z" fill="#0D1338"/>
<path d="M107.534 65.3347C107.534 65.3347 107.513 65.3612 107.491 65.386C106.38 66.6163 104.939 67.4955 103.344 67.9176C104.094 68.5732 105.012 69.0031 105.992 69.158C104.251 72.6292 102.186 75.9246 99.8256 78.9995C98.9724 80.1022 98.0604 81.157 97.0935 82.1594C96.8245 82.4383 96.5506 82.7111 96.2718 82.9776C95.6399 83.5795 95.0015 84.1605 94.3567 84.7205C92.2056 86.5856 89.9143 88.2792 87.5034 89.7858C87.3879 89.8589 87.2724 89.9289 87.1623 89.9974C83.2255 92.4065 79.0227 94.3412 74.6399 95.7619C68.0467 97.8925 61.1701 98.994 54.2478 99.0284C47.3246 98.994 40.4473 97.8925 33.8533 95.7619C29.4712 94.3412 25.2692 92.4065 21.3332 89.9974C21.247 89.9461 21.16 89.8932 21.076 89.8418C18.6351 88.3229 16.3163 86.6123 14.1411 84.7259C13.4948 84.1654 12.8549 83.5837 12.2214 82.9807C11.9303 82.6991 11.6423 82.4129 11.3612 82.1252C10.8592 81.6067 10.3738 81.0719 9.90509 80.5207C9.54574 80.1007 9.19563 79.6743 8.85476 79.2413C6.4385 76.127 4.32717 72.7831 2.55046 69.2568C2.51888 69.1915 2.50271 69.1573 2.50271 69.1573C2.55909 69.1514 2.61512 69.1426 2.67058 69.1308C3.5537 68.958 4.37946 68.5632 5.07156 67.9829C5.09774 67.9611 5.12469 67.9393 5.14857 67.9176C3.55386 67.4956 2.11421 66.6163 1.00345 65.386C0.981888 65.3617 0.967514 65.3446 0.960327 65.3347H1.0227C2.28395 65.3675 3.53419 65.0902 4.66575 64.5266C4.752 64.4808 4.829 64.4341 4.89676 64.3929C4.98409 64.3413 5.06841 64.2847 5.14934 64.2233C5.14241 64.1751 5.13702 64.1261 5.13008 64.0756C5.06309 63.5856 5.00765 63.0902 4.95683 62.5901C4.88701 61.8694 4.83567 61.1396 4.80282 60.4008C4.69628 58.0405 4.7534 55.6756 4.97377 53.3234C5.33338 49.5776 6.0078 45.8695 6.98973 42.2392C9.30818 33.6433 13.8389 25.8207 20.1213 19.5668C26.4037 13.3129 34.2137 8.85068 42.7572 6.63381C43.3217 6.48605 43.8938 6.34994 44.466 6.22084C45.3068 6.03418 46.1567 5.86904 47.0155 5.72542C45.0473 3.35645 39.0372 2.98547 38.9078 2.81282C40.1214 2.79337 46.4704 3.12391 51.1561 5.2059C51.2161 5.23234 51.2785 5.26423 51.3386 5.29534C51.521 5.25878 51.9415 5.18101 52.3504 5.11801H52.3673C52.6503 5.06565 52.9374 5.03962 53.2251 5.04024C53.1319 4.44837 52.8769 3.89454 52.4889 3.44111C52.1009 2.98767 51.5953 2.65263 51.029 2.47372C51.1537 2.5025 57.6852 4.00275 58.6108 5.328C60.43 5.52676 62.2371 5.82533 64.0242 6.22239C64.5986 6.35072 65.1677 6.48682 65.7352 6.63537C74.2792 8.85124 82.0899 13.3127 88.3731 19.5661C94.6563 25.8194 99.188 33.6417 101.507 42.2376C102.488 45.8682 103.162 49.5762 103.523 53.3219C103.744 55.6741 103.801 58.039 103.694 60.3992C103.658 61.137 103.605 61.8668 103.536 62.5885C103.487 63.0884 103.43 63.5835 103.365 64.074C103.358 64.1253 103.35 64.1736 103.343 64.2218C103.394 64.2607 103.463 64.3089 103.553 64.3649C103.615 64.4038 103.687 64.4473 103.769 64.4932C104.207 64.7319 104.673 64.916 105.155 65.0415C105.912 65.2379 106.692 65.3357 107.474 65.3324L107.534 65.3347Z" fill="#FCFEFF"/>
<path opacity="0.49" d="M106.956 65.5019C106.956 65.5019 106.934 65.526 106.915 65.5501C105.5 66.5988 103.896 67.3586 102.193 67.7869C103.2 68.5269 104.337 69.065 105.545 69.3719C103.645 72.6534 101.536 75.8063 99.2305 78.8105C98.4258 79.8441 94.5333 83.5818 93.9173 84.1138C91.6514 85.8429 89.269 87.4105 86.7875 88.8051C83.1317 91.0251 79.349 93.0248 75.4594 94.7936C73.7746 95.5823 61.8367 99.46 57.4459 98.1013C76.8624 92.1128 81.8492 70.0664 81.8492 48.4968C81.8492 44.4993 88.4045 46.2227 87.4913 42.5083C89.4164 37.7952 84.0361 23.7735 79.0209 18.5603C73.7292 13.0633 61.0944 6.54359 60.2242 5.97585C61.7836 6.16483 70.8508 9.11633 73.2895 10.2184C85.3483 15.6625 96.5223 28.5503 100.446 43.3334C101.382 46.7889 102.024 50.3186 102.366 53.8842C102.577 56.1241 102.631 58.3763 102.529 60.624C102.493 61.3239 102.445 62.0239 102.375 62.7091C102.33 63.1851 102.274 63.6579 102.212 64.1238C102.205 64.172 102.2 64.2186 102.193 64.2645C102.241 64.3011 102.306 64.347 102.392 64.4006C102.45 64.4372 102.519 64.4784 102.596 64.5243C103.014 64.7504 103.457 64.9256 103.915 65.0462C104.892 65.2943 105.89 65.4464 106.896 65.5004H106.956V65.5019Z" fill="#C5EFFF"/>
<path d="M59.8605 64.2738C59.6734 65.631 57.9546 67.8366 55.6861 67.5162C53.4176 67.1958 51.5118 65.0407 51.702 63.6836C51.8922 62.3264 53.5955 62.5356 55.9988 62.5403C58.2604 62.5403 60.0476 62.919 59.8582 64.2754L59.8605 64.2738Z" fill="black"/>
<path d="M63.7845 71.0495C63.549 71.1492 63.323 71.2702 63.1092 71.4111C63.1509 72.1088 63.1228 72.8089 63.0253 73.5009C62.3569 78.2948 58.6275 81.7309 54.6911 81.1732C50.7547 80.6156 48.3468 76.6538 48.7071 72.1204C48.397 71.7867 48.0418 71.4987 47.6522 71.2649C46.9675 70.9369 46.4339 70.3557 46.1616 69.6415C45.8892 68.9273 45.8991 68.1346 46.1891 67.4276C46.2949 67.0823 46.4599 66.7586 46.6766 66.471C46.9022 66.1529 47.2579 66.3839 47.1617 66.7479C47.1616 66.7571 47.1592 66.7662 47.1548 66.7743C46.5156 69.263 47.4812 70.3028 48.9474 71.3629C50.0655 72.0046 51.3574 72.2685 52.6345 72.1162C53.9117 71.9638 55.1071 71.4031 56.0464 70.516C56.8867 71.1474 57.8753 71.5471 58.9149 71.6756C59.9546 71.804 61.0094 71.6569 61.9757 71.2486C63.8284 70.2873 65.1983 69.4769 64.8448 66.6599V66.6335C64.7971 66.2625 65.1814 66.0774 65.3638 66.4227C65.541 66.7364 65.6637 67.0783 65.7265 67.4338C65.9234 68.1724 65.8319 68.9592 65.4711 69.6317C65.1103 70.3042 64.5077 70.8112 63.7876 71.0479L63.7845 71.0495Z" fill="black"/>
<path d="M41.8543 62.7425C41.0689 68.3974 38.1296 76.2517 26.4843 73.8314C19.4 72.3607 17.4941 65.5019 19.0804 60.0189C21.4136 51.9538 27.4092 49.5366 33.0089 50.3322C38.6086 51.1278 42.6428 57.0876 41.8543 62.7425Z" fill="black"/>
<path d="M30.5795 62.7277C31.6465 62.7277 32.5115 61.8541 32.5115 60.7764C32.5115 59.6987 31.6465 58.8251 30.5795 58.8251C29.5125 58.8251 28.6475 59.6987 28.6475 60.7764C28.6475 61.8541 29.5125 62.7277 30.5795 62.7277Z" fill="white"/>
<path d="M34.2991 68.6261C35.3078 68.6261 36.1256 67.8001 36.1256 66.7813C36.1256 65.7624 35.3078 64.9365 34.2991 64.9365C33.2903 64.9365 32.4725 65.7624 32.4725 66.7813C32.4725 67.8001 33.2903 68.6261 34.2991 68.6261Z" fill="white"/>
<path d="M36.9235 44.6338C36.6208 45.4978 35.2171 43.9976 28.6471 45.2357C24.271 46.0609 21.5219 49.4176 20.527 48.1795C20.0943 47.6405 23.5402 44.8959 27.8778 43.9369C31.9798 43.0293 37.2423 43.7207 36.9204 44.6369L36.9235 44.6338Z" fill="black"/>
<path d="M60.9461 75.992C60.9006 76.5186 60.7143 77.0229 60.4071 77.451C59.7079 78.6743 56.0949 80.6451 54.9137 80.0175C53.7193 79.3891 53.4745 77.9759 53.8949 76.6678C54.177 75.6386 54.6921 74.6897 55.3995 73.896C55.7208 73.4854 56.1386 73.1626 56.615 72.9569C57.0914 72.7512 57.6112 72.6692 58.127 72.7185C58.5251 72.7461 58.9138 72.8527 59.271 73.0323C59.6282 73.2118 59.9468 73.4607 60.2087 73.7648C60.4705 74.0688 60.6704 74.422 60.797 74.8042C60.9235 75.1864 60.9742 75.59 60.9461 75.992Z" fill="#CE111F"/>
<path d="M69.4691 57.9563C68.6613 63.752 69.3582 72.3273 81.5064 73.266C88.8933 73.8361 92.6927 67.6251 92.6635 61.7742C92.6203 53.1632 87.3933 49.0708 81.6519 48.2557C75.9105 47.4406 70.2731 52.1607 69.4661 57.9571L69.4691 57.9563Z" fill="black"/>
<path d="M78.075 60.8021C79.1684 60.8021 80.0548 59.9068 80.0548 58.8025C80.0548 57.6982 79.1684 56.803 78.075 56.803C76.9816 56.803 76.0953 57.6982 76.0953 58.8025C76.0953 59.9068 76.9816 60.8021 78.075 60.8021Z" fill="white"/>
<path d="M75.7843 65.9779C76.8168 65.9779 77.6539 65.1324 77.6539 64.0895C77.6539 63.0466 76.8168 62.2012 75.7843 62.2012C74.7517 62.2012 73.9146 63.0466 73.9146 64.0895C73.9146 65.1324 74.7517 65.9779 75.7843 65.9779Z" fill="white"/>
<path d="M89.2534 45.8595C88.6836 46.5758 87.8527 44.6875 81.245 43.6702C76.845 42.9905 73.1535 45.2381 72.6206 43.7378C72.3896 43.0822 76.5401 41.638 80.947 42.187C85.1152 42.6996 89.8587 45.1067 89.2534 45.8595Z" fill="black"/>
<path d="M52.6828 88.9785C53.6923 89.4654 54.7964 89.7196 55.9151 89.7225C57.0338 89.7255 58.1391 89.4772 59.1511 88.9956C59.1797 88.9838 59.2115 88.9826 59.2408 88.9923C59.2702 89.0021 59.2951 89.0221 59.3111 89.0488C59.327 89.0755 59.3331 89.107 59.328 89.1378C59.323 89.1686 59.3072 89.1964 59.2836 89.2165C58.2923 89.9053 57.1168 90.2729 55.9136 90.2702C54.7103 90.2676 53.5364 89.8949 52.5481 89.2017C52.535 89.191 52.5242 89.1777 52.5163 89.1627C52.5084 89.1477 52.5035 89.1313 52.5019 89.1143C52.5003 89.0974 52.5021 89.0803 52.5071 89.0641C52.5121 89.0478 52.5203 89.0328 52.5311 89.0197C52.5488 88.9985 52.5728 88.9835 52.5995 88.9769C52.6262 88.9703 52.6543 88.9725 52.6797 88.9832L52.6828 88.9785Z" fill="#0D1338"/>
<path d="M70.9268 102.531H36.5007V132.571H70.9268V102.531Z" fill="#00A6ED"/>
<path d="M70.9279 133.175H36.501C36.3424 133.175 36.1902 133.111 36.0779 132.998C35.9657 132.884 35.9027 132.731 35.9027 132.57V102.531C35.9027 102.371 35.9657 102.217 36.0779 102.104C36.1902 101.991 36.3424 101.927 36.501 101.927H70.9271C71.0858 101.927 71.238 101.991 71.3502 102.104C71.4624 102.217 71.5254 102.371 71.5254 102.531V132.574C71.5246 132.733 71.4613 132.886 71.3494 132.999C71.2374 133.111 71.0859 133.175 70.9279 133.175ZM37.1001 131.964H70.3273V103.136H37.1001V131.964Z" fill="black"/>
<path d="M32.9778 138.228L36.5008 132.571V102.531L32.9778 111.776V138.228Z" fill="#00A6ED"/>
<path d="M32.9782 138.833C32.9221 138.833 32.8663 138.825 32.8126 138.809C32.6877 138.772 32.578 138.695 32.4999 138.59C32.4219 138.485 32.3797 138.357 32.3799 138.226V111.773C32.3802 111.698 32.394 111.624 32.4207 111.554L35.9436 102.31C35.9951 102.18 36.0896 102.072 36.2108 102.005C36.3321 101.937 36.4727 101.914 36.6088 101.94C36.7449 101.965 36.8681 102.038 36.9574 102.144C37.0467 102.251 37.0966 102.386 37.0987 102.526V132.566C37.0988 132.68 37.067 132.792 37.007 132.888L33.4841 138.546C33.4304 138.632 33.3557 138.704 33.2671 138.754C33.1784 138.803 33.0788 138.829 32.9774 138.829L32.9782 138.833ZM33.5765 111.887V136.127L35.9005 132.394V105.788L33.5765 111.887Z" fill="black"/>
<path d="M74.4493 138.228L70.9263 132.571V102.531L74.4493 111.776V138.228Z" fill="#00A6ED"/>
<path d="M74.4504 138.833C74.3489 138.833 74.249 138.807 74.1603 138.757C74.0715 138.707 73.9967 138.636 73.9429 138.549L70.42 132.892C70.36 132.795 70.3283 132.683 70.3284 132.569V102.529C70.3304 102.389 70.3803 102.254 70.4696 102.148C70.5589 102.041 70.6821 101.969 70.8182 101.943C70.9543 101.918 71.0949 101.941 71.2162 102.008C71.3375 102.075 71.4319 102.183 71.4834 102.313L75.0063 111.558C75.033 111.627 75.0468 111.702 75.0472 111.776V138.228C75.0468 138.36 75.0044 138.487 74.9265 138.592C74.8485 138.697 74.739 138.774 74.6144 138.811C74.5607 138.827 74.5049 138.835 74.4488 138.835L74.4504 138.833ZM71.5242 132.394L73.8482 136.127V111.887L71.5242 105.788V132.394Z" fill="black"/>
<path d="M74.4498 111.775H32.9778V138.228H74.4498V111.775Z" fill="#00A6ED"/>
<g opacity="0.4">
<path d="M74.4498 111.775H32.9778V113.433H74.4498V111.775Z" fill="white"/>
</g>
<g opacity="0.35">
<path d="M74.4498 110.278H32.9778V111.936H74.4498V110.278Z" fill="#0D1338"/>
</g>
<g opacity="0.35">
<path d="M74.4498 135.721H32.9778V138.228H74.4498V135.721Z" fill="#0D1338"/>
</g>
<path d="M74.4502 138.833H32.9782C32.8996 138.833 32.8218 138.817 32.7492 138.787C32.6766 138.756 32.6107 138.712 32.5551 138.656C32.4996 138.6 32.4555 138.533 32.4254 138.46C32.3954 138.386 32.3799 138.308 32.3799 138.228V111.775C32.3799 111.615 32.4429 111.461 32.5551 111.348C32.6673 111.235 32.8195 111.171 32.9782 111.171H74.4502C74.6088 111.171 74.761 111.235 74.8732 111.348C74.9854 111.461 75.0485 111.615 75.0485 111.775V138.225C75.0489 138.305 75.0337 138.384 75.0038 138.458C74.9739 138.531 74.9299 138.598 74.8743 138.655C74.8187 138.711 74.7526 138.756 74.6798 138.786C74.6071 138.817 74.529 138.833 74.4502 138.833ZM33.5765 137.622H73.8495V112.381H33.5765V137.622Z" fill="black"/>
<path d="M92.8606 113.851V113.866C91.7783 118.545 88.9907 122.64 85.0532 125.336C84.9523 125.404 84.8514 125.472 84.7452 125.54L84.6851 125.579C84.5935 125.639 84.5003 125.698 84.4063 125.754L84.3124 125.812C84.2354 125.86 84.1538 125.909 84.0745 125.955C84.036 125.979 83.9974 126.001 83.9589 126.023C83.8819 126.069 83.805 126.112 83.7279 126.159C83.6918 126.178 83.6556 126.2 83.6194 126.219C83.5308 126.271 83.4415 126.319 83.3529 126.367C83.336 126.375 83.3214 126.384 83.3075 126.391C83.2212 126.437 83.1366 126.484 83.048 126.527C83.0049 126.552 82.9587 126.573 82.9156 126.595C82.8124 126.649 82.7061 126.702 82.6029 126.751C82.4805 126.811 82.358 126.87 82.2325 126.928C82.107 126.986 81.9923 127.04 81.8698 127.093C81.8606 127.098 81.8506 127.1 81.8413 127.105C81.7235 127.159 81.6034 127.21 81.4833 127.261C81.475 127.265 81.4662 127.268 81.4571 127.27C81.3393 127.322 81.2215 127.37 81.1013 127.416C81.0967 127.416 81.0921 127.42 81.0867 127.42L80.6947 127.576C80.5631 127.627 80.433 127.675 80.2982 127.721C80.1635 127.767 80.0318 127.816 79.897 127.86C79.6275 127.952 79.358 128.037 79.0777 128.119C76.216 128.935 73.2533 129.333 70.28 129.299H69.319C67.2189 129.393 65.1198 129.092 63.1287 128.411C62.4011 128.122 61.7396 127.685 61.1843 127.129C60.8665 126.802 60.5954 126.432 60.3788 126.03C59.8437 124.963 59.5929 123.773 59.6511 122.579C59.7643 118.919 62.2054 116.81 66.3505 116.788C67.5112 116.698 68.5941 116.571 69.5993 116.407C69.6208 116.407 69.6424 116.399 69.6616 116.397C75.8689 115.377 79.0792 112.967 79.2101 109.213C79.2149 108.581 79.0794 107.955 78.8135 107.383C78.7535 107.286 78.7004 107.179 78.6426 107.065C78.5737 106.896 78.4772 106.74 78.3569 106.604L78.2152 106.495L78.2006 106.317C78.2006 106.285 78.1744 106.25 78.1914 106.222C79.4504 104.298 80.2073 99.5261 80.6401 96.514C81.474 96.1477 82.2957 95.7363 83.0958 95.3225C83.0958 95.3054 83.8458 94.9539 83.9898 94.8714C86.4287 95.994 88.5002 97.7957 89.9614 100.065C92.6095 104.08 93.7723 109.623 92.8544 113.854L92.8606 113.851Z" fill="#FCFEFF"/>
<path d="M60.2408 126.035C60.4564 126.438 60.7276 126.809 61.0462 127.135C61.6019 127.69 62.2634 128.126 62.9906 128.417C64.9817 129.097 67.0808 129.399 69.1809 129.305H70.068C72.6199 123.276 71.0991 118.9 69.5251 116.4C69.5036 116.4 69.4843 116.407 69.4628 116.409C68.4581 116.572 67.3752 116.699 66.214 116.79C62.0689 116.814 59.6294 118.921 59.5146 122.581C59.4562 123.776 59.7074 124.966 60.2431 126.033L60.2408 126.035Z" fill="black"/>
<path opacity="0.4" d="M70.7559 118.252C69.6167 118.385 68.3937 118.489 67.0867 118.563C63.1988 118.58 60.5937 119.742 59.6542 121.815V121.66C59.7674 118.549 62.2085 116.75 66.3536 116.73C67.5143 116.653 68.5972 116.545 69.6024 116.408C69.6239 116.408 69.6455 116.401 69.6647 116.398C70.0936 116.974 70.4595 117.596 70.7559 118.252Z" fill="white"/>
<path d="M69.5926 129.843H69.1768C67.0089 129.932 64.8433 129.616 62.7894 128.91C61.9965 128.592 61.2754 128.116 60.6694 127.51C60.317 127.148 60.0168 126.738 59.7777 126.291C59.1986 125.142 58.9253 123.861 58.9846 122.573V122.566C58.9749 121.689 59.1505 120.821 59.4994 120.019C59.8484 119.216 60.3628 118.498 61.0083 117.913C62.4847 116.751 64.3243 116.162 66.1937 116.252C67.3279 116.163 68.3998 116.039 69.3801 115.879L69.7913 115.813L69.9784 116.11C71.6871 118.819 73.1749 123.343 70.5621 129.515L70.4251 129.84H70.04C69.8937 129.84 69.7443 129.84 69.5957 129.84L69.5926 129.843ZM60.7133 125.778C60.9061 126.136 61.1471 126.465 61.4295 126.756C61.9349 127.262 62.5377 127.658 63.2006 127.919C65.1287 128.569 67.1584 128.856 69.1891 128.766H69.7181C71.8743 123.414 70.7192 119.455 69.2615 116.985C68.3313 117.128 67.3195 117.242 66.2584 117.324H66.2198C62.3489 117.349 60.1573 119.218 60.0511 122.594C59.9967 123.694 60.2252 124.79 60.7141 125.775L60.7133 125.778Z" fill="black"/>
<path opacity="0.49" d="M92.8593 113.851V113.866C91.777 118.545 88.9895 122.64 85.0519 125.336C84.951 125.404 84.8501 125.472 84.7438 125.54L84.6838 125.579C84.5921 125.639 84.499 125.698 84.405 125.754L84.3111 125.812C84.2341 125.86 84.1525 125.909 84.0732 125.955C84.0347 125.979 83.9961 126.001 83.9576 126.023C83.8806 126.069 83.8036 126.112 83.7266 126.159C83.6904 126.178 83.6543 126.2 83.6181 126.219C83.5295 126.271 83.4402 126.319 83.3516 126.367C83.3347 126.374 83.32 126.384 83.3062 126.391C83.2199 126.437 83.136 126.484 83.0467 126.527C83.0036 126.552 82.9581 126.573 82.9142 126.595C82.8111 126.649 82.7056 126.702 82.6016 126.751C82.4792 126.811 82.3567 126.87 82.232 126.928C82.1072 126.986 81.9917 127.04 81.8693 127.093C81.8601 127.098 81.85 127.1 81.8408 127.105C81.723 127.159 81.6029 127.209 81.4827 127.261C81.4744 127.265 81.4656 127.268 81.4566 127.27C81.3387 127.321 81.2209 127.37 81.1008 127.416C81.0962 127.416 81.0908 127.42 81.0862 127.42L80.6942 127.576C80.5618 127.627 80.4324 127.675 80.2976 127.721C80.1629 127.767 80.0312 127.816 79.8965 127.86C79.6277 127.952 79.3574 128.037 79.0771 128.119C76.2155 128.935 73.2528 129.333 70.2794 129.299H69.3169C67.2168 129.393 65.1177 129.092 63.1266 128.411C62.399 128.122 61.7375 127.685 61.1822 127.129C60.8647 126.802 60.5939 126.432 60.3775 126.03C60.0131 125.332 59.7847 124.569 59.7045 123.784C59.7284 123.833 59.7523 123.879 59.7769 123.925C59.9924 124.328 60.2633 124.698 60.5816 125.025C61.1373 125.58 61.7988 126.016 62.526 126.307C64.5171 126.988 66.6161 127.289 68.7162 127.195H69.6773C72.6506 127.228 75.6133 126.831 78.475 126.016C78.7514 125.933 79.0232 125.848 79.2943 125.756L79.6955 125.617C79.8302 125.569 79.9596 125.52 80.092 125.472C80.2245 125.424 80.3539 125.372 80.484 125.316C80.4886 125.316 80.494 125.312 80.4986 125.312L80.8544 125.166C80.8613 125.166 80.8713 125.159 80.8806 125.157C81.0007 125.107 81.1185 125.055 81.2386 125.002C81.2479 124.997 81.2579 124.994 81.2671 124.989C81.3895 124.935 81.5097 124.879 81.6298 124.824C81.7499 124.769 81.877 124.708 82.0002 124.647C82.1057 124.596 82.2089 124.543 82.3128 124.491L82.4453 124.424C82.5315 124.38 82.6185 124.333 82.7048 124.288L82.7502 124.263C82.8388 124.215 82.9281 124.166 83.0167 124.116C83.0529 124.096 83.0891 124.077 83.1245 124.055C83.2015 124.009 83.2785 123.966 83.3555 123.919C83.394 123.897 83.4325 123.875 83.471 123.851C83.548 123.805 83.6296 123.756 83.7089 123.707L83.8029 123.649L84.0816 123.474C84.1032 123.462 84.1224 123.448 84.1417 123.435C84.2449 123.368 84.3457 123.299 84.4497 123.231C88.3866 120.535 91.1727 116.439 92.2525 111.761V111.746C92.7219 109.311 92.6581 106.801 92.0654 104.394C93.1589 107.418 93.432 110.683 92.8562 113.85L92.8593 113.851Z" fill="#C5EFFF"/>
<path d="M93.6287 114.07C90.9897 124.996 81.154 130.278 70.151 130.1C66.849 129.94 62.3073 130.362 60.1805 127.151C59.2943 125.882 58.8315 124.36 58.8592 122.807C58.8869 121.254 59.4036 119.75 60.3345 118.514C61.7283 116.703 63.7712 116.336 66.3662 116.097C71.1774 115.648 76.8819 115.261 78.3141 109.98C78.5874 108.877 78.5032 107.714 78.0739 106.663C78.0481 106.612 78.0356 106.555 78.0377 106.498C78.0387 106.443 78.0534 106.389 78.0803 106.342C78.1072 106.294 78.1455 106.254 78.1917 106.226C78.2056 106.216 78.2209 106.208 78.2372 106.204C78.2999 106.187 78.3657 106.186 78.4289 106.201C78.4921 106.215 78.5508 106.246 78.5998 106.289C79.2631 107.122 79.6192 108.163 79.607 109.232C79.386 115.439 71.4077 116.805 66.3624 117.195C62.4213 117.286 60.1605 118.973 60.0481 122.591C59.9449 128.735 65.4452 128.925 70.2734 128.901C81.9934 128.901 89.9548 123.557 92.4628 113.766C93.8951 107.164 90.2259 95.9976 80.9307 94.2936C80.8037 94.2695 80.6805 94.1894 80.5603 94.1722C80.5072 94.1652 80.344 93.9926 80.2192 94.0416C80.4502 93.9443 80.8006 93.9545 81.027 93.8526C81.4428 93.6683 81.8971 93.5104 82.3029 93.3136C82.3391 93.323 82.3753 93.3307 82.4084 93.3401C90.4708 95.5177 95.4221 106.145 93.6233 114.067L93.6287 114.07Z" fill="black"/>
<path d="M15.1975 113.706V113.721C16.2797 118.399 19.0673 122.494 23.0049 125.191C23.1058 125.258 23.2067 125.327 23.3129 125.394L23.373 125.433C23.4646 125.494 23.5578 125.552 23.6517 125.608L23.7457 125.667C23.8227 125.715 23.9043 125.764 23.9836 125.81C24.0221 125.834 24.0606 125.856 24.0991 125.877C24.1761 125.923 24.2531 125.967 24.3301 126.013C24.3663 126.033 24.4025 126.055 24.4379 126.074C24.5265 126.125 24.6158 126.174 24.7044 126.222C24.7213 126.23 24.7359 126.239 24.7498 126.246C24.8361 126.292 24.9207 126.338 25.0093 126.382C25.0524 126.406 25.0979 126.428 25.1418 126.45C25.2449 126.503 25.3504 126.557 25.4544 126.606C25.5768 126.667 25.6993 126.725 25.8248 126.783C25.9503 126.842 26.065 126.895 26.1875 126.948L26.216 126.961C26.3338 127.014 26.4539 127.065 26.574 127.116C26.5823 127.121 26.5911 127.124 26.6002 127.126C26.718 127.177 26.8358 127.226 26.956 127.272C26.9606 127.272 26.9652 127.276 26.9706 127.276L27.3625 127.432C27.495 127.483 27.6244 127.531 27.7591 127.577C27.8939 127.623 28.0255 127.672 28.1603 127.716C28.4291 127.808 28.6993 127.893 28.9796 127.976C31.8413 128.792 34.804 129.189 37.7773 129.155H38.7383C40.8384 129.249 42.9375 128.948 44.9287 128.267C45.6562 127.978 46.3177 127.542 46.873 126.986C47.1905 126.659 47.4614 126.288 47.6777 125.886C48.2132 124.819 48.4643 123.629 48.4061 122.434C48.293 118.774 45.8519 116.665 41.7068 116.643C40.5461 116.554 39.4632 116.427 38.458 116.262C38.4365 116.262 38.4149 116.255 38.3957 116.252C32.1884 115.232 28.9781 112.823 28.8472 109.068C28.8424 108.436 28.9779 107.811 29.2437 107.238C29.3038 107.141 29.3569 107.034 29.4147 106.92C29.4836 106.751 29.5802 106.595 29.7004 106.459L29.8421 106.35L29.8567 106.173C29.8567 106.141 29.8829 106.105 29.8659 106.078C28.6069 104.153 27.85 99.3815 27.4172 96.3693C26.5833 96.003 25.7616 95.5916 24.9616 95.1778C24.9616 95.1607 24.2115 94.8092 24.0676 94.726C21.6285 95.8484 19.5569 97.6501 18.0959 99.9197C15.4477 103.934 14.285 109.477 15.2029 113.708L15.1975 113.706Z" fill="#FCFEFF"/>
<path d="M47.8196 125.887C47.6042 126.29 47.3333 126.66 47.0149 126.986C46.4592 127.542 45.7978 127.978 45.0706 128.268C43.0795 128.949 40.9804 129.25 38.8803 129.156H37.9916C35.4397 123.127 36.9605 118.751 38.5345 116.251C38.5561 116.251 38.5753 116.258 38.5969 116.261C39.6015 116.424 40.6844 116.551 41.8457 116.642C45.9908 116.667 48.4303 118.773 48.545 122.433C48.6034 123.628 48.3523 124.818 47.8166 125.885L47.8196 125.887Z" fill="black"/>
<path opacity="0.4" d="M37.3066 118.104C38.4458 118.237 39.6689 118.341 40.9759 118.415C44.8638 118.432 47.4689 119.594 48.4083 121.667V121.511C48.2951 118.4 45.8541 116.601 41.709 116.582C40.5483 116.504 39.4653 116.396 38.4602 116.259C38.4386 116.259 38.4171 116.251 38.3978 116.249C37.969 116.825 37.6032 117.445 37.3066 118.101V118.104Z" fill="white"/>
<path d="M38.4734 129.695H38.8893C41.0572 129.785 43.2228 129.468 45.2767 128.762C46.0696 128.444 46.7908 127.968 47.3966 127.362C47.7491 127 48.0493 126.59 48.2883 126.144C48.8674 124.995 49.1407 123.714 49.0815 122.426V122.419C49.091 121.542 48.9155 120.674 48.5665 119.872C48.2176 119.07 47.7032 118.352 47.0578 117.766C45.5813 116.605 43.7418 116.016 41.8724 116.106C40.7381 116.016 39.6662 115.892 38.686 115.733L38.2748 115.667L38.0876 115.964C36.3789 118.672 34.8912 123.196 37.504 129.369L37.641 129.694H38.026C38.1724 129.694 38.3217 129.694 38.4704 129.694L38.4734 129.695ZM47.3527 125.63C47.16 125.988 46.919 126.317 46.6366 126.608C46.1312 127.114 45.5284 127.51 44.8655 127.771C42.9374 128.421 40.9076 128.708 38.8769 128.618H38.3479C36.1918 123.266 37.3469 119.308 38.8045 116.837C39.7347 116.98 40.7466 117.094 41.8077 117.177H41.8462C45.7172 117.201 47.9095 119.07 48.015 122.446C48.0693 123.546 47.8409 124.642 47.352 125.628L47.3527 125.63Z" fill="black"/>
<path opacity="0.49" d="M15.2012 113.706V113.721C16.2844 118.398 19.0718 122.492 23.0086 125.187C23.1095 125.254 23.2104 125.323 23.3167 125.39L23.3767 125.429C23.4683 125.49 23.5615 125.548 23.6555 125.604L23.7494 125.663C23.8264 125.711 23.908 125.76 23.9874 125.806C24.0259 125.83 24.0644 125.852 24.1029 125.873C24.1799 125.919 24.2569 125.963 24.3339 126.009C24.3701 126.029 24.4063 126.051 24.4417 126.07C24.5302 126.121 24.6196 126.17 24.7081 126.218C24.7251 126.225 24.7397 126.235 24.7535 126.242C24.8398 126.288 24.9245 126.334 25.013 126.378C25.0562 126.402 25.1016 126.424 25.1455 126.446C25.2487 126.499 25.3542 126.552 25.4581 126.601C25.5806 126.662 25.703 126.72 25.8285 126.779C25.954 126.837 26.0688 126.89 26.1912 126.944C26.2004 126.948 26.2105 126.951 26.2197 126.956C26.3375 127.01 26.4576 127.06 26.5778 127.112C26.5861 127.116 26.5949 127.119 26.604 127.121C26.7218 127.172 26.8396 127.22 26.9597 127.266C26.9643 127.266 26.969 127.271 26.9743 127.271L27.3663 127.427C27.4987 127.478 27.6281 127.526 27.7629 127.572C27.8976 127.618 28.0293 127.667 28.164 127.71C28.4336 127.803 28.7031 127.888 28.9834 127.97C31.845 128.786 34.8077 129.183 37.7811 129.15H38.7421C40.8422 129.244 42.9412 128.943 44.9324 128.262C45.6599 127.972 46.3215 127.536 46.8767 126.98C47.1943 126.653 47.4651 126.283 47.6814 125.88C48.0457 125.182 48.2742 124.42 48.3545 123.635C48.3306 123.683 48.3067 123.73 48.2821 123.776C48.0666 124.179 47.7956 124.549 47.4774 124.876C46.9217 125.431 46.2602 125.867 45.533 126.157C43.5419 126.838 41.4428 127.139 39.3427 127.045H38.3817C35.4084 127.079 32.4457 126.681 29.584 125.866C29.3076 125.783 29.0357 125.698 28.7647 125.606L28.3635 125.467C28.2287 125.419 28.0994 125.37 27.9669 125.322C27.8345 125.274 27.7051 125.222 27.575 125.166C27.5703 125.166 27.565 125.162 27.5603 125.162L27.2046 125.016C27.1976 125.016 27.1876 125.009 27.1784 125.006C27.0583 124.955 26.9405 124.904 26.8203 124.851L26.7918 124.838C26.6694 124.785 26.5493 124.729 26.4291 124.673C26.309 124.618 26.182 124.557 26.0588 124.496C25.9533 124.445 25.8501 124.392 25.7461 124.34L25.6137 124.273C25.5274 124.229 25.4404 124.183 25.3542 124.137L25.3087 124.113C25.2194 124.064 25.1309 124.015 25.0423 123.965C25.0061 123.945 24.9699 123.926 24.9345 123.904C24.8575 123.858 24.7805 123.815 24.7035 123.768C24.665 123.746 24.6265 123.724 24.588 123.7C24.511 123.655 24.4294 123.606 24.35 123.557L24.2561 123.499L23.9773 123.324C23.9558 123.312 23.9365 123.298 23.9173 123.285C23.8141 123.217 23.7132 123.149 23.6093 123.081C19.6725 120.385 16.8865 116.29 15.8065 111.611V111.597C15.3372 109.162 15.401 106.653 15.9936 104.245C14.9 107.27 14.6269 110.534 15.2028 113.701L15.2012 113.706Z" fill="#C5EFFF"/>
<path d="M14.428 113.922C17.0669 124.848 26.9026 130.13 37.9057 129.953C41.2076 129.792 45.7493 130.215 47.8761 127.003C48.7625 125.734 49.2254 124.212 49.1977 122.659C49.17 121.106 48.6532 119.602 47.7221 118.365C46.3284 116.555 44.2854 116.187 41.6904 115.948C36.8792 115.499 31.1748 115.113 29.7425 109.832C29.4693 108.728 29.5535 107.566 29.9828 106.514C30.0086 106.463 30.0211 106.406 30.0189 106.349C30.0179 106.294 30.0033 106.241 29.9764 106.193C29.9495 106.146 29.9111 106.106 29.8649 106.077C29.851 106.067 29.8357 106.06 29.8195 106.055C29.7568 106.038 29.691 106.037 29.6278 106.052C29.5645 106.067 29.5059 106.097 29.4568 106.14C28.7935 106.974 28.4375 108.014 28.4496 109.084C28.6706 115.29 36.649 116.656 41.6943 117.047C45.6353 117.136 47.8969 118.824 48.0086 122.442C48.1118 128.586 42.6114 128.777 37.7832 128.753C26.0633 128.753 18.1018 123.408 15.593 113.617C14.1608 107.016 17.8446 95.8195 27.1436 94.1155C27.2707 94.0914 27.3939 94.0719 27.5163 94.0548C27.5694 94.0478 27.6819 94.0206 27.7327 94.0159C27.5017 93.9187 27.2591 93.8052 27.0335 93.7048C26.6177 93.5205 26.1634 93.3626 25.7576 93.1659C25.7214 93.1752 25.6852 93.183 25.6521 93.1923C17.5898 95.37 12.6384 105.998 14.4372 113.92L14.428 113.922Z" fill="black"/>
<path d="M23.7171 95.181C23.9968 95.3699 24.3073 95.5871 24.6393 95.8329C26.4117 97.1368 28.0041 98.6734 29.3747 100.402C30.8025 102.287 32.0331 104.316 33.0465 106.457C33.1879 106.747 33.3196 107.026 33.4393 107.286L34.8662 103.913C34.4829 103.305 33.7138 102.129 32.6859 100.769C31.0389 98.496 29.0857 96.4667 26.883 94.7397C26.4926 94.3897 26.0032 94.1724 25.484 94.1185C25.2171 94.1632 24.9688 94.2848 24.7687 94.4686L24.6017 94.5912C24.5288 94.6447 24.4422 94.7083 24.3489 94.7691L24.3445 94.7723C24.1227 94.9178 23.9118 95.0534 23.7142 95.1783M21.7415 95.1716C22.5021 94.8577 23.2315 94.4714 23.9197 94.0178C24.0427 93.9361 25.1266 93.6126 25.2555 93.518C25.9483 93.0094 25.5959 92.7104 27.3711 94.0169C32.0733 97.4778 36.0157 103.825 36.0157 103.825L33.4418 109.906C32.2101 106.748 30.5725 103.768 28.5711 101.041C26.6831 98.6654 24.3655 96.6736 21.7415 95.1716Z" fill="black"/>
<path d="M85.4375 95.172C85.4375 95.172 84.5579 94.6744 83.3869 93.911C82.6039 93.3929 81.7976 92.3596 79.6913 93.9106C74.99 97.3703 71.1641 103.825 71.1641 103.825L73.7362 109.904C74.9683 106.747 76.6063 103.767 78.6078 101.041C80.4958 98.6658 82.8134 96.674 85.4375 95.172Z" fill="white"/>
<path d="M83.4619 95.1814C83.1822 95.3703 82.8716 95.5875 82.5396 95.8333C80.7673 97.1372 79.1748 98.6738 77.8043 100.403C76.3764 102.287 75.1459 104.316 74.1325 106.457C73.9911 106.748 73.8593 107.026 73.7397 107.286L72.3134 103.914C72.6967 103.306 73.4657 102.13 74.4936 100.769C76.1407 98.4968 78.0938 96.4676 80.2965 94.7405C80.687 94.3906 81.1763 94.1734 81.6956 94.1194C81.9624 94.1641 82.2108 94.2857 82.4109 94.4695L82.5772 94.5916C82.6501 94.6451 82.7367 94.7087 82.83 94.7695L82.8338 94.7723C83.0556 94.9178 83.2665 95.0534 83.4641 95.1783M85.4375 95.172C85.4375 95.172 84.5579 94.6744 83.3869 93.911C83.2639 93.8293 83.14 93.7355 83.0104 93.6404C82.3177 93.1318 81.4669 92.6035 79.6913 93.9106C74.99 97.3703 71.1641 103.825 71.1641 103.825L73.7362 109.904C74.9683 106.747 76.6063 103.767 78.6078 101.041C80.4958 98.6658 82.8134 96.674 85.4375 95.172Z" fill="black"/>
<path d="M18.4211 152.3C19.0395 152.316 19.6549 152.207 20.2314 151.979C20.8078 151.751 21.3337 151.408 21.7781 150.971C22.2226 150.534 22.5768 150.012 22.82 149.434C23.0632 148.856 23.1905 148.235 23.1944 147.607C23.193 146.978 23.0674 146.355 22.8251 145.776C22.5827 145.197 22.2286 144.674 21.7836 144.236C21.3386 143.799 20.8117 143.456 20.2342 143.229C19.6566 143.002 19.0401 142.895 18.4211 142.914C17.8021 142.895 17.1856 143.002 16.608 143.229C16.0305 143.456 15.5036 143.799 15.0586 144.236C14.6136 144.674 14.2594 145.197 14.0171 145.776C13.7748 146.355 13.6492 146.978 13.6478 147.607C13.6517 148.235 13.779 148.856 14.0222 149.434C14.2653 150.012 14.6195 150.534 15.064 150.971C15.5085 151.408 16.0344 151.751 16.6108 151.979C17.1873 152.207 17.8027 152.316 18.4211 152.3ZM18.4211 190.404C21.1769 190.404 22.8882 188.632 22.8882 185.68V160.505C22.8882 157.552 21.1747 155.75 18.4211 155.75C15.6368 155.75 13.954 157.553 13.954 160.505V185.678C13.954 188.632 15.6368 190.402 18.4211 190.402V190.404ZM46.0388 190.404C48.6701 190.404 50.5058 188.788 50.5058 185.68V178.934L53.3505 176.262L61.766 187.574C63.1737 189.719 64.2444 190.402 66.1415 190.402C68.6506 190.402 70.3948 188.724 70.3948 186.3C70.3948 185.119 70.1192 184.31 69.1404 182.974L59.9911 171.133L68.3444 163.115C69.6294 161.903 70.0272 161.064 70.0272 159.697C70.034 159.168 69.9351 158.644 69.7365 158.156C69.5378 157.668 69.2436 157.226 68.8716 156.857C68.4995 156.488 68.0576 156.199 67.5724 156.009C67.0873 155.819 66.5692 155.731 66.0495 155.75C64.7031 155.75 63.6937 156.278 62.5003 157.553L50.6285 169.642H50.5063V148.974C50.5063 145.866 48.6706 144.219 46.0392 144.219C43.4385 144.219 41.5721 145.866 41.5721 148.974V185.679C41.5717 188.786 43.4381 190.402 46.0388 190.402V190.404ZM92.2292 152.3C92.8476 152.316 93.4631 152.207 94.0395 151.979C94.6159 151.751 95.1418 151.408 95.5863 150.971C96.0308 150.534 96.385 150.012 96.6282 149.434C96.8714 148.856 96.9986 148.235 97.0026 147.607C97.0012 146.978 96.8756 146.355 96.6333 145.776C96.391 145.197 96.0369 144.674 95.5919 144.236C95.1469 143.798 94.62 143.456 94.0424 143.229C93.4649 143.002 92.8483 142.895 92.2292 142.914C91.6102 142.895 90.9936 143.002 90.416 143.229C89.8385 143.456 89.3116 143.798 88.8666 144.236C88.4216 144.674 88.0674 145.197 87.8251 145.776C87.5828 146.355 87.4573 146.978 87.4559 147.607C87.4598 148.235 87.5871 148.856 87.8303 149.434C88.0735 150.012 88.4277 150.534 88.8722 150.971C89.3167 151.408 89.8425 151.751 90.419 151.979C90.9954 152.207 91.6108 152.316 92.2292 152.3ZM92.2292 190.404C94.985 190.404 96.6963 188.632 96.6963 185.68V160.505C96.6963 157.552 94.9828 155.75 92.2292 155.75C89.445 155.75 87.7622 157.553 87.7622 160.505V185.678C87.7617 188.632 89.4445 190.402 92.2292 190.402V190.404Z" fill="#00A6ED"/>
<path d="M13.017 220.256C13.1766 220.258 13.3348 220.227 13.4816 220.163C13.6284 220.1 13.7605 220.006 13.8696 219.888C13.9786 219.77 14.0622 219.631 14.115 219.478C14.1677 219.326 14.1885 219.164 14.176 219.003V213.033H14.2293C14.6649 213.821 15.3065 214.474 16.0839 214.918C16.8613 215.363 17.7446 215.583 18.637 215.553C22.1259 215.553 24.5097 212.696 24.5097 208.302C24.5097 203.909 22.113 201.051 18.5837 201.051C17.6727 201.03 16.7736 201.263 15.9844 201.724C15.1953 202.185 14.5466 202.857 14.1092 203.666H14.0559V202.237C14.0679 202.085 14.0485 201.932 13.9989 201.788C13.9494 201.644 13.8707 201.512 13.7681 201.401C13.6654 201.289 13.5409 201.201 13.4025 201.14C13.2641 201.08 13.1148 201.05 12.9642 201.051C12.8125 201.048 12.662 201.078 12.5222 201.137C12.3824 201.197 12.2564 201.285 12.1524 201.397C12.0483 201.508 11.9685 201.641 11.9179 201.786C11.8674 201.93 11.8473 202.084 11.859 202.237V219.003C11.8465 219.164 11.8673 219.326 11.92 219.478C11.9727 219.631 12.0561 219.77 12.1651 219.888C12.274 220.006 12.4061 220.1 12.5527 220.163C12.6994 220.226 12.8575 220.258 13.017 220.256ZM18.1303 213.49C15.76 213.49 14.1621 211.428 14.1621 208.302C14.1621 205.189 15.76 203.113 18.1303 203.113C20.5938 203.113 22.1385 205.135 22.1385 208.302C22.1375 211.482 20.5929 213.49 18.1294 213.49H18.1303ZM31.965 215.553C32.8756 215.556 33.7704 215.311 34.5553 214.844C35.3403 214.377 35.9865 213.705 36.426 212.897H36.4793V214.366C36.4677 214.52 36.4878 214.673 36.5383 214.818C36.5888 214.963 36.6687 215.095 36.7727 215.207C36.8768 215.319 37.0027 215.407 37.1425 215.467C37.2823 215.526 37.4329 215.555 37.5845 215.553C37.7352 215.554 37.8844 215.524 38.0228 215.463C38.1612 215.403 38.2857 215.314 38.3884 215.203C38.4911 215.091 38.5697 214.959 38.6193 214.815C38.6688 214.671 38.6882 214.518 38.6763 214.366V205.62C38.6763 202.83 36.6254 201.051 33.3766 201.051C31.1264 201.051 29.1019 202.061 28.3166 203.598C28.1445 203.892 28.0488 204.226 28.0385 204.568C28.0304 204.707 28.0513 204.846 28.0998 204.977C28.1483 205.107 28.2233 205.226 28.32 205.325C28.4167 205.424 28.5328 205.502 28.661 205.552C28.7892 205.603 28.9264 205.626 29.0639 205.62C29.261 205.632 29.4572 205.584 29.6278 205.483C29.7984 205.383 29.9357 205.233 30.0226 205.054C30.3196 204.435 30.7921 203.92 31.3798 203.574C31.9675 203.228 32.6436 203.068 33.3219 203.113C35.2393 203.113 36.3579 204.137 36.3579 205.849V207.022L32.3762 207.251C29.1803 207.438 27.3561 208.949 27.3561 211.348C27.3565 213.868 29.2076 215.553 31.9641 215.553H31.965ZM32.4842 213.558C30.8195 213.558 29.7143 212.682 29.7143 211.348C29.7143 210.027 30.7805 209.189 32.6437 209.07L36.3588 208.841V209.986C36.3584 212.008 34.6663 213.558 32.4833 213.558H32.4842ZM43.8684 215.553C44.0279 215.555 44.1862 215.523 44.333 215.46C44.4797 215.396 44.6119 215.303 44.7209 215.185C44.83 215.067 44.9135 214.927 44.9663 214.775C45.0191 214.622 45.0398 214.46 45.0273 214.299V206.605C45.0273 204.812 45.9197 203.289 48.01 203.289C48.4013 203.323 48.7921 203.219 49.1152 202.993C49.236 202.895 49.3318 202.769 49.3945 202.626C49.4571 202.483 49.4847 202.327 49.4749 202.171C49.483 202.027 49.4611 201.883 49.4107 201.748C49.3602 201.614 49.2822 201.491 49.1819 201.389C48.8736 201.14 48.4832 201.02 48.0902 201.052C47.3692 201.085 46.6769 201.347 46.1124 201.802C45.548 202.258 45.1402 202.882 44.9476 203.586H44.8943V202.238C44.9065 202.086 44.8871 201.932 44.8374 201.788C44.7877 201.644 44.7088 201.511 44.6057 201.4C44.5026 201.288 44.3776 201.199 44.2386 201.139C44.0997 201.079 43.9499 201.049 43.7988 201.051C43.6482 201.049 43.4989 201.08 43.3605 201.14C43.2221 201.2 43.0976 201.289 42.995 201.4C42.8923 201.512 42.8137 201.644 42.7641 201.788C42.7145 201.932 42.6951 202.085 42.7071 202.237V214.299C42.6946 214.461 42.7154 214.623 42.7682 214.775C42.8211 214.928 42.9048 215.067 43.014 215.185C43.1232 215.303 43.2555 215.397 43.4024 215.46C43.5494 215.523 43.7078 215.555 43.8674 215.553H43.8684ZM52.949 212.075C52.949 214.313 54.0676 215.418 56.3049 215.418H56.4514C57.7429 215.418 58.1425 215.043 58.1425 214.326C58.1425 213.773 57.7962 213.464 57.0373 213.41L56.8375 213.396C55.6786 213.315 55.266 212.749 55.266 211.563V203.221H57.0503C57.1845 203.241 57.3214 203.231 57.4511 203.19C57.5807 203.15 57.6998 203.081 57.7995 202.988C57.8992 202.894 57.977 202.78 58.0271 202.652C58.0772 202.525 58.0985 202.387 58.0892 202.25C58.0892 201.644 57.7183 201.294 57.0503 201.294H55.266V198.894C55.2785 198.733 55.2577 198.571 55.205 198.419C55.1522 198.266 55.0686 198.127 54.9596 198.009C54.8505 197.891 54.7184 197.797 54.5716 197.734C54.4248 197.671 54.2666 197.639 54.107 197.641C53.9475 197.639 53.7892 197.671 53.6424 197.734C53.4957 197.797 53.3635 197.891 53.2545 198.009C53.1454 198.127 53.0619 198.266 53.0091 198.419C52.9564 198.571 52.9356 198.733 52.9481 198.894V201.293H51.7891C51.1234 201.293 50.7502 201.644 50.7502 202.25C50.741 202.387 50.7622 202.524 50.8123 202.652C50.8625 202.779 50.9403 202.894 51.0399 202.987C51.1396 203.08 51.2587 203.149 51.3884 203.19C51.518 203.23 51.655 203.241 51.7891 203.22H52.9481L52.949 212.075ZM62.6666 215.553C62.8262 215.555 62.9844 215.523 63.1312 215.46C63.278 215.396 63.4101 215.303 63.5192 215.185C63.6282 215.067 63.7118 214.927 63.7645 214.775C63.8173 214.622 63.8381 214.46 63.8256 214.299V207.062C63.8256 204.69 65.2506 203.126 67.4341 203.126C69.5665 203.126 70.6166 204.366 70.6166 206.63V214.299C70.604 214.46 70.6248 214.622 70.6776 214.774C70.7303 214.927 70.8139 215.066 70.923 215.184C71.032 215.302 71.1641 215.396 71.3109 215.459C71.4577 215.522 71.6159 215.554 71.7755 215.552C71.9351 215.554 72.0933 215.522 72.2401 215.459C72.3869 215.396 72.519 215.302 72.6281 215.184C72.7371 215.066 72.8207 214.927 72.8734 214.774C72.9262 214.622 72.947 214.46 72.9345 214.299V206.213C72.9345 203.032 71.1766 201.052 68.1406 201.052C65.9965 201.052 64.5186 202.022 63.7463 203.531H63.693V202.237C63.7049 202.085 63.6855 201.932 63.636 201.788C63.5864 201.644 63.5078 201.512 63.4051 201.401C63.3024 201.289 63.1779 201.201 63.0395 201.14C62.9011 201.08 62.7519 201.05 62.6012 201.051C62.4505 201.05 62.3011 201.08 62.1625 201.14C62.0239 201.2 61.8992 201.289 61.7963 201.4C61.6934 201.512 61.6146 201.644 61.5649 201.788C61.5152 201.932 61.4957 202.085 61.5076 202.237V214.299C61.4951 214.46 61.5159 214.622 61.5687 214.775C61.6214 214.927 61.705 215.067 61.814 215.185C61.9231 215.303 62.0552 215.396 62.202 215.46C62.3488 215.523 62.507 215.555 62.6666 215.553ZM82.7731 215.553C85.3033 215.553 87.2475 214.473 88.1395 212.574C88.239 212.358 88.2977 212.125 88.3124 211.887C88.3199 211.749 88.2985 211.611 88.2494 211.483C88.2004 211.354 88.1249 211.237 88.0279 211.141C87.9309 211.044 87.8147 210.969 87.687 210.921C87.5592 210.873 87.4229 210.853 87.2869 210.863C87.1145 210.858 86.9438 210.898 86.7919 210.981C86.64 211.064 86.5123 211.186 86.4214 211.334C85.3427 212.925 84.3307 213.517 82.6794 213.517C80.2025 213.517 78.6713 211.765 78.6713 208.935H87.3291C87.5057 208.947 87.6827 208.919 87.8475 208.853C88.0123 208.788 88.1609 208.687 88.2828 208.557C88.4048 208.428 88.4971 208.272 88.5532 208.102C88.6094 207.933 88.6279 207.752 88.6077 207.574C88.6077 203.733 86.1173 201.053 82.5756 201.053C78.7529 201.051 76.2894 203.933 76.2894 208.356C76.2894 212.884 78.6866 215.553 82.7744 215.553H82.7731ZM78.6866 207.102C78.8331 204.69 80.3777 203.086 82.5343 203.086C84.6784 203.086 86.1563 204.677 86.2096 207.102H78.6866ZM93.1869 215.553C93.3465 215.555 93.5047 215.523 93.6515 215.46C93.7983 215.396 93.9305 215.303 94.0395 215.185C94.1485 215.067 94.2321 214.927 94.2849 214.775C94.3376 214.622 94.3584 214.46 94.3459 214.299V206.605C94.3459 204.812 95.2383 203.289 97.3286 203.289C97.7198 203.323 98.1107 203.219 98.4338 202.993C98.5546 202.895 98.6504 202.769 98.7131 202.626C98.7757 202.483 98.8033 202.327 98.7935 202.171C98.8016 202.027 98.7797 201.883 98.7292 201.748C98.6787 201.614 98.6008 201.491 98.5005 201.389C98.1922 201.14 97.8018 201.02 97.4088 201.052C96.6878 201.085 95.9955 201.347 95.431 201.802C94.8665 202.258 94.4588 202.882 94.2662 203.586H94.2128V202.238C94.2248 202.086 94.2054 201.933 94.1558 201.789C94.1063 201.645 94.0277 201.513 93.925 201.402C93.8223 201.29 93.6978 201.202 93.5594 201.141C93.421 201.081 93.2718 201.051 93.1211 201.052C92.9705 201.051 92.8212 201.081 92.6828 201.141C92.5444 201.202 92.4199 201.29 92.3172 201.402C92.2146 201.513 92.1359 201.645 92.0864 201.789C92.0368 201.933 92.0174 202.086 92.0294 202.238V214.301C92.0171 214.462 92.038 214.623 92.0907 214.775C92.1435 214.928 92.227 215.067 92.3359 215.185C92.4447 215.302 92.5766 215.396 92.7232 215.459C92.8697 215.523 93.0276 215.554 93.1869 215.553Z" fill="#00A6ED"/>
</svg>
