<svg width="258" height="201" viewBox="0 0 258 201" fill="none" xmlns="http://www.w3.org/2000/svg">
<path d="M25.5208 131.267C-42.8578 52.441 42.2167 12.995 93.3013 3.1252C168.059 -10.0622 229.112 20.5425 248.549 56.3724C267.986 92.2022 256.274 131.267 224.128 168.59C191.982 205.912 110.994 229.799 25.5208 131.267Z" fill="white"/>
<path opacity="0.35" d="M104.277 120.271C98.2283 123.232 92.6956 125.529 81.3057 125.529C69.9157 125.529 64.2237 123.253 58.025 120.135C58.6062 119.715 59.3161 119.513 60.0305 119.565C60.7904 119.371 61.7739 119.174 62.8074 118.962C74.5989 123.14 88.6491 123.112 100.386 118.721C101.977 118.986 103.44 119.394 104.277 120.271Z" fill="#C5EFFF"/>
<path d="M65.9208 74.221C65.6878 74.7391 65.4234 75.2423 65.129 75.7279C61.1414 78.0027 50.3803 82.1581 45.7151 79.7501C38.5256 76.0389 37.9478 62.5445 42.3136 56.7364C46.6794 50.9282 56.1877 49.6239 61.8887 52.5623C69.318 56.394 69.1629 66.9783 65.9226 74.2162L65.9208 74.221Z" fill="black"/>
<path d="M97.9304 75.9509C98.1614 76.4966 98.4271 77.0269 98.7257 77.5386C102.832 79.9821 113.958 84.5112 118.862 82.0942C126.418 78.3698 127.278 64.3299 122.841 58.1981C118.404 52.0662 108.533 50.5292 102.54 53.4785C94.7315 57.3271 94.6936 68.3496 97.9304 75.9491V75.9509Z" fill="black"/>
<path d="M79.7436 50.745C79.4244 50.7938 79.0961 50.8541 78.9536 50.8824C78.9067 50.8577 78.858 50.8354 78.8112 50.8131C79.1208 50.7866 79.4322 50.7643 79.7436 50.745Z" fill="white"/>
<path opacity="0.4" d="M42.8791 96.4361C42.8846 96.4735 42.8888 96.5132 42.8942 96.5506C42.831 96.5984 42.7652 96.6424 42.697 96.6826C42.6633 96.7031 42.6236 96.726 42.5828 96.7483C42.592 96.0073 42.6232 95.2543 42.6765 94.4892C42.6952 94.7562 42.718 95.0196 42.7439 95.283C42.7812 95.6706 42.8262 96.0564 42.8791 96.4343V96.4361Z" fill="white"/>
<path opacity="0.4" d="M119.72 96.6627C119.65 96.6193 119.596 96.582 119.556 96.5518C119.562 96.5144 119.568 96.4765 119.571 96.4373C119.623 96.0576 119.667 95.6736 119.706 95.286C119.733 95.0226 119.755 94.7592 119.774 94.4922C119.826 95.2577 119.858 96.0107 119.868 96.7513C119.811 96.7194 119.762 96.6911 119.717 96.6627H119.72Z" fill="white"/>
<path d="M122.828 97.4126C122.828 97.4126 122.812 97.4331 122.795 97.4523C121.927 98.4053 120.803 99.086 119.559 99.4125C120.143 99.9222 120.859 100.256 121.624 100.377C120.265 103.067 118.653 105.621 116.81 108.004C116.143 108.858 115.431 109.676 114.677 110.453C114.467 110.669 114.253 110.88 114.036 111.085C113.542 111.554 113.043 112.005 112.539 112.438C110.86 113.884 109.071 115.196 107.188 116.364C107.1 116.42 107.008 116.475 106.922 116.527C103.849 118.394 100.569 119.893 97.1473 120.993C91.9998 122.644 86.6312 123.498 81.2268 123.524C75.8218 123.498 70.4525 122.644 65.3045 120.993C61.8836 119.892 58.6031 118.393 55.5299 116.527C55.4644 116.485 55.3947 116.444 55.3291 116.403C53.423 115.226 51.6126 113.901 49.9149 112.438C49.4103 112.004 48.9113 111.552 48.418 111.084C48.1907 110.867 47.9641 110.645 47.7446 110.421C47.3545 110.02 46.9733 109.603 46.6078 109.177C46.3265 108.852 46.0523 108.521 45.7878 108.187C43.9035 105.775 42.2563 103.185 40.8689 100.455C40.8443 100.404 40.8317 100.378 40.8317 100.378C40.8317 100.378 40.8786 100.372 40.9627 100.357C41.6519 100.222 42.2964 99.9163 42.8372 99.4673C42.8576 99.4505 42.8787 99.4336 42.8973 99.4149C41.6527 99.088 40.5289 98.4073 39.6612 97.4548C39.6443 97.4359 39.6331 97.4226 39.6275 97.415H39.6762C40.661 97.4417 41.6374 97.2267 42.5204 96.7887C44.7532 96.5253 46.9198 96.33 47.601 94.746C54.5747 78.5108 73.5641 78.9117 78.2714 91.6346C79.7391 95.5607 79.8126 99.8741 78.4794 103.848C79.3295 103.808 80.1799 103.785 81.0308 103.779H81.4306C82.3348 103.784 83.2391 103.81 84.1437 103.856C82.8072 99.8801 82.88 95.5635 84.3499 91.6352C89.0572 78.9123 108.047 78.5114 115.02 94.7466C115.682 96.2818 117.735 96.5126 119.89 96.7652C120.784 97.2202 121.778 97.444 122.781 97.4162H122.83L122.828 97.4126Z" fill="white"/>
<path opacity="0.35" d="M121.622 100.375C121.622 100.375 118.468 106.881 114.033 111.084C111.859 113.143 109.474 114.967 106.918 116.525C103.846 118.392 100.565 119.891 97.1439 120.991C86.7962 124.369 75.6464 124.369 65.2987 120.991C61.8778 119.89 58.5973 118.391 55.5241 116.525C52.9687 114.967 50.5841 113.143 48.4098 111.084C43.9767 106.882 40.8229 100.375 40.8229 100.375C41.2908 100.304 41.7425 100.151 42.1569 99.9218C43.8614 102.941 45.9645 105.717 48.4092 108.172C50.5835 110.232 52.9681 112.056 55.5235 113.614C58.5962 115.481 61.8769 116.98 65.2981 118.08C75.6458 121.458 86.7956 121.458 97.1433 118.08C100.564 116.979 103.845 115.48 106.918 113.614C109.473 112.056 111.858 110.232 114.032 108.172C116.477 105.717 118.58 102.942 120.285 99.9224C120.698 100.152 121.15 100.306 121.619 100.376L121.622 100.375Z" fill="#B3B3B3"/>
<path d="M123.193 97.1202C123.146 97.0644 123.088 97.0197 123.021 96.9894C122.955 96.9592 122.883 96.9442 122.81 96.9454C121.919 96.971 121.034 96.7889 120.225 96.4132C120.177 96.3881 120.137 96.3488 120.111 96.3004C120.085 96.2521 120.075 96.197 120.081 96.1425C120.115 95.8791 120.145 95.6085 120.171 95.3337C120.228 94.7695 120.268 94.192 120.297 93.6128C120.38 91.761 120.334 89.9057 120.161 88.0602C119.876 85.1307 119.345 82.2306 118.572 79.3908C118.225 78.0958 117.812 76.8195 117.334 75.567C117.306 75.4934 117.28 75.4223 117.252 75.3506C117.201 75.221 117.148 75.089 117.096 74.9576C117.07 74.8919 117.041 74.8238 117.015 74.7563C117.004 74.7279 116.991 74.6996 116.98 74.6719C116.89 74.4501 116.8 74.2301 116.702 74.0089C116.239 72.9368 115.729 71.8884 115.173 70.8637C115.093 70.7148 115.012 70.5665 114.929 70.4201C113.571 67.9982 111.961 65.7276 110.125 63.6463C106.377 59.4002 101.773 56.0009 96.6162 53.6738C94.5791 52.76 92.4684 52.0212 90.3068 51.4653C89.8715 51.3526 89.4158 51.2435 88.9559 51.1416C88.5351 51.0476 88.1059 50.9608 87.6802 50.8818C87.3388 50.8179 86.9967 50.7577 86.654 50.701C86.127 50.6162 85.5967 50.5435 85.0633 50.4828C82.1857 49.0596 79.1043 48.0953 75.9302 47.6246C76.1309 47.724 79.0725 48.689 79.5475 50.2881C79.3112 50.3032 79.0767 50.3201 78.8405 50.3406C74.9941 48.0157 65.8357 48.695 65.8357 48.695C65.8357 48.695 71.042 48.7873 74.5444 50.9252C74.1897 50.9909 73.8392 51.0627 73.4864 51.1416C73.0265 51.2435 72.5726 51.3526 72.1355 51.4653C69.9742 52.0212 67.8639 52.76 65.8273 53.6738C60.6708 56.0004 56.0665 59.3992 52.3194 63.6451C50.4847 65.7267 48.8748 67.9971 47.5166 70.4183C47.4342 70.5647 47.3512 70.7136 47.2707 70.8619C46.7152 71.885 46.2062 72.9333 45.7437 74.0071C45.6367 74.2536 45.5315 74.5037 45.4287 74.7539C45.3198 75.0227 45.2146 75.2921 45.1094 75.5628V75.5664L45.104 75.5833C44.6272 76.829 44.2165 78.0992 43.8734 79.3884C43.1018 82.2285 42.5709 85.1288 42.2863 88.0584C42.1127 89.9041 42.0669 91.7596 42.1492 93.6116C42.1775 94.189 42.2184 94.7683 42.2749 95.3306C42.3013 95.6073 42.3314 95.8779 42.365 96.1413C42.3712 96.1958 42.3607 96.2509 42.335 96.2992C42.3092 96.3476 42.2694 96.3869 42.2208 96.412C41.4066 96.7899 40.5156 96.9721 39.6189 96.9442C39.5298 96.9444 39.4426 96.97 39.3676 97.0182C39.2925 97.0664 39.2328 97.1351 39.1955 97.2162C39.1581 97.2973 39.1447 97.3874 39.1568 97.4759C39.1688 97.5645 39.2059 97.6477 39.2636 97.7157C39.882 98.4038 40.6234 98.9697 41.4494 99.3842C41.4832 99.4004 41.5114 99.4262 41.5306 99.4584C41.5499 99.4905 41.5593 99.5277 41.5577 99.5651C41.5561 99.6026 41.5435 99.6388 41.5216 99.6692C41.4997 99.6996 41.4694 99.7229 41.4344 99.7362C41.2207 99.8171 40.999 99.8751 40.7731 99.9092C40.6987 99.9175 40.6274 99.9437 40.5652 99.9855C40.503 100.027 40.4517 100.084 40.4157 100.149C40.3797 100.215 40.36 100.289 40.3583 100.364C40.3566 100.439 40.3729 100.513 40.4058 100.581C40.5351 100.849 43.648 107.211 48.0943 111.427C53.2286 116.248 59.4239 119.787 66.1778 121.759C71.0624 123.217 76.1294 123.97 81.226 123.995C86.3219 123.97 91.3883 123.217 96.2723 121.759C103.026 119.787 109.221 116.248 114.356 111.427C118.805 107.213 121.914 100.849 122.044 100.581C122.077 100.513 122.093 100.439 122.091 100.364C122.089 100.289 122.069 100.215 122.033 100.15C121.997 100.084 121.945 100.028 121.883 99.9864C121.82 99.9448 121.749 99.919 121.675 99.911C121.449 99.8748 121.227 99.8162 121.013 99.7362C120.978 99.7229 120.948 99.6996 120.926 99.6693C120.904 99.6391 120.892 99.603 120.89 99.5657C120.888 99.5283 120.897 99.4912 120.916 99.459C120.935 99.4268 120.963 99.4008 120.996 99.3842C121.823 98.9694 122.565 98.4035 123.184 97.7157C123.254 97.6326 123.293 97.528 123.295 97.4194C123.296 97.3108 123.261 97.205 123.194 97.1196L123.193 97.1202ZM121.353 98.0906C120.779 98.4969 120.134 98.7904 119.451 98.9556C119.367 98.9757 119.29 99.0184 119.229 99.0791C119.167 99.1397 119.123 99.216 119.102 99.2998C119.081 99.3835 119.083 99.4715 119.109 99.5539C119.135 99.6363 119.183 99.7099 119.248 99.7663C119.656 100.121 120.123 100.401 120.627 100.594C120.665 100.608 120.699 100.63 120.728 100.659C120.756 100.687 120.778 100.722 120.793 100.759C120.807 100.797 120.813 100.837 120.81 100.878C120.808 100.918 120.797 100.957 120.778 100.993C119.781 102.861 117.11 107.524 113.714 110.744C102.467 121.402 88.5303 123.032 81.226 123.057C73.9186 123.032 59.9808 121.402 48.7358 110.744C45.3355 107.523 42.6668 102.862 41.6683 100.992C41.6491 100.957 41.6378 100.918 41.635 100.877C41.6322 100.837 41.638 100.797 41.6521 100.759C41.6662 100.721 41.6881 100.687 41.7165 100.658C41.7449 100.63 41.7791 100.608 41.8168 100.593C42.3226 100.401 42.7907 100.121 43.1995 99.7657C43.2647 99.7093 43.313 99.6357 43.3388 99.5533C43.3646 99.4709 43.3669 99.3829 43.3456 99.2992C43.3242 99.2154 43.2804 99.1391 43.219 99.0785C43.1575 99.0178 43.0807 98.9751 42.9969 98.955C42.314 98.7898 41.6686 98.4963 41.0948 98.09C41.0636 98.0684 41.0395 98.038 41.0254 98.0027C41.0113 97.9675 41.0079 97.9288 41.0155 97.8916C41.0231 97.8544 41.0415 97.8202 41.0683 97.7933C41.0951 97.7665 41.1292 97.7481 41.1663 97.7404C41.8864 97.6214 42.5711 97.3437 43.1712 96.9273C43.2386 96.877 43.2913 96.8095 43.3237 96.7317C43.3561 96.654 43.3669 96.5689 43.3552 96.4855C43.2987 96.0925 43.25 95.673 43.2067 95.2384C43.1544 94.6911 43.1129 94.1288 43.0865 93.5664C43.0057 91.7584 43.0503 89.947 43.2199 88.1452C43.4998 85.2686 44.0213 82.4207 44.7788 79.6319C45.1255 78.3452 45.5394 77.0777 46.019 75.8346L46.0244 75.8231C46.028 75.8117 46.0316 75.8027 46.0359 75.7912C46.0401 75.7797 46.0359 75.7858 46.0395 75.7816C46.0467 75.7593 46.0581 75.7345 46.0677 75.7098C49.7781 66.2933 57.0023 58.697 66.2073 54.5333C67.1511 54.1102 68.113 53.7246 69.0929 53.3766C70.1698 52.9949 71.2618 52.6614 72.3688 52.3761C72.7944 52.2652 73.2393 52.1579 73.6878 52.0602C74.2713 51.9304 74.8585 51.8151 75.4492 51.7142L75.6897 51.6745C75.7648 51.6612 75.8418 51.6479 75.9169 51.6371C75.9201 51.6361 75.9234 51.6361 75.9265 51.6371C76.0786 51.6124 76.2307 51.5901 76.3822 51.5678C77.9856 51.3307 79.6021 51.1938 81.2223 51.1579C82.839 51.1939 84.4518 51.3302 86.0516 51.566C86.0817 51.5696 86.1117 51.5732 86.1418 51.5792C86.4009 51.6166 86.6576 51.66 86.9167 51.7034L86.9841 51.7148C87.1324 51.7394 87.2806 51.7657 87.4289 51.7938H87.4325C87.875 51.8764 88.3163 51.965 88.7551 52.0626C89.2036 52.1603 89.6461 52.2676 90.0723 52.3785C91.1773 52.6624 92.2732 52.9975 93.3482 53.379C94.3275 53.725 95.2918 54.1126 96.2338 54.5357C105.44 58.6988 112.666 66.2951 116.378 75.7122L116.456 75.9154C116.456 75.9154 116.456 75.9154 116.456 75.919C116.925 77.1355 117.328 78.3761 117.665 79.6356C118.424 82.424 118.947 85.2719 119.228 88.1488C119.397 89.9506 119.442 91.762 119.361 93.57C119.333 94.1324 119.292 94.6965 119.237 95.242C119.196 95.6766 119.147 96.0961 119.091 96.4891C119.08 96.5726 119.09 96.6576 119.123 96.7354C119.155 96.8131 119.208 96.8807 119.275 96.931C119.876 97.3472 120.561 97.6247 121.281 97.7435C121.317 97.7516 121.35 97.7701 121.377 97.7967C121.403 97.8233 121.421 97.857 121.428 97.8936C121.436 97.9302 121.433 97.9682 121.419 98.003C121.406 98.0379 121.383 98.0681 121.352 98.09L121.353 98.0906Z" fill="black"/>
<path d="M123.418 96.9442C123.346 96.8546 123.254 96.7826 123.15 96.7338C123.046 96.6849 122.932 96.6604 122.817 96.6621C121.978 96.6841 121.144 96.5194 120.376 96.1799C120.373 96.179 120.37 96.1769 120.369 96.1741C120.367 96.1714 120.366 96.1681 120.367 96.1649C120.4 95.9069 120.43 95.6344 120.457 95.3596C120.511 94.8087 120.554 94.2252 120.582 93.6236C120.666 91.7586 120.621 89.89 120.447 88.0313C120.16 85.0859 119.625 82.17 118.849 79.3149C118.504 78.0271 118.094 76.7577 117.622 75.5115L117.518 75.2445C117.468 75.1149 117.415 74.9811 117.362 74.8497L117.332 74.7744C117.316 74.7328 117.299 74.6918 117.282 74.6466L117.246 74.5622C117.154 74.3386 117.062 74.1161 116.965 73.8943C116.502 72.8202 115.984 71.754 115.425 70.7269C115.344 70.5762 115.264 70.4255 115.179 70.279C113.811 67.8399 112.189 65.553 110.341 63.4565C106.566 59.181 101.929 55.7585 96.7359 53.4158C94.6847 52.4948 92.5588 51.7509 90.3814 51.1922C89.9444 51.0777 89.4863 50.9686 89.021 50.865C88.6079 50.7727 88.1751 50.6841 87.7356 50.6034C87.3659 50.534 87.0286 50.4756 86.7016 50.4225L86.6812 50.4189C86.1635 50.3363 85.6495 50.2646 85.1506 50.208H85.1451C82.3284 48.8065 79.3109 47.8542 76.2014 47.3853C76.098 47.3684 76.0307 47.3569 76.0024 47.3515L73.6602 46.7783C73.6564 46.7774 73.6524 46.7779 73.6489 46.7798C73.6455 46.7817 73.6428 46.7847 73.6414 46.7884C73.64 46.792 73.64 46.7961 73.6413 46.7998C73.6427 46.8035 73.6453 46.8065 73.6488 46.8084L75.8082 47.8789C75.8347 47.8922 75.8966 47.9163 75.9922 47.9543C77.8456 48.6703 78.6939 49.3701 79.063 49.921C78.9897 49.9982 79.0029 49.9849 78.9277 50.0621C75.0537 47.7807 66.7839 48.6251 66.2621 48.6625C66.2549 48.6625 65.7162 48.6794 65.7162 48.6872L73.7402 50.7968L73.4269 50.8644C72.9749 50.9638 72.5168 51.0753 72.0671 51.1898C69.8906 51.7502 67.7654 52.4946 65.7144 53.4152C60.5217 55.7586 55.8848 59.1815 52.1109 63.4571C50.2642 65.5546 48.6431 67.8414 47.2744 70.2796C47.192 70.4285 47.1073 70.5768 47.0267 70.7275C46.4658 71.76 45.95 72.8251 45.4883 73.8949C45.3813 74.1433 45.2743 74.3952 45.1715 74.6472C45.0608 74.9178 44.9556 75.1897 44.8504 75.4597L44.7831 75.6327L44.7867 75.6363C44.3315 76.8411 43.9376 78.0682 43.6066 79.3131C42.8302 82.1691 42.2955 85.0857 42.0081 88.0319C41.8345 89.8907 41.7897 91.7593 41.874 93.6242C41.904 94.227 41.9455 94.8129 41.9996 95.3566C42.0261 95.629 42.0561 95.899 42.088 96.1522C42.0888 96.1554 42.0886 96.1588 42.0873 96.1619C42.086 96.1649 42.0837 96.1674 42.0808 96.1691C41.3187 96.5176 40.487 96.6863 39.6496 96.6621C39.4861 96.657 39.3251 96.7038 39.1897 96.7959C39.1054 96.8561 39.0344 96.933 38.9811 97.022C38.9279 97.111 38.8935 97.21 38.8803 97.3129C38.867 97.4158 38.8751 97.5203 38.904 97.6199C38.933 97.7195 38.9821 97.8121 39.0484 97.8917C39.6423 98.5588 40.3491 99.1153 41.1363 99.5354C41.0089 99.5738 40.8792 99.604 40.748 99.6259C40.6285 99.6385 40.5138 99.6799 40.4137 99.7465C40.3135 99.813 40.2309 99.9028 40.1727 100.008C40.1145 100.114 40.0826 100.232 40.0795 100.352C40.0765 100.472 40.1024 100.592 40.1552 100.7C40.1853 100.766 43.3727 107.334 47.9032 111.628C53.0692 116.479 59.3026 120.041 66.0979 122.025C71.0091 123.492 76.1039 124.249 81.2285 124.274C86.3518 124.249 91.4454 123.492 96.3554 122.025C103.151 120.04 109.385 116.479 114.552 111.628C119.083 107.334 122.268 100.766 122.3 100.7C122.352 100.592 122.377 100.474 122.374 100.354C122.371 100.235 122.339 100.118 122.282 100.013C122.225 99.9081 122.143 99.8184 122.045 99.7514C121.946 99.6844 121.833 99.642 121.714 99.6277H121.711C121.577 99.606 121.445 99.5752 121.315 99.5354C122.1 99.1131 122.806 98.5576 123.401 97.8935C123.512 97.7607 123.574 97.5938 123.577 97.4207C123.58 97.2475 123.524 97.0785 123.418 96.9418V96.9442ZM45.7775 75.6833C45.7755 75.6862 45.7743 75.6895 45.7738 75.693V75.6893C45.7748 75.6872 45.776 75.6852 45.7775 75.6833Z" fill="black"/>
<path d="M62.3003 145.512C62.2931 144.904 59.9984 145.952 60.002 145.34C59.9987 142.106 60.2124 138.874 60.6416 135.668C60.6735 135.431 60.709 135.194 60.745 134.959C60.8653 134.174 60.9953 133.415 61.1352 132.681C61.9083 128.633 55.8502 122.095 58.0265 120.136C58.4112 119.79 59.8691 119.666 60.852 119.643C61.4926 119.382 62.1464 119.154 62.8107 118.96C65.0825 118.492 67.5835 117.947 68.4221 117.185C71.713 114.192 75.9284 112.905 81.0523 112.881H81.1725C86.2964 112.906 90.5101 114.194 93.8003 117.185C94.9504 118.229 97.8337 118.293 100.389 118.72C101.98 118.987 97.4699 119.092 104.28 120.272C104.601 120.329 104.685 120.778 104.811 121.088C105.931 123.87 100.873 131.018 101.475 134.957C101.977 138.403 102.226 141.882 102.218 145.365C102.222 145.976 101.087 145.699 101.079 146.305" fill="#FCFEFF"/>
<path d="M75.9728 144.641C77.0233 144.641 77.8749 143.787 77.8749 142.734C77.8749 141.68 77.0233 140.826 75.9728 140.826C74.9223 140.826 74.0706 141.68 74.0706 142.734C74.0706 143.787 74.9223 144.641 75.9728 144.641Z" fill="#0D1338"/>
<path d="M75.9942 137.049C77.0447 137.049 77.8963 136.195 77.8963 135.142C77.8963 134.089 77.0447 133.235 75.9942 133.235C74.9437 133.235 74.0921 134.089 74.0921 135.142C74.0921 136.195 74.9437 137.049 75.9942 137.049Z" fill="#0D1338"/>
<path d="M86.2228 144.641C87.2733 144.641 88.1249 143.787 88.1249 142.734C88.1249 141.68 87.2733 140.826 86.2228 140.826C85.1723 140.826 84.3206 141.68 84.3206 142.734C84.3206 143.787 85.1723 144.641 86.2228 144.641Z" fill="#0D1338"/>
<path d="M86.2423 137.049C87.2928 137.049 88.1444 136.195 88.1444 135.142C88.1444 134.089 87.2928 133.235 86.2423 133.235C85.1917 133.235 84.3401 134.089 84.3401 135.142C84.3401 136.195 85.1917 137.049 86.2423 137.049Z" fill="#0D1338"/>
<path d="M72.0322 128.099C69.8271 130.449 68.5219 133.504 68.3476 136.725C68.1071 141.556 68.1264 147.506 68.2238 152.605C67.9009 152.563 67.5895 152.519 67.2859 152.475C67.1903 147.391 67.1717 141.486 67.4134 136.676C67.5983 133.233 68.9926 129.966 71.3493 127.454C72.6064 126.11 73.2911 126.746 72.0322 128.099Z" fill="#0D1338"/>
<path d="M61.1298 135.55C60.8388 135.435 60.5406 135.317 60.2346 135.188L61.1298 135.55ZM101.982 135.194C101.676 135.314 101.376 135.435 101.087 135.544L101.982 135.194Z" fill="black"/>
<path d="M60.1544 135.77C60.2313 134.745 61.5708 128.586 62.2086 129.049C62.2706 129.073 62.3212 129.12 62.3498 129.18C62.3784 129.241 62.3829 129.309 62.3625 129.373C62.0464 130.436 61.7883 131.516 61.5894 132.608C61.3754 133.697 61.2443 134.809 61.0772 135.903C61.0511 136.019 60.9826 136.12 60.8852 136.187C60.7879 136.254 60.6688 136.282 60.552 136.265C60.4351 136.248 60.329 136.187 60.2548 136.095C60.1807 136.003 60.1439 135.886 60.152 135.768L60.1544 135.77Z" fill="#0D1338"/>
<path d="M102.057 135.796C101.905 134.004 100.648 128.587 100.013 129.049C99.951 129.073 99.9005 129.12 99.8719 129.18C99.8433 129.241 99.8387 129.309 99.8592 129.373C100.175 130.437 100.433 131.517 100.632 132.608C100.846 133.698 100.976 134.809 101.141 135.906C101.167 136.017 101.233 136.115 101.326 136.181C101.42 136.247 101.534 136.276 101.648 136.262C101.761 136.249 101.866 136.194 101.941 136.108C102.017 136.022 102.058 135.911 102.057 135.796Z" fill="#0D1338"/>
<path d="M122.828 97.4131C122.828 97.4131 122.811 97.4336 122.794 97.4529C121.926 98.4064 120.801 99.0878 119.556 99.4149C120.142 99.9231 120.858 100.256 121.623 100.376C120.264 103.066 118.652 105.62 116.809 108.004C116.143 108.858 115.431 109.676 114.676 110.452C114.466 110.669 114.252 110.88 114.035 111.087C113.541 111.553 113.043 112.003 112.54 112.437C110.86 113.883 109.071 115.195 107.189 116.363C107.099 116.42 107.009 116.474 106.923 116.527C103.849 118.394 100.568 119.894 97.1463 120.995C91.9989 122.646 86.6303 123.5 81.2259 123.526C75.8209 123.5 70.4516 122.646 65.3036 120.995C61.8825 119.894 58.6019 118.394 55.529 116.527C55.4617 116.487 55.3938 116.446 55.3282 116.406C53.4225 115.229 51.6122 113.904 49.914 112.442C49.4094 112.007 48.9098 111.556 48.4153 111.089C48.188 110.871 47.9632 110.649 47.7437 110.426C47.3518 110.024 46.9728 109.61 46.6069 109.182C46.3264 108.857 46.053 108.526 45.7869 108.191C43.9005 105.777 42.2521 103.186 40.865 100.453C40.8404 100.402 40.8278 100.376 40.8278 100.376C40.8718 100.371 40.9155 100.364 40.9588 100.355C41.6483 100.221 42.293 99.9153 42.8333 99.4655C42.8537 99.4486 42.8748 99.4318 42.8934 99.4149C41.6484 99.0878 40.5244 98.4064 39.6573 97.4529C39.6404 97.434 39.6292 97.4208 39.6236 97.4131H39.6723C40.657 97.4386 41.6331 97.2237 42.5165 96.7869C42.5838 96.7513 42.6439 96.7152 42.6968 96.6832C42.765 96.6432 42.8308 96.5993 42.894 96.5518C42.8886 96.5144 42.8844 96.4765 42.879 96.4373C42.8267 96.0575 42.7834 95.6736 42.7437 95.286C42.6892 94.7275 42.6491 94.1619 42.6235 93.5893C42.5403 91.76 42.5849 89.9272 42.7569 88.1042C43.0377 85.2012 43.5642 82.3273 44.3308 79.5138C46.1409 72.8519 49.6781 66.7893 54.5829 61.9424C59.4876 57.0955 65.585 53.6373 72.2551 51.9192C72.6957 51.8046 73.1424 51.6992 73.5891 51.5991C74.2456 51.4544 74.9091 51.3265 75.5796 51.2151C74.043 49.3792 69.3508 49.0916 69.2498 48.9578C70.1972 48.9428 75.154 49.1989 78.8121 50.8125C78.859 50.833 78.9077 50.8577 78.9546 50.8818C79.0971 50.8535 79.4253 50.7932 79.7446 50.7444H79.7578C79.9787 50.7038 80.2029 50.6836 80.4275 50.6841C80.3547 50.2254 80.1557 49.7962 79.8528 49.4448C79.5498 49.0934 79.1551 48.8337 78.713 48.695C78.8103 48.7173 83.9096 49.8801 84.6322 50.9071C86.0524 51.0612 87.4633 51.2926 88.8585 51.6003C89.307 51.6998 89.7512 51.8052 90.1943 51.9204C96.8647 53.6377 102.963 57.0954 107.868 61.9418C112.773 66.7883 116.311 72.8507 118.122 79.5126C118.888 82.3263 119.414 85.2001 119.696 88.103C119.868 89.926 119.913 91.7588 119.829 93.5881C119.801 94.1599 119.76 94.7255 119.706 95.2848C119.668 95.6722 119.623 96.0559 119.572 96.4361C119.567 96.4759 119.561 96.5132 119.555 96.5506C119.595 96.5807 119.649 96.6181 119.719 96.6615C119.768 96.6916 119.824 96.7254 119.888 96.761C120.23 96.9459 120.593 97.0886 120.97 97.1859C121.561 97.3381 122.17 97.4139 122.78 97.4113L122.828 97.4131Z" fill="#FCFEFF"/>
<path opacity="0.49" d="M122.376 97.5427C122.376 97.5427 122.359 97.5614 122.344 97.5801C121.239 98.3929 119.987 98.9817 118.658 99.3136C119.444 99.8872 120.332 100.304 121.275 100.542C119.792 103.085 118.145 105.529 116.345 107.857C115.717 108.658 112.678 111.555 112.197 111.967C110.428 113.307 108.568 114.522 106.63 115.603C103.776 117.324 100.823 118.873 97.7864 120.244C96.471 120.855 87.1509 123.861 83.723 122.808C98.8818 118.167 102.775 101.08 102.775 84.3636C102.775 81.2654 107.893 82.6011 107.18 79.7224C108.683 76.0697 104.482 65.2026 100.567 61.1624C96.4356 56.9021 86.5714 51.8493 85.8921 51.4092C87.1095 51.5557 94.1883 53.8432 96.0923 54.6973C105.507 58.9165 114.231 68.9047 117.294 80.3619C118.024 83.0399 118.526 85.7755 118.793 88.5388C118.957 90.2748 119 92.0203 118.92 93.7623C118.892 94.3048 118.855 94.8472 118.8 95.3783C118.765 95.7471 118.721 96.1136 118.673 96.4747C118.667 96.512 118.663 96.5482 118.658 96.5838C118.695 96.6121 118.746 96.6477 118.813 96.6892C118.858 96.7176 118.913 96.7495 118.973 96.7851C119.299 96.9603 119.644 97.0961 120.002 97.1895C120.765 97.3819 121.544 97.4997 122.329 97.5415H122.376V97.5427Z" fill="#C5EFFF"/>
<path d="M85.6095 96.591C85.4634 97.6428 84.1215 99.3522 82.3504 99.1038C80.5794 98.8555 79.0915 97.1853 79.2399 96.1335C79.3884 95.0817 80.7182 95.2438 82.5945 95.2474C84.3602 95.2474 85.7555 95.541 85.6076 96.5922L85.6095 96.591Z" fill="black"/>
<path d="M88.6724 101.842C88.4886 101.919 88.3121 102.013 88.1451 102.122C88.1777 102.663 88.1558 103.206 88.0796 103.742C87.5578 107.457 84.6463 110.12 81.573 109.688C78.4998 109.256 76.6199 106.186 76.9013 102.672C76.6591 102.414 76.3818 102.19 76.0776 102.009C75.5431 101.755 75.1265 101.304 74.9139 100.751C74.7013 100.197 74.709 99.5831 74.9354 99.0351C75.018 98.7676 75.1468 98.5167 75.3159 98.2938C75.4921 98.0472 75.7698 98.2263 75.6947 98.5084C75.6946 98.5155 75.6928 98.5226 75.6893 98.5289C75.1903 100.458 75.9442 101.264 77.0888 102.085C77.9617 102.582 78.9704 102.787 79.9674 102.669C80.9645 102.551 81.8978 102.116 82.6311 101.429C83.2871 101.918 84.059 102.228 84.8706 102.327C85.6823 102.427 86.5058 102.313 87.2602 101.996C88.7066 101.251 89.7761 100.623 89.5002 98.4402V98.4197C89.4629 98.1322 89.7629 97.9888 89.9054 98.2564C90.0437 98.4995 90.1395 98.7645 90.1886 99.04C90.3422 99.6124 90.2709 100.222 89.9892 100.743C89.7075 101.265 89.237 101.657 88.6748 101.841L88.6724 101.842Z" fill="black"/>
<path d="M71.5518 95.4042C70.9386 99.7868 68.6439 105.874 59.5522 103.998C54.0214 102.858 52.5335 97.5427 53.7719 93.2933C55.5935 87.0428 60.2743 85.1694 64.646 85.786C69.0178 86.4027 72.1674 91.0216 71.5518 95.4042Z" fill="black"/>
<path d="M62.7495 95.3927C63.5825 95.3927 64.2578 94.7156 64.2578 93.8804C64.2578 93.0452 63.5825 92.3681 62.7495 92.3681C61.9164 92.3681 61.2411 93.0452 61.2411 93.8804C61.2411 94.7156 61.9164 95.3927 62.7495 95.3927Z" fill="white"/>
<path d="M65.6535 99.964C66.4411 99.964 67.0795 99.3239 67.0795 98.5343C67.0795 97.7447 66.4411 97.1046 65.6535 97.1046C64.866 97.1046 64.2275 97.7447 64.2275 98.5343C64.2275 99.3239 64.866 99.964 65.6535 99.964Z" fill="white"/>
<path d="M67.7027 81.3697C67.4664 82.0393 66.3705 80.8766 61.2412 81.8362C57.8247 82.4757 55.6785 85.0772 54.9017 84.1176C54.5639 83.6999 57.2542 81.5728 60.6406 80.8296C63.8431 80.1262 67.9516 80.662 67.7003 81.3721L67.7027 81.3697Z" fill="black"/>
<path d="M86.4569 105.673C86.4214 106.081 86.2759 106.472 86.0361 106.803C85.4902 107.752 82.6695 109.279 81.7473 108.793C80.8149 108.305 80.6237 107.21 80.9519 106.196C81.1722 105.399 81.5743 104.663 82.1266 104.048C82.3774 103.73 82.7036 103.48 83.0756 103.32C83.4475 103.161 83.8533 103.098 84.256 103.136C84.5668 103.157 84.8703 103.24 85.1491 103.379C85.428 103.518 85.6768 103.711 85.8812 103.947C86.0856 104.182 86.2417 104.456 86.3405 104.752C86.4393 105.048 86.4788 105.361 86.4569 105.673Z" fill="#CE111F"/>
<path d="M93.1111 91.6948C92.4805 96.1866 93.0246 102.833 102.509 103.56C108.276 104.002 111.242 99.1883 111.219 94.6538C111.186 87.9801 107.105 84.8084 102.622 84.1767C98.14 83.545 93.7388 87.2031 93.1088 91.6954L93.1111 91.6948Z" fill="black"/>
<path d="M99.8309 93.9003C100.684 93.9003 101.376 93.2065 101.376 92.3506C101.376 91.4948 100.684 90.8009 99.8309 90.8009C98.9772 90.8009 98.2852 91.4948 98.2852 92.3506C98.2852 93.2065 98.9772 93.9003 99.8309 93.9003Z" fill="white"/>
<path d="M98.0414 97.9116C98.8475 97.9116 99.5011 97.2564 99.5011 96.4481C99.5011 95.6399 98.8475 94.9846 98.0414 94.9846C97.2352 94.9846 96.5817 95.6399 96.5817 96.4481C96.5817 97.2564 97.2352 97.9116 98.0414 97.9116Z" fill="white"/>
<path d="M108.556 82.3196C108.111 82.8748 107.463 81.4113 102.304 80.6229C98.8688 80.0961 95.9867 81.838 95.5707 80.6753C95.3904 80.1672 98.6307 79.0479 102.071 79.4734C105.325 79.8706 109.029 81.7362 108.556 82.3196Z" fill="black"/>
<path d="M80.0061 115.737C80.7942 116.115 81.6562 116.312 82.5295 116.314C83.4029 116.316 84.2659 116.124 85.056 115.751C85.0783 115.741 85.1031 115.741 85.126 115.748C85.1489 115.756 85.1683 115.771 85.1808 115.792C85.1933 115.813 85.198 115.837 85.1941 115.861C85.1901 115.885 85.1778 115.906 85.1594 115.922C84.3855 116.456 83.4677 116.741 82.5284 116.739C81.589 116.736 80.6725 116.448 79.9009 115.91C79.8907 115.902 79.8822 115.892 79.8761 115.88C79.8699 115.869 79.866 115.856 79.8648 115.843C79.8636 115.83 79.865 115.816 79.8689 115.804C79.8728 115.791 79.8792 115.779 79.8876 115.769C79.9015 115.753 79.9202 115.741 79.941 115.736C79.9619 115.731 79.9838 115.733 80.0037 115.741L80.0061 115.737Z" fill="#0D1338"/>
<path d="M94.2467 126.241H67.3697V149.522H94.2467V126.241Z" fill="#00A6ED"/>
<path d="M94.2471 149.99H67.3696C67.2457 149.99 67.1269 149.941 67.0393 149.853C66.9517 149.765 66.9025 149.646 66.9025 149.522V126.241C66.9025 126.117 66.9517 125.998 67.0393 125.91C67.1269 125.822 67.2457 125.773 67.3696 125.773H94.2465C94.3704 125.773 94.4893 125.822 94.5769 125.91C94.6645 125.998 94.7137 126.117 94.7137 126.241V149.524C94.713 149.648 94.6636 149.766 94.5762 149.854C94.4888 149.941 94.3705 149.99 94.2471 149.99ZM67.8373 149.052H93.7782V126.709H67.8373V149.052Z" fill="black"/>
<path d="M64.6208 153.907L67.3712 149.522V126.241L64.6208 133.406V153.907Z" fill="#00A6ED"/>
<path d="M64.6207 154.375C64.5769 154.376 64.5333 154.369 64.4914 154.357C64.3939 154.328 64.3082 154.269 64.2473 154.188C64.1863 154.106 64.1535 154.007 64.1536 153.905V133.404C64.1538 133.346 64.1646 133.288 64.1854 133.234L66.9358 126.07C66.976 125.969 67.0498 125.885 67.1444 125.833C67.2391 125.781 67.3489 125.763 67.4552 125.783C67.5614 125.803 67.6576 125.859 67.7273 125.942C67.797 126.024 67.836 126.129 67.8376 126.237V149.518C67.8377 149.607 67.8129 149.694 67.7661 149.769L65.0157 154.153C64.9737 154.22 64.9154 154.276 64.8462 154.314C64.777 154.353 64.6992 154.373 64.6201 154.373L64.6207 154.375ZM65.0878 133.492V152.278L66.9022 149.385V128.766L65.0878 133.492Z" fill="black"/>
<path d="M96.9979 153.907L94.2475 149.522V126.241L96.9979 133.406V153.907Z" fill="#00A6ED"/>
<path d="M96.9984 154.375C96.9191 154.375 96.8412 154.355 96.7719 154.317C96.7026 154.278 96.6442 154.222 96.6022 154.155L93.8518 149.771C93.805 149.696 93.7802 149.609 93.7803 149.521V126.239C93.7819 126.131 93.8209 126.026 93.8906 125.944C93.9603 125.861 94.0564 125.805 94.1627 125.785C94.2689 125.765 94.3787 125.783 94.4734 125.835C94.5681 125.888 94.6418 125.971 94.682 126.072L97.4324 133.237C97.4532 133.291 97.464 133.348 97.4643 133.406V153.907C97.464 154.009 97.431 154.107 97.3701 154.189C97.3092 154.27 97.2237 154.33 97.1264 154.358C97.0845 154.371 97.0409 154.377 96.9972 154.377L96.9984 154.375ZM94.7139 149.385L96.5283 152.278V133.492L94.7139 128.765V149.385Z" fill="black"/>
<path d="M96.9986 133.405H64.6208V153.906H96.9986V133.405Z" fill="#00A6ED"/>
<g opacity="0.4">
<path d="M96.9986 133.405H64.6208V134.69H96.9986V133.405Z" fill="white"/>
</g>
<g opacity="0.35">
<path d="M96.9986 132.245H64.6208V133.53H96.9986V132.245Z" fill="#0D1338"/>
</g>
<g opacity="0.35">
<path d="M96.9986 151.964H64.6208V153.907H96.9986V151.964Z" fill="#0D1338"/>
</g>
<path d="M96.9985 154.375H64.6207C64.5593 154.375 64.4986 154.363 64.4419 154.339C64.3852 154.316 64.3338 154.281 64.2904 154.238C64.247 154.194 64.2126 154.143 64.1891 154.086C64.1656 154.029 64.1536 153.968 64.1536 153.907V133.405C64.1536 133.281 64.2028 133.162 64.2904 133.074C64.378 132.986 64.4968 132.937 64.6207 132.937H96.9985C97.1223 132.937 97.2412 132.986 97.3288 133.074C97.4164 133.162 97.4656 133.281 97.4656 133.405V153.904C97.4659 153.966 97.454 154.027 97.4307 154.084C97.4074 154.141 97.373 154.193 97.3296 154.237C97.2862 154.281 97.2346 154.316 97.1778 154.339C97.1209 154.363 97.06 154.375 96.9985 154.375ZM65.0878 153.437H96.5295V133.874H65.0878V153.437Z" fill="black"/>
<path d="M111.374 135.014V135.026C110.529 138.652 108.352 141.825 105.278 143.915C105.2 143.967 105.121 144.02 105.038 144.073L104.991 144.103C104.919 144.15 104.847 144.195 104.773 144.239L104.7 144.284C104.64 144.321 104.576 144.359 104.514 144.395C104.484 144.413 104.454 144.43 104.424 144.447C104.364 144.483 104.304 144.516 104.244 144.553C104.215 144.568 104.187 144.585 104.159 144.6C104.09 144.639 104.02 144.677 103.951 144.714C103.938 144.72 103.926 144.727 103.915 144.733C103.848 144.768 103.782 144.805 103.713 144.838C103.679 144.857 103.643 144.874 103.609 144.891C103.529 144.932 103.446 144.973 103.365 145.011C103.27 145.058 103.174 145.104 103.076 145.149C102.978 145.194 102.889 145.236 102.793 145.277C102.786 145.28 102.778 145.282 102.771 145.286C102.679 145.328 102.585 145.367 102.491 145.407C102.485 145.41 102.478 145.412 102.471 145.414C102.379 145.454 102.287 145.491 102.193 145.527C102.189 145.527 102.186 145.53 102.182 145.53L101.876 145.651C101.773 145.691 101.671 145.728 101.566 145.764C101.461 145.799 101.358 145.837 101.253 145.871C101.042 145.943 100.832 146.008 100.613 146.072C98.379 146.705 96.066 147.012 93.7447 146.987H92.9944C91.3548 147.059 89.716 146.826 88.1615 146.298C87.5935 146.074 87.077 145.736 86.6435 145.305C86.3954 145.051 86.1837 144.765 86.0147 144.453C85.5969 143.626 85.4011 142.704 85.4465 141.778C85.5349 138.942 87.4407 137.307 90.6768 137.29C91.583 137.221 92.4284 137.122 93.2132 136.995C93.23 136.995 93.2469 136.989 93.2619 136.987C98.108 136.197 100.614 134.329 100.717 131.419C100.72 130.929 100.614 130.445 100.407 130.001C100.36 129.926 100.319 129.843 100.273 129.754C100.22 129.624 100.144 129.503 100.05 129.397L99.9398 129.313L99.9284 129.175C99.9284 129.15 99.9079 129.123 99.9212 129.102C100.904 127.61 101.495 123.912 101.833 121.578C102.484 121.294 103.125 120.975 103.75 120.654C103.75 120.641 104.336 120.368 104.448 120.304C106.352 121.175 107.969 122.571 109.11 124.33C111.178 127.441 112.085 131.737 111.369 135.016L111.374 135.014Z" fill="#FCFEFF"/>
<path d="M85.9044 144.457C86.0728 144.769 86.2845 145.056 86.5333 145.309C86.9671 145.74 87.4835 146.078 88.0513 146.302C89.6058 146.83 91.2446 147.064 92.8842 146.991H93.5767C95.569 142.318 94.3817 138.927 93.1529 136.989C93.136 136.989 93.121 136.995 93.1042 136.997C92.3198 137.123 91.4744 137.221 90.5678 137.292C87.3316 137.311 85.4271 138.943 85.3375 141.78C85.2919 142.706 85.488 143.628 85.9063 144.455L85.9044 144.457Z" fill="black"/>
<path opacity="0.4" d="M94.1151 138.424C93.2257 138.528 92.2709 138.608 91.2505 138.666C88.2151 138.679 86.1813 139.58 85.4479 141.186V141.066C85.5362 138.655 87.442 137.261 90.6782 137.245C91.5843 137.185 92.4298 137.102 93.2145 136.995C93.2314 136.995 93.2482 136.99 93.2632 136.988C93.5981 137.435 93.8837 137.916 94.1151 138.424Z" fill="white"/>
<path d="M93.2064 147.408H92.8818C91.1892 147.477 89.4985 147.232 87.895 146.685C87.276 146.439 86.713 146.07 86.2399 145.6C85.9648 145.319 85.7304 145.001 85.5438 144.655C85.0917 143.765 84.8783 142.772 84.9245 141.773V141.768C84.917 141.089 85.0541 140.416 85.3265 139.794C85.5989 139.172 86.0005 138.616 86.5045 138.162C87.6572 137.261 89.0933 136.805 90.5528 136.875C91.4383 136.805 92.2752 136.71 93.0405 136.585L93.3615 136.535L93.5076 136.764C94.8416 138.864 96.0031 142.37 93.9633 147.154L93.8563 147.405H93.5557C93.4415 147.405 93.3248 147.405 93.2088 147.405L93.2064 147.408ZM86.2742 144.257C86.4247 144.535 86.6129 144.79 86.8333 145.016C87.2279 145.408 87.6985 145.714 88.216 145.917C89.7213 146.42 91.306 146.643 92.8914 146.573H93.3044C94.9877 142.426 94.0859 139.357 92.9479 137.443C92.2217 137.553 91.4317 137.642 90.6033 137.706H90.5732C87.5511 137.725 85.8401 139.173 85.7572 141.79C85.7148 142.643 85.8931 143.492 86.2748 144.256L86.2742 144.257Z" fill="black"/>
<path opacity="0.49" d="M111.371 135.014V135.026C110.526 138.652 108.35 141.825 105.276 143.915C105.197 143.967 105.118 144.02 105.035 144.073L104.988 144.103C104.917 144.15 104.844 144.195 104.771 144.239L104.698 144.284C104.637 144.321 104.574 144.359 104.512 144.395C104.482 144.413 104.452 144.43 104.422 144.447C104.361 144.483 104.301 144.516 104.241 144.553C104.213 144.568 104.185 144.585 104.156 144.6C104.087 144.639 104.018 144.677 103.948 144.714C103.935 144.72 103.924 144.727 103.913 144.733C103.846 144.768 103.78 144.805 103.71 144.838C103.677 144.857 103.641 144.874 103.607 144.891C103.526 144.932 103.444 144.973 103.363 145.011C103.267 145.058 103.172 145.104 103.074 145.149C102.977 145.194 102.887 145.236 102.791 145.277C102.784 145.28 102.776 145.282 102.769 145.286C102.677 145.328 102.583 145.367 102.489 145.407C102.483 145.41 102.476 145.412 102.469 145.414C102.377 145.454 102.285 145.491 102.191 145.527C102.188 145.527 102.183 145.53 102.18 145.53L101.874 145.651C101.77 145.691 101.669 145.728 101.564 145.764C101.459 145.799 101.356 145.837 101.251 145.871C101.041 145.943 100.83 146.008 100.611 146.072C98.3771 146.704 96.0641 147.012 93.7428 146.987H92.9913C91.3518 147.059 89.713 146.826 88.1584 146.298C87.5905 146.074 87.074 145.736 86.6404 145.305C86.3926 145.051 86.1812 144.765 86.0122 144.453C85.7278 143.912 85.5494 143.321 85.4868 142.712C85.5055 142.75 85.5241 142.786 85.5433 142.822C85.7116 143.134 85.9231 143.421 86.1715 143.674C86.6054 144.104 87.1218 144.442 87.6895 144.667C89.244 145.195 90.8828 145.428 92.5224 145.356H93.2727C95.594 145.382 97.907 145.074 100.141 144.442C100.357 144.378 100.569 144.312 100.781 144.24L101.094 144.133C101.199 144.096 101.3 144.058 101.404 144.02C101.507 143.983 101.608 143.943 101.71 143.9C101.713 143.9 101.717 143.896 101.721 143.896L101.999 143.784C102.004 143.784 102.012 143.778 102.019 143.776C102.113 143.737 102.205 143.697 102.299 143.656C102.306 143.652 102.314 143.65 102.321 143.646C102.417 143.605 102.51 143.561 102.604 143.518C102.698 143.476 102.797 143.428 102.893 143.381C102.976 143.342 103.056 143.3 103.137 143.26L103.241 143.208C103.308 143.174 103.376 143.138 103.443 143.102L103.479 143.084C103.548 143.046 103.618 143.008 103.687 142.969C103.715 142.954 103.743 142.939 103.771 142.922C103.831 142.887 103.891 142.853 103.951 142.817C103.982 142.8 104.012 142.783 104.042 142.764C104.102 142.728 104.165 142.69 104.227 142.653L104.301 142.608L104.518 142.472C104.535 142.462 104.55 142.451 104.565 142.442C104.646 142.389 104.725 142.336 104.806 142.284C107.879 140.194 110.055 137.02 110.897 133.394V133.382C111.264 131.495 111.214 129.55 110.751 127.685C111.605 130.028 111.818 132.559 111.369 135.013L111.371 135.014Z" fill="#C5EFFF"/>
<path d="M111.973 135.183C109.913 143.652 102.234 147.745 93.6434 147.607C91.0655 147.483 87.5198 147.811 85.8593 145.322C85.1675 144.338 84.8061 143.159 84.8278 141.955C84.8494 140.751 85.2528 139.586 85.9796 138.628C87.0677 137.224 88.6626 136.94 90.6886 136.754C94.4448 136.406 98.8983 136.107 100.017 132.014C100.23 131.159 100.164 130.258 99.8289 129.443C99.8088 129.403 99.7991 129.359 99.8007 129.315C99.8015 129.273 99.8129 129.231 99.8339 129.194C99.8549 129.157 99.8849 129.126 99.9209 129.104C99.9318 129.097 99.9438 129.091 99.9564 129.087C100.005 129.074 100.057 129.073 100.106 129.085C100.155 129.096 100.201 129.12 100.24 129.153C100.757 129.799 101.035 130.605 101.026 131.434C100.853 136.244 94.6245 137.303 90.6856 137.606C87.6088 137.676 85.8437 138.983 85.7559 141.787C85.6754 146.549 89.9696 146.697 93.739 146.678C102.889 146.678 109.105 142.536 111.063 134.948C112.181 129.832 109.316 121.177 102.059 119.857C101.96 119.838 101.864 119.776 101.77 119.763C101.729 119.757 101.601 119.623 101.504 119.661C101.684 119.586 101.958 119.594 102.134 119.515C102.459 119.372 102.814 119.25 103.131 119.097C103.159 119.104 103.187 119.11 103.213 119.118C109.507 120.805 113.373 129.042 111.969 135.182L111.973 135.183Z" fill="black"/>
<path d="M50.7386 134.901V134.913C51.5836 138.539 53.7598 141.713 56.834 143.802C56.9127 143.855 56.9915 143.908 57.0745 143.96L57.1214 143.99C57.1929 144.037 57.2656 144.083 57.339 144.126L57.4123 144.171C57.4724 144.208 57.5362 144.246 57.5981 144.282C57.6281 144.301 57.6582 144.318 57.6883 144.334C57.7484 144.37 57.8085 144.404 57.8686 144.44C57.8969 144.455 57.9251 144.472 57.9528 144.487C58.0219 144.526 58.0917 144.564 58.1608 144.601C58.174 144.608 58.1854 144.615 58.1963 144.62C58.2636 144.656 58.3297 144.692 58.3989 144.726C58.4325 144.744 58.468 144.761 58.5023 144.779C58.5828 144.82 58.6652 144.861 58.7463 144.899C58.8419 144.946 58.9375 144.991 59.0355 145.037C59.1335 145.082 59.2231 145.123 59.3187 145.164L59.3409 145.174C59.4329 145.216 59.5267 145.255 59.6205 145.295C59.6269 145.298 59.6338 145.301 59.6409 145.302C59.7329 145.342 59.8249 145.38 59.9186 145.415C59.9223 145.415 59.9259 145.419 59.9301 145.419L60.2361 145.539C60.3395 145.579 60.4405 145.617 60.5457 145.652C60.6509 145.688 60.7537 145.726 60.8589 145.759C61.0687 145.831 61.2797 145.897 61.4986 145.961C63.7327 146.593 66.0457 146.901 68.367 146.875H69.1173C70.7569 146.948 72.3957 146.714 73.9502 146.187C74.5182 145.962 75.0346 145.624 75.4682 145.193C75.7161 144.94 75.9275 144.653 76.0964 144.341C76.5145 143.514 76.7105 142.592 76.6651 141.666C76.5768 138.83 74.671 137.195 71.4349 137.178C70.5287 137.108 69.6832 137.01 68.8985 136.883C68.8817 136.883 68.8648 136.877 68.8498 136.875C64.0037 136.085 61.4974 134.217 61.3952 131.307C61.3914 130.817 61.4972 130.333 61.7048 129.889C61.7516 129.814 61.7931 129.731 61.8382 129.642C61.892 129.512 61.9674 129.391 62.0613 129.285L62.1719 129.201L62.1833 129.063C62.1833 129.038 62.2037 129.011 62.1905 128.99C61.2076 127.498 60.6166 123.8 60.2788 121.465C59.6277 121.181 58.9862 120.863 58.3616 120.542C58.3616 120.529 57.776 120.256 57.6636 120.192C55.7594 121.062 54.1421 122.458 53.0015 124.217C50.934 127.328 50.0262 131.624 50.7428 134.903L50.7386 134.901Z" fill="#FCFEFF"/>
<path d="M76.2082 144.342C76.04 144.654 75.8285 144.941 75.5799 145.194C75.1461 145.625 74.6297 145.962 74.0619 146.187C72.5074 146.715 70.8686 146.948 69.2291 146.876H68.5353C66.543 142.203 67.7303 138.811 68.9591 136.874C68.976 136.874 68.991 136.88 69.0078 136.882C69.7922 137.008 70.6376 137.106 71.5442 137.177C74.7803 137.196 76.6849 138.829 76.7745 141.665C76.82 142.592 76.624 143.514 76.2058 144.34L76.2082 144.342Z" fill="black"/>
<path opacity="0.4" d="M68.0004 138.31C68.8898 138.413 69.8447 138.494 70.8651 138.551C73.9004 138.564 75.9342 139.465 76.6677 141.071V140.951C76.5793 138.54 74.6735 137.145 71.4374 137.13C70.5312 137.07 69.6857 136.987 68.901 136.88C68.8842 136.88 68.8673 136.874 68.8523 136.872C68.5176 137.319 68.2319 137.8 68.0004 138.307V138.31Z" fill="white"/>
<path d="M68.9108 147.293H69.2355C70.928 147.363 72.6187 147.118 74.2222 146.57C74.8413 146.324 75.4043 145.955 75.8773 145.485C76.1524 145.205 76.3868 144.887 76.5735 144.541C77.0256 143.651 77.2389 142.658 77.1927 141.659V141.654C77.2001 140.975 77.0631 140.302 76.7906 139.68C76.5182 139.059 76.1166 138.502 75.6128 138.048C74.4601 137.148 73.0239 136.692 71.5644 136.761C70.6789 136.692 69.842 136.596 69.0767 136.472L68.7557 136.421L68.6096 136.651C67.2756 138.751 66.1141 142.257 68.1539 147.04L68.2609 147.292H68.5615C68.6758 147.292 68.7924 147.292 68.9084 147.292L68.9108 147.293ZM75.843 144.143C75.6925 144.42 75.5044 144.675 75.2839 144.901C74.8893 145.293 74.4187 145.6 73.9012 145.802C72.3959 146.306 70.8112 146.528 69.2258 146.459H68.8128C67.1295 142.311 68.0313 139.243 69.1693 137.328C69.8955 137.439 70.6855 137.528 71.5139 137.591H71.544C74.5661 137.61 76.2777 139.059 76.36 141.675C76.4024 142.528 76.2241 143.377 75.8424 144.141L75.843 144.143Z" fill="black"/>
<path opacity="0.49" d="M50.7425 134.901V134.913C51.5881 138.538 53.7643 141.71 56.8378 143.799C56.9166 143.852 56.9954 143.905 57.0783 143.957L57.1252 143.987C57.1968 144.034 57.2695 144.079 57.3428 144.123L57.4162 144.168C57.4763 144.205 57.54 144.243 57.6019 144.279C57.632 144.298 57.6621 144.315 57.6921 144.331C57.7522 144.367 57.8124 144.401 57.8725 144.437C57.9007 144.452 57.929 144.469 57.9566 144.484C58.0258 144.523 58.0955 144.561 58.1647 144.598C58.1779 144.604 58.1893 144.612 58.2001 144.617C58.2675 144.653 58.3336 144.688 58.4027 144.723C58.4364 144.741 58.4719 144.758 58.5061 144.775C58.5867 144.817 58.669 144.858 58.7502 144.896C58.8458 144.943 58.9414 144.988 59.0394 145.033C59.1374 145.078 59.2269 145.119 59.3225 145.161C59.3297 145.164 59.3376 145.166 59.3448 145.17C59.4367 145.212 59.5305 145.251 59.6243 145.291C59.6308 145.294 59.6377 145.297 59.6448 145.298C59.7367 145.338 59.8287 145.375 59.9225 145.411C59.9261 145.411 59.9297 145.415 59.9339 145.415L60.2399 145.535C60.3433 145.575 60.4443 145.612 60.5495 145.648C60.6547 145.683 60.7575 145.721 60.8628 145.755C61.0732 145.827 61.2836 145.893 61.5024 145.956C63.7366 146.589 66.0496 146.897 68.3709 146.871H69.1212C70.7607 146.943 72.3995 146.71 73.9541 146.183C74.522 145.958 75.0385 145.62 75.472 145.189C75.7199 144.936 75.9314 144.649 76.1003 144.337C76.3847 143.796 76.563 143.205 76.6257 142.597C76.6071 142.634 76.5884 142.67 76.5692 142.706C76.4009 143.018 76.1894 143.305 75.941 143.558C75.5071 143.989 74.9907 144.327 74.423 144.551C72.8685 145.079 71.2297 145.313 69.5901 145.24H68.8398C66.5185 145.266 64.2055 144.958 61.9713 144.325C61.7555 144.261 61.5433 144.196 61.3317 144.124L61.0185 144.017C60.9133 143.979 60.8123 143.941 60.7089 143.904C60.6055 143.867 60.5045 143.827 60.4029 143.784C60.3992 143.784 60.395 143.78 60.3914 143.78L60.1137 143.667C60.1083 143.667 60.1005 143.661 60.0932 143.659C59.9995 143.62 59.9075 143.58 59.8137 143.539L59.7915 143.529C59.6959 143.488 59.6021 143.444 59.5083 143.401C59.4145 143.359 59.3153 143.311 59.2191 143.264C59.1368 143.224 59.0562 143.183 58.975 143.143L58.8716 143.091C58.8043 143.057 58.7364 143.022 58.669 142.985L58.6336 142.967C58.5638 142.929 58.4947 142.891 58.4256 142.852C58.3973 142.837 58.3691 142.822 58.3414 142.805C58.2813 142.77 58.2212 142.736 58.161 142.7C58.131 142.683 58.1009 142.666 58.0709 142.647C58.0108 142.612 57.947 142.574 57.8851 142.536L57.8118 142.491L57.5941 142.356C57.5773 142.346 57.5623 142.335 57.5472 142.325C57.4667 142.273 57.3879 142.22 57.3068 142.168C54.2333 140.078 52.0582 136.904 51.215 133.278V133.267C50.8486 131.38 50.8985 129.435 51.3611 127.569C50.5073 129.913 50.2941 132.443 50.7437 134.898L50.7425 134.901Z" fill="#C5EFFF"/>
<path d="M50.1386 135.069C52.1988 143.537 59.8777 147.63 68.468 147.493C71.0459 147.369 74.5916 147.696 76.2521 145.207C76.9441 144.223 77.3055 143.044 77.2839 141.84C77.2622 140.636 76.8587 139.471 76.1318 138.512C75.0437 137.109 73.4488 136.825 71.4228 136.639C67.6666 136.291 63.2131 135.992 62.0949 131.899C61.8816 131.044 61.9473 130.143 62.2824 129.328C62.3026 129.288 62.3124 129.244 62.3107 129.2C62.3099 129.157 62.2985 129.116 62.2775 129.079C62.2565 129.042 62.2265 129.011 62.1905 128.989C62.1796 128.982 62.1676 128.976 62.155 128.972C62.106 128.959 62.0546 128.958 62.0053 128.97C61.9559 128.981 61.9101 129.005 61.8718 129.038C61.354 129.684 61.076 130.49 61.0855 131.319C61.258 136.129 67.4869 137.188 71.4258 137.491C74.5026 137.56 76.2683 138.868 76.3555 141.672C76.436 146.434 72.1418 146.582 68.3724 146.563C59.2224 146.563 53.0068 142.421 51.0482 134.833C49.93 129.716 52.806 121.039 60.0659 119.719C60.1651 119.7 60.2613 119.685 60.3569 119.672C60.3983 119.666 60.4861 119.645 60.5258 119.641C60.3454 119.566 60.1561 119.478 59.9799 119.4C59.6553 119.258 59.3006 119.135 58.9838 118.983C58.9555 118.99 58.9273 118.996 58.9014 119.003C52.6071 120.691 48.7415 128.927 50.1458 135.067L50.1386 135.069Z" fill="black"/>
<path d="M57.3908 120.544C57.6091 120.691 57.8516 120.859 58.1108 121.05C59.4945 122.06 60.7377 123.251 61.8078 124.591C62.9225 126.052 63.8832 127.624 64.6744 129.283C64.7848 129.509 64.8876 129.724 64.9811 129.926L66.0951 127.312C65.7958 126.841 65.1954 125.93 64.3929 124.875C63.107 123.114 61.5822 121.541 59.8625 120.202C59.5577 119.931 59.1756 119.763 58.7702 119.721C58.5619 119.756 58.368 119.85 58.2118 119.992L58.0814 120.087C58.0245 120.129 57.9569 120.178 57.8841 120.225L57.8807 120.228C57.7075 120.34 57.5428 120.446 57.3885 120.542M55.8484 120.537C56.4423 120.294 57.0117 119.994 57.5489 119.643C57.645 119.58 58.4912 119.329 58.5919 119.256C59.1327 118.861 58.8576 118.63 60.2436 119.642C63.9146 122.324 66.9925 127.244 66.9925 127.244L64.983 131.957C64.0214 129.509 62.7429 127.199 61.1804 125.086C59.7064 123.245 57.897 121.701 55.8484 120.537Z" fill="black"/>
<path d="M105.576 120.537C105.576 120.537 104.889 120.152 103.975 119.56C103.364 119.159 102.734 118.358 101.09 119.56C97.4194 122.241 94.4325 127.243 94.4325 127.243L96.4405 131.955C97.4025 129.508 98.6813 127.199 100.244 125.086C101.718 123.245 103.527 121.702 105.576 120.537Z" fill="white"/>
<path d="M104.034 120.545C103.815 120.691 103.573 120.86 103.313 121.05C101.93 122.061 100.687 123.251 99.6165 124.591C98.5018 126.052 97.5411 127.624 96.7499 129.284C96.6395 129.509 96.5367 129.725 96.4432 129.926L95.3297 127.313C95.629 126.842 96.2294 125.93 97.0319 124.876C98.3178 123.114 99.8426 121.542 101.562 120.203C101.867 119.932 102.249 119.764 102.655 119.722C102.863 119.756 103.057 119.851 103.213 119.993L103.343 120.088C103.4 120.129 103.467 120.178 103.54 120.226L103.543 120.228C103.716 120.34 103.881 120.446 104.035 120.542M105.576 120.537C105.576 120.537 104.889 120.152 103.975 119.56C103.879 119.497 103.782 119.424 103.681 119.35C103.14 118.956 102.476 118.547 101.09 119.56C97.4194 122.241 94.4325 127.243 94.4325 127.243L96.4405 131.955C97.4025 129.508 98.6813 127.199 100.244 125.086C101.718 123.245 103.527 121.702 105.576 120.537Z" fill="black"/>
<path d="M143.255 72.7251C143.854 72.7409 144.45 72.6359 145.008 72.416C145.566 72.1962 146.076 71.8659 146.506 71.4446C146.937 71.0233 147.28 70.5195 147.516 69.9625C147.751 69.4056 147.874 68.8067 147.878 68.201C147.877 67.5946 147.755 66.9946 147.52 66.4366C147.286 65.8785 146.943 65.3737 146.512 64.952C146.081 64.5302 145.57 64.2001 145.011 63.9812C144.451 63.7623 143.854 63.659 143.255 63.6773C142.655 63.659 142.058 63.7623 141.498 63.9812C140.939 64.2001 140.429 64.5302 139.998 64.952C139.567 65.3737 139.224 65.8785 138.989 66.4366C138.754 66.9946 138.633 67.5946 138.631 68.201C138.635 68.8067 138.758 69.4056 138.994 69.9625C139.229 70.5195 139.572 71.0233 140.003 71.4446C140.433 71.8659 140.943 72.1962 141.501 72.416C142.06 72.6359 142.656 72.7409 143.255 72.7251ZM143.255 109.457C145.924 109.457 147.582 107.75 147.582 104.904V80.6347C147.582 77.7884 145.922 76.051 143.255 76.051C140.558 76.051 138.928 77.7888 138.928 80.6347V104.902C138.928 107.749 140.558 109.456 143.255 109.456V109.457ZM170.005 109.457C172.554 109.457 174.332 107.899 174.332 104.904V98.4007L177.088 95.8242L185.239 106.729C186.603 108.797 187.64 109.456 189.477 109.456C191.908 109.456 193.597 107.838 193.597 105.501C193.597 104.362 193.33 103.583 192.382 102.295L183.52 90.8806L191.611 83.1511C192.856 81.9826 193.241 81.174 193.241 79.8557C193.248 79.3465 193.152 78.8413 192.959 78.3707C192.767 77.9001 192.482 77.474 192.122 77.1182C191.761 76.7624 191.333 76.4843 190.863 76.3008C190.393 76.1174 189.891 76.0324 189.388 76.051C188.084 76.051 187.106 76.5602 185.95 77.7888L174.451 89.4426H174.333V69.5193C174.333 66.5232 172.555 64.9356 170.006 64.9356C167.487 64.9356 165.679 66.5232 165.679 69.5193V104.902C165.679 107.898 167.486 109.456 170.005 109.456V109.457ZM214.746 72.7251C215.345 72.7409 215.941 72.6359 216.5 72.416C217.058 72.1962 217.567 71.8659 217.998 71.4446C218.428 71.0233 218.771 70.5195 219.007 69.9625C219.243 69.4056 219.366 68.8067 219.37 68.201C219.368 67.5946 219.247 66.9945 219.012 66.4364C218.777 65.8783 218.434 65.3735 218.003 64.9517C217.572 64.5299 217.062 64.1998 216.502 63.9808C215.943 63.7619 215.346 63.6585 214.746 63.6769C214.147 63.6585 213.549 63.7619 212.99 63.9808C212.43 64.1998 211.92 64.5299 211.489 64.9517C211.058 65.3735 210.715 65.8783 210.48 66.4364C210.246 66.9945 210.124 67.5946 210.123 68.201C210.126 68.8067 210.25 69.4056 210.485 69.9625C210.721 70.5195 211.064 71.0233 211.494 71.4446C211.925 71.8659 212.434 72.1962 212.993 72.416C213.551 72.6359 214.147 72.7409 214.746 72.7251ZM214.746 109.457C217.415 109.457 219.073 107.75 219.073 104.904V80.6347C219.073 77.7884 217.413 76.051 214.746 76.051C212.049 76.051 210.419 77.7888 210.419 80.6347V104.902C210.419 107.749 212.049 109.456 214.746 109.456V109.457Z" fill="#00A6ED"/>
<path d="M137.77 138.818C137.925 138.82 138.079 138.789 138.222 138.726C138.365 138.663 138.494 138.57 138.6 138.454C138.707 138.337 138.788 138.199 138.84 138.048C138.891 137.897 138.911 137.736 138.899 137.577V131.665H138.951C139.375 132.446 140.001 133.092 140.758 133.532C141.516 133.973 142.377 134.19 143.246 134.161C146.646 134.161 148.969 131.331 148.969 126.981C148.969 122.63 146.634 119.801 143.194 119.801C142.307 119.78 141.43 120.011 140.661 120.467C139.892 120.924 139.26 121.589 138.834 122.39H138.782V120.976C138.794 120.825 138.775 120.674 138.726 120.531C138.678 120.389 138.602 120.258 138.501 120.147C138.401 120.037 138.28 119.949 138.145 119.89C138.01 119.83 137.865 119.8 137.718 119.801C137.57 119.798 137.424 119.827 137.287 119.886C137.151 119.945 137.028 120.033 136.927 120.143C136.826 120.254 136.748 120.385 136.698 120.528C136.649 120.672 136.63 120.824 136.641 120.976V137.577C136.629 137.736 136.649 137.897 136.7 138.047C136.752 138.198 136.833 138.337 136.939 138.453C137.045 138.57 137.174 138.663 137.317 138.726C137.46 138.788 137.614 138.82 137.77 138.818ZM142.753 132.118C140.443 132.118 138.885 130.077 138.885 126.981C138.885 123.898 140.443 121.843 142.753 121.843C145.153 121.843 146.659 123.844 146.659 126.981C146.658 130.13 145.152 132.118 142.752 132.118H142.753ZM156.235 134.16C157.122 134.164 157.994 133.922 158.759 133.459C159.524 132.996 160.154 132.33 160.582 131.531H160.634V132.986C160.623 133.137 160.643 133.29 160.692 133.433C160.741 133.576 160.819 133.708 160.92 133.818C161.022 133.929 161.144 134.016 161.281 134.075C161.417 134.134 161.564 134.163 161.711 134.16C161.858 134.162 162.004 134.132 162.138 134.072C162.273 134.012 162.395 133.924 162.495 133.814C162.595 133.704 162.671 133.573 162.72 133.43C162.768 133.288 162.787 133.136 162.775 132.986V124.325C162.775 121.562 160.777 119.801 157.611 119.801C155.418 119.801 153.445 120.801 152.679 122.323C152.512 122.615 152.418 122.945 152.408 123.284C152.401 123.421 152.421 123.559 152.468 123.688C152.515 123.817 152.589 123.935 152.683 124.033C152.777 124.131 152.89 124.208 153.015 124.258C153.14 124.308 153.274 124.331 153.408 124.325C153.6 124.337 153.791 124.29 153.957 124.19C154.123 124.09 154.257 123.942 154.342 123.765C154.631 123.152 155.092 122.642 155.665 122.299C156.237 121.957 156.896 121.798 157.557 121.843C159.426 121.843 160.516 122.857 160.516 124.552V125.713L156.636 125.94C153.521 126.126 151.743 127.621 151.743 129.997C151.744 132.492 153.548 134.16 156.234 134.16H156.235ZM156.741 132.185C155.119 132.185 154.042 131.318 154.042 129.997C154.042 128.689 155.081 127.86 156.896 127.742L160.517 127.515V128.648C160.516 130.651 158.867 132.185 156.74 132.185H156.741ZM167.835 134.16C167.991 134.162 168.145 134.131 168.288 134.068C168.431 134.006 168.56 133.913 168.666 133.796C168.772 133.679 168.854 133.541 168.905 133.39C168.956 133.239 168.977 133.079 168.965 132.919V125.3C168.965 123.525 169.834 122.017 171.871 122.017C172.253 122.051 172.633 121.947 172.948 121.724C173.066 121.627 173.159 121.502 173.22 121.361C173.282 121.219 173.308 121.064 173.299 120.91C173.307 120.767 173.285 120.625 173.236 120.491C173.187 120.358 173.111 120.237 173.013 120.136C172.713 119.889 172.332 119.77 171.949 119.802C171.247 119.834 170.572 120.094 170.022 120.545C169.472 120.996 169.075 121.614 168.887 122.311H168.835V120.977C168.847 120.826 168.828 120.674 168.779 120.531C168.731 120.388 168.654 120.257 168.554 120.146C168.453 120.035 168.331 119.948 168.196 119.888C168.061 119.829 167.915 119.799 167.767 119.801C167.621 119.799 167.475 119.829 167.34 119.889C167.205 119.949 167.084 120.037 166.984 120.147C166.884 120.257 166.807 120.388 166.759 120.531C166.711 120.673 166.692 120.825 166.703 120.975V132.919C166.691 133.079 166.712 133.239 166.763 133.39C166.815 133.541 166.896 133.68 167.002 133.797C167.109 133.913 167.238 134.006 167.381 134.069C167.524 134.131 167.679 134.163 167.834 134.16H167.835ZM176.684 130.717C176.684 132.932 177.775 134.027 179.955 134.027H180.098C181.356 134.027 181.746 133.655 181.746 132.946C181.746 132.399 181.408 132.092 180.669 132.039L180.474 132.025C179.345 131.945 178.942 131.384 178.942 130.21V121.949H180.681C180.812 121.97 180.946 121.959 181.072 121.919C181.198 121.879 181.314 121.811 181.411 121.719C181.509 121.626 181.584 121.513 181.633 121.387C181.682 121.26 181.703 121.124 181.694 120.989C181.694 120.388 181.332 120.041 180.681 120.041H178.942V117.665C178.955 117.506 178.934 117.346 178.883 117.195C178.832 117.044 178.75 116.906 178.644 116.789C178.538 116.672 178.409 116.579 178.266 116.517C178.123 116.454 177.969 116.422 177.813 116.424C177.658 116.422 177.503 116.454 177.36 116.517C177.217 116.579 177.088 116.672 176.982 116.789C176.876 116.906 176.794 117.044 176.743 117.195C176.692 117.346 176.671 117.506 176.684 117.665V120.041H175.554C174.905 120.041 174.542 120.388 174.542 120.988C174.533 121.124 174.553 121.26 174.602 121.386C174.651 121.512 174.727 121.626 174.824 121.718C174.921 121.81 175.037 121.879 175.164 121.919C175.29 121.959 175.423 121.969 175.554 121.949H176.684L176.684 130.717ZM186.155 134.16C186.31 134.162 186.464 134.131 186.607 134.068C186.75 134.006 186.879 133.913 186.985 133.796C187.092 133.679 187.173 133.541 187.225 133.39C187.276 133.239 187.296 133.079 187.284 132.919V125.753C187.284 123.404 188.673 121.856 190.801 121.856C192.879 121.856 193.902 123.084 193.902 125.326V132.919C193.89 133.078 193.91 133.239 193.962 133.39C194.013 133.541 194.094 133.679 194.201 133.796C194.307 133.912 194.436 134.005 194.579 134.068C194.722 134.13 194.876 134.162 195.031 134.16C195.187 134.162 195.341 134.13 195.484 134.068C195.627 134.005 195.756 133.912 195.862 133.796C195.969 133.679 196.05 133.541 196.101 133.39C196.153 133.239 196.173 133.078 196.161 132.919V124.912C196.161 121.763 194.448 119.802 191.489 119.802C189.4 119.802 187.959 120.762 187.207 122.257H187.155V120.976C187.166 120.825 187.148 120.674 187.099 120.531C187.051 120.389 186.974 120.258 186.874 120.147C186.774 120.037 186.653 119.949 186.518 119.89C186.383 119.83 186.238 119.8 186.091 119.801C185.944 119.8 185.798 119.829 185.663 119.889C185.528 119.948 185.407 120.036 185.306 120.147C185.206 120.257 185.129 120.388 185.081 120.53C185.033 120.673 185.014 120.825 185.025 120.975V132.919C185.013 133.079 185.033 133.239 185.085 133.39C185.136 133.541 185.217 133.679 185.324 133.796C185.43 133.913 185.559 134.006 185.702 134.068C185.845 134.131 185.999 134.162 186.155 134.16ZM205.749 134.16C208.215 134.16 210.109 133.092 210.979 131.211C211.076 130.997 211.133 130.766 211.147 130.53C211.155 130.394 211.134 130.258 211.086 130.13C211.038 130.003 210.964 129.888 210.87 129.792C210.775 129.696 210.662 129.622 210.538 129.574C210.413 129.527 210.28 129.507 210.148 129.516C209.98 129.511 209.813 129.552 209.665 129.634C209.517 129.716 209.393 129.836 209.304 129.983C208.253 131.558 207.267 132.145 205.658 132.145C203.244 132.145 201.752 130.41 201.752 127.608H210.189C210.361 127.619 210.533 127.592 210.694 127.527C210.855 127.462 211 127.362 211.118 127.234C211.237 127.105 211.327 126.951 211.382 126.783C211.437 126.615 211.455 126.437 211.435 126.26C211.435 122.457 209.008 119.803 205.556 119.803C201.831 119.801 199.43 122.655 199.43 127.034C199.43 131.518 201.767 134.16 205.75 134.16H205.749ZM201.767 125.793C201.909 123.404 203.415 121.816 205.516 121.816C207.606 121.816 209.046 123.391 209.098 125.793H201.767ZM215.898 134.16C216.053 134.162 216.207 134.131 216.35 134.068C216.493 134.006 216.622 133.913 216.728 133.796C216.835 133.679 216.916 133.541 216.968 133.39C217.019 133.239 217.039 133.079 217.027 132.919V125.3C217.027 123.525 217.897 122.017 219.934 122.017C220.315 122.051 220.696 121.947 221.011 121.724C221.129 121.627 221.222 121.502 221.283 121.361C221.344 121.219 221.371 121.064 221.361 120.91C221.369 120.767 221.348 120.625 221.299 120.491C221.25 120.358 221.174 120.237 221.076 120.136C220.775 119.889 220.395 119.77 220.012 119.802C219.309 119.834 218.635 120.094 218.084 120.545C217.534 120.996 217.137 121.614 216.949 122.311H216.897V120.977C216.909 120.826 216.89 120.675 216.842 120.532C216.793 120.39 216.717 120.259 216.617 120.148C216.517 120.038 216.395 119.95 216.261 119.89C216.126 119.831 215.98 119.801 215.833 119.802C215.687 119.801 215.541 119.831 215.406 119.89C215.271 119.95 215.15 120.038 215.05 120.148C214.95 120.259 214.873 120.39 214.825 120.532C214.777 120.675 214.758 120.826 214.769 120.977V132.921C214.758 133.08 214.778 133.24 214.829 133.391C214.881 133.541 214.962 133.679 215.068 133.796C215.174 133.913 215.303 134.005 215.446 134.068C215.588 134.131 215.742 134.162 215.898 134.16Z" fill="#00A6ED"/>
</svg>
