<svg width="259" height="183" viewBox="0 0 259 183" fill="none" xmlns="http://www.w3.org/2000/svg">
<g clip-path="url(#clip0_314_541)">
<mask id="mask0_314_541" style="mask-type:luminance" maskUnits="userSpaceOnUse" x="0" y="0" width="259" height="183">
<path d="M259 0H0V183H259V0Z" fill="white"/>
</mask>
<g mask="url(#mask0_314_541)">
<path opacity="0.35" d="M85.861 118.293C79.0785 121.598 72.8747 124.162 60.103 124.162C47.3312 124.162 40.9484 121.621 33.9978 118.139C34.4289 117.753 35.1486 117.526 36.2467 117.503C37.0994 117.287 38.2031 117.066 39.3603 116.829C52.5824 121.493 68.3372 121.461 81.4979 116.56C83.2816 116.858 84.9225 117.314 85.861 118.293Z" fill="#C5EFFF"/>
<path d="M42.8498 66.8804C42.5887 67.4601 42.2922 68.0233 41.962 68.5667C37.4916 71.1035 25.4246 75.7426 20.1921 73.0545C12.1312 68.9112 11.4834 53.8456 16.3788 47.3608C21.2742 40.876 31.9359 39.4208 38.3291 42.701C46.6597 46.9786 46.4828 58.7954 42.852 66.8764L42.8498 66.8804Z" fill="black"/>
<path d="M78.7441 68.8123C79.0033 69.4214 79.3012 70.0134 79.6362 70.5845C84.2411 73.3125 96.7163 78.3692 102.216 75.6708C110.689 71.5128 111.653 55.8384 106.677 48.9921C101.702 42.1459 90.6343 40.4305 83.9129 43.7232C75.1572 48.0197 75.1151 60.3259 78.7435 68.8099H78.7456L78.7441 68.8123Z" fill="black"/>
<path d="M58.3526 40.6723C57.995 40.7268 57.6268 40.7941 57.4669 40.8255C57.4136 40.7989 57.3603 40.7723 57.307 40.7478C57.6542 40.7186 58.0033 40.6933 58.3526 40.6723Z" fill="white"/>
<path opacity="0.4" d="M17.012 91.6828C17.0184 91.7248 17.0224 91.7689 17.0288 91.8107C16.958 91.8639 16.8843 91.913 16.8079 91.9578C16.77 91.9809 16.7258 92.0062 16.6794 92.0312C16.6899 91.2038 16.725 90.3631 16.7847 89.5091C16.8057 89.8073 16.8311 90.1012 16.8604 90.3951C16.9025 90.8279 16.9528 91.2582 17.0117 91.6803L17.012 91.6828Z" fill="white"/>
<path opacity="0.4" d="M103.178 91.9357C103.1 91.8873 103.039 91.8453 102.995 91.8117C103.001 91.7697 103.007 91.7277 103.011 91.6835C103.07 91.258 103.118 90.8311 103.163 90.3983C103.192 90.1044 103.217 89.8102 103.238 89.512C103.297 90.3667 103.333 91.2074 103.345 92.0341C103.282 91.9985 103.227 91.9647 103.177 91.9354L103.178 91.9357Z" fill="white"/>
<path d="M106.663 92.7735C106.663 92.7735 106.644 92.7967 106.625 92.8177C105.652 93.8816 104.392 94.6416 102.996 95.006C103.651 95.5745 104.454 95.9471 105.312 96.0811C103.788 99.0843 101.98 101.936 99.9139 104.597C99.1663 105.55 98.3678 106.463 97.5219 107.331C97.2863 107.572 97.0465 107.808 96.8024 108.036C96.2491 108.559 95.6895 109.063 95.1237 109.547C93.2408 111.161 91.2348 112.626 89.1238 113.929C89.0249 113.992 88.924 114.053 88.8251 114.112C85.3797 116.196 81.701 117.869 77.8648 119.097C72.0927 120.942 66.0724 121.896 60.0119 121.926C53.9509 121.896 47.93 120.942 42.1574 119.097C38.322 117.868 34.6441 116.195 31.1987 114.112C31.1251 114.065 31.0473 114.019 30.9735 113.973C28.836 112.659 26.806 111.179 24.9022 109.546C24.3362 109.061 23.7767 108.557 23.2235 108.034C22.969 107.793 22.7143 107.545 22.4683 107.291C22.0308 106.844 21.6037 106.377 21.1936 105.902C20.8781 105.539 20.5709 105.17 20.2743 104.798C18.1614 102.104 16.3142 99.213 14.7586 96.1646C14.7319 96.108 14.7165 96.0785 14.7165 96.0785C14.7165 96.0785 14.7697 96.0721 14.8638 96.0553C15.6365 95.9048 16.359 95.5633 16.9654 95.0621C16.9886 95.0432 17.0118 95.0243 17.0349 95.0033C15.6392 94.6385 14.379 93.8785 13.406 92.815C13.387 92.7941 13.3744 92.7794 13.3682 92.7709H13.4228C14.5271 92.8006 15.6219 92.5606 16.6121 92.0716C19.1168 91.7777 21.5453 91.5591 22.309 89.791C30.1286 71.6658 51.4225 72.1132 56.7008 86.3175C58.3564 90.7757 58.4238 95.7569 56.9343 99.9528C57.8873 99.9087 58.841 99.8828 59.7952 99.8752H60.2429C61.2569 99.8816 62.2709 99.9103 63.2848 99.9614C61.7913 95.7635 61.8585 90.7781 63.5161 86.3175C68.7944 72.1137 90.0884 71.6658 97.908 89.791C98.6463 91.5045 100.952 91.7628 103.37 92.0445C104.374 92.5524 105.488 92.8022 106.612 92.7712H106.667L106.663 92.7735Z" fill="white"/>
<path opacity="0.35" d="M105.312 96.0811C105.312 96.0811 101.776 103.345 96.8024 108.036C94.3644 110.336 91.6905 112.372 88.8251 114.112C85.3797 116.196 81.7011 117.87 77.8648 119.098C72.0922 120.943 66.0713 121.896 60.0103 121.927C53.9494 121.896 47.9286 120.943 42.1561 119.098C38.3202 117.869 34.6417 116.196 31.1958 114.113C28.3303 112.373 25.6565 110.337 23.2185 108.038C18.245 103.345 14.7085 96.0811 14.7085 96.0811C15.2331 96.0023 15.7395 95.8312 16.2041 95.5757C17.6915 98.1189 20.1885 101.93 23.2158 104.786C25.6538 107.085 28.3277 109.122 31.1931 110.862C34.6388 112.946 38.3175 114.619 42.154 115.846C47.9266 117.691 53.9474 118.645 60.0084 118.675C66.0695 118.645 72.0903 117.691 77.8629 115.846C81.6988 114.617 85.3773 112.944 88.8233 110.861C91.6887 109.121 94.3625 107.085 96.8006 104.786C99.83 101.928 102.325 98.1183 103.812 95.5752C104.276 95.8318 104.783 96.003 105.308 96.0806L105.312 96.0811Z" fill="#B3B3B3"/>
<path d="M107.075 92.4458C107.022 92.3835 106.956 92.3336 106.882 92.2998C106.808 92.266 106.727 92.2492 106.645 92.2506C105.646 92.2793 104.654 92.0758 103.747 91.6564C103.692 91.6284 103.647 91.5845 103.618 91.5305C103.589 91.4764 103.577 91.4148 103.585 91.354C103.622 91.06 103.656 90.7576 103.686 90.4509C103.749 89.8208 103.795 89.1763 103.826 88.5294C103.92 86.4621 103.869 84.3907 103.675 82.3303C103.355 79.0596 102.759 75.8218 101.893 72.6513C101.504 71.2054 101.04 69.7804 100.505 68.3819C100.473 68.3 100.444 68.2202 100.412 68.1404C100.356 67.9954 100.297 67.8478 100.238 67.7015C100.208 67.6281 100.177 67.5523 100.147 67.4767C100.135 67.4453 100.121 67.4137 100.107 67.3823C100.006 67.1344 99.9031 66.8889 99.7957 66.6431C99.2761 65.4462 98.7046 64.2758 98.0811 63.1321C97.9907 62.9661 97.9001 62.8004 97.8077 62.6365C96.2846 59.9328 94.4787 57.398 92.4201 55.0745C88.2187 50.3348 83.0565 46.5403 77.2753 43.9423C74.9911 42.9222 72.6243 42.0975 70.2005 41.4769C69.7123 41.3508 69.2012 41.229 68.6856 41.1157C68.2124 41.0106 67.7328 40.9141 67.255 40.8258C66.8722 40.7548 66.4886 40.6883 66.1041 40.6263H66.102C65.5108 40.5317 64.9157 40.4505 64.3167 40.3826C59.3339 37.8352 54.3681 37.2599 54.0758 37.1886C54.301 37.2998 57.5995 38.3773 58.1319 40.1621C57.8668 40.1789 57.6038 40.1978 57.3389 40.2209C53.0262 37.6254 42.7558 38.3834 42.7558 38.3834C42.7558 38.3834 48.5937 38.4864 52.5213 40.8742C52.1237 40.9476 51.7302 41.0274 51.3348 41.1157C50.8194 41.229 50.3102 41.3508 49.8202 41.4769C47.397 42.0975 45.0309 42.9223 42.7475 43.9423C36.966 46.5398 31.8034 50.3343 27.6021 55.0742C25.5449 57.3983 23.7397 59.9331 22.2167 62.6363C22.1242 62.8001 22.0315 62.9658 21.9412 63.1318C21.3186 64.2741 20.7477 65.4445 20.2286 66.6428C20.1087 66.9179 19.991 67.1972 19.8753 67.4765C19.7533 67.7768 19.6355 68.0771 19.5177 68.3795L19.5199 68.3837L19.5135 68.4026C18.9788 69.7935 18.5182 71.2116 18.1335 72.651C17.2672 75.8217 16.6709 79.0599 16.3508 82.3308C16.1572 84.3907 16.1068 86.4615 16.2 88.5284C16.2315 89.1731 16.2778 89.8197 16.341 90.4477C16.3706 90.7566 16.4041 91.0595 16.442 91.3521C16.449 91.413 16.4372 91.4745 16.4083 91.5286C16.3793 91.5826 16.3346 91.6265 16.28 91.6545C15.3669 92.0765 14.3679 92.28 13.3622 92.2487C13.2622 92.2486 13.1643 92.2771 13.08 92.3308C12.9957 92.3845 12.9286 92.4611 12.8865 92.5517C12.8445 92.6422 12.8293 92.7429 12.8428 92.8418C12.8562 92.9407 12.8978 93.0337 12.9625 93.1098C13.6561 93.8777 14.4876 94.5092 15.414 94.9717C15.4521 94.9895 15.4841 95.0181 15.506 95.054C15.5279 95.09 15.5386 95.1316 15.5368 95.1736C15.535 95.2156 15.5207 95.2561 15.4959 95.29C15.4711 95.324 15.4367 95.3498 15.3972 95.3643C15.1586 95.4544 14.9111 95.5192 14.6588 95.5574C14.575 95.5661 14.4945 95.5949 14.4242 95.6414C14.3539 95.6878 14.2958 95.7505 14.255 95.824C14.2141 95.8976 14.1916 95.98 14.1894 96.0641C14.1872 96.1482 14.2054 96.2316 14.2423 96.3072C14.3876 96.6075 17.8777 103.712 22.8634 108.416C28.4857 113.723 35.309 117.601 43.1411 119.951C48.6183 121.58 54.3001 122.42 60.015 122.448C65.7293 122.42 71.4104 121.579 76.887 119.951C84.7191 117.601 91.5424 113.723 97.1647 108.416C102.15 103.712 105.641 96.6075 105.786 96.3072C105.822 96.2318 105.84 96.1488 105.838 96.065C105.836 95.9813 105.814 95.8993 105.773 95.826C105.732 95.7527 105.675 95.6902 105.605 95.6438C105.535 95.5974 105.455 95.5685 105.371 95.5595C105.119 95.519 104.871 95.4536 104.631 95.3643C104.592 95.3494 104.558 95.3234 104.534 95.2897C104.509 95.2559 104.495 95.2158 104.493 95.1741C104.491 95.1325 104.501 95.0912 104.522 95.0552C104.543 95.0193 104.575 94.9902 104.612 94.9717C105.539 94.5088 106.371 93.8774 107.065 93.1098C107.143 93.0169 107.186 92.9002 107.188 92.7791C107.19 92.658 107.15 92.54 107.075 92.4448L107.075 92.4458ZM105.011 93.5295C104.367 93.9833 103.644 94.3111 102.878 94.4956C102.783 94.5179 102.697 94.5656 102.628 94.6333C102.559 94.7011 102.51 94.7863 102.486 94.8799C102.462 94.9734 102.465 95.0716 102.494 95.1636C102.523 95.2556 102.577 95.3377 102.65 95.4007C103.107 95.7966 103.63 96.1093 104.196 96.3248C104.238 96.3406 104.276 96.3653 104.308 96.3971C104.34 96.429 104.365 96.4672 104.381 96.5094C104.397 96.5515 104.404 96.5965 104.401 96.6415C104.398 96.6864 104.385 96.7303 104.364 96.77C103.247 98.8575 100.254 104.061 96.4436 107.656C83.8339 119.555 68.2052 121.376 60.0134 121.403C51.8194 121.376 36.1918 119.555 23.581 107.656C19.7719 104.062 16.7772 98.8572 15.6612 96.7698C15.6399 96.7301 15.6272 96.6864 15.6241 96.6416C15.621 96.5967 15.6276 96.5517 15.6433 96.5095C15.659 96.4674 15.6836 96.4291 15.7154 96.3971C15.7472 96.3652 15.7854 96.3405 15.8275 96.3245C16.394 96.1097 16.9182 95.7969 17.3759 95.4004C17.4491 95.3375 17.5032 95.2554 17.5322 95.1634C17.5612 95.0714 17.5639 94.9731 17.54 94.8796C17.5161 94.7861 17.467 94.7008 17.3981 94.6331C17.3291 94.5654 17.243 94.5177 17.1489 94.4953C16.383 94.3108 15.6591 93.983 15.0156 93.5292C14.9805 93.5051 14.9532 93.4713 14.9373 93.4318C14.9213 93.3924 14.9173 93.3491 14.9259 93.3074C14.9344 93.2657 14.955 93.2275 14.9852 93.1974C15.0154 93.1674 15.0538 93.1469 15.0955 93.1385C15.9032 93.0058 16.6713 92.6959 17.3445 92.2312C17.4199 92.175 17.4788 92.0995 17.5149 92.0127C17.5511 91.926 17.5632 91.8311 17.5499 91.7381C17.4868 91.2992 17.4321 90.8308 17.3836 90.3456C17.3247 89.7338 17.2784 89.1066 17.2469 88.4786C17.1564 86.4602 17.2063 84.4379 17.3964 82.4263C17.7104 79.2147 18.2952 76.0352 19.1447 72.9218C19.5333 71.4844 19.9975 70.0684 20.5353 68.6798L20.5417 68.6673C20.546 68.6548 20.5503 68.6441 20.5543 68.6316C20.5564 68.6274 20.5564 68.6253 20.5585 68.6213C20.567 68.596 20.5796 68.5681 20.59 68.5415C24.7511 58.0281 32.853 49.5475 43.1757 44.8996C44.2339 44.4271 45.3125 43.9966 46.4114 43.6083C47.6193 43.1827 48.8437 42.8103 50.0845 42.4911C50.562 42.3672 51.0606 42.2475 51.5634 42.1384C52.2176 41.9935 52.8761 41.8647 53.5389 41.7519H53.541L53.8075 41.7078C53.8917 41.6931 53.978 41.6782 54.062 41.6657C54.0652 41.6641 54.0688 41.6633 54.0724 41.6636C54.2429 41.637 54.4132 41.6104 54.5837 41.5859C56.382 41.3215 58.195 41.1689 60.0123 41.1292C61.825 41.1695 63.6335 41.3217 65.4273 41.5849H65.4295C65.463 41.5891 65.4969 41.5934 65.5305 41.5995C65.8209 41.6415 66.1089 41.6897 66.3994 41.7381C66.4247 41.7423 66.4479 41.7466 66.4751 41.7506C66.6413 41.7779 66.8075 41.8073 66.9736 41.8389C66.9739 41.8386 66.9742 41.8384 66.9746 41.8382C66.9749 41.8381 66.9753 41.838 66.9757 41.838C66.9761 41.838 66.9765 41.8381 66.9769 41.8382C66.9773 41.8384 66.9776 41.8386 66.9779 41.8389C67.4743 41.9312 67.9688 42.0299 68.461 42.1392C68.9638 42.2485 69.4602 42.3682 69.9377 42.4919C71.1768 42.809 72.4054 43.1835 73.6109 43.6091C74.709 43.9955 75.7903 44.428 76.8465 44.9004C87.1693 49.5482 95.2714 58.0285 99.4333 68.5415L99.5218 68.7684C99.5218 68.7705 99.5239 68.7705 99.5239 68.7726C100.049 70.1308 100.501 71.5159 100.879 72.922C101.73 76.0352 102.317 79.2147 102.631 82.4266C102.821 84.4381 102.871 86.4604 102.78 88.4789C102.749 89.1069 102.702 89.7368 102.641 90.3459C102.595 90.831 102.54 91.2992 102.477 91.7381C102.464 91.8312 102.476 91.9262 102.512 92.013C102.549 92.0998 102.608 92.1753 102.683 92.2315C103.357 92.6962 104.125 93.0061 104.932 93.1387C104.974 93.1474 105.012 93.1681 105.042 93.1982C105.072 93.2283 105.092 93.2664 105.1 93.308C105.109 93.3495 105.105 93.3926 105.089 93.4319C105.073 93.4712 105.046 93.5049 105.011 93.529V93.5295Z" fill="black"/>
<path d="M107.325 92.2506H107.323C107.242 92.1504 107.139 92.07 107.022 92.0154C106.905 91.9608 106.777 91.9336 106.648 91.9357C105.707 91.9605 104.773 91.7769 103.911 91.3981C103.908 91.397 103.905 91.3947 103.903 91.3916C103.901 91.3886 103.9 91.385 103.901 91.3814C103.938 91.0936 103.972 90.7893 104.002 90.4826C104.063 89.8674 104.111 89.2162 104.143 88.5443C104.237 86.4623 104.186 84.3762 103.991 82.3011C103.669 79.0126 103.07 75.7572 102.199 72.5696C101.812 71.1319 101.353 69.7147 100.823 68.3234L100.707 68.0252C100.651 67.8802 100.592 67.7313 100.533 67.5842L100.499 67.5001C100.48 67.4539 100.461 67.4078 100.442 67.3573L100.402 67.2629C100.299 67.0128 100.196 66.7652 100.087 66.5181C99.5674 65.319 98.9868 64.1282 98.3598 62.9805C98.2695 62.8124 98.1789 62.6466 98.0843 62.4807C96.5504 59.7576 94.7317 57.2044 92.6589 54.8638C88.4277 50.091 83.229 46.27 77.4069 43.654C75.1068 42.6259 72.723 41.7955 70.2815 41.1718C69.7912 41.0436 69.278 40.9218 68.7563 40.8063C68.2934 40.7034 67.8074 40.6068 67.3152 40.5138C66.9009 40.4361 66.5223 40.3709 66.1561 40.3143L66.133 40.3116C65.5523 40.2193 64.976 40.1395 64.4164 40.0765H64.41C61.2503 38.5102 57.865 37.4458 54.3764 36.9216C54.2608 36.9027 54.1851 36.8902 54.1534 36.8838L51.5309 36.242C51.5267 36.2411 51.5222 36.2417 51.5184 36.2438C51.5146 36.2459 51.5117 36.2493 51.5102 36.2534C51.5087 36.2574 51.5087 36.2619 51.5102 36.2659C51.5117 36.27 51.5146 36.2734 51.5184 36.2755L53.9397 37.4703C53.9693 37.4849 54.0386 37.5123 54.146 37.5544C56.2243 38.3566 57.1753 39.1378 57.5897 39.753C57.5076 39.8392 57.5223 39.8243 57.4383 39.9105C53.095 37.3631 43.8187 38.3061 43.236 38.3481C43.2274 38.3502 42.6231 38.367 42.6231 38.3747L51.6207 40.7308L51.2695 40.8063C50.7632 40.9175 50.2492 41.0415 49.7443 41.1697C47.3037 41.7952 44.9208 42.6263 42.621 43.654C36.7982 46.27 31.5986 50.091 27.3666 54.8641C25.2959 57.2058 23.4781 59.7589 21.9433 62.4809C21.8509 62.6469 21.7568 62.8126 21.6657 62.9807C21.0366 64.1335 20.4581 65.3214 19.9406 66.5184C19.8207 66.7955 19.7008 67.077 19.5852 67.3584C19.461 67.6608 19.3432 67.9632 19.2254 68.2657L19.1498 68.4588L19.154 68.463C18.6435 69.809 18.2019 71.18 17.8308 72.5707C16.9604 75.758 16.3608 79.0129 16.0383 82.3008C15.8433 84.3759 15.7927 86.462 15.887 88.5441C15.9205 89.2202 15.9669 89.8714 16.0279 90.4781C16.0575 90.7826 16.0911 91.0808 16.1268 91.3665C16.1276 91.3701 16.1273 91.374 16.1257 91.3774C16.1242 91.3808 16.1216 91.3836 16.1182 91.3854C15.2648 91.7737 14.3336 91.9619 13.3961 91.9354C13.2129 91.9298 13.0325 91.982 12.8807 92.0846C12.7856 92.1516 12.7054 92.2376 12.6452 92.3372C12.5851 92.4367 12.5462 92.5476 12.5312 92.6629C12.5162 92.7781 12.5253 92.8953 12.5579 93.0068C12.5906 93.1184 12.6461 93.222 12.7209 93.3111C13.3868 94.056 14.1795 94.6773 15.0623 95.1464C14.9194 95.1892 14.774 95.2228 14.6269 95.2472H14.6245C14.4905 95.2614 14.362 95.3076 14.2497 95.382C14.1375 95.4563 14.0448 95.5565 13.9796 95.6742C13.9144 95.7918 13.8786 95.9234 13.8751 96.0578C13.8717 96.1923 13.9008 96.3255 13.9599 96.4463C13.9935 96.5197 17.5678 103.853 22.6484 108.647C28.3032 113.983 35.1678 117.89 43.0505 120.254C48.5577 121.892 54.2707 122.738 60.0172 122.766C65.7622 122.738 71.4738 121.892 76.9795 120.254C84.8622 117.89 91.7268 113.983 97.3835 108.647C102.464 103.853 106.036 96.52 106.072 96.4463C106.13 96.3261 106.158 96.1939 106.155 96.0605C106.151 95.9271 106.116 95.7965 106.052 95.6795C105.988 95.5624 105.897 95.4624 105.786 95.3876C105.675 95.3128 105.548 95.2654 105.416 95.2494H105.411C105.261 95.2252 105.113 95.1908 104.967 95.1464C105.848 94.6749 106.639 94.0547 107.307 93.3132C107.431 93.1649 107.501 92.9786 107.504 92.7853C107.508 92.5919 107.445 92.4033 107.326 92.2506H107.325ZM20.2644 68.5141C20.2622 68.5172 20.2608 68.5207 20.2601 68.5245V68.5202C20.2613 68.518 20.2627 68.5159 20.2644 68.5141Z" fill="black"/>
<path d="M38.7898 146.473C38.7813 145.795 36.2086 146.964 36.2126 146.282C36.209 142.67 36.4486 139.062 36.9299 135.483C36.9656 135.218 37.0056 134.953 37.0456 134.691C37.1802 133.815 37.3261 132.967 37.4831 132.148C38.3499 127.628 31.557 120.329 33.9973 118.143C34.4284 117.756 36.0631 117.618 37.1634 117.593C38.016 117.376 38.2025 117.068 39.3595 116.83C41.9072 116.307 44.7114 115.699 45.6517 114.848C49.3417 111.507 54.0687 110.071 59.8141 110.043H59.9487C65.6941 110.07 70.419 111.509 74.109 114.848C75.3986 116.013 78.6319 116.085 81.4974 116.561C83.2813 116.86 78.2239 116.977 85.8604 118.294C86.2201 118.357 86.3147 118.859 86.4557 119.205C87.7115 122.311 82.0399 130.291 82.7154 134.689C83.2786 138.536 83.557 142.42 83.5483 146.308C83.5526 146.99 82.2797 146.681 82.2715 147.358" fill="#FCFEFF"/>
<path d="M54.1199 145.501C55.298 145.501 56.2531 144.547 56.2531 143.371C56.2531 142.195 55.298 141.242 54.1199 141.242C52.9417 141.242 51.9866 142.195 51.9866 143.371C51.9866 144.547 52.9417 145.501 54.1199 145.501Z" fill="#0D1338"/>
<path d="M54.1451 137.025C55.3233 137.025 56.2784 136.072 56.2784 134.895C56.2784 133.719 55.3233 132.766 54.1451 132.766C52.9669 132.766 52.0118 133.719 52.0118 134.895C52.0118 136.072 52.9669 137.025 54.1451 137.025Z" fill="#0D1338"/>
<path d="M65.6147 145.501C66.7929 145.501 67.748 144.547 67.748 143.371C67.748 142.195 66.7929 141.242 65.6147 141.242C64.4365 141.242 63.4814 142.195 63.4814 143.371C63.4814 144.547 64.4365 145.501 65.6147 145.501Z" fill="#0D1338"/>
<path d="M65.6379 137.025C66.8161 137.025 67.7712 136.072 67.7712 134.895C67.7712 133.719 66.8161 132.766 65.6379 132.766C64.4597 132.766 63.5046 133.719 63.5046 134.895C63.5046 136.072 64.4597 137.025 65.6379 137.025Z" fill="#0D1338"/>
<path d="M49.704 127.033C47.2313 129.656 45.7677 133.067 45.5723 136.663C45.301 142.056 45.3239 148.699 45.4335 154.392C45.0716 154.346 44.7225 154.295 44.3817 154.247C44.2752 148.57 44.2533 141.979 44.5248 136.609C44.7327 132.765 46.2961 129.119 48.9385 126.315C50.3478 124.811 51.1155 125.525 49.704 127.033Z" fill="#0D1338"/>
<path d="M37.4777 135.351C37.1516 135.223 36.8172 135.091 36.4742 134.95L37.4777 135.351ZM83.2864 134.956C82.9434 135.093 82.6069 135.222 82.2829 135.347L83.2864 134.956Z" fill="black"/>
<path d="M36.3835 135.597C36.4698 134.453 37.9718 127.577 38.687 128.094C38.7563 128.121 38.8127 128.173 38.8447 128.24C38.8767 128.307 38.882 128.384 38.8594 128.455C38.505 129.642 38.2156 130.848 37.9926 132.067C37.7528 133.283 37.6054 134.524 37.4184 135.746C37.2963 136.374 36.3118 136.229 36.3813 135.595L36.3835 135.597Z" fill="#0D1338"/>
<path d="M83.3698 135.626C83.1995 133.625 81.79 127.577 81.0745 128.093C81.0052 128.12 80.9488 128.173 80.9168 128.24C80.8848 128.307 80.8795 128.384 80.9021 128.455C81.2566 129.642 81.546 130.848 81.7689 132.067C82.0087 133.283 82.154 134.524 82.3392 135.748C82.4617 136.376 83.4394 136.26 83.3698 135.626Z" fill="#0D1338"/>
<path d="M106.663 92.7736C106.663 92.7736 106.644 92.7967 106.625 92.8177C105.652 93.8822 104.391 94.6429 102.994 95.0081C103.651 95.5753 104.454 95.9471 105.312 96.0811C103.788 99.0846 101.981 101.936 99.9138 104.597C99.1669 105.551 98.3684 106.464 97.5218 107.331C97.2863 107.572 97.0465 107.808 96.8024 108.039C96.249 108.559 95.6902 109.062 95.1258 109.547C93.2426 111.16 91.2366 112.626 89.1259 113.929C89.0249 113.993 88.9261 114.053 88.8272 114.112C85.3805 116.196 81.7008 117.87 77.8637 119.099C72.0916 120.944 66.0713 121.898 60.0108 121.928C53.9503 121.897 47.93 120.943 42.1579 119.099C38.3218 117.87 34.6432 116.196 31.1976 114.112C31.1219 114.068 31.0462 114.021 30.9724 113.975C28.8354 112.661 26.8054 111.181 24.9011 109.548C24.3351 109.063 23.7749 108.56 23.2203 108.039C22.9658 107.795 22.714 107.547 22.4673 107.295C22.0276 106.846 21.6027 106.383 21.1925 105.907C20.877 105.544 20.5706 105.175 20.2732 104.8C18.1586 102.107 16.3105 99.2161 14.7551 96.167C14.7284 96.1104 14.713 96.0809 14.713 96.0809C14.7625 96.0757 14.8116 96.068 14.8603 96.0577C15.6333 95.9082 16.3561 95.5666 16.9619 95.0645C16.9851 95.0456 17.0083 95.0267 17.0293 95.0079C15.6332 94.6428 14.3728 93.882 13.4004 92.8175C13.3814 92.7963 13.3688 92.7816 13.3625 92.7733H13.4172C14.5213 92.8017 15.6158 92.5617 16.6064 92.074C16.6821 92.0341 16.7495 91.9942 16.8084 91.9586C16.8848 91.9138 16.9586 91.8647 17.0293 91.8115C17.0229 91.7695 17.0189 91.7274 17.0125 91.6833C16.9536 91.259 16.9059 90.8308 16.8612 90.398C16.8003 89.7744 16.7547 89.143 16.7245 88.5039C16.6311 86.461 16.681 84.4141 16.874 82.3782C17.1888 79.1371 17.7793 75.9286 18.639 72.7875C22.249 59.3516 31.8757 49.3704 42.9645 44.4206C45.2215 43.4123 47.5601 42.5967 49.9551 41.9825C50.4494 41.8543 50.9501 41.7368 51.4507 41.6256C52.1871 41.4639 52.9311 41.321 53.6829 41.1971C51.9599 39.1474 46.6984 38.8261 46.5849 38.6771C47.6473 38.6604 53.2054 38.946 57.3075 40.7478C57.3608 40.771 57.4141 40.7981 57.4674 40.8255C57.6273 40.7941 57.9955 40.7268 58.3531 40.6723H58.3678C58.6157 40.6277 58.8671 40.6059 59.1189 40.6071C59.0379 40.0944 58.8149 39.6145 58.4752 39.2215C58.1354 38.8286 57.6924 38.5382 57.1962 38.3832C57.3057 38.4085 63.0234 39.7062 63.8334 40.8529C65.4262 41.0245 67.0085 41.2824 68.5732 41.6256C69.0761 41.7368 69.5746 41.8546 70.071 41.9825C72.4658 42.5974 74.8043 43.4129 77.0616 44.4206C88.1504 49.3704 97.7771 59.3516 101.387 72.7875C102.246 75.9289 102.836 79.1373 103.152 82.3782C103.345 84.4141 103.395 86.461 103.302 88.5039C103.27 89.1423 103.224 89.7737 103.163 90.398C103.121 90.8307 103.071 91.2591 103.013 91.6833C103.007 91.7274 103.001 91.7695 102.994 91.8115C103.039 91.845 103.1 91.887 103.177 91.9354C103.232 91.9689 103.295 92.0067 103.367 92.0466C103.75 92.2531 104.157 92.4124 104.578 92.5211C105.242 92.6912 105.924 92.7758 106.609 92.773L106.663 92.7736Z" fill="#FCFEFF"/>
<path opacity="0.49" d="M106.158 92.9185C106.158 92.9185 106.139 92.9395 106.122 92.9605C105.876 93.2356 103.896 94.4517 101.988 94.8927C103.019 95.7893 104.923 96.2641 104.923 96.2641C103.26 99.1032 101.413 101.831 99.3942 104.43C98.6894 105.324 95.2792 108.559 94.7428 109.019C92.8875 110.608 88.5956 113.023 88.501 113.078C85.3006 114.998 81.9892 116.728 78.5841 118.258C77.1093 118.941 66.6581 122.295 62.8147 121.121C79.8128 115.938 84.1782 96.8626 84.1782 78.2008C84.1782 74.743 89.9172 76.2325 89.1176 73.0223C90.8048 68.9442 86.0925 56.8125 81.6999 52.3018C77.0674 47.5454 66.0053 41.9046 65.2446 41.4133C66.6099 41.5772 74.5441 44.1307 76.6827 45.084C87.2393 49.7965 97.0216 60.9454 100.457 73.7365C101.276 76.7263 101.838 79.7802 102.138 82.8652C102.322 84.8034 102.37 86.7521 102.281 88.697C102.249 89.3061 102.207 89.9067 102.148 90.5009C102.108 90.9124 102.059 91.3221 102.004 91.7245C101.998 91.7665 101.994 91.8064 101.988 91.8463C102.03 91.8777 102.087 91.9176 102.162 91.9639C102.213 91.9953 102.274 92.0312 102.341 92.0703C102.707 92.2661 103.094 92.4179 103.496 92.5225C104.351 92.737 105.224 92.8685 106.104 92.9151H106.158L106.158 92.9185Z" fill="#C5EFFF"/>
<path d="M64.9288 91.8551C64.7647 93.0292 63.2605 94.9379 61.2746 94.6607C59.2886 94.3836 57.6203 92.5187 57.7866 91.3449C57.9529 90.1711 59.4442 90.3515 61.548 90.3557C63.5275 90.3579 65.0919 90.6834 64.9264 91.8572L64.9288 91.8551Z" fill="black"/>
<path d="M68.3622 97.7193C68.1561 97.8056 67.9583 97.9103 67.7712 98.0321C67.8077 98.636 67.7831 99.242 67.6976 99.8409C67.1127 103.988 63.8478 106.962 60.4019 106.479C56.956 105.996 54.8481 102.569 55.1636 98.646C54.8918 98.3584 54.5809 98.1103 54.24 97.909C52.9714 97.1866 52.4918 96.084 52.9589 94.5889C53.0514 94.2903 53.1957 94.0102 53.3852 93.7614C53.5829 93.4864 53.8944 93.6859 53.8102 94.0008C53.8101 94.009 53.8079 94.0169 53.8038 94.024C53.2442 96.1785 54.09 97.0772 55.3733 97.9949C56.352 98.5501 57.483 98.7784 58.6009 98.6466C59.7189 98.5148 60.7654 98.0297 61.5877 97.2621C62.3232 97.8084 63.1885 98.1542 64.0985 98.2654C65.0084 98.3765 65.9317 98.2493 66.7775 97.8962C68.3995 97.0648 69.5985 96.3633 69.2895 93.9253V93.9022C69.2474 93.5808 69.5839 93.4212 69.744 93.7194C69.8995 93.9917 70.0069 94.2886 70.0617 94.5972C70.3308 96.1399 69.7153 97.1695 68.364 97.7241L68.3622 97.7193Z" fill="black"/>
<path d="M49.1655 90.5313C48.4775 95.4255 45.9048 102.22 35.7092 100.126C29.5095 98.8538 27.8393 92.918 29.2276 88.1752C31.2702 81.1969 36.519 79.1049 41.4208 79.7941C46.3226 80.4833 49.8554 85.6382 49.1655 90.5313Z" fill="black"/>
<path d="M39.295 90.5188C40.2292 90.5188 40.9865 89.7628 40.9865 88.8303C40.9865 87.8977 40.2292 87.1418 39.295 87.1418C38.3608 87.1418 37.6035 87.8977 37.6035 88.8303C37.6035 89.7628 38.3608 90.5188 39.295 90.5188Z" fill="white"/>
<path d="M42.5514 95.6215C43.4344 95.6215 44.1502 94.907 44.1502 94.0256C44.1502 93.1442 43.4344 92.4296 42.5514 92.4296C41.6684 92.4296 40.9526 93.1442 40.9526 94.0256C40.9526 94.907 41.6684 95.6215 42.5514 95.6215Z" fill="white"/>
<path d="M44.8486 74.8627C44.5835 75.6104 43.3548 74.3124 37.6033 75.3835C33.7724 76.0974 31.3657 79.001 30.4949 77.9309C30.1163 77.4646 33.1329 75.0896 36.9302 74.2602C40.5213 73.4748 45.1284 74.0741 44.8465 74.863L44.8486 74.8627Z" fill="black"/>
<path d="M65.8796 101.995C65.8398 102.451 65.6768 102.887 65.4082 103.257C64.7953 104.316 61.6319 106.021 60.5991 105.481C59.5535 104.937 59.339 103.715 59.707 102.582C59.954 101.691 60.4049 100.87 61.0241 100.184C61.3054 99.8286 61.6712 99.5493 62.0883 99.3714C62.5053 99.1936 62.9604 99.1227 63.4119 99.1653C63.7601 99.1892 64.1002 99.2815 64.4127 99.4367C64.7251 99.5919 65.0039 99.807 65.2331 100.07C65.4623 100.333 65.6373 100.638 65.7482 100.968C65.8592 101.299 65.9038 101.648 65.8796 101.995Z" fill="#CE111F"/>
<path d="M73.3393 86.3898C72.6324 91.4045 73.2426 98.824 83.877 99.636C90.3438 100.129 93.6697 94.7557 93.6447 89.6926C93.6069 82.2417 89.0312 78.7012 84.0055 77.9955C78.9798 77.2898 74.0441 81.3736 73.3374 86.3893L73.3393 86.3898Z" fill="black"/>
<path d="M80.873 88.8534C81.8304 88.8534 82.6066 88.0786 82.6066 87.1229C82.6066 86.1672 81.8304 85.3924 80.873 85.3924C79.9156 85.3924 79.1394 86.1672 79.1394 87.1229C79.1394 88.0786 79.9156 88.8534 80.873 88.8534Z" fill="white"/>
<path d="M78.8678 93.33C79.7717 93.33 80.5044 92.5986 80.5044 91.6963C80.5044 90.794 79.7717 90.0626 78.8678 90.0626C77.9639 90.0626 77.2312 90.794 77.2312 91.6963C77.2312 92.5986 77.9639 93.33 78.8678 93.33Z" fill="white"/>
<path d="M90.6596 75.9235C90.1611 76.5429 89.4339 74.9092 83.6501 74.0294C79.7981 73.4413 76.5668 75.3859 76.0975 74.0881C75.8955 73.5211 79.5287 72.2738 83.3871 72.7462C87.0368 73.1891 91.1875 75.2729 90.6596 75.9235Z" fill="black"/>
<path d="M58.6449 113.232C59.5287 113.653 60.4953 113.873 61.4747 113.876C62.4542 113.878 63.4219 113.663 64.3079 113.247C64.3329 113.236 64.3608 113.236 64.3864 113.244C64.412 113.252 64.4338 113.27 64.4478 113.293C64.4617 113.316 64.467 113.343 64.4625 113.37C64.4581 113.396 64.4443 113.421 64.4236 113.438C63.5558 114.034 62.5267 114.352 61.4732 114.35C60.4198 114.348 59.3921 114.025 58.5268 113.425C58.5153 113.416 58.5059 113.405 58.4989 113.392C58.492 113.379 58.4877 113.364 58.4863 113.35C58.485 113.335 58.4865 113.32 58.491 113.306C58.4954 113.292 58.5026 113.279 58.5122 113.268C58.5277 113.25 58.5487 113.237 58.5721 113.231C58.5955 113.225 58.6202 113.227 58.6425 113.236L58.6449 113.232Z" fill="#0D1338"/>
<path d="M44.4785 124.958H74.6152V150.95H44.4785V124.958Z" fill="#00A6ED"/>
<path d="M74.6165 151.473H44.4798C44.3409 151.473 44.2076 151.418 44.1094 151.32C44.0111 151.222 43.9559 151.089 43.9559 150.95V124.958C43.9559 124.819 44.0111 124.686 44.1094 124.588C44.2076 124.49 44.3409 124.435 44.4798 124.435H74.6165C74.7555 124.435 74.8887 124.49 74.9869 124.588C75.0852 124.686 75.1404 124.819 75.1404 124.958V150.95C75.1404 151.018 75.1269 151.086 75.1006 151.15C75.0743 151.213 75.0357 151.271 74.987 151.32C74.9384 151.368 74.8806 151.407 74.8171 151.433C74.7535 151.459 74.6853 151.473 74.6165 151.473ZM45.0023 150.424H74.0905V125.481H45.0023V150.424Z" fill="black"/>
<path d="M41.3942 155.845L44.4782 150.951V124.958L41.3942 132.957V155.845Z" fill="#00A6ED"/>
<path d="M41.3945 156.368C41.3453 156.368 41.2963 156.361 41.2492 156.347C41.1399 156.315 41.0439 156.249 40.9756 156.158C40.9073 156.067 40.8704 155.956 40.8706 155.843V132.955C40.8709 132.89 40.883 132.826 40.9063 132.766L43.9903 124.767C44.0341 124.653 44.1165 124.557 44.2233 124.498C44.3301 124.438 44.4545 124.417 44.5749 124.439C44.6954 124.461 44.8043 124.525 44.8827 124.619C44.9612 124.713 45.0043 124.831 45.0045 124.953V150.945C45.0046 151.044 44.9769 151.14 44.9245 151.224L41.8405 156.118C41.7935 156.194 41.728 156.256 41.6504 156.299C41.5727 156.342 41.4854 156.364 41.3966 156.364L41.3945 156.368ZM41.9183 133.054V154.026L43.9528 150.797V127.776L41.9183 133.054Z" fill="black"/>
<path d="M77.7005 155.845L74.6165 150.951V124.958L77.7005 132.957V155.845Z" fill="#00A6ED"/>
<path d="M77.7008 156.368C77.612 156.368 77.5247 156.346 77.447 156.303C77.3694 156.26 77.3039 156.198 77.2569 156.122L74.1728 151.228C74.1205 151.144 74.0928 151.048 74.0929 150.949V124.956C74.0931 124.834 74.1362 124.716 74.2146 124.622C74.2931 124.528 74.402 124.464 74.5224 124.442C74.6429 124.42 74.7673 124.441 74.8741 124.501C74.9809 124.561 75.0633 124.656 75.1071 124.77L78.1908 132.767C78.2141 132.827 78.2262 132.891 78.2265 132.956V155.844C78.2265 155.958 78.1896 156.068 78.1214 156.159C78.0531 156.251 77.9572 156.317 77.8479 156.349C77.8008 156.363 77.7518 156.371 77.7026 156.37L77.7008 156.368ZM75.1404 150.797L77.1748 154.027V133.054L75.1404 127.777V150.797Z" fill="black"/>
<path d="M77.7005 132.957H41.3944V155.845H77.7005V132.957Z" fill="#00A6ED"/>
<g opacity="0.4">
<path d="M77.7005 132.957H41.3944V134.391H77.7005V132.957Z" fill="white"/>
</g>
<g opacity="0.35">
<path d="M77.7005 131.662H41.3944V133.096H77.7005V131.662Z" fill="#0D1338"/>
</g>
<g opacity="0.35">
<path d="M77.7005 153.676H41.3944V155.845H77.7005V153.676Z" fill="#0D1338"/>
</g>
<path d="M77.7006 156.37H41.3945C41.2556 156.37 41.1224 156.314 41.0241 156.216C40.9259 156.118 40.8707 155.986 40.8706 155.847V132.959C40.8706 132.82 40.9258 132.687 41.024 132.589C41.1223 132.491 41.2555 132.436 41.3945 132.436H77.7006C77.7694 132.436 77.8375 132.449 77.901 132.476C77.9646 132.502 78.0223 132.54 78.071 132.589C78.1196 132.638 78.1582 132.695 78.1845 132.759C78.2109 132.822 78.2244 132.89 78.2244 132.959V155.847C78.2244 155.986 78.1691 156.118 78.0709 156.216C77.9727 156.314 77.8395 156.37 77.7006 156.37ZM41.9183 155.322H77.1748V133.481H41.9183V155.322Z" fill="black"/>
<path d="M93.8139 134.753V134.765C92.6988 139.056 90.3995 142.395 86.9789 144.69C86.8907 144.749 86.8023 144.808 86.7125 144.867C86.6957 144.877 86.6768 144.89 86.6592 144.9C86.5793 144.953 86.4972 145.003 86.4151 145.051L86.3331 145.102C86.2638 145.144 86.1942 145.186 86.1247 145.226C86.0911 145.247 86.0573 145.266 86.0237 145.284C85.9563 145.324 85.8889 145.362 85.8196 145.402C85.7879 145.419 85.7564 145.438 85.7247 145.455C85.6469 145.499 85.5691 145.541 85.4913 145.583C85.4767 145.59 85.4647 145.598 85.4513 145.604C85.3754 145.644 85.3018 145.684 85.224 145.722C85.1862 145.743 85.1462 145.762 85.1084 145.781C85.0178 145.827 84.9253 145.873 84.835 145.917C84.7284 145.97 84.6205 146.02 84.511 146.07C84.406 146.119 84.3005 146.167 84.1934 146.213C84.1851 146.217 84.1766 146.219 84.1683 146.224C84.0652 146.27 83.9599 146.314 83.855 146.358C83.8476 146.362 83.8398 146.364 83.8318 146.366C83.7287 146.41 83.6255 146.452 83.5203 146.492C83.516 146.492 83.512 146.496 83.5078 146.496C83.394 146.54 83.2805 146.584 83.1648 146.629C83.0492 146.674 82.9357 146.715 82.8184 146.755C82.7012 146.795 82.5848 146.837 82.4672 146.875C82.2317 146.955 81.9937 147.028 81.7497 147.1C79.2448 147.805 76.6515 148.149 74.0489 148.12H73.2075C71.3436 148.11 69.3659 148.005 67.7884 147.352C67.1517 147.101 66.5726 146.724 66.0866 146.243C65.8084 145.96 65.5712 145.64 65.3818 145.292C64.9131 144.368 64.6934 143.339 64.7444 142.306C64.8433 139.139 66.9805 137.314 70.6095 137.295C71.6256 137.217 72.5736 137.107 73.4537 136.965C73.4726 136.963 73.4915 136.959 73.5083 136.957C78.9422 136.075 81.7526 133.99 81.8685 130.741C81.8729 130.194 81.7546 129.653 81.5221 129.158C81.4688 129.074 81.4232 128.981 81.3726 128.883C81.3123 128.736 81.2277 128.602 81.1224 128.484L80.9982 128.389L80.9857 128.236C80.9857 128.209 80.9625 128.177 80.9775 128.154C82.0798 126.489 82.7425 122.36 83.1211 119.754C83.851 119.437 84.5707 119.078 85.2712 118.723C85.2712 118.708 85.9275 118.403 86.0538 118.332C88.1891 119.304 90.0025 120.863 91.2815 122.827C93.5997 126.301 94.6179 131.097 93.8145 134.758L93.8139 134.753Z" fill="#FCFEFF"/>
<path d="M65.2589 145.295C65.4476 145.644 65.6849 145.964 65.9637 146.246C66.4501 146.727 67.029 147.104 67.6656 147.355C69.2414 148.008 71.221 148.113 73.0849 148.124H73.8611C76.0951 142.907 74.7636 139.121 73.3857 136.958C73.3668 136.96 73.35 136.964 73.3311 136.966C72.4516 137.107 71.5035 137.217 70.4869 137.296C66.8579 137.317 64.7228 139.14 64.6215 142.306C64.5704 143.34 64.79 144.37 65.2589 145.293V145.295Z" fill="black"/>
<path opacity="0.4" d="M74.4627 138.56C73.4656 138.675 72.3948 138.765 71.2503 138.829C67.8465 138.844 65.5659 139.85 64.7433 141.643V141.51C64.8421 138.815 66.9794 137.261 70.6086 137.245C71.6247 137.177 72.5728 137.084 73.4528 136.965C73.4717 136.963 73.4907 136.959 73.5075 136.957C73.8829 137.455 74.2032 137.993 74.4627 138.56Z" fill="white"/>
<path d="M73.4425 148.59H73.0785C71.2524 148.58 69.157 148.477 67.4868 147.786C66.7925 147.511 66.1613 147.098 65.6312 146.572C65.3227 146.259 65.06 145.904 64.8507 145.518C64.3436 144.524 64.1044 143.415 64.1566 142.3V142.294C64.2099 140.605 64.8214 139.213 65.928 138.268C67.0282 137.327 68.5556 136.844 70.468 136.832C71.4608 136.754 72.3993 136.647 73.2575 136.508L73.6173 136.452L73.7814 136.708C75.277 139.051 76.5792 142.966 74.2925 148.305L74.1726 148.586H73.836C73.7076 148.588 73.5773 148.588 73.447 148.588L73.4425 148.59ZM65.669 145.072C65.8378 145.382 66.0488 145.667 66.296 145.918C66.7378 146.356 67.2648 146.698 67.8444 146.924C69.3653 147.554 71.347 147.649 73.0867 147.657H73.5496C75.4367 143.026 74.4289 139.602 73.1499 137.464C72.3359 137.588 71.4501 137.686 70.5202 137.756H70.4866C67.0975 137.777 65.179 139.394 65.0862 142.316C65.0387 143.268 65.2387 144.216 65.6669 145.069L65.669 145.072Z" fill="black"/>
<path opacity="0.49" d="M93.815 134.753V134.765C92.7002 139.056 90.4006 142.395 86.9801 144.69C86.8916 144.749 86.8034 144.808 86.7136 144.867C86.6968 144.877 86.6779 144.89 86.6603 144.9C86.5804 144.953 86.4983 145.003 86.4162 145.051L86.3342 145.102C86.2646 145.144 86.1953 145.186 86.1258 145.226C86.0922 145.247 86.0584 145.266 86.0248 145.284C85.9574 145.324 85.8902 145.362 85.8207 145.402C85.789 145.419 85.7575 145.438 85.7261 145.455C85.6483 145.499 85.5705 145.541 85.4927 145.583C85.478 145.59 85.466 145.598 85.4527 145.604C85.377 145.644 85.3035 145.684 85.2254 145.722C85.1876 145.743 85.1476 145.762 85.1098 145.781C85.0194 145.827 84.9267 145.873 84.8361 145.917C84.7295 145.97 84.6216 146.02 84.5124 146.07C84.4071 146.119 84.3019 146.167 84.1947 146.213C84.1865 146.218 84.178 146.22 84.1694 146.224C84.0663 146.27 83.9613 146.314 83.8561 146.358C83.8487 146.362 83.8409 146.364 83.8329 146.366C83.7298 146.41 83.6266 146.452 83.5217 146.492C83.5174 146.492 83.5131 146.496 83.5091 146.496C83.3954 146.54 83.2819 146.584 83.1662 146.629C83.0506 146.674 82.9371 146.715 82.8198 146.755C82.7026 146.795 82.5861 146.837 82.4683 146.875C82.2328 146.955 81.9951 147.028 81.751 147.1C79.2462 147.805 76.6529 148.149 74.0503 148.12H73.2067C71.3415 148.11 69.3651 148.005 67.7874 147.351C67.1507 147.101 66.5716 146.724 66.0855 146.243C65.8075 145.96 65.5703 145.64 65.3807 145.291C65.062 144.688 64.8621 144.029 64.7919 143.35C64.8129 143.392 64.834 143.432 64.855 143.471C65.0438 143.82 65.2811 144.14 65.5598 144.423C66.0462 144.903 66.6252 145.28 67.2617 145.532C68.8373 146.185 70.8171 146.29 72.681 146.3H73.5224C76.125 146.329 78.7183 145.985 81.2232 145.28C81.4651 145.208 81.7028 145.135 81.9405 145.055C82.0583 145.015 82.1763 144.975 82.2917 144.935C82.4071 144.895 82.5232 144.851 82.6381 144.809C82.7529 144.767 82.8675 144.723 82.981 144.676C82.9853 144.676 82.9895 144.672 82.9935 144.672C83.0988 144.63 83.2019 144.588 83.3048 144.546C83.3112 144.546 83.3194 144.54 83.3279 144.538C83.4329 144.493 83.5361 144.449 83.6416 144.403C83.6498 144.399 83.6584 144.397 83.6666 144.393C83.7732 144.346 83.8798 144.298 83.9842 144.25C84.0938 144.199 84.2009 144.149 84.3083 144.096C84.4007 144.052 84.4913 144.006 84.5816 143.96C84.6195 143.941 84.6595 143.92 84.6973 143.901C84.773 143.863 84.8486 143.823 84.9246 143.783C84.9371 143.777 84.9512 143.769 84.9646 143.762C85.0424 143.721 85.1202 143.678 85.198 143.635C85.2294 143.618 85.2611 143.601 85.2926 143.581C85.3621 143.541 85.4293 143.504 85.4967 143.464C85.5303 143.445 85.5641 143.426 85.5977 143.405C85.6672 143.365 85.7365 143.323 85.806 143.281L85.8881 143.231C85.9702 143.18 86.0501 143.13 86.1322 143.08C86.1511 143.069 86.1679 143.057 86.1855 143.046C86.2758 142.987 86.3643 142.929 86.4519 142.87C89.8728 140.572 92.1721 137.234 93.2827 132.945V132.932C93.709 131.007 93.6277 128.766 93.1185 126.572C94.0695 129.314 94.3533 132.29 93.8113 134.753L93.815 134.753Z" fill="#C5EFFF"/>
<path d="M94.4884 134.941C92.1784 144.396 83.5701 148.965 73.9349 148.812C71.0443 148.673 67.0685 149.039 65.2067 146.26C63.6373 144.159 63.6455 140.798 65.3413 138.786C66.5614 137.219 68.3496 136.904 70.6217 136.694C74.8334 136.306 79.8277 135.972 81.0817 131.401C81.3208 130.446 81.247 129.44 80.8711 128.531C80.8486 128.486 80.8378 128.437 80.8397 128.388C80.8408 128.34 80.8539 128.294 80.8778 128.253C80.9017 128.211 80.9356 128.177 80.9764 128.152C80.9886 128.144 81.0021 128.138 81.0164 128.134C81.0713 128.119 81.129 128.118 81.1843 128.131C81.2397 128.144 81.2911 128.17 81.334 128.207C81.9756 128.791 82.2261 130.147 82.2154 130.754C82.022 136.124 75.0375 137.306 70.6217 137.643C67.1716 137.721 65.1921 139.181 65.0932 142.312C65.0026 147.632 69.8181 147.793 74.0447 147.772C84.3034 147.772 91.2743 143.148 93.4697 134.676C94.7236 128.964 91.5112 119.302 83.374 117.828C83.2626 117.807 83.1552 117.737 83.05 117.723C83.0036 117.717 82.8608 117.567 82.7513 117.609C82.9511 117.526 83.2605 117.534 83.4582 117.446C83.8222 117.286 84.2198 117.15 84.5752 116.98C84.6069 116.988 84.6384 116.994 84.6677 117.002C91.7257 118.884 96.0594 128.082 94.4857 134.937L94.4884 134.941Z" fill="black"/>
<path d="M25.8308 134.627V134.639C26.9457 138.929 29.2453 142.268 32.6658 144.564C32.7543 144.623 32.8425 144.681 32.9323 144.74C32.9491 144.751 32.968 144.763 32.9856 144.774C33.0655 144.827 33.1476 144.877 33.2297 144.925L33.3117 144.975C33.3813 145.017 33.4506 145.059 33.5201 145.099C33.5537 145.12 33.5875 145.139 33.6211 145.158C33.6885 145.198 33.7557 145.236 33.8252 145.276C33.8566 145.292 33.8883 145.311 33.9198 145.329C33.9976 145.373 34.0754 145.415 34.1532 145.457C34.1679 145.463 34.1799 145.472 34.1932 145.478C34.2689 145.518 34.3427 145.558 34.4205 145.595C34.4583 145.616 34.4983 145.635 34.5361 145.654C34.6264 145.7 34.7192 145.746 34.8095 145.791C34.9161 145.844 35.024 145.894 35.1335 145.944C35.2388 145.992 35.344 146.04 35.4511 146.087C35.4597 146.091 35.4679 146.093 35.4765 146.097C35.5796 146.143 35.6848 146.187 35.7898 146.231C35.7972 146.235 35.805 146.238 35.813 146.24C35.9161 146.284 36.0192 146.326 36.1242 146.366C36.1285 146.366 36.1327 146.37 36.1367 146.37C36.2503 146.414 36.364 146.459 36.4797 146.503C36.5953 146.548 36.7091 146.589 36.8261 146.629C36.9431 146.669 37.0595 146.711 37.1775 146.749C37.4131 146.829 37.6508 146.902 37.8949 146.974C40.3997 147.68 42.993 148.023 45.5956 147.994H46.4371C48.301 147.984 50.2784 147.879 51.8563 147.226C52.4931 146.975 53.0721 146.598 53.5582 146.117C53.8363 145.834 54.0735 145.514 54.263 145.166C54.7317 144.242 54.9514 143.213 54.9004 142.179C54.8015 139.012 52.6643 137.187 49.0353 137.169C48.0192 137.091 47.0711 136.981 46.1911 136.839C46.1722 136.837 46.1533 136.833 46.1365 136.83C40.7026 135.948 37.8919 133.863 37.7763 130.614C37.7718 130.067 37.8902 129.526 38.1227 129.031C38.176 128.947 38.2215 128.855 38.2722 128.756C38.3325 128.61 38.4171 128.475 38.5224 128.357L38.6465 128.263L38.6591 128.109C38.6591 128.083 38.6822 128.051 38.6676 128.027C37.5652 126.362 36.9026 122.234 36.5239 119.627C35.7938 119.31 35.0744 118.951 34.3738 118.596C34.3738 118.581 33.7175 118.277 33.5912 118.206C31.4559 119.177 29.6424 120.737 28.3635 122.701C26.0453 126.174 25.0269 130.971 25.8306 134.631L25.8308 134.627Z" fill="#FCFEFF"/>
<path d="M54.387 145.166C54.1984 145.515 53.9611 145.835 53.6822 146.118C53.1958 146.598 52.6169 146.976 51.9804 147.227C50.4048 147.88 48.425 147.985 46.5611 147.995H45.7849C43.5509 142.779 44.8824 138.992 46.2602 136.83C46.2792 136.832 46.296 136.836 46.3149 136.838C47.1942 136.979 48.1423 137.089 49.1591 137.168C52.788 137.189 54.9232 139.012 55.0241 142.178C55.0754 143.212 54.8557 144.242 54.3868 145.165L54.387 145.166Z" fill="black"/>
<path opacity="0.4" d="M45.183 138.432C46.1803 138.547 47.2511 138.637 48.3954 138.701C51.7992 138.716 54.0796 139.722 54.9021 141.515V141.382C54.8033 138.688 52.666 137.134 49.0371 137.117C48.021 137.049 47.0729 136.956 46.1929 136.837C46.174 136.835 46.155 136.831 46.1383 136.829C45.7629 137.327 45.4427 137.865 45.1833 138.432L45.183 138.432Z" fill="white"/>
<path d="M46.2033 148.461H46.5673C48.3934 148.451 50.4885 148.348 52.159 147.657C52.8533 147.382 53.4845 146.969 54.0146 146.443C54.3231 146.13 54.5859 145.775 54.7951 145.389C55.3019 144.395 55.5411 143.286 55.4892 142.172V142.166C55.4359 140.477 54.8244 139.085 53.7178 138.14C52.6176 137.199 51.0902 136.716 49.1781 136.704C48.185 136.626 47.2468 136.519 46.3885 136.381L46.0288 136.324L45.8646 136.58C44.3687 138.923 43.0668 142.838 45.3533 148.177L45.4732 148.458H45.8111C45.9395 148.46 46.0698 148.46 46.2004 148.46L46.2033 148.461ZM53.9765 144.944C53.8077 145.254 53.5967 145.538 53.3495 145.79C52.9077 146.228 52.3807 146.57 51.8011 146.796C50.2802 147.426 48.2985 147.521 46.5585 147.529H46.0962C44.2091 142.898 45.2169 139.473 46.4959 137.335C47.3099 137.459 48.1956 137.558 49.1256 137.629H49.1592C52.5483 137.65 54.4668 139.267 54.5595 142.188C54.6071 143.141 54.407 144.089 53.9789 144.942L53.9765 144.944Z" fill="black"/>
<path opacity="0.49" d="M25.8297 134.627V134.639C26.9445 138.929 29.2441 142.268 32.6647 144.564C32.7531 144.622 32.8413 144.681 32.9311 144.74L32.9844 144.774C33.0643 144.827 33.1464 144.877 33.2285 144.925L33.3106 144.975C33.3801 145.017 33.4494 145.059 33.5189 145.099C33.5525 145.12 33.5863 145.139 33.6199 145.158C33.6873 145.198 33.7545 145.236 33.824 145.275C33.8555 145.292 33.8872 145.311 33.9186 145.329C33.9964 145.373 34.0742 145.415 34.152 145.457C34.1667 145.463 34.1787 145.471 34.192 145.478C34.2677 145.518 34.3415 145.558 34.4193 145.595C34.4571 145.616 34.4971 145.635 34.5349 145.654C34.6253 145.7 34.718 145.746 34.8083 145.791C34.9149 145.844 35.0228 145.894 35.1324 145.944C35.2376 145.992 35.3429 146.041 35.45 146.087C35.4585 146.091 35.4668 146.093 35.4753 146.097C35.5784 146.144 35.6837 146.187 35.7886 146.232C35.796 146.235 35.8038 146.238 35.8118 146.24C35.9149 146.284 36.0181 146.326 36.1231 146.366C36.1273 146.366 36.1316 146.37 36.1356 146.37C36.2491 146.414 36.3629 146.458 36.4785 146.503C36.5942 146.548 36.7079 146.589 36.8249 146.629C36.9419 146.669 37.0583 146.711 37.1761 146.749C37.4117 146.829 37.6493 146.902 37.8934 146.974C40.3983 147.68 42.9916 148.023 45.5941 147.994H46.4356C48.2995 147.984 50.2769 147.879 51.8549 147.226C52.4917 146.975 53.0707 146.598 53.5568 146.117C53.8349 145.834 54.0721 145.514 54.2616 145.166C54.5803 144.562 54.7803 143.903 54.8507 143.224C54.8297 143.266 54.8086 143.305 54.7876 143.346C54.5988 143.694 54.3615 144.015 54.0828 144.297C53.5963 144.778 53.0174 145.155 52.3809 145.406C50.8053 146.059 48.8255 146.164 46.9616 146.174H46.1233C43.5208 146.203 40.9275 145.86 38.4226 145.154C38.1807 145.083 37.943 145.009 37.7053 144.929C37.5875 144.889 37.4697 144.85 37.3541 144.81C37.2385 144.77 37.1228 144.726 37.0077 144.684C36.8926 144.641 36.7783 144.597 36.6648 144.551C36.6605 144.551 36.6562 144.546 36.652 144.546C36.5467 144.504 36.4439 144.462 36.3408 144.42C36.3344 144.42 36.3261 144.414 36.3176 144.412C36.2123 144.368 36.1092 144.324 36.0042 144.277C35.9957 144.273 35.9874 144.271 35.9789 144.267C35.8723 144.221 35.7657 144.173 35.6613 144.124C35.5518 144.074 35.4446 144.023 35.3373 143.971C35.2448 143.927 35.1542 143.881 35.0639 143.835C35.026 143.816 34.9861 143.795 34.9482 143.776C34.8726 143.738 34.7969 143.698 34.7209 143.658C34.7084 143.652 34.6943 143.644 34.681 143.637C34.6032 143.595 34.5254 143.553 34.4476 143.509C34.4161 143.492 34.3844 143.476 34.353 143.456C34.2834 143.416 34.2163 143.378 34.1488 143.338C34.1153 143.32 34.0814 143.301 34.0479 143.28C33.9786 143.24 33.909 143.198 33.8395 143.156L33.7574 143.105C33.6753 143.055 33.5954 143.005 33.5133 142.954C33.4944 142.944 33.4776 142.931 33.46 142.92C33.3694 142.862 33.2812 142.803 33.1936 142.744C29.773 140.447 27.4735 137.107 26.3629 132.819V132.806C25.9365 130.881 26.0178 128.64 26.527 126.446C25.576 129.188 25.292 132.164 25.8342 134.627L25.8297 134.627Z" fill="#C5EFFF"/>
<path d="M25.1556 134.814C27.4655 144.268 36.0738 148.838 45.709 148.684C48.5996 148.545 52.5757 148.911 54.4375 146.132C56.007 144.031 55.9984 140.67 54.3029 138.658C53.0828 137.091 51.2946 136.777 49.0225 136.566C44.8108 136.178 39.8165 135.844 38.5628 131.273C38.3236 130.318 38.3974 129.312 38.7733 128.402C38.7959 128.358 38.8067 128.309 38.8048 128.26C38.8037 128.212 38.7905 128.166 38.7667 128.125C38.7428 128.084 38.7089 128.049 38.6681 128.024C38.6558 128.016 38.6423 128.01 38.6281 128.006C38.5732 127.991 38.5155 127.99 38.4602 128.003C38.4048 128.016 38.3534 128.042 38.3105 128.079C37.6688 128.663 37.4184 130.021 37.429 130.626C37.6225 135.996 44.607 137.178 49.0227 137.515C52.4729 137.593 54.4524 139.053 54.5513 142.184C54.6419 147.504 49.8264 147.665 45.5998 147.644C35.341 147.644 28.3702 143.02 26.1748 134.548C24.9208 128.836 28.1466 119.147 36.2854 117.675C36.397 117.654 36.5041 117.637 36.6115 117.621C36.6579 117.615 36.7568 117.592 36.801 117.588C36.6011 117.504 36.3866 117.405 36.1881 117.319C35.8241 117.16 35.4266 117.023 35.0711 116.853C35.0397 116.861 35.008 116.868 34.9787 116.876C27.9206 118.758 23.5869 127.956 25.1606 134.81L25.1556 134.814Z" fill="black"/>
<path d="M33.2862 118.599C33.5314 118.762 33.8027 118.95 34.0933 119.164C35.6448 120.292 37.0389 121.622 38.2386 123.118C39.4884 124.748 40.5655 126.503 41.4526 128.355C41.5765 128.607 41.6913 128.847 41.7967 129.072L43.0459 126.154C42.71 125.628 42.0371 124.611 41.1372 123.433C39.4245 121.193 37.6686 119.391 36.0593 118.22C35.5523 117.851 35.1286 117.665 34.8329 117.684C34.5993 117.722 34.3819 117.827 34.2068 117.986L34.0628 118.091C33.9981 118.138 33.9235 118.192 33.8413 118.245L33.8381 118.247C33.6439 118.373 33.4585 118.49 33.2862 118.599ZM31.5568 118.59C32.2225 118.319 32.8609 117.984 33.4633 117.592C33.5711 117.522 34.5202 117.242 34.6333 117.16C35.2397 116.72 34.931 116.461 36.4854 117.592C40.6018 120.587 44.0531 126.078 44.0531 126.078L41.8005 131.337C41.8005 131.337 40.1527 126.992 37.5349 123.669C35.8824 121.613 33.8537 119.89 31.5568 118.59Z" fill="black"/>
<path d="M87.3199 118.59C87.3199 118.59 86.5459 118.16 85.5254 117.499C84.8399 117.051 84.1343 116.156 82.2901 117.498C78.1737 120.493 74.8244 126.077 74.8244 126.077L77.076 131.337C77.076 131.337 78.7239 126.993 81.3416 123.669C82.9942 121.614 85.0229 119.89 87.3199 118.59Z" fill="white"/>
<path d="M85.5905 118.599C85.3453 118.762 85.074 118.95 84.7834 119.164C83.2319 120.293 81.8378 121.622 80.638 123.118C79.3882 124.748 78.3111 126.504 77.4239 128.356C77.3 128.607 77.1853 128.847 77.0799 129.073L75.8306 126.155C76.1666 125.628 76.8396 124.611 77.7394 123.434C79.4521 121.194 81.2079 119.391 82.8173 118.22C83.3244 117.851 83.7481 117.666 84.0438 117.684C84.2774 117.722 84.4948 117.828 84.6699 117.987L84.8139 118.091C84.8786 118.138 84.9531 118.192 85.0354 118.245L85.0386 118.248C85.2327 118.373 85.4182 118.49 85.5905 118.599ZM87.3199 118.59C87.3199 118.59 86.5459 118.16 85.5254 117.499C85.4176 117.428 85.309 117.346 85.1959 117.264C84.5895 116.824 83.844 116.367 82.2909 117.499C78.1746 120.493 74.8252 126.078 74.8252 126.078L77.076 131.337C77.076 131.337 78.7239 126.993 81.3416 123.669C82.9942 121.614 85.0229 119.89 87.3199 118.59Z" fill="black"/>
<path d="M44.8359 125.486L74.1346 125.41L76.9623 132.466L42.1262 132.444L44.8359 125.486Z" fill="#00A6ED"/>
</g>
<path d="M127.437 55.5331C128.378 55.5577 129.315 55.3948 130.192 55.0537C131.069 54.7126 131.869 54.2004 132.545 53.5469C133.222 52.8934 133.761 52.1118 134.131 51.2478C134.501 50.3838 134.694 49.4549 134.7 48.5153C134.698 47.5746 134.507 46.6439 134.138 45.7783C133.77 44.9126 133.231 44.1295 132.554 43.4753C131.876 42.8211 131.075 42.3091 130.196 41.9695C129.317 41.6299 128.379 41.4696 127.437 41.4981C126.495 41.4696 125.557 41.6299 124.678 41.9695C123.799 42.3091 122.998 42.8211 122.321 43.4753C121.643 44.1295 121.105 44.9126 120.736 45.7783C120.367 46.6439 120.176 47.5746 120.174 48.5153C120.18 49.4549 120.373 50.3838 120.744 51.2478C121.114 52.1118 121.653 52.8934 122.329 53.5469C123.005 54.2004 123.805 54.7126 124.683 55.0537C125.56 55.3948 126.496 55.5577 127.437 55.5331ZM127.437 112.513C131.63 112.513 134.234 109.864 134.234 105.449V67.8027C134.234 63.3874 131.627 60.6924 127.437 60.6924C123.2 60.6924 120.64 63.3881 120.64 67.8027V105.446C120.64 109.863 123.2 112.51 127.437 112.51V112.513ZM169.461 112.513C173.465 112.513 176.258 110.096 176.258 105.449V95.3617L180.587 91.365L193.392 108.281C195.534 111.488 197.163 112.51 200.05 112.51C203.868 112.51 206.522 110.001 206.522 106.376C206.522 104.609 206.103 103.401 204.613 101.403L190.691 83.6963L203.402 71.7062C205.357 69.8936 205.963 68.6392 205.963 66.5943C205.973 65.8044 205.823 65.0208 205.52 64.2908C205.218 63.5608 204.77 62.8998 204.204 62.3478C203.638 61.7958 202.966 61.3645 202.227 61.0799C201.489 60.7953 200.701 60.6635 199.91 60.6924C197.861 60.6924 196.325 61.4823 194.509 63.3881L176.445 81.4658H176.259V50.5602C176.259 45.9127 173.466 43.4499 169.462 43.4499C165.504 43.4499 162.664 45.9127 162.664 50.5602V105.447C162.664 110.093 165.504 112.51 169.461 112.51V112.513ZM239.746 55.5331C240.687 55.5577 241.623 55.3948 242.501 55.0537C243.378 54.7126 244.178 54.2004 244.854 53.5469C245.531 52.8934 246.069 52.1118 246.44 51.2478C246.81 50.3838 247.003 49.4549 247.009 48.5153C247.007 47.5746 246.816 46.6438 246.447 45.7781C246.079 44.9123 245.54 44.1292 244.863 43.4749C244.186 42.8206 243.384 42.3085 242.505 41.9689C241.626 41.6292 240.688 41.4689 239.746 41.4974C238.804 41.4689 237.866 41.6292 236.987 41.9689C236.108 42.3085 235.306 42.8206 234.629 43.4749C233.952 44.1292 233.413 44.9123 233.045 45.7781C232.676 46.6438 232.485 47.5746 232.483 48.5153C232.489 49.4549 232.682 50.3838 233.052 51.2478C233.422 52.1118 233.961 52.8934 234.638 53.5469C235.314 54.2004 236.114 54.7126 236.991 55.0537C237.868 55.3948 238.805 55.5577 239.746 55.5331ZM239.746 112.513C243.939 112.513 246.543 109.864 246.543 105.449V67.8027C246.543 63.3874 243.936 60.6924 239.746 60.6924C235.509 60.6924 232.949 63.3881 232.949 67.8027V105.446C232.948 109.863 235.509 112.51 239.746 112.51V112.513Z" fill="#00A6ED"/>
<path d="M121.868 156.667C122.101 156.67 122.332 156.624 122.546 156.534C122.76 156.443 122.953 156.308 123.112 156.139C123.271 155.97 123.393 155.77 123.47 155.551C123.547 155.332 123.577 155.1 123.559 154.869V146.302H123.637C124.272 147.434 125.209 148.37 126.343 149.008C127.477 149.646 128.765 149.961 130.067 149.918C135.157 149.918 138.635 145.818 138.635 139.514C138.635 133.21 135.138 129.11 129.99 129.11C128.661 129.08 127.349 129.414 126.198 130.075C125.046 130.737 124.1 131.701 123.462 132.862H123.384V130.812C123.401 130.594 123.373 130.374 123.301 130.168C123.229 129.961 123.114 129.772 122.964 129.612C122.814 129.452 122.633 129.324 122.431 129.238C122.229 129.152 122.011 129.108 121.791 129.11C121.57 129.106 121.35 129.148 121.147 129.233C120.943 129.319 120.759 129.446 120.607 129.606C120.455 129.766 120.339 129.956 120.265 130.164C120.191 130.371 120.162 130.592 120.179 130.812V154.869C120.161 155.1 120.191 155.332 120.268 155.551C120.345 155.769 120.467 155.969 120.626 156.139C120.784 156.308 120.977 156.442 121.191 156.533C121.405 156.624 121.636 156.67 121.868 156.667ZM129.328 146.959C125.87 146.959 123.539 144 123.539 139.513C123.539 135.046 125.87 132.068 129.328 132.068C132.922 132.068 135.176 134.969 135.176 139.513C135.174 144.077 132.921 146.959 129.327 146.959H129.328ZM149.511 149.918C150.84 149.923 152.145 149.572 153.29 148.901C154.435 148.231 155.378 147.266 156.019 146.108H156.097V148.216C156.08 148.435 156.11 148.656 156.183 148.864C156.257 149.071 156.373 149.262 156.525 149.422C156.677 149.582 156.861 149.709 157.065 149.794C157.269 149.88 157.488 149.922 157.71 149.918C157.929 149.92 158.147 149.876 158.349 149.79C158.551 149.703 158.733 149.576 158.882 149.416C159.032 149.256 159.147 149.066 159.219 148.86C159.291 148.653 159.32 148.434 159.302 148.216V135.665C159.302 131.662 156.31 129.109 151.571 129.109C148.288 129.109 145.334 130.559 144.189 132.764C143.938 133.187 143.798 133.666 143.783 134.156C143.771 134.356 143.802 134.556 143.872 134.743C143.943 134.93 144.053 135.1 144.194 135.242C144.335 135.384 144.504 135.496 144.691 135.569C144.878 135.641 145.078 135.674 145.279 135.665C145.567 135.682 145.853 135.614 146.102 135.47C146.35 135.325 146.551 135.111 146.678 134.853C147.111 133.965 147.8 133.226 148.658 132.73C149.515 132.234 150.501 132.003 151.491 132.068C154.288 132.068 155.92 133.538 155.92 135.994V137.677L150.111 138.005C145.449 138.275 142.787 140.442 142.787 143.884C142.788 147.501 145.489 149.918 149.51 149.918H149.511ZM150.269 147.056C147.84 147.056 146.228 145.799 146.228 143.884C146.228 141.989 147.783 140.787 150.501 140.616L155.921 140.288V141.93C155.921 144.832 153.452 147.056 150.267 147.056H150.269ZM166.877 149.918C167.11 149.921 167.341 149.875 167.555 149.784C167.769 149.693 167.962 149.559 168.121 149.39C168.28 149.221 168.402 149.02 168.479 148.802C168.556 148.583 168.586 148.351 168.568 148.12V137.078C168.568 134.507 169.87 132.321 172.919 132.321C173.49 132.37 174.06 132.22 174.531 131.896C174.708 131.756 174.848 131.575 174.939 131.37C175.03 131.165 175.071 130.94 175.056 130.716C175.068 130.51 175.036 130.303 174.963 130.11C174.889 129.917 174.775 129.741 174.629 129.595C174.179 129.238 173.609 129.065 173.036 129.111C171.984 129.158 170.974 129.535 170.151 130.188C169.327 130.841 168.732 131.737 168.451 132.747H168.374V130.813C168.391 130.594 168.363 130.374 168.291 130.167C168.218 129.96 168.103 129.77 167.953 129.61C167.802 129.449 167.62 129.322 167.417 129.236C167.214 129.15 166.996 129.106 166.776 129.109C166.556 129.107 166.338 129.151 166.136 129.237C165.934 129.324 165.753 129.451 165.603 129.611C165.453 129.771 165.338 129.961 165.266 130.167C165.194 130.374 165.165 130.593 165.183 130.811V148.12C165.165 148.351 165.195 148.583 165.272 148.802C165.349 149.021 165.471 149.221 165.631 149.391C165.79 149.56 165.983 149.694 166.197 149.785C166.412 149.876 166.643 149.921 166.876 149.918H166.877ZM180.125 144.928C180.125 148.138 181.757 149.725 185.02 149.725H185.234C187.118 149.725 187.701 149.186 187.701 148.158C187.701 147.365 187.196 146.92 186.089 146.843L185.797 146.824C184.107 146.708 183.505 145.895 183.505 144.193V132.223H186.108C186.304 132.252 186.503 132.237 186.693 132.179C186.882 132.121 187.055 132.022 187.201 131.888C187.346 131.755 187.46 131.59 187.533 131.407C187.606 131.224 187.637 131.027 187.624 130.831C187.624 129.96 187.082 129.458 186.108 129.458H183.505V126.015C183.523 125.784 183.493 125.552 183.416 125.333C183.339 125.114 183.217 124.914 183.058 124.745C182.899 124.575 182.706 124.441 182.492 124.35C182.278 124.259 182.047 124.214 181.814 124.217C181.581 124.214 181.35 124.259 181.136 124.35C180.922 124.441 180.729 124.575 180.57 124.745C180.411 124.914 180.289 125.114 180.212 125.333C180.135 125.552 180.105 125.784 180.123 126.015V129.457H178.432C177.461 129.457 176.917 129.96 176.917 130.83C176.903 131.027 176.934 131.224 177.007 131.407C177.081 131.59 177.194 131.754 177.339 131.888C177.485 132.021 177.659 132.121 177.848 132.179C178.037 132.236 178.237 132.251 178.432 132.222H180.123L180.125 144.928ZM194.301 149.918C194.534 149.921 194.765 149.875 194.979 149.784C195.193 149.693 195.386 149.559 195.545 149.39C195.704 149.221 195.826 149.02 195.903 148.802C195.98 148.583 196.01 148.351 195.992 148.12V137.735C195.992 134.331 198.071 132.088 201.257 132.088C204.368 132.088 205.899 133.867 205.899 137.115V148.119C205.881 148.35 205.912 148.582 205.989 148.801C206.065 149.02 206.187 149.22 206.346 149.389C206.506 149.558 206.698 149.693 206.913 149.784C207.127 149.874 207.357 149.92 207.59 149.917C207.823 149.92 208.054 149.874 208.268 149.784C208.482 149.693 208.675 149.558 208.834 149.389C208.993 149.22 209.115 149.02 209.192 148.801C209.269 148.582 209.299 148.35 209.281 148.119V136.516C209.281 131.952 206.716 129.11 202.287 129.11C199.159 129.11 197.003 130.503 195.877 132.669H195.799V130.812C195.816 130.594 195.788 130.374 195.716 130.168C195.643 129.961 195.529 129.772 195.379 129.612C195.229 129.452 195.047 129.324 194.845 129.238C194.644 129.152 194.426 129.108 194.206 129.11C193.986 129.108 193.768 129.151 193.566 129.237C193.364 129.323 193.182 129.45 193.032 129.611C192.882 129.771 192.767 129.96 192.694 130.167C192.622 130.373 192.593 130.593 192.611 130.811V148.12C192.592 148.351 192.623 148.583 192.7 148.802C192.777 149.02 192.899 149.221 193.058 149.39C193.217 149.559 193.41 149.693 193.624 149.784C193.838 149.875 194.069 149.921 194.301 149.918ZM223.634 149.918C227.326 149.918 230.162 148.369 231.463 145.644C231.609 145.334 231.694 144.999 231.716 144.658C231.727 144.46 231.695 144.263 231.624 144.078C231.552 143.893 231.442 143.726 231.301 143.587C231.159 143.448 230.99 143.341 230.803 143.272C230.617 143.203 230.418 143.174 230.22 143.188C229.968 143.181 229.719 143.24 229.498 143.358C229.276 143.477 229.09 143.652 228.957 143.865C227.383 146.147 225.907 146.997 223.498 146.997C219.884 146.997 217.65 144.483 217.65 140.422H230.281C230.539 140.439 230.797 140.399 231.037 140.305C231.278 140.212 231.495 140.067 231.673 139.88C231.85 139.694 231.985 139.471 232.067 139.228C232.149 138.984 232.176 138.725 232.146 138.47C232.146 132.958 228.513 129.112 223.346 129.112C217.769 129.109 214.176 133.246 214.176 139.591C214.176 146.089 217.673 149.918 223.636 149.918H223.634ZM217.673 137.793C217.886 134.331 220.14 132.03 223.286 132.03C226.414 132.03 228.57 134.312 228.648 137.793H217.673ZM238.827 149.918C239.06 149.921 239.291 149.875 239.505 149.784C239.719 149.693 239.912 149.559 240.071 149.39C240.23 149.221 240.352 149.02 240.429 148.802C240.506 148.583 240.536 148.351 240.518 148.12V137.078C240.518 134.507 241.82 132.321 244.869 132.321C245.44 132.37 246.01 132.22 246.482 131.896C246.658 131.756 246.798 131.575 246.889 131.37C246.98 131.165 247.021 130.94 247.006 130.716C247.018 130.51 246.986 130.303 246.913 130.11C246.839 129.917 246.725 129.741 246.579 129.595C246.129 129.238 245.56 129.065 244.986 129.111C243.934 129.158 242.924 129.535 242.101 130.188C241.277 130.841 240.683 131.737 240.402 132.747H240.324V130.813C240.341 130.595 240.313 130.376 240.241 130.169C240.168 129.963 240.054 129.773 239.904 129.613C239.754 129.453 239.572 129.326 239.37 129.239C239.169 129.153 238.951 129.109 238.731 129.111C238.511 129.109 238.294 129.153 238.092 129.239C237.89 129.326 237.708 129.453 237.558 129.613C237.409 129.773 237.294 129.963 237.222 130.169C237.149 130.376 237.121 130.595 237.138 130.813V148.122C237.12 148.352 237.151 148.584 237.228 148.802C237.305 149.021 237.427 149.221 237.585 149.39C237.744 149.559 237.937 149.693 238.15 149.784C238.364 149.875 238.595 149.92 238.827 149.918Z" fill="#00A6ED"/>
</g>
<defs>
<clipPath id="clip0_314_541">
<rect width="259" height="183" fill="white"/>
</clipPath>
</defs>
</svg>
