<svg width="259" height="160" viewBox="0 0 259 160" fill="none" xmlns="http://www.w3.org/2000/svg">
<g clip-path="url(#clip0_10_903)">
<path opacity="0.35" d="M91.3585 104.765C83.1748 108.714 75.6859 111.779 60.2723 111.779C44.8586 111.779 37.1557 108.745 28.7675 104.581C29.5539 104.021 30.5145 103.752 31.4814 103.821C32.5099 103.562 33.8421 103.299 35.2389 103.015C51.1955 108.588 70.2099 108.551 86.0933 102.694C88.2455 103.051 90.2261 103.596 91.3585 104.765Z" fill="#C5EFFF"/>
<path d="M39.4498 43.3261C39.1347 44.0189 38.7767 44.6919 38.3781 45.3413C32.9832 48.3747 18.4202 53.9163 12.1053 50.708C2.37699 45.7543 1.59482 27.7511 7.50281 20.0021C13.4108 12.2531 26.2781 10.5132 33.9935 14.4332C44.0485 19.5455 43.8352 33.6661 39.453 43.3261H39.4498Z" fill="black"/>
<path d="M82.7726 45.6363C83.0854 46.3642 83.445 47.0716 83.8491 47.7542C89.4069 51.0138 104.466 57.0572 111.099 53.8325C121.329 48.8641 122.489 30.1328 116.484 21.9522C110.479 13.7715 97.1224 11.7213 89.0103 15.6522C78.4431 20.7855 78.3928 35.4925 82.7726 45.6308V45.6363Z" fill="black"/>
<path d="M58.1598 12.0095C57.7278 12.0749 57.284 12.155 57.0912 12.1931C57.0275 12.1604 56.9614 12.1301 56.8984 12.1005C57.3163 12.0647 57.738 12.0352 58.1598 12.0095Z" fill="white"/>
<path opacity="0.4" d="M8.27037 72.9678C8.27824 73.0184 8.28296 73.0705 8.29083 73.1234C8.20538 73.187 8.11632 73.2457 8.02408 73.2992C7.97844 73.3272 7.92493 73.3567 7.8667 73.3871C7.87929 72.3982 7.92152 71.3936 7.99339 70.3732C8.01857 70.7294 8.04926 71.0809 8.08467 71.4325C8.13581 71.9497 8.19641 72.4639 8.26723 72.9686L8.27037 72.9678Z" fill="white"/>
<path opacity="0.4" d="M112.257 73.2689C112.163 73.2113 112.089 73.1608 112.036 73.1211C112.044 73.0713 112.051 73.0208 112.056 72.9656C112.127 72.4585 112.185 71.9467 112.239 71.4295C112.274 71.0779 112.305 70.7295 112.33 70.3701C112.401 71.3916 112.443 72.3962 112.457 73.384C112.378 73.3412 112.314 73.3016 112.254 73.2658L112.257 73.2689Z" fill="white"/>
<path d="M116.464 74.2699C116.464 74.2699 116.441 74.2979 116.418 74.3228C115.244 75.5941 113.723 76.5023 112.038 76.9377C112.829 77.617 113.798 78.0623 114.833 78.2226C112.993 81.8112 110.812 85.2185 108.318 88.3982C107.416 89.5376 106.452 90.628 105.431 91.6649C105.147 91.9537 104.858 92.2348 104.566 92.508C103.898 93.1328 103.223 93.7343 102.54 94.3124C100.268 96.2415 97.8472 97.9927 95.3001 99.55C95.1805 99.6278 95.0585 99.6978 94.9397 99.7686C90.7815 102.259 86.3419 104.259 81.7121 105.726C74.7462 107.93 67.4808 109.07 60.1669 109.107C52.8523 109.07 45.5861 107.93 38.6195 105.726C33.9901 104.258 29.5506 102.258 25.3918 99.7686C25.3029 99.7133 25.2093 99.6581 25.1203 99.6029C22.5407 98.0335 20.0905 96.265 17.7928 94.314C17.1108 93.7343 16.4354 93.132 15.7665 92.5072C15.4597 92.2187 15.152 91.9223 14.8553 91.619C14.3273 91.0847 13.8119 90.5301 13.3169 89.96C12.9361 89.526 12.5655 89.0842 12.2074 88.6378C9.65732 85.419 7.42792 81.9641 5.55032 78.3213C5.51727 78.2537 5.49917 78.2187 5.49917 78.2187C5.49917 78.2187 5.56291 78.2109 5.67701 78.1915C6.60947 78.0116 7.48143 77.6035 8.21317 77.0046C8.24071 76.982 8.26903 76.9595 8.29658 76.9346C6.61207 76.4986 5.09103 75.5905 3.91673 74.3197C3.89365 74.2948 3.87844 74.2772 3.87109 74.2668H3.93719C5.26977 74.3023 6.59097 74.0156 7.78588 73.4315C10.8075 73.0799 13.7395 72.8194 14.661 70.7092C24.0982 49.0497 49.7965 49.584 56.1672 66.5582C58.1535 71.7962 58.253 77.5507 56.4489 82.8527C57.5988 82.8008 58.7498 82.77 59.9018 82.7601H60.4424C61.6662 82.7679 62.8899 82.8021 64.1132 82.8628C62.3045 77.5582 62.4032 71.7992 64.3926 66.5582C70.7664 49.584 96.4616 49.0497 105.899 70.7092C106.79 72.7571 109.573 73.0659 112.492 73.4019C113.703 74.0088 115.048 74.3072 116.405 74.2699H116.471H116.464Z" fill="white"/>
<path opacity="0.35" d="M114.834 78.2226C114.834 78.2226 110.566 86.9025 104.564 92.5088C101.622 95.2561 98.3947 97.6894 94.9365 99.7685C90.7783 102.259 86.3387 104.259 81.7088 105.726C67.7057 110.233 52.617 110.233 38.6138 105.726C33.9844 104.258 29.5449 102.258 25.3862 99.7685C21.928 97.6894 18.701 95.2561 15.7586 92.5088C9.75614 86.9018 5.48804 78.2226 5.48804 78.2226C6.12124 78.128 6.73243 77.9231 7.29317 77.6174C9.60025 81.6457 12.4467 85.3479 15.7554 88.6238C18.6978 91.3711 21.9248 93.8045 25.383 95.8835C29.5412 98.3742 33.9808 100.374 38.6107 101.841C52.6138 106.348 67.7025 106.348 81.7057 101.841C86.3351 100.373 90.7745 98.3731 94.9333 95.8835C98.3915 93.8045 101.619 91.3711 104.561 88.6238C107.87 85.348 110.716 81.6458 113.023 77.6174C113.583 77.9245 114.195 78.1295 114.828 78.2226H114.834Z" fill="#B3B3B3"/>
<path d="M116.96 73.8785C116.897 73.804 116.818 73.7444 116.728 73.704C116.639 73.6637 116.541 73.6435 116.443 73.6452C115.237 73.6795 114.039 73.4364 112.944 72.9351C112.878 72.9015 112.824 72.849 112.789 72.7843C112.754 72.7197 112.74 72.6461 112.749 72.5734C112.795 72.2218 112.835 71.8609 112.871 71.4946C112.95 70.7417 113.003 69.9717 113.041 69.1986C113.153 66.728 113.092 64.2526 112.858 61.7903C112.472 57.8818 111.752 54.0126 110.707 50.2239C110.237 48.4963 109.678 46.7936 109.032 45.1225C108.994 45.0245 108.958 44.9296 108.92 44.8339C108.851 44.6605 108.781 44.4855 108.709 44.3097C108.674 44.2218 108.635 44.1316 108.6 44.0414C108.585 44.0041 108.567 43.9636 108.552 43.9286C108.43 43.6323 108.305 43.3391 108.175 43.0451C107.546 41.6145 106.856 40.2158 106.106 38.8489C105.997 38.6506 105.888 38.4523 105.776 38.2571C103.938 35.026 101.759 31.9967 99.2742 29.2201C94.2036 23.5573 87.9737 19.0239 80.997 15.9201C78.2403 14.701 75.3838 13.7154 72.4585 12.9738C71.8691 12.8229 71.2522 12.6775 70.6305 12.5422C70.0592 12.4169 69.4801 12.3011 68.9041 12.1961C68.4419 12.1105 67.9789 12.0309 67.5152 11.9573C66.8018 11.8442 66.0841 11.7473 65.3623 11.6664C61.4677 9.765 57.2969 8.47601 53.0002 7.84595C53.2717 7.97895 57.2494 9.26617 57.8954 11.3996C57.5752 11.4198 57.2581 11.4424 56.9386 11.4696C51.7333 8.36784 39.3358 9.27395 39.3358 9.27395C39.3358 9.27395 46.3816 9.39684 51.1211 12.2505C50.6411 12.3384 50.1666 12.4341 49.6889 12.5391C49.0673 12.6744 48.4527 12.8198 47.861 12.9707C44.9375 13.7122 42.0829 14.6975 39.3279 15.9162C32.3499 19.0192 26.1188 23.5527 21.0476 29.2162C18.5648 31.9946 16.3864 35.0248 14.5487 38.2563C14.437 38.4523 14.3252 38.6506 14.2158 38.8482C13.4641 40.2134 12.7753 41.6121 12.1495 43.0443C12.0047 43.3733 11.8622 43.7069 11.723 44.0406C11.5758 44.3992 11.4334 44.7585 11.291 45.1194V45.1241L11.2831 45.1466C10.6377 46.8086 10.0816 48.5032 9.61723 50.2232C8.5721 54.0121 7.85269 57.8816 7.46666 61.7903C7.23267 64.2526 7.17168 66.728 7.2841 69.1986C7.32187 69.9694 7.37774 70.7417 7.45407 71.4923C7.48948 71.8609 7.53276 72.2226 7.57604 72.5742C7.58457 72.6469 7.57047 72.7205 7.5356 72.7851C7.50073 72.8497 7.44676 72.9023 7.38089 72.9358C6.27898 73.4401 5.07323 73.6832 3.85954 73.646C3.73843 73.6448 3.61955 73.6782 3.51717 73.7422C3.41479 73.8061 3.33325 73.8979 3.28233 74.0066C3.23141 74.1152 3.21328 74.236 3.2301 74.3546C3.24692 74.4731 3.29799 74.5844 3.37718 74.6749C4.21397 75.5929 5.21722 76.3479 6.33511 76.9009C6.37978 76.9231 6.41702 76.9575 6.44235 77C6.46768 77.0426 6.48 77.0915 6.47784 77.1408C6.47567 77.1902 6.45912 77.2378 6.43016 77.2781C6.4012 77.3183 6.36109 77.3494 6.31465 77.3676C6.02688 77.4762 5.7283 77.5544 5.42389 77.6009C5.32238 77.6107 5.2248 77.6447 5.13953 77.7C5.05427 77.7553 4.98387 77.8303 4.9344 77.9184C4.88494 78.0066 4.85788 78.1053 4.85555 78.2061C4.85323 78.3068 4.87571 78.4067 4.92106 78.4969C5.09654 78.8555 9.30799 87.3457 15.3254 92.9636C22.2736 99.3953 30.6577 104.118 39.7977 106.748C46.4081 108.694 53.2653 109.699 60.1625 109.732C67.0586 109.698 73.9148 108.694 80.5241 106.748C89.6641 104.118 98.0482 99.3953 104.996 92.9636C111.014 87.3426 115.226 78.8524 115.401 78.4969C115.446 78.4069 115.468 78.3075 115.465 78.2072C115.463 78.1069 115.436 78.0087 115.387 77.9209C115.338 77.8331 115.268 77.7584 115.183 77.7031C115.098 77.6478 115.001 77.6135 114.9 77.6033C114.595 77.5549 114.296 77.4767 114.006 77.3699C113.96 77.3517 113.92 77.3207 113.891 77.2806C113.862 77.2405 113.845 77.1931 113.843 77.1439C113.841 77.0947 113.853 77.0458 113.878 77.0032C113.902 76.9605 113.939 76.9258 113.984 76.9033C115.102 76.3499 116.106 75.5949 116.944 74.6773C117.038 74.5663 117.091 74.4266 117.093 74.2817C117.095 74.1368 117.047 73.9955 116.956 73.8816L116.96 73.8785ZM114.47 75.1735C113.693 75.7157 112.82 76.1074 111.895 76.3277C111.782 76.3544 111.678 76.4113 111.594 76.4922C111.511 76.5731 111.452 76.6749 111.423 76.7866C111.395 76.8983 111.398 77.0156 111.433 77.1255C111.468 77.2353 111.533 77.3334 111.621 77.4088C112.173 77.882 112.805 78.2559 113.487 78.5133C113.538 78.5323 113.584 78.5618 113.623 78.5998C113.661 78.6379 113.691 78.6836 113.71 78.7339C113.729 78.7843 113.738 78.8381 113.734 78.8918C113.731 78.9454 113.716 78.9978 113.69 79.0453C112.342 81.5396 108.733 87.7564 104.131 92.0544C88.9124 106.273 70.0514 108.449 60.1648 108.482C50.276 108.449 31.4142 106.274 16.1964 92.0544C11.5986 87.7579 7.98601 81.5396 6.63727 79.0453C6.61143 78.998 6.59611 78.9457 6.59236 78.8921C6.5886 78.8385 6.59649 78.7847 6.61549 78.7343C6.63449 78.6839 6.66417 78.6381 6.70253 78.6C6.7409 78.5619 6.78706 78.5323 6.83793 78.5133C7.52173 78.2566 8.15438 77.8827 8.7068 77.4088C8.79488 77.3334 8.86005 77.2353 8.89506 77.1255C8.93007 77.0156 8.93355 76.8983 8.9051 76.7866C8.87616 76.6749 8.81688 76.5731 8.73368 76.4922C8.65047 76.4113 8.54649 76.3544 8.43296 76.3277C7.50861 76.1073 6.63494 75.7157 5.85825 75.1735C5.81605 75.1446 5.78337 75.1041 5.76426 75.057C5.74515 75.0099 5.74046 74.9583 5.75077 74.9086C5.76108 74.8589 5.78594 74.8133 5.82225 74.7774C5.85856 74.7415 5.90474 74.717 5.95504 74.7068C6.92969 74.5483 7.85662 74.178 8.66903 73.6226C8.76051 73.5557 8.83195 73.4656 8.87573 73.3618C8.91952 73.258 8.93402 73.1444 8.91769 73.0331C8.839 72.5088 8.77526 71.9488 8.71703 71.3694C8.64621 70.6391 8.59034 69.8916 8.55178 69.1387C8.44235 66.7264 8.50256 64.3095 8.73198 61.9054C9.1109 58.0683 9.81662 54.2697 10.8416 50.5498C11.3107 48.832 11.871 47.1398 12.5201 45.4803L12.5279 45.4655C12.5327 45.4507 12.5382 45.4383 12.5429 45.4227C12.5476 45.4072 12.5429 45.4149 12.5476 45.4103C12.5579 45.3799 12.5728 45.3473 12.5854 45.3146C17.6074 32.7512 27.3852 22.6168 39.8433 17.0626C41.1202 16.4979 42.4217 15.9836 43.7479 15.5195C45.2052 15.0103 46.6827 14.5654 48.1805 14.1848C48.7565 14.0371 49.3608 13.8939 49.9651 13.7633C50.7547 13.5901 51.5494 13.4361 52.3494 13.3013L52.6721 13.2484C52.7736 13.2305 52.8774 13.2134 52.9789 13.1978C52.9831 13.1967 52.9874 13.1967 52.9915 13.1978C53.1969 13.1652 53.4031 13.1348 53.6085 13.1053C55.7783 12.7897 57.9659 12.6079 60.1585 12.5608C62.3449 12.6091 64.5261 12.7909 66.6898 13.1053C66.7307 13.1099 66.7684 13.1154 66.8117 13.1232C67.1619 13.1737 67.5097 13.2313 67.8606 13.2888L67.9519 13.3036C68.1523 13.3363 68.353 13.3715 68.5539 13.4094H68.5586C69.1574 13.5198 69.7547 13.6381 70.3488 13.7679C70.9555 13.8986 71.5551 14.0417 72.1311 14.1895C73.6262 14.5683 75.1095 15.0155 76.5637 15.5242C77.8888 15.9862 79.1943 16.5026 80.4682 17.0673C92.927 22.6213 102.706 32.7557 107.729 45.3193L107.836 45.5899C107.836 45.5899 107.836 45.5899 107.836 45.5946C108.469 47.2178 109.015 48.8732 109.471 50.5537C110.498 54.2732 111.204 58.072 111.583 61.9093C111.812 64.3134 111.872 66.7303 111.763 69.1426C111.725 69.8932 111.669 70.6461 111.595 71.3733C111.539 71.9527 111.473 72.5127 111.397 73.0369C111.381 73.1483 111.395 73.2619 111.439 73.3657C111.483 73.4695 111.554 73.5596 111.646 73.6265C112.458 74.1818 113.385 74.5521 114.36 74.7107C114.41 74.7199 114.456 74.7433 114.493 74.778C114.53 74.8128 114.556 74.8574 114.567 74.9064C114.579 74.9554 114.576 75.0067 114.558 75.054C114.541 75.1013 114.51 75.1426 114.469 75.1727L114.47 75.1735Z" fill="black"/>
<path d="M117.264 73.6443C117.166 73.5243 117.042 73.4279 116.901 73.3627C116.759 73.2974 116.605 73.265 116.449 73.2678C115.313 73.2977 114.184 73.0783 113.144 72.6254C113.14 72.624 113.136 72.6212 113.134 72.6175C113.132 72.6138 113.131 72.6095 113.131 72.6052C113.177 72.2614 113.218 71.8974 113.253 71.5311C113.327 70.7961 113.386 70.0175 113.423 69.2148C113.537 66.7268 113.476 64.234 113.241 61.7544C112.853 57.8246 112.129 53.9343 111.078 50.125C110.611 48.407 110.057 46.7134 109.417 45.0508L109.278 44.6946C109.21 44.5212 109.139 44.343 109.067 44.1673L109.026 44.0669C109.003 44.0117 108.981 43.9565 108.958 43.8966L108.91 43.7838C108.785 43.4852 108.661 43.1888 108.529 42.8933C107.899 41.4606 107.201 40.0373 106.444 38.6676C106.335 38.4669 106.226 38.2686 106.112 38.0703C104.26 34.8169 102.065 31.7666 99.5638 28.9703C94.4574 23.2658 88.1829 18.6989 81.156 15.5723C78.3802 14.3436 75.5034 13.3512 72.5569 12.6058C71.9651 12.4503 71.3458 12.3072 70.7163 12.1695C70.1576 12.0466 69.5714 11.9307 68.9773 11.8211C68.4768 11.7285 68.0204 11.6507 67.5782 11.5823L67.5507 11.5776C66.8495 11.4672 66.1539 11.3715 65.4788 11.2968H65.4709C61.6579 9.42535 57.5728 8.15342 53.363 7.52694C53.2237 7.50438 53.1317 7.48961 53.0939 7.48183L49.9274 6.7165C49.9223 6.71546 49.9169 6.7163 49.9123 6.71884C49.9077 6.72139 49.9042 6.72548 49.9024 6.73037C49.9006 6.73526 49.9006 6.74063 49.9024 6.74551C49.9043 6.75038 49.9079 6.75444 49.9125 6.75694L52.835 8.18494C52.8704 8.20283 52.9546 8.2355 53.0837 8.28527C55.5923 9.24427 56.7396 10.1776 57.24 10.9126C57.1409 11.0153 57.1613 10.9982 57.0575 11.1008C51.8144 8.05661 40.6208 9.18361 39.9174 9.23416C39.9071 9.23416 39.1785 9.25672 39.1785 9.26683L50.0376 12.0824L49.6135 12.1726C49.0013 12.3056 48.382 12.4534 47.7729 12.6066C44.8274 13.3531 41.9512 14.3452 39.1753 15.5723C32.1468 18.6978 25.8705 23.2639 20.762 28.9679C18.263 31.7656 16.0691 34.8158 14.2167 38.0679C14.1049 38.2663 13.9908 38.4646 13.8815 38.6653C13.1221 40.0427 12.4241 41.4653 11.7993 42.8909C11.6546 43.2223 11.5098 43.5583 11.3705 43.895C11.221 44.2567 11.0785 44.6176 10.9361 44.9793L10.8448 45.2126L10.8496 45.2173C10.2336 46.8257 9.70071 48.464 9.25296 50.1258C8.20383 53.9351 7.48153 57.8251 7.09373 61.7544C6.85844 64.234 6.79744 66.7268 6.91117 69.2148C6.95209 70.0229 7.00795 70.8007 7.08114 71.5264C7.11655 71.8904 7.15982 72.2466 7.20074 72.5881C7.2018 72.5924 7.20137 72.597 7.19952 72.6011C7.19767 72.6051 7.1945 72.6085 7.19051 72.6106C6.16053 73.0747 5.03673 73.2995 3.90524 73.2678C3.68422 73.2611 3.46668 73.3234 3.28359 73.4459C3.16881 73.526 3.07207 73.6288 2.99951 73.7477C2.92694 73.8666 2.88012 73.9991 2.862 74.1368C2.84388 74.2745 2.85486 74.4144 2.89424 74.5478C2.93363 74.6811 3.00056 74.8048 3.0908 74.9113C3.89342 75.8014 4.849 76.5442 5.91339 77.1054C5.74092 77.1565 5.56536 77.1968 5.38774 77.2259C5.22572 77.2426 5.07018 77.2978 4.93435 77.3866C4.79852 77.4755 4.68643 77.5955 4.60762 77.7364C4.5288 77.8773 4.4856 78.035 4.48168 78.196C4.47776 78.3569 4.51324 78.5164 4.58511 78.6609C4.62603 78.7488 8.93899 87.512 15.0705 93.2412C22.0612 99.7125 30.4965 104.464 39.6923 107.111C46.3387 109.069 53.2337 110.08 60.1688 110.113C67.1022 110.08 73.9953 109.069 80.6398 107.111C89.8364 104.464 98.2726 99.7121 105.265 93.2412C111.396 87.512 115.708 78.7488 115.75 78.6609C115.82 78.5173 115.855 78.3592 115.85 78.1998C115.846 78.0404 115.803 77.8843 115.726 77.7444C115.649 77.6046 115.538 77.485 115.405 77.3956C115.271 77.3063 115.118 77.2497 114.958 77.2306H114.953C114.772 77.2018 114.593 77.1607 114.417 77.1077C115.479 76.5442 116.435 75.8029 117.241 74.9167C117.391 74.7395 117.475 74.5168 117.479 74.2856C117.483 74.0545 117.407 73.829 117.263 73.6466L117.264 73.6443ZM12.1944 45.2795C12.1919 45.2833 12.1903 45.2875 12.1896 45.2919V45.2873C12.1909 45.2845 12.1925 45.2819 12.1944 45.2795Z" fill="black"/>
<path d="M34.5524 138.439C34.5422 137.628 31.4371 139.026 31.4426 138.21C31.4382 133.894 31.7274 129.583 32.3082 125.306C32.3515 124.989 32.3995 124.674 32.4475 124.36C32.6101 123.314 32.7861 122.301 32.9755 121.321C34.0212 115.921 25.8234 107.198 28.7687 104.586C29.2889 104.124 31.2616 103.958 32.5899 103.929C33.6184 103.67 33.8442 103.301 35.2401 103.018C38.3145 102.396 41.6989 101.665 42.8336 100.649C47.2867 96.6564 52.9916 94.9399 59.9257 94.9072H60.0886C67.0227 94.9399 72.7245 96.6587 77.1776 100.649C78.734 102.042 82.6362 102.127 86.0938 102.697C88.2468 103.053 82.1437 103.194 91.3597 104.767C91.7941 104.845 91.9106 105.442 92.0782 105.856C93.5937 109.568 86.7493 119.104 87.5638 124.359C88.2436 128.956 88.5797 133.597 88.5694 138.243C88.5741 139.059 87.0381 138.69 87.0287 139.498" fill="white"/>
<path d="M53.0548 137.278C54.4768 137.278 55.6295 136.139 55.6295 134.733C55.6295 133.328 54.4768 132.188 53.0548 132.188C51.6328 132.188 50.4801 133.328 50.4801 134.733C50.4801 136.139 51.6328 137.278 53.0548 137.278Z" fill="#0D1338"/>
<path d="M53.0835 127.15C54.5055 127.15 55.6582 126.011 55.6582 124.605C55.6582 123.2 54.5055 122.06 53.0835 122.06C51.6615 122.06 50.5088 123.2 50.5088 124.605C50.5088 126.011 51.6615 127.15 53.0835 127.15Z" fill="#0D1338"/>
<path d="M66.9271 137.278C68.3491 137.278 69.5018 136.139 69.5018 134.733C69.5018 133.328 68.3491 132.188 66.9271 132.188C65.5052 132.188 64.3524 133.328 64.3524 134.733C64.3524 136.139 65.5052 137.278 66.9271 137.278Z" fill="#0D1338"/>
<path d="M66.9533 127.15C68.3752 127.15 69.528 126.011 69.528 124.605C69.528 123.2 68.3752 122.06 66.9533 122.06C65.5313 122.06 64.3785 123.2 64.3785 124.605C64.3785 126.011 65.5313 127.15 66.9533 127.15Z" fill="#0D1338"/>
<path d="M56.977 105.326C55.6566 106.732 54.3165 108.167 53.0213 109.555C51.1729 111.538 49.426 113.407 47.7224 115.209C44.7375 118.344 42.9711 122.421 42.7358 126.72C42.4085 133.165 42.436 141.102 42.5682 147.905C42.1315 147.85 41.7097 147.79 41.2989 147.732C41.1691 140.949 41.1416 133.071 41.4713 126.654C41.7221 122.06 43.6089 117.703 46.7978 114.352C48.499 112.556 50.2459 110.686 52.0912 108.706C53.3864 107.318 54.7265 105.882 56.0493 104.475C56.164 104.353 56.3231 104.281 56.4914 104.275C56.6597 104.269 56.8235 104.33 56.9467 104.443C57.0699 104.557 57.1425 104.714 57.1485 104.88C57.1545 105.046 57.0934 105.208 56.9786 105.33L56.977 105.326Z" fill="#0D1338"/>
<path d="M32.9704 125.149C32.577 124.994 32.1733 124.838 31.7594 124.67L32.9704 125.149ZM88.2583 124.678C87.8444 124.842 87.4383 124.997 87.0472 125.145L88.2583 124.678Z" fill="black"/>
<path d="M31.6481 125.443C31.7519 124.078 33.5649 115.859 34.4281 116.477C34.5122 116.508 34.5807 116.571 34.6195 116.651C34.6582 116.732 34.6644 116.824 34.6367 116.908C34.209 118.327 33.8599 119.768 33.5909 121.225C33.3013 122.678 33.1235 124.161 32.8976 125.622C32.8611 125.774 32.7679 125.908 32.6366 125.996C32.5052 126.085 32.3452 126.121 32.188 126.098C32.0309 126.076 31.888 125.996 31.7876 125.874C31.6872 125.752 31.6366 125.598 31.6457 125.441L31.6481 125.443Z" fill="#0D1338"/>
<path d="M88.3534 125.478C88.148 123.086 86.4468 115.859 85.5835 116.477C85.4995 116.509 85.431 116.571 85.3923 116.651C85.3535 116.732 85.3473 116.824 85.375 116.908C85.8027 118.327 86.1518 119.768 86.4208 121.225C86.7104 122.678 86.8851 124.161 87.1085 125.624C87.1414 125.776 87.2303 125.91 87.3579 126C87.4855 126.09 87.6426 126.13 87.7984 126.112C87.9542 126.093 88.0974 126.018 88.2001 125.901C88.3027 125.784 88.3574 125.633 88.3534 125.478Z" fill="#0D1338"/>
<path d="M116.466 74.2696C116.466 74.2696 116.443 74.2968 116.42 74.3225C115.246 75.5944 113.724 76.5033 112.038 76.9397C112.831 77.6177 113.8 78.0621 114.836 78.2222C112.997 81.8112 110.816 85.2186 108.322 88.3979C107.42 89.5378 106.456 90.6284 105.435 91.6646C105.15 91.9534 104.862 92.2352 104.569 92.51C103.901 93.1322 103.226 93.7329 102.545 94.3121C100.273 96.2406 97.8523 97.9917 95.3056 99.5497C95.1837 99.6274 95.0641 99.6974 94.9452 99.7682C90.786 102.259 86.3457 104.259 81.7152 105.728C74.7494 107.932 67.484 109.072 60.1701 109.109C52.8549 109.072 45.5882 107.932 38.6211 105.728C33.9914 104.259 29.5518 102.259 25.3934 99.7682C25.3021 99.7153 25.2108 99.6601 25.1219 99.6049C22.5428 98.0347 20.0927 96.2662 17.7944 94.316C17.1124 93.7363 16.4362 93.1348 15.7658 92.5116C15.4589 92.2207 15.1536 91.9243 14.8569 91.6233C14.326 91.0862 13.8132 90.5331 13.3185 89.9643C12.9377 89.5303 12.5678 89.0896 12.209 88.6421C9.65697 85.4242 7.42671 81.9692 5.54955 78.3257C5.5165 78.258 5.4984 78.223 5.4984 78.223C5.55812 78.217 5.61749 78.2079 5.67624 78.1958C6.60909 78.0171 7.48133 77.6089 8.21239 77.0089C8.23994 76.9863 8.26826 76.9638 8.29108 76.9412C6.6061 76.5051 5.08491 75.5961 3.91124 74.324C3.88816 74.2991 3.87294 74.2815 3.8656 74.2711H3.9317C5.26413 74.3051 6.58494 74.0184 7.78039 73.4358C7.87167 73.3883 7.95272 73.3401 8.02433 73.2981C8.11657 73.2446 8.20563 73.1859 8.29108 73.1223C8.28321 73.0718 8.27849 73.022 8.27062 72.9668C8.1998 72.4597 8.14079 71.9479 8.08807 71.4307C8.01462 70.6856 7.95954 69.9311 7.92282 69.1673C7.80999 66.726 7.87021 64.2799 8.10302 61.8469C8.48333 57.9742 9.1962 54.1404 10.2339 50.3871C12.6841 41.4992 17.4718 33.4111 24.1101 26.9452C30.7484 20.4793 39.0006 15.8662 48.0276 13.5749C48.624 13.4194 49.2284 13.2817 49.8327 13.1479C50.7214 12.9545 51.6192 12.7839 52.5262 12.6361C50.4465 10.1869 44.097 9.80269 43.9601 9.62458C45.242 9.60436 51.9502 9.9458 56.9006 12.0987C56.9643 12.1259 57.0304 12.1586 57.0934 12.1912C57.2861 12.1539 57.7307 12.073 58.162 12.0077H58.1801C58.4792 11.9544 58.7826 11.9284 59.0866 11.9299C58.9886 11.3176 58.7195 10.7444 58.3096 10.2751C57.8997 9.80584 57.3654 9.45903 56.7668 9.2738C56.899 9.30414 63.7993 10.855 64.7774 12.2247C66.6995 12.4297 68.609 12.7379 70.4973 13.1479C71.104 13.2809 71.7059 13.4217 72.3071 13.5749C81.3337 15.8666 89.5854 20.4799 96.2233 26.9457C102.861 33.4116 107.648 41.4995 110.098 50.3871C111.135 54.141 111.847 57.9749 112.229 61.8477C112.461 64.2807 112.522 66.7268 112.409 69.1681C112.37 69.9309 112.315 70.6853 112.241 71.4315C112.189 71.95 112.129 72.462 112.061 72.9676C112.053 73.0205 112.046 73.0702 112.038 73.1231C112.092 73.1636 112.165 73.2133 112.259 73.2709C112.325 73.3113 112.402 73.3565 112.487 73.4039C112.95 73.6505 113.441 73.8409 113.949 73.9709C114.75 74.1741 115.573 74.2753 116.4 74.2719L116.466 74.2696Z" fill="white"/>
<path opacity="0.49" d="M115.854 74.443C115.854 74.443 115.831 74.4679 115.81 74.4936C114.315 75.5764 112.621 76.3605 110.822 76.802C111.885 77.5671 113.087 78.1234 114.363 78.4408C112.356 81.8339 110.127 85.094 107.691 88.2003C106.84 89.2698 102.724 93.1338 102.077 93.6837C99.8373 95.583 94.658 98.4693 94.5439 98.5347C90.6813 100.83 86.6848 102.897 82.5753 104.726C80.7953 105.542 68.1822 109.548 63.5435 108.148C84.0577 101.955 89.326 79.161 89.326 56.859C89.326 52.7259 96.2506 54.5078 95.2875 50.6702C97.324 45.7967 91.6363 31.2997 86.335 25.9089C80.7481 20.2249 67.3945 13.4847 66.4754 12.8975C68.1232 13.0935 77.6997 16.1447 80.2791 17.2841C93.0197 22.9152 104.825 36.2386 108.972 51.5235C109.96 55.0964 110.638 58.7459 111 62.4326C111.223 64.7487 111.28 67.0774 111.172 69.4015C111.135 70.1295 111.084 70.8466 111.015 71.5575C110.967 72.049 110.908 72.539 110.843 73.0205C110.835 73.071 110.83 73.1185 110.822 73.1659C110.873 73.2032 110.942 73.2515 111.033 73.3067C111.094 73.344 111.168 73.3844 111.249 73.435C111.69 73.6689 112.158 73.85 112.642 73.9748C113.674 74.2303 114.728 74.3866 115.79 74.4415H115.854V74.443Z" fill="#C5EFFF"/>
<path d="M66.0967 73.1722C65.8984 74.5722 64.083 76.8565 61.6901 76.5252C59.2971 76.1939 57.2835 73.9655 57.4802 72.5624C57.6769 71.1593 59.4805 71.3755 62.0198 71.3802C64.4088 71.3802 66.2981 71.7691 66.0975 73.1746L66.0967 73.1722Z" fill="black"/>
<path d="M70.2401 80.1791C69.9912 80.2822 69.7523 80.4074 69.5264 80.5532C69.5704 81.2745 69.5406 81.9985 69.4375 82.7139C68.7293 87.6699 64.7948 91.2236 60.6329 90.6472C56.4711 90.0709 53.9302 85.9743 54.311 81.2866C53.9832 80.9428 53.6081 80.6462 53.1968 80.4054C52.4737 80.0662 51.9101 79.4655 51.6223 78.7273C51.3345 77.9891 51.3447 77.1698 51.6505 76.4388C51.7624 76.082 51.9369 75.7474 52.166 75.4502C52.402 75.1212 52.7805 75.36 52.679 75.7364C52.6789 75.7463 52.6761 75.7559 52.6711 75.7644C51.996 78.3389 53.0166 79.413 54.5652 80.5089C55.7465 81.172 57.1113 81.4446 58.4605 81.2871C59.8096 81.1295 61.0726 80.55 62.0651 79.6331C62.9528 80.2859 63.9971 80.699 65.0954 80.8318C66.1936 80.9646 67.308 80.8126 68.3287 80.3907C70.2865 79.3967 71.7336 78.559 71.3598 75.6462V75.6182C71.3087 75.234 71.7155 75.0434 71.9107 75.3997C72.0983 75.7251 72.228 76.08 72.2939 76.4489C72.501 77.2118 72.4042 78.0241 72.0236 78.7186C71.643 79.4131 71.0075 79.9369 70.248 80.1822L70.2401 80.1791Z" fill="black"/>
<path d="M47.0717 71.5893C46.2416 77.4366 43.1373 85.5574 30.8327 83.0553C23.3509 81.5347 21.3349 74.4429 23.0101 68.7737C25.4755 60.4344 31.81 57.9354 37.725 58.7583C43.6401 59.5812 47.9043 65.7419 47.0717 71.5893Z" fill="black"/>
<path d="M35.1595 71.5737C36.2868 71.5737 37.2007 70.6704 37.2007 69.5561C37.2007 68.4419 36.2868 67.5386 35.1595 67.5386C34.0322 67.5386 33.1183 68.4419 33.1183 69.5561C33.1183 70.6704 34.0322 71.5737 35.1595 71.5737Z" fill="white"/>
<path d="M39.0902 77.6723C40.1558 77.6723 41.0197 76.8184 41.0197 75.7651C41.0197 74.7119 40.1558 73.858 39.0902 73.858C38.0246 73.858 37.1608 74.7119 37.1608 75.7651C37.1608 76.8184 38.0246 77.6723 39.0902 77.6723Z" fill="white"/>
<path d="M41.8608 52.866C41.5405 53.7597 40.058 52.2088 33.1168 53.4882C28.4938 54.3438 25.5886 57.8119 24.5397 56.5324C24.0825 55.9755 27.7234 53.1374 32.3063 52.1457C36.6405 51.207 42.2007 51.9225 41.86 52.866H41.8608Z" fill="black"/>
<path d="M67.2436 85.2884C67.1955 85.8328 66.9989 86.354 66.6746 86.7965C65.9358 88.0612 62.117 90.099 60.8705 89.4542C59.6115 88.804 59.3495 87.3433 59.7941 85.9907C60.092 84.9265 60.6362 83.9453 61.3836 83.1246C61.723 82.7002 62.1645 82.3666 62.6678 82.154C63.1711 81.9414 63.7202 81.8566 64.2652 81.9074C64.6854 81.936 65.0957 82.0462 65.4728 82.2316C65.8499 82.4171 66.1864 82.6741 66.463 82.988C66.7396 83.302 66.9508 83.6668 67.0848 84.0615C67.2187 84.4562 67.2727 84.8731 67.2436 85.2884Z" fill="#CE111F"/>
<path d="M76.2474 66.6412C75.3944 72.6301 76.131 81.4967 88.9644 82.4713C96.7688 83.0609 100.783 76.638 100.753 70.5892C100.707 61.6852 95.1848 57.4549 89.1194 56.611C83.0541 55.7671 77.0981 60.6484 76.2443 66.6443L76.2474 66.6412Z" fill="black"/>
<path d="M85.3394 69.5851C86.495 69.5851 87.4318 68.6592 87.4318 67.517C87.4318 66.3748 86.495 65.4489 85.3394 65.4489C84.1838 65.4489 83.2471 66.3748 83.2471 67.517C83.2471 68.6592 84.1838 69.5851 85.3394 69.5851Z" fill="white"/>
<path d="M82.9166 74.9346C84.0074 74.9346 84.8917 74.0606 84.8917 72.9824C84.8917 71.9042 84.0074 71.0302 82.9166 71.0302C81.8258 71.0302 80.9415 71.9042 80.9415 72.9824C80.9415 74.0606 81.8258 74.9346 82.9166 74.9346Z" fill="white"/>
<path d="M97.1492 54.1329C96.5473 54.8733 95.6691 52.9211 88.6893 51.8696C84.0404 51.1696 80.1406 53.4904 79.5748 51.9396C79.3309 51.2621 83.7154 49.7711 88.3722 50.3358C92.7773 50.8655 97.7858 53.3551 97.1492 54.1329Z" fill="black"/>
<path d="M58.512 98.7166C59.5787 99.2201 60.7453 99.4829 61.9274 99.486C63.1095 99.4891 64.2775 99.2324 65.3469 98.7345C65.377 98.7228 65.4104 98.722 65.441 98.7322C65.4717 98.7425 65.4977 98.7632 65.5144 98.7906C65.5311 98.818 65.5374 98.8504 65.5323 98.882C65.5271 98.9136 65.5108 98.9423 65.4862 98.9632C64.4389 99.6756 63.1969 100.056 61.9255 100.053C60.6542 100.051 59.4138 99.6651 58.3695 98.9483C58.3557 98.9373 58.3442 98.9236 58.3358 98.9081C58.3273 98.8926 58.3221 98.8755 58.3204 98.858C58.3187 98.8405 58.3206 98.8228 58.3259 98.806C58.3313 98.7892 58.3399 98.7736 58.3514 98.7601C58.3703 98.7382 58.3956 98.7227 58.4239 98.716C58.4522 98.7093 58.482 98.7117 58.5088 98.7228L58.512 98.7166Z" fill="#0D1338"/>
<path d="M77.7902 112.73H41.4177V143.79H77.7902V112.73Z" fill="#B18964"/>
<path d="M77.7904 144.415H41.4187C41.2517 144.415 41.0916 144.349 40.9736 144.233C40.8555 144.116 40.7892 143.958 40.7892 143.793V112.732C40.7892 112.567 40.8555 112.409 40.9736 112.292C41.0916 112.176 41.2517 112.11 41.4187 112.11H77.7912C77.9582 112.11 78.1183 112.176 78.2364 112.292C78.3544 112.409 78.4207 112.567 78.4207 112.732V143.792C78.4208 143.874 78.4046 143.955 78.373 144.03C78.3413 144.106 78.2949 144.175 78.2364 144.233C78.1778 144.291 78.1083 144.337 78.0317 144.368C77.9552 144.399 77.8732 144.415 77.7904 144.415ZM42.0506 143.163H77.1562V113.354H42.0506V143.163Z" fill="black"/>
<path d="M37.6946 149.64L41.4166 143.79V112.73L37.6946 122.289V149.64Z" fill="#B18964"/>
<path d="M37.6909 150.265C37.6315 150.265 37.5723 150.257 37.5154 150.24C37.3835 150.202 37.2676 150.123 37.1851 150.014C37.1026 149.906 37.0581 149.773 37.0582 149.638V122.286C37.0586 122.209 37.0733 122.133 37.1015 122.061L40.8235 112.502C40.873 112.362 40.9717 112.243 41.1017 112.169C41.2316 112.094 41.3843 112.068 41.5321 112.095C41.68 112.122 41.8131 112.2 41.9076 112.316C42.002 112.431 42.0515 112.577 42.0471 112.725V143.785C42.0472 143.903 42.0137 144.018 41.9503 144.118L38.2283 149.968C38.1718 150.058 38.0928 150.133 37.9991 150.184C37.9053 150.235 37.7997 150.262 37.6925 150.262L37.6909 150.265ZM38.3204 122.405V147.467L40.7755 143.608V116.098L38.3204 122.405Z" fill="#0D1338"/>
<path d="M81.5121 149.64L77.7902 143.791V112.731L81.5121 122.29V149.64Z" fill="#B18964"/>
<path d="M81.5113 150.265C81.404 150.265 81.2985 150.238 81.2047 150.187C81.111 150.135 81.032 150.061 80.9755 149.971L77.2534 144.121C77.1901 144.021 77.1566 143.905 77.1566 143.787V112.728C77.1522 112.579 77.2017 112.434 77.2962 112.318C77.3906 112.203 77.5238 112.124 77.6716 112.097C77.8195 112.071 77.9722 112.097 78.1021 112.171C78.2321 112.246 78.3307 112.364 78.3803 112.504L82.1022 122.063C82.1305 122.135 82.1452 122.212 82.1456 122.289V149.64C82.1452 149.776 82.1004 149.908 82.018 150.016C81.9357 150.125 81.82 150.204 81.6883 150.242C81.6314 150.259 81.5723 150.267 81.5129 150.267L81.5113 150.265ZM78.4212 143.607L80.8763 147.466V122.404L78.4251 116.095L78.4212 143.607Z" fill="black"/>
<path d="M56.7755 132.276L56.1255 132.62C54.7659 133.336 53.1743 133.489 51.7007 133.045C50.227 132.601 48.9921 131.597 48.2676 130.253L34.3113 104.373C33.5875 103.029 33.4331 101.456 33.8821 99.9992C34.3311 98.5428 35.3467 97.3222 36.7058 96.6056L37.3558 96.2619C38.7153 95.5458 40.307 95.3929 41.7806 95.8367C43.2542 96.2806 44.4891 97.2849 45.2137 98.6287L58.8497 123.917L59.17 124.508C59.5288 125.174 59.7515 125.903 59.8254 126.653C59.8992 127.404 59.8228 128.161 59.6005 128.882C59.3781 129.604 59.0142 130.275 58.5295 130.857C58.0447 131.439 57.4487 131.921 56.7755 132.276Z" fill="#CC8B1F"/>
<g opacity="0.4">
<path d="M58.63 129.107C58.559 128.347 58.3345 127.609 57.9698 126.936L44.0135 101.055C43.2889 99.7117 42.054 98.7074 40.5804 98.2636C39.1068 97.8197 37.5151 97.9726 36.1556 98.6887L35.5056 99.0324C34.84 99.3828 34.25 99.8584 33.7689 100.432C33.9496 99.6232 34.3059 98.8624 34.813 98.2026C35.3202 97.5427 35.9662 96.9995 36.7064 96.6104L37.3564 96.2667C38.7158 95.5506 40.3074 95.3975 41.781 95.8412C43.2547 96.2849 44.4896 97.289 45.2143 98.6327L58.8503 123.921C59.2279 124.742 59.4045 125.64 59.3656 126.542C59.3268 127.443 59.0737 128.323 58.6268 129.11L58.63 129.107Z" fill="white"/>
</g>
<path d="M53.4065 133.92C52.2368 133.921 51.0889 133.607 50.0854 133.013C49.0819 132.419 48.2606 131.567 47.7094 130.547L33.7531 104.665C33.3551 103.927 33.1081 103.119 33.0262 102.286C32.9443 101.454 33.0291 100.614 33.2757 99.8137C33.5223 99.0137 33.926 98.2695 34.4635 97.6237C35.0011 96.9778 35.6621 96.443 36.4089 96.0497L37.0588 95.7059C37.8055 95.3125 38.6233 95.0684 39.4655 94.9874C40.3076 94.9065 41.1577 94.9903 41.9671 95.234C42.7765 95.4778 43.5294 95.8767 44.1828 96.4081C44.8362 96.9394 45.3773 97.5928 45.7752 98.3309L59.7308 124.213C60.1287 124.951 60.3757 125.759 60.4576 126.592C60.5395 127.424 60.4548 128.264 60.2082 129.064C59.9616 129.864 59.5579 130.609 59.0203 131.254C58.4828 131.9 57.8217 132.435 57.075 132.828L56.425 133.172C55.4963 133.663 54.4596 133.92 53.4065 133.92ZM40.0821 96.2099C39.2347 96.2104 38.4008 96.4183 37.6545 96.815L37.0045 97.1588C35.7931 97.7973 34.8879 98.8853 34.488 100.183C34.0881 101.482 34.2263 102.884 34.8721 104.081L48.8284 129.962C49.4753 131.158 50.576 132.052 51.889 132.447C53.202 132.842 54.62 132.706 55.8317 132.069L56.4817 131.726C57.6931 131.087 58.5983 129.999 58.9982 128.701C59.3981 127.403 59.26 126.001 58.6142 124.803L44.6578 98.9228C44.2153 98.1037 43.5559 97.4188 42.75 96.9414C41.9442 96.464 41.0223 96.2119 40.0829 96.2122L40.0821 96.2099Z" fill="black"/>
<path d="M40.2971 99.9804L38.1361 103.407C37.7993 103.941 37.9642 104.643 38.5045 104.976C39.0448 105.309 39.7558 105.146 40.0926 104.612L42.2536 101.186C42.5904 100.652 42.4255 99.9492 41.8852 99.6163C41.3449 99.2834 40.6339 99.4464 40.2971 99.9804Z" fill="#EAD67D"/>
<path d="M42.7303 104.489L40.5693 107.915C40.2325 108.449 40.3975 109.152 40.9377 109.485C41.478 109.818 42.1891 109.655 42.5259 109.121L44.6868 105.695C45.0237 105.161 44.8587 104.458 44.3184 104.125C43.7782 103.792 43.0671 103.955 42.7303 104.489Z" fill="#EAD67D"/>
<path d="M45.1611 108.998L43.0001 112.424C42.6633 112.958 42.8282 113.661 43.3685 113.994C43.9088 114.327 44.6198 114.164 44.9567 113.63L47.1176 110.203C47.4544 109.669 47.2895 108.967 46.7492 108.634C46.2089 108.301 45.4979 108.464 45.1611 108.998Z" fill="#EAD67D"/>
<path d="M47.5918 113.508L45.4308 116.934C45.094 117.468 45.2589 118.171 45.7992 118.503C46.3395 118.836 47.0505 118.673 47.3873 118.139L49.5483 114.713C49.8851 114.179 49.7202 113.476 49.1799 113.143C48.6396 112.81 47.9286 112.973 47.5918 113.508Z" fill="#EAD67D"/>
<path d="M67.6151 126.878C63.2557 126.944 63.1723 121.799 63.5886 118.254C62.6317 115.31 63.1164 111.471 63.4312 110.108C61.8141 104.778 64.8051 103.358 66.7873 103.29C68.7703 103.222 71.2632 104.296 70.5982 109.739C71.0617 112.465 71.1385 115.241 70.8264 117.988C71.4056 120.547 72.2232 126.741 67.6151 126.876V126.878Z" fill="#9C3202"/>
<g opacity="0.35">
<path d="M63.8956 111.488C65.2029 111.774 66.4722 112.21 67.6782 112.785C68.0692 112.996 68.5045 113.115 68.9499 113.132C69.3953 113.149 69.8386 113.064 70.245 112.883C70.5622 112.793 70.8454 112.613 71.0591 112.365C71.2728 112.117 71.4073 111.811 71.4458 111.488C71.3034 115.681 70.075 117.224 67.7773 116.582C66.0191 116 64.5499 114.78 63.6666 113.169C63.5556 112.893 63.5183 112.593 63.5583 112.298C63.5982 112.003 63.7141 111.723 63.8948 111.485L63.8956 111.488Z" fill="#0D1338"/>
</g>
<g opacity="0.4">
<path d="M70.6705 108.934C70.4092 105.739 68.553 104.956 66.9508 104.956C66.8926 104.956 66.8367 104.956 66.7809 104.956C65.854 104.941 64.9548 105.268 64.2587 105.873C63.5625 106.478 63.1194 107.318 63.0156 108.228C62.5639 104.431 65.0544 103.347 66.7809 103.287C66.8391 103.287 66.895 103.287 66.9532 103.287C68.8016 103.287 70.9899 104.333 70.6705 108.93V108.934Z" fill="white"/>
</g>
<path d="M67.531 127.505C66.9329 127.53 66.3365 127.426 65.7832 127.201C65.2298 126.975 64.7328 126.633 64.3268 126.198C62.9836 124.727 62.5169 122.076 62.9403 118.316C62.2665 115.635 62.2093 112.838 62.7727 110.132C62.0645 107.703 62.2014 105.788 63.1811 104.438C63.6034 103.895 64.1446 103.453 64.764 103.146C65.3835 102.839 66.0653 102.674 66.7583 102.664C67.3632 102.617 67.9712 102.704 68.538 102.918C69.1048 103.132 69.6164 103.468 70.0357 103.901C71.1374 105.091 71.541 107.046 71.2317 109.716C71.6832 112.441 71.76 115.215 71.46 117.96C71.8487 119.73 72.4931 123.822 70.7518 126.041C70.3801 126.506 69.905 126.88 69.3634 127.134C68.8217 127.388 68.2281 127.515 67.6286 127.506H67.5295L67.531 127.505ZM66.9495 103.913H66.8024C66.303 103.916 65.8107 104.03 65.362 104.247C64.9133 104.464 64.5197 104.778 64.2103 105.165C63.4612 106.197 63.4006 107.843 64.0325 109.926C64.0636 110.029 64.0672 110.137 64.0427 110.242C63.7681 111.446 63.2558 115.201 64.1852 118.058C64.2126 118.143 64.2212 118.233 64.2103 118.322C63.809 121.73 64.1726 124.162 65.2616 125.351C65.5578 125.663 65.9209 125.905 66.3242 126.06C66.7276 126.215 67.1608 126.279 67.5924 126.247C68.0042 126.26 68.4135 126.177 68.7876 126.006C69.1617 125.836 69.4904 125.581 69.7477 125.263C71.2381 123.368 70.4685 119.315 70.1994 118.121C70.1833 118.052 70.1799 117.98 70.1892 117.91C70.4945 115.228 70.4201 112.518 69.968 109.857C69.9553 109.792 69.9526 109.726 69.9602 109.661C70.2419 107.352 69.9452 105.653 69.1017 104.744C68.8213 104.464 68.4847 104.245 68.1135 104.101C67.7423 103.957 67.3447 103.892 66.9463 103.909L66.9495 103.913Z" fill="black"/>
<path d="M66.7105 100.811L66.7097 100.811C65.8843 100.832 65.2319 101.51 65.2527 102.326L65.2527 102.326C65.2734 103.142 65.9594 103.787 66.7849 103.767L66.7857 103.767C67.6111 103.746 68.2635 103.068 68.2427 102.252L68.2427 102.251C68.2219 101.436 67.536 100.791 66.7105 100.811Z" fill="#9C3202"/>
<g opacity="0.4">
<path d="M66.7118 100.811L66.7111 100.811C65.8856 100.832 65.2333 101.51 65.254 102.326L65.254 102.326C65.2748 103.142 65.9608 103.787 66.7862 103.767L66.787 103.767C67.6125 103.746 68.2648 103.068 68.2441 102.252L68.244 102.251C68.2233 101.436 67.5373 100.791 66.7118 100.811Z" fill="white"/>
</g>
<path d="M66.7543 104.391C66.19 104.398 65.646 104.183 65.2419 103.794C64.8379 103.404 64.6069 102.872 64.5998 102.315C64.5927 101.757 64.8101 101.219 65.2041 100.82C65.5981 100.42 66.1365 100.192 66.7008 100.185H66.7543C67.3186 100.178 67.8626 100.393 68.2667 100.782C68.6707 101.172 68.9017 101.704 68.9088 102.262C68.9159 102.819 68.6985 103.357 68.3045 103.756C67.9105 104.156 67.3721 104.384 66.8078 104.391H66.7543ZM66.7543 101.43H66.7315C66.5164 101.452 66.3175 101.553 66.1738 101.712C66.03 101.872 65.9519 102.079 65.9547 102.293C65.9576 102.506 66.0413 102.711 66.1892 102.867C66.3372 103.023 66.5388 103.118 66.7543 103.134H66.7771C66.8907 103.132 67.0026 103.107 67.1064 103.061C67.2101 103.016 67.3037 102.95 67.3815 102.868C67.4602 102.788 67.5217 102.692 67.5622 102.587C67.6028 102.482 67.6216 102.371 67.6175 102.259C67.611 102.036 67.5169 101.825 67.3552 101.67C67.1936 101.514 66.9772 101.428 66.7519 101.428L66.7543 101.43Z" fill="black"/>
<path d="M67.6116 127.13C67.546 127.131 67.4828 127.105 67.4354 127.061C67.388 127.016 67.3601 126.954 67.3575 126.889L66.5352 103.777C66.534 103.744 66.5394 103.711 66.551 103.681C66.5627 103.65 66.5803 103.622 66.603 103.598C66.6257 103.574 66.6528 103.555 66.6831 103.541C66.7133 103.527 66.7459 103.52 66.7791 103.519C66.8459 103.517 66.9106 103.542 66.9594 103.587C67.0082 103.632 67.0373 103.694 67.0403 103.76L67.8658 126.871C67.867 126.904 67.8615 126.936 67.8499 126.967C67.8383 126.998 67.8206 127.026 67.798 127.05C67.7753 127.074 67.7481 127.093 67.7179 127.107C67.6877 127.12 67.655 127.128 67.6219 127.129H67.6116V127.13Z" fill="black"/>
<path d="M66.2743 110.466C64.7792 110.466 63.5147 110.368 63.4077 110.358C63.3407 110.353 63.2787 110.321 63.2354 110.27C63.1921 110.219 63.171 110.153 63.1767 110.087C63.1824 110.021 63.2146 109.96 63.266 109.917C63.3174 109.874 63.384 109.853 63.4509 109.859C63.5045 109.864 68.694 110.27 70.4991 109.445C70.5293 109.431 70.5619 109.424 70.5951 109.423C70.6283 109.421 70.6614 109.427 70.6925 109.438C70.7236 109.449 70.7522 109.467 70.7765 109.489C70.8009 109.511 70.8205 109.538 70.8344 109.568C70.8482 109.598 70.856 109.63 70.8572 109.663C70.8585 109.696 70.8532 109.728 70.8416 109.759C70.8301 109.79 70.8125 109.818 70.7899 109.842C70.7674 109.866 70.7402 109.886 70.71 109.899C69.2777 110.349 67.7752 110.54 66.2743 110.464V110.466Z" fill="black"/>
<path d="M66.3239 118.762C64.8288 118.762 63.5643 118.664 63.4572 118.654C63.3902 118.648 63.3283 118.617 63.285 118.566C63.2416 118.515 63.2205 118.449 63.2263 118.383C63.232 118.317 63.2641 118.256 63.3156 118.213C63.367 118.17 63.4335 118.149 63.5005 118.155C63.554 118.16 68.7436 118.566 70.5487 117.741C70.6097 117.713 70.6792 117.711 70.742 117.734C70.8049 117.757 70.8559 117.804 70.8839 117.864C70.9119 117.924 70.9145 117.993 70.8912 118.055C70.8679 118.117 70.8205 118.168 70.7596 118.195C69.3272 118.645 67.8248 118.836 66.3239 118.76V118.762Z" fill="#0D1338"/>
<path d="M62.2659 119.277L57.8813 121.766V107.713L62.2659 105.224V119.277Z" fill="#3996D1"/>
<path d="M57.8824 122.389C57.7716 122.389 57.6629 122.359 57.5676 122.304C57.4714 122.248 57.3917 122.169 57.3364 122.073C57.2811 121.978 57.2523 121.869 57.2528 121.759V107.711C57.2518 107.601 57.2805 107.492 57.3358 107.397C57.3911 107.301 57.4711 107.222 57.5676 107.167L61.9522 104.678C62.0481 104.624 62.1566 104.596 62.2669 104.596C62.3773 104.596 62.4857 104.624 62.5817 104.678C62.6782 104.733 62.7582 104.812 62.8135 104.908C62.8688 105.004 62.8974 105.112 62.8964 105.222V119.273C62.8974 119.383 62.8688 119.491 62.8135 119.587C62.7582 119.683 62.6782 119.762 62.5817 119.817L58.1971 122.306C58.1013 122.36 57.9928 122.39 57.8824 122.389ZM58.5119 108.078V120.684L61.6295 118.914V106.309L58.5119 108.078Z" fill="black"/>
<path d="M57.8782 107.713H49.6371V121.764H57.8782V107.713Z" fill="#3996D1"/>
<path d="M57.8818 122.389H49.6406C49.4737 122.389 49.3135 122.324 49.1955 122.207C49.0774 122.09 49.0111 121.932 49.0111 121.767V107.714C49.0111 107.549 49.0774 107.391 49.1955 107.274C49.3135 107.157 49.4737 107.092 49.6406 107.092H57.8818C58.0487 107.092 58.2088 107.157 58.3269 107.274C58.4449 107.391 58.5113 107.549 58.5113 107.714V121.765C58.5116 121.847 58.4955 121.928 58.464 122.004C58.4325 122.079 58.3862 122.148 58.3277 122.206C58.2692 122.264 58.1997 122.31 58.1232 122.342C58.0467 122.373 57.9646 122.389 57.8818 122.389ZM50.2725 121.137H57.2459V108.339H50.2693L50.2725 121.137Z" fill="black"/>
<path d="M56.5369 109.089H50.9846V120.387H56.5369V109.089Z" fill="white"/>
<path d="M61.24 118.479L59.1375 119.593V108.909L61.0795 107.958L61.24 118.479Z" fill="white"/>
<path d="M59.9066 103.014H52.1226L49.6423 107.714H57.8874L59.9066 103.014Z" fill="#3996D1"/>
<path d="M57.8828 108.342H49.6417C49.5328 108.342 49.4257 108.314 49.3308 108.261C49.236 108.208 49.1565 108.132 49.1001 108.04C49.0437 107.948 49.0123 107.843 49.0089 107.735C49.0055 107.628 49.0302 107.521 49.0807 107.426L51.5609 102.726C51.6146 102.624 51.6952 102.54 51.7941 102.48C51.893 102.421 52.0064 102.39 52.122 102.39H59.9059C60.0108 102.389 60.1143 102.414 60.2068 102.463C60.2994 102.512 60.3782 102.583 60.4359 102.669C60.4937 102.756 60.5287 102.855 60.5377 102.958C60.5467 103.062 60.5294 103.166 60.4874 103.261L58.4636 107.961C58.4153 108.074 58.3341 108.171 58.2301 108.239C58.1262 108.307 58.0042 108.343 57.8797 108.342H57.8828ZM50.6851 107.09H57.4642L58.9491 103.642H52.5052L50.6851 107.09Z" fill="black"/>
<path d="M57.7687 104.213H53.2243L51.7749 106.514H56.5883L57.7687 104.213Z" fill="white"/>
<path d="M59.9053 103.014L62.266 105.228L57.8815 107.716L59.9053 103.014Z" fill="#3996D1"/>
<path d="M57.8821 108.342C57.7773 108.342 57.6741 108.316 57.5818 108.268C57.4895 108.219 57.4109 108.148 57.353 108.062C57.2952 107.975 57.2599 107.876 57.2503 107.773C57.2408 107.67 57.2572 107.566 57.2982 107.471L59.3221 102.771C59.3625 102.678 59.4249 102.596 59.504 102.531C59.5832 102.467 59.6768 102.423 59.7769 102.402C59.8765 102.381 59.9798 102.384 60.078 102.411C60.1761 102.438 60.2662 102.488 60.3403 102.558L62.701 104.771C62.7725 104.838 62.8272 104.921 62.8606 105.013C62.8941 105.105 62.9055 105.204 62.8938 105.301C62.8819 105.397 62.8473 105.49 62.7926 105.571C62.7379 105.652 62.6648 105.719 62.579 105.767L58.1944 108.256C58.0984 108.31 57.99 108.338 57.8797 108.339L57.8821 108.342ZM60.1318 104.088L59.2048 106.244L61.2153 105.105L60.1318 104.088Z" fill="black"/>
<path d="M59.9051 100.875H52.1055V103.013H59.9051V100.875Z" fill="white"/>
<path d="M59.9009 103.638H52.1012C51.9343 103.638 51.7741 103.572 51.6561 103.456C51.538 103.339 51.4717 103.181 51.4717 103.016V100.877C51.4717 100.712 51.538 100.554 51.6561 100.437C51.7741 100.321 51.9343 100.255 52.1012 100.255H59.9009C60.0678 100.255 60.228 100.321 60.346 100.437C60.4641 100.554 60.5304 100.712 60.5304 100.877V103.016C60.5304 103.181 60.4641 103.339 60.346 103.456C60.228 103.572 60.0678 103.638 59.9009 103.638ZM52.7362 102.386H59.2674V101.5H52.7362V102.386Z" fill="black"/>
<path d="M49.047 111.671L47.2238 114.204L42.5811 110.941C42.3317 111.137 42.0244 111.247 41.7059 111.254C41.3874 111.262 41.0752 111.166 40.8169 110.981C41.7293 109.813 42.1456 108.34 41.9776 106.873C42.1997 106.58 42.5259 106.381 42.8906 106.316C43.2553 106.25 43.6314 106.324 43.9434 106.522C44.2554 106.72 44.4801 107.027 44.5723 107.381C44.6645 107.736 44.6174 108.112 44.4405 108.434L49.047 111.671Z" fill="white"/>
<path d="M47.2237 114.828C47.0925 114.828 46.9646 114.788 46.8578 114.713L42.5566 111.689C42.2191 111.842 41.8468 111.904 41.4772 111.869C41.1076 111.835 40.7539 111.704 40.4517 111.491C39.9998 111.177 39.6922 110.699 39.5963 110.161C40.5772 109.158 41.2286 107.885 41.4652 106.51C41.7518 106.126 42.1633 105.852 42.6305 105.732C43.0977 105.613 43.5922 105.656 44.031 105.855C44.4698 106.053 44.8263 106.394 45.0405 106.822C45.2548 107.249 45.3138 107.736 45.2077 108.202L49.4144 111.157C49.4821 111.205 49.5396 111.265 49.5836 111.335C49.6276 111.405 49.6573 111.483 49.671 111.564C49.6846 111.645 49.682 111.728 49.6632 111.808C49.6444 111.888 49.6099 111.964 49.5615 112.031L47.7383 114.562C47.6802 114.644 47.6031 114.711 47.5136 114.757C47.4241 114.803 47.3247 114.828 47.2237 114.828ZM42.5849 110.317C42.7168 110.317 42.8456 110.357 42.9532 110.432L47.0765 113.333L48.1656 111.823L44.0777 108.945C43.949 108.856 43.8589 108.722 43.8251 108.57C43.7913 108.418 43.8163 108.259 43.8951 108.125C43.9932 107.942 44.0183 107.73 43.9655 107.53C43.9127 107.33 43.7858 107.157 43.6101 107.045C43.4343 106.934 43.2225 106.891 43.0166 106.927C42.8107 106.962 42.6257 107.073 42.4984 107.236C42.4087 107.364 42.3592 107.515 42.356 107.67C42.3527 107.826 42.396 107.979 42.4803 108.11C42.5458 108.215 42.5785 108.336 42.5744 108.46C42.5703 108.583 42.5296 108.702 42.4573 108.802C42.385 108.903 42.2843 108.98 42.1679 109.024C42.0515 109.068 41.9245 109.078 41.8028 109.051C41.6499 109.015 41.4896 109.024 41.3423 109.078C41.1949 109.132 41.0671 109.228 40.975 109.354C40.9147 109.439 40.8721 109.534 40.8498 109.635C40.8275 109.736 40.8259 109.84 40.8451 109.941C40.8848 110.157 41.009 110.348 41.1906 110.473C41.336 110.578 41.512 110.633 41.6919 110.631C41.8719 110.628 42.0461 110.568 42.1883 110.459C42.301 110.368 42.4419 110.318 42.5873 110.318L42.5849 110.317Z" fill="black"/>
<path d="M54.6074 127.23C54.6074 127.23 44.6296 119.21 44.7358 114.158C44.7952 113.383 45.0481 112.635 45.4717 111.981C45.8954 111.327 46.4766 110.787 47.1634 110.409C52.0224 107.935 64.8339 113.019 64.8339 113.019L54.6043 127.23H54.6074Z" fill="#9C3202"/>
<g opacity="0.4">
<path d="M64.8142 112.755L63.3672 114.768C60.6964 113.779 50.551 110.266 46.349 112.406C45.6886 112.761 45.127 113.271 44.7139 113.892C44.7741 113.118 45.0273 112.371 45.4509 111.717C45.8745 111.063 46.4553 110.523 47.1414 110.145C52.0029 107.671 64.8142 112.755 64.8142 112.755Z" fill="white"/>
</g>
<path d="M54.6025 127.857C54.4571 127.857 54.3161 127.807 54.2036 127.716C52.4275 126.255 50.7455 124.685 49.1675 123.016C45.7579 119.395 44.0527 116.405 44.1022 114.145C44.1648 113.257 44.451 112.4 44.9348 111.65C45.4186 110.9 46.0846 110.281 46.8721 109.851C51.9318 107.273 64.5355 112.224 65.0706 112.435C65.1593 112.47 65.2388 112.525 65.303 112.595C65.3672 112.665 65.4144 112.748 65.4412 112.839C65.4676 112.93 65.4731 113.026 65.4573 113.119C65.4415 113.212 65.4048 113.301 65.3499 113.379L55.1203 127.59C55.0698 127.66 55.0056 127.719 54.9315 127.763C54.8574 127.807 54.7749 127.837 54.6891 127.848C54.6604 127.853 54.6315 127.854 54.6025 127.853V127.857ZM50.7712 110.357C49.6312 110.304 48.4943 110.513 47.4505 110.969C46.863 111.293 46.3655 111.755 46.0019 112.315C45.6383 112.874 45.4199 113.514 45.366 114.177C45.2873 117.841 51.4951 123.821 54.4829 126.322L63.8414 113.321C61.8119 112.575 59.7452 111.932 57.6494 111.394C55.4072 110.776 53.0977 110.429 50.7712 110.36V110.357Z" fill="black"/>
<path d="M63.1213 122.524C65.9475 118.599 66.8295 114.426 65.0915 113.203C63.3535 111.981 59.6536 114.172 56.8275 118.097C54.0013 122.022 53.1193 126.195 54.8573 127.418C56.5953 128.64 60.2952 126.449 63.1213 122.524Z" fill="#9B0404"/>
<path d="M56.021 128.379C55.4749 128.392 54.9389 128.233 54.4898 127.925C53.4314 127.182 53.0836 125.659 53.5101 123.641C54.6482 119.367 57.3235 115.649 61.0351 113.184C62.8253 112.125 64.3912 111.95 65.4504 112.695C66.5095 113.44 66.8565 114.961 66.4301 116.979C65.2919 121.253 62.6166 124.971 58.905 127.436C58.0456 127.998 57.0501 128.324 56.021 128.379ZM63.9144 113.491C63.1185 113.552 62.3523 113.817 61.6906 114.258C59.9731 115.358 58.4952 116.786 57.3438 118.458C54.5456 122.347 53.9822 126.029 55.2263 126.902C55.465 127.057 55.7461 127.135 56.0313 127.126C57.5901 127.126 60.2805 125.382 62.6042 122.157C63.8256 120.533 64.7068 118.684 65.1962 116.719C65.511 115.241 65.3355 114.145 64.7241 113.713C64.4862 113.557 64.2045 113.478 63.9191 113.49L63.9144 113.491Z" fill="black"/>
<path d="M60.8019 121.706C61.4459 120.811 61.5881 119.819 61.1195 119.489C60.6509 119.16 59.749 119.617 59.1049 120.512C58.4609 121.406 58.3187 122.399 58.7873 122.728C59.2559 123.058 60.1578 122.6 60.8019 121.706Z" fill="white"/>
<path d="M54.5897 120.033C54.74 122.038 54.0842 124.02 52.7648 125.549C51.4453 127.078 49.5687 128.031 47.5426 128.2C45.5165 128.37 43.5045 127.742 41.9437 126.454C40.3829 125.166 39.3994 123.321 39.2067 121.321C38.8738 117.569 41.5501 114.618 45.1084 115.262C46.0479 115.428 47.0117 115.403 47.9412 115.189C48.7083 114.971 49.5159 114.93 50.3017 115.069C51.0875 115.208 51.8304 115.524 52.473 115.992C53.1156 116.46 53.6407 117.068 54.0077 117.769C54.3747 118.47 54.5738 119.244 54.5897 120.033Z" fill="#D81B05"/>
<g opacity="0.4">
<path d="M54.4582 122.192C54.4582 121.969 54.4503 121.746 54.433 121.52C54.1285 117.845 51.1603 115.931 47.7885 116.676C46.8586 116.887 45.8954 116.912 44.9557 116.749C42.0819 116.23 39.7866 118.049 39.1799 120.739C39.1547 117.269 41.7341 114.651 45.113 115.261C46.0526 115.427 47.0163 115.402 47.9459 115.188C48.7126 114.971 49.5198 114.93 50.305 115.069C51.0902 115.209 51.8325 115.525 52.4746 115.993C53.1167 116.461 53.6414 117.069 54.0082 117.769C54.3751 118.469 54.5743 119.243 54.5904 120.032C54.6504 120.755 54.6059 121.483 54.4582 122.195V122.192Z" fill="white"/>
</g>
<path d="M46.8939 128.911C44.8069 128.905 42.7973 128.129 41.2588 126.735C39.7203 125.341 38.7637 123.429 38.5765 121.375C38.4548 120.377 38.5692 119.364 38.9106 118.417C39.2519 117.47 39.811 116.614 40.5437 115.916C41.1684 115.355 41.9181 114.948 42.732 114.727C43.5459 114.506 44.401 114.477 45.2281 114.644C46.0837 114.794 46.9612 114.771 47.8075 114.576C48.6627 114.339 49.5616 114.297 50.4356 114.455C51.3095 114.613 52.1355 114.965 52.8505 115.487C53.5656 116.008 54.1508 116.683 54.5615 117.462C54.9723 118.241 55.1978 119.102 55.2208 119.98C55.3991 122.161 54.6945 124.323 53.2618 125.992C51.8291 127.661 49.7852 128.699 47.5785 128.88C47.3472 128.898 47.119 128.908 46.8931 128.908L46.8939 128.911ZM44.1516 115.799C43.1332 115.791 42.1493 116.164 41.3975 116.843C40.8103 117.411 40.3643 118.106 40.0943 118.873C39.8243 119.64 39.7376 120.459 39.841 121.264C39.9195 122.181 40.1799 123.073 40.6072 123.89C41.0346 124.707 41.6205 125.432 42.3316 126.025C43.0427 126.618 43.865 127.067 44.7515 127.346C45.6381 127.625 46.5716 127.729 47.4986 127.651C48.4257 127.574 49.3283 127.316 50.1547 126.894C50.9812 126.471 51.7154 125.892 52.3154 125.189C52.9154 124.487 53.3695 123.674 53.6517 122.797C53.9339 121.921 54.0387 120.999 53.9602 120.082C53.935 119.387 53.756 118.706 53.4359 118.087C53.1157 117.468 52.6621 116.926 52.1071 116.499C51.5282 116.102 50.8692 115.834 50.1754 115.713C49.4817 115.592 48.7696 115.622 48.0884 115.799C47.076 116.03 46.0268 116.056 45.0038 115.877C44.7228 115.825 44.4375 115.799 44.1516 115.799Z" fill="black"/>
<path d="M47.12 115.611L45.1095 116.389C44.4295 116.652 43.7037 116.78 42.9736 116.766C42.2434 116.752 41.5233 116.595 40.8543 116.306C40.1853 116.017 39.5806 115.6 39.0748 115.079C38.5689 114.558 38.1719 113.944 37.9062 113.272L39.9168 112.494C40.5967 112.231 41.3225 112.103 42.0526 112.117C42.7828 112.131 43.5029 112.287 44.1719 112.577C44.8409 112.866 45.4456 113.283 45.9514 113.804C46.4573 114.324 46.8544 114.938 47.12 115.611Z" fill="#306112"/>
<g opacity="0.4">
<path d="M47.1223 115.611L46.891 115.701C46.1504 114.783 45.1322 114.124 43.9853 113.82C42.8384 113.515 41.6231 113.582 40.5171 114.009L38.7372 114.697C38.3894 114.266 38.1095 113.785 37.907 113.271L39.9175 112.493C40.5975 112.23 41.3233 112.102 42.0534 112.116C42.7835 112.13 43.5037 112.287 44.1726 112.576C44.8416 112.865 45.4463 113.282 45.9522 113.803C46.458 114.324 46.8551 114.938 47.1207 115.61L47.1223 115.611Z" fill="white"/>
</g>
<path d="M43.0797 117.395C41.8343 117.392 40.6186 117.019 39.5904 116.325C38.5622 115.63 37.7691 114.646 37.3142 113.5C37.2835 113.423 37.2685 113.342 37.27 113.259C37.2715 113.177 37.2896 113.096 37.3231 113.02C37.3566 112.945 37.405 112.877 37.4653 112.82C37.5256 112.763 37.5968 112.719 37.6746 112.689L39.6851 111.912C41.215 111.32 42.9201 111.353 44.4253 112.004C45.9305 112.655 47.1125 113.87 47.7114 115.382C47.7421 115.459 47.7573 115.54 47.7559 115.622C47.7545 115.705 47.7367 115.786 47.7034 115.861C47.6701 115.937 47.622 116.005 47.5619 116.061C47.5018 116.118 47.431 116.163 47.3534 116.193L45.3428 116.97C44.624 117.25 43.8585 117.394 43.086 117.394L43.0797 117.395ZM38.7613 113.613C39.3382 114.65 40.2771 115.444 41.4026 115.846C42.5281 116.249 43.7633 116.233 44.8778 115.801L46.2612 115.267C45.6847 114.23 44.7461 113.436 43.6205 113.032C42.495 112.629 41.2595 112.645 40.1446 113.076L38.7613 113.613Z" fill="black"/>
<path d="M63.8869 123.968L65.7629 114.908C68.3107 114.724 70.8714 114.827 73.3957 115.215C78.2681 116.125 79.9411 118.715 79.9411 118.715L63.8838 123.968H63.8869Z" fill="#FFBA40"/>
<path opacity="0.4" d="M79.9422 118.712L78.4975 119.187C76.8345 118.038 74.9334 117.271 72.9326 116.94C70.4507 116.544 67.933 116.411 65.4225 116.544L65.7624 114.91C68.3102 114.726 70.8708 114.828 73.3953 115.215C78.2677 116.125 79.9407 118.715 79.9407 118.715L79.9422 118.712Z" fill="white"/>
<path d="M63.8853 124.592C63.7303 124.592 63.5805 124.536 63.4635 124.436C63.3803 124.364 63.3178 124.271 63.2826 124.167C63.2474 124.063 63.2406 123.952 63.2628 123.844L65.1388 114.785C65.1661 114.652 65.2363 114.531 65.3389 114.441C65.4415 114.351 65.5709 114.296 65.7077 114.285C68.3126 114.091 70.9315 114.196 73.5121 114.596C78.5923 115.548 80.3998 118.26 80.4737 118.373C80.5268 118.453 80.5604 118.545 80.572 118.64C80.5835 118.735 80.5726 118.832 80.5402 118.922C80.5077 119.012 80.4546 119.094 80.3849 119.161C80.3152 119.228 80.2309 119.277 80.1385 119.307L64.0843 124.557C64.0203 124.577 63.9534 124.588 63.886 124.589L63.8853 124.592ZM66.2845 115.502L64.7233 123.034L78.837 118.416C77.2778 117.037 75.3454 116.138 73.2768 115.829C70.9642 115.469 68.6187 115.36 66.2821 115.503L66.2845 115.502Z" fill="black"/>
<path d="M79.9417 134.389L63.8892 139.641V123.967L79.9417 118.713V134.389Z" fill="#EBA718"/>
<path d="M63.8849 140.269C63.7179 140.269 63.5578 140.203 63.4398 140.087C63.3217 139.97 63.2554 139.812 63.2554 139.647V123.97C63.2552 123.838 63.2972 123.709 63.3752 123.603C63.4531 123.496 63.5632 123.416 63.6897 123.375L79.7487 118.122C79.8438 118.091 79.9451 118.082 80.0443 118.097C80.1435 118.112 80.2376 118.15 80.3188 118.208C80.4001 118.267 80.4661 118.343 80.5113 118.432C80.5565 118.52 80.5797 118.618 80.5788 118.717V134.392C80.579 134.524 80.537 134.652 80.459 134.759C80.3811 134.866 80.271 134.945 80.1445 134.987L64.0855 140.239C64.0215 140.26 63.9546 140.271 63.8872 140.272L63.8849 140.269ZM64.5144 124.418V138.778L79.3079 133.939V119.581L64.5144 124.418Z" fill="black"/>
<path d="M75.3407 127.701C76.4007 127.701 77.26 126.762 77.26 125.603C77.26 124.445 76.4007 123.506 75.3407 123.506C74.2808 123.506 73.4215 124.445 73.4215 125.603C73.4215 126.762 74.2808 127.701 75.3407 127.701Z" fill="#9C5817"/>
<path d="M69.1725 134.911C69.9674 134.911 70.6117 134.207 70.6117 133.338C70.6117 132.469 69.9674 131.764 69.1725 131.764C68.3776 131.764 67.7333 132.469 67.7333 133.338C67.7333 134.207 68.3776 134.911 69.1725 134.911Z" fill="#9C5817"/>
<path d="M73.2202 119.106C74.0151 119.106 74.6595 118.718 74.6595 118.24C74.6595 117.762 74.0151 117.374 73.2202 117.374C72.4254 117.374 71.781 117.762 71.781 118.24C71.781 118.718 72.4254 119.106 73.2202 119.106Z" fill="#9C5817"/>
<path d="M68.0775 120.145C68.7603 120.145 69.3137 119.812 69.3137 119.402C69.3137 118.992 68.7603 118.659 68.0775 118.659C67.3948 118.659 66.8413 118.992 66.8413 119.402C66.8413 119.812 67.3948 120.145 68.0775 120.145Z" fill="#9C5817"/>
<path d="M81.5084 122.289H37.6919V149.639H81.5084V122.289Z" fill="#B18964"/>
<g opacity="0.4">
<path d="M81.5062 122.289H37.6897V124.003H81.5062V122.289Z" fill="white"/>
</g>
<g opacity="0.35">
<path d="M81.5062 120.74H37.6897V122.454H81.5062V120.74Z" fill="#0D1338"/>
</g>
<g opacity="0.35">
<path d="M81.5062 147.047H37.6897V149.639H81.5062V147.047Z" fill="#0D1338"/>
</g>
<path d="M81.5076 150.264H37.6903C37.5234 150.264 37.3632 150.198 37.2452 150.082C37.1271 149.965 37.0608 149.807 37.0608 149.642V122.29C37.0608 122.125 37.1271 121.967 37.2452 121.85C37.3632 121.734 37.5234 121.668 37.6903 121.668H81.5068C81.6738 121.668 81.8339 121.734 81.952 121.85C82.07 121.967 82.1364 122.125 82.1364 122.29V149.642C82.1364 149.807 82.0701 149.965 81.9523 150.082C81.8344 150.198 81.6745 150.264 81.5076 150.264ZM38.3238 149.012H80.8734V122.913H38.3238V149.012Z" fill="black"/>
<path d="M100.958 124.435V124.45C99.8143 129.288 96.8684 133.522 92.7073 136.309C92.6003 136.379 92.4941 136.45 92.3847 136.52L92.321 136.56C92.2242 136.623 92.1258 136.683 92.0267 136.741L91.9275 136.801C91.8441 136.852 91.7599 136.902 91.6765 136.949C91.6356 136.974 91.5978 136.997 91.5545 137.019C91.4758 137.067 91.3917 137.112 91.3082 137.16C91.2705 137.18 91.2295 137.203 91.1941 137.223C91.1005 137.276 91.006 137.326 90.9124 137.379C90.8943 137.386 90.8794 137.396 90.8644 137.403C90.7731 137.451 90.6842 137.499 90.5898 137.544C90.5442 137.569 90.4962 137.592 90.4505 137.614C90.3411 137.669 90.2294 137.725 90.1208 137.778C89.991 137.841 89.8619 137.9 89.7274 137.961C89.5928 138.022 89.4732 138.076 89.3441 138.131C89.3339 138.136 89.3237 138.139 89.3134 138.144C89.1891 138.199 89.0625 138.252 88.935 138.304C88.926 138.309 88.9165 138.312 88.9067 138.314C88.7823 138.367 88.658 138.417 88.5305 138.465C88.5258 138.465 88.5203 138.47 88.5156 138.47L88.1017 138.625C87.9624 138.678 87.8247 138.728 87.683 138.776C87.5414 138.824 87.4013 138.874 87.2589 138.919C86.9748 139.015 86.6876 139.103 86.3933 139.188C83.3699 140.031 80.2398 140.442 77.0985 140.407H76.0827C73.864 140.504 71.6464 140.193 69.5428 139.489C68.7746 139.19 68.0758 138.74 67.489 138.166C67.1534 137.828 66.8671 137.446 66.6384 137.029C66.0727 135.926 65.8074 134.696 65.8688 133.461C65.9884 129.676 68.5678 127.496 72.9508 127.472C74.1773 127.379 75.3214 127.248 76.3832 127.078C76.406 127.078 76.4289 127.07 76.4494 127.068C83.0073 126.014 86.3996 123.522 86.5389 119.64C86.544 118.986 86.401 118.339 86.1203 117.747C86.0565 117.647 86.0006 117.537 85.9401 117.418C85.8672 117.244 85.765 117.083 85.6379 116.942L85.4884 116.829L85.4734 116.645C85.4734 116.613 85.4451 116.575 85.4632 116.547C86.7938 114.557 87.5933 109.625 88.0505 106.509C88.9318 106.131 89.7998 105.701 90.6472 105.277C90.6472 105.259 91.4396 104.896 91.5915 104.811C94.168 105.97 96.3566 107.832 97.9008 110.177C100.699 114.328 101.927 120.061 100.958 124.435Z" fill="white"/>
<path d="M66.495 137.032C66.7227 137.449 67.0091 137.832 67.3456 138.169C67.9329 138.743 68.6315 139.193 69.3994 139.492C71.5029 140.196 73.7205 140.507 75.9392 140.41H76.8764C79.5731 134.176 77.9655 129.652 76.3028 127.068C76.28 127.068 76.2595 127.075 76.2367 127.078C75.1754 127.246 74.0313 127.377 72.8043 127.472C68.4244 127.497 65.8474 129.675 65.7222 133.461C65.6606 134.696 65.9258 135.926 66.4918 137.029L66.495 137.032Z" fill="black"/>
<path opacity="0.4" d="M77.602 128.984C76.3986 129.122 75.1062 129.229 73.725 129.305C69.6174 129.323 66.8648 130.525 65.8726 132.667V132.512C65.9922 129.292 68.5716 127.435 72.9546 127.415C74.1811 127.335 75.3252 127.223 76.387 127.081C76.4098 127.081 76.4326 127.074 76.4531 127.071C76.9047 127.666 77.2899 128.307 77.602 128.984Z" fill="white"/>
<path d="M76.371 140.969H75.9287C73.6385 141.063 71.3506 140.737 69.1803 140.008C68.3424 139.679 67.5806 139.186 66.9408 138.558C66.5678 138.183 66.2499 137.759 65.9966 137.298C65.3848 136.11 65.096 134.785 65.1585 133.453V133.445C65.1485 132.539 65.334 131.642 65.7026 130.812C66.0713 129.983 66.6147 129.24 67.2965 128.635C68.8567 127.434 70.8004 126.825 72.7756 126.918C73.9741 126.826 75.1064 126.697 76.142 126.529L76.5763 126.462L76.7746 126.768C78.5798 129.568 80.1512 134.246 77.3916 140.628L77.2468 140.964H76.8407C76.6834 140.964 76.526 140.964 76.3686 140.964L76.371 140.969ZM66.9896 136.769C67.1932 137.139 67.4477 137.48 67.7458 137.781C68.2791 138.303 68.9152 138.713 69.6147 138.983C71.6517 139.655 73.796 139.952 75.9413 139.859H76.5C78.7773 134.326 77.5615 130.232 76.0176 127.678C75.0348 127.826 73.9662 127.944 72.8441 128.03H72.8032C68.7114 128.054 66.3979 129.987 66.2861 133.474C66.2291 134.612 66.4706 135.745 66.9873 136.764L66.9896 136.769Z" fill="black"/>
<path opacity="0.49" d="M100.959 124.434V124.449C99.8158 129.286 96.8705 133.521 92.71 136.308C92.6037 136.378 92.4968 136.449 92.3874 136.519L92.3236 136.559C92.2269 136.622 92.1285 136.682 92.0293 136.74L91.9302 136.801C91.846 136.85 91.7626 136.901 91.6792 136.948C91.6382 136.973 91.6005 136.996 91.5572 137.018C91.4785 137.066 91.3943 137.111 91.3109 137.159C91.2731 137.179 91.2322 137.202 91.1968 137.222C91.1032 137.275 91.0087 137.325 90.9151 137.378C90.897 137.385 90.882 137.395 90.8671 137.403C90.7758 137.45 90.6869 137.498 90.5932 137.543C90.5476 137.568 90.4996 137.591 90.454 137.613C90.3446 137.669 90.2328 137.724 90.1242 137.777C89.9952 137.84 89.8654 137.9 89.7308 137.96C89.5962 138.021 89.4766 138.075 89.3476 138.131C89.3374 138.135 89.3271 138.138 89.3169 138.143C89.1926 138.198 89.0659 138.251 88.9384 138.303C88.9297 138.308 88.9204 138.311 88.9109 138.313C88.7865 138.366 88.6622 138.416 88.5355 138.464C88.5308 138.464 88.5253 138.469 88.5206 138.469L88.1067 138.624C87.9674 138.677 87.8297 138.727 87.6881 138.775C87.5464 138.824 87.4064 138.873 87.2639 138.918C86.9799 139.014 86.6926 139.101 86.3983 139.187C83.375 140.03 80.2448 140.441 77.1035 140.406H76.0877C73.869 140.503 71.6514 140.192 69.5478 139.488C68.7796 139.189 68.0808 138.739 67.494 138.166C67.1584 137.827 66.8721 137.445 66.6434 137.028C66.2596 136.307 66.0192 135.519 65.9352 134.708C65.9604 134.758 65.9864 134.806 66.0139 134.853C66.2417 135.27 66.5281 135.653 66.8645 135.99C67.4518 136.563 68.1504 137.013 68.9183 137.312C71.0218 138.016 73.2394 138.328 75.4581 138.231H76.474C79.6153 138.266 82.7454 137.855 85.7688 137.011C86.0608 136.926 86.3479 136.838 86.6344 136.743L87.0585 136.6C87.2009 136.549 87.3379 136.5 87.4772 136.449C87.6165 136.398 87.7542 136.346 87.8911 136.293C87.8958 136.293 87.9013 136.289 87.906 136.289L88.2814 136.138C88.2892 136.138 88.2995 136.13 88.3097 136.128C88.4364 136.075 88.5607 136.022 88.6882 135.967C88.6984 135.962 88.7087 135.959 88.7189 135.954C88.8487 135.899 88.9754 135.842 89.1021 135.784C89.2288 135.726 89.3634 135.663 89.4956 135.601C89.6073 135.548 89.7166 135.493 89.8252 135.438L89.9645 135.368C90.0558 135.323 90.1471 135.275 90.2384 135.227L90.2863 135.202C90.38 135.152 90.4744 135.102 90.5681 135.047C90.6058 135.026 90.6468 135.006 90.6822 134.984C90.7664 134.936 90.8474 134.891 90.9285 134.843C90.9694 134.82 91.0071 134.798 91.0504 134.773C91.1346 134.725 91.218 134.675 91.3015 134.625L91.4006 134.565L91.6949 134.385C91.7177 134.372 91.7382 134.358 91.7586 134.344C91.868 134.274 91.9742 134.204 92.0812 134.134C96.2385 131.345 99.18 127.11 100.319 122.273V122.258C100.815 119.741 100.747 117.146 100.121 114.657C101.277 117.784 101.565 121.16 100.957 124.434H100.959Z" fill="#C5EFFF"/>
<path d="M101.771 124.66C98.9829 135.958 88.5943 141.419 76.9656 141.236C73.4774 141.07 68.6789 141.506 66.4315 138.187C65.4947 136.874 65.0054 135.301 65.0346 133.695C65.0637 132.089 65.6098 130.534 66.5936 129.255C68.0659 127.383 70.2243 127.007 72.9675 126.756C78.05 126.289 84.0776 125.892 85.5908 120.432C85.8794 119.291 85.7903 118.088 85.3366 117.001C85.3095 116.948 85.2965 116.889 85.2988 116.83C85.3002 116.774 85.3161 116.718 85.345 116.669C85.3739 116.62 85.4149 116.579 85.4641 116.55C85.4788 116.54 85.495 116.532 85.5121 116.527C85.5783 116.51 85.6479 116.509 85.7147 116.524C85.7815 116.539 85.8435 116.571 85.8953 116.615C86.5961 117.477 86.9722 118.553 86.9591 119.659C86.7231 126.076 78.2963 127.489 72.9675 127.893C68.804 127.985 66.4142 129.73 66.2954 133.472C66.186 139.829 71.998 140.021 77.0986 139.997C89.4804 139.997 97.8922 134.474 100.542 124.348C102.056 117.522 98.1818 105.976 88.3583 104.214C88.2237 104.189 88.0939 104.106 87.9648 104.089C87.9089 104.081 87.7366 103.903 87.6044 103.954C87.846 103.853 88.219 103.863 88.4574 103.758C88.8965 103.567 89.3765 103.404 89.8053 103.201C89.8431 103.211 89.884 103.219 89.9171 103.228C98.4352 105.476 103.665 116.468 101.766 124.659L101.771 124.66Z" fill="black"/>
<path d="M18.9169 124.283V124.298C20.0602 129.136 23.0058 133.371 27.1667 136.158C27.2737 136.228 27.38 136.299 27.4893 136.369L27.5531 136.409C27.6499 136.472 27.7482 136.532 27.8474 136.59L27.9465 136.65C28.0299 136.7 28.1141 136.75 28.1976 136.797C28.2385 136.822 28.2762 136.845 28.3195 136.867C28.3982 136.915 28.4824 136.96 28.5658 137.008C28.6036 137.028 28.6445 137.051 28.6799 137.071C28.7736 137.124 28.868 137.174 28.9616 137.227C28.9797 137.235 28.9947 137.245 29.0096 137.252C29.1009 137.299 29.1898 137.347 29.2835 137.392C29.3291 137.417 29.3771 137.44 29.4227 137.463C29.5321 137.518 29.6439 137.573 29.7525 137.626C29.8823 137.689 30.0113 137.749 30.1459 137.809C30.2805 137.87 30.4001 137.924 30.5291 137.98C30.5393 137.984 30.5496 137.987 30.5598 137.992C30.6841 138.047 30.8108 138.1 30.9383 138.152C30.947 138.157 30.9563 138.16 30.9658 138.162C31.0902 138.215 31.2145 138.265 31.342 138.313C31.3467 138.313 31.3522 138.318 31.3569 138.318L31.7708 138.474C31.9101 138.526 32.0478 138.576 32.1895 138.624C32.3311 138.673 32.4712 138.722 32.6136 138.768C32.8977 138.863 33.1849 138.951 33.4792 139.036C36.5025 139.879 39.6326 140.29 42.774 140.256H43.7898C46.0085 140.352 48.2261 140.041 50.3297 139.337C51.0979 139.038 51.7967 138.589 52.3835 138.015C52.7191 137.677 53.0055 137.294 53.2341 136.878C53.7998 135.774 54.0651 134.545 54.0037 133.309C53.8841 129.524 51.3047 127.344 46.9217 127.32C45.6952 127.227 44.551 127.096 43.4892 126.926C43.4664 126.926 43.4436 126.918 43.4231 126.916C36.8652 125.862 33.4729 123.37 33.3336 119.488C33.3284 118.834 33.4715 118.188 33.7522 117.596C33.816 117.495 33.8718 117.385 33.9324 117.267C34.0053 117.092 34.1075 116.931 34.2346 116.79L34.3841 116.677L34.3991 116.494C34.3991 116.461 34.4266 116.424 34.4093 116.396C33.0786 114.405 32.2792 109.473 31.822 106.358C30.9407 105.979 30.0727 105.549 29.2252 105.126C29.2252 105.108 28.4328 104.744 28.281 104.659C25.7045 105.819 23.5159 107.68 21.9717 110.026C19.1735 114.177 17.9451 119.908 18.9146 124.282L18.9169 124.283Z" fill="white"/>
<path d="M53.3782 136.878C53.1504 137.295 52.864 137.678 52.5276 138.015C51.9403 138.589 51.2417 139.038 50.4738 139.338C48.3703 140.042 46.1527 140.353 43.934 140.256H42.9968C40.3001 134.022 41.9077 129.498 43.5704 126.913C43.5932 126.913 43.6137 126.921 43.6365 126.923C44.6978 127.091 45.8419 127.223 47.069 127.317C51.4488 127.342 54.0259 129.52 54.151 133.306C54.2127 134.541 53.9474 135.771 53.3814 136.874L53.3782 136.878Z" fill="black"/>
<path opacity="0.4" d="M42.2713 128.831C43.4748 128.969 44.7671 129.076 46.1484 129.152C50.2559 129.17 53.0085 130.371 54.0015 132.514V132.359C53.8819 129.139 51.3025 127.282 46.9195 127.262C45.693 127.181 44.5489 127.07 43.4871 126.928C43.4643 126.928 43.4415 126.92 43.421 126.918C42.968 127.513 42.5814 128.155 42.2682 128.833L42.2713 128.831Z" fill="white"/>
<path d="M43.5017 140.816H43.9408C46.231 140.91 48.519 140.584 50.6892 139.855C51.5271 139.526 52.2889 139.032 52.9287 138.404C53.3018 138.03 53.6197 137.606 53.873 137.144C54.4848 135.956 54.7736 134.631 54.711 133.3V133.292C54.7211 132.386 54.5357 131.488 54.167 130.659C53.7983 129.829 53.2549 129.087 52.573 128.481C51.0129 127.28 49.0691 126.671 47.0939 126.765C45.8955 126.672 44.7631 126.544 43.7276 126.376L43.2932 126.308L43.0949 126.615C41.2898 129.415 39.7184 134.093 42.478 140.475L42.6228 140.811H43.0288C43.1862 140.811 43.3436 140.811 43.501 140.811L43.5017 140.816ZM52.8831 136.616C52.6795 136.986 52.425 137.326 52.1269 137.627C51.5936 138.15 50.9575 138.559 50.258 138.83C48.221 139.501 46.0767 139.798 43.9314 139.705H43.3727C41.0954 134.172 42.3112 130.079 43.855 127.525C44.8379 127.672 45.9065 127.791 47.0286 127.876H47.0695C51.1614 127.901 53.4748 129.834 53.5865 133.321C53.6438 134.459 53.4023 135.592 52.8854 136.611L52.8831 136.616Z" fill="black"/>
<path opacity="0.49" d="M18.9131 124.283V124.298C20.0563 129.135 23.0015 133.37 27.162 136.157C27.269 136.227 27.3753 136.298 27.4847 136.368L27.5484 136.408C27.6452 136.471 27.7435 136.531 27.8427 136.589L27.9419 136.649C28.0253 136.699 28.1095 136.749 28.1929 136.797C28.2338 136.821 28.2716 136.844 28.3148 136.867C28.3935 136.914 28.4777 136.959 28.5611 137.007C28.5989 137.028 28.6398 137.05 28.6752 137.07C28.7689 137.123 28.8633 137.173 28.9569 137.226C28.975 137.234 28.99 137.244 29.0049 137.251C29.0962 137.298 29.1851 137.346 29.2788 137.392C29.3244 137.416 29.3724 137.439 29.4181 137.462C29.5274 137.517 29.6392 137.572 29.7478 137.625C29.8776 137.688 30.0067 137.748 30.1412 137.808C30.2758 137.869 30.3954 137.924 30.5244 137.979C30.5347 137.983 30.5449 137.987 30.5551 137.991C30.6794 138.046 30.8061 138.099 30.9336 138.152C30.9424 138.157 30.9516 138.16 30.9612 138.162C31.0855 138.215 31.2098 138.265 31.3373 138.313C31.342 138.313 31.3475 138.319 31.3522 138.319L31.7661 138.474C31.9054 138.527 32.0431 138.577 32.1848 138.625C32.3264 138.673 32.4665 138.723 32.6089 138.768C32.893 138.864 33.1802 138.951 33.4745 139.037C36.4979 139.88 39.628 140.291 42.7693 140.256H43.7851C46.0038 140.353 48.2214 140.041 50.325 139.338C51.0932 139.039 51.792 138.589 52.3788 138.015C52.7144 137.677 53.0008 137.295 53.2294 136.878C53.6132 136.156 53.8536 135.369 53.9376 134.557C53.9124 134.608 53.8865 134.655 53.8589 134.703C53.6311 135.12 53.3447 135.502 53.0083 135.84C52.421 136.413 51.7224 136.863 50.9545 137.162C48.851 137.866 46.6334 138.178 44.4146 138.081H43.3988C40.2575 138.115 37.1274 137.705 34.104 136.861C33.8121 136.776 33.5248 136.688 33.2384 136.593L32.8143 136.45C32.6719 136.399 32.5349 136.349 32.3957 136.299C32.2564 136.248 32.1187 136.196 31.9817 136.143C31.977 136.143 31.9715 136.139 31.9668 136.139L31.5907 135.988C31.5828 135.988 31.5726 135.98 31.5631 135.978C31.4364 135.925 31.3121 135.873 31.1846 135.817C31.1744 135.812 31.1642 135.809 31.1539 135.804C31.0241 135.749 30.8974 135.691 30.7707 135.634C30.644 135.576 30.5095 135.513 30.3773 135.451C30.2655 135.398 30.1562 135.343 30.0476 135.288L29.9083 135.218C29.817 135.173 29.7257 135.125 29.6345 135.077L29.5865 135.052C29.4928 135.001 29.3984 134.952 29.3047 134.896C29.267 134.876 29.2261 134.856 29.1906 134.833C29.1072 134.786 29.0254 134.741 28.9444 134.693C28.9034 134.67 28.8657 134.648 28.8224 134.623C28.739 134.575 28.6548 134.525 28.5714 134.475L28.4722 134.415L28.1779 134.235C28.1551 134.222 28.1346 134.207 28.1142 134.194C28.0048 134.124 27.8986 134.053 27.7915 133.983C23.6324 131.196 20.689 126.961 19.5481 122.124V122.109C19.0523 119.591 19.12 116.997 19.7464 114.508C18.5908 117.635 18.3023 121.01 18.9107 124.284L18.9131 124.283Z" fill="#C5EFFF"/>
<path d="M18.1007 124.506C20.8887 135.804 31.2772 141.264 42.9059 141.082C46.3942 140.916 51.1927 141.352 53.44 138.033C54.3767 136.72 54.8659 135.147 54.8368 133.541C54.8076 131.935 54.2616 130.38 53.2779 129.101C51.8057 127.229 49.6472 126.853 46.9041 126.602C41.8216 126.135 35.794 125.738 34.2808 120.278C33.9921 119.137 34.0812 117.934 34.5349 116.847C34.5621 116.794 34.5751 116.735 34.5727 116.676C34.5713 116.62 34.5554 116.564 34.5265 116.515C34.4976 116.466 34.4567 116.425 34.4075 116.396C34.3928 116.386 34.3766 116.378 34.3595 116.373C34.2932 116.356 34.2236 116.355 34.1568 116.37C34.09 116.385 34.028 116.417 33.9762 116.461C33.2754 117.323 32.8994 118.399 32.9124 119.505C33.1484 125.922 41.5753 127.335 46.9041 127.739C51.0675 127.831 53.4573 129.576 53.5762 133.318C53.6855 139.675 47.8735 139.867 42.7729 139.843C30.3904 139.843 21.9793 134.32 19.329 124.194C17.8158 117.368 21.7078 105.791 31.5306 104.03C31.6651 104.005 31.795 103.985 31.924 103.967C31.9799 103.959 32.0995 103.932 32.1522 103.926C31.9107 103.826 31.6518 103.708 31.4133 103.605C30.9743 103.415 30.4943 103.251 30.0654 103.048C30.0276 103.058 29.9867 103.066 29.9536 103.075C21.4355 105.324 16.2058 116.316 18.1046 124.506H18.1007Z" fill="black"/>
<path d="M142.594 141.033C142.963 141.049 143.331 140.986 143.673 140.849C144.016 140.712 144.324 140.504 144.578 140.239C144.831 139.974 145.025 139.658 145.144 139.312C145.263 138.967 145.306 138.601 145.27 138.237V113.236H149.973C150.272 113.267 150.574 113.234 150.858 113.138C151.142 113.042 151.402 112.886 151.618 112.681C151.835 112.475 152.004 112.225 152.112 111.949C152.221 111.672 152.268 111.375 152.248 111.079C152.263 110.783 152.214 110.486 152.104 110.21C151.994 109.934 151.826 109.684 151.61 109.477C151.395 109.271 151.138 109.111 150.856 109.01C150.573 108.909 150.272 108.869 149.973 108.892H145.239V105.547C145.239 102.296 146.469 100.899 149.296 100.899C149.855 100.911 150.413 100.849 150.956 100.717C151.386 100.639 151.771 100.406 152.038 100.064C152.305 99.7216 152.434 99.294 152.401 98.8632C152.401 97.3139 150.895 96.4023 148.066 96.4023C142.841 96.4023 139.921 99.319 139.921 105.365V108.889H137.277C136.978 108.866 136.677 108.906 136.395 109.007C136.112 109.108 135.855 109.268 135.64 109.475C135.425 109.682 135.256 109.932 135.146 110.208C135.037 110.484 134.988 110.78 135.003 111.077C134.983 111.373 135.029 111.67 135.138 111.946C135.247 112.223 135.415 112.473 135.632 112.678C135.849 112.884 136.108 113.04 136.393 113.136C136.677 113.232 136.979 113.265 137.277 113.233H139.921V138.24C139.885 138.603 139.928 138.969 140.047 139.314C140.167 139.659 140.36 139.974 140.613 140.239C140.867 140.504 141.175 140.712 141.517 140.849C141.858 140.985 142.226 141.048 142.594 141.033ZM167.77 141.033C176.591 141.033 182.554 134.746 182.554 124.69C182.554 114.603 176.591 108.344 167.769 108.344C158.916 108.344 152.953 114.603 152.953 124.69C152.954 134.746 158.917 141.033 167.769 141.033H167.77ZM167.77 136.384C162.115 136.384 158.395 132.13 158.395 124.687C158.395 117.244 162.115 112.99 167.77 112.99C173.426 112.99 177.115 117.244 177.115 124.687C177.115 132.13 173.426 136.387 167.769 136.387L167.77 136.384ZM199.923 141.033C208.745 141.033 214.708 134.746 214.708 124.69C214.708 114.603 208.745 108.344 199.923 108.344C191.07 108.344 185.107 114.603 185.107 124.69C185.107 134.746 191.07 141.033 199.923 141.033ZM199.923 136.384C194.267 136.384 190.548 132.13 190.548 124.687C190.548 117.244 194.267 112.992 199.923 112.992C205.578 112.992 209.267 117.246 209.267 124.689C209.267 132.133 205.579 136.387 199.923 136.387V136.384ZM230.939 141.033C235.949 141.033 239.269 138.605 241.02 134.837H241.112V138.452C241.11 138.802 241.181 139.149 241.319 139.472C241.458 139.794 241.662 140.085 241.919 140.327C242.176 140.569 242.479 140.756 242.812 140.877C243.144 140.999 243.499 141.052 243.853 141.033C244.2 141.048 244.547 140.992 244.871 140.868C245.195 140.744 245.489 140.554 245.735 140.311C245.981 140.068 246.173 139.777 246.298 139.457C246.424 139.137 246.481 138.794 246.465 138.451V98.9239C246.494 98.5609 246.446 98.1959 246.324 97.8522C246.202 97.5085 246.009 97.1937 245.758 96.9279C245.506 96.662 245.201 96.4509 244.862 96.3081C244.523 96.1652 244.158 96.0937 243.79 96.0982C243.421 96.0937 243.056 96.1652 242.717 96.3081C242.378 96.4509 242.073 96.662 241.821 96.9279C241.57 97.1937 241.377 97.5085 241.255 97.8522C241.133 98.1959 241.085 98.5609 241.114 98.9239V114.024H240.991C239.986 112.246 238.505 110.775 236.71 109.774C234.915 108.773 232.877 108.278 230.817 108.346C222.764 108.346 217.261 114.787 217.261 124.692C217.261 134.597 222.793 141.033 230.939 141.033ZM231.953 136.384C226.298 136.384 222.732 131.857 222.732 124.687C222.732 117.547 226.297 112.99 231.953 112.99C237.455 112.99 241.144 117.639 241.144 124.687C241.144 131.769 237.455 136.387 231.953 136.387V136.384Z" fill="#00A6ED"/>
<path d="M143.83 31.7729C144.646 31.7942 145.457 31.6545 146.218 31.362C146.978 31.0694 147.671 30.6299 148.258 30.0691C148.844 29.5084 149.311 28.8377 149.632 28.0963C149.952 27.3549 150.12 26.5576 150.125 25.7513C150.124 24.944 149.958 24.1452 149.639 23.4023C149.319 22.6593 148.852 21.9872 148.265 21.4258C147.678 20.8643 146.983 20.425 146.222 20.1337C145.46 19.8424 144.647 19.705 143.83 19.7298C143.014 19.705 142.201 19.8424 141.439 20.1337C140.677 20.425 139.982 20.8643 139.395 21.4258C138.809 21.9872 138.341 22.6593 138.022 23.4023C137.702 24.1452 137.537 24.944 137.535 25.7513C137.54 26.5576 137.708 27.3549 138.029 28.0963C138.35 28.8377 138.817 29.5084 139.403 30.0691C139.989 30.6299 140.683 31.0694 141.443 31.362C142.203 31.6545 143.015 31.7942 143.83 31.7729ZM143.83 80.6609C147.461 80.6609 149.72 78.3882 149.72 74.5997V42.3001C149.72 38.5115 147.461 36.1992 143.83 36.1992C140.159 36.1992 137.94 38.5123 137.94 42.3001V74.6004C137.937 78.3882 140.159 80.6609 143.83 80.6609ZM180.245 80.6609C183.714 80.6609 186.134 78.5873 186.134 74.5997V65.9469L189.886 62.5177L200.981 77.0326C202.837 79.7843 204.249 80.6617 206.751 80.6617C210.056 80.6617 212.358 78.508 212.358 75.3977C212.358 73.8826 211.996 72.8458 210.706 71.1308L198.641 55.9384L209.658 45.65C211.352 44.0944 211.877 43.018 211.877 41.2633C211.886 40.5857 211.756 39.9133 211.494 39.287C211.232 38.6606 210.844 38.0935 210.354 37.6199C209.863 37.1462 209.28 36.7761 208.641 36.5319C208.001 36.2877 207.318 36.1745 206.633 36.1992C204.858 36.1992 203.526 36.8774 201.953 38.5123L186.297 54.0243H186.135V27.506C186.135 23.5183 183.715 21.4051 180.245 21.4051C176.816 21.4051 174.355 23.5183 174.355 27.506V74.6004C174.355 78.5881 176.815 80.6609 180.245 80.6609ZM241.15 31.7729C241.965 31.7942 242.777 31.6545 243.537 31.362C244.298 31.0694 244.991 30.6299 245.577 30.0691C246.163 29.5084 246.631 28.8377 246.951 28.0963C247.272 27.3549 247.44 26.5576 247.445 25.7513C247.443 24.944 247.278 24.1452 246.958 23.4023C246.639 22.6593 246.172 21.9872 245.585 21.4258C244.998 20.8643 244.303 20.425 243.541 20.1337C242.779 19.8424 241.966 19.705 241.15 19.7298C240.334 19.705 239.52 19.8424 238.759 20.1337C237.997 20.425 237.302 20.8643 236.715 21.4258C236.128 21.9872 235.661 22.6593 235.342 23.4023C235.022 24.1452 234.857 24.944 234.855 25.7513C234.86 26.5574 235.028 27.3545 235.348 28.0957C235.669 28.837 236.136 29.5076 236.722 30.0683C237.308 30.629 238.001 31.0686 238.761 31.3613C239.521 31.654 240.332 31.7939 241.148 31.7729H241.15ZM241.15 80.6609C244.781 80.6609 247.04 78.3882 247.04 74.5997V42.3001C247.04 38.5115 244.781 36.1992 241.15 36.1992C237.478 36.1992 235.26 38.5123 235.26 42.3001V74.6004C235.257 78.3882 237.479 80.6617 241.148 80.6617L241.15 80.6609Z" fill="#00A6ED"/>
</g>
<defs>
<clipPath id="clip0_10_903">
<rect width="259" height="160" fill="white"/>
</clipPath>
</defs>
</svg>
