<svg width="152" height="220" viewBox="0 0 152 220" fill="none" xmlns="http://www.w3.org/2000/svg">
<g clip-path="url(#clip0_298_556)">
<mask id="mask0_298_556" style="mask-type:luminance" maskUnits="userSpaceOnUse" x="0" y="-10" width="152" height="242">
<path d="M152 -9.66211H0V231.892H152V-9.66211Z" fill="white"/>
</mask>
<g mask="url(#mask0_298_556)">
<path opacity="0.35" d="M104.589 90.6598C97.0614 94.3104 90.1729 97.1429 75.9949 97.1429C61.817 97.1429 54.7316 94.3392 47.0158 90.4902C47.7392 89.9723 48.6228 89.7235 49.5122 89.787C50.4582 89.5484 51.6836 89.3046 52.9684 89.0422C67.6458 94.194 85.1359 94.1595 99.746 88.7454C101.726 89.0753 103.547 89.5793 104.589 90.6598Z" fill="#C5EFFF"/>
<path d="M56.8422 33.8709C56.5523 34.5113 56.2231 35.1333 55.8564 35.7336C50.894 38.5374 37.4984 43.6596 31.6898 40.6941C22.7414 36.1154 22.0219 19.4747 27.4563 12.3122C32.8906 5.14971 44.7264 3.5415 51.8233 7.16481C61.0722 11.8902 60.876 24.942 56.8451 33.8709H56.8422Z" fill="black"/>
<path d="M96.6887 36.0062C96.9764 36.679 97.3071 37.3329 97.6788 37.9638C102.791 40.9767 116.643 46.5627 122.744 43.5821C132.154 38.9897 133.221 21.6761 127.697 14.1146C122.174 6.55311 109.888 4.65807 102.426 8.29144C92.7063 13.0363 92.66 26.6301 96.6887 36.0011V36.0062Z" fill="black"/>
<path d="M74.0522 4.92456C73.6549 4.98522 73.2467 5.05961 73.0693 5.09499C73.0107 5.06466 72.9499 5.0365 72.892 5.00906C73.2763 4.97584 73.6643 4.94839 74.0522 4.92456Z" fill="white"/>
<path opacity="0.4" d="M28.1598 61.2691C28.1671 61.3159 28.1714 61.364 28.1786 61.4129C28.1 61.4717 28.0181 61.526 27.9333 61.5754C27.8913 61.6013 27.8421 61.6286 27.7885 61.6566C27.8001 60.7427 27.8389 59.8141 27.905 58.8708C27.9282 59.2001 27.9564 59.5251 27.989 59.85C28.0361 60.3281 28.0918 60.8033 28.1569 61.2699L28.1598 61.2691Z" fill="white"/>
<path opacity="0.4" d="M123.811 61.5473C123.725 61.4941 123.657 61.4474 123.608 61.4107C123.615 61.3647 123.622 61.318 123.627 61.267C123.692 60.7982 123.745 60.3252 123.795 59.8471C123.827 59.5221 123.855 59.2001 123.879 58.8679C123.944 59.8121 123.983 60.7407 123.995 61.6537C123.923 61.6142 123.864 61.5775 123.808 61.5444L123.811 61.5473Z" fill="white"/>
<path d="M127.681 62.4727C127.681 62.4727 127.66 62.4986 127.639 62.5216C126.559 63.6967 125.16 64.5361 123.61 64.9385C124.338 65.5664 125.229 65.978 126.181 66.1262C124.489 69.4432 122.482 72.5926 120.189 75.5317C119.359 76.5848 118.472 77.5927 117.533 78.5511C117.271 78.8181 117.006 79.0779 116.737 79.3304C116.122 79.908 115.501 80.4639 114.873 80.9983C112.783 82.7813 110.557 84.4 108.214 85.8394C108.104 85.9113 107.992 85.976 107.882 86.0415C104.058 88.3436 99.9738 90.1919 95.7151 91.5483C89.3077 93.5853 82.6248 94.6389 75.8972 94.6727C69.1689 94.639 62.4853 93.5855 56.0771 91.5483C51.8188 90.1908 47.7353 88.3426 43.9099 86.0415C43.8281 85.9904 43.742 85.9394 43.6602 85.8883C41.2873 84.4377 39.0336 82.8031 36.9201 80.9997C36.2928 80.4639 35.6715 79.9072 35.0563 79.3297C34.774 79.063 34.491 78.7891 34.2181 78.5087C33.7324 78.0148 33.2583 77.5022 32.8031 76.9753C32.4527 76.5741 32.1118 76.1658 31.7825 75.7531C29.4368 72.7779 27.3861 69.5845 25.6591 66.2175C25.6287 66.1549 25.612 66.1226 25.612 66.1226C25.612 66.1226 25.6706 66.1154 25.7756 66.0974C26.6333 65.9311 27.4353 65.554 28.1084 65.0004C28.1338 64.9795 28.1598 64.9587 28.1851 64.9357C26.6357 64.5327 25.2366 63.6934 24.1564 62.5187C24.1352 62.4957 24.1212 62.4794 24.1144 62.4698H24.1752C25.401 62.5027 26.6163 62.2376 27.7154 61.6977C30.4948 61.3727 33.1917 61.1319 34.0393 59.1815C42.72 39.1613 66.3581 39.6552 72.2181 55.3447C74.0452 60.1862 74.1367 65.5052 72.4772 70.4059C73.5349 70.3579 74.5936 70.3294 75.6533 70.3203H76.1506C77.2763 70.3275 78.4018 70.3591 79.5271 70.4152C77.8634 65.5121 77.9542 60.189 79.7841 55.3447C85.6469 39.6552 109.282 39.1613 117.963 59.1815C118.783 61.0744 121.342 61.3598 124.028 61.6704C125.141 62.2314 126.378 62.5071 127.626 62.4727H127.687H127.681Z" fill="white"/>
<path opacity="0.35" d="M126.182 66.1262C126.182 66.1262 122.256 74.1493 116.735 79.3312C114.029 81.8706 111.06 84.1197 107.879 86.0415C104.055 88.3436 99.971 90.1919 95.7122 91.5483C82.8317 95.7142 68.9526 95.7142 56.0721 91.5483C51.8138 90.1909 47.7302 88.3426 43.9048 86.0415C40.7239 84.1197 37.7556 81.8706 35.049 79.3312C29.5278 74.1485 25.6019 66.1262 25.6019 66.1262C26.1843 66.0389 26.7465 65.8495 27.2623 65.5669C29.3844 69.2903 32.0026 72.7123 35.0461 75.7402C37.7527 78.2796 40.721 80.5288 43.9019 82.4505C47.7268 84.7526 51.8105 86.6009 56.0692 87.9573C68.9497 92.1232 82.8288 92.1232 95.7093 87.9573C99.9676 86.5998 104.051 84.7516 107.877 82.4505C111.058 80.5288 114.026 78.2796 116.732 75.7402C119.776 72.7124 122.394 69.2904 124.516 65.5669C125.031 65.8507 125.594 66.0402 126.177 66.1262H126.182Z" fill="#B3B3B3"/>
<path d="M128.139 62.111C128.081 62.0421 128.008 61.987 127.925 61.9497C127.843 61.9124 127.753 61.8938 127.663 61.8953C126.553 61.927 125.452 61.7023 124.445 61.2389C124.384 61.208 124.334 61.1594 124.302 61.0996C124.27 61.0399 124.257 60.9719 124.265 60.9047C124.307 60.5797 124.345 60.2461 124.377 59.9075C124.45 59.2116 124.499 58.4999 124.534 57.7853C124.637 55.5016 124.581 53.2136 124.366 50.9377C124.01 47.325 123.348 43.7487 122.387 40.2467C121.955 38.6499 121.44 37.076 120.846 35.5314C120.811 35.4408 120.778 35.3531 120.743 35.2647C120.68 35.1044 120.615 34.9426 120.549 34.7802C120.516 34.6989 120.481 34.6155 120.448 34.5321C120.435 34.4976 120.418 34.4602 120.404 34.4279C120.292 34.154 120.178 33.8829 120.058 33.6112C119.479 32.2889 118.845 30.996 118.155 29.7327C118.054 29.5494 117.954 29.366 117.851 29.1856C116.161 26.1991 114.156 23.3991 111.871 20.8326C107.206 15.5984 101.476 11.4081 95.0586 8.53919C92.5229 7.41241 89.8954 6.5014 87.2046 5.81595C86.6625 5.67648 86.095 5.54205 85.5232 5.41695C84.9977 5.30121 84.465 5.19409 83.9351 5.09704C83.51 5.01796 83.0842 4.94439 82.6576 4.87633C82.0014 4.77185 81.3412 4.68223 80.6773 4.60746C77.095 2.84998 73.2585 1.65855 69.3062 1.07617C69.5559 1.19911 73.2148 2.3889 73.809 4.36088C73.5145 4.37957 73.2228 4.40042 72.9289 4.42558C68.1409 1.55856 56.7373 2.39609 56.7373 2.39609C56.7373 2.39609 63.2183 2.50968 67.5778 5.14736C67.1362 5.2286 66.6998 5.31703 66.2604 5.41408C65.6886 5.53917 65.1233 5.67361 64.579 5.81308C61.8899 6.49843 59.2641 7.4092 56.73 8.53559C50.3114 11.4038 44.5799 15.5941 39.9152 20.829C37.6314 23.3971 35.6276 26.198 33.9373 29.1849C33.8345 29.366 33.7317 29.5494 33.6311 29.732C32.9396 30.9939 32.306 32.2867 31.7304 33.6105C31.5972 33.9146 31.4662 34.223 31.3381 34.5314C31.2027 34.8628 31.0717 35.195 30.9407 35.5285V35.5328L30.9335 35.5537C30.3398 37.0899 29.8283 38.6562 29.4012 40.246C28.4398 43.7482 27.7781 47.3248 27.423 50.9377C27.2078 53.2136 27.1517 55.5016 27.2551 57.7853C27.2898 58.4977 27.3412 59.2116 27.4114 59.9054C27.444 60.2461 27.4838 60.5804 27.5236 60.9054C27.5314 60.9726 27.5185 61.0406 27.4864 61.1004C27.4543 61.1601 27.4047 61.2087 27.3441 61.2397C26.3305 61.7057 25.2214 61.9305 24.105 61.896C23.9936 61.895 23.8843 61.9259 23.7901 61.985C23.6959 62.0441 23.6209 62.1289 23.5741 62.2293C23.5273 62.3297 23.5106 62.4414 23.5261 62.551C23.5415 62.6606 23.5885 62.7634 23.6613 62.8471C24.4311 63.6956 25.3539 64.3935 26.3821 64.9047C26.4232 64.9251 26.4575 64.9569 26.4808 64.9963C26.5041 65.0356 26.5154 65.0808 26.5134 65.1264C26.5114 65.172 26.4962 65.2161 26.4696 65.2533C26.4429 65.2904 26.406 65.3192 26.3633 65.336C26.0986 65.4364 25.824 65.5087 25.544 65.5517C25.4506 65.5607 25.3608 65.5921 25.2824 65.6433C25.204 65.6944 25.1392 65.7637 25.0937 65.8451C25.0482 65.9266 25.0233 66.0179 25.0212 66.111C25.0191 66.2042 25.0397 66.2964 25.0815 66.3799C25.2429 66.7113 29.1167 74.5589 34.6517 79.7516C41.0429 85.6966 48.7549 90.0617 57.1621 92.4929C63.2426 94.2914 69.5501 95.22 75.8943 95.2506C82.2376 95.2198 88.5441 94.2912 94.6236 92.4929C103.031 90.0617 110.743 85.6966 117.134 79.7516C122.669 74.5561 126.544 66.7084 126.704 66.3799C126.746 66.2967 126.766 66.2048 126.764 66.1121C126.761 66.0194 126.737 65.9286 126.691 65.8474C126.646 65.7663 126.582 65.6972 126.504 65.6461C126.426 65.595 126.337 65.5633 126.244 65.5538C125.963 65.5091 125.688 65.4369 125.422 65.3382C125.379 65.3213 125.342 65.2927 125.316 65.2556C125.289 65.2186 125.274 65.1747 125.271 65.1292C125.269 65.0837 125.28 65.0386 125.303 64.9992C125.326 64.9597 125.36 64.9277 125.401 64.9068C126.429 64.3953 127.353 63.6975 128.124 62.8493C128.21 62.7467 128.259 62.6176 128.261 62.4836C128.263 62.3497 128.219 62.2191 128.135 62.1139L128.139 62.111ZM125.848 63.308C125.134 63.8091 124.33 64.1712 123.48 64.3748C123.375 64.3995 123.28 64.4521 123.203 64.5269C123.127 64.6016 123.072 64.6957 123.045 64.799C123.019 64.9022 123.022 65.0107 123.055 65.1122C123.087 65.2137 123.147 65.3044 123.228 65.3741C123.735 65.8115 124.316 66.157 124.944 66.395C124.991 66.4126 125.033 66.4398 125.069 66.475C125.104 66.5102 125.132 66.5524 125.149 66.5989C125.167 66.6455 125.174 66.6952 125.171 66.7448C125.168 66.7944 125.154 66.8428 125.131 66.8867C123.891 69.1923 120.571 74.9385 116.338 78.9112C102.339 92.0536 84.9905 94.0651 75.8965 94.0953C66.8004 94.0651 49.4507 92.0543 35.4529 78.9112C31.2237 74.9399 27.9007 69.1923 26.6601 66.8867C26.6363 66.843 26.6222 66.7947 26.6188 66.7451C26.6153 66.6955 26.6226 66.6458 26.6401 66.5993C26.6575 66.5527 26.6848 66.5104 26.7201 66.4751C26.7554 66.4399 26.7979 66.4126 26.8447 66.395C27.4736 66.1577 28.0556 65.8121 28.5637 65.3741C28.6447 65.3044 28.7047 65.2137 28.7369 65.1122C28.7691 65.0107 28.7723 64.9022 28.7461 64.799C28.7195 64.6957 28.665 64.6016 28.5884 64.5269C28.5119 64.4521 28.4162 64.3995 28.3118 64.3748C27.4616 64.1711 26.6579 63.8091 25.9435 63.308C25.9047 63.2813 25.8746 63.2438 25.8571 63.2003C25.8395 63.1568 25.8352 63.1091 25.8447 63.0631C25.8541 63.0172 25.877 62.975 25.9104 62.9418C25.9438 62.9087 25.9863 62.886 26.0325 62.8766C26.9291 62.73 27.7817 62.3878 28.529 61.8745C28.6131 61.8126 28.6788 61.7293 28.7191 61.6334C28.7594 61.5374 28.7727 61.4324 28.7577 61.3295C28.6853 60.845 28.6267 60.3274 28.5731 59.7918C28.508 59.1167 28.4566 58.4258 28.4211 57.7299C28.3205 55.5002 28.3758 53.2662 28.5869 51.0441C28.9354 47.4974 29.5846 43.9863 30.5274 40.548C30.9589 38.9602 31.4742 37.3961 32.0713 35.8621L32.0785 35.8485C32.0829 35.8348 32.0879 35.8233 32.0923 35.8089C32.0966 35.7945 32.0923 35.8017 32.0966 35.7974C32.106 35.7694 32.1198 35.7392 32.1314 35.709C36.7507 24.0964 45.7447 14.729 57.2041 9.59527C58.3786 9.07334 59.5758 8.5979 60.7957 8.16895C62.1362 7.6983 63.4952 7.28708 64.8729 6.9353C65.4027 6.7987 65.9586 6.66642 66.5145 6.54564C67.2407 6.38557 67.9718 6.24322 68.7076 6.11861L69.0044 6.06973C69.0978 6.05319 69.1933 6.03738 69.2867 6.023C69.2905 6.02192 69.2945 6.02192 69.2983 6.023C69.4872 5.9928 69.6768 5.96477 69.8657 5.93745C71.8616 5.64579 73.8738 5.47772 75.8907 5.43421C77.9018 5.47881 79.9082 5.64687 81.8983 5.93745C81.936 5.94176 81.9707 5.94679 82.0105 5.95398C82.3326 6.00071 82.6525 6.05391 82.9754 6.10711L83.0593 6.12077C83.2437 6.15096 83.4282 6.18355 83.613 6.21854H83.6174C84.1682 6.32063 84.7176 6.4299 85.2641 6.54996C85.8221 6.67074 86.3737 6.80302 86.9035 6.93961C88.2787 7.28972 89.6431 7.70309 90.9807 8.17326C92.1996 8.60029 93.4004 9.07765 94.5722 9.59958C106.032 14.7333 115.027 24.1006 119.647 35.7133L119.746 35.9635C119.746 35.9635 119.746 35.9635 119.746 35.9678C120.328 37.4682 120.83 38.9982 121.25 40.5516C122.194 43.9895 122.844 47.5008 123.192 51.0477C123.403 53.2698 123.459 55.5038 123.358 57.7335C123.323 58.4273 123.272 59.1232 123.204 59.7954C123.153 60.331 123.092 60.8486 123.022 61.3331C123.007 61.436 123.02 61.541 123.06 61.637C123.1 61.7329 123.166 61.8162 123.25 61.8781C123.998 62.3914 124.85 62.7336 125.747 62.8802C125.793 62.8887 125.835 62.9103 125.869 62.9424C125.903 62.9745 125.927 63.0158 125.938 63.0611C125.948 63.1064 125.945 63.1538 125.929 63.1975C125.913 63.2412 125.885 63.2794 125.847 63.3073L125.848 63.308Z" fill="black"/>
<path d="M128.417 61.8947C128.327 61.7837 128.212 61.6947 128.082 61.6344C127.953 61.5741 127.81 61.5441 127.667 61.5467C126.622 61.5743 125.584 61.3715 124.627 60.9529C124.623 60.9516 124.62 60.949 124.618 60.9456C124.616 60.9422 124.615 60.9382 124.615 60.9342C124.657 60.6164 124.695 60.28 124.728 59.9414C124.796 59.262 124.849 58.5424 124.884 57.8005C124.989 55.5008 124.933 53.1966 124.716 50.9047C124.359 47.2723 123.693 43.6765 122.726 40.1555C122.297 38.5675 121.788 37.0021 121.199 35.4653L121.071 35.1361C121.008 34.9758 120.943 34.8111 120.877 34.6487L120.839 34.5559C120.818 34.5049 120.797 34.4538 120.776 34.3985L120.732 34.2942C120.618 34.0182 120.503 33.7443 120.382 33.4711C119.803 32.1468 119.161 30.8312 118.464 29.5652C118.364 29.3798 118.264 29.1964 118.158 29.0131C116.455 26.006 114.436 23.1865 112.135 20.6019C107.438 15.3291 101.667 11.1079 95.2034 8.2179C92.6501 7.08219 90.0039 6.16489 87.2936 5.47597C86.7493 5.33219 86.1797 5.19991 85.6006 5.07267C85.0867 4.95908 84.5475 4.85196 84.001 4.75059C83.5406 4.66504 83.1208 4.59315 82.7141 4.52989L82.6887 4.52557C82.0438 4.42349 81.404 4.33506 80.7829 4.26605H80.7757C77.2684 2.53621 73.5107 1.36055 69.6384 0.781486C69.5103 0.760638 69.4256 0.746978 69.3909 0.739789L66.4783 0.0323808C66.4735 0.0314279 66.4686 0.0321975 66.4644 0.03455C66.4601 0.0369025 66.4569 0.0406822 66.4552 0.0452037C66.4536 0.0497251 66.4536 0.0546889 66.4553 0.0591949C66.457 0.0637008 66.4603 0.0674506 66.4645 0.0697642L69.1528 1.38968C69.1853 1.40622 69.2628 1.43641 69.3815 1.48242C71.689 2.36884 72.7443 3.23153 73.2047 3.9109C73.1134 4.0058 73.1323 3.98999 73.0367 4.08488C68.214 1.27106 57.9178 2.31277 57.2707 2.3595C57.2613 2.3595 56.5911 2.38034 56.5911 2.38969L66.5796 4.99215L66.1895 5.07554C65.6264 5.19847 65.0567 5.33507 64.4965 5.47669C61.7871 6.16669 59.1415 7.08371 56.5882 8.2179C50.1231 11.1069 44.3499 15.3274 39.651 20.5997C37.3523 23.1857 35.3343 26.005 33.6304 29.011C33.5276 29.1943 33.4226 29.3776 33.322 29.5631C32.6236 30.8363 31.9815 32.1512 31.4068 33.4689C31.2736 33.7752 31.1405 34.0858 31.0124 34.397C30.8748 34.7313 30.7438 35.0649 30.6128 35.3992L30.5288 35.6149L30.5332 35.6192C29.9666 37.1059 29.4764 38.6202 29.0646 40.1562C28.0996 43.6772 27.4352 47.2728 27.0784 50.9047C26.862 53.1967 26.8059 55.5008 26.9105 57.8005C26.9482 58.5474 26.9996 59.2663 27.0669 59.9371C27.0994 60.2735 27.1392 60.6028 27.1769 60.9184C27.1779 60.9224 27.1775 60.9266 27.1758 60.9304C27.1741 60.9342 27.1711 60.9373 27.1675 60.9392C26.2201 61.3682 25.1864 61.576 24.1456 61.5467C23.9423 61.5404 23.7422 61.5981 23.5738 61.7113C23.4682 61.7854 23.3792 61.8803 23.3124 61.9902C23.2457 62.1002 23.2026 62.2226 23.186 62.3499C23.1693 62.4772 23.1794 62.6065 23.2156 62.7298C23.2518 62.853 23.3134 62.9674 23.3964 63.0658C24.1347 63.8885 25.0137 64.5751 25.9927 65.0938C25.8341 65.1411 25.6726 65.1783 25.5092 65.2052C25.3602 65.2207 25.2171 65.2716 25.0922 65.3538C24.9672 65.4359 24.8641 65.5469 24.7916 65.6771C24.7191 65.8074 24.6794 65.9531 24.6758 66.1019C24.6722 66.2506 24.7048 66.3981 24.7709 66.5316C24.8086 66.6129 28.7758 74.7128 34.4157 80.0083C40.846 85.9899 48.6051 90.382 57.0637 92.8287C63.1773 94.6382 69.5195 95.5724 75.8987 95.603C82.2762 95.5723 88.6167 94.6381 94.7286 92.8287C103.188 90.3816 110.948 85.9895 117.379 80.0083C123.019 74.7128 126.985 66.6129 127.024 66.5316C127.089 66.3988 127.12 66.2527 127.116 66.1054C127.112 65.9581 127.073 65.8138 127.002 65.6845C126.931 65.5552 126.829 65.4447 126.707 65.3621C126.584 65.2795 126.443 65.2272 126.295 65.2096H126.291C126.124 65.1829 125.96 65.145 125.798 65.096C126.775 64.5751 127.654 63.8899 128.395 63.0708C128.533 62.907 128.611 62.7011 128.614 62.4875C128.618 62.2739 128.548 62.0654 128.416 61.8968L128.417 61.8947ZM31.7702 35.6767C31.7679 35.6802 31.7664 35.6841 31.7658 35.6882V35.6839C31.767 35.6813 31.7684 35.6789 31.7702 35.6767Z" fill="black"/>
<path d="M52.3351 121.785C52.3257 121.036 49.4695 122.328 49.4746 121.574C49.4705 117.585 49.7365 113.6 50.2708 109.646C50.3106 109.354 50.3547 109.062 50.3989 108.772C50.5485 107.805 50.7103 106.869 50.8845 105.963C51.8465 100.972 44.3058 92.9085 47.0151 90.4944C47.4935 90.0674 49.3081 89.9143 50.5299 89.887C51.4759 89.6483 51.6836 89.3068 52.9677 89.0451C55.7956 88.47 58.9087 87.7949 59.9524 86.8553C64.0485 83.1651 69.2961 81.5785 75.6743 81.5483H75.8241C82.2023 81.5785 87.4471 83.1673 91.5431 86.8553C92.9748 88.1429 96.5642 88.2213 99.7446 88.7482C101.725 89.0775 96.1111 89.2076 104.588 90.662C104.988 90.7339 105.095 91.286 105.249 91.6684C106.643 95.0991 100.348 103.914 101.097 108.771C101.722 113.02 102.031 117.31 102.022 121.605C102.026 122.359 100.613 122.017 100.604 122.764" fill="white"/>
<path d="M69.3533 120.712C70.6613 120.712 71.7216 119.659 71.7216 118.36C71.7216 117.061 70.6613 116.008 69.3533 116.008C68.0453 116.008 66.985 117.061 66.985 118.36C66.985 119.659 68.0453 120.712 69.3533 120.712Z" fill="#0D1338"/>
<path d="M69.3815 111.351C70.6895 111.351 71.7498 110.298 71.7498 108.999C71.7498 107.699 70.6895 106.646 69.3815 106.646C68.0735 106.646 67.0132 107.699 67.0132 108.999C67.0132 110.298 68.0735 111.351 69.3815 111.351Z" fill="#0D1338"/>
<path d="M82.1133 120.712C83.4213 120.712 84.4816 119.659 84.4816 118.36C84.4816 117.061 83.4213 116.008 82.1133 116.008C80.8053 116.008 79.745 117.061 79.745 118.36C79.745 119.659 80.8053 120.712 82.1133 120.712Z" fill="#0D1338"/>
<path d="M82.1394 111.351C83.4473 111.351 84.5077 110.298 84.5077 108.999C84.5077 107.699 83.4473 106.646 82.1394 106.646C80.8314 106.646 79.7711 107.699 79.7711 108.999C79.7711 110.298 80.8314 111.351 82.1394 111.351Z" fill="#0D1338"/>
<path d="M72.9629 91.179C71.7484 92.478 70.5157 93.8044 69.3243 95.0877C67.6241 96.9202 66.0173 98.6484 64.4502 100.313C61.7047 103.211 60.0798 106.98 59.8634 110.953C59.5623 116.91 59.5877 124.247 59.7093 130.535C59.3075 130.484 58.9196 130.429 58.5417 130.375C58.4223 124.105 58.397 116.824 58.7003 110.892C58.931 106.647 60.6665 102.619 63.5997 99.5219C65.1646 97.8612 66.7715 96.133 68.4688 94.3026C69.6602 93.0201 70.8928 91.693 72.1096 90.3917C72.2152 90.2791 72.3614 90.2129 72.5162 90.2074C72.6711 90.2019 72.8217 90.2578 72.9351 90.3626C73.0484 90.4675 73.1152 90.6128 73.1207 90.7665C73.1262 90.9203 73.07 91.07 72.9644 91.1826L72.9629 91.179Z" fill="#0D1338"/>
<path d="M50.878 109.502C50.5161 109.358 50.1448 109.214 49.7641 109.059L50.878 109.502ZM101.734 109.066C101.353 109.217 100.979 109.361 100.62 109.497L101.734 109.066Z" fill="black"/>
<path d="M49.6635 109.773C49.759 108.511 51.4267 100.914 52.2207 101.485C52.298 101.515 52.361 101.572 52.3967 101.647C52.4323 101.721 52.438 101.806 52.4125 101.884C52.0191 103.196 51.698 104.528 51.4506 105.874C51.1842 107.217 51.0206 108.588 50.8129 109.938C50.7793 110.079 50.6936 110.203 50.5728 110.284C50.4519 110.366 50.3047 110.4 50.1602 110.379C50.0156 110.358 49.8842 110.284 49.7919 110.171C49.6995 110.059 49.6529 109.916 49.6613 109.771L49.6635 109.773Z" fill="#0D1338"/>
<path d="M101.824 109.805C101.635 107.594 100.07 100.914 99.2763 101.485C99.199 101.515 99.136 101.572 99.1003 101.647C99.0646 101.721 99.0589 101.806 99.0845 101.884C99.4778 103.196 99.799 104.528 100.046 105.874C100.313 107.217 100.473 108.588 100.679 109.94C100.709 110.08 100.791 110.204 100.908 110.288C101.026 110.371 101.17 110.408 101.314 110.391C101.457 110.374 101.589 110.305 101.683 110.196C101.777 110.088 101.828 109.948 101.824 109.805Z" fill="#0D1338"/>
<path d="M127.681 62.4727C127.681 62.4727 127.66 62.4979 127.639 62.5216C126.558 63.6973 125.158 64.5374 123.608 64.9408C124.337 65.5675 125.229 65.9782 126.182 66.1262C124.49 69.4436 122.483 72.5931 120.189 75.5318C119.36 76.5854 118.473 77.5934 117.534 78.5512C117.272 78.8181 117.007 79.0786 116.737 79.3326C116.123 79.9078 115.503 80.463 114.876 80.9984C112.786 82.7809 110.559 84.3995 108.217 85.8395C108.105 85.9114 107.995 85.9761 107.885 86.0415C104.059 88.3438 99.9751 90.1928 95.7159 91.5505C89.3085 93.5876 82.6255 94.6412 75.898 94.6749C69.1692 94.6414 62.485 93.5878 56.0764 91.5505C51.8179 90.1927 47.7343 88.3438 43.9092 86.0415C43.8252 85.9926 43.7413 85.9416 43.6595 85.8905C41.2871 84.4392 39.0335 82.8046 36.9194 81.002C36.2921 80.4661 35.6701 79.9102 35.0534 79.3341C34.7711 79.0652 34.4903 78.7913 34.2174 78.5131C33.729 78.0165 33.2574 77.5054 32.8023 76.9796C32.452 76.5785 32.1118 76.1711 31.7818 75.7575C29.4343 72.7831 27.3828 69.5896 25.6562 66.2219C25.6258 66.1593 25.6091 66.127 25.6091 66.127C25.664 66.1214 25.7187 66.113 25.7727 66.1018C26.6308 65.9366 27.4331 65.5593 28.1055 65.0047C28.1309 64.9839 28.1569 64.9631 28.1779 64.9422C26.628 64.5391 25.2288 63.6989 24.1492 62.5231C24.128 62.5001 24.114 62.4838 24.1072 62.4742H24.168C25.3936 62.5056 26.6085 62.2406 27.7082 61.7021C27.7921 61.6582 27.8667 61.6136 27.9325 61.5748C28.0174 61.5254 28.0993 61.4711 28.1779 61.4123C28.1707 61.3656 28.1663 61.3196 28.1591 61.2686C28.094 60.7998 28.0397 60.3268 27.9912 59.8487C27.9236 59.16 27.8729 58.4627 27.8392 57.7567C27.7354 55.5001 27.7908 53.2392 28.0049 50.9903C28.3548 47.4107 29.0105 43.8671 29.965 40.3979C32.2188 32.1827 36.6226 24.7067 42.7288 18.7302C48.8349 12.7537 56.4255 8.48969 64.7289 6.37182C65.2775 6.22804 65.8334 6.10079 66.3893 5.97714C67.2067 5.79837 68.0326 5.64069 68.8669 5.50409C66.9538 3.24024 61.1134 2.8851 60.9875 2.72047C62.1666 2.70178 68.337 3.01738 72.8905 5.00732C72.9492 5.03249 73.01 5.06268 73.0679 5.09287C73.2452 5.05837 73.6541 4.9836 74.0508 4.92321H74.0674C74.3426 4.87398 74.6217 4.84992 74.9013 4.85132C74.8111 4.28531 74.5636 3.75556 74.1866 3.32179C73.8096 2.88801 73.3181 2.56745 72.7675 2.39624C72.8891 2.42428 79.2362 3.85779 80.1359 5.12379C81.9039 5.31325 83.6603 5.59812 85.3972 5.97714C85.9553 6.10007 86.509 6.23019 87.062 6.37182C95.3649 8.49003 102.955 12.7542 109.061 18.7307C115.167 24.7072 119.57 32.1829 121.824 40.3979C122.777 43.8676 123.432 47.4113 123.783 50.991C123.997 53.2399 124.053 55.5009 123.949 57.7574C123.914 58.4624 123.862 59.1598 123.795 59.8494C123.746 60.3287 123.691 60.802 123.629 61.2693C123.622 61.3182 123.615 61.3642 123.608 61.4131C123.657 61.4505 123.724 61.4965 123.811 61.5497C123.872 61.587 123.942 61.6287 124.021 61.6726C124.447 61.9006 124.898 62.0765 125.366 62.1967C126.102 62.3845 126.86 62.478 127.62 62.4749L127.681 62.4727Z" fill="white"/>
<path opacity="0.49" d="M127.12 62.633C127.12 62.633 127.099 62.656 127.081 62.6797C125.705 63.6806 124.147 64.4054 122.492 64.8135C123.47 65.5207 124.576 66.0349 125.749 66.3282C123.903 69.4646 121.853 72.4779 119.612 75.3491C118.829 76.3376 115.044 79.9092 114.448 80.4174C112.388 82.173 107.624 84.8409 107.519 84.9013C103.966 87.0227 100.29 88.9336 96.5099 90.6238C94.8726 91.3779 83.2706 95.0811 79.0038 93.787C97.8735 88.0623 102.719 66.9939 102.719 46.3799C102.719 42.5596 109.089 44.2066 108.203 40.6595C110.076 36.1548 104.845 22.755 99.9682 17.7723C94.8291 12.5185 82.5461 6.28838 81.7007 5.74561C83.2164 5.92677 92.0251 8.74706 94.3978 9.80026C106.117 15.0052 116.976 27.3201 120.79 41.4482C121.699 44.7506 122.323 48.124 122.656 51.5316C122.861 53.6724 122.914 55.8249 122.815 57.973C122.78 58.6459 122.733 59.3088 122.67 59.9659C122.626 60.4202 122.571 60.8731 122.511 61.3181C122.504 61.3649 122.5 61.4087 122.492 61.4526C122.539 61.4871 122.602 61.5316 122.686 61.5827C122.742 61.6172 122.81 61.6546 122.885 61.7013C123.291 61.9175 123.721 62.0849 124.167 62.2002C125.115 62.4365 126.085 62.5809 127.062 62.6316H127.12V62.633Z" fill="#C5EFFF"/>
<path d="M81.3525 61.4582C81.1701 62.7523 79.5003 64.8637 77.2992 64.5574C75.0981 64.2512 73.2459 62.1915 73.4268 60.8946C73.6078 59.5976 75.2668 59.7975 77.6025 59.8018C79.8 59.8018 81.5378 60.1613 81.3533 61.4604L81.3525 61.4582Z" fill="black"/>
<path d="M85.1634 67.9349C84.9345 68.0302 84.7148 68.1459 84.507 68.2807C84.5475 68.9475 84.52 69.6166 84.4252 70.2779C83.7737 74.8588 80.1547 78.1435 76.3265 77.6108C72.4982 77.078 70.161 73.2915 70.5114 68.9586C70.2098 68.6408 69.8648 68.3666 69.4864 68.1441C68.8213 67.8306 68.3029 67.2753 68.0382 66.593C67.7735 65.9107 67.7828 65.1534 68.0642 64.4777C68.1671 64.1479 68.3276 63.8386 68.5383 63.5639C68.7554 63.2599 69.1036 63.4805 69.0102 63.8285C69.01 63.8376 69.0075 63.8465 69.0029 63.8544C68.3819 66.234 69.3207 67.2268 70.7452 68.2397C71.8318 68.8526 73.0872 69.1046 74.3282 68.959C75.5692 68.8134 76.7309 68.2778 77.6438 67.4302C78.4603 68.0336 79.421 68.4155 80.4312 68.5382C81.4414 68.661 82.4664 68.5205 83.4053 68.1305C85.2062 67.2117 86.5372 66.4374 86.1934 63.7451V63.7192C86.1464 63.3641 86.5206 63.188 86.7001 63.5172C86.8727 63.818 86.9919 64.1461 87.0526 64.487C87.2431 65.1922 87.1541 65.943 86.804 66.5849C86.4539 67.2269 85.8694 67.711 85.1707 67.9378L85.1634 67.9349Z" fill="black"/>
<path d="M63.8538 59.9951C63.0901 65.3998 60.2347 72.906 48.9165 70.5933C42.0345 69.1878 40.1801 62.6328 41.7211 57.3926C43.9888 49.6845 49.8155 47.3746 55.2563 48.1352C60.6972 48.8958 64.6195 54.5903 63.8538 59.9951Z" fill="black"/>
<path d="M52.896 59.9807C53.9329 59.9807 54.7736 59.1458 54.7736 58.1158C54.7736 57.0859 53.9329 56.251 52.896 56.251C51.859 56.251 51.0184 57.0859 51.0184 58.1158C51.0184 59.1458 51.859 59.9807 52.896 59.9807Z" fill="white"/>
<path d="M56.5114 65.6176C57.4916 65.6176 58.2862 64.8284 58.2862 63.8548C58.2862 62.8813 57.4916 62.092 56.5114 62.092C55.5312 62.092 54.7366 62.8813 54.7366 63.8548C54.7366 64.8284 55.5312 65.6176 56.5114 65.6176Z" fill="white"/>
<path d="M59.0614 42.6888C58.7668 43.5148 57.4032 42.0813 51.0184 43.2639C46.7661 44.0547 44.0937 47.2604 43.1289 46.0777C42.7084 45.563 46.0574 42.9397 50.2729 42.0231C54.2597 41.1553 59.3741 41.8168 59.0607 42.6888H59.0614Z" fill="black"/>
<path d="M82.4079 72.6574C82.3637 73.1606 82.1828 73.6423 81.8846 74.0514C81.2049 75.2203 77.6923 77.1039 76.5458 76.5079C75.3877 75.9069 75.1467 74.5568 75.5556 73.3066C75.8297 72.3229 76.3302 71.416 77.0177 70.6574C77.3299 70.2651 77.736 69.9567 78.199 69.7602C78.662 69.5637 79.1671 69.4853 79.6683 69.5323C80.0548 69.5588 80.4323 69.6606 80.7791 69.832C81.126 70.0034 81.4355 70.2409 81.6899 70.5312C81.9443 70.8214 82.1387 71.1585 82.2619 71.5233C82.3851 71.8882 82.4347 72.2736 82.4079 72.6574Z" fill="#CE111F"/>
<path d="M90.6897 55.4216C89.9051 60.9572 90.5825 69.1528 102.387 70.0536C109.566 70.5985 113.258 64.6617 113.231 59.0708C113.189 50.8407 108.109 46.9305 102.53 46.1505C96.9506 45.3705 91.4721 49.8824 90.6868 55.4245L90.6897 55.4216Z" fill="black"/>
<path d="M99.0526 58.1427C100.116 58.1427 100.977 57.2869 100.977 56.2312C100.977 55.1754 100.116 54.3196 99.0526 54.3196C97.9897 54.3196 97.128 55.1754 97.128 56.2312C97.128 57.2869 97.9897 58.1427 99.0526 58.1427Z" fill="white"/>
<path d="M96.8262 63.0874C97.8295 63.0874 98.6429 62.2796 98.6429 61.283C98.6429 60.2864 97.8295 59.4785 96.8262 59.4785C95.8228 59.4785 95.0094 60.2864 95.0094 61.283C95.0094 62.2796 95.8228 63.0874 96.8262 63.0874Z" fill="white"/>
<path d="M109.917 43.86C109.363 44.5444 108.555 42.7399 102.135 41.7679C97.859 41.1209 94.2719 43.2661 93.7514 41.8326C93.5271 41.2065 97.5601 39.8283 101.844 40.3503C105.896 40.8398 110.503 43.1411 109.917 43.86Z" fill="black"/>
<path d="M74.3772 85.0694C75.3584 85.5348 76.4315 85.7777 77.5188 85.7806C78.6061 85.7834 79.6805 85.5462 80.6642 85.0859C80.6919 85.0751 80.7226 85.0744 80.7508 85.0839C80.779 85.0934 80.8029 85.1125 80.8182 85.1378C80.8336 85.1632 80.8394 85.1931 80.8347 85.2223C80.8299 85.2515 80.8149 85.2781 80.7923 85.2973C79.829 85.9558 78.6865 86.3073 77.5171 86.3048C76.3477 86.3024 75.2067 85.9461 74.2462 85.2836C74.2334 85.2734 74.2229 85.2608 74.2151 85.2464C74.2073 85.2321 74.2025 85.2163 74.201 85.2001C74.1994 85.1839 74.2012 85.1676 74.2061 85.152C74.211 85.1365 74.2189 85.1221 74.2295 85.1096C74.2468 85.0894 74.2702 85.0751 74.2962 85.0689C74.3222 85.0627 74.3496 85.0649 74.3743 85.0752L74.3772 85.0694Z" fill="#0D1338"/>
<path d="M92.1069 98.022H58.6503V126.731H92.1069V98.022Z" fill="#B18964"/>
<path d="M92.1069 127.309H58.651C58.4974 127.309 58.3502 127.248 58.2416 127.14C58.133 127.033 58.072 126.886 58.072 126.734V98.0241C58.072 97.8716 58.133 97.7253 58.2416 97.6174C58.3502 97.5096 58.4974 97.449 58.651 97.449H92.1077C92.2612 97.449 92.4085 97.5096 92.5171 97.6174C92.6257 97.7253 92.6867 97.8716 92.6867 98.0241V126.733C92.6868 126.809 92.6719 126.884 92.6428 126.954C92.6137 127.023 92.571 127.087 92.5171 127.14C92.4632 127.194 92.3993 127.236 92.3289 127.265C92.2585 127.294 92.1831 127.309 92.1069 127.309ZM59.2322 126.151H91.5235V98.5992H59.2322V126.151Z" fill="black"/>
<path d="M55.2267 132.138L58.6503 126.731V98.0225L55.2267 106.858V132.138Z" fill="#B18964"/>
<path d="M55.2259 132.716C55.1713 132.716 55.1169 132.708 55.0645 132.693C54.9432 132.658 54.8365 132.585 54.7607 132.484C54.6848 132.384 54.6439 132.262 54.644 132.136V106.855C54.6443 106.784 54.6579 106.713 54.6838 106.647L58.1074 97.8112C58.153 97.6816 58.2437 97.5723 58.3633 97.5034C58.4828 97.4344 58.6233 97.4102 58.7592 97.4351C58.8952 97.46 59.0177 97.5324 59.1046 97.6393C59.1915 97.7461 59.237 97.8803 59.2329 98.0175V126.726C59.233 126.836 59.2022 126.942 59.1439 127.035L55.7203 132.442C55.6682 132.525 55.5956 132.594 55.5094 132.641C55.4231 132.689 55.326 132.714 55.2274 132.714L55.2259 132.716ZM55.805 106.964V130.13L58.0633 126.563V101.135L55.805 106.964Z" fill="#0D1338"/>
<path d="M95.5313 132.139L92.1077 126.732V98.0227L95.5313 106.858V132.139Z" fill="#B18964"/>
<path d="M95.5313 132.716C95.4326 132.716 95.3355 132.691 95.2493 132.644C95.163 132.596 95.0904 132.527 95.0384 132.444L91.6147 127.037C91.5565 126.945 91.5257 126.838 91.5257 126.729V98.0197C91.5216 97.8825 91.5672 97.7483 91.654 97.6415C91.7409 97.5346 91.8635 97.4622 91.9994 97.4373C92.1354 97.4124 92.2758 97.4366 92.3954 97.5056C92.5149 97.5745 92.6057 97.6838 92.6512 97.8134L96.0748 106.649C96.1008 106.715 96.1143 106.786 96.1147 106.857V132.139C96.1143 132.264 96.0732 132.386 95.9974 132.486C95.9216 132.586 95.8152 132.66 95.6941 132.695C95.6417 132.711 95.5874 132.718 95.5327 132.718L95.5313 132.716ZM92.6889 126.562L94.9471 130.129V106.964L92.6925 101.132L92.6889 126.562Z" fill="black"/>
<path d="M72.7783 116.089L72.1805 116.407C70.9299 117.068 69.4658 117.21 68.1103 116.8C66.7548 116.389 65.6189 115.461 64.9525 114.219L52.115 90.2972C51.4493 89.055 51.3073 87.6011 51.7203 86.2549C52.1333 84.9088 53.0675 83.7805 54.3176 83.1182L54.9154 82.8004C56.166 82.1386 57.6301 81.9972 58.9856 82.4075C60.341 82.8177 61.4769 83.746 62.1434 84.9881L74.6863 108.362L74.9809 108.909C75.3109 109.524 75.5158 110.198 75.5837 110.891C75.6517 111.585 75.5814 112.285 75.3768 112.952C75.1723 113.619 74.8375 114.239 74.3917 114.777C73.9458 115.315 73.3976 115.761 72.7783 116.089Z" fill="#CC8B1F"/>
<g opacity="0.4">
<path d="M74.4843 113.159C74.4191 112.457 74.2126 111.775 73.8771 111.153L61.0396 87.231C60.3731 85.989 59.2372 85.0607 57.8817 84.6505C56.5262 84.2402 55.0622 84.3816 53.8116 85.0434L53.2138 85.3612C52.6015 85.685 52.0588 86.1246 51.6163 86.6552C51.7825 85.9072 52.1102 85.204 52.5767 84.5941C53.0432 83.9842 53.6374 83.4821 54.3183 83.1225L54.9161 82.8047C56.1666 82.1428 57.6306 82.0014 58.9861 82.4115C60.3416 82.8216 61.4775 83.7497 62.1441 84.9916L74.687 108.366C75.0343 109.125 75.1967 109.955 75.161 110.788C75.1253 111.622 74.8925 112.435 74.4814 113.162L74.4843 113.159Z" fill="white"/>
</g>
<path d="M69.6804 117.608C68.6045 117.609 67.5486 117.319 66.6255 116.77C65.7025 116.221 64.947 115.433 64.4401 114.491L51.6025 90.5676C51.2365 89.8854 51.0093 89.1383 50.934 88.3689C50.8586 87.5995 50.9366 86.8228 51.1634 86.0834C51.3903 85.3439 51.7616 84.656 52.256 84.0591C52.7505 83.4621 53.3586 82.9678 54.0454 82.6042L54.6433 82.2864C55.3301 81.9229 56.0823 81.6972 56.857 81.6224C57.6316 81.5475 58.4135 81.625 59.158 81.8503C59.9025 82.0756 60.5951 82.4443 61.1961 82.9355C61.7971 83.4266 62.2949 84.0305 62.6609 84.7128L75.4977 108.636C75.8637 109.318 76.0909 110.065 76.1663 110.835C76.2416 111.604 76.1636 112.381 75.9368 113.12C75.71 113.86 75.3387 114.547 74.8442 115.144C74.3497 115.741 73.7417 116.236 73.0548 116.599L72.457 116.917C71.6027 117.371 70.649 117.608 69.6804 117.608ZM57.4241 82.7523C56.6448 82.7528 55.8776 82.945 55.1912 83.3116L54.5933 83.6294C53.479 84.2196 52.6464 85.2252 52.2786 86.4251C51.9107 87.625 52.0378 88.9208 52.6318 90.0277L65.4693 113.949C66.0644 115.055 67.0769 115.882 68.2846 116.247C69.4923 116.612 70.7966 116.487 71.9112 115.898L72.5091 115.58C73.6234 114.99 74.456 113.984 74.8239 112.784C75.1917 111.584 75.0646 110.288 74.4706 109.182L61.6331 85.2599C61.226 84.5028 60.6195 83.8697 59.8782 83.4285C59.137 82.9872 58.289 82.7542 57.4249 82.7544L57.4241 82.7523Z" fill="black"/>
<path d="M57.6234 86.2375L55.6357 89.4043C55.3258 89.8979 55.4775 90.5476 55.9745 90.8553C56.4715 91.163 57.1255 91.0123 57.4353 90.5187L59.4231 87.3518C59.7329 86.8582 59.5812 86.2086 59.0842 85.9009C58.5872 85.5932 57.9332 85.7439 57.6234 86.2375Z" fill="#EAD67D"/>
<path d="M59.8599 90.405L57.8722 93.5718C57.5624 94.0654 57.7141 94.715 58.2111 95.0228C58.7081 95.3305 59.3621 95.1798 59.6719 94.6862L61.6596 91.5193C61.9694 91.0257 61.8177 90.3761 61.3208 90.0684C60.8238 89.7607 60.1698 89.9113 59.8599 90.405Z" fill="#EAD67D"/>
<path d="M62.0972 94.5724L60.1095 97.7393C59.7997 98.2329 59.9514 98.8825 60.4484 99.1902C60.9453 99.498 61.5994 99.3473 61.9092 98.8537L63.8969 95.6868C64.2067 95.1932 64.055 94.5436 63.558 94.2359C63.0611 93.9281 62.407 94.0788 62.0972 94.5724Z" fill="#EAD67D"/>
<path d="M64.3323 98.7406L62.3446 101.908C62.0348 102.401 62.1865 103.051 62.6835 103.358C63.1804 103.666 63.8345 103.515 64.1443 103.022L66.132 99.855C66.4418 99.3614 66.2901 98.7118 65.7931 98.4041C65.2962 98.0964 64.6421 98.247 64.3323 98.7406Z" fill="#EAD67D"/>
<path d="M82.7495 111.1C78.7396 111.16 78.6629 106.405 79.0458 103.128C78.1656 100.407 78.6115 96.8582 78.901 95.5986C77.4136 90.6719 80.1648 89.3592 81.988 89.2967C83.812 89.2341 86.1051 90.2269 85.4935 95.2579C85.9198 97.7772 85.9904 100.343 85.7034 102.882C86.2361 105.248 86.9881 110.972 82.7495 111.098V111.1Z" fill="#9C3202"/>
<g opacity="0.35">
<path d="M79.3309 96.874C80.5334 97.139 81.701 97.5414 82.8103 98.0731C83.17 98.2686 83.5704 98.3785 83.9801 98.3942C84.3898 98.4099 84.7975 98.331 85.1713 98.1637C85.463 98.081 85.7236 97.9145 85.9202 97.6849C86.1167 97.4554 86.2405 97.1732 86.2759 96.874C86.1448 100.75 85.015 102.177 82.9015 101.583C81.2842 101.045 79.9328 99.9176 79.1203 98.4283C79.0182 98.1727 78.9839 97.8954 79.0207 97.6229C79.0574 97.3503 79.164 97.0917 79.3302 96.8718L79.3309 96.874Z" fill="#0D1338"/>
</g>
<g opacity="0.4">
<path d="M85.5651 94.513C85.3248 91.5604 83.6173 90.8365 82.1436 90.8365C82.0901 90.8365 82.0387 90.8365 81.9873 90.8365C81.1347 90.8228 80.3076 91.125 79.6673 91.6842C79.0269 92.2434 78.6193 93.0194 78.5239 93.861C78.1084 90.3512 80.3992 89.3491 81.9873 89.2937C82.0408 89.2937 82.0922 89.2937 82.1458 89.2937C83.846 89.2937 85.8589 90.2606 85.5651 94.5101V94.513Z" fill="white"/>
</g>
<path d="M82.6742 111.679C82.124 111.702 81.5755 111.606 81.0665 111.398C80.5575 111.189 80.1004 110.873 79.7269 110.471C78.4913 109.111 78.0621 106.661 78.4515 103.185C77.8318 100.707 77.7791 98.1222 78.2973 95.6209C77.6459 93.3758 77.7719 91.6058 78.673 90.3578C79.0615 89.8557 79.5593 89.4474 80.1291 89.1635C80.6989 88.8795 81.326 88.7272 81.9634 88.718C82.5199 88.6747 83.0791 88.7548 83.6005 88.9526C84.1219 89.1505 84.5924 89.461 84.9781 89.8618C85.9914 90.961 86.3627 92.7683 86.0783 95.2363C86.4936 97.7555 86.5642 100.319 86.2882 102.857C86.6458 104.492 87.2386 108.275 85.6368 110.326C85.2949 110.755 84.8579 111.101 84.3597 111.336C83.8614 111.571 83.3154 111.689 82.764 111.68H82.6728L82.6742 111.679ZM82.1393 89.8725H82.004C81.5446 89.8755 81.0918 89.9811 80.6791 90.1814C80.2664 90.3818 79.9043 90.6718 79.6197 91.03C78.9307 91.9833 78.8749 93.5052 79.4562 95.4304C79.4848 95.5252 79.4881 95.6259 79.4656 95.7223C79.213 96.8359 78.7418 100.306 79.5966 102.947C79.6218 103.026 79.6297 103.109 79.6197 103.191C79.2506 106.341 79.585 108.589 80.5867 109.688C80.8592 109.976 81.1932 110.2 81.5642 110.343C81.9352 110.487 82.3337 110.546 82.7307 110.516C83.1095 110.528 83.486 110.452 83.8301 110.294C84.1742 110.136 84.4765 109.901 84.7132 109.607C86.0841 107.855 85.3762 104.109 85.1287 103.005C85.1139 102.941 85.1107 102.875 85.1193 102.81C85.4002 100.332 85.3317 97.8262 84.9159 95.3664C84.9041 95.3068 84.9017 95.2457 84.9086 95.1853C85.1677 93.0515 84.8949 91.4807 84.1189 90.641C83.8611 90.382 83.5515 90.1794 83.21 90.0464C82.8686 89.9135 82.5028 89.853 82.1364 89.8689L82.1393 89.8725Z" fill="black"/>
<path d="M81.9189 87.0055L81.9181 87.0055C81.1589 87.0244 80.5588 87.6511 80.5779 88.4053L80.5779 88.406C80.597 89.1602 81.228 89.7561 81.9873 89.7372L81.988 89.7372C82.7473 89.7182 83.3473 89.0915 83.3282 88.3373L83.3282 88.3366C83.3091 87.5825 82.6781 86.9865 81.9189 87.0055Z" fill="#9C3202"/>
<g opacity="0.4">
<path d="M81.9189 87.0055L81.9181 87.0055C81.1589 87.0244 80.5588 87.6511 80.5779 88.4053L80.5779 88.406C80.597 89.1602 81.228 89.7561 81.9873 89.7372L81.988 89.7372C82.7473 89.7182 83.3473 89.0915 83.3282 88.3373L83.3282 88.3366C83.3091 87.5825 82.6781 86.9865 81.9189 87.0055Z" fill="white"/>
</g>
<path d="M81.9577 90.3145C81.4386 90.321 80.9382 90.1224 80.5665 89.7624C80.1949 89.4025 79.9824 88.9106 79.9759 88.395C79.9693 87.8795 80.1693 87.3824 80.5317 87.0133C80.8941 86.6441 81.3893 86.4332 81.9084 86.4267H81.9577C82.4768 86.4202 82.9771 86.6187 83.3488 86.9787C83.7205 87.3387 83.9329 87.8306 83.9395 88.3461C83.946 88.8617 83.746 89.3587 83.3836 89.7278C83.0212 90.097 82.526 90.308 82.0069 90.3145H81.9577ZM81.9577 87.5776H81.9367C81.7389 87.5979 81.5559 87.6909 81.4237 87.8384C81.2914 87.9859 81.2196 88.1772 81.2222 88.3747C81.2248 88.5722 81.3018 88.7615 81.4379 88.9055C81.574 89.0495 81.7594 89.1377 81.9577 89.1528H81.9787C82.0831 89.1505 82.1861 89.1276 82.2815 89.0854C82.3769 89.0432 82.463 88.9825 82.5346 88.9069C82.607 88.8322 82.6635 88.7439 82.7008 88.647C82.7381 88.5502 82.7554 88.4469 82.7517 88.3433C82.7457 88.1375 82.6591 87.9423 82.5104 87.7989C82.3618 87.6555 82.1627 87.5754 81.9555 87.5755L81.9577 87.5776Z" fill="black"/>
<path d="M82.7488 111.333C82.6884 111.333 82.6303 111.309 82.5867 111.268C82.5431 111.226 82.5174 111.17 82.515 111.11L81.7586 89.7465C81.7576 89.7162 81.7625 89.686 81.7732 89.6576C81.7839 89.6292 81.8002 89.6032 81.821 89.581C81.8418 89.5589 81.8669 89.541 81.8946 89.5284C81.9224 89.5159 81.9525 89.5089 81.983 89.5079C82.0444 89.5065 82.1039 89.529 82.1488 89.5707C82.1938 89.6123 82.2205 89.6698 82.2233 89.7307L82.9826 111.092C82.9836 111.123 82.9787 111.153 82.9679 111.181C82.9572 111.21 82.941 111.236 82.9202 111.258C82.8994 111.28 82.8743 111.298 82.8465 111.311C82.8187 111.323 82.7887 111.33 82.7582 111.331H82.7488V111.333Z" fill="black"/>
<path d="M81.5184 95.9298C80.1431 95.9298 78.98 95.8392 78.8815 95.8299C78.8199 95.8247 78.7629 95.7953 78.723 95.7483C78.6832 95.7013 78.6638 95.6406 78.6691 95.5794C78.6743 95.5181 78.7039 95.4615 78.7512 95.422C78.7985 95.3824 78.8597 95.3631 78.9213 95.3683C78.9705 95.3734 83.744 95.7487 85.4045 94.9859C85.4322 94.9732 85.4622 94.9661 85.4927 94.965C85.5232 94.9639 85.5537 94.9687 85.5823 94.9793C85.611 94.9898 85.6372 95.0059 85.6596 95.0265C85.682 95.0471 85.7001 95.0719 85.7128 95.0995C85.7256 95.1271 85.7327 95.1568 85.7339 95.1871C85.735 95.2174 85.7301 95.2477 85.7195 95.2761C85.7089 95.3045 85.6927 95.3307 85.672 95.3529C85.6512 95.3751 85.6262 95.3931 85.5984 95.4057C84.2809 95.8213 82.8989 95.9981 81.5184 95.9277V95.9298Z" fill="black"/>
<path d="M81.5625 103.598C80.1872 103.598 79.0241 103.507 78.9256 103.498C78.864 103.493 78.807 103.463 78.7672 103.416C78.7273 103.369 78.7079 103.309 78.7132 103.247C78.7185 103.186 78.748 103.129 78.7953 103.09C78.8426 103.05 78.9038 103.031 78.9654 103.036C79.0147 103.041 83.7882 103.417 85.4486 102.654C85.5047 102.628 85.5686 102.626 85.6264 102.647C85.6843 102.669 85.7312 102.712 85.7569 102.767C85.7827 102.823 85.7851 102.887 85.7636 102.944C85.7422 103.002 85.6986 103.048 85.6426 103.074C84.325 103.489 82.943 103.666 81.5625 103.596V103.598Z" fill="#0D1338"/>
<path d="M77.8255 104.074L73.7924 106.375V93.3852L77.8255 91.0847V104.074Z" fill="#3996D1"/>
<path d="M73.7924 106.95C73.6905 106.95 73.5906 106.923 73.5029 106.871C73.4144 106.82 73.341 106.746 73.2902 106.658C73.2394 106.57 73.2129 106.47 73.2133 106.368V93.383C73.2124 93.2812 73.2387 93.1809 73.2896 93.0925C73.3405 93.0041 73.4141 92.9307 73.5029 92.8798L77.5359 90.5793C77.6242 90.5296 77.724 90.5034 77.8255 90.5034C77.9269 90.5034 78.0267 90.5296 78.115 90.5793C78.2038 90.6302 78.2774 90.7036 78.3282 90.792C78.3791 90.8804 78.4054 90.9807 78.4045 91.0825V104.07C78.4054 104.171 78.3791 104.272 78.3282 104.36C78.2774 104.449 78.2038 104.522 78.115 104.573L74.0819 106.873C73.9938 106.924 73.894 106.951 73.7924 106.95ZM74.3714 93.7224V105.374L77.2392 103.738V92.0868L74.3714 93.7224Z" fill="black"/>
<path d="M73.7902 93.3853H66.2098V106.372H73.7902V93.3853Z" fill="#3996D1"/>
<path d="M73.7924 106.95H66.2119C66.0583 106.95 65.9111 106.89 65.8025 106.782C65.6939 106.674 65.6329 106.528 65.6329 106.375V93.3859C65.6329 93.2334 65.6939 93.0871 65.8025 92.9792C65.9111 92.8714 66.0583 92.8108 66.2119 92.8108H73.7924C73.946 92.8108 74.0932 92.8714 74.2018 92.9792C74.3104 93.0871 74.3714 93.2334 74.3714 93.3859V106.373C74.3717 106.449 74.3569 106.524 74.328 106.594C74.299 106.664 74.2564 106.727 74.2026 106.781C74.1488 106.835 74.0849 106.877 74.0145 106.906C73.9441 106.935 73.8686 106.95 73.7924 106.95ZM66.7931 105.793H73.2075V93.9632H66.7902L66.7931 105.793Z" fill="black"/>
<path d="M72.5546 94.6567H67.4474V105.1H72.5546V94.6567Z" fill="white"/>
<path d="M76.8845 103.336L74.9505 104.366V94.4901L76.7369 93.6108L76.8845 103.336Z" fill="white"/>
<path d="M75.6519 89.0415H68.492L66.2105 93.3859H73.7946L75.6519 89.0415Z" fill="#3996D1"/>
<path d="M73.7931 93.966H66.2126C66.1125 93.9659 66.014 93.9402 65.9267 93.8913C65.8394 93.8424 65.7663 93.772 65.7144 93.6869C65.6626 93.6018 65.6337 93.5048 65.6305 93.4053C65.6274 93.3059 65.6502 93.2073 65.6966 93.1191L67.978 88.7747C68.0274 88.6811 68.1015 88.6028 68.1925 88.548C68.2835 88.4933 68.3877 88.4643 68.4941 88.4641H75.654C75.7505 88.4634 75.8457 88.4867 75.9308 88.5318C76.016 88.577 76.0884 88.6425 76.1415 88.7225C76.1947 88.8025 76.2269 88.8944 76.2351 88.9899C76.2434 89.0854 76.2275 89.1815 76.1889 89.2693L74.3273 93.6137C74.2829 93.7186 74.2082 93.8081 74.1126 93.8708C74.017 93.9335 73.9048 93.9666 73.7902 93.966H73.7931ZM67.1724 92.8085H73.408L74.7739 89.6216H68.8466L67.1724 92.8085Z" fill="black"/>
<path d="M73.6882 90.1492H69.5082L68.1749 92.2764H72.6025L73.6882 90.1492Z" fill="white"/>
<path d="M75.6511 89.0415L77.8225 91.0875L73.7895 93.3881L75.6511 89.0415Z" fill="#3996D1"/>
<path d="M73.7924 93.9659C73.696 93.9661 73.6011 93.9425 73.5162 93.8973C73.4313 93.852 73.359 93.7866 73.3058 93.7069C73.2526 93.6271 73.2201 93.5354 73.2113 93.4401C73.2025 93.3448 73.2176 93.2488 73.2553 93.1607L75.117 88.8164C75.1541 88.7305 75.2115 88.6546 75.2843 88.5953C75.3571 88.536 75.4432 88.495 75.5353 88.4756C75.627 88.4561 75.722 88.4591 75.8123 88.4841C75.9025 88.5091 75.9854 88.5556 76.0536 88.6194L78.225 90.6654C78.2908 90.7277 78.3411 90.8044 78.3718 90.8894C78.4026 90.9744 78.4131 91.0653 78.4023 91.155C78.3914 91.2444 78.3596 91.33 78.3093 91.4049C78.259 91.4798 78.1917 91.542 78.1128 91.5863L74.0797 93.8869C73.9914 93.9365 73.8917 93.9628 73.7902 93.9631L73.7924 93.9659ZM75.8618 90.0342L75.0091 92.027L76.8584 90.9738L75.8618 90.0342Z" fill="black"/>
<path d="M75.6547 87.0645H68.4803V89.0407H75.6547V87.0645Z" fill="white"/>
<path d="M75.6518 89.618H68.4774C68.3239 89.618 68.1766 89.5574 68.068 89.4495C67.9594 89.3417 67.8984 89.1954 67.8984 89.0429V87.0666C67.8984 86.914 67.9594 86.7678 68.068 86.6599C68.1766 86.552 68.3239 86.4915 68.4774 86.4915H75.6518C75.8054 86.4915 75.9527 86.552 76.0613 86.6599C76.1699 86.7678 76.2309 86.914 76.2309 87.0666V89.0429C76.2309 89.1954 76.1699 89.3417 76.0613 89.4495C75.9527 89.5574 75.8054 89.618 75.6518 89.618ZM69.0616 88.4606H75.0692V87.6417H69.0616V88.4606Z" fill="black"/>
<path d="M65.6705 97.0433L63.9934 99.3841L59.7229 96.3683C59.4935 96.5493 59.2108 96.651 58.9179 96.6577C58.6249 96.6645 58.3378 96.576 58.1002 96.4057C58.9394 95.3258 59.3223 93.9639 59.1678 92.6084C59.3721 92.3374 59.6722 92.1532 60.0076 92.0929C60.3431 92.0327 60.689 92.1007 60.976 92.2835C61.263 92.4663 61.4697 92.7502 61.5545 93.0781C61.6393 93.406 61.596 93.7537 61.4333 94.0513L65.6705 97.0433Z" fill="white"/>
<path d="M63.9942 99.9615C63.8735 99.9617 63.7559 99.9245 63.6576 99.8551L59.7012 97.0599C59.3908 97.2012 59.0483 97.2587 58.7084 97.2265C58.3684 97.1943 58.043 97.0736 57.7651 96.8766C57.3494 96.5864 57.0664 96.1443 56.9783 95.6473C57.8805 94.7202 58.4797 93.5439 58.6973 92.2727C58.961 91.9181 59.3395 91.6643 59.7692 91.554C60.1989 91.4437 60.6538 91.4836 61.0575 91.6669C61.4611 91.8503 61.789 92.1659 61.986 92.561C62.1831 92.956 62.2374 93.4063 62.1398 93.8363L66.0093 96.5682C66.0715 96.6124 66.1244 96.6683 66.1649 96.7328C66.2054 96.7973 66.2327 96.8691 66.2453 96.9441C66.2578 97.019 66.2554 97.0957 66.2381 97.1697C66.2209 97.2438 66.1891 97.3137 66.1446 97.3756L64.4675 99.7156C64.4141 99.7911 64.3432 99.8528 64.2609 99.8955C64.1785 99.9383 64.0871 99.9609 63.9942 99.9615ZM59.7273 95.7918C59.8486 95.7914 59.967 95.8286 60.066 95.8982L63.8588 98.5797L64.8606 97.1836L61.1004 94.5236C60.982 94.4409 60.8991 94.3172 60.8681 94.1768C60.837 94.0364 60.86 93.8896 60.9325 93.7652C61.0226 93.5965 61.0457 93.4004 60.9972 93.2157C60.9486 93.0309 60.8319 92.8711 60.6703 92.7678C60.5086 92.6644 60.3137 92.6253 60.1243 92.6579C59.9349 92.6906 59.7648 92.7928 59.6477 92.9442C59.5652 93.0622 59.5196 93.2018 59.5167 93.3454C59.5137 93.489 59.5535 93.6303 59.631 93.7515C59.6913 93.8485 59.7214 93.9609 59.7176 94.0748C59.7139 94.1886 59.6764 94.2989 59.6099 94.3918C59.5434 94.4846 59.4508 94.5559 59.3437 94.5967C59.2366 94.6376 59.1198 94.6462 59.0078 94.6214C58.8672 94.5881 58.7198 94.5969 58.5843 94.6468C58.4487 94.6967 58.3311 94.7854 58.2464 94.9018C58.1909 94.9797 58.1518 95.0679 58.1313 95.1611C58.1108 95.2544 58.1093 95.3507 58.127 95.4445C58.1635 95.6436 58.2777 95.8204 58.4447 95.9363C58.5785 96.0331 58.7404 96.0842 58.9059 96.0817C59.0714 96.0792 59.2317 96.0234 59.3625 95.9226C59.4662 95.8387 59.5957 95.7928 59.7295 95.7925L59.7273 95.7918Z" fill="black"/>
<path d="M70.7806 111.424C70.7806 111.424 61.6027 104.011 61.7004 99.3417C61.755 98.6258 61.9876 97.9345 62.3773 97.3297C62.767 96.725 63.3017 96.2257 63.9334 95.8766C68.4029 93.5897 80.1873 98.2886 80.1873 98.2886L70.7777 111.424H70.7806Z" fill="#9C3202"/>
<g opacity="0.4">
<path d="M80.1756 98.0447L78.8446 99.9052C76.388 98.9915 67.0559 95.7441 63.1907 97.7226C62.5833 98.0504 62.0667 98.5221 61.6866 99.0957C61.7421 98.3803 61.975 97.6896 62.3646 97.0853C62.7543 96.481 63.2885 95.982 63.9196 95.6327C68.3913 93.3452 80.1756 98.0447 80.1756 98.0447Z" fill="white"/>
</g>
<path d="M70.7784 112.004C70.6446 112.004 70.515 111.958 70.4115 111.874C68.7778 110.523 67.2306 109.072 65.7791 107.529C62.6428 104.182 61.0743 101.419 61.1199 99.3295C61.1774 98.5093 61.4407 97.7164 61.8857 97.0232C62.3307 96.3299 62.9433 95.7583 63.6677 95.3604C68.3218 92.9779 79.9151 97.5545 80.4073 97.7493C80.4889 97.7817 80.562 97.8321 80.6211 97.8968C80.6801 97.9614 80.7236 98.0386 80.7482 98.1224C80.7725 98.2065 80.7776 98.295 80.763 98.3813C80.7485 98.4676 80.7148 98.5497 80.6642 98.6214L71.2547 111.757C71.2083 111.822 71.1492 111.876 71.081 111.917C71.0128 111.958 70.937 111.985 70.858 111.996C70.8317 112 70.805 112.001 70.7784 112V112.004ZM67.2542 95.8284C66.2056 95.779 65.1599 95.9727 64.1997 96.3942C63.6594 96.6937 63.2017 97.1209 62.8673 97.6381C62.5329 98.1552 62.3319 98.7463 62.2824 99.359C62.21 102.746 67.9201 108.273 70.6684 110.585L79.2767 98.5681C77.4099 97.8784 75.5089 97.2839 73.581 96.7867C71.5186 96.2159 69.3942 95.8951 67.2542 95.8312V95.8284Z" fill="black"/>
<path d="M78.6197 107.075C81.2193 103.447 82.0306 99.5893 80.4319 98.4593C78.8333 97.3293 75.4299 99.3544 72.8304 102.983C70.2308 106.611 69.4195 110.468 71.0181 111.598C72.6168 112.728 76.0202 110.703 78.6197 107.075Z" fill="#9B0404"/>
<path d="M72.0885 112.487C71.5862 112.498 71.0931 112.351 70.68 112.067C69.7065 111.381 69.3865 109.972 69.7788 108.108C70.8257 104.157 73.2866 100.72 76.7007 98.4418C78.3473 97.4626 79.7877 97.3009 80.7619 97.9896C81.7362 98.6783 82.0554 100.085 81.6631 101.949C80.6162 105.9 78.1554 109.337 74.7413 111.615C73.9508 112.135 73.0351 112.436 72.0885 112.487ZM79.3491 98.7251C78.617 98.7821 77.9122 99.0265 77.3036 99.4346C75.7238 100.451 74.3644 101.771 73.3053 103.317C70.7314 106.911 70.2131 110.315 71.3575 111.122C71.5771 111.265 71.8356 111.337 72.0979 111.328C73.5318 111.328 76.0065 109.716 78.1439 106.736C79.2674 105.235 80.078 103.526 80.5282 101.709C80.8177 100.343 80.6563 99.3296 80.0939 98.9306C79.8751 98.7862 79.616 98.714 79.3534 98.7243L79.3491 98.7251Z" fill="black"/>
<path d="M76.4838 106.318C77.0762 105.492 77.207 104.574 76.776 104.27C76.3449 103.965 75.5153 104.388 74.9229 105.215C74.3305 106.042 74.1997 106.959 74.6307 107.264C75.0618 107.568 75.8914 107.145 76.4838 106.318Z" fill="white"/>
<path d="M70.7712 104.772C70.9095 106.625 70.3063 108.457 69.0926 109.871C67.8789 111.284 66.1527 112.165 64.2891 112.321C62.4254 112.478 60.5747 111.898 59.1391 110.707C57.7034 109.517 56.7987 107.812 56.6214 105.962C56.3153 102.494 58.7769 99.7667 62.05 100.363C62.9143 100.515 63.8007 100.492 64.6557 100.295C65.3613 100.093 66.1042 100.055 66.827 100.184C67.5498 100.312 68.2331 100.604 68.8242 101.037C69.4153 101.47 69.8983 102.032 70.2359 102.679C70.5735 103.327 70.7566 104.043 70.7712 104.772Z" fill="#D81B05"/>
<g opacity="0.4">
<path d="M70.651 106.768C70.651 106.562 70.6438 106.355 70.6279 106.146C70.3478 102.75 67.6176 100.981 64.516 101.67C63.6607 101.865 62.7747 101.888 61.9103 101.737C59.267 101.257 57.1556 102.938 56.5975 105.425C56.5744 102.217 58.947 99.7976 62.0551 100.362C62.9193 100.515 63.8058 100.492 64.6608 100.294C65.3661 100.093 66.1085 100.055 66.8308 100.184C67.5531 100.313 68.2359 100.605 68.8265 101.038C69.4171 101.471 69.8997 102.032 70.2372 102.679C70.5746 103.327 70.7578 104.042 70.7726 104.771C70.8279 105.44 70.787 106.113 70.651 106.77V106.768Z" fill="white"/>
</g>
<path d="M63.6923 112.978C61.7726 112.973 59.9241 112.255 58.5089 110.967C57.0938 109.678 56.2139 107.912 56.0417 106.013C55.9298 105.09 56.035 104.154 56.349 103.279C56.663 102.403 57.1772 101.612 57.8512 100.967C58.4259 100.449 59.1155 100.072 59.8641 99.8677C60.6127 99.6634 61.3993 99.6371 62.16 99.7911C62.947 99.9299 63.7542 99.9086 64.5327 99.7286C65.3194 99.5089 66.1462 99.4705 66.9501 99.6163C67.754 99.7621 68.5137 100.088 69.1714 100.57C69.8291 101.052 70.3674 101.676 70.7453 102.396C71.1231 103.116 71.3305 103.911 71.3517 104.723C71.5157 106.739 70.8676 108.738 69.5498 110.28C68.2319 111.823 66.3518 112.783 64.3221 112.95C64.1093 112.967 63.8993 112.975 63.6916 112.975L63.6923 112.978ZM61.1699 100.859C60.2331 100.851 59.3281 101.196 58.6365 101.824C58.0965 102.349 57.6862 102.991 57.4378 103.7C57.1894 104.409 57.1097 105.166 57.2048 105.911C57.2771 106.758 57.5166 107.582 57.9096 108.337C58.3027 109.092 58.8417 109.763 59.4958 110.311C60.1498 110.859 60.9062 111.274 61.7217 111.532C62.5372 111.79 63.3958 111.886 64.2486 111.814C65.1013 111.742 65.9315 111.504 66.6917 111.114C67.4519 110.723 68.1273 110.188 68.6792 109.538C69.2311 108.889 69.6488 108.138 69.9084 107.328C70.168 106.518 70.2644 105.665 70.1921 104.818C70.169 104.176 70.0044 103.546 69.7099 102.974C69.4153 102.402 68.9981 101.901 68.4876 101.506C67.9551 101.139 67.3489 100.891 66.7108 100.779C66.0726 100.668 65.4177 100.695 64.7911 100.859C63.8598 101.072 62.8948 101.096 61.9537 100.931C61.6952 100.883 61.4328 100.859 61.1699 100.859Z" fill="black"/>
<path d="M63.8979 100.685L62.0486 101.404C61.4231 101.647 60.7555 101.765 60.0839 101.752C59.4123 101.739 58.7499 101.595 58.1346 101.327C57.5192 101.06 56.963 100.674 56.4977 100.193C56.0324 99.712 55.6672 99.1445 55.4229 98.523L57.2722 97.8041C57.8976 97.5607 58.5652 97.4422 59.2368 97.4553C59.9084 97.4684 60.5708 97.6129 61.1862 97.8804C61.8015 98.148 62.3578 98.5333 62.8231 99.0145C63.2884 99.4957 63.6536 100.063 63.8979 100.685Z" fill="#306112"/>
<g opacity="0.4">
<path d="M63.8979 100.685L63.6851 100.768C63.004 99.9199 62.0674 99.3106 61.0124 99.0292C59.9575 98.7479 58.8396 98.8093 57.8223 99.2045L56.185 99.84C55.8651 99.4414 55.6076 98.9972 55.4214 98.5222L57.2707 97.8033C57.8962 97.56 58.5638 97.4415 59.2354 97.4546C59.907 97.4677 60.5694 97.6121 61.1847 97.8796C61.8001 98.1472 62.3563 98.5326 62.8216 99.0137C63.2869 99.4949 63.6522 100.063 63.8965 100.684L63.8979 100.685Z" fill="white"/>
</g>
<path d="M60.1826 102.334C59.0371 102.331 57.9187 101.987 56.973 101.345C56.0272 100.702 55.2977 99.7928 54.8793 98.7336C54.851 98.6628 54.8372 98.5872 54.8386 98.5111C54.84 98.435 54.8566 98.3599 54.8875 98.2902C54.9183 98.2205 54.9628 98.1577 55.0183 98.1052C55.0738 98.0527 55.1392 98.0117 55.2108 97.9845L57.0601 97.2656C58.4674 96.7187 60.0358 96.7493 61.4203 97.3509C62.8049 97.9525 63.8921 99.0756 64.443 100.473C64.4712 100.544 64.4852 100.619 64.4839 100.695C64.4826 100.771 64.4662 100.846 64.4356 100.916C64.405 100.986 64.3607 101.049 64.3055 101.101C64.2502 101.154 64.185 101.195 64.1136 101.222L62.2643 101.941C61.6031 102.2 60.899 102.333 60.1884 102.333L60.1826 102.334ZM56.2104 98.8385C56.7411 99.7966 57.6046 100.53 58.6399 100.902C59.6752 101.274 60.8114 101.26 61.8365 100.861L63.109 100.367C62.5787 99.4083 61.7154 98.6742 60.6801 98.3015C59.6448 97.9288 58.5083 97.9432 57.4828 98.3418L56.2104 98.8385Z" fill="black"/>
<path d="M79.3193 108.409L81.0449 100.036C83.3885 99.8654 85.7439 99.9604 88.0658 100.319C92.5477 101.161 94.0865 103.554 94.0865 103.554L79.3165 108.409H79.3193Z" fill="#FFBA40"/>
<path opacity="0.4" d="M94.088 103.552L92.7591 103.99C91.2294 102.929 89.4807 102.22 87.6403 101.914C85.3573 101.548 83.0415 101.425 80.7322 101.547L81.0449 100.038C83.3884 99.8676 85.7438 99.9619 88.0659 100.319C92.5477 101.161 94.0865 103.554 94.0865 103.554L94.088 103.552Z" fill="white"/>
<path d="M79.3187 108.986C79.1761 108.986 79.0383 108.935 78.9307 108.842C78.8541 108.775 78.7967 108.689 78.7643 108.593C78.7319 108.497 78.7256 108.394 78.7461 108.295L80.4717 99.9213C80.4968 99.7984 80.5614 99.687 80.6558 99.6038C80.7502 99.5206 80.8692 99.47 80.995 99.4597C83.3911 99.2806 85.8 99.377 88.1737 99.7473C92.8467 100.627 94.5092 103.134 94.5773 103.238C94.6261 103.312 94.657 103.397 94.6676 103.485C94.6782 103.573 94.6682 103.662 94.6384 103.746C94.6085 103.829 94.5596 103.905 94.4955 103.966C94.4315 104.028 94.3539 104.074 94.2689 104.101L79.5018 108.954C79.4428 108.973 79.3813 108.983 79.3194 108.984L79.3187 108.986ZM81.5255 100.585L80.0895 107.546L93.0717 103.278C91.6375 102.003 89.8601 101.173 87.9573 100.887C85.8301 100.554 83.6726 100.453 81.5233 100.586L81.5255 100.585Z" fill="black"/>
<path d="M94.088 118.041L79.3223 122.896V108.409L94.088 103.552V118.041Z" fill="#EBA718"/>
<path d="M79.3193 123.476C79.1658 123.476 79.0185 123.416 78.9099 123.308C78.8013 123.2 78.7403 123.054 78.7403 122.901V108.411C78.7402 108.289 78.7787 108.17 78.8505 108.072C78.9222 107.973 79.0235 107.899 79.1398 107.861L93.9114 103.006C93.9988 102.977 94.0921 102.969 94.1833 102.983C94.2746 102.996 94.3611 103.032 94.4358 103.086C94.5106 103.139 94.5713 103.21 94.6129 103.292C94.6545 103.374 94.6758 103.464 94.675 103.556V118.044C94.6751 118.166 94.6365 118.285 94.5648 118.383C94.4931 118.482 94.3918 118.556 94.2754 118.594L79.5039 123.449C79.445 123.468 79.3835 123.478 79.3215 123.479L79.3193 123.476ZM79.8984 108.826V122.098L93.506 117.626V104.354L79.8984 108.826Z" fill="black"/>
<path d="M89.8537 111.86C90.8287 111.86 91.6191 110.992 91.6191 109.921C91.6191 108.85 90.8287 107.982 89.8537 107.982C88.8787 107.982 88.0883 108.85 88.0883 109.921C88.0883 110.992 88.8787 111.86 89.8537 111.86Z" fill="#9C5817"/>
<path d="M84.1826 118.524C84.9138 118.524 85.5065 117.873 85.5065 117.07C85.5065 116.267 84.9138 115.616 84.1826 115.616C83.4515 115.616 82.8588 116.267 82.8588 117.07C82.8588 117.873 83.4515 118.524 84.1826 118.524Z" fill="#9C5817"/>
<path d="M87.9052 103.915C88.6363 103.915 89.2291 103.557 89.2291 103.115C89.2291 102.673 88.6363 102.315 87.9052 102.315C87.1741 102.315 86.5814 102.673 86.5814 103.115C86.5814 103.557 87.1741 103.915 87.9052 103.915Z" fill="#9C5817"/>
<path d="M83.1765 104.876C83.8045 104.876 84.3136 104.569 84.3136 104.189C84.3136 103.81 83.8045 103.503 83.1765 103.503C82.5485 103.503 82.0394 103.81 82.0394 104.189C82.0394 104.569 82.5485 104.876 83.1765 104.876Z" fill="#9C5817"/>
<path d="M95.5305 106.857H55.2267V132.138H95.5305V106.857Z" fill="#B18964"/>
<g opacity="0.4">
<path d="M95.5305 106.857H55.2267V108.442H95.5305V106.857Z" fill="white"/>
</g>
<g opacity="0.35">
<path d="M95.5305 105.426H55.2267V107.011H95.5305V105.426Z" fill="#0D1338"/>
</g>
<g opacity="0.35">
<path d="M95.5305 129.742H55.2267V132.138H95.5305V129.742Z" fill="#0D1338"/>
</g>
<path d="M95.5305 132.715H55.2259C55.0724 132.715 54.9251 132.655 54.8165 132.547C54.7079 132.439 54.6469 132.293 54.6469 132.14V106.859C54.6469 106.706 54.7079 106.56 54.8165 106.452C54.9251 106.344 55.0724 106.284 55.2259 106.284H95.5298C95.6834 106.284 95.8307 106.344 95.9393 106.452C96.0479 106.56 96.1089 106.706 96.1089 106.859V132.14C96.1089 132.292 96.048 132.439 95.9395 132.546C95.8311 132.654 95.684 132.715 95.5305 132.715ZM55.8086 131.558H94.9472V107.435H55.8086V131.558Z" fill="black"/>
<path d="M113.42 108.841V108.855C112.368 113.326 109.658 117.24 105.83 119.817C105.732 119.881 105.634 119.947 105.534 120.011L105.475 120.049C105.386 120.107 105.295 120.162 105.204 120.216L105.113 120.272C105.036 120.318 104.959 120.364 104.882 120.408C104.845 120.431 104.81 120.452 104.77 120.473C104.698 120.517 104.62 120.559 104.543 120.603C104.509 120.622 104.471 120.643 104.439 120.661C104.352 120.71 104.265 120.756 104.179 120.805C104.163 120.812 104.149 120.822 104.135 120.828C104.051 120.872 103.969 120.917 103.883 120.958C103.841 120.981 103.796 121.002 103.755 121.023C103.654 121.074 103.551 121.125 103.451 121.174C103.332 121.232 103.213 121.288 103.089 121.344C102.966 121.4 102.856 121.45 102.737 121.501C102.727 121.505 102.718 121.508 102.709 121.513C102.594 121.564 102.478 121.612 102.36 121.661C102.352 121.665 102.343 121.668 102.334 121.67C102.22 121.719 102.106 121.765 101.988 121.809C101.984 121.809 101.979 121.814 101.975 121.814L101.594 121.958C101.466 122.006 101.339 122.052 101.209 122.097C101.079 122.142 100.95 122.188 100.819 122.229C100.557 122.318 100.293 122.399 100.023 122.477C97.2415 123.257 94.3624 123.637 91.4729 123.605H90.5385C88.4977 123.694 86.4578 123.406 84.5229 122.756C83.8162 122.48 83.1735 122.064 82.6337 121.533C82.325 121.221 82.0617 120.867 81.8513 120.482C81.331 119.463 81.087 118.326 81.1434 117.184C81.2534 113.686 83.6261 111.671 87.6577 111.648C88.7859 111.563 89.8383 111.441 90.8149 111.284C90.8359 111.284 90.857 111.277 90.8758 111.275C96.908 110.3 100.028 107.997 100.156 104.409C100.161 103.805 100.03 103.207 99.7714 102.66C99.7128 102.567 99.6614 102.465 99.6056 102.356C99.5386 102.194 99.4446 102.045 99.3277 101.915L99.1902 101.811L99.1764 101.641C99.1764 101.611 99.1503 101.576 99.167 101.551C100.391 99.7108 101.126 95.1522 101.547 92.2723C102.358 91.9222 103.156 91.5253 103.935 91.1335C103.935 91.117 104.664 90.7812 104.804 90.7021C107.174 91.7741 109.187 93.4948 110.608 95.6627C113.181 99.4995 114.311 104.798 113.42 108.841Z" fill="white"/>
<path d="M81.7189 120.485C81.9284 120.871 82.1918 121.224 82.5013 121.536C83.0415 122.066 83.6841 122.482 84.3904 122.759C86.3253 123.409 88.3652 123.697 90.406 123.608H91.2681C93.7486 117.845 92.2698 113.664 90.7404 111.275C90.7194 111.275 90.7006 111.282 90.6796 111.284C89.7035 111.439 88.651 111.561 87.5224 111.648C83.4937 111.671 81.1232 113.685 81.0081 117.184C80.9514 118.326 81.1954 119.463 81.716 120.482L81.7189 120.485Z" fill="black"/>
<path opacity="0.4" d="M91.9361 113.046C90.8292 113.174 89.6405 113.273 88.3699 113.343C84.5916 113.36 82.0598 114.47 81.147 116.451V116.307C81.2571 113.331 83.6297 111.615 87.6613 111.596C88.7895 111.522 89.8419 111.419 90.8186 111.288C90.8396 111.288 90.8605 111.28 90.8794 111.278C91.2947 111.828 91.6491 112.421 91.9361 113.046Z" fill="white"/>
<path d="M90.8034 124.124H90.3966C88.29 124.211 86.1855 123.91 84.1892 123.236C83.4185 122.932 82.7178 122.476 82.1293 121.895C81.7861 121.549 81.4937 121.157 81.2607 120.73C80.6979 119.632 80.4323 118.408 80.4898 117.177V117.17C80.4806 116.332 80.6512 115.503 80.9903 114.736C81.3294 113.969 81.8293 113.283 82.4564 112.723C83.8915 111.613 85.6794 111.05 87.4963 111.137C88.5987 111.051 89.6402 110.932 90.5928 110.777L90.9923 110.715L91.1747 110.998C92.8351 113.586 94.2806 117.91 91.7422 123.809L91.609 124.119H91.2355C91.0907 124.119 90.946 124.119 90.8012 124.119L90.8034 124.124ZM82.1741 120.242C82.3614 120.584 82.5955 120.899 82.8697 121.177C83.3602 121.66 83.9453 122.038 84.5888 122.288C86.4625 122.909 88.4349 123.184 90.4082 123.098H90.9221C93.0168 117.983 91.8985 114.2 90.4784 111.839C89.5743 111.976 88.5914 112.085 87.5593 112.164H87.5216C83.7578 112.187 81.6298 113.973 81.527 117.196C81.4746 118.248 81.6967 119.296 82.172 120.237L82.1741 120.242Z" fill="black"/>
<path opacity="0.49" d="M113.42 108.84V108.854C112.368 113.326 109.659 117.24 105.832 119.816C105.734 119.881 105.636 119.946 105.535 120.011L105.476 120.048C105.387 120.106 105.297 120.162 105.206 120.215L105.115 120.271C105.037 120.317 104.96 120.364 104.884 120.408C104.846 120.431 104.811 120.452 104.771 120.472C104.699 120.516 104.622 120.558 104.545 120.603C104.51 120.621 104.473 120.642 104.44 120.661C104.354 120.71 104.267 120.756 104.181 120.805C104.164 120.812 104.15 120.82 104.137 120.828C104.053 120.871 103.971 120.916 103.885 120.958C103.843 120.981 103.799 121.002 103.757 121.022C103.656 121.073 103.553 121.124 103.453 121.173C103.335 121.232 103.215 121.287 103.091 121.343C102.968 121.399 102.858 121.449 102.739 121.5C102.73 121.505 102.72 121.508 102.711 121.512C102.596 121.563 102.48 121.612 102.363 121.66C102.355 121.664 102.346 121.667 102.337 121.669C102.223 121.718 102.109 121.764 101.992 121.809C101.988 121.809 101.983 121.813 101.978 121.813L101.598 121.957C101.469 122.006 101.343 122.052 101.213 122.096C101.082 122.141 100.953 122.187 100.822 122.229C100.561 122.317 100.297 122.398 100.026 122.477C97.2452 123.256 94.366 123.636 91.4765 123.604H90.5421C88.5013 123.693 86.4614 123.406 84.5265 122.755C83.8199 122.479 83.1771 122.063 82.6374 121.533C82.3287 121.22 82.0653 120.866 81.8549 120.482C81.5019 119.815 81.2807 119.086 81.2035 118.337C81.2267 118.383 81.2506 118.427 81.2759 118.471C81.4854 118.856 81.7489 119.21 82.0583 119.522C82.5985 120.052 83.2411 120.468 83.9475 120.744C85.8824 121.395 87.9222 121.683 89.963 121.593H90.8975C93.787 121.625 96.6661 121.246 99.4471 120.466C99.7157 120.387 99.9798 120.306 100.243 120.218L100.633 120.086C100.764 120.039 100.89 119.993 101.019 119.946C101.147 119.899 101.273 119.851 101.399 119.802C101.404 119.802 101.409 119.798 101.413 119.798L101.758 119.659C101.765 119.659 101.775 119.651 101.784 119.649C101.901 119.6 102.015 119.551 102.132 119.5C102.142 119.496 102.151 119.493 102.161 119.489C102.28 119.438 102.397 119.385 102.513 119.331C102.63 119.278 102.754 119.22 102.875 119.163C102.978 119.114 103.078 119.063 103.178 119.012L103.306 118.947C103.39 118.905 103.474 118.861 103.558 118.817L103.602 118.794C103.689 118.748 103.776 118.701 103.862 118.65C103.896 118.631 103.934 118.613 103.967 118.592C104.044 118.548 104.119 118.506 104.193 118.462C104.231 118.441 104.266 118.42 104.305 118.397C104.383 118.353 104.46 118.306 104.536 118.26L104.627 118.205L104.898 118.038C104.919 118.027 104.938 118.013 104.957 118.001C105.057 117.936 105.155 117.871 105.254 117.806C109.078 115.228 111.783 111.314 112.831 106.843V106.83C113.287 104.502 113.225 102.104 112.649 99.8037C113.712 102.694 113.977 105.814 113.417 108.84H113.42Z" fill="#C5EFFF"/>
<path d="M114.166 109.05C111.602 119.492 102.046 124.54 91.3498 124.37C88.1412 124.217 83.7274 124.62 81.6602 121.552C80.7985 120.339 80.3484 118.885 80.3752 117.4C80.402 115.916 80.9043 114.479 81.8093 113.297C83.1635 111.566 85.149 111.219 87.6722 110.986C92.3472 110.555 97.8916 110.188 99.2835 105.141C99.549 104.086 99.467 102.975 99.0497 101.97C99.0248 101.921 99.0128 101.867 99.0149 101.812C99.0163 101.76 99.0309 101.709 99.0574 101.663C99.084 101.618 99.1217 101.58 99.167 101.553C99.1805 101.544 99.1954 101.537 99.2111 101.532C99.2721 101.516 99.3361 101.515 99.3975 101.529C99.459 101.543 99.516 101.572 99.5636 101.613C100.208 102.41 100.554 103.405 100.542 104.427C100.325 110.358 92.5738 111.664 87.6722 112.037C83.8425 112.123 81.6443 113.735 81.535 117.194C81.4344 123.07 86.7804 123.248 91.4722 123.225C102.861 123.225 110.599 118.121 113.037 108.761C114.428 102.451 110.865 91.7792 101.829 90.1508C101.705 90.1278 101.586 90.0509 101.467 90.0351C101.416 90.0279 101.257 89.8633 101.136 89.91C101.358 89.8172 101.701 89.8266 101.92 89.7289C102.324 89.5527 102.766 89.4017 103.16 89.2141C103.195 89.2235 103.233 89.2306 103.263 89.2393C111.098 91.3176 115.909 101.477 114.162 109.048L114.166 109.05Z" fill="black"/>
<path d="M37.95 108.701V108.714C39.0016 113.186 41.7111 117.1 45.5385 119.677C45.6369 119.742 45.7346 119.807 45.8352 119.872L45.8939 119.909C45.9829 119.967 46.0734 120.023 46.1646 120.076L46.2558 120.131C46.3325 120.178 46.4099 120.224 46.4867 120.268C46.5243 120.291 46.559 120.312 46.5988 120.333C46.6712 120.376 46.7487 120.418 46.8254 120.463C46.8601 120.481 46.8978 120.502 46.9303 120.521C47.0165 120.57 47.1033 120.616 47.1895 120.665C47.2061 120.672 47.2199 120.681 47.2336 120.688C47.3176 120.732 47.3994 120.776 47.4855 120.818C47.5275 120.841 47.5716 120.862 47.6136 120.883C47.7142 120.934 47.817 120.985 47.9169 121.034C48.0363 121.092 48.155 121.147 48.2788 121.203C48.4026 121.259 48.5126 121.31 48.6313 121.361C48.6407 121.365 48.6501 121.368 48.6595 121.372C48.7739 121.423 48.8904 121.472 49.0077 121.52C49.0157 121.524 49.0242 121.527 49.033 121.53C49.1474 121.578 49.2617 121.624 49.379 121.669C49.3833 121.669 49.3884 121.673 49.3928 121.673L49.7735 121.817C49.9016 121.866 50.0283 121.912 50.1585 121.957C50.2888 122.001 50.4177 122.047 50.5487 122.089C50.81 122.177 51.0742 122.259 51.3449 122.337C54.1258 123.117 57.005 123.496 59.8945 123.464H60.8289C62.8698 123.554 64.9096 123.266 66.8445 122.615C67.5511 122.339 68.1939 121.923 68.7337 121.393C69.0424 121.08 69.3058 120.727 69.5161 120.342C70.0365 119.322 70.2804 118.185 70.224 117.044C70.114 113.545 67.7413 111.53 63.7097 111.508C62.5815 111.422 61.5291 111.301 60.5524 111.143C60.5315 111.143 60.5105 111.136 60.4916 111.134C54.4594 110.16 51.3391 107.857 51.211 104.269C51.2062 103.664 51.3378 103.067 51.596 102.519C51.6547 102.427 51.706 102.325 51.7618 102.215C51.8288 102.054 51.9228 101.905 52.0397 101.775L52.1772 101.67L52.191 101.501C52.191 101.471 52.2163 101.436 52.2004 101.41C50.9764 99.5705 50.2411 95.0118 49.8205 92.1319C49.0099 91.7818 48.2115 91.3849 47.432 90.9931C47.432 90.9766 46.7031 90.6408 46.5634 90.5618C44.1935 91.6337 42.1803 93.3545 40.7599 95.5223C38.186 99.3591 37.0561 104.657 37.9479 108.7L37.95 108.701Z" fill="white"/>
<path d="M69.65 120.343C69.4405 120.728 69.177 121.082 68.8676 121.394C68.3274 121.924 67.6848 122.339 66.9784 122.616C65.0436 123.267 63.0037 123.555 60.9629 123.465H60.1008C57.6203 117.703 59.0991 113.521 60.6285 111.132C60.6495 111.132 60.6683 111.139 60.6893 111.141C61.6654 111.297 62.7179 111.418 63.8465 111.505C67.8753 111.528 70.2457 113.542 70.3608 117.041C70.4175 118.183 70.1736 119.32 69.6529 120.339L69.65 120.343Z" fill="black"/>
<path opacity="0.4" d="M59.4327 112.904C60.5396 113.032 61.7284 113.131 62.9989 113.201C66.7772 113.218 69.3091 114.328 70.2225 116.309V116.165C70.1125 113.189 67.7399 111.473 63.7083 111.454C62.5801 111.38 61.5277 111.277 60.551 111.146C60.53 111.146 60.509 111.139 60.4902 111.136C60.0735 111.687 59.7179 112.28 59.4298 112.906L59.4327 112.904Z" fill="white"/>
<path d="M60.5655 123.983H60.9693C63.0759 124.069 65.1805 123.768 67.1767 123.094C67.9475 122.79 68.6482 122.334 69.2367 121.753C69.5799 121.408 69.8723 121.015 70.1053 120.589C70.668 119.49 70.9337 118.266 70.8761 117.035V117.028C70.8854 116.19 70.7148 115.361 70.3757 114.594C70.0366 113.827 69.5368 113.141 68.9095 112.581C67.4745 111.471 65.6865 110.908 63.8696 110.995C62.7673 110.909 61.7257 110.791 60.7732 110.635L60.3737 110.573L60.1912 110.856C58.5308 113.444 57.0854 117.768 59.6238 123.667L59.757 123.978H60.1305C60.2752 123.978 60.42 123.978 60.5647 123.978L60.5655 123.983ZM69.1947 120.1C69.0075 120.442 68.7734 120.757 68.4991 121.035C68.0086 121.518 67.4236 121.897 66.7801 122.146C64.9064 122.767 62.934 123.042 60.9607 122.956H60.4467C58.352 117.842 59.4703 114.058 60.8904 111.697C61.7945 111.834 62.7774 111.943 63.8096 112.022H63.8472C67.611 112.045 69.739 113.832 69.8418 117.054C69.8945 118.106 69.6723 119.154 69.1969 120.095L69.1947 120.1Z" fill="black"/>
<path opacity="0.49" d="M37.9479 108.701V108.714C38.9995 113.186 41.7086 117.1 45.5356 119.676C45.634 119.741 45.7317 119.807 45.8323 119.871L45.891 119.909C45.98 119.967 46.0705 120.022 46.1617 120.075L46.2529 120.131C46.3296 120.177 46.4071 120.223 46.4838 120.267C46.5214 120.29 46.5562 120.311 46.596 120.332C46.6683 120.376 46.7458 120.418 46.8225 120.462C46.8573 120.481 46.8949 120.502 46.9275 120.52C47.0136 120.569 47.1005 120.615 47.1866 120.664C47.2032 120.671 47.217 120.681 47.2307 120.687C47.3147 120.731 47.3965 120.776 47.4826 120.817C47.5246 120.84 47.5688 120.861 47.6107 120.882C47.7113 120.933 47.8141 120.984 47.914 121.033C48.0334 121.091 48.1522 121.147 48.2759 121.203C48.3997 121.259 48.5097 121.309 48.6284 121.36C48.6378 121.364 48.6472 121.367 48.6566 121.372C48.771 121.423 48.8875 121.472 49.0048 121.52C49.0128 121.525 49.0213 121.528 49.0301 121.53C49.1445 121.579 49.2589 121.625 49.3761 121.669C49.3805 121.669 49.3855 121.674 49.3899 121.674L49.7706 121.818C49.8987 121.867 50.0254 121.913 50.1557 121.958C50.2859 122.002 50.4148 122.048 50.5458 122.09C50.8071 122.178 51.0713 122.259 51.342 122.338C54.123 123.117 57.0021 123.497 59.8916 123.465H60.826C62.8669 123.555 64.9067 123.267 66.8416 122.616C67.5483 122.34 68.191 121.924 68.7308 121.394C69.0395 121.081 69.3029 120.728 69.5132 120.343C69.8663 119.676 70.0874 118.947 70.1646 118.198C70.1415 118.244 70.1176 118.288 70.0923 118.332C69.8827 118.717 69.6193 119.071 69.3098 119.383C68.7696 119.913 68.127 120.329 67.4207 120.605C65.4858 121.256 63.4459 121.544 61.4051 121.454H60.4707C57.5812 121.486 54.702 121.107 51.921 120.327C51.6525 120.248 51.3883 120.167 51.1248 120.079L50.7347 119.947C50.6037 119.9 50.4777 119.854 50.3496 119.807C50.2215 119.76 50.0948 119.712 49.9689 119.663C49.9646 119.663 49.9595 119.659 49.9552 119.659L49.6092 119.52C49.6019 119.52 49.5925 119.513 49.5838 119.51C49.4673 119.461 49.353 119.413 49.2357 119.362C49.2263 119.357 49.2169 119.354 49.2075 119.35C49.088 119.299 48.9715 119.246 48.855 119.193C48.7384 119.139 48.6147 119.081 48.4931 119.024C48.3903 118.975 48.2897 118.924 48.1898 118.873L48.0617 118.808C47.9777 118.766 47.8938 118.722 47.8098 118.678L47.7656 118.655C47.6795 118.608 47.5926 118.562 47.5065 118.511C47.4718 118.492 47.4341 118.474 47.4016 118.453C47.3248 118.409 47.2496 118.367 47.175 118.323C47.1374 118.302 47.1026 118.281 47.0628 118.258C46.9861 118.214 46.9086 118.167 46.8319 118.121L46.7407 118.066L46.47 117.899C46.449 117.888 46.4302 117.874 46.4114 117.862C46.3108 117.797 46.2131 117.732 46.1146 117.667C42.2889 115.09 39.5814 111.176 38.532 106.705V106.691C38.076 104.364 38.1382 101.966 38.7144 99.6655C37.6515 102.556 37.3861 105.676 37.9457 108.702L37.9479 108.701Z" fill="#C5EFFF"/>
<path d="M37.2002 108.907C39.7647 119.35 49.3204 124.397 60.0168 124.228C63.2255 124.075 67.6393 124.478 69.7065 121.41C70.5681 120.196 71.0181 118.742 70.9913 117.258C70.9645 115.773 70.4622 114.336 69.5574 113.154C68.2031 111.424 66.2177 111.076 63.6945 110.844C59.0194 110.412 53.4751 110.046 52.0832 104.998C51.8176 103.944 51.8996 102.832 52.317 101.827C52.3419 101.779 52.3539 101.724 52.3517 101.67C52.3504 101.617 52.3358 101.566 52.3092 101.521C52.2826 101.475 52.245 101.437 52.1997 101.41C52.1862 101.401 52.1713 101.394 52.1555 101.389C52.0946 101.373 52.0306 101.372 51.9691 101.386C51.9077 101.401 51.8507 101.43 51.8031 101.471C51.1584 102.268 50.8125 103.262 50.8245 104.284C51.0416 110.215 58.7929 111.522 63.6945 111.895C67.5242 111.98 69.7224 113.593 69.8317 117.052C69.9323 122.927 64.5863 123.106 59.8945 123.083C48.5047 123.083 40.7679 117.978 38.3301 108.618C36.9382 102.309 40.5181 91.6086 49.5535 89.9803C49.6772 89.9573 49.7967 89.9385 49.9154 89.922C49.9668 89.9148 50.0768 89.8897 50.1253 89.8847C49.9031 89.7919 49.6649 89.6826 49.4456 89.5877C49.0417 89.4116 48.6002 89.2606 48.2057 89.073C48.171 89.0823 48.1333 89.0895 48.1029 89.0981C40.2677 91.1765 35.4573 101.336 37.2038 108.907H37.2002Z" fill="black"/>
<path d="M40.005 219.305C40.2714 219.316 40.5372 219.271 40.7844 219.171C41.0315 219.072 41.2543 218.92 41.4375 218.728C41.6207 218.535 41.7602 218.306 41.8465 218.055C41.9327 217.805 41.9638 217.539 41.9375 217.275V199.113H45.3394C45.5553 199.136 45.7736 199.112 45.979 199.042C46.1845 198.973 46.3721 198.859 46.5288 198.71C46.6854 198.561 46.8074 198.379 46.886 198.178C46.9646 197.977 46.998 197.762 46.9839 197.547C46.9948 197.331 46.9593 197.116 46.8798 196.916C46.8004 196.715 46.6789 196.533 46.5233 196.383C46.3677 196.233 46.1816 196.117 45.9775 196.044C45.7734 195.97 45.5558 195.941 45.3394 195.958H41.918V193.53C41.918 191.169 42.8068 190.151 44.8509 190.151C45.255 190.16 45.6585 190.115 46.0509 190.019C46.3612 189.962 46.6392 189.792 46.8315 189.544C47.0238 189.295 47.1167 188.985 47.0925 188.672C47.0925 187.547 46.0068 186.885 43.9599 186.885C40.183 186.885 38.0724 189.004 38.0724 193.395V195.955H36.1615C35.9451 195.938 35.7276 195.968 35.5235 196.041C35.3194 196.114 35.1333 196.23 34.9777 196.38C34.8221 196.53 34.7006 196.712 34.6211 196.913C34.5417 197.113 34.5062 197.328 34.517 197.544C34.5029 197.759 34.5364 197.975 34.615 198.176C34.6936 198.376 34.8155 198.558 34.9722 198.707C35.1289 198.856 35.3165 198.97 35.5219 199.039C35.7274 199.109 35.9457 199.133 36.1615 199.11H38.0724V217.275C38.0461 217.539 38.0772 217.805 38.1635 218.055C38.2497 218.306 38.3892 218.535 38.5724 218.728C38.7557 218.92 38.9784 219.072 39.2255 219.171C39.4727 219.271 39.7385 219.316 40.005 219.305ZM58.2023 219.305C64.579 219.305 68.8893 214.737 68.8893 207.432C68.8893 200.106 64.579 195.56 58.2023 195.56C51.8031 195.56 47.4899 200.105 47.4899 207.432C47.4928 214.737 51.8031 219.305 58.2023 219.305ZM58.2023 215.926C54.1142 215.926 51.426 212.835 51.426 207.43C51.426 202.025 54.1142 198.934 58.2023 198.934C62.2903 198.934 64.9597 202.026 64.9597 207.436C64.9597 212.846 62.2903 215.929 58.2023 215.929V215.926ZM81.4431 219.305C87.8198 219.305 92.1301 214.737 92.1301 207.432C92.1301 200.106 87.8198 195.56 81.4431 195.56C75.0438 195.56 70.7307 200.105 70.7307 207.432C70.7343 214.737 75.0446 219.305 81.4431 219.305ZM81.4431 215.926C77.355 215.926 74.6667 212.835 74.6667 207.43C74.6667 202.025 77.355 198.934 81.4431 198.934C85.5311 198.934 88.1976 202.025 88.1976 207.43C88.1976 212.835 85.5318 215.929 81.4431 215.929V215.926ZM103.862 219.305C105.395 219.384 106.915 218.995 108.218 218.19C109.521 217.385 110.544 216.203 111.15 214.803H111.217V217.429C111.216 217.683 111.267 217.935 111.367 218.169C111.467 218.403 111.614 218.614 111.799 218.79C111.984 218.966 112.203 219.102 112.443 219.19C112.683 219.279 112.939 219.318 113.194 219.305C113.445 219.316 113.696 219.275 113.93 219.185C114.165 219.095 114.377 218.957 114.555 218.78C114.733 218.604 114.871 218.392 114.962 218.16C115.053 217.927 115.094 217.678 115.083 217.429V188.719C115.104 188.455 115.069 188.19 114.981 187.941C114.893 187.691 114.754 187.463 114.572 187.269C114.39 187.076 114.17 186.923 113.925 186.819C113.68 186.715 113.416 186.663 113.15 186.667C112.883 186.663 112.619 186.715 112.374 186.819C112.129 186.923 111.909 187.076 111.727 187.269C111.545 187.463 111.406 187.691 111.318 187.941C111.23 188.19 111.195 188.455 111.216 188.719V199.687H111.127C110.401 198.395 109.33 197.327 108.033 196.599C106.736 195.871 105.262 195.512 103.773 195.56C97.9524 195.56 93.9751 200.239 93.9751 207.433C93.9751 214.627 97.9749 219.305 103.862 219.305ZM104.596 215.926C100.507 215.926 97.93 212.638 97.93 207.43C97.93 202.244 100.507 198.934 104.596 198.934C108.573 198.934 111.239 202.313 111.239 207.43C111.239 212.575 108.573 215.929 104.596 215.929V215.926Z" fill="#00A6ED"/>
<path d="M41.0892 145.902C41.6836 145.915 42.2746 145.81 42.8275 145.593C43.3805 145.376 43.8843 145.052 44.3095 144.639C44.7347 144.226 45.0727 143.733 45.3037 143.189C45.5347 142.645 45.6542 142.061 45.655 141.47C45.6567 140.879 45.5389 140.293 45.3087 139.748C45.0786 139.203 44.7406 138.709 44.3149 138.296C43.8892 137.883 43.3844 137.559 42.8304 137.342C42.2763 137.126 41.6843 137.023 41.0892 137.038C40.4942 137.023 39.9021 137.126 39.3481 137.342C38.794 137.559 38.2892 137.883 37.8635 138.296C37.4378 138.709 37.0999 139.203 36.8697 139.748C36.6395 140.293 36.5218 140.879 36.5234 141.47C36.5242 142.061 36.6437 142.645 36.8747 143.189C37.1058 143.733 37.4438 144.226 37.869 144.639C38.2941 145.052 38.798 145.376 39.3509 145.593C39.9039 145.81 40.4948 145.915 41.0892 145.902ZM41.0892 181.887C43.7232 181.887 45.3597 180.214 45.3597 177.426V153.651C45.3597 150.862 43.721 149.16 41.0892 149.16C38.4256 149.16 36.8187 150.862 36.8187 153.651V177.428C36.8166 180.214 38.4263 181.885 41.0892 181.885V181.887ZM67.5083 181.887C70.0257 181.887 71.7787 180.361 71.7787 177.426V171.056L74.501 168.532L82.5505 179.216C83.8968 181.238 84.9217 181.885 86.7392 181.885C87.2686 181.922 87.7999 181.848 88.2989 181.668C88.7979 181.488 89.2535 181.207 89.6366 180.842C90.0197 180.478 90.3218 180.037 90.5235 179.55C90.7252 179.062 90.822 178.538 90.8077 178.011C90.8103 176.853 90.383 175.735 89.6076 174.87L80.8531 163.689L88.8433 156.117C90.0737 154.972 90.453 154.179 90.453 152.888C90.4616 152.392 90.3686 151.899 90.1798 151.439C89.9909 150.98 89.7101 150.563 89.3543 150.215C88.9985 149.866 88.5752 149.593 88.11 149.412C87.6448 149.231 87.1474 149.145 86.648 149.16C85.3603 149.16 84.394 149.659 83.2526 150.863L71.8974 162.28H71.7802V142.761C71.7802 139.826 70.0242 138.27 67.5097 138.27C65.022 138.27 63.2392 139.826 63.2392 142.761V177.428C63.2334 180.361 65.0191 181.885 67.5068 181.885L67.5083 181.887ZM111.69 145.902C112.284 145.915 112.875 145.81 113.428 145.593C113.981 145.376 114.485 145.052 114.91 144.639C115.335 144.226 115.673 143.733 115.904 143.189C116.135 142.645 116.255 142.061 116.255 141.47C116.257 140.879 116.139 140.293 115.909 139.748C115.679 139.203 115.341 138.709 114.915 138.296C114.49 137.883 113.985 137.559 113.431 137.342C112.877 137.126 112.285 137.023 111.69 137.038C111.095 137.023 110.503 137.126 109.948 137.342C109.394 137.559 108.89 137.883 108.464 138.296C108.038 138.709 107.7 139.203 107.47 139.748C107.24 140.293 107.122 140.879 107.124 141.47C107.125 142.061 107.244 142.645 107.475 143.189C107.706 143.733 108.044 144.226 108.469 144.639C108.895 145.052 109.398 145.376 109.951 145.593C110.504 145.81 111.095 145.915 111.69 145.902ZM111.69 181.887C114.324 181.887 115.96 180.214 115.96 177.426V153.651C115.96 150.862 114.321 149.16 111.69 149.16C109.026 149.16 107.419 150.862 107.419 153.651V177.428C107.417 180.214 109.027 181.885 111.69 181.885V181.887Z" fill="#00A6ED"/>
</g>
</g>
<defs>
<clipPath id="clip0_298_556">
<rect width="152" height="220" fill="white"/>
</clipPath>
</defs>
</svg>
